<?xml version="1.0" encoding="utf-8"?><!-- Generator: Adobe Illustrator 16.0.0, SVG Export Plug-In . SVG Version: 6.00 Build 0)  --><!DOCTYPE svg PUBLIC "-//W3C//DTD SVG 1.1//EN" "http://www.w3.org/Graphics/SVG/1.1/DTD/svg11.dtd"><svg xmlns="http://www.w3.org/2000/svg" xmlns:xlink="http://www.w3.org/1999/xlink" version="1.1" id="Layer_1" x="0px" y="0px" width="65.15800476074219" height="6.674012660980225" viewBox="-8.65999984741211 4.260986804962158 65.15800476074219 6.674012660980225" enable-background="new 0 0 48 16" xml:space="preserve">
<g>
	<path fill="#FFFFFF" d="M-3.834,5.335l-0.392,0.832c-0.607-0.368-1.215-0.52-1.639-0.52c-0.551,0-0.911,0.208-0.911,0.584   c0,1.223,3.022,0.567,3.014,2.583c0,1-0.879,1.615-2.111,1.615c-0.879,0-1.711-0.359-2.287-0.887l0.408-0.816   c0.576,0.527,1.295,0.816,1.895,0.816c0.655,0,1.047-0.248,1.047-0.68c0-1.247-3.022-0.552-3.022-2.542   c0-0.959,0.824-1.559,2.039-1.559C-5.065,4.759-4.354,4.991-3.834,5.335z" stroke-width="1"/>
	<path fill="#FFFFFF" d="M-1.712,5.646v1.511h2.734v0.848h-2.734v1.543h3.15v0.848h-4.094V4.799h3.998v0.847H-1.712z" stroke-width="1"/>
	<path fill="#FFFFFF" d="M4.638,5.646v4.75H3.695v-4.75H1.928V4.799h4.486v0.847H4.638z" stroke-width="1"/>
	<path fill="#FFFFFF" d="M11.981,8.077c0,1.464-0.92,2.358-2.431,2.358c-1.512,0-2.438-0.895-2.438-2.358V4.799h0.943v3.278   c0,0.944,0.583,1.511,1.503,1.511c0.911,0,1.479-0.559,1.479-1.511V4.799h0.943V8.077z" stroke-width="1"/>
	<path fill="#FFFFFF" d="M15.567,4.799c1.407,0,2.214,0.695,2.214,1.911c0,1.263-0.807,1.999-2.214,1.999h-1.288v1.688h-0.943V4.799   H15.567z M14.279,7.861h1.248c0.863,0,1.351-0.368,1.351-1.127c0-0.735-0.487-1.087-1.351-1.087h-1.248V7.861z" stroke-width="1"/>
	<path fill="#FFFFFF" d="M23.015,4.799c1.407,0,2.215,0.695,2.215,1.911c0,1.263-0.808,1.999-2.215,1.999h-1.288v1.688h-0.943V4.799   H23.015z M21.727,7.861h1.248c0.863,0,1.351-0.368,1.351-1.127c0-0.735-0.487-1.087-1.351-1.087h-1.248V7.861z" stroke-width="1"/>
	<path fill="#FFFFFF" d="M29.533,9.541v0.855h-3.365V4.799h0.943v4.742H29.533z" stroke-width="1"/>
	<path fill="#FFFFFF" d="M31.279,9.133l-0.537,1.264H29.76l2.471-5.597h0.967l2.447,5.597h-1.008l-0.535-1.264H31.279z    M32.686,5.807l-1.055,2.486h2.111L32.686,5.807z" stroke-width="1"/>
	<path fill="#FFFFFF" d="M38.295,10.396h-0.936V8.565l-2.088-3.766h0.953l1.598,2.726l1.568-2.726h0.959l-2.055,3.734V10.396z" stroke-width="1"/>
	<path fill="#FFFFFF" d="M42.039,5.646v1.511h2.734v0.848h-2.734v1.543h3.15v0.848h-4.094V4.799h3.998v0.847H42.039z" stroke-width="1"/>
	<path fill="#FFFFFF" d="M48.871,8.701c-0.08,0.008-0.168,0.008-0.256,0.008h-1.328v1.688h-0.943V4.799h2.271   c1.43,0,2.254,0.695,2.254,1.911c0,0.896-0.416,1.527-1.16,1.815l1.256,1.872h-1.07L48.871,8.701z M48.615,7.861   c0.863,0,1.357-0.368,1.357-1.127c0-0.735-0.494-1.087-1.357-1.087h-1.328v2.215H48.615z" stroke-width="1"/>
	<path fill="#FFFFFF" d="M55.926,5.335l-0.393,0.832c-0.607-0.368-1.215-0.52-1.639-0.52c-0.551,0-0.912,0.208-0.912,0.584   c0,1.223,3.023,0.567,3.016,2.583c0,1-0.881,1.615-2.111,1.615c-0.879,0-1.711-0.359-2.287-0.887l0.408-0.816   c0.576,0.527,1.295,0.816,1.895,0.816c0.656,0,1.047-0.248,1.047-0.68c0-1.247-3.021-0.552-3.021-2.542   c0-0.959,0.824-1.559,2.039-1.559C54.693,4.759,55.406,4.991,55.926,5.335z" stroke-width="1"/>
</g>
</svg>