<svg version="1.1" xmlns="http://www.w3.org/2000/svg" xmlns:xlink="http://www.w3.org/1999/xlink" width="24.115" height="6.262" viewBox="0,0,24.115,6.262"><g transform="translate(-227.943,-176.583)"><g data-paper-data="{&quot;isPaintingLayer&quot;:true}" fill="#000000" fill-rule="nonzero" stroke="none" stroke-width="1" stroke-linecap="butt" stroke-linejoin="miter" stroke-miterlimit="10" stroke-dasharray="" stroke-dashoffset="0" style="mix-blend-mode: normal"><g><path/><path d="M227.943,176.583h5.101l1.391,1.342v3.578l-1.391,1.342h-5.101zM229.798,178.372v2.684h2.319l0.463,-0.448v-1.789l-0.463,-0.447z"/><path d="M237.218,182.845h-1.855v-6.262h1.855z"/><path d="M240,179.713v3.131h-1.854v-6.261h1.391l3.246,3.13v-3.13h1.855v6.262h-1.391z"/><path d="M245.565,181.503v-3.578l1.392,-1.342h3.71l1.391,1.342v3.578l-1.391,1.342h-3.71zM247.42,178.819v1.789l0.464,0.448h1.855l0.464,-0.448v-1.789l-0.464,-0.447h-1.855z"/><path/></g></g></g></svg>