<svg version="1.1" xmlns="http://www.w3.org/2000/svg" xmlns:xlink="http://www.w3.org/1999/xlink" width="30.35714" height="26.71429" viewBox="0,0,30.35714,26.71429"><g transform="translate(-224.82143,-166.64286)"><g data-paper-data="{&quot;isPaintingLayer&quot;:true}" fill-rule="nonzero" stroke="none" stroke-linecap="butt" stroke-linejoin="miter" stroke-miterlimit="10" stroke-dasharray="" stroke-dashoffset="0" style="mix-blend-mode: normal"><path d="M250.59964,179.09833l-3.00519,6.48846c-0.81959,1.70749 -2.86858,2.45879 -4.57607,1.63919l-6.48846,-3.00519c-1.70749,-0.81959 -2.45879,-2.86858 -1.63919,-4.57607l3.00518,-6.48846c0.75129,-1.70749 2.80028,-2.45879 4.50777,-1.63919l6.48846,3.00518c1.70749,0.81959 2.39049,2.86858 1.70749,4.57607zM242.13049,178.00554c0.683,-0.2732 1.0245,-1.09279 0.75129,-1.84409c-0.2732,-0.683 -1.09279,-1.0245 -1.84409,-0.75129c-0.683,0.3415 -1.0245,1.16109 -0.75129,1.84409c0.2732,0.75129 1.09279,1.09279 1.84409,0.75129zM245.06737,181.42052c-0.2732,-0.683 -1.09279,-1.0245 -1.84408,-0.75129c-0.683,0.2732 -1.0245,1.09279 -0.7513,1.84408c0.2732,0.683 1.09279,1.0245 1.84409,0.75129c0.683,-0.2732 1.0245,-1.09279 0.75129,-1.84408z" fill="#ffffff" stroke-width="1"/><path d="M241.72069,187.36258c-0.6147,0.81959 -1.63918,1.36599 -2.73198,1.36599h-6.35186c-1.84409,0 -3.41498,-1.50259 -3.41498,-3.41498v-6.35186c0,-1.84409 1.57089,-3.41498 3.41498,-3.41498h3.34668l-1.77579,3.75648c-0.9562,2.04898 -0.0683,4.50777 1.98068,5.46397l0.6147,0.27319c0.0683,0.75129 0.683,1.36599 1.43429,1.36599c0.2732,0 0.61469,-0.0683 0.81959,-0.2732zM231.27085,179.37153c0,0.81959 0.6147,1.43429 1.4343,1.43429c0.81959,0 1.43429,-0.683 1.43429,-1.43429c0,-0.81959 -0.68299,-1.43429 -1.43429,-1.43429c-0.81959,0 -1.4343,0.6147 -1.4343,1.43429zM234.13944,184.9721c0,-0.81959 -0.68299,-1.43429 -1.43429,-1.43429c-0.81959,0 -1.4343,0.683 -1.4343,1.43429c0,0.81959 0.683,1.43429 1.4343,1.43429c0.81959,0 1.43429,-0.6147 1.43429,-1.43429z" fill="#ffffff" stroke-width="1"/><path d="M224.82143,193.35714v-26.71429h30.35714v26.71429z" fill="none" stroke-width="0"/></g></g></svg>