<svg version="1.1" xmlns="http://www.w3.org/2000/svg" xmlns:xlink="http://www.w3.org/1999/xlink" width="54.6" height="6.4" viewBox="0,0,54.6,6.4"><g transform="translate(-212.7,-176.8)"><g data-paper-data="{&quot;isPaintingLayer&quot;:true}" fill="#000000" fill-rule="nonzero" stroke="none" stroke-width="1" stroke-linecap="butt" stroke-linejoin="miter" stroke-miterlimit="10" stroke-dasharray="" stroke-dashoffset="0" style="mix-blend-mode: normal"><path d="M212.7,181.8v-3.6l1.4,-1.4h3.6l1.4,1.4l-0.9,0.9h0.8v4.1h-5zM214.5,179.1v1.8l0.5,0.5h2.3v-0.5h-1.8v-1.8h1.8l-0.5,-0.5h-1.8z"/><path d="M221,176.8h3.6l1.4,1.4v5h-1.8v-1.4h-2.7v1.4h-1.8v-5zM223.7,178.6h-1.8l-0.5,0.5v0.9h2.7v-0.9z"/><path d="M226.9,181.8v-5h1.8v4.1l0.5,0.5h1.8l0.5,-0.5v-4.1h1.8v5l-1.4,1.4h-3.6z"/><path d="M235.9,180v3.2h-1.8v-6.3h1.4l3.2,3.2v-3.2h1.8v6.3h-1.4z"/><path d="M245.4,178.6v4.5h-1.8v-4.5h-2.3v-1.8h6.3v1.8z"/><path d="M248.6,176.8h1.8v4.5h3.6v1.8h-5.4z"/><path d="M256.7,181.4h3.6v1.8h-5.4v-6.3h5.4v1.8h-3.6v0.5h3.6v1.8h-3.6z"/><path d="M265.1,178.6v4.5h-1.8v-4.5h-2.3v-1.8h6.3v1.8z"/></g></g></svg>