<svg version="1.1" xmlns="http://www.w3.org/2000/svg" xmlns:xlink="http://www.w3.org/1999/xlink" width="57.6404" height="18.5056" viewBox="0,0,57.6404,18.5056"><g transform="translate(-211.1798,-170.7472)"><g data-paper-data="{&quot;isPaintingLayer&quot;:true}" fill-rule="nonzero" stroke="none" stroke-width="1" stroke-linecap="butt" stroke-linejoin="miter" stroke-miterlimit="10" stroke-dasharray="" stroke-dashoffset="0" style="mix-blend-mode: normal"><g><g fill="#000000"><path d="M266.4438,189.2528h-52.8876c-1.307,0 -2.3764,-1.0694 -2.3764,-2.3764v-13.6516c0,-1.307 1.0694,-2.3764 2.3764,-2.3764h52.8876c1.307,0 2.3764,1.0694 2.3764,2.3764v13.6517c0,1.307 -1.0694,2.3763 -2.3764,2.3763z"/></g><g fill="#ffffff"><path d="M224.956,175.1551h1.9443v6.8159h4.2119v1.584h-6.1562z"/><path d="M239.6913,175.1551l-3.6357,8.3999h-1.9199l-3.624,-8.3999h2.1006l2.5557,6l2.5918,-6z"/><path d="M240.3876,175.1551h1.9443v6.8159h4.2119v1.584h-6.1562z"/><path d="M253.7441,175.1551v8.3999h-1.9443v-6.8398h-1.6797v-1.5601z"/></g><g fill="#000000"><path d="M266.4438,189.1517h-52.8876c-1.307,0 -2.3764,-1.0694 -2.3764,-2.3764v-13.6517c0,-1.307 1.0694,-2.3764 2.3764,-2.3764h52.8876c1.307,0 2.3764,1.0694 2.3764,2.3764v13.6517c0,1.307 -1.0694,2.3764 -2.3764,2.3764z"/></g><g fill="#ffffff"><path d="M223.8251,175.0536h1.9434v6.8159h4.2119v1.584h-6.1553z"/><path d="M238.5605,175.0536l-3.6357,8.3999h-1.9199l-3.624,-8.3999h2.0996l2.5557,6l2.5928,-6z"/><path d="M239.2568,175.0536h1.9434v6.8159h4.2119v1.584h-6.1553z"/><path d="M257.0644,181.6893h-1.3682v1.7642h-1.8955v-1.7642h-4.5244v-1.3076l3.96,-5.3281h2.04l-3.6719,5.0518h2.2559v-1.5718h1.8359v1.5718h1.3682z"/></g></g></g></g></svg>