<svg xmlns="http://www.w3.org/2000/svg" xmlns:xlink="http://www.w3.org/1999/xlink" version="1.1" width="28.11050033569336" height="6.6763153076171875" viewBox="0.021499991416931152 -0.25256478786468506 28.11050033569336 6.6763153076171875">
  <!-- Exported by Scratch - http://scratch.mit.edu/ -->
  <g id="ID0.003102448768913746">
    <path id="ID0.22483028005808592" fill="#FFFFFF" d="M 12.309 3.362 C 12.268 3.366 12.223 3.366 12.177 3.366 L 11.493 3.366 L 11.493 4.236 L 11.007 4.236 L 11.007 1.352 L 12.177 1.352 C 12.915 1.352 13.339 1.71 13.339 2.336 C 13.339 2.797 13.125 3.123 12.741 3.272 L 13.388 4.236 L 12.836 4.236 L 12.309 3.362 Z M 12.177 2.93 C 12.622 2.93 12.878 2.741 12.878 2.349 C 12.878 1.97 12.623 1.788 12.177 1.788 L 11.493 1.788 L 11.493 2.93 L 12.177 2.93 Z " stroke-width="1"/>
    <path id="ID0.8415483655408025" fill="#FFFFFF" d="M 14.399 3.585 L 14.123 4.236 L 13.616 4.236 L 14.889 1.352 L 15.388 1.352 L 16.648 4.236 L 16.129 4.236 L 15.853 3.585 L 14.399 3.585 Z M 15.124 1.871 L 14.58 3.152 L 15.667 3.152 L 15.124 1.871 Z " stroke-width="1"/>
    <path id="ID0.8177141803316772" fill="#FFFFFF" d="M 19.059 4.236 L 17.522 2.167 L 17.522 4.236 L 17.036 4.236 L 17.036 1.352 L 17.514 1.352 L 19.059 3.424 L 19.059 1.352 L 19.537 1.352 L 19.537 4.236 L 19.059 4.236 Z " stroke-width="1"/>
    <path id="ID0.0882823308929801" fill="#FFFFFF" d="M 22.702 2.819 L 22.702 3.882 C 22.41 4.104 21.977 4.257 21.582 4.257 C 20.729 4.257 20.065 3.619 20.065 2.795 C 20.065 1.971 20.737 1.34 21.61 1.34 C 22.022 1.34 22.434 1.497 22.718 1.744 L 22.443 2.102 C 22.22 1.896 21.911 1.772 21.61 1.772 C 21.021 1.772 20.56 2.221 20.56 2.794 C 20.56 3.371 21.025 3.82 21.615 3.82 C 21.829 3.82 22.072 3.746 22.278 3.622 L 22.278 2.819 L 22.702 2.819 Z " stroke-width="1"/>
    <path id="ID0.12099288962781429" fill="#FFFFFF" d="M 23.881 1.789 L 23.881 2.568 L 25.29 2.568 L 25.29 3.005 L 23.881 3.005 L 23.881 3.8 L 25.504 3.8 L 25.504 4.237 L 23.395 4.237 L 23.395 1.352 L 25.455 1.352 L 25.455 1.789 L 23.881 1.789 Z " stroke-width="1"/>
    <path id="ID0.11276159854605794" fill="#FFFFFF" d="M 26.907 3.062 L 26.907 3.783 L 26.597 3.783 L 26.597 3.062 L 25.868 3.062 L 25.868 2.736 L 26.597 2.736 L 26.597 2.015 L 26.907 2.015 L 26.907 2.736 L 27.632 2.736 L 27.632 3.061 L 26.907 3.061 Z " stroke-width="1"/>
  </g>
  <g id="RSS">
    <path id="circle_1_" fill="#FFFFFF" d="M 5.3067 4.5484 C 5.6214 4.8634 5.6205 5.3725 5.3052 5.6878 C 4.9911 6.0019 4.482 6.0028 4.1673 5.6881 C 3.8535 5.3743 3.8517 4.8622 4.1658 4.5481 C 4.4811 4.2328 4.9929 4.2346 5.3067 4.5484 Z " stroke-width="0.29914894700050354"/>
    <path id="ID0.43708628974854946" fill="#FFFFFF" d="M 7.4974 3.4316 L 6.7477 4.1816 C 6.2033 3.6566 5.491 3.3676 4.7359 3.3673 C 3.98 3.3661 3.2692 3.6527 2.7275 4.1744 L 1.9802 3.4272 C 3.5115 1.9371 5.964 1.9389 7.4974 3.4316 L 7.4974 3.4316 Z " stroke-width="0.29914894700050354"/>
    <path id="ID0.3700034855864942" fill="#FFFFFF" d="M 8.9563 1.9727 L 8.2082 2.7209 C 6.281 0.8353 3.1908 0.8314 1.2685 2.7125 L 0.5215 1.9655 C 2.8567 -0.3281 6.6173 -0.3248 8.9563 1.9727 L 8.9563 1.9727 Z " stroke-width="0.29914894700050354"/>
  </g>
</svg>