<svg version="1.1" xmlns="http://www.w3.org/2000/svg" xmlns:xlink="http://www.w3.org/1999/xlink" width="57.966" height="6.262" viewBox="0,0,57.966,6.262"><g transform="translate(-211.249,-176.583)"><g data-paper-data="{&quot;isPaintingLayer&quot;:true}" fill="#000000" fill-rule="nonzero" stroke="none" stroke-width="1" stroke-linecap="butt" stroke-linejoin="miter" stroke-miterlimit="10" stroke-dasharray="" stroke-dashoffset="0" style="mix-blend-mode: normal"><path d=""/><path d="M213.104,179.266v3.579h-1.855v-6.262h1.855l1.391,1.342l1.391,-1.342h1.855v6.262h-1.855v-3.579l-1.391,1.342z"/><path d="M218.668,181.503v-3.578l1.391,-1.342h3.71l1.391,1.342v3.578l-1.39,1.342h-3.71zM220.523,178.819v1.789l0.464,0.448h1.855l0.463,-0.448v-1.789l-0.463,-0.447h-1.855z"/><path d="M226.088,181.503v-3.578l1.391,-1.342h3.71l1.391,1.342v3.578l-1.391,1.342h-3.71zM227.943,178.819v1.789l0.464,0.448h1.855l0.463,-0.448v-1.789l-0.463,-0.447h-1.855z"/><path d="M235.363,179.713v3.131h-1.855v-6.261h1.391l3.246,3.13v-3.13h1.855v6.262h-1.391z"/><path d="M246.029,182.845h-1.392l-0.464,-0.447l-0.463,0.447h-1.391l-1.391,-1.342v-4.92h1.854v4.025l0.232,0.224l0.231,-0.224v-4.025h1.855v4.025l0.231,0.224l0.232,-0.224v-4.025h1.854v4.92z"/><path d="M249.739,176.583h3.71l1.391,1.342v4.92h-1.854v-1.342h-2.783v1.342h-1.854v-4.92zM252.521,178.372h-1.855l-0.464,0.447v0.895h2.783v-0.895z"/><path d="M255.768,176.583h1.854v4.473h3.71v1.789h-5.564z"/><path d="M264.114,180.608v2.237h-1.854v-6.262h1.854v2.236l2.319,-2.236h2.782l-3.246,3.13l3.246,3.131h-2.782z"/></g></g></svg>