<svg version="1.1" xmlns="http://www.w3.org/2000/svg" xmlns:xlink="http://www.w3.org/1999/xlink" width="31.6" height="6.6" viewBox="0,0,31.6,6.6"><g transform="translate(-224.2,-176.7)"><g data-paper-data="{&quot;isPaintingLayer&quot;:true}" fill="#000000" fill-rule="nonzero" stroke="none" stroke-width="1" stroke-linecap="butt" stroke-linejoin="miter" stroke-miterlimit="10" stroke-dasharray="" stroke-dashoffset="0" style="mix-blend-mode: normal"><path/><path d="M230.7,178.1v1.9l-1.4,1.4h-3.2v1.9h-1.9v-6.5h5.1zM228.9,179.1l-0.5,-0.5h-2.3v0.9h2.3z"/><path d="M233.5,183.2h-1.9v-6.5h1.9z"/><path d="M237.7,178.6h-3.2v-1.9h6.5v1.4l-3.2,3.2h3.2v1.9h-6.5v-1.4z"/><path d="M245.1,178.6h-3.2v-1.9h6.5v1.4l-3.2,3.2h3.2v1.9h-6.5v-1.4z"/><path d="M250.7,176.8h3.7l1.4,1.4v5.1h-1.9v-1.4h-2.8v1.4h-1.9v-5.1zM253.5,178.6h-1.9l-0.5,0.5v0.9h2.8v-0.9z"/><path/></g></g></svg>