<svg xmlns="http://www.w3.org/2000/svg" xmlns:xlink="http://www.w3.org/1999/xlink" version="1.1" width="9.579999923706055" height="17.802000045776367" viewBox="0.16800004243850708 -0.11399996280670166 9.579999923706055 17.802000045776367">
  <defs>
    <linearGradient id="grad_1" x1="32.0005" y1="25.9863" x2="32.0005" y2="16.1667" gradientUnits="userSpaceOnUse">
      <stop offset="0" stop-color="#FFFFFF" stop-opacity="0.01"/>
      <stop offset="1" stop-color="#000000" stop-opacity="0"/>
    </linearGradient>
  <linearGradient id="grad_1-,0,0,1,-27,-14" x1="5.0005" y1="11.9863" x2="5.0005" y2="2.1667" gradientUnits="userSpaceOnUse">
      <stop offset="0" stop-color="#FFFFFF" stop-opacity="0.01"/>
      <stop offset="1" stop-color="#000000" stop-opacity="0"/>
    </linearGradient></defs>
  <!-- Exported by Scratch - http://scratch.mit.edu/ -->
  <g id="ID0.9843664839863777">
    <path id="ID0.5163048976100981" fill="#FFFFFF" d="M 3.956 17.188 L 3.956 2.906 L 0.668 2.906 L 0.668 0.386 L 6.788 0.386 L 6.788 17.187 L 3.956 17.187 Z " stroke-width="1"/>
  </g>
  <g id="ID0.9877754580229521">
    <path id="ID0.24635698599740863" fill="url(#grad_1-,0,0,1,-27,-14)" d="M 0.788 8.553 C 0.812 8.05 0.872 7.558 0.968 7.079 C 1.064 6.6 1.202 6.144 1.382 5.712 C 1.562 5.281 1.808 4.903 2.12 4.58 C 2.432 4.256 2.825 3.999 3.299 3.807 C 3.773 3.616 4.34 3.52 5 3.52 C 5.66 3.52 6.227 3.616 6.701 3.808 C 7.175 4 7.568 4.257 7.88 4.581 C 8.192 4.904 8.438 5.282 8.618 5.713 C 8.798 6.145 8.935 6.6 9.032 7.08 C 9.128 7.559 9.187 8.05 9.212 8.554 C 9.237 9.058 9.248 9.543 9.248 10.01 C 9.248 10.479 9.236 10.966 9.212 11.47 C 9.188 11.975 9.128 12.468 9.032 12.949 C 8.935 13.429 8.798 13.883 8.618 14.309 C 8.437 14.736 8.191 15.111 7.88 15.436 C 7.568 15.76 7.178 16.015 6.71 16.203 C 6.242 16.389 5.672 16.482 5 16.482 C 4.34 16.482 3.773 16.388 3.299 16.203 C 2.824 16.015 2.432 15.761 2.12 15.436 C 1.808 15.111 1.562 14.736 1.382 14.309 C 1.202 13.882 1.064 13.429 0.968 12.949 C 0.872 12.469 0.812 11.975 0.788 11.47 C 0.764 10.966 0.752 10.479 0.752 10.01 C 0.752 9.542 0.764 9.056 0.788 8.553 Z M 2.417 11.6 C 2.447 12.192 2.543 12.749 2.705 13.27 C 2.867 13.791 3.128 14.232 3.488 14.591 C 3.848 14.95 4.352 15.13 5 15.13 C 5.648 15.13 6.152 14.95 6.512 14.591 C 6.872 14.232 7.133 13.791 7.295 13.27 C 7.457 12.749 7.553 12.192 7.583 11.6 C 7.613 11.006 7.628 10.471 7.628 9.991 C 7.628 9.679 7.625 9.335 7.619 8.958 C 7.613 8.581 7.583 8.204 7.529 7.826 C 7.474 7.449 7.396 7.08 7.295 6.721 C 7.194 6.362 7.043 6.047 6.846 5.778 C 6.647 5.508 6.399 5.29 6.098 5.122 C 5.798 4.954 5.432 4.87 5 4.87 C 4.568 4.87 4.202 4.954 3.902 5.122 C 3.602 5.289 3.353 5.508 3.155 5.778 C 2.957 6.048 2.807 6.362 2.705 6.721 C 2.603 7.08 2.525 7.449 2.471 7.826 C 2.417 8.203 2.387 8.58 2.381 8.958 C 2.375 9.335 2.372 9.68 2.372 9.991 C 2.372 10.47 2.387 11.006 2.417 11.6 Z " stroke-width="1"/>
  </g>
</svg>