<svg xml:space="preserve" style="enable-background:new 0 0 28.25 27.25;" viewBox="0 0 28.25 27.25" y="0px" x="0px" id="Layer_1" version="1.1" xmlns:xlink="http://www.w3.org/1999/xlink" xmlns="http://www.w3.org/2000/svg">
<g>
	<path d="M8.31055,8.73486l-2.78369,8.40088H3.87061l-2.07568-6.21631l-2.1123,6.21631h-1.66797l-2.78369-8.40088h1.61963   l2.08838,6.38525l2.17188-6.38525h1.43994l2.12402,6.42041l2.14795-6.42041H8.31055z"></path>
	<path d="M14.7666,15.19141h-4.19922l-0.82812,1.94434h-1.6084l3.78027-8.40088h1.53516l3.79297,8.40088h-1.63281L14.7666,15.19141z    M14.25098,13.96729l-1.58398-3.67188l-1.57227,3.67188H14.25098z"></path>
	<path d="M25.54297,8.73486l-3.65918,8.40088h-1.53613l-3.67188-8.40088h1.69141l2.7959,6.48096l2.82031-6.48096H25.54297z"></path>
	<path d="M32.73047,15.82812v1.30762h-6.2998V8.73486h6.13184v1.30859h-4.57129v2.18359h4.05566v1.28418h-4.05566v2.31689H32.73047z"></path>
</g>
</svg>