<svg xml:space="preserve" style="enable-background:new 0 0 28.25 27.25;" viewBox="0 0 28.25 27.25" y="0px" x="0px" id="Layer_1" version="1.1" xmlns:xlink="http://www.w3.org/1999/xlink" xmlns="http://www.w3.org/2000/svg">
<g>
	<path d="M-3.47266,8.72852h1.95605l-1.36768,6.81641h4.21191l-0.32422,1.58398h-6.15576L-3.47266,8.72852z"></path>
	<path d="M5.396,10.28906L5.03564,12.1123h3.90039L8.63525,13.625H4.72314l-0.38379,1.94434h4.58398l-0.32422,1.55957H2.09521   l1.68066-8.40039h6.34766l-0.32422,1.56055H5.396z"></path>
	<path d="M19.7832,8.72852l-5.31592,8.40039h-1.9082l-1.95605-8.40039h2.00391l1.35645,5.98828l3.8042-5.98828H19.7832z"></path>
	<path d="M22.09961,10.28906l-0.36133,1.82324h3.90039l-0.30078,1.5127h-3.91211l-0.38281,1.94434h4.58398l-0.32422,1.55957   h-6.50391l1.67969-8.40039h6.34766l-0.32422,1.56055H22.09961z"></path>
	<path d="M28.53125,8.72852h1.95703l-1.36914,6.81641h4.21289l-0.32422,1.58398h-6.15625L28.53125,8.72852z"></path>
</g>
</svg>