<svg version="1.1" xmlns="http://www.w3.org/2000/svg" xmlns:xlink="http://www.w3.org/1999/xlink" width="27.7" height="6.5" viewBox="0,0,27.7,6.5"><g transform="translate(-226.15,-176.75)"><g data-paper-data="{&quot;isPaintingLayer&quot;:true}" fill="#000000" fill-rule="nonzero" stroke="none" stroke-width="1" stroke-linecap="butt" stroke-linejoin="miter" stroke-miterlimit="10" stroke-dasharray="" stroke-dashoffset="0" style="mix-blend-mode: normal"><path d="M226.15,176.85h5l1.4,1.4v3.6l-1.4,1.4h-5zM227.95,178.65v2.7h2.3l0.5,-0.5v-1.8l-0.5,-0.5h-2.3z"/><path d="M233.35,181.75v-5h1.8v4.1l0.5,0.5h1.8l0.5,-0.5v-4h1.8v5l-1.4,1.4h-3.6z"/><path d="M240.65,178.15l1.4,-1.4h5v1.8h-4.1l-0.3,0.3l0.2,0.2h2.7l1.4,1.4v1.4l-1.4,1.4h-5v-1.8h4.1l0.2,-0.2l-0.2,-0.4h-2.7l-1.4,-1.4v-1.3z"/><path d="M251.65,178.65v4.5h-1.8v-4.5h-2.3v-1.8h6.3v1.8z"/></g></g></svg>