<svg version="1.1" xmlns="http://www.w3.org/2000/svg" xmlns:xlink="http://www.w3.org/1999/xlink" width="57.6404" height="18.4045" viewBox="0,0,57.6404,18.4045"><g transform="translate(-211.1798,-170.79775)"><g data-paper-data="{&quot;isPaintingLayer&quot;:true}" fill-rule="nonzero" stroke="none" stroke-width="1" stroke-linecap="butt" stroke-linejoin="miter" stroke-miterlimit="10" stroke-dasharray="" stroke-dashoffset="0" style="mix-blend-mode: normal"><g><g fill="#000000"><path d="M266.4438,189.20225h-52.8876c-1.307,0 -2.3764,-1.0694 -2.3764,-2.3764v-13.6517c0,-1.307 1.0694,-2.3764 2.3764,-2.3764h52.8876c1.307,0 2.3764,1.0694 2.3764,2.3764v13.6517c0,1.307 -1.0694,2.3764 -2.3764,2.3764z"/></g><g fill="#ffffff"><path d="M223.9984,175.10405h1.9443v6.8154h4.2119v1.584h-6.1562z"/><path d="M238.7348,175.10405l-3.6357,8.3994h-1.9199l-3.624,-8.3994h2.0996l2.5557,6l2.5928,-6z"/><path d="M239.4301,175.10405h1.9443v6.8154h4.2119v1.584h-6.1562z"/><path d="M256.2484,179.90385c0.2197,0.3359 0.3301,0.7236 0.3301,1.1641c0,0.5195 -0.1484,0.9736 -0.4443,1.3613c-0.2959,0.3887 -0.7119,0.6885 -1.248,0.9004c-0.5361,0.2119 -1.1562,0.3184 -1.8594,0.3184c-0.7041,0 -1.3223,-0.1064 -1.8545,-0.3184c-0.5322,-0.212 -0.9443,-0.5117 -1.2363,-0.9004c-0.292,-0.3877 -0.4375,-0.8418 -0.4375,-1.3613c0,-0.4404 0.1094,-0.8281 0.3301,-1.1641c0.2197,-0.3359 0.5342,-0.6084 0.9414,-0.8164c-0.3115,-0.1914 -0.5518,-0.4336 -0.7197,-0.7256c-0.1679,-0.292 -0.252,-0.626 -0.252,-1.002c0,-0.4883 0.1357,-0.9121 0.4082,-1.2725c0.2715,-0.3594 0.6514,-0.6377 1.1396,-0.834c0.4883,-0.1953 1.0479,-0.2939 1.6807,-0.2939c0.6396,0 1.2051,0.0986 1.6973,0.2939c0.4922,0.1963 0.874,0.4746 1.1465,0.834c0.2715,0.3604 0.4082,0.7842 0.4082,1.2725c0,0.376 -0.084,0.71 -0.252,1.002c-0.1689,0.292 -0.4131,0.5342 -0.7324,0.7256c0.416,0.208 0.7333,0.4804 0.954,0.8164zM254.184,181.89015c0.2842,-0.2207 0.4268,-0.5146 0.4268,-0.8828c0,-0.3672 -0.1426,-0.6592 -0.4268,-0.876c-0.2842,-0.2158 -0.6699,-0.3232 -1.1572,-0.3232c-0.4805,0 -0.8604,0.1074 -1.1406,0.3232c-0.2803,0.2168 -0.4199,0.5088 -0.4199,0.876c0,0.376 0.1396,0.6719 0.4199,0.8887c0.2803,0.2158 0.6602,0.3232 1.1406,0.3232c0.4873,0 0.873,-0.1094 1.1572,-0.3291zM252.0844,176.66945c-0.2363,0.1885 -0.3545,0.4463 -0.3545,0.7744c0,0.3203 0.1162,0.5723 0.3486,0.7559c0.2314,0.1836 0.5479,0.2764 0.9482,0.2764c0.3994,0 0.7197,-0.0928 0.96,-0.2764c0.2393,-0.1836 0.3594,-0.4355 0.3594,-0.7559c0,-0.3281 -0.1201,-0.5859 -0.3594,-0.7744c-0.2402,-0.1875 -0.5605,-0.2822 -0.96,-0.2822c-0.3925,0 -0.707,0.0947 -0.9423,0.2822z"/></g></g></g></g></svg>