<svg version="1.1" xmlns="http://www.w3.org/2000/svg" xmlns:xlink="http://www.w3.org/1999/xlink" width="38.87423" height="32.17974" viewBox="0,0,38.87423,32.17974"><g transform="translate(-220.56289,-163.91013)"><g data-paper-data="{&quot;isPaintingLayer&quot;:true}" fill="#ffffff" fill-rule="nonzero" stroke="none" stroke-width="1" stroke-linecap="butt" stroke-linejoin="miter" stroke-miterlimit="10" stroke-dasharray="" stroke-dashoffset="0" style="mix-blend-mode: normal"><g><g><path d="M250.9463,182.58514c0.00133,-0.00096 0.00348,-0.00198 0.00506,-0.00294c-0.0012,0.00211 -0.00354,0.00218 -0.00474,0.00435c0.00127,0.00518 0.00253,0.00998 0.0038,0.01516c-0.01385,-0.00128 -0.01214,-0.0055 -0.00942,-0.00991c-0.01588,0.02981 -0.03163,0.05993 -0.06319,0.05987c-0.59052,0 -1.04397,-0.05264 -1.5317,0.20237c-0.47863,-1.76964 -1.50039,-3.06252 -2.53968,-4.19864c-1.16402,-1.2726 -2.43228,-2.47435 -3.97486,-2.95238c-1.58382,-0.49076 -3.35865,-0.3844 -4.97486,-0.0378c-1.58838,0.34065 -3.25404,0.95677 -4.51781,2.106c-1.14929,1.04517 -1.77598,2.71273 -2.37839,4.4264c-0.42492,-0.18817 -1.03966,-0.58344 -1.53334,-0.58459c-0.22954,0.00377 -0.4043,0.22296 -0.62157,0.27298c0.52904,-1.80047 1.22588,-3.39889 2.25973,-4.63395c1.14972,-1.37353 2.64575,-2.30664 4.17422,-2.9811c1.58128,-0.69773 3.29186,-1.17519 4.99706,-1.12492c1.7021,0.0502 3.32495,0.73841 4.86569,1.53388c1.4785,0.7633 2.97915,1.6666 4.05221,3.11606c0.95111,1.28476 1.34776,2.9646 1.79179,4.78916z"/><path d="M245.86436,178.04343c1.39317,1.18421 2.29242,2.95648 2.86194,5.12337c-0.6112,0.4341 -0.83625,1.12211 -1.07275,1.87281c-0.10936,-0.02386 -0.11917,-0.14289 -0.24004,-0.15312c-0.29886,-1.99037 -1.31721,-3.52655 -2.42848,-4.6305c-1.28458,-1.27606 -2.98187,-2.16626 -4.68163,-2.25804c-1.71196,-0.09236 -3.35145,0.8089 -4.75291,1.91777c-1.24624,0.98613 -2.48237,2.19811 -2.93449,4.13417c-0.33548,-0.79956 -0.68046,-1.34328 -1.35491,-1.75518c0.73371,-2.08643 2.09115,-3.43988 3.61672,-4.48863c1.66939,-1.14757 3.51172,-1.90293 5.4717,-1.80776c1.95017,0.09473 3.95563,0.71974 5.51485,2.04511z"/><path d="M250.99829,182.53846c0.04611,0.0016 -0.01701,0.02552 -0.04693,0.04375c0.01233,-0.02104 0.02346,-0.04432 0.04693,-0.04375z"/><path d="M253.97889,184.37808c-0.47654,-0.88233 -1.42114,-1.45918 -2.41292,-1.68739c-0.4439,-1.94495 -1.0052,-3.74536 -1.99578,-5.11371c-1.11803,-1.54437 -2.68358,-2.52654 -4.23988,-3.33627c-1.62437,-0.84517 -3.34443,-1.65624 -5.14147,-1.70082c-1.80014,-0.04471 -3.63728,0.50503 -5.29808,1.26391c-1.60216,0.73202 -3.23329,1.73356 -4.4197,3.21372c-1.06016,1.32256 -1.55738,3.20541 -2.07313,5.12542c-1.07844,0.44491 -2.20773,1.32397 -2.55511,2.61711c0.15851,-1.90306 0.55674,-3.60273 1.1422,-5.12433c0.70893,-1.84256 1.55656,-3.50353 2.73772,-4.78426c1.28818,-1.39681 2.89553,-2.36465 4.53419,-3.09322c1.68774,-0.75031 3.49181,-1.29998 5.31402,-1.34143c1.82436,-0.04151 3.60679,0.54392 5.32445,1.213c1.67566,0.65271 3.37889,1.42003 4.7259,2.74899c1.24486,1.22828 1.98161,2.93633 2.76131,4.74217c0.67711,1.56823 1.3947,3.25331 1.59628,5.25711z"/><path d="M225.79716,184.91047c0.0112,-0.05225 0.03194,-0.09945 0.04567,-0.15043c-0.00626,0.07484 -0.01803,0.14494 -0.02353,0.22041c-0.0224,-0.0291 -0.0668,-0.06294 -0.02214,-0.06998z"/></g><g><path d="M259.43686,189.30905c-0.01722,0.52288 -0.82685,0.78588 -2.70618,0.87701c-0.5252,0.02557 -1.1203,0.0368 -1.75787,0.0368c-1.35608,0 -2.91059,-0.04809 -4.4256,-0.09924c-6.12274,-0.20673 -8.84814,-0.45947 -8.81677,-1.41327c0.02533,-0.76343 1.91376,-1.14209 3.55121,-1.32727c-0.00708,-0.07165 -0.00909,-0.14636 -0.00708,-0.22003c0.03241,-0.96094 0.8147,-1.72028 1.7569,-1.72028c0.0202,0 0.03943,0 0.05969,0.00104c0.28845,0.01025 0.56574,0.09107 0.81366,0.23639c0.19837,-1.51049 1.4563,-2.63409 2.97333,-2.63409c0.03547,0 0.07087,0.00097 0.10529,0.00201c1.48059,0.05018 2.69397,1.17688 2.88019,2.64539c0.0719,-0.01123 0.13965,-0.01435 0.20447,-0.01331c0.57282,0.01947 1.03632,0.45026 1.11725,1.01105c0.17408,-0.03479 0.33802,-0.05114 0.48682,-0.04498c0.9179,0.0307 1.73358,0.63245 2.05334,1.50537c1.14972,0.34589 1.72552,0.73578 1.71135,1.15741zM249.82559,185.68478c-0.7467,-0.33643 -1.52001,-0.3169 -2.04272,0.12988c-0.69085,0.59039 -0.71795,1.73993 -0.15295,2.7865c-0.31659,-1.00372 -0.16717,-1.99121 0.48566,-2.54913c0.45282,-0.38696 1.06726,-0.49603 1.71001,-0.36725zM255.50139,187.05881c-0.66901,-0.61566 -1.79963,-0.49298 -2.75208,0.20984c0.94287,-0.44831 1.9306,-0.42713 2.56268,0.15466c0.43848,0.4035 0.62543,1.00537 0.58301,1.66656c0.23249,-0.79248 0.11255,-1.56518 -0.39361,-2.03106zM238.97575,189.4298c0.01239,0.74005 -1.34997,1.09448 -3.59161,1.28064c0.04993,-0.11237 0.08612,-0.23364 0.08612,-0.38562c0,-0.91467 -1.01124,-1.67761 -2.38416,-1.91681c1.14398,0.40338 1.91577,1.15619 1.91577,2.02057c0,0.12592 -0.02314,0.22333 -0.05231,0.31604c-1.4375,0.10113 -3.19092,0.14465 -5.15796,0.17828c-1.08435,0.01837 -2.10553,0.03271 -3.04419,0.03271c-0.26367,0 -0.51904,-0.00147 -0.76941,-0.00385c-0.18702,-0.29352 -0.29987,-0.61462 -0.29987,-0.95648c0,-0.88416 0.6933,-1.65436 1.72101,-2.06702c-1.23339,0.24469 -2.14172,1.02515 -2.14172,1.96094c0,0.38995 0.16803,0.74872 0.44025,1.0589c-3.12799,-0.04315 -5.11969,-0.30713 -5.1347,-1.20105c-0.00812,-0.50043 0.59405,-0.9538 1.79028,-1.34778c0.33899,-1.05915 1.19825,-1.77655 2.15662,-1.79291c0.15991,0 0.32587,0.01843 0.50751,0.06653c0.0835,-0.68158 0.57483,-1.20142 1.17548,-1.21167c0.07031,-0.00208 0.13916,0.00616 0.21252,0.02148c0.20648,-1.79187 1.48614,-3.1427 3.03101,-3.16832c1.56671,-0.02271 2.88092,1.30945 3.12933,3.10803c-0.01465,-0.01758 -0.021,-0.04022 -0.03656,-0.05719c-0.61505,-0.67072 -1.75196,-0.64515 -2.75983,-0.02625c0.97705,-0.36609 1.95941,-0.26056 2.54065,0.37323c0.40308,0.43964 0.539,1.05524 0.44153,1.71045c0.26148,-0.67548 0.2323,-1.34803 -0.08868,-1.84821c0.24481,-0.14673 0.51086,-0.2334 0.78778,-0.2381c0.4989,-0.00098 0.95533,0.20984 1.30701,0.61401c0.34662,0.39813 0.54297,0.93127 0.55255,1.50128c0.00207,0.09924 -0.00251,0.19958 -0.01215,0.29779c1.42346,0.22211 3.66101,0.72351 3.67773,1.68038z"/></g><g><path d="M250.9463,182.58514c0.00133,-0.00096 0.00348,-0.00198 0.00506,-0.00294c-0.0012,0.00211 -0.00354,0.00218 -0.00474,0.00435c0.00127,0.00518 0.00253,0.00998 0.0038,0.01516c-0.01385,-0.00128 -0.01214,-0.0055 -0.00942,-0.00991c-0.01588,0.02981 -0.03163,0.05993 -0.06319,0.05987c-0.59052,0 -1.04397,-0.05264 -1.5317,0.20237c-0.47863,-1.76964 -1.50039,-3.06252 -2.53968,-4.19864c-1.16402,-1.2726 -2.43228,-2.47435 -3.97486,-2.95238c-1.58382,-0.49076 -3.35865,-0.3844 -4.97486,-0.0378c-1.58838,0.34065 -3.25404,0.95677 -4.51781,2.106c-1.14929,1.04517 -1.77598,2.71273 -2.37839,4.4264c-0.42492,-0.18817 -1.03966,-0.58344 -1.53334,-0.58459c-0.22954,0.00377 -0.4043,0.22296 -0.62157,0.27298c0.52904,-1.80047 1.22588,-3.39889 2.25973,-4.63395c1.14972,-1.37353 2.64575,-2.30664 4.17422,-2.9811c1.58128,-0.69773 3.29186,-1.17519 4.99706,-1.12492c1.7021,0.0502 3.32495,0.73841 4.86569,1.53388c1.4785,0.7633 2.97915,1.6666 4.05221,3.11606c0.95111,1.28476 1.34776,2.9646 1.79179,4.78916z"/><path d="M245.86436,178.04343c1.39317,1.18421 2.29242,2.95648 2.86194,5.12337c-0.6112,0.4341 -0.83625,1.12211 -1.07275,1.87281c-0.10936,-0.02386 -0.11917,-0.14289 -0.24004,-0.15312c-0.29886,-1.99037 -1.31721,-3.52655 -2.42848,-4.6305c-1.28458,-1.27606 -2.98187,-2.16626 -4.68163,-2.25804c-1.71196,-0.09236 -3.35145,0.8089 -4.75291,1.91777c-1.24624,0.98613 -2.48237,2.19811 -2.93449,4.13417c-0.33548,-0.79956 -0.68046,-1.34328 -1.35491,-1.75518c0.73371,-2.08643 2.09115,-3.43988 3.61672,-4.48863c1.66939,-1.14757 3.51172,-1.90293 5.4717,-1.80776c1.95017,0.09473 3.95563,0.71974 5.51485,2.04511z"/><path d="M250.99829,182.53846c0.04611,0.0016 -0.01701,0.02552 -0.04693,0.04375c0.01233,-0.02104 0.02346,-0.04432 0.04693,-0.04375z"/><path d="M253.97889,184.37808c-0.47654,-0.88233 -1.42114,-1.45918 -2.41292,-1.68739c-0.4439,-1.94495 -1.0052,-3.74536 -1.99578,-5.11371c-1.11803,-1.54437 -2.68358,-2.52654 -4.23988,-3.33627c-1.62437,-0.84517 -3.34443,-1.65624 -5.14147,-1.70082c-1.80014,-0.04471 -3.63728,0.50503 -5.29808,1.26391c-1.60216,0.73202 -3.23329,1.73356 -4.4197,3.21372c-1.06016,1.32256 -1.55738,3.20541 -2.07313,5.12542c-1.07844,0.44491 -2.20773,1.32397 -2.55511,2.61711c0.15851,-1.90306 0.55674,-3.60273 1.1422,-5.12433c0.70893,-1.84256 1.55656,-3.50353 2.73772,-4.78426c1.28818,-1.39681 2.89553,-2.36465 4.53419,-3.09322c1.68774,-0.75031 3.49181,-1.29998 5.31402,-1.34143c1.82436,-0.04151 3.60679,0.54392 5.32445,1.213c1.67566,0.65271 3.37889,1.42003 4.7259,2.74899c1.24486,1.22828 1.98161,2.93633 2.76131,4.74217c0.67711,1.56823 1.3947,3.25331 1.59628,5.25711z"/><path d="M225.79716,184.91047c0.0112,-0.05225 0.03194,-0.09945 0.04567,-0.15043c-0.00626,0.07484 -0.01803,0.14494 -0.02353,0.22041c-0.0224,-0.0291 -0.0668,-0.06294 -0.02214,-0.06998z"/></g><g><path d="M238.97575,189.4298c0.01239,0.74005 -1.34997,1.09448 -3.59161,1.28064c0.04993,-0.11237 0.08612,-0.23364 0.08612,-0.38562c0,-0.91467 -1.01124,-1.67761 -2.38416,-1.91681c1.14398,0.40338 1.91577,1.15619 1.91577,2.02057c0,0.12592 -0.02314,0.22333 -0.05231,0.31604c-1.4375,0.10113 -3.19092,0.14465 -5.15796,0.17828c-1.08435,0.01837 -2.10553,0.03271 -3.04419,0.03271c-0.26367,0 -0.51904,-0.00147 -0.76941,-0.00385c-0.18702,-0.29352 -0.29987,-0.61462 -0.29987,-0.95648c0,-0.88416 0.6933,-1.65436 1.72101,-2.06702c-1.23339,0.24469 -2.14172,1.02515 -2.14172,1.96094c0,0.38995 0.16803,0.74872 0.44025,1.0589c-3.12799,-0.04315 -5.11969,-0.30713 -5.1347,-1.20105c-0.00812,-0.50043 0.59405,-0.9538 1.79028,-1.34778c0.33899,-1.05915 1.19825,-1.77655 2.15662,-1.79291c0.15991,0 0.32587,0.01843 0.50751,0.06653c0.0835,-0.68158 0.57483,-1.20142 1.17548,-1.21167c0.07031,-0.00208 0.13916,0.00616 0.21252,0.02148c0.20648,-1.79187 1.48614,-3.1427 3.03101,-3.16832c1.56671,-0.02271 2.88092,1.30945 3.12933,3.10803c-0.01465,-0.01758 -0.021,-0.04022 -0.03656,-0.05719c-0.61505,-0.67072 -1.75196,-0.64515 -2.75983,-0.02625c0.97705,-0.36609 1.95941,-0.26056 2.54065,0.37323c0.40308,0.43964 0.539,1.05524 0.44153,1.71045c0.26148,-0.67548 0.2323,-1.34803 -0.08868,-1.84821c0.24481,-0.14673 0.51086,-0.2334 0.78778,-0.2381c0.4989,-0.00098 0.95533,0.20984 1.30701,0.61401c0.34662,0.39813 0.54297,0.93127 0.55255,1.50128c0.00207,0.09924 -0.00251,0.19958 -0.01215,0.29779c1.42346,0.22211 3.66101,0.72351 3.67773,1.68038zM259.43686,189.30905c-0.01722,0.52288 -0.82685,0.78588 -2.70618,0.87701c-0.5252,0.02557 -1.1203,0.0368 -1.75787,0.0368c-1.35608,0 -2.91059,-0.04809 -4.4256,-0.09924c-6.12274,-0.20673 -8.84814,-0.45947 -8.81677,-1.41327c0.02533,-0.76343 1.91376,-1.14209 3.55121,-1.32727c-0.00708,-0.07165 -0.00909,-0.14636 -0.00708,-0.22003c0.03241,-0.96094 0.8147,-1.72028 1.7569,-1.72028c0.0202,0 0.03943,0 0.05969,0.00104c0.28845,0.01025 0.56574,0.09107 0.81366,0.23639c0.19837,-1.51049 1.4563,-2.63409 2.97333,-2.63409c0.03547,0 0.07087,0.00097 0.10529,0.00201c1.48059,0.05018 2.69397,1.17688 2.88019,2.64539c0.0719,-0.01123 0.13965,-0.01435 0.20447,-0.01331c0.57282,0.01947 1.03632,0.45026 1.11725,1.01105c0.17408,-0.03479 0.33802,-0.05114 0.48682,-0.04498c0.9179,0.0307 1.73358,0.63245 2.05334,1.50537c1.14972,0.34589 1.72552,0.73578 1.71135,1.15741zM249.82559,185.68478c-0.7467,-0.33643 -1.52001,-0.3169 -2.04272,0.12988c-0.69085,0.59039 -0.71795,1.73993 -0.15295,2.7865c-0.31659,-1.00372 -0.16717,-1.99121 0.48566,-2.54913c0.45282,-0.38696 1.06726,-0.49603 1.71001,-0.36725zM255.50139,187.05881c-0.66901,-0.61566 -1.79963,-0.49298 -2.75208,0.20984c0.94287,-0.44831 1.9306,-0.42713 2.56268,0.15466c0.43848,0.4035 0.62543,1.00537 0.58301,1.66656c0.23249,-0.79248 0.11255,-1.56518 -0.39361,-2.03106z"/></g><g><path d="M249.98729,175.21683c-0.44061,0.20325 -0.72644,0.31482 -0.72644,0.31482c0,0 0.22607,-0.18494 0.60516,-0.45905c0.04016,0.04828 0.08222,0.09479 0.12128,0.14423zM248.12523,173.54282c0,0 0.00861,-0.0105 0.01105,-0.01355c0.00153,0.00104 0.00317,0.00195 0.00476,0.00299c-0.00385,0.00256 -0.01581,0.01056 -0.01581,0.01056zM251.06822,180.00973c-0.02271,-0.06427 -0.04529,-0.12835 -0.06891,-0.19238c0.3537,-0.07202 0.80218,-0.1521 1.30493,-0.21814c0.04846,0.1128 0.0965,0.22547 0.14502,0.34058c-0.52606,0.04602 -1.00189,0.06494 -1.38104,0.06994zM251.32377,177.41842c-0.79571,0.20502 -1.36108,0.29755 -1.36108,0.29755c0,0 0.4942,-0.25244 1.23529,-0.55261c0.04224,0.08441 0.08435,0.16931 0.12579,0.25506zM228.47197,179.99996c0,0 -0.58246,0.15613 -1.42841,0.29944c0.03363,-0.09784 0.0603,-0.20007 0.09558,-0.29681c0.78803,-0.02941 1.33283,-0.00263 1.33283,-0.00263zM225.73894,183.43881c-1.06482,0.30756 -1.88678,0.4411 -1.88678,0.4411c0,0 0.82257,-0.42212 1.9516,-0.82611c-0.02155,0.12848 -0.04572,0.25531 -0.06482,0.38501zM233.29906,190.56881c0.34082,-0.64148 0.60492,-1.05493 0.60492,-1.05493c0,0 -0.1128,0.42243 -0.32947,1.04474c-0.08917,0.00391 -0.18488,0.00654 -0.27545,0.01019zM244.76805,189.51388c0,0 0.01343,0.01373 0.03363,0.03467c-0.00567,-0.00061 -0.01104,-0.00122 -0.01672,-0.00183c-0.00788,-0.01526 -0.01691,-0.03284 -0.01691,-0.03284zM226.37438,182.86172c0.2121,-0.06744 0.41632,-0.12811 0.61249,-0.1828c-0.2027,0.15985 -0.39911,0.3429 -0.58612,0.55463c-0.02191,0.00733 -0.04212,0.0149 -0.06421,0.02216c-0.01599,0.00525 -0.03107,0.00946 -0.047,0.01465c0.02239,-0.13947 0.05957,-0.27076 0.08484,-0.40864zM232.06657,188.16398c0,0 -0.52588,1.0426 -1.35486,2.19641c-0.07147,0.09948 -0.14221,0.19299 -0.21301,0.28729c-0.14386,0.00275 -0.28754,0.00568 -0.43097,0.0083c0.11072,-0.16614 0.22644,-0.33594 0.35175,-0.51038c0.82898,-1.15369 1.64709,-1.98162 1.64709,-1.98162zM251.78294,182.47451c-0.01257,-0.05402 -0.02832,-0.11072 -0.04211,-0.16565c0.24786,0.01514 0.50701,0.03437 0.78033,0.06342c0.2937,0.03125 0.57037,0.06988 0.83148,0.11035c0.02893,0.10669 0.05127,0.21826 0.07788,0.32684c-0.294,-0.01538 -0.61267,-0.03839 -0.94708,-0.07391c-0.0188,-0.00201 -0.03613,-0.00457 -0.05481,-0.00665c-0.21032,-0.09192 -0.4143,-0.19287 -0.64569,-0.2544zM225.09581,186.96524l0.06147,0.01624c-0.10547,0.04401 -0.16901,0.06897 -0.16901,0.06897c0,0 0.04333,-0.03486 0.10754,-0.08521zM249.96268,182.2841c0,0 0.24707,-0.01197 0.63947,-0.01166c0.00952,0.03894 0.01959,0.07599 0.02911,0.11505h-0.0061c-0.07696,-0.00098 -0.14672,0.00329 -0.22076,0.00323c-0.27813,-0.0625 -0.44172,-0.10662 -0.44172,-0.10662zM253.89365,185.95438c0.14063,0.0672 0.22443,0.1098 0.22443,0.1098c0,0 -0.15741,-0.02545 -0.4212,-0.0791zM228.70933,177.71597c0,0 -0.22747,0.01081 -0.5899,0.01154c0.02301,-0.04547 0.04621,-0.09045 0.06934,-0.13519c0.32244,0.07104 0.52056,0.12365 0.52056,0.12365zM248.62401,189.75606c0.01386,0.01264 0.02625,0.02485 0.03998,0.03748c-0.18464,-0.00744 -0.36994,-0.0155 -0.55634,-0.0238c-0.89679,-0.85339 -1.50214,-1.60577 -1.50214,-1.60577c0,0 0.97046,0.63788 2.0185,1.59209zM250.51469,180.00912c-0.00134,0 -0.00281,-0.00012 -0.00415,-0.00012c-0.0086,-0.02594 -0.01556,-0.05365 -0.02429,-0.07953c0.00037,-0.00012 0.00079,-0.00012 0.00116,-0.00024c0.01001,0.02643 0.01746,0.05341 0.02728,0.07989zM227.29008,185.91757c-0.8678,0.50659 -1.65631,0.86133 -2.04486,1.02649l0.0127,-0.10358c0.35248,-0.26825 1.02411,-0.75623 1.8515,-1.23932c1.22138,-0.71295 2.30182,-1.13287 2.30182,-1.13287c0,0 -0.89984,0.73621 -2.12116,1.44928zM253.61942,185.82706l0.0188,0.14569c-0.45703,-0.09461 -1.1922,-0.26587 -2.00458,-0.53284c-1.34131,-0.44074 -2.3728,-0.97162 -2.3728,-0.97162c0,0 1.14319,0.18354 2.48444,0.62427c0.77881,0.25586 1.4455,0.53937 1.87414,0.7345zM250.42705,187.59011c1.22131,0.71307 2.12109,1.44928 2.12109,1.44928c0,0 -1.08032,-0.41986 -2.30176,-1.13293c-1.22131,-0.71301 -2.12115,-1.44922 -2.12115,-1.44922c0,0 1.08044,0.41993 2.30182,1.13287zM253.90946,182.57626c0.68366,0.12665 1.13239,0.24762 1.13239,0.24762c0,0 -0.4223,0.02124 -1.06024,0.00641c-0.02038,-0.08789 -0.05017,-0.16742 -0.07215,-0.25403zM255.27935,179.46017c0,0 -1.00055,0.26813 -2.29218,0.42371c-0.04895,-0.11718 -0.09748,-0.23132 -0.14655,-0.34631c1.34686,-0.13312 2.43873,-0.0774 2.43873,-0.0774zM228.77,188.32071c-1.04803,0.95428 -2.01855,1.59216 -2.01855,1.59216c0,0 0.72883,-0.90925 1.77686,-1.86353c1.04809,-0.95422 2.01849,-1.5921 2.01849,-1.5921c0,0 -0.7287,0.90925 -1.7768,1.86347zM252.33549,176.74435c1.34125,-0.44074 2.48444,-0.62427 2.48444,-0.62427c0,0 -1.03155,0.53089 -2.3728,0.97162c-0.21161,0.06952 -0.41498,0.13043 -0.61298,0.18744c-0.04907,-0.1029 -0.1004,-0.20306 -0.15063,-0.30432c0.20752,-0.07745 0.42279,-0.15521 0.65197,-0.23047zM251.382,174.08249c1.22138,-0.71308 2.30176,-1.133 2.30176,-1.133c0,0 -0.89978,0.73621 -2.12115,1.44928c-0.38989,0.2276 -0.76031,0.42151 -1.09094,0.58527c-0.05609,-0.07318 -0.11957,-0.13965 -0.17792,-0.21069c0.31439,-0.21479 0.68078,-0.45301 1.08825,-0.69086zM235.81199,190.93039c0.04364,-0.00427 0.08667,-0.0086 0.12939,-0.01306c-0.04455,0.46759 -0.13653,1.23694 -0.31677,2.09436c-0.29327,1.39495 -0.70764,2.48785 -0.70764,2.48785c0,0 0.0611,-1.16876 0.35425,-2.56372c0.17566,-0.83539 0.39332,-1.55658 0.54077,-2.00543zM229.79619,191.18533c0.09601,-0.00164 0.19312,-0.00384 0.28949,-0.00555c-0.57044,0.70563 -1.021,1.16223 -1.021,1.16223c0,0 0.24683,-0.4856 0.66217,-1.15564c0.02374,-0.00043 0.04553,-0.00061 0.06934,-0.00104zM226.15093,177.62765c-1.40259,-0.14911 -2.52075,-0.45154 -2.52075,-0.45154c0,0 1.15588,-0.06079 2.55847,0.08826c0.54736,0.05817 1.04822,0.13959 1.45941,0.21741c-0.03906,0.07727 -0.07739,0.1582 -0.11603,0.23761c-0.40003,-0.01178 -0.87323,-0.03778 -1.3811,-0.09174zM223.39275,180.53983c0,0 1.11816,-0.30243 2.52069,-0.45154c0.2301,-0.02448 0.44946,-0.04163 0.66229,-0.05597c-0.04163,0.11889 -0.08332,0.23773 -0.1225,0.35815c-0.16211,0.0221 -0.32977,0.04279 -0.50201,0.0611c-1.40259,0.14905 -2.55847,0.08826 -2.55847,0.08826zM238.20042,190.92557c0,0 0.1806,1.156 0.1806,2.58215c0,1.42608 -0.1806,2.58215 -0.1806,2.58215c0,0 -0.1806,-1.15606 -0.1806,-2.58215c0,-1.42615 0.1806,-2.58215 0.1806,-2.58215zM246.41513,191.49558c0.82892,1.15369 1.3548,2.19635 1.3548,2.19635c0,0 -0.81805,-0.82788 -1.64703,-1.98169c-0.44373,-0.6175 -0.79657,-1.19727 -1.03241,-1.60828c0.07892,0.00708 0.15253,0.01464 0.23438,0.02148c0.3031,0.34772 0.69416,0.82087 1.09026,1.37214zM249.23185,190.33884c0.70905,0.7099 1.16901,1.28082 1.16901,1.28082c0,0 -0.77692,-0.51209 -1.69043,-1.30237c0.17334,0.0072 0.34076,0.01459 0.52142,0.02155zM226.9268,174.90744c-1.34124,-0.44068 -2.3728,-0.97162 -2.3728,-0.97162c0,0 1.14313,0.1836 2.48438,0.62421c0.82196,0.27008 1.52459,0.57287 1.94781,0.76776c-0.02741,0.03528 -0.05469,0.0708 -0.08179,0.10669c-0.45874,-0.0957 -1.17999,-0.26495 -1.9776,-0.52704zM241.17924,193.4133c0.29315,1.3949 0.35425,2.56378 0.35425,2.56378c0,0 -0.41437,-1.09289 -0.70758,-2.48785c-0.29321,-1.3949 -0.35431,-2.56366 -0.35431,-2.56366c0,0 0.41437,1.09277 0.70764,2.48773zM243.89683,192.7327c0.57361,1.3028 0.87366,2.43317 0.87366,2.43317c0,0 -0.63,-0.98181 -1.20361,-2.28467c-0.57361,-1.3028 -0.87366,-2.43317 -0.87366,-2.43317c0,0 0.62994,0.98187 1.20361,2.28467zM233.02665,191.10305c0.11877,-0.00445 0.23724,-0.00885 0.354,-0.01367c-0.10266,0.26978 -0.21838,0.55799 -0.35034,0.85767c-0.57361,1.30292 -1.20361,2.28473 -1.20361,2.28473c0,0 0.30005,-1.13043 0.87372,-2.43323c0.10852,-0.24652 0.21833,-0.47644 0.32623,-0.6955zM243.4008,167.06418c-0.29321,1.39496 -0.70758,2.48779 -0.70758,2.48779c0,0 0.06104,-1.16876 0.35425,-2.56372c0.29327,-1.39496 0.70758,-2.48779 0.70758,-2.48779c0,0 -0.06104,1.16882 -0.35425,2.56372zM228.24504,172.40982c-1.22131,-0.71307 -2.12115,-1.44928 -2.12115,-1.44928c0,0 1.08039,0.41993 2.30176,1.133c1.22137,0.71307 2.12115,1.44928 2.12115,1.44928c0,0 -1.08045,-0.41993 -2.30176,-1.133zM240.47161,169.07449c0,0 -0.1806,-1.15612 -0.1806,-2.58221c0,-1.42614 0.1806,-2.58215 0.1806,-2.58215c0,0 0.18066,1.156 0.18066,2.58215c0,1.42609 -0.18066,2.58221 -0.18066,2.58221zM249.90202,171.67922c1.0481,-0.95422 2.01862,-1.5921 2.01862,-1.5921c0,0 -0.72882,0.90931 -1.77692,1.86353c-0.59631,0.54297 -1.16083,0.97772 -1.54242,1.25659c-0.0401,-0.02795 -0.08331,-0.04999 -0.12372,-0.07739c0.31256,-0.35443 0.81098,-0.89209 1.42444,-1.45063zM246.60552,171.83603c0,0 0.52588,-1.04266 1.35486,-2.19635c0.82891,-1.15381 1.64703,-1.98175 1.64703,-1.98175c0,0 -0.52588,1.04272 -1.35486,2.19641c-0.82892,1.15375 -1.64703,1.98169 -1.64703,1.98169zM245.97166,168.20145c-0.57361,1.3028 -1.20361,2.28467 -1.20361,2.28467c0,0 0.30005,-1.13043 0.87366,-2.43323c0.57367,-1.3028 1.20361,-2.28467 1.20361,-2.28467c0,0 -0.30005,1.13037 -0.87366,2.43323zM232.54917,168.2897c0.82898,1.15375 1.3548,2.19641 1.3548,2.19641c0,0 -0.81805,-0.82794 -1.64703,-1.98175c-0.82898,-1.15369 -1.35486,-2.19635 -1.35486,-2.19635c0,0 0.81812,0.82801 1.64709,1.98169zM238.20042,169.07449c0,0 -0.41437,-1.09289 -0.70758,-2.48779c-0.29321,-1.39496 -0.35425,-2.56372 -0.35425,-2.56372c0,0 0.41431,1.09277 0.70758,2.48773c0.29322,1.39496 0.35425,2.56378 0.35425,2.56378zM228.27116,168.3804c0,0 0.97052,0.63788 2.01855,1.5921c1.0481,0.95429 1.77686,1.86353 1.77686,1.86353c0,0 -0.97045,-0.63788 -2.01855,-1.59216c-1.04804,-0.95423 -1.77686,-1.86347 -1.77686,-1.86347zM235.10515,167.11875c0.57367,1.3028 0.87372,2.43323 0.87372,2.43323c0,0 -0.63,-0.98188 -1.20361,-2.28461c-0.57361,-1.30292 -0.87366,-2.43329 -0.87366,-2.43329c0,0 0.62994,0.98187 1.20355,2.28467z"/></g></g></g></g></svg>