<svg version="1.1" xmlns="http://www.w3.org/2000/svg" xmlns:xlink="http://www.w3.org/1999/xlink" width="35.243" height="6.262" viewBox="0,0,35.243,6.262"><g transform="translate(-222.379,-176.583)"><g data-paper-data="{&quot;isPaintingLayer&quot;:true}" fill="#000000" fill-rule="nonzero" stroke="none" stroke-width="1" stroke-linecap="butt" stroke-linejoin="miter" stroke-miterlimit="10" stroke-dasharray="" stroke-dashoffset="0" style="mix-blend-mode: normal"><g><path/><path d="M223.77,176.583h3.71l1.391,1.342v4.92h-1.855v-1.342h-2.782v1.342h-1.855v-4.92zM226.552,178.372h-1.855l-0.464,0.447v0.895h2.782v-0.895z"/><path d="M229.798,181.503v-3.578l1.391,-1.342h3.71l1.391,1.342l-0.927,0.894h0.927v4.026h-5.101zM231.653,178.819v1.789l0.464,0.448h2.318v-0.448h-1.855v-1.789h1.855l-0.463,-0.447h-1.855z"/><path d="M239.073,181.056h3.709v1.789h-5.564v-6.262h5.564v1.789h-3.709v0.447h3.709v1.789h-3.709z"/><path d="M245.564,179.713v3.131h-1.854v-6.261h1.392l3.246,3.13v-3.13h1.854v6.262h-1.391z"/><path d="M255.304,178.372v4.473h-1.855v-4.473h-2.319v-1.789h6.492v1.789z"/><path/></g></g></g></svg>