<svg xml:space="preserve" style="enable-background:new 0 0 28.25 27.25;" viewBox="0 0 28.25 27.25" y="0px" x="0px" id="Layer_1" version="1.1" xmlns:xlink="http://www.w3.org/1999/xlink" xmlns="http://www.w3.org/2000/svg">
<g>
	<path d="M9.54736,8.72852l-4.4043,8.40039H2.59912l-0.61133-5.06348l-2.67627,5.06348h-2.55615l-1.03174-8.40039h2.33984   l0.64795,5.36426l2.83203-5.36426h2.19629l0.59961,5.43652L7.1958,8.72852H9.54736z"></path>
	<path d="M14.47998,15.49707h-3.57617l-0.97168,1.63184H7.42334l5.38867-8.40039h2.34033l2.02734,8.40039h-2.36377   L14.47998,15.49707z M14.11963,13.74512l-0.56348-2.72461l-1.6084,2.72461H14.11963z"></path>
	<path d="M27.58398,8.72852l-5.26758,8.40039h-2.33984l-1.9082-8.40039h2.43555l1.19922,5.45996l3.43164-5.45996H27.58398z"></path>
	<path d="M30.05469,10.56445l-0.27539,1.41602h3.73242l-0.34766,1.77637h-3.74414l-0.30078,1.53613h4.4043l-0.38477,1.83594H26.4082   l1.67969-8.40039h6.57617l-0.37305,1.83594H30.05469z"></path>
</g>
</svg>