<svg version="1.1" xmlns="http://www.w3.org/2000/svg" xmlns:xlink="http://www.w3.org/1999/xlink" width="66.60303" height="247.93359" viewBox="0,0,66.60303,247.93359"><g transform="translate(-206.63135,-148.16211)"><g data-paper-data="{&quot;isPaintingLayer&quot;:true}" fill="#000000" fill-rule="nonzero" stroke="none" stroke-width="1" stroke-linecap="butt" stroke-linejoin="miter" stroke-miterlimit="10" stroke-dasharray="" stroke-dashoffset="0" style="mix-blend-mode: normal"><g><path d="M227.4082,149.55371v1.85547l-1.3916,1.3916h-3.24707v1.85547h-1.85547v-6.49414h5.10254zM225.55273,150.48145l-0.46387,-0.46387h-2.31934v0.92773h2.31934z"/><path d="M230.19141,154.65625h-1.85547v-6.49414h1.85547z"/><path d="M231.11914,149.55371l1.3916,-1.3916h5.10254v1.85547h-4.1748l-0.23193,0.23193l0.23193,0.23193h2.7832l1.3916,1.3916v1.3916l-1.3916,1.3916h-5.10254v-1.85547h4.1748l0.23193,-0.23193l-0.23193,-0.23193h-2.7832l-1.3916,-1.3916z"/><path d="M242.48438,150.01758v4.63867h-1.85596v-4.63867h-2.31934v-1.85547h6.49463v1.85547z"/><path d="M245.49902,153.26465v-3.71094l1.3916,-1.3916h3.71094l1.3916,1.3916v3.71094l-1.3916,1.3916h-3.71094zM247.35449,150.48145v1.85547l0.46387,0.46387h1.85547l0.46387,-0.46387v-1.85547l-0.46387,-0.46387h-1.85547z"/><path d="M252.9209,148.16211h1.85547v4.63867h3.71191v1.85547h-5.56738z"/></g><g><path d="M221.60986,246.5166h3.71094l1.3916,1.3916v5.10254h-1.85547v-1.3916h-2.7832v1.3916h-1.85547v-5.10254zM224.39307,248.37207h-1.85547l-0.46387,0.46387v0.92773h2.7832v-0.92773z"/><path d="M229.49561,250.69141v2.31934h-1.85547v-6.49414h1.85547v2.31934l2.31934,-2.31934h2.7832l-3.24707,3.24707l3.24707,3.24707h-2.7832z"/><path d="M236.91748,253.01074h-1.85547v-6.49414h1.85547z"/><path d="M239.70068,249.2998v3.71094h-1.85547v-6.49414h1.85547l1.39209,1.3916l1.3916,-1.3916h1.85547v6.49414h-1.85547v-3.71094l-1.3916,1.3916z"/><path d="M251.76172,247.9082v1.3916l-0.46387,0.46387l0.46387,0.46387v1.3916l-1.3916,1.3916h-5.10254v-6.49414h5.10254zM249.44238,248.37207h-2.31934v0.46387h2.31934l0.23145,-0.23242zM247.12305,250.69141v0.46387h2.31934l0.23145,-0.23242l-0.23145,-0.23145z"/><path d="M252.68945,251.61914v-3.71094l1.3916,-1.3916h3.71094l1.3916,1.3916v3.71094l-1.3916,1.3916h-3.71094zM254.54492,248.83594v1.85547l0.46387,0.46387h1.85547l0.46387,-0.46387v-1.85547l-0.46387,-0.46387h-1.85547z"/></g><g><path d="M221.146,257.93066l1.3916,-1.3916h5.10254v1.85547h-4.1748l-0.23193,0.23242l0.23193,0.23145h2.7832l1.3916,1.3916v1.3916l-1.3916,1.3916h-5.10254v-1.85547h4.1748l0.23193,-0.23145l-0.23193,-0.23242h-2.7832l-1.3916,-1.3916z"/><path d="M230.42334,260.71387v2.31934h-1.85547v-6.49414h1.85547v2.31934h2.7832v-2.31934h1.85547v6.49414h-1.85547v-2.31934z"/><path d="M237.84521,263.0332h-1.85547v-6.49414h1.85547z"/><path d="M240.62842,261.17773h3.71045v1.85547h-5.56592v-6.49414h5.56592v1.85547h-3.71045v0.46387h3.71045v1.85547h-3.71045z"/><path d="M245.2666,256.53906h1.85547v4.63867h3.71094v1.85547h-5.56641z"/><path d="M251.76074,256.53906h5.10254l1.3916,1.3916v3.71094l-1.3916,1.3916h-5.10254zM253.61621,258.39453v2.7832h2.31934l0.46387,-0.46387v-1.85547l-0.46387,-0.46387h-2.31934z"/></g><g><path d="M219.75439,269.70898v4.63867h-1.85547v-4.63867h-2.31934v-1.85547h6.49414v1.85547z"/><path d="M224.85693,272.49219h3.71094v1.85547h-5.56641v-6.49414h5.56641v1.85547h-3.71094v0.46387h3.71094v1.85547h-3.71094z"/><path d="M229.49561,267.85352h1.85547v4.63867h3.71094v1.85547h-5.56641z"/><path d="M237.84521,272.49219h3.71143v1.85547h-5.56689v-6.49414h5.56689v1.85547h-3.71143v0.46387h3.71143v1.85547h-3.71143z"/><path d="M242.48438,272.95605v-3.71094l1.3916,-1.3916h3.71094l1.3916,1.3916l-0.92773,0.92773h0.92773v4.1748h-5.10254zM244.33984,270.17285v1.85547l0.46387,0.46387h2.31934v-0.46387h-1.85547v-1.85547h1.85547l-0.46387,-0.46387h-1.85547z"/><path d="M249.90625,272.95605v-5.10254h1.85547v4.1748l0.46387,0.46387h1.85547l0.46387,-0.46387v-4.1748h1.85547v5.10254l-1.3916,1.3916h-3.71094z"/><path d="M259.18359,271.10059v3.24707h-1.85547v-6.49414h1.3916l3.24707,3.24707v-3.24707h1.85547v6.49414h-1.3916z"/></g><g><path d="M216.85742,278.13867h3.71094l1.3916,1.3916v5.10254h-1.85547v-1.3916h-2.7832v1.3916h-1.85547v-5.10254zM219.64062,279.99414h-1.85547l-0.46387,0.46387v0.92773h2.7832v-0.92773z"/><path d="M222.8877,279.53027l1.3916,-1.3916h5.10254v1.85547h-4.1748l-0.23193,0.23242l0.23193,0.23145h2.7832l1.3916,1.3916v1.3916l-1.3916,1.3916h-5.10254v-1.85547h4.1748l0.23193,-0.23145l-0.23193,-0.23242h-2.7832l-1.3916,-1.3916z"/><path d="M230.30957,279.53027l1.3916,-1.3916h5.10254v1.85547h-4.1748l-0.23193,0.23242l0.23193,0.23145h2.7832l1.3916,1.3916v1.3916l-1.3916,1.3916h-5.10254v-1.85547h4.1748l0.23193,-0.23145l-0.23193,-0.23242h-2.7832l-1.3916,-1.3916z"/><path d="M238.89111,278.13867h3.71143l1.3916,1.3916v5.10254h-1.85547v-1.3916h-2.78369v1.3916h-1.85547v-5.10254zM241.6748,279.99414h-1.85596l-0.46387,0.46387v0.92773h2.78369v-0.92773z"/><path d="M244.92188,283.24121v-5.10254h1.85547v4.1748l0.46387,0.46387h1.85547l0.46387,-0.46387v-4.1748h1.85547v5.10254l-1.3916,1.3916h-3.71094z"/><path d="M252.34375,278.13867h1.85547v4.63867h3.71094v1.85547h-5.56641z"/><path d="M261.61621,279.99414v4.63867h-1.85547v-4.63867h-2.31934v-1.85547h6.49414v1.85547z"/></g><g><path d="M222.76953,290.16016l1.3916,-1.3916h5.10254v1.85547h-4.1748l-0.23193,0.23145l0.23193,0.23242h2.7832l1.3916,1.3916v1.3916l-1.3916,1.3916h-5.10254v-1.85547h4.1748l0.23193,-0.23242l-0.23193,-0.23145h-2.7832l-1.3916,-1.3916z"/><path d="M234.13428,290.62402v4.63867h-1.85547v-4.63867h-2.31934v-1.85547h6.49414v1.85547z"/><path d="M238.54102,288.76855h3.71094l1.3916,1.3916v5.10254h-1.85547v-1.3916h-2.7832v1.3916h-1.85547v-5.10254zM241.32422,290.62402h-1.85547l-0.46387,0.46387v0.92773h2.7832v-0.92773z"/><path d="M250.1377,288.76855v1.85547h-3.71094v0.46387h3.71094v1.85547h-3.71094v2.31934h-1.85547v-6.49414h5.56641z"/><path d="M256.63281,288.76855v1.85547h-3.71191v0.46387h3.71191v1.85547h-3.71191v2.31934h-1.85547v-6.49414h5.56738z"/></g><g><path d="M219.98633,324.80859v3.71094h-1.85547v-6.49414h1.85547l1.3916,1.3916l1.3916,-1.3916h1.85547v6.49414h-1.85547v-3.71094l-1.3916,1.3916z"/><path d="M225.55273,327.12793v-3.71094l1.3916,-1.3916h3.71094l1.3916,1.3916v3.71094l-1.3916,1.3916h-3.71094zM227.4082,324.34473v1.85547l0.46387,0.46387h1.85547l0.46387,-0.46387v-1.85547l-0.46387,-0.46387h-1.85547z"/><path d="M239.46875,323.41699v1.85547l-1.3916,1.3916l1.85547,1.85547h-2.7832l-1.85547,-1.85547h-0.46387v1.85547h-1.85547v-6.49414h5.10254zM237.61328,324.34473l-0.46387,-0.46387h-2.31934v0.92773h2.31934z"/><path d="M244.33984,323.88086v4.63867h-1.85547v-4.63867h-2.31982v-1.85547h6.49463v1.85547z"/><path d="M248.74609,322.02539h3.71094l1.3916,1.3916v5.10254h-1.85547v-1.3916h-2.7832v1.3916h-1.85547v-5.10254zM251.5293,323.88086h-1.85547l-0.46387,0.46387v0.92773h2.7832v-0.92773z"/><path d="M261.27148,323.41699v1.85547l-1.39258,1.3916l1.85547,1.85547h-2.7832l-1.85547,-1.85547h-0.46289v1.85547h-1.85645v-6.49414h5.10254zM259.41602,324.34473l-0.46484,-0.46387h-2.31836v0.92773h2.31836z"/></g><g><path d="M229.03174,310.95996l1.3916,-1.3916h5.10254v1.85547h-4.1748l-0.23193,0.23242l0.23193,0.23145h2.7832l1.3916,1.3916v1.3916l-1.3916,1.3916h-5.10254v-1.85547h4.1748l0.23193,-0.23145l-0.23193,-0.23242h-2.7832l-1.3916,-1.3916z"/><path d="M238.30908,312.35156v3.71094h-1.85547v-6.49414h1.85547l1.3916,1.3916l1.39111,-1.3916h1.85547v6.49414h-1.85546v-3.71094l-1.39111,1.3916z"/><path d="M243.875,314.6709v-3.71094l1.3916,-1.3916h3.71094l1.3916,1.3916l-0.92773,0.92773h0.92773v4.1748h-5.10254zM245.73047,311.8877v1.85547l0.46387,0.46387h2.31934v-0.46387h-1.85548v-1.85547h1.85547l-0.46387,-0.46387h-1.85547z"/></g><g><path d="M212.33252,346.40918v3.71094h-1.85547v-6.49414h1.85547l1.3916,1.3916l1.3916,-1.3916h1.85547v6.49414h-1.85547v-3.71094l-1.3916,1.3916z"/><path d="M219.29053,343.62598h3.71094l1.3916,1.3916v5.10254h-1.85547v-1.3916h-2.7832v1.3916h-1.85547v-5.10254zM222.07373,345.48145h-1.85547l-0.46387,0.46387v0.92773h2.7832v-0.92773z"/><path d="M231.81494,345.01758v1.85547l-1.3916,1.3916l1.85547,1.85547h-2.7832l-1.85547,-1.85547h-0.46387v1.85547h-1.85547v-6.49414h5.10254zM229.95947,345.94531l-0.46387,-0.46387h-2.31934v0.92773h2.31934z"/><path d="M234.59814,347.80078v2.31934h-1.85547v-6.49414h1.85547v2.31934l2.31934,-2.31934h2.7832l-3.24707,3.24707l3.24707,3.24707h-2.7832z"/><path d="M240.16455,345.01758l1.39111,-1.3916h5.10254v1.85547h-4.1748l-0.23145,0.23145l0.23145,0.23242h2.7832l1.3916,1.3916v1.3916l-1.3916,1.3916h-5.10205v-1.85547h4.17432l0.23242,-0.23242l-0.23242,-0.23145h-2.7832l-1.39111,-1.3916v-1.3916z"/><path d="M249.44141,346.40918v3.71094h-1.85547v-6.49414h1.85547l1.3916,1.3916l1.3916,-1.3916h1.85547v6.49414h-1.85547v-3.71094l-1.3916,1.3916z"/><path d="M256.39941,343.62598h3.71094l1.3916,1.3916v5.10254h-1.85547v-1.3916h-2.7832v1.3916h-1.85547v-5.10254zM259.18262,345.48145h-1.85547l-0.46387,0.46387v0.92773h2.7832v-0.92773z"/><path d="M264.28516,346.87305v3.24707h-1.85547v-6.49414h1.3916l3.24707,3.24707v-3.24707h1.85547v6.49414h-1.3916z"/></g><g><path d="M213.72412,357.24512l1.3916,-1.3916h5.10254v1.85547h-4.1748l-0.23193,0.23145l0.23193,0.23242h2.7832l1.3916,1.3916v1.3916l-1.3916,1.3916h-5.10254v-1.85547h4.1748l0.23193,-0.23242l-0.23193,-0.23145h-2.7832l-1.3916,-1.3916z"/><path d="M227.64014,357.24512v1.85547l-1.3916,1.3916h-3.24707v1.85547h-1.85547v-6.49414h5.10254zM225.78467,358.17285l-0.46387,-0.46387h-2.31934v0.92773h2.31934z"/><path d="M228.56787,355.85352h1.85547v4.63867h3.71094v1.85547h-5.56641z"/><path d="M236.91748,362.34766h-1.85547v-6.49414h1.85547z"/><path d="M239.70068,359.10059v3.24707h-1.85547v-6.49414h1.3916l3.24658,3.24707v-3.24707h1.85547v6.49414h-1.3916z"/><path d="M249.44141,357.70898v4.63867h-1.85547v-4.63867h-2.31934v-1.85547h6.49414v1.85547z"/><path d="M254.54395,360.49219h3.71094v1.85547h-5.56641v-6.49414h5.56641v1.85547h-3.71094v0.46387h3.71094v1.85547h-3.71094z"/><path d="M265.67676,357.24512v1.85547l-1.3916,1.3916l1.85547,1.85547h-2.7832l-1.85547,-1.85547h-0.46387v1.85547h-1.85547v-6.49414h5.10254zM263.82129,358.17285l-0.46387,-0.46387h-2.31934v0.92773h2.31934z"/></g><g><path d="M231.81494,366.74414v1.85547h-3.71094v0.46387h3.71094v1.85547h-3.71094v2.31934h-1.85547v-6.49414h5.56641z"/><path d="M232.74268,366.74414h1.85547v4.63867h3.71094v1.85547h-5.56641z"/><path d="M240.62842,366.74414h3.71143l1.3916,1.3916v5.10254h-1.85547v-1.3916h-2.7832v1.3916h-1.85596v-5.10254zM243.41211,368.59961h-1.85547l-0.46387,0.46387v0.92773h2.7832v-0.92773z"/><path d="M248.51465,370.91895v2.31934h-1.85547v-6.49414h1.85547v2.31934l2.31934,-2.31934h2.7832l-3.24707,3.24707l3.24707,3.24707h-2.7832z"/></g><g><path d="M209.87939,378.17285h5.10254l1.3916,1.3916v3.71094l-1.3916,1.3916h-5.10254zM211.73486,380.02832v2.7832h2.31934l0.46387,-0.46387v-1.85547l-0.46387,-0.46387h-2.31934z"/><path d="M217.30127,383.27539v-5.10254h1.85547v4.1748l0.46387,0.46387h1.85547l0.46387,-0.46387v-4.1748h1.85547v5.10254l-1.3916,1.3916h-3.71094z"/><path d="M226.11475,378.17285h3.71094l1.3916,1.3916v5.10254h-1.85547v-1.3916h-2.7832v1.3916h-1.85547v-5.10254zM228.89795,380.02832h-1.85547l-0.46387,0.46387v0.92773h2.7832v-0.92773z"/><path d="M232.14502,378.17285h1.85547v4.63867h3.71094v1.85547h-5.56641z"/><path d="M240.99561,379.56445l1.39111,-1.3916h5.10254v1.85547h-4.1748l-0.23145,0.23242l0.23145,0.23145h2.7832l1.3916,1.3916v1.3916l-1.3916,1.3916h-5.10205v-1.85547h4.17432l0.23242,-0.23145l-0.23242,-0.23242h-2.7832l-1.39111,-1.3916v-1.3916z"/><path d="M250.27246,382.34766v2.31934h-1.85547v-6.49414h1.85547v2.31934h2.7832v-2.31934h1.85547v6.49414h-1.85547v-2.31934z"/><path d="M255.83887,383.27539v-3.71094l1.3916,-1.3916h3.71094l1.3916,1.3916v3.71094l-1.3916,1.3916h-3.71094zM257.69434,380.49219v1.85547l0.46387,0.46387h1.85547l0.46387,-0.46387v-1.85547l-0.46387,-0.46387h-1.85548z"/><path d="M267.20312,380.02832v4.63867h-1.85547v-4.63867h-2.31934v-1.85547h6.49414v1.85547z"/></g><g><path d="M229.03223,390.99316v1.3916l-0.46387,0.46387l0.46387,0.46387v1.3916l-1.3916,1.3916h-5.10254v-6.49414h5.10254zM226.71289,391.45703h-2.31934v0.46387h2.31934l0.23193,-0.23242zM224.39355,393.77637v0.46387h2.31934l0.23193,-0.23242l-0.23193,-0.23145z"/><path d="M229.95996,389.60156h1.85547v4.63867h3.71094v1.85547h-5.56641z"/><path d="M237.8457,389.60156h3.71094l1.3916,1.3916v5.10254h-1.85547v-1.3916h-2.7832v1.3916h-1.85547v-5.10254zM240.62891,391.45703h-1.85547l-0.46387,0.46387v0.92773h2.7832v-0.92773z"/><path d="M243.87598,389.60156h5.10254l1.3916,1.3916v3.71094l-1.3916,1.3916h-5.10254zM245.73145,391.45703v2.7832h2.31934l0.46387,-0.46387v-1.85547l-0.46387,-0.46387h-2.31934z"/><path d="M253.15332,394.24023h3.71094v1.85547h-5.56641v-6.49414h5.56641v1.85547h-3.71094v0.46387h3.71094v1.85547h-3.71094z"/></g><g><path d="M208.02295,299.62598h3.71094l1.3916,1.3916v5.10254h-1.85547v-1.3916h-2.7832v1.3916h-1.85547v-5.10254zM210.80615,301.48145h-1.85547l-0.46387,0.46387v0.92773h2.7832v-0.92773z"/><path d="M214.05322,304.72852v-5.10254h1.85547v4.1748l0.46387,0.46387h1.85547l0.46387,-0.46387v-4.1748h1.85547v5.10254l-1.3916,1.3916h-3.71094z"/><path d="M225.6499,301.48145v4.63867h-1.85547v-4.63867h-2.31933v-1.85547h6.49414v1.85547z"/><path d="M228.66504,304.72852v-3.71094l1.3916,-1.3916h3.71094l1.3916,1.3916v3.71094l-1.3916,1.3916h-3.71094zM230.52051,301.94531v1.85547l0.46387,0.46387h1.85547l0.46387,-0.46387v-1.85547l-0.46387,-0.46387h-1.85547z"/><path d="M238.44336,299.62598h1.85547v4.63867h3.71094v1.85547h-5.56641z"/><path d="M246.3291,299.62598h3.71094l1.3916,1.3916v5.10254h-1.85547v-1.3916h-2.7832v1.3916h-1.85547v-5.10254zM249.1123,301.48145h-1.85547l-0.46387,0.46387v0.92773h2.7832v-0.92773z"/><path d="M252.35938,301.01758l1.3916,-1.3916h5.10254v1.85547h-4.1748l-0.23145,0.23145l0.23145,0.23242h2.78418l1.39062,1.3916v1.3916l-1.39062,1.3916h-5.10352v-1.85547h4.17578l0.23242,-0.23242l-0.23242,-0.23145h-2.78418l-1.3916,-1.3916z"/><path d="M261.6377,304.26465h3.71094v1.85547h-5.56641v-6.49414h5.56641v1.85547h-3.71094v0.46387h3.71094v1.85547h-3.71094z"/><path d="M272.77051,301.01758v1.85547l-1.3916,1.3916l1.85547,1.85547h-2.7832l-1.85547,-1.85547h-0.46387v1.85547h-1.85547v-6.49414h5.10254zM270.91504,301.94531l-0.46387,-0.46387h-2.31934v0.92773h2.31934z"/></g><g><path d="M214.41992,161.38965l1.3916,-1.3916h5.10254v1.85547h-4.1748l-0.23193,0.23193l0.23193,0.23193h2.7832l1.3916,1.3916v1.3916l-1.3916,1.3916h-5.10254v-1.85547h4.1748l0.23193,-0.23193l-0.23193,-0.23193h-2.7832l-1.3916,-1.3916z"/><path d="M223.69727,164.17285v2.31934h-1.85547v-6.49414h1.85547v2.31934h2.7832v-2.31934h1.85547v6.49414h-1.85547v-2.31934z"/><path d="M229.26367,165.10059v-3.71094l1.3916,-1.3916h3.71094l1.3916,1.3916v3.71094l-1.3916,1.3916h-3.71094zM231.11914,162.31738v1.85547l0.46387,0.46387h1.85547l0.46387,-0.46387v-1.85547l-0.46387,-0.46387h-1.85547z"/><path d="M240.62842,161.85352v4.63867h-1.85547v-4.63867h-2.31934v-1.85547h6.49463v1.85547z"/><path d="M243.64355,165.10059v-3.71094l1.3916,-1.3916h3.71094l1.3916,1.3916l-0.92773,0.92773h0.92773v4.1748h-5.10254zM245.49902,162.31738v1.85547l0.46387,0.46387h2.31934v-0.46387h-1.85547v-1.85547h1.85547l-0.46387,-0.46387h-1.85547z"/><path d="M251.06543,165.10059v-5.10254h1.85547v4.1748l0.46387,0.46387h1.85547l0.46484,-0.46387v-4.1748h1.85547v5.10254l-1.39258,1.3916h-3.71094z"/><path d="M260.34277,163.24512v3.24707h-1.85547v-6.49414h1.3916l3.24707,3.24707v-3.24707h1.85547v6.49414h-1.3916z"/></g><g><path d="M222.53809,171.99805h1.85547v4.63867h3.71094v1.85547h-5.56641z"/><path d="M230.42383,171.99805h3.71094l1.3916,1.3916v5.10254h-1.85547v-1.3916h-2.7832v1.3916h-1.85547v-5.10254zM233.20703,173.85352h-1.85547l-0.46387,0.46387v0.92773h2.7832v-0.92773z"/><path d="M236.4541,173.38965l1.3916,-1.3916h5.10254v1.85547h-4.1748l-0.23193,0.23193l0.23193,0.23193h2.7832l1.3916,1.3916v1.3916l-1.3916,1.3916h-5.10254v-1.85547h4.1748l0.23193,-0.23193l-0.23193,-0.23193h-2.7832l-1.3916,-1.3916z"/><path d="M245.73145,176.63672h3.71094v1.85547h-5.56641v-6.49414h5.56641v1.85547h-3.71094v0.46387h3.71094v1.85547h-3.71094z"/><path d="M256.86426,173.38965v1.85547l-1.3916,1.3916l1.85547,1.85547h-2.7832l-1.85547,-1.85547h-0.46387v1.85547h-1.85547v-6.49414h5.10254zM255.00879,174.31738l-0.46387,-0.46387h-2.31934v0.92773h2.31934z"/></g><g><path d="M211.40527,181.71191h1.85547v4.63867h3.71094v1.85547h-5.56641z"/><path d="M219.29102,181.71191h3.71094l1.3916,1.3916v5.10254h-1.85547v-1.3916h-2.7832v1.3916h-1.85547v-5.10254zM222.07422,183.56738h-1.85547l-0.46387,0.46387v0.92773h2.7832v-0.92773z"/><path d="M225.32129,186.81445v-5.10254h1.85547v4.1748l0.46387,0.46387h1.85547l0.46387,-0.46387v-4.1748h1.85547v5.10254l-1.3916,1.3916h-3.71094z"/><path d="M234.59863,184.95898v3.24707h-1.85547v-6.49414h1.3916l3.24707,3.24707v-3.24707h1.85547v6.49414h-1.3916z"/><path d="M245.26758,181.71191l1.3916,1.3916l-1.3916,1.3916l-0.92773,-0.92773h-1.85547l-0.46387,0.46387v1.85547l0.46387,0.46387h1.85547l0.92773,-0.92773l1.3916,1.3916l-1.3916,1.3916h-3.71094l-1.3916,-1.3916v-3.71094l1.3916,-1.3916h3.71094z"/><path d="M249.44238,185.88672v2.31934h-1.85547v-6.49414h1.85547v2.31934h2.7832v-2.31934h1.85547v6.49414h-1.85547v-2.31934z"/><path d="M256.86426,186.35059h3.71094v1.85547h-5.56641v-6.49414h5.56641v1.85547h-3.71094v0.46387h3.71094v1.85547h-3.71094z"/><path d="M267.99707,183.10352v1.85547l-1.3916,1.3916l1.85547,1.85547h-2.7832l-1.85547,-1.85547h-0.46387v1.85547h-1.85547v-6.49414h5.10254zM266.1416,184.03125l-0.46387,-0.46387h-2.31933v0.92773h2.31934z"/></g><g><path d="M220.68262,194.66699v3.71094h-1.85547v-6.49414h1.85547l1.3916,1.3916l1.3916,-1.3916h1.85547v6.49414h-1.85547v-3.71094l-1.3916,1.3916z"/><path d="M228.10449,198.37793h-1.85547v-6.49414h1.85547z"/><path d="M230.8877,195.13086v3.24707h-1.85547v-6.49414h1.3916l3.24707,3.24707v-3.24707h1.85547v6.49414h-1.3916z"/><path d="M238.30957,198.37793h-1.85547v-6.49414h1.85547z"/><path d="M239.2373,196.98633v-3.71094l1.3916,-1.3916h3.71094l1.3916,1.3916l-0.92773,0.92773h0.92773v4.1748h-5.10254zM241.09277,194.20312v1.85547l0.46387,0.46387h2.31934v-0.46387h-1.85547v-1.85547h1.85547l-0.46387,-0.46387h-1.85547z"/><path d="M246.65918,196.98633v-5.10254h1.85547v4.1748l0.46387,0.46387h1.85547l0.46387,-0.46387v-4.1748h1.85547v5.10254l-1.3916,1.3916h-3.71094z"/><path d="M255.93652,195.13086v3.24707h-1.85547v-6.49414h1.3916l3.24707,3.24707v-3.24707h1.85547v6.49414h-1.3916z"/></g><g><path d="M224.97314,204.89551v1.85547l-1.3916,1.3916l1.85547,1.85547h-2.7832l-1.85547,-1.85547h-0.46387v1.85547h-1.85547v-6.49414h5.10254zM223.11768,205.82324l-0.46387,-0.46387h-2.31934v0.92773h2.31934z"/><path d="M225.90088,208.60645v-3.71094l1.3916,-1.3916h3.71094l1.3916,1.3916v3.71094l-1.3916,1.3916h-3.71094zM227.75635,205.82324v1.85547l0.46387,0.46387h1.85547l0.46387,-0.46387v-1.85547l-0.46387,-0.46387h-1.85547z"/><path d="M238.42529,203.50391l1.3916,1.3916l-1.3916,1.3916l-0.92773,-0.92773h-1.85547l-0.46387,0.46387v1.85547l0.46387,0.46387h1.85547l0.92773,-0.92773l1.3916,1.3916l-1.3916,1.3916h-3.71094l-1.3916,-1.3916v-3.71094l1.3916,-1.3916h3.71094z"/><path d="M242.60059,207.67871v2.31934h-1.85596v-6.49414h1.85596v2.31934l2.31934,-2.31934h2.7832l-3.24707,3.24707l3.24707,3.24707h-2.7832z"/><path d="M250.02246,208.14258h3.71094v1.85547h-5.56641v-6.49414h5.56641v1.85547h-3.71094v0.46387h3.71094v1.85547h-3.71094z"/><path d="M258.60352,205.35938v4.63867h-1.85547v-4.63867h-2.31934v-1.85547h6.49512v1.85547z"/></g><g><path d="M215.90869,218.08594v2.31934h-1.85547v-6.49414h1.85547v2.31934h2.7832v-2.31934h1.85547v6.49414h-1.85547v-2.31934z"/><path d="M223.33057,218.5498h3.71094v1.85547h-5.56641v-6.49414h5.56641v1.85547h-3.71094v0.46387h3.71094v1.85547h-3.71094z"/><path d="M229.12891,213.91113h3.71094l1.3916,1.3916v5.10254h-1.85547v-1.3916h-2.7832v1.3916h-1.85548v-5.10254zM231.91211,215.7666h-1.85547l-0.46387,0.46387v0.92773h2.7832v-0.92773z"/><path d="M235.15918,213.91113h1.85547v4.63867h3.71094v1.85547h-5.56641z"/><path d="M244.00977,219.01367v-3.71094l1.3916,-1.3916h3.71094l1.3916,1.3916l-0.92773,0.92773h0.92773v4.1748h-5.10254zM245.86523,216.23047v1.85547l0.46387,0.46387h2.31934v-0.46387h-1.85547v-1.85547h1.85547l-0.46387,-0.46387h-1.85547z"/><path d="M251.43164,219.01367v-5.10254h1.85547v4.1748l0.46387,0.46387h1.85547l0.46387,-0.46387v-4.1748h1.85547v5.10254l-1.39062,1.3916h-3.71191z"/><path d="M260.70996,217.1582v3.24707h-1.85547v-6.49414h1.3916l3.24707,3.24707v-3.24707h1.85547v6.49414h-1.3916z"/></g><g><path d="M212.77783,337.19824v2.31934h-1.85547v-6.49414h1.85547v2.31934h2.7832v-2.31934h1.85547v6.49414h-1.85547v-2.31934z"/><path d="M220.19971,337.66211h3.71094v1.85547h-5.56641v-6.49414h5.56641v1.85547h-3.71094v0.46387h3.71094v1.85547h-3.71094z"/><path d="M225.99805,333.02344h3.71094l1.3916,1.3916v5.10254h-1.85547v-1.3916h-2.7832v1.3916h-1.85547v-5.10254zM228.78125,334.87891h-1.85547l-0.46387,0.46387v0.92773h2.7832v-0.92773z"/><path d="M232.02832,333.02344h1.85547v4.63867h3.71094v1.85547h-5.56641z"/><path d="M247.37305,334.41504v1.3916l-0.46387,0.46387l0.46387,0.46387v1.3916l-1.3916,1.3916h-5.10254v-6.49414h5.10254zM245.05371,334.87891h-2.31934v0.46387h2.31934l0.23242,-0.23145zM242.73438,337.19824v0.46387h2.31934l0.23242,-0.23145l-0.23242,-0.23242z"/><path d="M250.15625,337.66211h3.71094v1.85547h-5.56641v-6.49414h5.56641v1.85547h-3.71094v0.46387h3.71094v1.85547h-3.71094z"/><path d="M255.95508,333.02344h3.71094l1.3916,1.3916v5.10254h-1.85547v-1.3916h-2.7832v1.3916h-1.85547v-5.10254zM258.73828,334.87891h-1.85547l-0.46387,0.46387v0.92773h2.7832v-0.92773z"/><path d="M263.84082,335.80664v3.71094h-1.85547v-6.49414h1.85547l1.3916,1.3916l1.3916,-1.3916h1.85547v6.49414h-1.85547v-3.71094l-1.3916,1.3916z"/></g><g><path d="M218.94238,228.58691v3.24707h-1.85547v-6.49414h1.3916l3.24707,3.24707v-3.24707h1.85547v6.49414h-1.3916z"/><path d="M225.90039,225.33984h3.71094l1.3916,1.3916v5.10254h-1.85547v-1.3916h-2.7832v1.3916h-1.85547v-5.10254zM228.68359,227.19531h-1.85547l-0.46387,0.46387v0.92773h2.7832v-0.92773z"/><path d="M233.78613,231.83398h-1.85547v-6.49414h1.85547z"/><path d="M234.71387,225.33984h1.85547v4.63867h3.71094v1.85547h-5.56641z"/><path d="M240.97607,230.44238v-3.71094l1.39209,-1.3916h3.71094l1.3916,1.3916l-0.92773,0.92773h0.92773v4.1748h-5.10254zM242.83203,227.65918v1.85547l0.46387,0.46387h2.31934v-0.46387h-1.85547v-1.85547h1.85547l-0.46387,-0.46387h-1.85547z"/><path d="M248.39844,230.44238v-5.10254h1.85547v4.1748l0.46387,0.46387h1.85547l0.46387,-0.46387v-4.1748h1.85547v5.10254l-1.3916,1.3916h-3.71094z"/><path d="M257.6748,228.58691v3.24707h-1.85547v-6.49414h1.39258l3.24609,3.24707v-3.24707h1.85547v6.49414h-1.39062z"/></g><g><path d="M221.72559,236.90234v1.3916l-0.46387,0.46387l0.46387,0.46387v1.3916l-1.3916,1.3916h-5.10254v-6.49414h5.10254zM219.40625,237.36621h-2.31934v0.46387h2.31934l0.23193,-0.23145zM217.08691,239.68555v0.46387h2.31934l0.23193,-0.23145l-0.23193,-0.23242z"/><path d="M222.65332,235.51074h1.85547v4.63867h3.71094v1.85547h-5.56641z"/><path d="M230.53906,235.51074h3.71094l1.3916,1.3916v5.10254h-1.85547v-1.3916h-2.7832v1.3916h-1.85547v-5.10254zM233.32227,237.36621h-1.85547l-0.46387,0.46387v0.92773h2.7832v-0.92773z"/><path d="M236.56934,236.90234l1.3916,-1.3916h5.10254v1.85547h-4.1748l-0.23193,0.23242l0.23193,0.23145h2.7832l1.3916,1.3916v1.3916l-1.3916,1.3916h-5.10254v-1.85547h4.1748l0.23193,-0.23145l-0.23193,-0.23242h-2.7832l-1.3916,-1.3916z"/><path d="M247.93457,237.36621v4.63867h-1.85547v-4.63867h-2.31934v-1.85547h6.49414v1.85547z"/><path d="M253.03711,240.14941h3.70996v1.85547h-5.56543v-6.49414h5.56543v1.85547h-3.70996v0.46387h3.70996v1.85547h-3.70996z"/><path d="M264.16992,236.90234v1.85547l-1.3916,1.3916l1.85547,1.85547h-2.7832l-1.85547,-1.85547h-0.46387v1.85547h-1.85547v-6.49414h5.10254zM262.31445,237.83008l-0.46387,-0.46387h-2.31934v0.92773h2.31934z"/></g></g></g></svg>