<svg version="1.1" xmlns="http://www.w3.org/2000/svg" xmlns:xlink="http://www.w3.org/1999/xlink" width="23.5" height="6.4" viewBox="0,0,23.5,6.4"><g transform="translate(-228.25,-176.8)"><g data-paper-data="{&quot;isPaintingLayer&quot;:true}" fill="#000000" fill-rule="nonzero" stroke="none" stroke-width="1" stroke-linecap="butt" stroke-linejoin="miter" stroke-miterlimit="10" stroke-dasharray="" stroke-dashoffset="0" style="mix-blend-mode: normal"><path d="M232.75,179.5v-2.7h1.8v3.6l-2.7,2.7h-0.9l-2.7,-2.7v-3.6h1.8v2.7l1.4,1.4z"/><path d="M235.45,181.8v-3.6l1.4,-1.4h3.6l1.4,1.4v3.6l-1.4,1.4h-3.6zM237.25,179v1.8l0.5,0.5h1.8l0.5,-0.5v-1.8l-0.5,-0.5h-1.8z"/><path d="M244.45,183.1h-1.8v-6.3h1.8z"/><path d="M245.35,176.8h5l1.4,1.4v3.6l-1.4,1.4h-5zM247.15,178.6v2.7h2.3l0.5,-0.5v-1.8l-0.5,-0.5h-2.3z"/></g></g></svg>