<svg version="1.1" xmlns="http://www.w3.org/2000/svg" xmlns:xlink="http://www.w3.org/1999/xlink" width="102.5" height="102.5" viewBox="0,0,102.5,102.5"><defs><linearGradient x1="240.00001" y1="155.07291" x2="240.00001" y2="177.83621" gradientUnits="userSpaceOnUse" id="color-1"><stop offset="0" stop-color="#c39700"/><stop offset="1" stop-color="#fef200"/></linearGradient><linearGradient x1="240.00001" y1="170.78216" x2="240.00001" y2="204.92711" gradientUnits="userSpaceOnUse" id="color-2"><stop offset="0" stop-color="#c39700"/><stop offset="1" stop-color="#fef200"/></linearGradient><radialGradient cx="240" cy="180" r="51.25" gradientUnits="userSpaceOnUse" id="color-3"><stop offset="0" stop-color="#ffae63" stop-opacity="0.23669"/><stop offset="1" stop-color="#ffae63" stop-opacity="0"/></radialGradient></defs><g transform="translate(-188.75,-128.75)"><g data-paper-data="{&quot;isPaintingLayer&quot;:true}" fill-rule="nonzero" stroke="none" stroke-linecap="butt" stroke-linejoin="miter" stroke-miterlimit="10" stroke-dasharray="" stroke-dashoffset="0" style="mix-blend-mode: normal"><path d="M224.46933,172.9716c-0.65939,-0.65933 -0.65939,-1.72842 0,-2.38776l15.51092,-15.51093l0.01979,0.01979l0.01979,-0.01979l15.51088,15.51093c0.65939,0.65933 0.65939,1.72842 0,2.38776l-4.37002,4.37007c-0.65933,0.65939 -1.72843,0.65939 -2.38782,0l-7.57894,-7.57895c-0.65934,-0.65934 -1.72844,-0.65934 -2.38783,0l-7.57894,7.57895c-0.65934,0.65939 -1.72843,0.65939 -2.38782,0z" fill="url(#color-1)" stroke-width="1"/><path d="M255.98094,187.85464c0.12135,0.54498 -0.02621,1.13757 -0.45024,1.5616l-15.51087,15.51087l-0.01979,-0.01979l-0.01978,0.01979l-15.51093,-15.51087c-0.42404,-0.42403 -0.5716,-1.01662 -0.45025,-1.5616c-0.12134,-0.54498 0.02621,-1.13757 0.45025,-1.5616l15.51093,-15.51088l0.01978,0.01978l0.01979,-0.01978l15.51087,15.51088c0.42403,0.42403 0.57159,1.01661 0.45024,1.5616zM243.57656,187.85463l-2.38265,-2.38266c-0.65934,-0.65934 -1.72844,-0.65934 -2.38783,0l-2.38265,2.38266l2.38265,2.38266c0.6594,0.65939 1.72849,0.65939 2.38783,0z" fill="url(#color-2)" stroke-width="1"/><path d="M188.75,180c0,-28.3046 22.9454,-51.25 51.25,-51.25c28.3046,0 51.25,22.9454 51.25,51.25c0,28.3046 -22.9454,51.25 -51.25,51.25c-28.3046,0 -51.25,-22.9454 -51.25,-51.25z" fill="url(#color-3)" stroke-width="0"/></g></g></svg>