<svg version="1.1" xmlns="http://www.w3.org/2000/svg" xmlns:xlink="http://www.w3.org/1999/xlink" width="27.773" height="6.3944" viewBox="0,0,27.773,6.3944"><g transform="translate(-226.187,-176.5722)"><g data-paper-data="{&quot;isPaintingLayer&quot;:true}" fill="#e7e6de" fill-rule="nonzero" stroke="none" stroke-linecap="butt" stroke-linejoin="miter" stroke-miterlimit="10" stroke-dasharray="" stroke-dashoffset="0" style="mix-blend-mode: normal"><path d="M226.8941,176.5722l5.6873,5.6873l-0.7071,0.7071l-5.6873,-5.6873z" stroke-width="0.99999"/><g stroke-width="1"><path d="M237.33,181.236l-1.537,-2.069v2.069h-0.486v-2.884h0.478l1.545,2.072v-2.072h0.478v2.884z"/><path d="M241.393,179.794c0,0.824 -0.667,1.462 -1.528,1.462c-0.861,0 -1.528,-0.638 -1.528,-1.462c0,-0.828 0.667,-1.455 1.528,-1.455c0.861,0 1.528,0.631 1.528,1.455zM238.831,179.794c0,0.573 0.474,1.026 1.039,1.026c0.565,0 1.026,-0.453 1.026,-1.026c0,-0.573 -0.461,-1.018 -1.026,-1.018c-0.569,0 -1.039,0.445 -1.039,1.018z"/><path d="M244.133,178.352c0.726,0 1.142,0.358 1.142,0.984c0,0.651 -0.416,1.03 -1.142,1.03h-0.663v0.87h-0.486v-2.884zM243.47,179.93h0.643c0.445,0 0.696,-0.189 0.696,-0.581c0,-0.379 -0.251,-0.561 -0.696,-0.561h-0.643z"/><path d="M246.247,178.789v0.779h1.409v0.437h-1.409v0.795h1.623v0.437h-2.109v-2.885h2.061v0.437z"/><path d="M249.769,180.362c-0.041,0.004 -0.086,0.004 -0.132,0.004h-0.684v0.87h-0.486v-2.884h1.17c0.737,0 1.162,0.358 1.162,0.984c0,0.461 -0.214,0.787 -0.598,0.936l0.647,0.964h-0.553zM249.638,179.93c0.445,0 0.7,-0.189 0.7,-0.581c0,-0.379 -0.255,-0.561 -0.7,-0.561h-0.684v1.142z"/><path d="M252.428,179.963l-0.49,0.54v0.734h-0.486v-2.885h0.486v1.491l1.376,-1.491h0.572l-1.116,1.232l1.19,1.652h-0.585z"/></g></g></g></svg>