<svg xmlns="http://www.w3.org/2000/svg" xmlns:xlink="http://www.w3.org/1999/xlink" version="1.1" width="23.136001586914062" height="5.229000091552734" viewBox="0.4320000410079956 0.38499999046325684 23.136001586914062 5.229000091552734">
  <!-- Exported by Scratch - http://scratch.mit.edu/ -->
  <g id="ID0.2391767124645412">
    <path id="ID0.4680250524543226" fill="#FFFFFF" d="M 2.964 1.552 L 2.964 5.114 L 2.257 5.114 L 2.257 1.552 L 0.932 1.552 L 0.932 0.916 L 4.295 0.916 L 4.295 1.552 L 2.964 1.552 Z " stroke-width="1"/>
    <path id="ID0.10473270108923316" fill="#FFFFFF" d="M 5.61 1.552 L 5.61 2.685 L 7.661 2.685 L 7.661 3.321 L 5.61 3.321 L 5.61 4.479 L 7.973 4.479 L 7.973 5.114 L 4.903 5.114 L 4.903 0.916 L 7.901 0.916 L 7.901 1.552 L 5.61 1.552 Z " stroke-width="1"/>
    <path id="ID0.33720060577616096" fill="#FFFFFF" d="M 9.433 4.166 L 9.032 5.113 L 8.294 5.113 L 10.148 0.916 L 10.874 0.916 L 12.709 5.113 L 11.953 5.113 L 11.55 4.166 L 9.433 4.166 Z M 10.488 1.672 L 9.696 3.537 L 11.279 3.537 L 10.488 1.672 Z " stroke-width="1"/>
    <path id="ID0.7863387977704406" fill="#FFFFFF" d="M 17.051 5.113 L 17.045 1.977 L 15.719 4.675 L 15.258 4.675 L 13.933 1.977 L 13.933 5.113 L 13.267 5.113 L 13.267 0.916 L 14.107 0.916 L 15.492 3.705 L 16.871 0.916 L 17.705 0.916 L 17.705 5.113 L 17.051 5.113 Z " stroke-width="1"/>
    <path id="ID0.271659629419446" fill="#FFFFFF" d="M 22.877 1.941 C 22.877 2.367 22.553 2.84 22.109 3.32 L 21.017 4.478 L 23.068 4.478 L 23.068 5.113 L 20.082 5.113 L 20.082 4.598 L 21.63 2.937 C 21.936 2.625 22.14 2.283 22.14 2.043 C 22.14 1.707 21.875 1.503 21.438 1.503 C 21.073 1.503 20.647 1.707 20.292 2.03 L 20.011 1.485 C 20.466 1.113 21 0.885 21.539 0.885 C 22.331 0.886 22.877 1.3 22.877 1.941 Z " stroke-width="1"/>
  </g>
</svg>