<svg version="1.1" xmlns="http://www.w3.org/2000/svg" xmlns:xlink="http://www.w3.org/1999/xlink" width="99" height="22.75" viewBox="0,0,99,22.75"><g transform="translate(-190.5,-168.625)"><g data-paper-data="{&quot;isPaintingLayer&quot;:true}" fill-rule="nonzero" stroke-linecap="butt" stroke-linejoin="miter" stroke-miterlimit="10" stroke-dasharray="" stroke-dashoffset="0" style="mix-blend-mode: normal"><path d="M190.875,191v-22h98.25v22z" fill-opacity="0.46774" fill="#000000" stroke="#ffffff" stroke-width="0.75"/><g fill="#ffffff" stroke="none" stroke-width="1"><path d="M204.8,181.88334v-3.6l1.4,-1.4h3.6l1.4,1.4v3.6l-0.9,0.9l1.4,1.4h-2.7l-0.9,-0.9h-1.8zM206.7,180.98334l0.5,0.5h1.8l0.5,-0.5v-1.8l-0.5,-0.5h-1.8l-0.5,0.5z"/><path d="M212.1,181.88334v-5h1.8v4.1l0.5,0.5h1.8l0.5,-0.5v-4.1h1.8v5l-1.5,1.4h-3.6z"/><path d="M221.1,183.28334h-1.8v-6.3h1.8z"/><path d="M226.1,178.68334v4.5h-1.8v-4.5h-2.3v-1.8h6.3v1.8z"/><path d="M235.6,178.68334v4.5h-1.8v-4.5h-2.3v-1.8h6.3v1.8z"/><path d="M238.5,181.88334v-3.6l1.4,-1.4h3.6l1.4,1.4v3.6l-1.4,1.4h-3.6zM240.3,179.18334v1.8l0.5,0.5h1.8l0.4,-0.5v-1.8l-0.5,-0.5h-1.8z"/><path d="M249.9,179.58334v3.6h-1.8v-6.3h1.8l1.4,1.4l1.4,-1.4h1.8v6.3h-1.8v-3.6l-1.5,1.4z"/><path d="M257.1,181.38334h3.6v1.8h-5.4v-6.3h5.4v1.8h-3.6v0.5h3.6v1.8h-3.6z"/><path d="M263.4,180.08334v3.2h-1.8v-6.3h1.4l3.2,3.2v-3.2h1.8v6.3h-1.4z"/><path d="M268.8,181.88334v-5h1.8v4.1l0.5,0.5h1.8l0.5,-0.5v-4.1h1.8v5l-1.4,1.4h-3.6z"/></g></g></g></svg>