<svg version="1.1" xmlns="http://www.w3.org/2000/svg" xmlns:xlink="http://www.w3.org/1999/xlink" width="57.6404" height="18.4045" viewBox="0,0,57.6404,18.4045"><g transform="translate(-211.1798,-170.79775)"><g data-paper-data="{&quot;isPaintingLayer&quot;:true}" fill-rule="nonzero" stroke="none" stroke-width="1" stroke-linecap="butt" stroke-linejoin="miter" stroke-miterlimit="10" stroke-dasharray="" stroke-dashoffset="0" style="mix-blend-mode: normal"><g><g fill="#000000"><path d="M266.4438,189.20225h-52.8876c-1.307,0 -2.3764,-1.0694 -2.3764,-2.3764v-13.6517c0,-1.307 1.0694,-2.3764 2.3764,-2.3764h52.8876c1.307,0 2.3764,1.0694 2.3764,2.3764v13.6517c0,1.307 -1.0694,2.3764 -2.3764,2.3764z"/></g><g fill="#ffffff"><path d="M224.1368,175.10395h1.9434v6.8164h4.2119v1.584h-6.1553z"/><path d="M238.8721,175.10395l-3.6357,8.4004h-1.9199l-3.624,-8.4004h2.1006l2.5557,6l2.5918,-6z"/><path d="M239.5684,175.10395h1.9434v6.8164h4.2119v1.584h-6.1553z"/><path d="M255.3965,176.03365c0.6631,0.7168 0.9951,1.7461 0.9951,3.0908c0,0.9521 -0.1777,1.7676 -0.5332,2.4473c-0.3564,0.6807 -0.8584,1.1963 -1.5059,1.5488c-0.6484,0.3516 -1.3965,0.5273 -2.2441,0.5273c-0.4482,0 -0.876,-0.0498 -1.2842,-0.1494c-0.4082,-0.1006 -0.7559,-0.2422 -1.0439,-0.4268l0.7197,-1.4277c0.4082,0.2803 0.9316,0.4199 1.5723,0.4199c0.7119,0 1.2754,-0.21 1.6914,-0.6299c0.416,-0.4199 0.6406,-1.0264 0.6729,-1.8184c-0.5049,0.5049 -1.2002,0.7568 -2.0889,0.7568c-0.5361,0 -1.0234,-0.1084 -1.4639,-0.3242c-0.4395,-0.2158 -0.7881,-0.5225 -1.0439,-0.918c-0.2559,-0.3965 -0.3838,-0.8545 -0.3838,-1.374c0,-0.5605 0.1396,-1.0518 0.4199,-1.4766c0.2803,-0.4238 0.6621,-0.75 1.1465,-0.9775c0.4834,-0.2285 1.0215,-0.3418 1.6133,-0.3418c1.1768,0.0001 2.0967,0.3575 2.7607,1.0734zM253.8184,178.56585c0.2676,-0.2354 0.4014,-0.5381 0.4014,-0.9062c0,-0.3672 -0.1299,-0.667 -0.3896,-0.8994c-0.2597,-0.2324 -0.6182,-0.3477 -1.0742,-0.3477c-0.416,0 -0.7539,0.1113 -1.0137,0.3359c-0.2598,0.2236 -0.3896,0.5273 -0.3896,0.9111c0,0.3848 0.1299,0.6904 0.3896,0.9189c0.2598,0.2275 0.6055,0.3418 1.0381,0.3418c0.4238,0.0001 0.7695,-0.1181 1.038,-0.3544z"/></g></g></g></g></svg>