<svg version="1.1" xmlns="http://www.w3.org/2000/svg" xmlns:xlink="http://www.w3.org/1999/xlink" width="102.5" height="102.5" viewBox="0,0,102.5,102.5"><defs><linearGradient x1="230.427" y1="171.56456" x2="230.427" y2="187.09518" gradientUnits="userSpaceOnUse" id="color-1"><stop offset="0" stop-color="#c29600"/><stop offset="1" stop-color="#fff300"/></linearGradient><linearGradient x1="249.57308" y1="171.56456" x2="249.57308" y2="187.09518" gradientUnits="userSpaceOnUse" id="color-2"><stop offset="0" stop-color="#c29600"/><stop offset="1" stop-color="#fff300"/></linearGradient><linearGradient x1="240.00005" y1="157.37245" x2="240.00005" y2="172.90308" gradientUnits="userSpaceOnUse" id="color-3"><stop offset="0" stop-color="#c29600"/><stop offset="1" stop-color="#fff300"/></linearGradient><linearGradient x1="240.00003" y1="190.51428" x2="240.00003" y2="202.6276" gradientUnits="userSpaceOnUse" id="color-4"><stop offset="0" stop-color="#c29600"/><stop offset="1" stop-color="#fff300"/></linearGradient><radialGradient cx="240" cy="180" r="51.25" gradientUnits="userSpaceOnUse" id="color-5"><stop offset="0" stop-color="#ffae63" stop-opacity="0.23669"/><stop offset="1" stop-color="#ffae63" stop-opacity="0"/></radialGradient></defs><g transform="translate(-188.75,-128.75)"><g data-paper-data="{&quot;isPaintingLayer&quot;:true}" fill-rule="nonzero" stroke="none" stroke-linecap="butt" stroke-linejoin="miter" stroke-miterlimit="10" stroke-dasharray="" stroke-dashoffset="0" style="mix-blend-mode: normal"><g stroke-width="1"><g fill="url(#color-1)"><path d="M231.28274,172.09652l1.76862,3.5836c0.13901,0.28165 0.40768,0.47687 0.71851,0.52204l3.95474,0.57466c0.78275,0.11374 1.09528,1.07564 0.5289,1.62774l-2.86169,2.78944c-0.22491,0.21924 -0.32755,0.53511 -0.27444,0.84468l0.67557,3.93876c0.1337,0.77957 -0.68454,1.37406 -1.38464,1.006l-3.53723,-1.85963c-0.27802,-0.14616 -0.61014,-0.14616 -0.88815,0l-3.53723,1.85963c-0.70007,0.36806 -1.51834,-0.22643 -1.38461,-1.006l0.67554,-3.93876c0.0531,-0.30957 -0.04953,-0.62544 -0.27444,-0.84468l-2.86169,-2.78944c-0.56638,-0.5521 -0.25385,-1.514 0.5289,-1.62774l3.95474,-0.57466c0.31082,-0.04517 0.5795,-0.24039 0.71851,-0.52204l1.76862,-3.5836c0.35002,-0.70928 1.3614,-0.70928 1.71147,0z"/></g><g fill="url(#color-2)"><path d="M250.42878,172.09652l1.76862,3.5836c0.13901,0.28165 0.40771,0.47687 0.71854,0.52204l3.95474,0.57466c0.78271,0.11374 1.09528,1.07564 0.52887,1.62774l-2.86166,2.78944c-0.22491,0.21924 -0.32755,0.53511 -0.27448,0.84468l0.67557,3.93876c0.1337,0.77957 -0.68454,1.37406 -1.38464,1.006l-3.53723,-1.85963c-0.27802,-0.14616 -0.61014,-0.14616 -0.88812,0l-3.53723,1.85963c-0.7001,0.36806 -1.51834,-0.22643 -1.38464,-1.006l0.67554,-3.93876c0.0531,-0.30957 -0.04953,-0.62544 -0.27444,-0.84468l-2.86166,-2.78944c-0.56641,-0.5521 -0.25385,-1.514 0.52887,-1.62774l3.95474,-0.57466c0.31082,-0.04517 0.57953,-0.24039 0.71854,-0.52204l1.76862,-3.5836c0.35,-0.70928 1.36142,-0.70928 1.71145,0z"/></g></g><path d="M240.8558,157.90441l1.76862,3.5836c0.13901,0.28165 0.40768,0.47687 0.71854,0.52204l3.95471,0.57466c0.78275,0.11374 1.09528,1.07564 0.5289,1.62774l-2.86166,2.78945c-0.22491,0.21924 -0.32758,0.53511 -0.27448,0.84468l0.67557,3.93876c0.1337,0.77957 -0.68454,1.37406 -1.38464,1.006l-3.53723,-1.85963c-0.27802,-0.14616 -0.61014,-0.14616 -0.88815,0l-3.5372,1.85963c-0.7001,0.36806 -1.51837,-0.22643 -1.38464,-1.006l0.67554,-3.93876c0.0531,-0.30957 -0.04953,-0.62544 -0.27444,-0.84468l-2.86166,-2.78945c-0.56641,-0.55209 -0.25388,-1.514 0.52887,-1.62774l3.95474,-0.57466c0.31082,-0.04517 0.57953,-0.24039 0.71854,-0.52204l1.76859,-3.5836c0.35003,-0.70928 1.36144,-0.70928 1.71148,0z" fill="url(#color-3)" stroke-width="1"/><path d="M255.94856,202.6276h-31.89709c-1.24664,0 -2.26663,-1.01999 -2.26663,-2.26663v-7.58006c0,-1.24665 1.01999,-2.26663 2.26663,-2.26663h31.89709c1.24664,0 2.26663,1.01999 2.26663,2.26663v7.58006c0,1.24665 -1.01999,2.26663 -2.26663,2.26663z" fill="url(#color-4)" stroke-width="1"/><path d="M188.75,180c0,-28.3046 22.9454,-51.25 51.25,-51.25c28.3046,0 51.25,22.9454 51.25,51.25c0,28.3046 -22.9454,51.25 -51.25,51.25c-28.3046,0 -51.25,-22.9454 -51.25,-51.25z" fill="url(#color-5)" stroke-width="0"/></g></g></svg>