<svg version="1.1" xmlns="http://www.w3.org/2000/svg" xmlns:xlink="http://www.w3.org/1999/xlink" width="35.245" height="6.262" viewBox="0,0,35.245,6.262"><g transform="translate(-222.378,-176.583)"><g data-paper-data="{&quot;isPaintingLayer&quot;:true}" fill="#000000" fill-rule="nonzero" stroke="none" stroke-width="1" stroke-linecap="butt" stroke-linejoin="miter" stroke-miterlimit="10" stroke-dasharray="" stroke-dashoffset="0" style="mix-blend-mode: normal"><g><path/><path d="M227.479,176.583l1.391,1.342l-1.391,1.341l-0.927,-0.894h-1.855l-0.464,0.447v1.789l0.464,0.448h1.855l0.927,-0.895l1.391,1.342l-1.391,1.342h-3.71l-1.391,-1.342v-3.578l1.391,-1.342z"/><path d="M229.798,176.583h1.855v4.473h3.71v1.789h-5.565z"/><path d="M237.682,176.583h3.71l1.391,1.342v4.92h-1.854v-1.342h-2.783v1.342h-1.855v-4.92zM240.464,178.372h-1.855l-0.464,0.447v0.895h2.783v-0.895z"/><path d="M243.71,181.503v-4.92h1.854v4.025l0.464,0.448h1.855l0.464,-0.448v-4.025h1.854v4.92l-1.391,1.342h-3.71z"/><path d="M251.13,177.925l1.392,-1.342h5.101v1.789h-4.174l-0.231,0.224l0.231,0.223h2.783l1.391,1.342v1.342l-1.391,1.342h-5.102v-1.789h4.174l0.231,-0.224l-0.231,-0.224h-2.782l-1.392,-1.342z"/><path/></g></g></g></svg>