<svg version="1.1" xmlns="http://www.w3.org/2000/svg" xmlns:xlink="http://www.w3.org/1999/xlink" width="9.8" height="4.9"><g transform="translate(-235.2,-177.5)"><g data-paper-data="{&quot;isPaintingLayer&quot;:true}" fill="none" fill-rule="nonzero" stroke="none" stroke-width="1" stroke-linecap="butt" stroke-linejoin="miter" stroke-miterlimit="10" stroke-dasharray="" stroke-dashoffset="0" font-family="none" font-weight="none" font-size="none" text-anchor="none" style="mix-blend-mode: normal"><g data-paper-data="{&quot;origPos&quot;:null}" id="XMLID_5_"><g id="XMLID_6_"><path d="M237.2,180.5v1.7h-1.7v-4.4h4.3v2.7zM237.2,178.8v0.7h0.8v-0.7z" id="XMLID_10_" fill="#ffffff"/><path d="M237.2,182.4h-1.7l-0.3,-0.3v-4.3l0.3,-0.3h4.3l0.2,0.3v2.7l-0.2,0.3h-2.4v1.4zM235.7,181.9h1.2v-1.4l0.3,-0.3h2.4v-2.1h-3.8v3.8zM238,179.7h-0.8l-0.3,-0.2v-0.7l0.3,-0.3h0.8l0.3,0.3v0.7z" id="XMLID_32_" fill="#000000"/></g><g id="XMLID_9_"><path d="M240.2,180.5v-2.7h1.8v1.7h0.9v-1.7h1.7v4.4h-1.8v-1.7z" id="XMLID_2_" fill="#ffffff"/><path d="M244.6,182.4h-1.8l-0.2,-0.2v-1.4h-2.4l-0.2,-0.3v-2.7l0.3,-0.3h1.7l0.3,0.3v1.4h0.4v-1.4l0.3,-0.3h1.7l0.3,0.3v4.4zM243.1,181.9h1.2v-3.8h-1.2v1.4l-0.3,0.2h-0.8l-0.3,-0.2v-1.4h-1.2v2.2h2.4l0.3,0.3v1.3z" id="XMLID_27_" fill="#000000"/></g></g></g></g></svg>