<svg version="1.1" xmlns="http://www.w3.org/2000/svg" xmlns:xlink="http://www.w3.org/1999/xlink" width="35.707" height="6.262" viewBox="0,0,35.707,6.262"><g transform="translate(-222.378,-176.583)"><g data-paper-data="{&quot;isPaintingLayer&quot;:true}" fill="#000000" fill-rule="nonzero" stroke="none" stroke-width="1" stroke-linecap="butt" stroke-linejoin="miter" stroke-miterlimit="10" stroke-dasharray="" stroke-dashoffset="0" style="mix-blend-mode: normal"><g><path/><path d="M227.479,176.583l1.391,1.342l-1.391,1.341l-0.927,-0.894h-1.855l-0.464,0.447v1.789l0.464,0.448h1.855l0.927,-0.895l1.391,1.342l-1.391,1.342h-3.71l-1.391,-1.342v-3.578l1.391,-1.342z"/><path d="M229.798,179.713v-3.13h1.855v2.236l0.464,0.447h1.855l0.463,-0.447v-2.236h1.855v3.13l-1.391,1.342h-0.927v1.789h-1.855v-1.788h-0.928z"/><path d="M243.71,177.925v1.341l-0.464,0.447l0.464,0.447v1.342l-1.391,1.342h-5.101v-6.261h5.101zM241.392,178.372h-2.318v0.447h2.318l0.231,-0.223zM239.073,180.608v0.448h2.318l0.231,-0.224l-0.231,-0.224z"/><path d="M246.492,181.056h3.71v1.789h-5.564v-6.262h5.564v1.789h-3.71v0.447h3.71v1.789h-3.71z"/><path d="M257.622,177.925v1.789l-1.391,1.342l1.854,1.789h-2.782l-1.855,-1.789h-0.464v1.789h-1.854v-6.262h5.102zM255.768,178.819l-0.464,-0.447h-2.319v0.894h2.319z"/><path/></g></g></g></svg>