<svg version="1.1" xmlns="http://www.w3.org/2000/svg" xmlns:xlink="http://www.w3.org/1999/xlink" width="45.1" height="6.5" viewBox="0,0,45.1,6.5"><g transform="translate(-217.45,-176.85)"><g data-paper-data="{&quot;isPaintingLayer&quot;:true}" fill="#000000" fill-rule="nonzero" stroke="none" stroke-width="1" stroke-linecap="butt" stroke-linejoin="miter" stroke-miterlimit="10" stroke-dasharray="" stroke-dashoffset="0" style="mix-blend-mode: normal"><g><path d="M223.85,178.25v1.4l-0.5,0.4l0.5,0.5v1.4l-1.4,1.4h-5v-6.5h5zM221.55,178.75h-2.2v0.5h2.3l0.2,-0.2zM219.35,181.05v0.5h2.3l0.2,-0.2l-0.3,-0.3z"/><path d="M226.05,176.85h3.6l1.4,1.4v5.1h-1.8v-1.4h-2.7v1.4h-1.8v-5.1zM228.85,178.75h-1.9l-0.4,0.4v0.9h2.7v-0.9z"/><path d="M231.95,178.25l1.4,-1.4h5v1.9h-4.1l-0.2,0.2l0.2,0.2h2.7l1.4,1.4v1.4l-1.4,1.4h-5v-1.9h4.1l0.2,-0.2l-0.2,-0.2h-2.7l-1.4,-1.4z"/><path d="M243.05,178.75v4.6h-1.8v-4.6h-2.3v-1.9h6.3v1.9z"/><path d="M248.05,183.35h-1.8v-6.5h1.8z"/><path d="M248.95,181.95v-3.7l1.4,-1.4h3.6l1.4,1.4v3.7l-1.4,1.4h-3.6zM250.75,179.15v1.9l0.5,0.5h1.8l0.5,-0.5v-1.9l-0.5,-0.4h-1.8z"/><path d="M257.95,180.05v3.2h-1.8v-6.4h1.4l3.2,3.2v-3.2h1.8v6.5h-1.4z"/></g></g></g></svg>