<svg version="1.1" xmlns="http://www.w3.org/2000/svg" xmlns:xlink="http://www.w3.org/1999/xlink" width="36.55249" height="27.83268" viewBox="0,0,36.55249,27.83268"><g transform="translate(-221.23932,-166.70846)"><g data-paper-data="{&quot;isPaintingLayer&quot;:true}" fill="#ffffff" fill-rule="nonzero" stroke="none" stroke-width="1" stroke-linecap="butt" stroke-linejoin="miter" stroke-miterlimit="10" stroke-dasharray="" stroke-dashoffset="0" style="mix-blend-mode: normal"><path d="M226.58734,183.3894c0.06793,1.19885 -0.12555,2.18482 -0.43225,2.20215c-0.3067,0.0174 -0.61035,-0.94031 -0.67834,-2.13916c-0.06793,-1.19885 0.12555,-2.18475 0.43225,-2.20215c0.30664,-0.01739 0.61035,0.94037 0.67834,2.13916zM223.90771,179.02521c0.04993,0.30396 -0.50623,0.64838 -1.24225,0.76929c-0.73596,0.12091 -1.37311,-0.02746 -1.42303,-0.33142c-0.04992,-0.30396 0.50623,-0.64838 1.24219,-0.76929c0.73602,-0.12091 1.37316,0.02746 1.42309,0.33142zM224.40363,174.34937c-0.06793,-1.19879 0.12555,-2.18475 0.43225,-2.20215c0.30664,-0.0174 0.61035,0.94037 0.67834,2.13922c0.06793,1.19879 -0.12555,2.18475 -0.43225,2.20215c-0.3067,0.01739 -0.61035,-0.94037 -0.67834,-2.13922zM238.13068,169.17236c0.75171,-0.0426 1.64649,0.13526 2.5412,0.45685c-1.30201,0.35102 -2.5351,0.85956 -3.59827,1.54346c-1.22522,0.78778 -2.31238,1.90912 -3.29614,3.39282c-0.05677,-0.37781 -0.09564,-0.74561 -0.11481,-1.08374c-0.12659,-2.23291 1.87378,-4.16229 4.46802,-4.30939zM232.27135,170.75183c-0.05102,0.01825 -0.10522,0.03662 -0.1524,0.04999c-0.0108,0.00756 -0.02161,0.01513 -0.03241,0.02264c-0.04236,0.04407 -0.08386,0.08887 -0.12274,0.13605c-0.03375,0.03968 -0.05499,0.06262 -0.07422,0.08301c-0.00433,0.00849 -0.00464,0.01044 -0.00995,0.02051c-0.06842,0.12957 -0.14526,0.25421 -0.2113,0.38531c-0.1383,0.27435 -0.25958,0.55737 -0.37329,0.84265c-0.02399,0.05981 -0.04639,0.1203 -0.06946,0.18048c-0.00409,0.01263 -0.00653,0.02062 -0.01288,0.03979c-0.04151,0.16303 -0.09864,0.32245 -0.1402,0.48584c-0.08246,0.3244 -0.20422,0.73651 -0.18573,1.07654c-0.02631,-0.48455 -0.00031,0.03785 -0.00531,0.13007c-0.00903,0.16822 -0.01593,0.33637 -0.02496,0.50452c-0.04388,0.81225 -0.07544,1.64679 -0.32568,2.427c-0.25653,0.79987 -0.62818,1.57514 -1.22571,2.18152c-0.72003,0.73059 -1.52167,1.08276 -2.52063,1.26605c-1.11474,0.20459 -2.03448,-0.92627 -2.13408,-1.90509c-0.05102,-0.50183 0.18018,-1.09149 0.51056,-1.46161c0.32122,-0.35986 0.69043,-0.51208 1.11877,-0.61224c0.00586,-0.00452 0.00849,-0.00623 0.01398,-0.0105c-0.02508,0.00238 -0.01538,-0.00403 0.02393,-0.01782c0.01282,-0.00959 0.02545,-0.01905 0.03601,-0.02686c0.02899,-0.03125 0.05829,-0.06226 0.08569,-0.09491c0.04351,-0.09497 0.13165,-0.22797 0.15942,-0.28699c0.01483,-0.03161 0.02698,-0.06427 0.04083,-0.09631c0.00488,-0.0166 0.00696,-0.0246 0.01355,-0.04651c0.02411,-0.15356 0.07007,-0.30493 0.09558,-0.45892c0.0083,-0.04986 0.03766,-0.27649 0.05493,-0.40057c0.00952,-0.13166 0.01538,-0.26416 0.02203,-0.39539c0.04614,-0.90692 0.07654,-1.82495 0.31189,-2.7066c0.21741,-0.81457 0.52234,-1.63165 0.89514,-2.38922c0.78528,-1.59614 2.22559,-2.9336 4.09362,-2.96509c1.7193,-0.02905 3.29804,0.83521 4.31824,2.19318c-1.54339,0.24408 -2.70654,1.40595 -2.82336,2.81348c-0.16834,-0.12842 -0.32331,-0.27448 -0.4455,-0.44733c-0.02435,-0.03601 -0.05163,-0.06989 -0.07751,-0.10474c-0.00025,-0.00031 -0.00025,-0.00031 -0.00049,-0.00055c-0.02606,-0.02124 -0.12854,-0.11999 -0.2066,-0.18896c-0.03375,-0.02027 -0.06701,-0.0412 -0.10168,-0.05988c-0.01069,-0.00586 -0.16071,-0.07361 -0.26154,-0.12103c-0.04962,-0.0127 -0.09931,-0.02484 -0.14966,-0.03406c-0.02075,-0.00403 -0.02649,-0.00653 -0.04266,-0.01007c-0.02142,0.00085 -0.04278,0.00171 -0.06422,0.00262zM226.30994,176.59809c-0.00012,0.00006 -0.00025,0.00018 -0.00043,0.00018c0.00006,0 0.00024,0 0.00024,0c0.00006,0 0.00013,-0.00019 0.00019,-0.00018zM226.55553,176.54455c-0.09527,0.02039 -0.15832,0.03284 -0.20544,0.0412c-0.00274,0.00208 -0.00464,0.00324 -0.00726,0.00525c0.07062,-0.0155 0.13862,-0.03283 0.2127,-0.04645zM253.28118,183.00464c-0.0224,1.34515 -1.03057,2.52008 -2.42773,2.62811c-1.38104,0.1131 -2.61553,-0.9823 -2.61053,-2.53192c0.00537,-1.55152 1.29279,-2.7699 2.70447,-2.69324c1.42236,0.07379 2.36853,1.2555 2.33379,2.59705zM254.39801,190.52977c-2.16186,2.36847 -5.29931,3.79419 -8.77905,3.99146c-3.4798,0.19727 -6.56531,-1.08581 -8.98096,-3.19476c-2.43902,-2.12927 -4.16882,-5.02124 -4.36511,-8.48303c-0.14355,-2.53247 0.57795,-4.84284 1.82697,-6.83881c-0.02887,-0.09668 -0.06219,-0.19146 -0.08795,-0.28906c1.03687,-1.74536 2.18702,-3.01831 3.49921,-3.86255c1.06012,-0.68194 2.29931,-1.1864 3.61212,-1.51251c0.97272,-0.32245 1.99976,-0.53961 3.09082,-0.60144c3.47979,-0.19726 6.65228,0.9787 9.06799,3.08765c2.43896,2.12928 4.2951,5.10926 4.49133,8.57111c0.19629,3.46185 -1.19263,6.74066 -3.37537,9.13194zM246.83265,175.08704c-4.75702,-0.71563 -9.17493,1.80835 -8.35297,6.95679c-0.08399,2.97284 0.58349,4.66339 3.06091,5.38025c0.1687,0.88116 0.38837,1.61657 0.65906,2.11816c3.08831,-0.07947 6.17669,-0.159 9.26501,-0.23853c0.26111,-0.47626 0.47296,-1.18378 0.63568,-2.03534c2.48047,-0.77814 3.16632,-2.42218 3.08331,-5.21222c0.80585,-4.81799 -3.60534,-7.41076 -8.351,-6.96911zM246.80542,182.36407c-0.00103,-0.0238 1.22388,1.81946 1.16193,3.70081c-0.76764,0.02021 -1.54675,0.02741 -2.31372,0.02155c-0.07251,-1.89734 1.15283,-3.74897 1.15179,-3.72236zM245.36797,183.10638c0.00653,1.55603 -1.22314,2.68054 -2.5968,2.59619c-1.39453,-0.07952 -2.39752,-1.27429 -2.42059,-2.67126c-0.03558,-1.39344 0.90277,-2.6045 2.32172,-2.66138c1.40351,-0.05938 2.68866,1.17853 2.69567,2.73645z"/></g></g></svg>