<svg version="1.1" xmlns="http://www.w3.org/2000/svg" xmlns:xlink="http://www.w3.org/1999/xlink" width="34.3" height="6.4" viewBox="0,0,34.3,6.4"><g transform="translate(-222.85,-176.8)"><g data-paper-data="{&quot;isPaintingLayer&quot;:true}" fill="#000000" fill-rule="nonzero" stroke="none" stroke-width="1" stroke-linecap="butt" stroke-linejoin="miter" stroke-miterlimit="10" stroke-dasharray="" stroke-dashoffset="0" style="mix-blend-mode: normal"><path d="M222.85,178.2l1.4,-1.4h5v1.8h-4.1l-0.2,0.2l0.2,0.2h2.7l1.4,1.4v1.4l-1.4,1.4h-5v-1.8h4.1l0.2,-0.2l-0.2,-0.2h-2.7l-1.4,-1.4z"/><path d="M231.95,180.9v2.3h-1.8v-6.3h1.8v2.3h2.7v-2.3h1.8v6.3h-1.8v-2.3z"/><path d="M238.65,176.8h3.6l1.4,1.4v5h-1.8v-1.4h-2.7v1.4h-1.8v-5zM241.45,178.6h-1.8l-0.5,0.5v0.9h2.7v-0.9z"/><path d="M249.95,176.8v1.8h-3.6v0.5h3.6v1.8h-3.6v2.3h-1.8v-6.3h5.4z"/><path d="M254.95,178.6v4.5h-1.8v-4.5h-2.3v-1.8h6.3v1.8z"/></g></g></svg>