<svg version="1.1" xmlns="http://www.w3.org/2000/svg" xmlns:xlink="http://www.w3.org/1999/xlink" width="113.2" height="38.8" viewBox="0,0,113.2,38.8"><g transform="translate(-183.4,-160.6)"><g data-paper-data="{&quot;isPaintingLayer&quot;:true}" fill-rule="nonzero" stroke="none" stroke-linecap="butt" stroke-linejoin="miter" stroke-miterlimit="10" stroke-dasharray="" stroke-dashoffset="0" style="mix-blend-mode: normal"><g fill="#ffffff" stroke-width="1"><path d="M216.07446,178.47168v-3.71094l1.3916,-1.3916h3.71094l1.3916,1.3916l-0.92773,0.92773h0.92773v4.1748h-5.10254zM217.92994,175.68849v1.85547l0.46387,0.46387h2.31934v-0.46387h-1.85548v-1.85547h1.85547l-0.46387,-0.46387h-1.85547z"/><path d="M223.49635,178.47168v-5.10254h1.85547v4.1748l0.46387,0.46387h1.85547l0.46387,-0.46387v-4.1748h1.85547v5.10254l-1.3916,1.3916h-3.71094z"/><path d="M232.77369,176.61622v3.24707h-1.85547v-6.49414h1.3916l3.24707,3.24707v-3.24707h1.85547v6.49414h-1.3916z"/><path d="M240.69655,178.47168v-3.71094l1.3916,-1.3916h3.71094l1.3916,1.3916l-0.92773,0.92773h0.92773v4.1748h-5.10254zM242.552,175.68849v1.85547l0.46387,0.46387h2.31934v-0.46387h-1.85547v-1.85547h1.85547l-0.46387,-0.46387h-1.85547z"/><path d="M249.97389,179.86329h-1.85547v-6.49414h1.85547z"/><path d="M256.46803,173.36914v1.85547h-3.71094v0.46387h3.71094v1.85547h-3.71094v2.31934h-1.85547v-6.49414h5.56641z"/><path d="M261.57155,175.22462v4.63867h-1.85547v-4.63867h-2.32031v-1.85547h6.49414v1.85547z"/></g><g fill="#ffffff" stroke-width="1"><path d="M204.63257,185.95215l-0.55957,-0.78711c-0.06299,0.00684 -0.12842,0.00977 -0.19629,0.00977h-0.65771v0.77734h-0.25928v-2.4502h0.91699c0.3125,0 0.55762,0.0752 0.73486,0.22461c0.17773,0.14941 0.26611,0.35449 0.26611,0.61523c0,0.19141 -0.04834,0.35352 -0.14502,0.48535c-0.09717,0.13184 -0.23535,0.22656 -0.41504,0.28516l0.59863,0.83984h-0.28368zM204.42653,184.79394c0.12793,-0.10742 0.19238,-0.25781 0.19238,-0.45215c0,-0.19824 -0.06445,-0.35059 -0.19238,-0.45605c-0.12842,-0.10645 -0.31396,-0.15918 -0.55664,-0.15918h-0.65088v1.22852h0.65088c0.24267,0 0.42822,-0.05371 0.55664,-0.16114z"/><path d="M207.02663,185.29786h-1.36523l-0.29395,0.6543h-0.26953l1.12012,-2.4502h0.25537l1.12012,2.4502h-0.27295zM206.9319,185.08789l-0.58789,-1.31641l-0.58789,1.31641z"/><path d="M210.04713,183.50195v2.4502h-0.21338l-1.57471,-1.98828v1.98828h-0.25928v-2.4502h0.21338l1.57861,1.98828v-1.98828z"/><path d="M210.84497,183.50195h0.99756c0.25879,0 0.48779,0.05176 0.68604,0.15625c0.19824,0.10352 0.35205,0.24805 0.46191,0.43359c0.10986,0.18554 0.16455,0.39746 0.16455,0.63574c0,0.2373 -0.05469,0.44922 -0.16455,0.63477c-0.10986,0.18555 -0.26367,0.33008 -0.46191,0.43457c-0.19824,0.10352 -0.42725,0.15527 -0.68604,0.15527h-0.99756zM211.82838,185.72852c0.21484,0 0.40283,-0.04297 0.56348,-0.12793c0.16113,-0.08496 0.28613,-0.20312 0.37451,-0.35352c0.08887,-0.15039 0.1333,-0.32422 0.1333,-0.51953c0,-0.19629 -0.04443,-0.37012 -0.1333,-0.52051c-0.08838,-0.15039 -0.21338,-0.26758 -0.37451,-0.35352c-0.16064,-0.08496 -0.34863,-0.12695 -0.56348,-0.12695h-0.72412v2.00195h0.72412z"/><path d="M214.14723,185.81056c-0.19678,-0.1084 -0.35107,-0.25781 -0.46191,-0.44629c-0.11084,-0.18945 -0.16602,-0.40137 -0.16602,-0.63672c0,-0.23633 0.05518,-0.44824 0.16602,-0.6377c0.11084,-0.18848 0.26514,-0.33789 0.46191,-0.44629c0.19727,-0.1084 0.41748,-0.16211 0.66016,-0.16211c0.24268,0 0.46143,0.05371 0.65625,0.16113c0.19482,0.10645 0.34814,0.25586 0.45996,0.44629c0.1123,0.18945 0.16797,0.40234 0.16797,0.63867c0,0.23535 -0.05566,0.44824 -0.16797,0.63867c-0.11182,0.18945 -0.26514,0.33887 -0.45996,0.44629c-0.19482,0.10742 -0.41357,0.16113 -0.65625,0.16113c-0.24268,0 -0.46289,-0.05468 -0.66016,-0.16307zM215.33229,185.61134c0.15625,-0.08789 0.27881,-0.20898 0.36719,-0.36426c0.08887,-0.15527 0.1333,-0.32812 0.1333,-0.51953c0,-0.19141 -0.04443,-0.36523 -0.1333,-0.52051c-0.08838,-0.1543 -0.21094,-0.27637 -0.36719,-0.36328c-0.15625,-0.08789 -0.33154,-0.13184 -0.5249,-0.13184c-0.19385,0 -0.36963,0.04395 -0.52686,0.13184c-0.15771,0.08691 -0.28125,0.20898 -0.37109,0.36328c-0.08984,0.15527 -0.13477,0.3291 -0.13477,0.52051c0,0.19141 0.04492,0.36426 0.13477,0.51953c0.08985,0.15527 0.21338,0.27637 0.37109,0.36426c0.15723,0.08691 0.33301,0.13086 0.52686,0.13086c0.19336,0 0.36865,-0.04395 0.5249,-0.13086z"/><path d="M219.21706,183.50195v2.4502h-0.24854v-1.95996l-0.9624,1.64844h-0.12256l-0.9624,-1.6377v1.94922h-0.24854v-2.4502h0.21338l1.06396,1.81641l1.05371,-1.81641z"/><path d="M222.65747,184.72755h0.24854v0.93457c-0.11426,0.09961 -0.24951,0.17676 -0.40625,0.23047c-0.15625,0.05371 -0.3208,0.08105 -0.49316,0.08105c-0.24512,0 -0.46582,-0.05371 -0.66162,-0.16113c-0.1958,-0.10742 -0.3501,-0.25684 -0.46191,-0.44629c-0.1123,-0.19043 -0.16797,-0.40332 -0.16797,-0.63867c0,-0.23633 0.05566,-0.44922 0.16797,-0.63867c0.11182,-0.19043 0.26611,-0.33984 0.46191,-0.44629c0.1958,-0.10742 0.41748,-0.16113 0.66504,-0.16113c0.18652,0 0.35791,0.0293 0.51465,0.08887c0.15625,0.05957 0.28809,0.14746 0.39551,0.26465l-0.16113,0.16406c-0.19385,-0.19141 -0.43994,-0.28711 -0.73877,-0.28711c-0.19824,0 -0.37744,0.04395 -0.53711,0.13184c-0.15967,0.08691 -0.28516,0.20898 -0.37598,0.36328c-0.09131,0.15527 -0.13672,0.3291 -0.13672,0.52051c0,0.19141 0.04541,0.36328 0.13672,0.51758c0.09082,0.1543 0.21582,0.27539 0.37451,0.36426c0.1582,0.08887 0.33691,0.13281 0.53516,0.13281c0.25195,0 0.46582,-0.06348 0.64062,-0.18945v-0.82521z"/><path d="M223.88257,185.70019c-0.17725,-0.18164 -0.26611,-0.44727 -0.26611,-0.79492v-1.40332h0.25928v1.39355c0,0.28418 0.06396,0.49707 0.19238,0.63672c0.12842,0.13965 0.31348,0.20996 0.55664,0.20996c0.24463,0 0.43164,-0.07031 0.55957,-0.20996c0.12842,-0.13965 0.19287,-0.35254 0.19287,-0.63672v-1.39355h0.25195v1.40332c0,0.34766 -0.08838,0.61328 -0.26416,0.79492c-0.17627,0.18164 -0.42334,0.27344 -0.74023,0.27344c-0.31738,0 -0.56494,-0.0918 -0.74219,-0.27344z"/><path d="M228.4568,183.50195v2.4502h-0.21338l-1.57471,-1.98828v1.98828h-0.25928v-2.4502h0.21338l1.57861,1.98828v-1.98828z"/><path d="M231.90406,185.72852v0.22363h-1.73242v-2.4502h1.68018v0.22461h-1.4209v0.87109h1.2666v0.2207h-1.2666v0.91016h1.47314z"/><path d="M234.51538,183.50195l-1.08496,2.4502h-0.25537l-1.08496,-2.4502h0.27979l0.93799,2.12793l0.94482,-2.12793z"/><path d="M236.60132,185.72852v0.22363h-1.73242v-2.4502h1.68018v0.22461h-1.4209v0.87109h1.2666v0.2207h-1.2666v0.91016h1.47314z"/><path d="M238.88307,185.95215l-0.55957,-0.78711c-0.06299,0.00684 -0.12842,0.00977 -0.19629,0.00977h-0.65771v0.77734h-0.25928v-2.4502h0.91699c0.3125,0 0.55762,0.0752 0.73486,0.22461c0.17773,0.14941 0.26611,0.35449 0.26611,0.61523c0,0.19141 -0.04834,0.35352 -0.14502,0.48535c-0.09717,0.13184 -0.23535,0.22656 -0.41504,0.28516l0.59863,0.83984h-0.28368zM238.67702,184.79394c0.12793,-0.10742 0.19238,-0.25781 0.19238,-0.45215c0,-0.19824 -0.06445,-0.35059 -0.19238,-0.45605c-0.12842,-0.10645 -0.31396,-0.15918 -0.55664,-0.15918h-0.65088v1.22852h0.65088c0.24267,0 0.42822,-0.05371 0.55664,-0.16114z"/><path d="M240.54567,185.10548v0.84668h-0.25537v-0.84668l-0.97998,-1.60352h0.27636l0.84033,1.37598l0.83984,-1.37598h0.25977z"/><path d="M244.51881,185.95215l-0.55957,-0.78711c-0.06348,0.00684 -0.12891,0.00977 -0.19629,0.00977h-0.6582v0.77734h-0.25879v-2.4502h0.91699c0.3125,0 0.55762,0.0752 0.73438,0.22461c0.17773,0.14941 0.2666,0.35449 0.2666,0.61523c0,0.19141 -0.04883,0.35352 -0.14551,0.48535c-0.09668,0.13183 -0.23535,0.22656 -0.41504,0.28516l0.59863,0.83984h-0.2832zM244.31276,184.79394c0.12793,-0.10742 0.19238,-0.25781 0.19238,-0.45215c0,-0.19824 -0.06445,-0.35059 -0.19238,-0.45605c-0.12891,-0.10645 -0.31445,-0.15918 -0.55664,-0.15918h-0.65137v1.22852h0.65137c0.24218,0 0.42773,-0.05371 0.55664,-0.16114z"/><path d="M245.78737,185.81056c-0.19727,-0.1084 -0.35156,-0.25781 -0.46191,-0.44629c-0.11133,-0.18945 -0.16602,-0.40137 -0.16602,-0.63672c0,-0.23633 0.05469,-0.44824 0.16602,-0.6377c0.11035,-0.18848 0.26465,-0.33789 0.46191,-0.44629c0.19726,-0.1084 0.41797,-0.16211 0.66016,-0.16211c0.24219,0 0.46094,0.05371 0.65625,0.16113c0.19531,0.10645 0.34766,0.25586 0.46094,0.44629c0.11133,0.18945 0.16797,0.40234 0.16797,0.63867c0,0.23535 -0.05664,0.44824 -0.16797,0.63867c-0.11328,0.18945 -0.26562,0.33887 -0.46094,0.44629c-0.19532,0.10742 -0.41406,0.16113 -0.65625,0.16113c-0.24219,0 -0.4629,-0.05468 -0.66016,-0.16307zM246.97291,185.61134c0.15625,-0.08789 0.27734,-0.20898 0.36719,-0.36426c0.08789,-0.15527 0.13281,-0.32812 0.13281,-0.51953c0,-0.19141 -0.04492,-0.36523 -0.13281,-0.52051c-0.08984,-0.1543 -0.21094,-0.27637 -0.36719,-0.36328c-0.15625,-0.08789 -0.33203,-0.13184 -0.52539,-0.13184c-0.19336,0 -0.36914,0.04395 -0.52734,0.13184c-0.15723,0.08691 -0.28125,0.20898 -0.37109,0.36328c-0.08984,0.15527 -0.13477,0.3291 -0.13477,0.52051c0,0.19141 0.04492,0.36426 0.13477,0.51953c0.08985,0.15527 0.21387,0.27637 0.37109,0.36426c0.1582,0.08691 0.33398,0.13086 0.52734,0.13086c0.19336,0 0.36914,-0.04395 0.52539,-0.13086z"/><path d="M248.5569,185.70019c-0.17676,-0.18164 -0.26562,-0.44727 -0.26562,-0.79492v-1.40332h0.25879v1.39355c0,0.28418 0.06445,0.49707 0.19238,0.63672c0.12891,0.13965 0.31445,0.20996 0.55664,0.20996c0.24512,0 0.43164,-0.07031 0.56055,-0.20996c0.12793,-0.13965 0.19238,-0.35254 0.19238,-0.63672v-1.39355h0.25195v1.40332c0,0.34766 -0.08789,0.61328 -0.26465,0.79492c-0.17578,0.18164 -0.42285,0.27344 -0.74023,0.27344c-0.31738,0 -0.56446,-0.0918 -0.74219,-0.27344z"/><path d="M253.13209,183.50195v2.4502h-0.21289l-1.5752,-1.98828v1.98828h-0.25879v-2.4502h0.21289l1.5791,1.98828v-1.98828z"/><path d="M253.93092,183.50195h0.99707c0.25879,0 0.4873,0.05176 0.68555,0.15625c0.19922,0.10352 0.35254,0.24805 0.46289,0.43359c0.10938,0.18555 0.16406,0.39746 0.16406,0.63574c0,0.2373 -0.05469,0.44922 -0.16406,0.63477c-0.11035,0.18555 -0.26367,0.33008 -0.46289,0.43457c-0.19824,0.10352 -0.42676,0.15527 -0.68555,0.15527h-0.99707zM254.91432,185.72852c0.21387,0 0.40234,-0.04297 0.56348,-0.12793c0.16114,-0.08496 0.28516,-0.20312 0.37402,-0.35352c0.08886,-0.1504 0.13281,-0.32422 0.13281,-0.51953c0,-0.19629 -0.04395,-0.37012 -0.13281,-0.52051c-0.08886,-0.15039 -0.21289,-0.26758 -0.37402,-0.35352c-0.16113,-0.08496 -0.34961,-0.12695 -0.56348,-0.12695h-0.72461v2.00195h0.72461z"/><path d="M257.80787,185.89063c-0.06934,-0.27832 -0.10449,-0.57812 -0.10449,-0.89746c0,-0.31934 0.03516,-0.62012 0.10449,-0.90137c0.07031,-0.28125 0.1709,-0.52637 0.30078,-0.73633h0.23828c-0.1377,0.23535 -0.23828,0.48828 -0.30273,0.75879c-0.06445,0.27148 -0.0957,0.56348 -0.0957,0.87891c0,0.31543 0.03125,0.60742 0.0957,0.87891c0.06445,0.27051 0.16504,0.52344 0.30273,0.75879h-0.23828c-0.12989,-0.21485 -0.23047,-0.46094 -0.30078,-0.74024z"/><path d="M259.04125,185.88575c-0.16602,-0.05859 -0.29492,-0.13574 -0.38672,-0.23145l0.10156,-0.19922c0.08887,0.08887 0.20703,0.16016 0.35352,0.21484c0.14746,0.05566 0.29883,0.08301 0.45508,0.08301c0.21973,0 0.38379,-0.04102 0.49414,-0.12109c0.10938,-0.08008 0.16406,-0.18457 0.16406,-0.31348c0,-0.09766 -0.0293,-0.17578 -0.08887,-0.23438c-0.05957,-0.0586 -0.13281,-0.10352 -0.21875,-0.13477c-0.08691,-0.03125 -0.20703,-0.06543 -0.36035,-0.10352c-0.18457,-0.0459 -0.33203,-0.09082 -0.44141,-0.13477c-0.10938,-0.04297 -0.2041,-0.1084 -0.28223,-0.19727c-0.07813,-0.08887 -0.11719,-0.20898 -0.11719,-0.36035c0,-0.12402 0.0332,-0.23633 0.09863,-0.33789c0.06543,-0.10156 0.16504,-0.18262 0.30078,-0.24316c0.13477,-0.06055 0.30371,-0.09082 0.50391,-0.09082c0.13965,0 0.27734,0.01855 0.41113,0.05762c0.13477,0.03809 0.25,0.0918 0.34863,0.15918l-0.08789,0.20605c-0.10254,-0.06738 -0.21191,-0.11816 -0.3291,-0.15234c-0.11621,-0.0332 -0.23047,-0.05078 -0.34277,-0.05078c-0.21484,0 -0.37598,0.04199 -0.48438,0.125c-0.1084,0.08301 -0.16309,0.18945 -0.16309,0.32031c0,0.09766 0.0293,0.17676 0.08887,0.23633c0.05957,0.05957 0.13477,0.10449 0.22461,0.13574c0.08984,0.03223 0.20996,0.06641 0.3623,0.10352c0.17969,0.04395 0.32422,0.08789 0.43555,0.13086c0.11035,0.04395 0.20508,0.10938 0.28125,0.19629c0.07715,0.08789 0.11621,0.20605 0.11621,0.35547c0,0.12402 -0.0332,0.23633 -0.09961,0.33789c-0.06738,0.10156 -0.16895,0.18164 -0.30664,0.24121c-0.13769,0.05957 -0.30664,0.08984 -0.50781,0.08984c-0.18162,0.00002 -0.35642,-0.02928 -0.52342,-0.08787z"/><path d="M261.28639,185.70019c-0.17676,-0.18164 -0.26562,-0.44727 -0.26562,-0.79492v-1.40332h0.25879v1.39355c0,0.28418 0.06445,0.49707 0.19238,0.63672c0.12891,0.13965 0.31445,0.20996 0.55664,0.20996c0.24512,0 0.43164,-0.07031 0.56055,-0.20996c0.12793,-0.13965 0.19238,-0.35254 0.19238,-0.63672v-1.39355h0.25195v1.40332c0,0.34766 -0.08789,0.61328 -0.26465,0.79492c-0.17578,0.18164 -0.42285,0.27344 -0.74023,0.27344c-0.31738,0 -0.56445,-0.0918 -0.74219,-0.27344z"/><path d="M265.48756,185.95215l-0.56055,-0.78711c-0.0625,0.00684 -0.12793,0.00977 -0.19531,0.00977h-0.6582v0.77734h-0.25879v-2.4502h0.91699c0.3125,0 0.55762,0.0752 0.73438,0.22461c0.17773,0.14941 0.2666,0.35449 0.2666,0.61523c0,0.19141 -0.04883,0.35352 -0.14551,0.48535c-0.09668,0.13183 -0.23535,0.22656 -0.41504,0.28516l0.59863,0.83984h-0.2832zM265.28053,184.79394c0.12891,-0.10742 0.19238,-0.25781 0.19238,-0.45215c0,-0.19824 -0.06348,-0.35059 -0.19238,-0.45605c-0.12793,-0.10645 -0.31348,-0.15918 -0.55664,-0.15918h-0.65039v1.22852h0.65039c0.24317,0 0.42871,-0.05371 0.55664,-0.16114z"/><path d="M268.38111,183.50195l-1.08496,2.4502h-0.25488l-1.08496,-2.4502h0.2793l0.93848,2.12793l0.94531,-2.12793z"/><path d="M268.7356,183.50195h0.25879v2.4502h-0.25879z"/><path d="M271.80006,183.50195l-1.08496,2.4502h-0.25488l-1.08496,-2.4502h0.2793l0.93848,2.12793l0.94531,-2.12793z"/><path d="M273.61744,185.29786h-1.36523l-0.29395,0.6543h-0.26953l1.12012,-2.4502h0.25586l1.12012,2.4502h-0.27344zM273.52272,185.08789l-0.58789,-1.31641l-0.58789,1.31641z"/><path d="M274.59108,183.50195h0.25879v2.22656h1.37207v0.22363h-1.63086z"/><path d="M276.39284,186.63087c0.1377,-0.23535 0.23926,-0.48828 0.30469,-0.75781c0.06543,-0.26953 0.09863,-0.5625 0.09863,-0.87988c0,-0.31738 -0.0332,-0.61035 -0.09863,-0.87988c-0.06543,-0.26953 -0.16699,-0.52246 -0.30469,-0.75781h0.23828c0.13086,0.20996 0.23145,0.45508 0.30273,0.73633c0.07128,0.28125 0.10645,0.58203 0.10645,0.90137c0,0.31934 -0.03418,0.61914 -0.10449,0.89941c-0.07031,0.28027 -0.17188,0.52637 -0.30469,0.73828h-0.23828z"/></g><path d="M183.4,199.4v-38.8h113.2v38.8z" fill="none" stroke-width="0"/></g></g></svg>