<svg version="1.1" xmlns="http://www.w3.org/2000/svg" xmlns:xlink="http://www.w3.org/1999/xlink" width="36.82101" height="35.33209" viewBox="0,0,36.82101,35.33209"><g transform="translate(-221.55687,-162.4937)"><g data-paper-data="{&quot;isPaintingLayer&quot;:true}" fill="#ffffff" fill-rule="nonzero" stroke="none" stroke-width="1" stroke-linecap="butt" stroke-linejoin="miter" stroke-miterlimit="10" stroke-dasharray="" stroke-dashoffset="0" style="mix-blend-mode: normal"><g><g><path d="M258.37017,177.37272c-0.0813,1.31622 -0.3305,2.61691 -0.56829,3.91403c-0.21353,1.16488 -0.59488,2.29399 -0.86261,3.44778c-0.26819,1.15579 -0.47224,2.32024 -0.87063,3.43772c-0.34657,1.16795 -0.96738,2.29185 -1.67183,3.40876c-0.67672,1.07294 -1.42188,2.11175 -2.34711,2.98504c-0.9497,0.89638 -1.92652,1.77595 -3.05254,2.30238c-1.17947,0.55142 -2.47516,0.9914 -3.75075,0.95529c-1.20358,-0.03407 -2.40766,-0.60775 -3.61065,-1.32565c-1.30158,-0.92718 -2.13258,-2.10199 -2.88377,-3.30984c-0.78521,-1.26255 -1.67232,-2.49865 -2.04829,-3.95554c-0.36592,-1.41796 -0.20154,-2.97057 -0.36335,-4.4653c-0.16099,-1.4872 -0.51199,-2.96333 -0.6497,-4.422c-0.00596,-0.16547 0.20232,-0.16791 0.1804,-0.33203c-0.25679,-1.04898 -0.22093,-2.15847 -0.14652,-3.26816c0.07482,-1.11588 0.14425,-2.20544 0.65155,-3.17508c1.45056,0.11125 2.9088,0.10449 4.35977,0.27374c1.44579,0.16864 2.8593,0.6058 4.30324,0.82095c1.44104,0.21471 2.8653,0.52169 4.30226,0.77171c1.43703,0.25003 2.9421,0.1296 4.37282,0.40394c1.43435,0.27504 2.84932,0.63507 4.27506,0.92346c0.26886,0.02106 0.42617,0.34805 0.38094,0.6088zM242.74311,187.92676c1.40228,0.13892 2.18158,0.7065 2.18982,0.69686c0.0293,0.07147 0.06024,-1.56864 -1.81256,-1.94687c-1.95874,-0.33612 -3.26738,1.32991 -3.13945,1.3033c-0.00641,-0.00018 1.36198,-0.2312 2.76219,-0.05329zM250.19709,191.29097c0.29424,-1.89953 -1.71183,-0.84097 -3.79319,-1.16342c-2.08142,-0.32245 -3.35853,-1.8897 -3.65284,0.00986c-0.33679,2.17374 1.2059,2.02688 3.28732,2.34933c2.08142,0.32251 3.82717,0.94453 4.15871,-1.19577zM251.81113,187.4531c-1.92755,-0.48407 -3.3968,1.69686 -3.26722,1.68008c-0.00641,-0.00068 1.3911,-0.7513 2.77379,-0.46749c1.38763,0.24512 2.34248,1.0407 2.35139,1.03167c0.02381,0.07349 -0.01934,-1.72479 -1.85796,-2.24426z"/></g><g><path d="M234.439,180.34852c0.10383,1.12023 0.0402,2.27131 0.14555,3.40998c0.10474,1.13207 0.41201,2.24999 0.59428,3.36925c0.18339,1.12611 0.56757,2.28029 0.90642,3.36203c-0.76507,0.05701 -1.65741,-0.15354 -2.49652,-0.35752c-1.51725,-0.50176 -2.69048,-1.28771 -3.76468,-2.22006c-1.12286,-0.97458 -2.33451,-1.89833 -3.12369,-3.17937c-0.7681,-1.24681 -1.35802,-2.65542 -1.95374,-4.03583c-0.5927,-1.37344 -0.92295,-2.85843 -1.48499,-4.21149c-0.05452,-0.15631 -0.12778,-0.11119 -0.19715,-0.2615c-0.55491,-0.92652 -1.14009,-1.95636 -1.39649,-3.03859c-0.25784,-1.08828 -0.01254,-2.15382 0.18604,-3.22999c1.41878,-0.32179 2.74575,-0.75738 4.18205,-1.02388c1.43116,-0.26554 2.90498,-0.28206 4.34808,-0.50264c1.44022,-0.22013 2.84377,-0.70582 4.29051,-0.89101c1.44682,-0.1852 2.89821,-0.34635 4.34616,-0.50646c1.45164,-0.16052 2.91584,-0.19273 4.36319,-0.33795c0.26306,-0.0592 0.3283,0.08298 0.36205,0.34543c0.31073,1.28161 0.50911,2.57469 0.66469,3.8842c0.09302,0.78302 0.38148,1.77168 0.45606,2.55732c-1.39537,-0.20291 -2.911,-0.4128 -4.3117,-0.57503c-1.40018,-0.16217 -2.77636,-0.55215 -4.18275,-0.66312c-0.40496,-0.03198 -0.8638,0.33398 -1.04202,0.69836c-0.61865,1.26484 -1.15302,2.55178 -1.22266,3.95968c-0.03381,0.68311 0.37524,1.33996 0.46295,2.01745c0.04339,0.33545 0.06584,0.68671 0.11406,1.02069c-0.0274,0.12036 -0.25937,0.26222 -0.2457,0.41005zM226.05193,172.2853c-0.10749,-0.73681 -0.76787,-1.40525 -1.50475,-1.29777c-0.73681,0.10748 -1.0132,0.91249 -0.90572,1.64931c0.10748,0.73687 0.36208,-0.21735 1.0989,-0.32483c0.73687,-0.10742 1.41905,0.71016 1.31157,-0.02671zM230.02714,174.39899c-2.85681,0.00195 -4.03504,1.45622 -3.8603,1.38731c-0.00916,0.00134 1.5788,0.43815 3.60578,0.34837c2.02026,-0.14544 2.92081,-1.24093 2.93009,-1.25668c0.05896,0.09412 0.06972,-0.40032 -2.67557,-0.479zM233.24657,170.85653c-0.10743,-0.73687 -0.76787,-1.40531 -1.50469,-1.29783c-0.73687,0.10748 -1.01326,0.91249 -0.90578,1.64937c0.10748,0.73681 0.36208,-0.21741 1.09896,-0.32483c0.73682,-0.10749 1.41899,0.7101 1.31151,-0.02671z"/></g><g><path d="M234.55279,179.81783c-0.01062,0.02918 -0.01459,0.06365 -0.02271,0.09472c0.0025,-0.06348 0.01288,-0.09881 0.02271,-0.09472z"/></g><g><path d="M244.90939,164.88545c-0.31988,-0.35199 -0.04343,-0.95649 0.42135,-1.0575c2.90854,-0.63246 2.89658,-0.68748 5.80512,-1.31993c0.46478,-0.10102 0.846,0.34998 0.7011,0.80298c-0.14469,0.45242 -0.10855,0.46371 -0.24675,0.91816c-0.00198,0.0065 -0.04277,-0.01971 -0.04472,-0.0132c-0.10401,0.34753 -0.09107,0.34649 -0.12414,0.70774c0.15485,0.03162 0.28251,0.02152 0.4398,0.10605c1.49442,0.79874 2.61748,2.08727 3.3542,3.53332c0.73776,1.4481 1.1465,3.11863 0.91138,4.79456c-0.10974,0.78705 -0.74577,1.22798 -1.16862,1.07521c-0.28986,-0.09271 -0.60812,-0.10235 -0.89791,-0.19506c-0.42603,-0.1518 -0.67263,-0.71937 -0.61251,-1.22938c0.14352,-1.13691 0.01917,-2.28024 -0.49001,-3.25168c-0.51024,-0.97347 -1.34539,-1.79366 -2.36147,-2.31884c-0.01044,-0.00543 0.0186,0.02746 0.00835,0.02166c-0.10941,0.32314 -0.18956,0.29576 -0.29994,0.61857c-0.00221,0.00644 0.06649,0.01567 0.06432,0.02213c-0.15046,0.44807 -0.12379,0.45609 -0.26776,0.90629c-0.14483,0.453 -0.85408,0.62806 -1.1739,0.27601c-2.00174,-2.20287 -2.07944,-2.13752 -4.01789,-4.39709z"/></g><g><path d="M235.04491,195.14924c0.31989,0.35199 0.11809,1.05491 -0.34669,1.15598c-2.90854,0.63245 -2.94451,0.46701 -5.85305,1.09946c-0.46479,0.10107 -0.8146,-0.25875 -0.6697,-0.71175c0.14469,-0.45242 0.04393,-0.48357 0.18214,-0.93801c0.00198,-0.00649 0.0812,0.03152 0.08315,0.02502c0.10402,-0.34756 0.1855,-0.33502 0.21858,-0.6963c-0.15485,-0.03156 -0.35085,-0.05199 -0.50814,-0.13646c-1.49443,-0.79875 -2.70108,-2.02791 -3.4378,-3.47397c-0.73776,-1.44811 -0.9858,-3.14241 -0.75068,-4.81837c0.10974,-0.78705 0.68596,-1.32648 1.10881,-1.17371c0.28985,0.09265 0.58291,0.17537 0.8727,0.26808c0.42603,0.15186 0.51036,0.71287 0.45024,1.22288c-0.14352,1.1369 0.24173,2.24573 0.7509,3.21716c0.51024,0.97347 1.30312,1.73008 2.3192,2.25523c0.01044,0.00549 0.01485,0.12209 0.0251,0.12783c0.1094,-0.32315 0.07801,-0.33359 0.18839,-0.6564c0.0022,-0.00645 0.09315,0.03804 0.09532,0.03158c0.15045,-0.44807 -0.00032,-0.49806 0.14365,-0.94826c0.14483,-0.453 0.68587,-0.49758 1.00569,-0.14553c2.00175,2.20287 2.05448,2.1535 4.12219,4.29554z"/></g></g></g></g></svg>