<svg version="1.1" xmlns="http://www.w3.org/2000/svg" xmlns:xlink="http://www.w3.org/1999/xlink" width="30.7" height="7.8" viewBox="0,0,30.7,7.8"><g transform="translate(-227.1,-175.8)"><g data-paper-data="{&quot;isPaintingLayer&quot;:true}" fill="#000000" fill-rule="nonzero" stroke="none" stroke-width="1" stroke-linecap="butt" stroke-linejoin="miter" stroke-miterlimit="10" stroke-dasharray="" stroke-dashoffset="0" style="mix-blend-mode: normal"><g><path d="M232,176.2c0.5,0.2 0.9,0.5 1.1,0.9c0.2,0.4 0.4,0.9 0.4,1.5c0,0.6 -0.1,1 -0.4,1.5c-0.3,0.4 -0.6,0.7 -1.1,1c-0.5,0.2 -1.1,0.3 -1.7,0.3h-1.8v2.2h-1.4v-7.7h3.2c0.6,-0.1 1.2,0.1 1.7,0.3zM231.6,179.7c0.3,-0.3 0.5,-0.6 0.5,-1.1c0,-0.5 -0.2,-0.9 -0.5,-1.1c-0.3,-0.3 -0.8,-0.4 -1.4,-0.4h-1.7v3.1h1.7c0.6,-0.1 1.1,-0.2 1.4,-0.5z"/><path d="M235.6,175.8h1.4v6.5h4v1.2h-5.5v-7.7z"/><path d="M247.9,181.8h-3.8l-0.8,1.8h-1.5l3.5,-7.7h1.4l3.5,7.7h-1.5zM247.5,180.6l-1.5,-3.3l-1.4,3.4h2.9z"/><path d="M254.7,180.8v2.7h-1.4v-2.7l-3,-5h1.5l2.3,3.8l2.3,-3.8h1.4z"/></g></g></g></svg>