<svg version="1.1" xmlns="http://www.w3.org/2000/svg" xmlns:xlink="http://www.w3.org/1999/xlink" width="36.99466" height="30.53571" viewBox="0,0,36.99466,30.53571"><g transform="translate(-221.50267,-164.73214)"><g data-paper-data="{&quot;isPaintingLayer&quot;:true}" fill="#ffffff" fill-rule="nonzero" stroke="none" stroke-width="1" stroke-linecap="butt" stroke-linejoin="miter" stroke-miterlimit="10" stroke-dasharray="" stroke-dashoffset="0" style="mix-blend-mode: normal"><g><path d="M252.00085,195.26786h-23.664c-1.66687,0 -2.86573,-1.0849 -2.66425,-2.41083l0.43689,-2.87469h2.19086c0.17383,0 0.3161,-0.14221 0.3161,-0.31604c0,-0.17389 -0.14227,-0.3161 -0.3161,-0.3161h-2.09479l1.06805,-7.02795h2.82648c0.17383,0 0.3161,-0.14221 0.3161,-0.31604c0,-0.17389 -0.14227,-0.3161 -0.3161,-0.3161h-2.73041l0.44135,-2.90387c0.20154,-1.32587 1.45117,-2.41077 2.7771,-2.41077h18.82367c1.32593,0 2.59503,1.0849 2.82025,2.41077l0.49323,2.90387h-2.422c-0.16607,0 -0.302,0.14221 -0.302,0.3161c0,0.17383 0.13592,0.31604 0.302,0.31604h2.52936l1.19379,7.02795h-2.00372c-0.16607,0 -0.302,0.14221 -0.302,0.3161c0,0.17383 0.13592,0.31604 0.302,0.31604h2.11108l0.48828,2.87469c0.22522,1.32593 -0.95429,2.41083 -2.62122,2.41083zM236.09729,187.30655c0.06164,-0.49218 -0.23969,-0.84637 -0.78406,-0.84875c-0.52429,-0.00232 -0.97131,0.34815 -1.0744,0.83942c-0.10107,0.48181 0.2074,0.84546 0.77356,0.84863c0.57653,0.00323 1.01434,-0.35669 1.0849,-0.8393zM236.28054,181.6901c-0.59637,0 -1.14117,0.18524 -1.49115,0.37976l0.0675,1.00995c0.26654,-0.16644 0.6416,-0.27735 0.93188,-0.27704c0.43652,0.01904 0.60492,0.23279 0.5531,0.55768c-0.05029,0.31549 -0.3371,0.61194 -0.69513,0.96356c-0.51789,0.49981 -0.77704,0.98126 -0.8429,1.45428l-0.03827,0.24078l1.32031,0.00537l0.02563,-0.16699c0.05456,-0.4176 0.25396,-0.77917 0.66058,-1.15869c0.40735,-0.38928 0.89429,-0.85278 0.96869,-1.55914c0.08112,-0.77112 -0.35156,-1.44952 -1.46024,-1.44952zM240.71966,187.32974c-0.01569,-0.4942 -0.37244,-0.84979 -0.91681,-0.85223c-0.52429,-0.00225 -0.91589,0.34961 -0.94171,0.8429c-0.02527,0.48382 0.34015,0.849 0.90631,0.85217c0.57654,0.00324 0.9574,-0.35815 0.95221,-0.84284zM241.70821,183.1456c-0.03985,-0.7743 -0.57898,-1.45551 -1.68774,-1.45551c-0.59638,0 -1.112,0.18598 -1.43134,0.38129l0.22644,1.01416c0.24029,-0.16712 0.59784,-0.27851 0.88818,-0.27814c0.43939,0.01911 0.64135,0.23371 0.64062,0.56c-0.00073,0.31677 -0.24091,0.61438 -0.54352,0.96753c-0.43909,0.50183 -0.62237,0.98529 -0.61389,1.46027l-0.00037,0.24182l1.32031,0.00537l-0.00061,-0.16772c-0.01105,-0.41931 0.13147,-0.78235 0.47833,-1.16351c0.34607,-0.39081 0.76007,-0.85627 0.72359,-1.56556zM245.34198,187.353c-0.09302,-0.49621 -0.50513,-0.85333 -1.0495,-0.85571c-0.52429,-0.00232 -0.86053,0.35101 -0.80896,0.84637c0.05054,0.48584 0.47284,0.85248 1.039,0.85565c0.57654,0.00324 0.90051,-0.35968 0.81946,-0.84631zM245.6756,183.15159c-0.16089,-0.77747 -0.80646,-1.46149 -1.91516,-1.46149c-0.59643,0 -1.08294,0.18676 -1.37158,0.38287l0.38538,1.01831c0.21405,-0.16779 0.55408,-0.27961 0.84442,-0.2793c0.44232,0.01923 0.6778,0.23468 0.72815,0.56232c0.04888,0.31806 -0.1446,0.61695 -0.39185,0.9715c-0.36029,0.50397 -0.46778,0.98938 -0.38483,1.46631l0.03748,0.24286l1.32037,0.00531l-0.02692,-0.1684c-0.07666,-0.42102 0.00897,-0.78558 0.29602,-1.16827c0.28479,-0.39246 0.62591,-0.85981 0.47852,-1.57202z"/><g><path d="M248.64338,175.58335h-17.28674c-0.65045,0 -0.80688,-0.90692 -0.19409,-1.12488l2.68951,-0.95642c0.32336,-0.11499 0.47638,-0.48437 0.32904,-0.79431l-1.96759,-4.13922c-0.23395,-0.49219 0.27954,-1.00568 0.77173,-0.77167l4.13916,1.96753c0.30993,0.14734 0.67932,-0.00568 0.79431,-0.32904l1.53558,-4.31812c0.18262,-0.51343 0.90881,-0.51343 1.09137,0l1.53558,4.31812c0.11499,0.32336 0.48437,0.47638 0.79437,0.32904l4.13916,-1.96753c0.49225,-0.23401 1.00568,0.27948 0.77173,0.77167l-1.96753,4.13922c-0.14734,0.30993 0.00562,0.67932 0.32898,0.79431l2.68951,0.95642c0.61279,0.21796 0.45636,1.12488 -0.19408,1.12488z"/><path d="M258.4455,176.69309l-0.1875,0.47052c-0.07538,0.18902 -0.17621,0.32641 -0.40601,0.23486l-0.85376,-0.21283c0.15594,-0.46863 0.33807,-0.92816 0.54559,-1.37634l0.76843,0.43402c0.22986,0.09161 0.20856,0.26068 0.13325,0.44977z"/><path d="M252.76756,173.77427c-0.24817,0.51965 -0.46252,1.05475 -0.64172,1.60211c-0.01031,-0.00274 -0.02069,-0.00494 -0.03088,-0.00897c-0.13641,-0.05438 -0.20288,-0.20899 -0.14856,-0.3454l0.44446,-1.11536c0.05438,-0.13641 0.20899,-0.20294 0.3454,-0.14856c0.01117,0.00446 0.02118,0.01038 0.0313,0.01618z"/><path d="M253.46502,173.9962c-0.24841,0.55646 -0.47925,1.12225 -0.68805,1.69531l-0.32843,-0.13092c-0.06946,-0.02765 -0.11938,-0.08185 -0.14581,-0.14594c0.17138,-0.52752 0.37585,-1.0437 0.61224,-1.54553c0.06427,-0.03028 0.13965,-0.03644 0.21088,-0.00806z"/><path d="M254.58575,174.44284c-0.24847,0.5564 -0.47931,1.12219 -0.68811,1.69525l-1.03455,-0.41229c0.20746,-0.57336 0.43714,-1.13958 0.68488,-1.69653z"/><path d="M257.43078,175.64249c-0.2456,0.51501 -0.45788,1.04522 -0.63574,1.58746c-0.05506,0.01672 -0.11542,0.01678 -0.17322,-0.00629l-2.63806,-1.05127c0.20746,-0.57336 0.4372,-1.13958 0.68494,-1.69653l2.63043,1.04828c0.05914,0.02356 0.10327,0.06671 0.13165,0.11835z"/><path d="M257.16919,170.73142c-0.07971,-0.34405 -0.14001,-0.69232 -0.18066,-1.04321l0.63074,-0.02191c0.17437,-0.02985 0.22448,0.08124 0.24908,0.22467l0.06116,0.35699c0.02453,0.14349 0.01428,0.26489 -0.1601,0.2948z"/><path d="M253.27997,171.29629l-0.14502,-0.84625c-0.0177,-0.10351 0.05182,-0.20178 0.15527,-0.21948c0.00849,-0.00146 0.01685,-0.00159 0.02515,-0.00183c0.04248,0.40961 0.11139,0.81604 0.20624,1.2168c-0.00727,0.00219 -0.01447,0.00476 -0.02216,0.0061c-0.10352,0.0177 -0.20178,-0.05182 -0.21948,-0.15534z"/><path d="M253.64385,171.40294c-0.09228,-0.38581 -0.16015,-0.77698 -0.20312,-1.17133c0.02789,-0.04248 0.07153,-0.07434 0.12561,-0.08362l0.25739,-0.04407c0.05603,0.43212 0.12628,0.86346 0.21271,1.29095l-0.24921,0.04266c-0.05267,0.00904 -0.1034,-0.00537 -0.14338,-0.03459z"/><path d="M254.10181,171.38365c-0.0874,-0.42719 -0.15851,-0.85834 -0.21515,-1.29053l0.78735,-0.13489c0.05609,0.43219 0.12634,0.86346 0.21277,1.29095z"/><path d="M254.95214,171.23801c-0.0874,-0.42719 -0.15857,-0.85834 -0.21521,-1.29053l1.99591,-0.34192c0.04486,-0.00769 0.08789,0.00213 0.12445,0.02307c0.04236,0.40582 0.11066,0.80853 0.20447,1.20569c-0.02734,0.0307 -0.06421,0.05328 -0.10803,0.06079z"/><path d="M222.46337,176.57523c0.2091,0.44824 0.39258,0.90777 0.54968,1.3764l-0.86017,0.21277c-0.23151,0.09162 -0.33313,-0.04577 -0.40906,-0.23486l-0.1889,-0.47052c-0.07592,-0.18903 -0.09735,-0.35816 0.13416,-0.44971z"/><path d="M227.65527,174.67257l0.44788,1.11536c0.05475,0.13642 -0.01227,0.29108 -0.14966,0.3454c-0.01032,0.00409 -0.02075,0.00628 -0.03119,0.00897c-0.18055,-0.54736 -0.39649,-1.0824 -0.64655,-1.60211c0.01026,-0.00573 0.02033,-0.01165 0.03156,-0.01611c0.13739,-0.05438 0.29321,0.01215 0.34796,0.14849z"/><path d="M227.12725,174.6351c0.23816,0.50183 0.44415,1.018 0.61688,1.54553c-0.02667,0.06403 -0.07696,0.11823 -0.14697,0.14594l-0.33087,0.13086c-0.21039,-0.57306 -0.44299,-1.13879 -0.6933,-1.69525l0.3418,-0.13519c0.07172,-0.02838 0.14771,-0.02222 0.21246,0.00811z"/><path d="M226.48944,174.79526c0.24963,0.55688 0.48108,1.12317 0.69006,1.69653l-1.04236,0.41223c-0.21039,-0.57306 -0.44299,-1.13879 -0.6933,-1.69525z"/><path d="M225.36029,175.24185c0.24963,0.55688 0.48108,1.12317 0.69006,1.69653l-2.65796,1.05127c-0.05823,0.02301 -0.11908,0.02301 -0.17456,0.00629c-0.1792,-0.54223 -0.39306,-1.07245 -0.64056,-1.58746c0.02863,-0.0517 0.07306,-0.09485 0.13269,-0.11841z"/><path d="M222.07476,171.01395l0.06165,-0.35699c0.02478,-0.14343 0.07526,-0.25458 0.25098,-0.22467l0.6355,0.02191c-0.04096,0.35083 -0.10175,0.69915 -0.18207,1.04321l-0.60474,-0.18872c-0.17566,-0.02985 -0.18603,-0.15131 -0.16132,-0.29474z"/><path d="M226.516,172.21153c0.09564,-0.40082 0.16503,-0.80719 0.20782,-1.21686c0.00842,0.0003 0.01679,0.00037 0.02533,0.00183c0.10424,0.01776 0.17431,0.11603 0.15643,0.21948l-0.14606,0.84631c-0.01788,0.10345 -0.11688,0.17303 -0.22113,0.15527c-0.00781,-0.00134 -0.01502,-0.00384 -0.02239,-0.00603z"/><path d="M225.9973,172.16086c0.0871,-0.42756 0.15784,-0.85883 0.21436,-1.29102l0.25928,0.04413c0.05445,0.00928 0.09851,0.04114 0.12659,0.08356c-0.04333,0.39441 -0.11169,0.78559 -0.20465,1.17139c-0.04034,0.02918 -0.09137,0.04364 -0.14453,0.03461z"/><path d="M225.14056,172.01516c0.0871,-0.42749 0.15784,-0.85882 0.21436,-1.29095l0.79333,0.13489c-0.05707,0.43219 -0.12879,0.86334 -0.2168,1.29053z"/><path d="M222.94909,171.60026c0.09454,-0.39716 0.16333,-0.79981 0.20599,-1.20563c0.03687,-0.02093 0.0802,-0.03082 0.12543,-0.02313l2.01099,0.34192c-0.05707,0.43219 -0.12879,0.86334 -0.2168,1.29053l-2.01678,-0.3429c-0.04419,-0.00751 -0.0813,-0.03003 -0.10883,-0.06079z"/><path d="M252.1557,167.3787l-2.00751,6.29993c-0.08068,0.25329 -0.32794,0.48279 -0.66412,0.66699c-0.12213,-0.15448 -0.27679,-0.28589 -0.47821,-0.35767l-2.69043,-0.95703c-0.02246,-0.00782 -0.03711,-0.02198 -0.0459,-0.04395c-0.00976,-0.02197 -0.00879,-0.04345 0.00098,-0.06445l1.9668,-4.13867c0.19922,-0.41748 0.11621,-0.89893 -0.21094,-1.22705c-0.3291,-0.32959 -0.81152,-0.4126 -1.22656,-0.21094l-4.1377,1.9668c-0.02246,0.00976 -0.04492,0.00976 -0.06543,0.00195c-0.02148,-0.00879 -0.03711,-0.02539 -0.04492,-0.04736l-1.05518,-2.9679h8.45746c1.40008,0 2.39081,0.48572 2.20166,1.07935z"/><path d="M230.9956,173.98796c-0.23896,0.08466 -0.42456,0.24353 -0.54938,0.43964c-0.41717,-0.19446 -0.72662,-0.45508 -0.81036,-0.74896l-1.79614,-6.29993c-0.16925,-0.59363 0.8377,-1.07935 2.23779,-1.07935h8.42596l-1.05524,2.96838c-0.0083,0.02198 -0.02344,0.03809 -0.04492,0.04688c-0.02246,0.00928 -0.04394,0.00782 -0.06396,-0.00146l-4.13818,-1.96729c-0.41748,-0.19922 -0.89795,-0.1167 -1.22754,0.21094c-0.32764,0.32666 -0.41065,0.8081 -0.21143,1.22656l1.96729,4.13818c0.01025,0.02197 0.01074,0.04345 0.00195,0.06445c-0.00879,0.02197 -0.0249,0.03711 -0.04736,0.04541z"/></g></g></g></g></svg>