<svg version="1.1" xmlns="http://www.w3.org/2000/svg" xmlns:xlink="http://www.w3.org/1999/xlink" width="48.228" height="6.262" viewBox="0,0,48.228,6.262"><g transform="translate(-215.886,-176.583)"><g data-paper-data="{&quot;isPaintingLayer&quot;:true}" fill="#000000" fill-rule="nonzero" stroke="none" stroke-width="1" stroke-linecap="butt" stroke-linejoin="miter" stroke-miterlimit="10" stroke-dasharray="" stroke-dashoffset="0" style="mix-blend-mode: normal"><g><path/><path d="M215.886,181.503v-3.578l1.391,-1.342h3.71l1.391,1.342l-0.927,0.894h0.927v4.026h-5.101zM217.741,178.819v1.789l0.464,0.448h2.318v-0.448h-1.855v-1.789h1.855l-0.463,-0.447h-1.855z"/><path d="M225.161,181.056h3.71v1.789h-5.565v-6.262h5.565v1.789h-3.71v0.447h3.71v1.789h-3.71z"/><path d="M231.653,179.713v3.131h-1.855v-6.261h1.391l3.246,3.13v-3.13h1.855v6.262h-1.391z"/><path d="M239.073,181.056h3.709v1.789h-5.564v-6.262h5.564v1.789h-3.709v0.447h3.709v1.789h-3.709z"/><path d="M250.202,177.925v1.789l-1.391,1.342l1.854,1.789h-2.782l-1.855,-1.789h-0.464v1.789h-1.854v-6.262h5.102zM248.348,178.819l-0.464,-0.447h-2.319v0.894h2.319z"/><path d="M252.521,176.583h3.71l1.391,1.342v4.92h-1.854v-1.342h-2.783v1.342h-1.855v-4.92zM255.304,178.372h-1.855l-0.464,0.447v0.895h2.783v-0.895z"/><path d="M258.55,176.583h1.854v4.473h3.71v1.789h-5.564z"/><path/></g></g></g></svg>