<svg xmlns="http://www.w3.org/2000/svg" xmlns:xlink="http://www.w3.org/1999/xlink" version="1.1" width="43" height="13" viewBox="-0.5 -0.5 43 13">
  <!-- Exported by Scratch - http://scratch.mit.edu/ -->
  <g id="ID0.761886992957443">
    <g id="ID0.4959163796156645">
      <path id="ID0.7587721198797226" fill="#FFFFFF" d="M 0.500 0.500 L 41.500 0.500 L 41.500 11.500 L 0.500 11.500 L 0.500 0.500 Z " stroke-width="1"/>
      <path id="ID0.7302222577854991" fill="#FFFFFF" d="M 41 1 L 41 11 L 1 11 L 1 1 L 41 1 M 42 0 L 0 0 L 0 12 L 42 12 L 42 0 L 42 0 Z " stroke-width="1"/>
    </g>
    <g id="ID0.5659594046883285">
      <path id="ID0.19882168900221586" fill="#7F7F7F" d="M 18.734 4.525 L 18.320 5.041 C 18.014 4.711 17.577 4.507 17.151 4.507 C 16.311 4.507 15.651 5.154 15.651 5.982 C 15.651 6.810 16.311 7.462 17.151 7.462 C 17.570 7.462 18.003 7.271 18.320 6.965 L 18.740 7.433 C 18.314 7.853 17.709 8.122 17.115 8.122 C 15.886 8.122 14.932 7.192 14.932 5.987 C 14.932 4.794 15.897 3.876 17.138 3.876 C 17.732 3.877 18.326 4.124 18.734 4.525 Z " stroke-width="1"/>
      <path id="ID0.5332595626823604" fill="#7F7F7F" d="M 21.135 3.896 C 22.191 3.896 22.796 4.418 22.796 5.329 C 22.796 6.277 22.191 6.829 21.135 6.829 L 20.170 6.829 L 20.170 8.095 L 19.462 8.095 L 19.462 3.896 L 21.135 3.896 Z M 20.170 6.192 L 21.106 6.192 C 21.753 6.192 22.119 5.916 22.119 5.346 C 22.119 4.794 21.754 4.531 21.106 4.531 L 20.170 4.531 L 20.170 6.192 Z " stroke-width="1"/>
      <path id="ID0.5932496497407556" fill="#7F7F7F" d="M 27.067 6.354 C 27.067 7.451 26.378 8.123 25.245 8.123 C 24.111 8.123 23.416 7.451 23.416 6.354 L 23.416 3.896 L 24.123 3.896 L 24.123 6.354 C 24.123 7.062 24.561 7.488 25.251 7.488 C 25.935 7.488 26.360 7.068 26.360 6.354 L 26.360 3.896 L 27.067 3.896 L 27.067 6.354 Z " stroke-width="1"/>
    </g>
  </g>
</svg>