<?xml version="1.0" encoding="utf-8"?><!-- Generator: Adobe Illustrator 16.0.0, SVG Export Plug-In . SVG Version: 6.00 Build 0)  --><!DOCTYPE svg PUBLIC "-//W3C//DTD SVG 1.1//EN" "http://www.w3.org/Graphics/SVG/1.1/DTD/svg11.dtd"><svg xmlns="http://www.w3.org/2000/svg" xmlns:xlink="http://www.w3.org/1999/xlink" version="1.1" id="Layer_1" x="0px" y="0px" width="153.79202270507812" height="9.479000091552734" viewBox="-121.29100036621094 7.26099967956543 153.79202270507812 9.479000091552734" enable-background="new 0 0 32 24" xml:space="preserve">
<g>
	<path fill="#FFFFFF" d="M-113.343,8.995l-0.576,0.732c-0.648-0.66-1.559-1.056-2.483-1.056c-1.895,0-3.418,1.463-3.418,3.311   c0,1.835,1.523,3.31,3.418,3.31c0.924,0,1.823-0.384,2.483-1.008l0.587,0.66c-0.827,0.779-1.955,1.295-3.118,1.295   c-2.422,0-4.341-1.883-4.341-4.257c0-2.352,1.943-4.21,4.377-4.21C-115.262,7.772-114.146,8.24-113.343,8.995z" stroke-width="1"/>
	<path fill="#FFFFFF" d="M-105.579,16.191v-3.693h-5.061v3.693h-0.959V7.796h0.959v3.79h5.061v-3.79h0.959v8.396H-105.579z" stroke-width="1"/>
	<path fill="#FFFFFF" d="M-101.34,14.068l-0.936,2.123h-1.02l3.766-8.396h0.996l3.754,8.396h-1.043l-0.936-2.123H-101.34z    M-99.061,8.888l-1.871,4.258h3.766L-99.061,8.888z" stroke-width="1"/>
	<path fill="#FFFFFF" d="M-87.459,16.191l-5.037-6.74v6.74h-0.959V7.796h0.995l5.038,6.752V7.796h0.947v8.396H-87.459z" stroke-width="1"/>
	<path fill="#FFFFFF" d="M-77.211,12.09v3.046c-0.828,0.66-1.991,1.104-3.118,1.104c-2.435,0-4.378-1.883-4.378-4.245   c0-2.363,1.955-4.222,4.426-4.222c1.164,0,2.291,0.443,3.094,1.151l-0.552,0.72c-0.684-0.612-1.607-0.972-2.542-0.972   c-1.919,0-3.454,1.475-3.454,3.322c0,1.858,1.547,3.334,3.466,3.334c0.755,0,1.559-0.265,2.207-0.708v-2.53H-77.211z" stroke-width="1"/>
	<path fill="#FFFFFF" d="M-73.92,8.72v2.759h4.233v0.923h-4.233v2.879h4.893v0.911h-5.853V7.796h5.697V8.72H-73.92z" stroke-width="1"/>
	<path fill="#FFFFFF" d="M-57.076,12.09v3.046c-0.828,0.66-1.991,1.104-3.118,1.104c-2.435,0-4.378-1.883-4.378-4.245   c0-2.363,1.955-4.222,4.426-4.222c1.164,0,2.291,0.443,3.094,1.151l-0.552,0.72c-0.684-0.612-1.607-0.972-2.542-0.972   c-1.919,0-3.454,1.475-3.454,3.322c0,1.858,1.547,3.334,3.466,3.334c0.755,0,1.559-0.265,2.207-0.708v-2.53H-57.076z" stroke-width="1"/>
	<path fill="#FFFFFF" d="M-54.012,14.068l-0.936,2.123h-1.02l3.766-8.396h0.996l3.754,8.396h-1.043l-0.936-2.123H-54.012z    M-51.733,8.888l-1.871,4.258h3.766L-51.733,8.888z" stroke-width="1"/>
	<path fill="#FFFFFF" d="M-38.524,16.191l-0.012-6.92l-3.059,6.032h-0.576l-3.046-6.032v6.92h-0.911V7.796h1.187l3.07,6.045   l3.059-6.045h1.175v8.396H-38.524z" stroke-width="1"/>
	<path fill="#FFFFFF" d="M-34.117,8.72v2.759h4.233v0.923h-4.233v2.879h4.893v0.911h-5.853V7.796h5.697V8.72H-34.117z" stroke-width="1"/>
	<path fill="#FFFFFF" d="M-18.82,8.54l-0.408,0.899c-0.755-0.504-1.643-0.708-2.314-0.708c-1.08,0-1.787,0.408-1.787,1.115   c0,2.159,4.726,1.032,4.713,4.078c0,1.403-1.235,2.303-3.034,2.303c-1.224,0-2.423-0.527-3.214-1.283l0.432-0.863   c0.78,0.755,1.847,1.188,2.794,1.188c1.211,0,1.967-0.492,1.967-1.296c0.012-2.207-4.713-1.031-4.713-4.042   c0-1.319,1.163-2.17,2.902-2.17C-20.511,7.761-19.515,8.072-18.82,8.54z" stroke-width="1"/>
	<path fill="#FFFFFF" d="M-15.685,8.72v2.759h4.233v0.923h-4.233v2.879h4.893v0.911h-5.853V7.796h5.697V8.72H-15.685z" stroke-width="1"/>
	<path fill="#FFFFFF" d="M-6.278,8.72v7.472h-0.959V8.72h-2.734V7.796h6.44V8.72H-6.278z" stroke-width="1"/>
	<path fill="#FFFFFF" d="M0.417,8.72v7.472h-0.959V8.72h-2.734V7.796h6.44V8.72H0.417z" stroke-width="1"/>
	<path fill="#FFFFFF" d="M4.559,16.191V7.796h0.959v8.396H4.559z" stroke-width="1"/>
	<path fill="#FFFFFF" d="M14.06,16.191l-5.037-6.74v6.74H8.063V7.796h0.995l5.038,6.752V7.796h0.947v8.396H14.06z" stroke-width="1"/>
	<path fill="#FFFFFF" d="M24.307,12.09v3.046c-0.827,0.66-1.99,1.104-3.117,1.104c-2.436,0-4.378-1.883-4.378-4.245   c0-2.363,1.955-4.222,4.425-4.222c1.164,0,2.291,0.443,3.095,1.151l-0.552,0.72c-0.684-0.612-1.607-0.972-2.543-0.972   c-1.918,0-3.453,1.475-3.453,3.322c0,1.858,1.547,3.334,3.466,3.334c0.755,0,1.56-0.265,2.206-0.708v-2.53H24.307z" stroke-width="1"/>
	<path fill="#FFFFFF" d="M31.797,8.54l-0.408,0.899c-0.756-0.504-1.644-0.708-2.314-0.708c-1.08,0-1.787,0.408-1.787,1.115   c0,2.159,4.725,1.032,4.713,4.078c0,1.403-1.235,2.303-3.034,2.303c-1.224,0-2.423-0.527-3.214-1.283l0.432-0.863   c0.779,0.755,1.847,1.188,2.794,1.188c1.212,0,1.968-0.492,1.968-1.296c0.012-2.207-4.715-1.031-4.715-4.042   c0-1.319,1.164-2.17,2.903-2.17C30.105,7.761,31.101,8.072,31.797,8.54z" stroke-width="1"/>
</g>
</svg>