<?xml version="1.0" encoding="utf-8"?><!-- Generator: Adobe Illustrator 16.0.0, SVG Export Plug-In . SVG Version: 6.00 Build 0)  --><!DOCTYPE svg PUBLIC "-//W3C//DTD SVG 1.1//EN" "http://www.w3.org/Graphics/SVG/1.1/DTD/svg11.dtd"><svg xmlns="http://www.w3.org/2000/svg" xmlns:xlink="http://www.w3.org/1999/xlink" version="1.1" id="Layer_1" x="0px" y="0px" width="86.57101440429688" height="6.678999900817871" viewBox="-19.28499984741211 4.659999847412109 86.57101440429688 6.678999900817871" enable-background="new 0 0 48 16" xml:space="preserve">
<g>
	<path fill="#FFFFFF" d="M-13.717,6.041l-0.551,0.688c-0.408-0.439-0.992-0.711-1.559-0.711c-1.12,0-1.999,0.863-1.999,1.967   s0.879,1.975,1.999,1.975c0.56,0,1.135-0.256,1.559-0.663l0.56,0.623c-0.568,0.56-1.375,0.919-2.167,0.919   c-1.639,0-2.91-1.238-2.91-2.846c0-1.591,1.287-2.814,2.942-2.814C-15.052,5.178-14.261,5.506-13.717,6.041z" stroke-width="1"/>
	<path fill="#FFFFFF" d="M-7.989,8.479c0,1.464-0.92,2.358-2.431,2.358c-1.511,0-2.439-0.895-2.439-2.358V5.202h0.944v3.277   c0,0.944,0.583,1.511,1.503,1.511c0.912,0,1.479-0.559,1.479-1.511V5.202h0.944V8.479z" stroke-width="1"/>
	<path fill="#FFFFFF" d="M-2.836,5.737l-0.392,0.832c-0.608-0.368-1.216-0.521-1.64-0.521c-0.552,0-0.911,0.208-0.911,0.584   c0,1.224,3.022,0.567,3.014,2.583c0,0.999-0.879,1.614-2.11,1.614c-0.879,0-1.711-0.359-2.287-0.887l0.408-0.815   c0.576,0.526,1.295,0.815,1.895,0.815c0.656,0,1.047-0.248,1.047-0.68c0-1.247-3.022-0.552-3.022-2.543   c0-0.959,0.824-1.559,2.039-1.559C-4.068,5.162-3.356,5.394-2.836,5.737z" stroke-width="1"/>
	<path fill="#FFFFFF" d="M0.388,6.049v4.75h-0.943v-4.75h-1.767V5.202h4.485v0.847H0.388z" stroke-width="1"/>
	<path fill="#FFFFFF" d="M8.106,8c0,1.6-1.295,2.838-2.966,2.838S2.173,9.6,2.173,8c0-1.607,1.296-2.822,2.967-2.822   S8.106,6.401,8.106,8z M3.133,8c0,1.111,0.919,1.99,2.015,1.99S7.139,9.111,7.139,8S6.244,6.025,5.148,6.025   C4.044,6.025,3.133,6.889,3.133,8z" stroke-width="1"/>
	<path fill="#FFFFFF" d="M14.163,10.799l-0.009-4.182l-1.767,3.598h-0.615l-1.768-3.598v4.182H9.117V5.202h1.12l1.847,3.718   l1.839-3.718h1.111v5.597H14.163z" stroke-width="1"/>
	<path fill="#FFFFFF" d="M16.517,10.799V5.202h0.943v5.597H16.517z" stroke-width="1"/>
	<path fill="#FFFFFF" d="M19.773,9.951h3.446v0.848h-4.726v-0.68l3.414-4.07h-3.311V5.202h4.582v0.679L19.773,9.951z" stroke-width="1"/>
	<path fill="#FFFFFF" d="M25.204,6.049v1.512h2.736v0.848h-2.736v1.543h3.15v0.848h-4.093V5.202h3.998v0.847H25.204z" stroke-width="1"/>
	<path fill="#FFFFFF" d="M33.804,5.202c1.408,0,2.215,0.695,2.215,1.91c0,1.264-0.807,1.999-2.215,1.999h-1.287v1.688h-0.943V5.202   H33.804z M32.517,8.264h1.248c0.863,0,1.35-0.367,1.35-1.127c0-0.735-0.486-1.088-1.35-1.088h-1.248V8.264z" stroke-width="1"/>
	<path fill="#FFFFFF" d="M40.323,9.943v0.855h-3.367V5.202h0.943v4.741H40.323z" stroke-width="1"/>
	<path fill="#FFFFFF" d="M42.069,9.535l-0.537,1.264H40.55l2.471-5.597h0.967l2.447,5.597h-1.008l-0.535-1.264H42.069z    M43.476,6.209l-1.055,2.486h2.111L43.476,6.209z" stroke-width="1"/>
	<path fill="#FFFFFF" d="M49.083,10.799h-0.936V8.968l-2.086-3.766h0.951l1.6,2.726l1.566-2.726h0.959l-2.055,3.733V10.799z" stroke-width="1"/>
	<path fill="#FFFFFF" d="M52.827,6.049v1.512h2.736v0.848h-2.736v1.543h3.15v0.848h-4.094V5.202h3.998v0.847H52.827z" stroke-width="1"/>
	<path fill="#FFFFFF" d="M59.659,9.104c-0.08,0.008-0.168,0.008-0.256,0.008h-1.328v1.688h-0.943V5.202h2.271   c1.432,0,2.254,0.695,2.254,1.91c0,0.896-0.414,1.527-1.158,1.815l1.256,1.871h-1.072L59.659,9.104z M59.403,8.264   c0.863,0,1.359-0.367,1.359-1.127c0-0.735-0.496-1.088-1.359-1.088h-1.328v2.215H59.403z" stroke-width="1"/>
	<path fill="#FFFFFF" d="M66.714,5.737l-0.391,0.832c-0.607-0.368-1.215-0.521-1.639-0.521c-0.553,0-0.912,0.208-0.912,0.584   c0,1.224,3.021,0.567,3.014,2.583c0,0.999-0.879,1.614-2.109,1.614c-0.881,0-1.713-0.359-2.287-0.887l0.406-0.815   c0.576,0.526,1.297,0.815,1.896,0.815c0.654,0,1.047-0.248,1.047-0.68c0-1.247-3.021-0.552-3.021-2.543   c0-0.959,0.822-1.559,2.037-1.559C65.483,5.162,66.194,5.394,66.714,5.737z" stroke-width="1"/>
</g>
</svg>