<svg version="1.1" xmlns="http://www.w3.org/2000/svg" xmlns:xlink="http://www.w3.org/1999/xlink" width="88.71613" height="19.28895" viewBox="0,0,88.71613,19.28895"><g transform="translate(-195.73298,-176.75293)"><g data-paper-data="{&quot;isPaintingLayer&quot;:true}" fill="#000000" fill-rule="nonzero" stroke="none" stroke-width="1" stroke-linecap="butt" stroke-linejoin="miter" stroke-miterlimit="10" stroke-dasharray="" stroke-dashoffset="0" style="mix-blend-mode: normal"><path d="M214.71924,178.14453l1.3916,-1.3916h5.10254v1.85547h-4.1748l-0.23193,0.23193l0.23193,0.23193h2.7832l1.3916,1.3916v1.3916l-1.3916,1.3916h-5.10254v-1.85547h4.1748l0.23193,-0.23193l-0.23193,-0.23193h-2.7832l-1.3916,-1.3916z"/><path d="M223.99659,180.92773v2.31934h-1.85547v-6.49414h1.85547v2.31934h2.7832v-2.31934h1.85547v6.49414h-1.85547v-2.31934z"/><path d="M229.56299,181.85547v-3.71094l1.3916,-1.3916h3.71094l1.3916,1.3916v3.71094l-1.3916,1.3916h-3.71094zM231.41846,179.07226v1.85547l0.46387,0.46387h1.85547l0.46387,-0.46387v-1.85547l-0.46387,-0.46387h-1.85547z"/><path d="M240.92774,178.6084v4.63867h-1.85547v-4.63867h-2.31934v-1.85547h6.49463v1.85547z"/><path d="M243.94287,181.85547v-3.71094l1.3916,-1.3916h3.71094l1.3916,1.3916l-0.92773,0.92773h0.92773v4.1748h-5.10254zM245.79834,179.07226v1.85547l0.46387,0.46387h2.31934v-0.46387h-1.85547v-1.85547h1.85547l-0.46387,-0.46387h-1.85547z"/><path d="M251.36475,181.85547v-5.10254h1.85547v4.1748l0.46387,0.46387h1.85547l0.46484,-0.46387v-4.1748h1.85547v5.10254l-1.39258,1.3916h-3.71094z"/><path d="M260.64209,180v3.24707h-1.85547v-6.49414h1.3916l3.24707,3.24707v-3.24707h1.85547v6.49414h-1.3916z"/><text transform="translate(195.82356,193.55) scale(0.18116,0.19935)" font-size="40" xml:space="preserve" fill="#000000" fill-rule="nonzero" stroke="none" stroke-width="1" stroke-linecap="butt" stroke-linejoin="miter" stroke-miterlimit="10" stroke-dasharray="" stroke-dashoffset="0" font-family="Sans Serif" font-weight="normal" text-anchor="start" style="mix-blend-mode: normal"><tspan x="0" dy="0">Low Range, High damage</tspan></text></g></g></svg>