<svg version="1.1" xmlns="http://www.w3.org/2000/svg" xmlns:xlink="http://www.w3.org/1999/xlink" width="70.46618" height="87.09402" viewBox="0,0,70.46618,87.09402"><defs><linearGradient x1="240" y1="137.46225" x2="240" y2="223.36494" gradientUnits="userSpaceOnUse" id="color-1"><stop offset="0" stop-color="#00aaff" stop-opacity="0.22581"/><stop offset="1" stop-color="#1c26ff"/></linearGradient><linearGradient x1="240" y1="137.46225" x2="240" y2="223.36494" gradientUnits="userSpaceOnUse" id="color-2"><stop offset="0" stop-color="#389eff" stop-opacity="0"/><stop offset="1" stop-color="#389eff"/></linearGradient><linearGradient x1="240" y1="137.46225" x2="240" y2="223.36494" gradientUnits="userSpaceOnUse" id="color-3"><stop offset="0" stop-color="#00aaff" stop-opacity="0.22581"/><stop offset="1" stop-color="#1c26ff"/></linearGradient><linearGradient x1="240" y1="137.46225" x2="240" y2="223.36494" gradientUnits="userSpaceOnUse" id="color-4"><stop offset="0" stop-color="#389eff" stop-opacity="0"/><stop offset="1" stop-color="#389eff"/></linearGradient><linearGradient x1="240" y1="137.46225" x2="240" y2="223.36494" gradientUnits="userSpaceOnUse" id="color-5"><stop offset="0" stop-color="#00aaff" stop-opacity="0.22581"/><stop offset="1" stop-color="#1c26ff"/></linearGradient><linearGradient x1="240" y1="137.46225" x2="240" y2="223.36494" gradientUnits="userSpaceOnUse" id="color-6"><stop offset="0" stop-color="#389eff" stop-opacity="0"/><stop offset="1" stop-color="#389eff"/></linearGradient><linearGradient x1="193.98869" y1="162.31605" x2="150.79411" y2="205.51063" gradientUnits="userSpaceOnUse" id="color-7"><stop offset="0" stop-color="#00aaff" stop-opacity="0.05252"/><stop offset="1" stop-color="#1c26ff"/></linearGradient><linearGradient x1="193.98869" y1="162.31605" x2="150.79411" y2="205.51063" gradientUnits="userSpaceOnUse" id="color-8"><stop offset="0" stop-color="#389eff" stop-opacity="0"/><stop offset="1" stop-color="#389eff"/></linearGradient><linearGradient x1="193.98869" y1="162.31605" x2="150.79411" y2="205.51063" gradientUnits="userSpaceOnUse" id="color-9"><stop offset="0" stop-color="#00aaff" stop-opacity="0.05252"/><stop offset="1" stop-color="#1c26ff"/></linearGradient><linearGradient x1="193.98869" y1="162.31605" x2="150.79411" y2="205.51063" gradientUnits="userSpaceOnUse" id="color-10"><stop offset="0" stop-color="#389eff" stop-opacity="0"/><stop offset="1" stop-color="#389eff"/></linearGradient></defs><g transform="translate(-204.97984,-136.96225)"><g data-paper-data="{&quot;isPaintingLayer&quot;:true}" fill-rule="nonzero" stroke-linecap="butt" stroke-linejoin="miter" stroke-miterlimit="10" stroke-dasharray="" stroke-dashoffset="0" style="mix-blend-mode: normal"><path d="M205.47985,223.36494v-51.54947c0.15976,-0.08346 0.26881,-0.25072 0.26881,-0.44346c0,-0.19273 -0.10905,-0.36 -0.26881,-0.44346v-5.4235c0.09037,0.08964 0.21478,0.14502 0.35212,0.14502c0.27614,0 0.5,-0.22386 0.5,-0.5c0,-0.27614 -0.22386,-0.5 -0.5,-0.5c-0.13734,0 -0.26175,0.05538 -0.35212,0.14502v-27.33284h69.04031l0,28.29013c-0.10048,0.09145 -0.16356,0.2233 -0.16356,0.36988c0,0.14658 0.06307,0.27842 0.16356,0.36988v1.06566c-0.22887,-0.02184 -0.40598,0.15527 -0.40598,0.15527l-0.38887,0.38887c0,0 -0.35355,0.35355 0,0.70711c0.35355,0.35355 0.70711,0 0.70711,0l0.08774,-0.08774v3.12562c-0.01723,-0.0018 -0.03472,-0.00272 -0.05243,-0.00272c-0.03132,0 -0.06197,0.00288 -0.0917,0.00839l0.05638,-0.05638l-0.13603,-0.13603c-0.03174,-0.04978 -0.07492,-0.09709 -0.13367,-0.13367l-0.11917,-0.11917l-0.05584,0.05584c-0.0016,-0.00026 -0.0032,-0.00051 -0.00481,-0.00075c-0.03045,-0.14651 -0.13416,-0.39598 -0.48734,-0.39598c-0.03477,0 -0.06712,0.00242 -0.09722,0.00692c-0.0301,-0.0045 -0.06245,-0.00692 -0.09722,-0.00692c-0.5,0 -0.5,0.5 -0.5,0.5c0.01187,0.09171 0.03439,0.18572 0.06621,0.27914c-0.45508,0.02901 -0.45508,0.4986 -0.45508,0.4986c0.07287,1.48317 1.10985,1.80876 2.10791,1.11901v12.59524c-0.20697,0.0612 -0.35799,0.25273 -0.35799,0.47955c0,0.22681 0.15102,0.41835 0.35799,0.47955v1.81663c-0.1776,0.24955 -0.31796,0.51159 -0.35424,0.7537c-0.13255,0.8845 0.00124,1.32522 0.35424,1.43742v6.53376c-0.06034,0.01409 -0.11614,0.03498 -0.16602,0.06311c-0.02479,-0.05265 -0.06226,-0.10655 -0.11616,-0.16046c-0.35355,-0.35355 -0.70711,0 -0.70711,0c-0.97816,1.08403 -0.46867,2.36721 0.19976,2.81403c-0.08292,0.43648 -0.12131,0.81085 -0.11371,1.03627c0.36863,0.30222 0.66366,0.45919 0.90324,0.50647v21.54647h-14.28131c-0.1534,-0.93076 -0.75701,-1.73875 -1.82971,-1.53743c-0.78278,0.14691 -1.28357,0.83542 -1.44303,1.53743h-6.89961c-0.05224,-0.2203 -0.25024,-0.38419 -0.48652,-0.38419c-0.23628,0 -0.43428,0.16389 -0.48652,0.38419h-2.73899c-0.14529,-0.24211 -0.39547,-0.39921 -0.75586,-0.36981c-0.04506,-0.22984 -0.2476,-0.40325 -0.49065,-0.40325c-0.22492,0 -0.41515,0.14851 -0.47799,0.35282l-0.14008,0.42024zM208.75556,172.23323c-0.09144,-0.11837 -0.23478,-0.19461 -0.39593,-0.19461c-0.22492,0 -0.41515,0.14851 -0.47799,0.35282l-0.1871,0.5613c-0.019,0.05284 -0.02935,0.1098 -0.02935,0.16919c0,0.1068 0.03349,0.20578 0.09053,0.28701c-0.02492,0.03869 -0.04693,0.08436 -0.06487,0.13818c-0.15811,0.47434 0.31623,0.63246 0.31623,0.63246c0.26422,0.03213 0.58569,0.23217 0.83272,0.21388c-0.00525,0.02905 -0.00799,0.05896 -0.00799,0.08952c0,0.27614 0.22386,0.5 0.5,0.5c0.27614,0 0.5,-0.22386 0.5,-0.5c0,-0.27614 -0.22386,-0.5 -0.5,-0.5c-0.04478,0 -0.08819,0.00589 -0.12949,0.01693c0.07024,-0.30978 -0.02046,-0.70049 0.02473,-1.02287l-0.02081,-0.02081c0.02627,-0.0603 0.04226,-0.13373 0.04226,-0.22316c0,-0.46487 -0.4322,-0.49753 -0.49294,-0.49983zM208.47076,169.62209l-0.02566,-0.54699c-0.06481,-0.19444 -0.12962,-0.38887 -0.19444,-0.58331c0,0 -0.15811,-0.47434 -0.63246,-0.31623c-0.47434,0.15811 -0.31623,0.63246 -0.31623,0.63246c0.06481,0.19444 0.12962,0.38887 0.19444,0.58331l-0.02566,0.23076c0,0 0,0.5 0.5,0.5c0.5,0 0.5,-0.5 0.5,-0.5zM206.60971,178.28839c0.27614,0 0.5,-0.22386 0.5,-0.5c0,-0.27614 -0.22386,-0.5 -0.5,-0.5c-0.27614,0 -0.5,0.22386 -0.5,0.5c0,0.27614 0.22386,0.5 0.5,0.5zM206.60971,176.7329c0.27614,0 0.5,-0.22386 0.5,-0.5c0,-0.27614 -0.22386,-0.5 -0.5,-0.5c-0.27614,0 -0.5,0.22386 -0.5,0.5c0,0.27614 0.22386,0.5 0.5,0.5zM223.13673,189.17678c0.27614,0 0.5,-0.22386 0.5,-0.5c0,-0.27614 -0.22386,-0.5 -0.5,-0.5c-0.27614,0 -0.5,0.22386 -0.5,0.5c0,0.27614 0.22386,0.5 0.5,0.5zM206.80414,170.7054c0.27614,0 0.5,-0.22386 0.5,-0.5c0,-0.27614 -0.22386,-0.5 -0.5,-0.5c-0.27614,0 -0.5,0.22386 -0.5,0.5c0,0.27614 0.22386,0.5 0.5,0.5zM263.3849,221.64752c0.27614,0 0.5,-0.22386 0.5,-0.5c0,-0.27614 -0.22386,-0.5 -0.5,-0.5c-0.27614,0 -0.5,0.22386 -0.5,0.5c0,0.27614 0.22386,0.5 0.5,0.5zM210.30398,179.64944c0.27614,0 0.5,-0.22386 0.5,-0.5c0,-0.27614 -0.22386,-0.5 -0.5,-0.5c-0.27614,0 -0.5,0.22386 -0.5,0.5c0,0.27614 0.22386,0.5 0.5,0.5zM271.16232,193.06549c0.27614,0 0.5,-0.22386 0.5,-0.5c0,-0.27614 -0.22386,-0.5 -0.5,-0.5c-0.27614,0 -0.5,0.22386 -0.5,0.5c0,0.27614 0.22386,0.5 0.5,0.5zM251.9132,222.6197c0.27614,0 0.5,-0.22386 0.5,-0.5c0,-0.27614 -0.22386,-0.5 -0.5,-0.5c-0.27614,0 -0.5,0.22386 -0.5,0.5c0,0.27614 0.22386,0.5 0.5,0.5zM247.24675,222.6197c0.27614,0 0.5,-0.22386 0.5,-0.5c0,-0.27614 -0.22386,-0.5 -0.5,-0.5c-0.27614,0 -0.5,0.22386 -0.5,0.5c0,0.27614 0.22386,0.5 0.5,0.5z" fill="url(#color-1)" stroke="url(#color-2)" stroke-width="1"/><path d="" fill="url(#color-3)" stroke="url(#color-4)" stroke-width="1"/><path d="" fill="url(#color-5)" stroke="url(#color-6)" stroke-width="1"/><path d="M205.55705,188.51968l2.05748,1.01104c-1.20547,0.4711 -1.98184,2.81824 -0.66786,3.46987c0.8165,0.40492 1.72905,0.10819 2.05157,-0.60971c0.39068,-0.57074 0.60805,-1.36574 0.33121,-2.01746l65.03859,31.95984l-14.56644,-0.01583c-0.31023,-0.38599 -0.77317,-0.60616 -1.39246,-0.48993c-0.35631,0.06687 -0.65419,0.24596 -0.88805,0.48745l-5.14511,-0.00559c0.024,-0.05849 0.03723,-0.12254 0.03723,-0.18968c0,-0.27614 -0.22386,-0.5 -0.5,-0.5c-0.27614,0 -0.5,0.22386 -0.5,0.5c0,0.06675 0.01308,0.13045 0.03682,0.18867l-3.73846,-0.00406c0.0227,-0.05712 0.03518,-0.1194 0.03518,-0.18461c0,-0.27614 -0.22386,-0.5 -0.5,-0.5c-0.27614,0 -0.5,0.22386 -0.5,0.5c0,0.06482 0.01233,0.12676 0.03478,0.1836l-41.15076,-0.04471l-0.0498,-22.78986c0.52987,-0.10388 0.78461,-0.80601 0.77472,-1.47091c0.03848,-0.1839 0.0185,-0.37737 -0.07785,-0.56336c-0.1131,-0.40163 -0.34849,-0.69805 -0.70281,-0.68607zM263.3849,221.64752c0.27614,0 0.5,-0.22386 0.5,-0.5c0,-0.27614 -0.22386,-0.5 -0.5,-0.5c-0.27614,0 -0.5,0.22386 -0.5,0.5c0,0.27614 0.22386,0.5 0.5,0.5zM208.55406,199.28743c0.27614,0 0.5,-0.22386 0.5,-0.5c0,-0.27614 -0.22386,-0.5 -0.5,-0.5c-0.27614,0 -0.5,0.22386 -0.5,0.5c0,0.27614 0.22386,0.5 0.5,0.5z" fill="url(#color-7)" stroke="url(#color-8)" stroke-width="0.5"/><path d="M205.40265,222.25835l0.22813,0.00025l0.0012,0.54723z" fill="url(#color-9)" stroke="url(#color-10)" stroke-width="0.5"/></g></g></svg>