<svg version="1.1" xmlns="http://www.w3.org/2000/svg" xmlns:xlink="http://www.w3.org/1999/xlink" width="28.521" height="6.262" viewBox="0,0,28.521,6.262"><g transform="translate(-225.74,-176.583)"><g data-paper-data="{&quot;isPaintingLayer&quot;:true}" fill="#000000" fill-rule="nonzero" stroke="none" stroke-width="1" stroke-linecap="butt" stroke-linejoin="miter" stroke-miterlimit="10" stroke-dasharray="" stroke-dashoffset="0" style="mix-blend-mode: normal"><g><path/><path d="M230.841,176.583l1.391,1.342l-1.391,1.341l-0.927,-0.894h-1.855l-0.464,0.447v1.789l0.464,0.448h1.855l0.927,-0.895l1.391,1.342l-1.391,1.342h-3.71l-1.391,-1.342v-3.578l1.391,-1.342z"/><path d="M234.319,176.583h3.71l1.391,1.342v4.92h-1.855v-1.342h-2.782v1.342h-1.855v-4.92zM237.102,178.372h-1.855l-0.464,0.447v0.895h2.782v-0.895z"/><path d="M242.202,179.266v3.579h-1.854v-6.262h1.854l1.392,1.342l1.392,-1.342h1.854v6.262h-1.854v-3.579l-1.392,1.342z"/><path d="M247.768,181.503v-3.578l1.392,-1.342h3.71l1.391,1.342v3.578l-1.391,1.342h-3.71zM249.622,178.819v1.789l0.464,0.448h1.855l0.464,-0.448v-1.789l-0.464,-0.447h-1.855z"/><path/></g></g></g></svg>