<svg version="1.1" xmlns="http://www.w3.org/2000/svg" xmlns:xlink="http://www.w3.org/1999/xlink" width="75.42615" height="19.28895" viewBox="0,0,75.42615,19.28895"><g transform="translate(-202.11203,-176.75292)"><g data-paper-data="{&quot;isPaintingLayer&quot;:true}" fill="#000000" fill-rule="nonzero" stroke="none" stroke-width="1" stroke-linecap="butt" stroke-linejoin="miter" stroke-miterlimit="10" stroke-dasharray="" stroke-dashoffset="0" style="mix-blend-mode: normal"><path d="M221.44556,178.14453l1.3916,-1.3916h5.10254v1.85547h-4.1748l-0.23193,0.23242l0.23193,0.23145h2.7832l1.3916,1.3916v1.3916l-1.3916,1.3916h-5.10254v-1.85547h4.1748l0.23193,-0.23145l-0.23193,-0.23242h-2.7832l-1.3916,-1.3916z"/><path d="M230.7229,180.92775v2.31934h-1.85547v-6.49414h1.85547v2.31934h2.7832v-2.31934h1.85547v6.49414h-1.85547v-2.31934z"/><path d="M238.14477,183.24708h-1.85547v-6.49414h1.85547z"/><path d="M240.92798,181.39161h3.71045v1.85547h-5.56592v-6.49414h5.56592v1.85547h-3.71045v0.46387h3.71045v1.85547h-3.71045z"/><path d="M245.56616,176.75293h1.85547v4.63867h3.71094v1.85547h-5.56641z"/><path d="M252.0603,176.75292h5.10254l1.3916,1.3916v3.71094l-1.3916,1.3916h-5.10254zM253.91577,178.6084v2.7832h2.31934l0.46387,-0.46387v-1.85547l-0.46387,-0.46387h-2.31934z"/><text transform="translate(202.20261,193.55) scale(0.18116,0.19935)" font-size="40" xml:space="preserve" fill="#000000" fill-rule="nonzero" stroke="none" stroke-width="1" stroke-linecap="butt" stroke-linejoin="miter" stroke-miterlimit="10" stroke-dasharray="" stroke-dashoffset="0" font-family="Sans Serif" font-weight="normal" text-anchor="start" style="mix-blend-mode: normal"><tspan x="0" dy="0">Can reflect projectiles</tspan></text></g></g></svg>