<svg version="1.1" xmlns="http://www.w3.org/2000/svg" xmlns:xlink="http://www.w3.org/1999/xlink" width="127.07118" height="19.28894" viewBox="0,0,127.07118,19.28894"><g transform="translate(-176.51203,-176.75293)"><g data-paper-data="{&quot;isPaintingLayer&quot;:true}" fill="#000000" fill-rule="nonzero" stroke="none" stroke-width="1" stroke-linecap="butt" stroke-linejoin="miter" stroke-miterlimit="10" stroke-dasharray="" stroke-dashoffset="0" style="mix-blend-mode: normal"><path d="M216.20777,180.92775v2.31934h-1.85547v-6.49414h1.85547v2.31934h2.7832v-2.31934h1.85547v6.49414h-1.85547v-2.31934z"/><path d="M223.62965,181.39161h3.71094v1.85547h-5.56641v-6.49414h5.56641v1.85547h-3.71094v0.46387h3.71094v1.85547h-3.71094z"/><path d="M229.42798,176.75294h3.71094l1.3916,1.3916v5.10254h-1.85547v-1.3916h-2.7832v1.3916h-1.85548v-5.10254zM232.21119,178.60841h-1.85547l-0.46387,0.46387v0.92773h2.7832v-0.92773z"/><path d="M235.45826,176.75294h1.85547v4.63867h3.71094v1.85547h-5.56641z"/><path d="M244.30884,181.85548v-3.71094l1.3916,-1.3916h3.71094l1.3916,1.3916l-0.92773,0.92773h0.92773v4.1748h-5.10254zM246.1643,179.07228v1.85547l0.46387,0.46387h2.31934v-0.46387h-1.85547v-1.85547h1.85547l-0.46387,-0.46387h-1.85547z"/><path d="M251.73071,181.85548v-5.10254h1.85547v4.1748l0.46387,0.46387h1.85547l0.46387,-0.46387v-4.1748h1.85547v5.10254l-1.39062,1.3916h-3.71191z"/><path d="M261.00904,180.00001v3.24707h-1.85547v-6.49414h1.3916l3.24707,3.24707v-3.24707h1.85547v6.49414h-1.3916z"/><text transform="translate(176.60261,193.55) scale(0.18116,0.19935)" font-size="40" xml:space="preserve" fill="#000000" fill-rule="nonzero" stroke="none" stroke-width="1" stroke-linecap="butt" stroke-linejoin="miter" stroke-miterlimit="10" stroke-dasharray="" stroke-dashoffset="0" font-family="Sans Serif" font-weight="normal" text-anchor="start" style="mix-blend-mode: normal"><tspan x="0" dy="0">Damages enemies while healing you</tspan></text></g></g></svg>