<svg version="1.1" xmlns="http://www.w3.org/2000/svg" xmlns:xlink="http://www.w3.org/1999/xlink" width="70.15969" height="86.90271" viewBox="0,0,70.15969,86.90271"><defs><linearGradient x1="240.00001" y1="137.46225" x2="240.00001" y2="223.36494" gradientUnits="userSpaceOnUse" id="color-1"><stop offset="0" stop-color="#ff5500" stop-opacity="0.24607"/><stop offset="1" stop-color="#ffb21c"/></linearGradient><linearGradient x1="240.00001" y1="137.46225" x2="240.00001" y2="223.36494" gradientUnits="userSpaceOnUse" id="color-2"><stop offset="0" stop-color="#ffc838" stop-opacity="0"/><stop offset="1" stop-color="#ffc838"/></linearGradient></defs><g transform="translate(-204.97985,-136.96225)"><g data-paper-data="{&quot;isPaintingLayer&quot;:true}" fill="url(#color-1)" fill-rule="nonzero" stroke="url(#color-2)" stroke-width="1" stroke-linecap="butt" stroke-linejoin="miter" stroke-miterlimit="10" stroke-dasharray="" stroke-dashoffset="0" style="mix-blend-mode: normal"><path d="M205.47986,223.36494v-51.54947c0.15976,-0.08346 0.26881,-0.25073 0.26881,-0.44346c0,-0.19273 -0.10905,-0.35999 -0.26881,-0.44346v-5.4235c0.09036,0.08964 0.21477,0.14502 0.35212,0.14502c0.27614,0 0.5,-0.22386 0.5,-0.5c0,-0.27614 -0.22386,-0.5 -0.5,-0.5c-0.13735,0 -0.26175,0.05537 -0.35212,0.14502v-27.33284h69.04031v28.29012c-0.10048,0.09145 -0.16355,0.2233 -0.16355,0.36988c0,0.14658 0.06307,0.27842 0.16355,0.36987v1.06566c-0.22887,-0.02185 -0.40598,0.15527 -0.40598,0.15527l-0.38887,0.38887c0,0 -0.35355,0.35355 0,0.70711c0.35355,0.35356 0.70711,0 0.70711,0l0.08774,-0.08774v3.12561c-0.01723,-0.00179 -0.03472,-0.00271 -0.05242,-0.00271c-0.03132,0 -0.06198,0.00288 -0.0917,0.00839l0.05638,-0.05638l-0.13603,-0.13602c-0.03174,-0.04978 -0.07493,-0.09709 -0.13367,-0.13368l-0.11917,-0.11917l-0.05585,0.05585c-0.0016,-0.00026 -0.00319,-0.00051 -0.0048,-0.00075c-0.03046,-0.14651 -0.13416,-0.39597 -0.48734,-0.39597c-0.03476,0 -0.06712,0.00241 -0.09722,0.00691c-0.0301,-0.0045 -0.06245,-0.00691 -0.09722,-0.00691c-0.5,0 -0.5,0.5 -0.5,0.5c0.01187,0.0917 0.03439,0.18571 0.06621,0.27914c-0.45508,0.02901 -0.45508,0.4986 -0.45508,0.4986c0.07287,1.48317 1.10985,1.80875 2.10791,1.11901v12.59525c-0.20697,0.06119 -0.35799,0.25274 -0.35799,0.47955c0,0.22681 0.15102,0.41835 0.35799,0.47955v1.81662c-0.1776,0.24955 -0.31797,0.51159 -0.35424,0.7537c-0.13254,0.8845 0.00124,1.32522 0.35424,1.43742v6.53376c-0.06034,0.01408 -0.11614,0.03498 -0.16602,0.06311c-0.02479,-0.05265 -0.06225,-0.10655 -0.11616,-0.16045c-0.35355,-0.35356 -0.70711,0 -0.70711,0c-0.97816,1.08404 -0.46867,2.3672 0.19976,2.81403c-0.08292,0.43648 -0.12131,0.81085 -0.11371,1.03627c0.36863,0.30221 0.66366,0.45919 0.90323,0.50647v21.54647h-14.28132c-0.1534,-0.93076 -0.75701,-1.73874 -1.8297,-1.53742c-0.78278,0.14691 -1.28357,0.83542 -1.44303,1.53742h-6.89961c-0.05224,-0.2203 -0.25025,-0.38419 -0.48652,-0.38419c-0.23628,0 -0.43427,0.16389 -0.48652,0.38419h-2.739c-0.1453,-0.24212 -0.39547,-0.3992 -0.75586,-0.3698c-0.04506,-0.22985 -0.2476,-0.40326 -0.49065,-0.40326c-0.22492,0 -0.41515,0.14852 -0.47799,0.35282l-0.14007,0.42023zM208.75557,172.23324c-0.09144,-0.11837 -0.23479,-0.19461 -0.39594,-0.19461c-0.22492,0 -0.41515,0.14852 -0.47798,0.35282l-0.1871,0.5613c-0.01899,0.05284 -0.02935,0.10981 -0.02935,0.16919c0,0.1068 0.03349,0.20577 0.09053,0.28701c-0.02492,0.03869 -0.04693,0.08437 -0.06487,0.13818c-0.15812,0.47434 0.31623,0.63245 0.31623,0.63245c0.26422,0.03213 0.58569,0.23217 0.83272,0.21388c-0.00525,0.02904 -0.00799,0.05896 -0.00799,0.08952c0,0.27614 0.22386,0.5 0.5,0.5c0.27614,0 0.5,-0.22386 0.5,-0.5c0,-0.27614 -0.22386,-0.5 -0.5,-0.5c-0.04478,0 -0.08819,0.00589 -0.12949,0.01693c0.07024,-0.30978 -0.02046,-0.7005 0.02473,-1.02287l-0.02081,-0.02081c0.02627,-0.0603 0.04227,-0.13374 0.04227,-0.22316c0,-0.46487 -0.4322,-0.49753 -0.49294,-0.49982zM208.47077,169.62209l-0.02566,-0.54698c-0.06481,-0.19443 -0.12963,-0.38887 -0.19444,-0.5833c0,0 -0.15812,-0.47435 -0.63246,-0.31623c-0.47434,0.15812 -0.31623,0.63246 -0.31623,0.63246c0.06481,0.19443 0.12963,0.38887 0.19444,0.5833l-0.02566,0.23075c0,0 0,0.5 0.5,0.5c0.5,0 0.5,-0.5 0.5,-0.5zM206.60972,178.28839c0.27614,0 0.5,-0.22386 0.5,-0.5c0,-0.27614 -0.22386,-0.5 -0.5,-0.5c-0.27614,0 -0.5,0.22386 -0.5,0.5c0,0.27614 0.22386,0.5 0.5,0.5zM206.60972,176.7329c0.27614,0 0.5,-0.22386 0.5,-0.5c0,-0.27614 -0.22386,-0.5 -0.5,-0.5c-0.27614,0 -0.5,0.22386 -0.5,0.5c0,0.27614 0.22386,0.5 0.5,0.5zM223.13674,189.17678c0.27614,0 0.5,-0.22386 0.5,-0.5c0,-0.27614 -0.22386,-0.5 -0.5,-0.5c-0.27614,0 -0.5,0.22386 -0.5,0.5c0,0.27614 0.22386,0.5 0.5,0.5zM206.80416,170.7054c0.27614,0 0.5,-0.22386 0.5,-0.5c0,-0.27614 -0.22386,-0.5 -0.5,-0.5c-0.27614,0 -0.5,0.22386 -0.5,0.5c0,0.27614 0.22386,0.5 0.5,0.5zM263.38491,221.64753c0.27614,0 0.5,-0.22386 0.5,-0.5c0,-0.27614 -0.22386,-0.5 -0.5,-0.5c-0.27614,0 -0.5,0.22386 -0.5,0.5c0,0.27614 0.22386,0.5 0.5,0.5zM210.304,179.64944c0.27614,0 0.5,-0.22386 0.5,-0.5c0,-0.27614 -0.22386,-0.5 -0.5,-0.5c-0.27614,0 -0.5,0.22386 -0.5,0.5c0,0.27614 0.22386,0.5 0.5,0.5zM271.16234,193.06549c0.27614,0 0.5,-0.22386 0.5,-0.5c0,-0.27614 -0.22386,-0.5 -0.5,-0.5c-0.27614,0 -0.5,0.22386 -0.5,0.5c0,0.27614 0.22386,0.5 0.5,0.5zM251.91321,222.6197c0.27614,0 0.5,-0.22386 0.5,-0.5c0,-0.27614 -0.22386,-0.5 -0.5,-0.5c-0.27614,0 -0.5,0.22386 -0.5,0.5c0,0.27614 0.22386,0.5 0.5,0.5zM247.24676,222.6197c0.27614,0 0.5,-0.22386 0.5,-0.5c0,-0.27614 -0.22386,-0.5 -0.5,-0.5c-0.27614,0 -0.5,0.22386 -0.5,0.5c0,0.27614 0.22386,0.5 0.5,0.5z"/></g></g></svg>