<svg version="1.1" xmlns="http://www.w3.org/2000/svg" xmlns:xlink="http://www.w3.org/1999/xlink" width="125.08702" height="15.83098" viewBox="0,0,125.08702,15.83098"><defs><linearGradient x1="215.88257" y1="179.75603" x2="340.96959" y2="179.75603" gradientUnits="userSpaceOnUse" id="color-1"><stop offset="0" stop-color="#000000" stop-opacity="0.838"/><stop offset="1" stop-color="#000000" stop-opacity="0"/></linearGradient></defs><g transform="translate(-215.88257,-171.84053)"><g data-paper-data="{&quot;isPaintingLayer&quot;:true}" fill-rule="nonzero" stroke="none" stroke-linecap="butt" stroke-linejoin="miter" stroke-miterlimit="10" stroke-dasharray="" stroke-dashoffset="0" style="mix-blend-mode: normal"><path d="M215.88257,187.67151v-15.83098h125.08702v15.83098z" fill="url(#color-1)" stroke-width="0"/><path d="M224.38098,175.7683c0.5,0.2 0.9,0.5 1.1,0.9c0.2,0.4 0.4,0.9 0.4,1.5c0,0.6 -0.1,1 -0.4,1.5c-0.3,0.4 -0.6,0.7 -1.1,1c-0.5,0.2 -1.1,0.3 -1.7,0.3h-1.8v2.2h-1.4v-7.7h3.2c0.6,-0.1 1.2,0.1 1.7,0.3zM223.98099,179.2683c0.3,-0.3 0.5,-0.6 0.5,-1.1c0,-0.5 -0.2,-0.9 -0.5,-1.1c-0.3,-0.3 -0.8,-0.4 -1.4,-0.4h-1.7v3.1h1.7c0.6,-0.1 1.1,-0.2 1.4,-0.5z" fill="#ffffff" stroke-width="1"/><path d="M227.98099,175.36831h1.4v6.5h4v1.2h-5.5v-7.7z" fill="#ffffff" stroke-width="1"/><path d="M240.28101,181.36831h-3.8l-0.8,1.8h-1.5l3.5,-7.7h1.4l3.5,7.7h-1.5zM239.88098,180.16833l-1.5,-3.3l-1.4,3.4h2.9z" fill="#ffffff" stroke-width="1"/><path d="M247.081,180.36831v2.7h-1.4v-2.7l-3,-5h1.5l2.3,3.8l2.3,-3.8h1.4z" fill="#ffffff" stroke-width="1"/></g></g></svg>