<?xml version="1.0" encoding="utf-8"?><!-- Generator: Adobe Illustrator 16.0.0, SVG Export Plug-In . SVG Version: 6.00 Build 0)  --><!DOCTYPE svg PUBLIC "-//W3C//DTD SVG 1.1//EN" "http://www.w3.org/Graphics/SVG/1.1/DTD/svg11.dtd"><svg xmlns="http://www.w3.org/2000/svg" xmlns:xlink="http://www.w3.org/1999/xlink" version="1.1" id="Layer_1" x="0px" y="0px" width="88.78701782226562" height="9.504000663757324" viewBox="-28.119998931884766 6.438999176025391 88.78701782226562 9.504000663757324" enable-background="new 0 0 32 24" xml:space="preserve">
<g>
	<path fill="#FFFFFF" d="M-24.274,7c2.111,0,3.322,1.043,3.322,2.867c0,1.895-1.211,2.998-3.322,2.998h-1.931v2.531h-1.415V7   H-24.274z M-26.206,11.594h1.871c1.295,0,2.027-0.552,2.027-1.691c0-1.103-0.731-1.631-2.027-1.631h-1.871V11.594z" stroke-width="1"/>
	<path fill="#FFFFFF" d="M-14.496,14.112v1.283h-5.049V7h1.415v7.112H-14.496z" stroke-width="1"/>
	<path fill="#FFFFFF" d="M-11.878,13.5l-0.803,1.896h-1.475L-10.451,7H-9l3.67,8.396H-6.84L-7.644,13.5H-11.878z M-9.767,8.511   l-1.583,3.73h3.167L-9.767,8.511z" stroke-width="1"/>
	<path fill="#FFFFFF" d="M-1.355,15.396h-1.403v-2.747L-5.888,7h1.427l2.398,4.09L0.288,7h1.439l-3.083,5.601V15.396z" stroke-width="1"/>
	<path fill="#FFFFFF" d="M4.262,8.271v2.267h4.102v1.271H4.262v2.314h4.726v1.271H2.847V7h5.997v1.271H4.262z" stroke-width="1"/>
	<path fill="#FFFFFF" d="M14.509,12.853c-0.12,0.012-0.252,0.012-0.384,0.012h-1.991v2.531h-1.415V7h3.406   c2.146,0,3.382,1.043,3.382,2.867c0,1.343-0.624,2.291-1.739,2.722l1.882,2.807h-1.606L14.509,12.853z M14.125,11.594   c1.295,0,2.039-0.552,2.039-1.691c0-1.103-0.744-1.631-2.039-1.631h-1.991v3.322H14.125z" stroke-width="1"/>
	<path fill="#FFFFFF" d="M23.186,15.396V8.259h-1.643V7h3.059v8.396H23.186z" stroke-width="1"/>
	<path fill="#FFFFFF" d="M33.073,11.689l-1.428,1.571v2.135H30.23V7h1.415v4.342L35.651,7h1.667l-3.25,3.586l3.466,4.81h-1.703   L33.073,11.689z" stroke-width="1"/>
	<path fill="#FFFFFF" d="M40.262,8.271v2.267h4.102v1.271h-4.102v2.314h4.726v1.271h-6.141V7h5.996v1.271H40.262z" stroke-width="1"/>
	<path fill="#FFFFFF" d="M50.161,15.396h-1.403v-2.747L45.627,7h1.428l2.398,4.09L51.804,7h1.439l-3.082,5.601V15.396z" stroke-width="1"/>
	<path fill="#FFFFFF" d="M60.059,7.804l-0.587,1.247C58.56,8.5,57.648,8.271,57.013,8.271c-0.827,0-1.367,0.312-1.367,0.875   c0,1.835,4.533,0.852,4.521,3.875c0,1.498-1.319,2.422-3.166,2.422c-1.319,0-2.566-0.539-3.431-1.331l0.612-1.224   c0.863,0.792,1.942,1.224,2.842,1.224c0.983,0,1.571-0.372,1.571-1.02c0-1.871-4.533-0.828-4.533-3.814   c0-1.439,1.235-2.339,3.059-2.339C58.212,6.94,59.279,7.288,60.059,7.804z" stroke-width="1"/>
</g>
</svg>