<svg version="1.1" xmlns="http://www.w3.org/2000/svg" xmlns:xlink="http://www.w3.org/1999/xlink" width="127.47995" height="56.94039" viewBox="0,0,127.47995,56.94039"><defs><radialGradient cx="261.70491" cy="182.19651" r="26.49471" gradientUnits="userSpaceOnUse" id="color-1"><stop offset="0" stop-color="#ff66c3" stop-opacity="0.22157"/><stop offset="1" stop-color="#ff66c3" stop-opacity="0"/></radialGradient><radialGradient cx="203.84254" cy="180.28406" r="27.19194" gradientUnits="userSpaceOnUse" id="color-2"><stop offset="0" stop-color="#66d6ff" stop-opacity="0.27127"/><stop offset="1" stop-color="#66d6ff" stop-opacity="0"/></radialGradient><radialGradient cx="246.60594" cy="182.84056" r="27.19194" gradientUnits="userSpaceOnUse" id="color-3"><stop offset="0" stop-color="#66d6ff" stop-opacity="0.27127"/><stop offset="1" stop-color="#66d6ff" stop-opacity="0"/></radialGradient><radialGradient cx="280.12683" cy="180.157" r="23.93821" gradientUnits="userSpaceOnUse" id="color-4"><stop offset="0" stop-color="#66d6ff" stop-opacity="0.27127"/><stop offset="1" stop-color="#66d6ff" stop-opacity="0"/></radialGradient><radialGradient cx="222.42766" cy="181.26687" r="26.49471" gradientUnits="userSpaceOnUse" id="color-5"><stop offset="0" stop-color="#ff66c3" stop-opacity="0.22157"/><stop offset="1" stop-color="#ff66c3" stop-opacity="0"/></radialGradient><linearGradient x1="239.61237" y1="169.87069" x2="239.61237" y2="190.19513" gradientUnits="userSpaceOnUse" id="color-6"><stop offset="0" stop-color="#060e25" stop-opacity="0"/><stop offset="1" stop-color="#060e25"/></linearGradient><linearGradient x1="240.19527" y1="169.91098" x2="240.19527" y2="190.23539" gradientUnits="userSpaceOnUse" id="color-7"><stop offset="0" stop-color="#ffffff"/><stop offset="1" stop-color="#ebeff4"/></linearGradient></defs><g transform="translate(-176.10311,-154.91708)"><g data-paper-data="{&quot;isPaintingLayer&quot;:true}" fill-rule="nonzero" stroke="none" stroke-linecap="butt" stroke-linejoin="miter" stroke-miterlimit="10" stroke-dasharray="" stroke-dashoffset="0" style="mix-blend-mode: normal"><g stroke-width="0"><path d="M234.67675,183.97468c0,-14.63263 11.86209,-26.49471 26.49471,-26.49471c14.63263,0 26.49471,11.86209 26.49471,26.49471c0,14.63263 -11.86209,26.49471 -26.49471,26.49471c-14.63263,0 -26.49471,-11.86209 -26.49471,-26.49471z" fill="url(#color-1)"/><path d="M176.10311,182.10902c0,-15.0177 12.17425,-27.19194 27.19194,-27.19194c15.0177,0 27.19194,12.17425 27.19194,27.19194c0,15.0177 -12.17425,27.19194 -27.19194,27.19194c-15.0177,0 -27.19194,-12.17425 -27.19194,-27.19194z" fill="url(#color-2)"/><path d="M218.86651,184.66553c0,-15.0177 12.17425,-27.19194 27.19194,-27.19194c15.0177,0 27.19194,12.17425 27.19194,27.19194c0,15.0177 -12.17425,27.19194 -27.19194,27.19194c-15.0177,0 -27.19194,-12.17425 -27.19194,-27.19194z" fill="url(#color-3)"/><path d="M255.70664,181.7636c0,-13.22071 10.7175,-23.93821 23.93821,-23.93821c13.22071,0 23.93821,10.7175 23.93821,23.93821c0,13.22071 -10.7175,23.93821 -23.93821,23.93821c-13.22071,0 -23.93821,-10.7175 -23.93821,-23.93821z" fill="url(#color-4)"/><path d="M195.39949,183.04504c0,-14.63263 11.86209,-26.49471 26.49471,-26.49471c14.63263,0 26.49471,11.86209 26.49471,26.49471c0,14.63263 -11.86209,26.49471 -26.49471,26.49471c-14.63263,0 -26.49471,-11.86209 -26.49471,-26.49471z" fill="url(#color-5)"/></g><path d="M290.55241,174.27714v15.96907h-5.28055v-4.35484h-0.03109c0.00404,-0.00547 0.00676,-0.00892 0.0108,-0.01439c-0.04415,-0.01784 -0.08607,-0.03516 -0.13878,-0.05647c0.04325,-0.08671 0.08471,-0.16995 0.13878,-0.27747c-0.14237,-0.05402 -0.27802,-0.10505 -0.47132,-0.17837c0.05003,0.14271 0.0658,0.18779 0.08652,0.24723c-0.08875,-0.02032 -0.15365,-0.03468 -0.20456,-0.04608c0.02162,0.12487 0.04008,0.23137 0.05631,0.32502h-7.36727v4.35484h-5.28057v-15.96808l3.96029,-4.35484h8.9534c0.09644,0.19078 0.19195,0.38054 0.2911,0.57675c0.18296,-0.12931 0.15139,-0.25568 0.04955,-0.41273c-0.03514,-0.05452 -0.07344,-0.10952 -0.11173,-0.16452h1.37838zM273.60361,179.16168c-0.11085,0 -0.20365,0 -0.3127,0c0.01939,-0.28491 -0.18341,-0.19918 -0.30238,-0.22297c-0.04958,-0.00992 -0.11625,0.07926 -0.17485,0.12337c0.36363,-0.1665 0.39515,0.3176 0.63625,0.33694c0.0383,-0.05947 0.08878,-0.13776 0.15365,-0.23734zM274.40252,178.06317c-0.1978,0.3642 -0.1978,0.3642 -0.09056,0.41325c0,0.12834 0,0.23484 0,0.34089c0.03021,0.0005 0.06038,0.001 0.09056,0.0015c0,-0.24823 0,-0.49599 0,-0.75562zM275.2803,178.77021c-0.09822,-0.16797 -0.17301,-0.29579 -0.2807,-0.48012c-0.09373,0.37807 -0.09373,0.37805 0.2807,0.48012zM276.341,181.73573c-0.10365,-0.3201 -0.20727,-0.64015 -0.31089,-0.96025c-0.02883,0.01189 -0.05814,0.02379 -0.08697,0.03566c0.03197,0.08918 0.06354,0.17837 0.10093,0.28491c-0.00316,0.001 -0.04686,0.01337 -0.09011,0.02526c0.12303,0.22642 0.23477,0.43257 0.34698,0.63867c0.01351,-0.00792 0.02702,-0.01584 0.04008,-0.02426zM283.1928,173.98335c-0.05003,0.03171 -0.09777,0.06242 -0.18565,0.11842c0.13743,0.02476 0.27982,0.0976 0.33164,0.05053c0.16041,-0.14618 0.16264,-0.35923 0.07072,-0.58567c-0.37807,0.20663 -0.3947,0.23636 -0.21674,0.4167zM281.29579,170.8573c0.09958,-0.02181 0.16447,-0.03618 0.24964,-0.0545c0.05181,0.19768 0.21312,0.20613 0.43393,0.12634c-0.06218,-0.14815 -0.11804,-0.29086 -0.18519,-0.42712c-0.00902,-0.01882 -0.07479,-0.00395 -0.11445,-0.00445c0.06218,0.17389 -0.08157,0.13676 -0.12708,0.11742c-0.16357,-0.06987 -0.20187,0.03716 -0.25684,0.24231zM280.63566,172.09304c0.11354,0.4281 0.12479,0.43602 0.32172,0.30571c-0.10319,-0.0981 -0.18833,-0.17937 -0.32172,-0.30571zM283.99845,180.52078c-0.0482,-0.10605 -0.0482,-0.10603 -0.38794,0.00595c0.03109,0.10553 0.06173,0.20958 0.09282,0.3166c0.09373,-0.10205 0.1861,-0.20315 0.29514,-0.32257zM285.27187,180.08379v-2.90308l-1.32026,-1.45179h-5.28057l-1.32026,1.45179v2.90308h7.92062zM289.50434,185.63224c0.04777,-0.09068 0.09461,-0.17934 0.14328,-0.27152c-0.0712,-0.0436 -0.13022,-0.07979 -0.18924,-0.11595c0.00043,-0.0015 0.00045,-0.0025 0.00045,-0.00397c0.06758,0 0.13607,0 0.22304,0c-0.05678,-0.17242 -0.10588,-0.32255 -0.15546,-0.47268c-0.0117,0.00197 -0.02298,0.00347 -0.03426,0.00547c-0.01128,0.15558 -0.02253,0.31165 -0.0338,0.46723c-0.00181,0 -0.00407,0 -0.00633,0l0.00585,0.00645c-0.1807,0.06539 -0.17213,0.13923 0.04641,0.38497zM290.07929,189.19083c-0.15727,-0.18384 -0.30506,-0.35773 -0.48395,-0.56733c-0.04777,0.17787 -0.082,0.30373 -0.1158,0.43007c0.01982,0.00695 0.04008,0.01337 0.06038,0.01982c0.02162,-0.07829 0.0437,-0.15608 0.06535,-0.23436c0.02705,-0.0025 0.05452,-0.00495 0.08157,-0.00745c0.01665,0.15113 0.03335,0.30176 0.04686,0.42515c0.12886,-0.02476 0.22442,-0.0431 0.34562,-0.06589zM206.5122,171.8661l2.19261,2.41104v15.96858h-4.83539c-0.0428,-0.06887 -0.08561,-0.13823 -0.12841,-0.2071c-0.00043,0.07434 0.01622,0.14121 0.032,0.2071h-0.34876v-1.41708c0.06984,-0.04755 0.12886,-0.11942 0.17259,-0.23042c0.04686,-0.11942 0.12977,-0.22149 0.19421,-0.33247c0.00723,-0.01237 0.0009,-0.03421 0.0009,-0.06839c-0.04415,0.01339 -0.08426,0.02576 -0.1149,0.03518c-0.13743,-0.26213 0.07569,-0.3711 0.19645,-0.5272c-0.19331,0.00397 -0.27171,0.09266 -0.28118,0.28786c-0.01037,0.21702 -0.06038,0.41126 -0.16807,0.56436v-2.66721h-7.06763c0.02388,-0.17144 0.04912,-0.34586 -0.13926,-0.48904c0.01803,0.13676 0.20099,0.28194 -0.03019,0.38549c-0.00495,0.0025 0.00633,0.04755 0.02165,0.10355h-0.70521v4.35484h-5.28057v-15.96808l3.96033,-4.35484h10.56157l1.6136,1.77436c-0.05272,0.04063 -0.10633,0.07926 -0.16267,0.11247c0.10947,0.02576 0.21626,0.06142 0.31632,0.057zM193.05643,189.56146c-0.10365,0.18134 -0.16626,0.29086 -0.26179,0.45883c0.10365,0 0.25006,0.01042 0.25142,-0.00147c0.01668,-0.13031 0.01037,-0.2636 0.01037,-0.45736zM193.09925,184.43863c-0.12165,-0.19621 -0.23926,-0.38699 -0.32533,-0.5262c-0.08742,0.07434 -0.16897,0.14371 -0.28748,0.24428c0.10859,-0.01732 0.18745,-0.02974 0.27892,-0.0441c0.05857,0.15608 -0.12394,0.57725 0.3339,0.32602zM194.0775,185.99942c-0.06218,-0.12487 -0.12394,-0.24973 -0.18519,-0.37312c-0.08335,0.04013 -0.15096,0.07282 -0.23432,0.11297c0,-0.15408 0,-0.28986 0,-0.42562c-0.02298,-0.00197 -0.04641,-0.00345 -0.06939,-0.00495c-0.03021,0.17639 -0.06038,0.35228 -0.09237,0.5376c0.17304,0.00197 0.29876,0.06937 0.28658,0.30276c0.03154,-0.07929 0.06264,-0.15907 0.10365,-0.2636c0.06625,0.05797 0.11442,0.1001 0.16312,0.14273c0.00902,-0.00942 0.01846,-0.01884 0.02793,-0.02876zM198.15675,180.10111c-0.12708,0.24921 -0.25413,0.49846 -0.38483,0.75462c0.3064,-0.13923 0.30326,-0.47468 0.38483,-0.75462zM203.42469,180.08379v-2.90308l-1.32026,-1.45179h-5.28057l-1.32024,1.45179v2.90308h7.92062zM204.46287,188.82268c-0.09867,-0.44889 -0.18341,-0.83441 -0.26812,-1.2204c-0.01939,0.00197 -0.03873,0.00347 -0.05812,0.00497c0.0338,0.36718 0.06264,0.7348 0.10859,1.09998c0.00495,0.03816 0.11083,0.06145 0.21764,0.11545zM204.71251,186.86501c-0.00043,-0.0431 -0.0063,-0.08621 -0.00676,-0.12931c-0.11354,-0.04261 -0.23432,-0.08621 -0.36589,-0.13476c0,-0.04905 0,-0.0976 0,-0.14668c0,-0.0015 -0.04551,-0.00347 -0.02253,-0.00497c0.01216,0.06342 -0.06623,0.12634 -0.06804,0.11792c0.03245,0.01189 0.05992,0.02181 0.09059,0.03321c0,0.12782 0,0.25618 0,0.38449c-0.05769,0.04063 -0.07075,0.11197 -0.04596,0.23337c0.01532,0.07729 0.04237,0.16152 0.04596,0.24328c0,0 0,0.0005 0,0.00098c0,0.00445 -0.02883,0.00942 0.00226,0.01437c0,-0.00547 -0.00226,-0.0104 -0.00226,-0.01584c0,-0.15855 0,-0.3176 0,-0.47665c0.02838,-0.01982 0.06442,-0.03468 0.11851,-0.03966c0.09011,-0.00842 0.16581,-0.05302 0.25413,-0.07979zM204.91257,173.68751c0.03963,-0.06242 0.11085,-0.12337 0.11311,-0.18729c0.00809,-0.21405 0.02434,-0.43852 -0.02388,-0.64117c-0.05588,-0.23436 0.01668,-0.33149 0.20323,-0.38402c-0.00136,-0.02429 -0.00269,-0.04855 -0.00404,-0.07282c-0.08787,0.00445 -0.17575,0.00894 -0.26405,0.01339c-0.04056,-0.05847 -0.08202,-0.11842 -0.12303,-0.17789c0.09056,0.47765 0.23341,0.94043 0.03875,1.4265c0.01982,0.00792 0.04011,0.01587 0.05992,0.02329zM205.27846,185.43059c-0.01532,0.00892 -0.03875,0.01784 -0.02569,0.02676c-0.00404,0.00695 -0.00766,0.01389 -0.0117,0.02081c0,-0.14913 0,-0.24181 0,-0.24181c0,0 -0.20458,0 -0.21043,0c0.03649,-0.49549 0.07298,-0.61141 0.12075,-0.96172c-0.08742,0.13476 -0.20908,0.16202 -0.21131,0.26707c-0.00809,0.39789 0.02208,0.79672 0.0383,1.19511c0.03245,0.0109 0.0649,0.02231 0.09734,0.03321c0.05543,-0.09713 0.1104,-0.19471 0.16538,-0.29184c0,0.03716 0,0.07481 0,0.11842c0,-0.08918 0.01308,-0.12934 0.0374,-0.166zM205.7151,182.48096c-0.08067,0.34336 -0.36092,0.275 -0.5772,0.35526c0.02838,0.0555 0.05093,0.0996 0.07841,0.1531c0.09822,-0.25518 0.59026,-0.00892 0.4988,-0.50838zM206.37837,188.37724c-0.02117,-0.00197 -0.04192,-0.00347 -0.06309,-0.00545c-0.03245,0.44889 -0.06442,0.89832 -0.09689,1.34774c0.02117,0.00197 0.04237,0.00347 0.06354,0.00545c0.03197,-0.44941 0.06444,-0.89882 0.09644,-1.34771zM225.86631,184.43863l5.28145,5.80613h-1.35992c0,-0.15608 0,-0.3196 0,-0.51531c-0.05362,0.21602 -0.09011,0.3622 -0.12796,0.51531h-0.05766c-0.03109,-0.01832 -0.05814,-0.03421 -0.08247,-0.04858c-0.01037,0.01637 -0.02027,0.03221 -0.03064,0.04858h-6.26242l-4.35099,-4.78441c-0.02431,-0.05452 -0.04955,-0.1095 -0.07479,-0.16402c0.00947,0.03766 0.01848,0.07581 0.02838,0.11347l-0.88317,-0.97117h-1.32024v5.80613h-4.01167c-0.0063,-0.02379 -0.00588,-0.04213 -0.01758,-0.06987c-0.05452,0.02576 -0.10093,0.04758 -0.14825,0.06987h-1.10307v-9.02481c0.09418,-0.04805 0.18881,-0.09663 0.28299,-0.14468c-0.01577,-0.03368 -0.032,-0.06739 -0.04822,-0.10108c-0.07841,0.04558 -0.15636,0.09166 -0.23477,0.13724v-11.18911h14.52143l3.96033,4.35484v5.80661zM226.91935,178.20538c0.03154,0.08918 0.06354,0.17839 0.10093,0.28491c-0.00362,0.001 -0.04732,0.01337 -0.09056,0.02526c0.12303,0.22642 0.23474,0.43257 0.34696,0.63867c0.01351,-0.00792 0.02705,-0.01587 0.04056,-0.02379c-0.10365,-0.3201 -0.20727,-0.64015 -0.31092,-0.96025c-0.02883,0.01189 -0.05814,0.02379 -0.08697,0.03518zM226.25563,176.16447c-0.09822,-0.16797 -0.17304,-0.29581 -0.28073,-0.48012c-0.09373,0.37807 -0.0937,0.37807 0.28073,0.48012zM229.45578,188.74934c0.01082,0.11644 0.04822,0.22989 0.07346,0.33842c0.05769,0.08671 0.11713,0.17589 0.18339,0.27547c0.01037,-0.02874 0.032,-0.05995 0.02883,-0.08768c-0.02162,-0.19968 -0.04282,-0.39986 -0.07841,-0.59707c-0.00585,-0.03171 -0.09373,-0.07729 -0.12391,-0.0639c-0.03963,0.01784 -0.08787,0.09066 -0.08335,0.13476zM217.78842,171.71102c0.04596,0.06539 0.09239,0.13129 0.13833,0.19721c0.06264,-0.0996 0.21448,0.00397 0.26764,-0.15658c0.01982,-0.05995 0.14825,-0.07681 0.29379,-0.14421c-0.02974,-0.04858 -0.09958,-0.21205 -0.12931,-0.20363c-0.21583,0.06145 -0.14599,-0.11397 -0.15365,-0.2101c-0.00495,-0.05847 0.02479,-0.11989 0.03875,-0.18036c-0.02793,-0.00942 -0.05586,-0.01882 -0.08378,-0.02824c-0.03963,0.17044 -0.09285,0.33941 -0.1149,0.51283c-0.02027,0.15705 -0.05317,0.25271 -0.25684,0.21307zM217.75103,172.1872c0.02479,0.2641 0.04955,0.5287 0.07434,0.79278c0.01848,-0.0005 0.03694,-0.0005 0.05543,-0.00098c0,-0.26707 0,-0.53415 0,-0.8012c-0.04325,0.00345 -0.08649,0.00642 -0.12977,0.0094zM214.67525,171.31611c0.07974,0.4192 0.16716,0.48954 0.52135,0.42562c-0.20998,-0.17144 -0.36544,-0.29878 -0.52135,-0.42562zM214.66894,187.18016c-0.03514,-0.19174 -0.07841,-0.38202 -0.10407,-0.57525c-0.02883,-0.219 -0.06804,-0.44247 -0.05407,-0.65999c0.01216,-0.19323 0.04189,-0.19076 -0.0338,-0.33147c-0.10543,0.47023 -0.0392,1.16885 0.19197,1.56673zM214.87757,184.39947c-0.2573,0.05302 -0.51683,0.0986 -0.77232,0.16352c-0.09508,0.02429 -0.17706,0.11197 -0.27216,0.13823c-0.17439,0.04858 -0.35419,0.07284 -0.46951,0.09513c0.05181,0.07184 0.11716,0.16252 0.18836,0.26063c0.0338,-0.02279 0.08109,-0.05402 0.13876,-0.09266c0.05319,0.07134 0.09239,0.12437 0.12484,0.16747c0.07075,-0.0555 0.12798,-0.10205 0.18745,-0.14566c0.05902,-0.0431 0.11987,-0.08374 0.17799,-0.12389c0.25863,0.29581 0.41499,0.26707 0.51098,-0.08374c0.22171,0.05005 0.25594,-0.01239 0.18565,-0.37905zM215.15423,188.87571c0,-0.64017 0,-1.27987 0,-1.92004c0,0.32752 -0.00992,0.65257 -0.00992,0.97761c0,0.3181 -0.01306,0.6357 0.00316,0.95382c0.01622,-0.00397 0.00676,-0.00742 0.00676,-0.01139zM215.23984,176.09113c-0.03335,-0.22299 -0.06218,-0.44644 -0.10319,-0.66743c-0.00856,-0.04658 -0.05362,-0.10158 -0.09415,-0.11942c-0.0338,-0.01487 -0.11716,0.0104 -0.12256,0.03368c-0.01442,0.06045 -0.0162,0.14171 0.01128,0.19226c0.0541,0.0991 0.18384,0.13626 0.19105,0.28094c0.00495,0.0976 0.01984,0.19473 0.03064,0.29234c0.02883,-0.00397 0.05769,-0.00842 0.08697,-0.01239zM215.44352,185.06788c-0.01848,0.0005 -0.0374,0.0015 -0.05588,0.0025c-0.04958,0.30868 -0.0987,0.61788 -0.14825,0.92656c0.02705,0.00397 0.05362,0.00742 0.08021,0.01137c0.04101,-0.31363 0.08245,-0.62728 0.12391,-0.94043zM215.89231,177.98291c0.02479,0.22097 0.0491,0.44149 0.07389,0.66444c0.15953,-0.23239 0.0212,-0.45039 -0.07389,-0.66444zM218.46028,181.06977c-0.01848,-0.45091 0.0383,-0.90327 -0.08064,-1.35516c-0.01489,-0.05498 -0.0712,-0.12389 -0.0712,-0.19126c0,0.51581 0,1.03161 0,1.54742c0,-0.0005 0.1266,-0.0005 0.15184,-0.001zM219.37904,182.90311c0.0117,0.36615 0.12437,0.74522 -0.11357,1.09253c0.31541,-0.32752 0.36049,-0.92161 0.11357,-1.09253zM223.86791,176.43451c0.28794,-0.06292 0.33568,0.34139 0.55739,0.35923c0.03875,-0.05947 0.08923,-0.13776 0.15367,-0.23734c-0.11085,0 -0.20368,0 -0.31272,0c0.01939,-0.28491 -0.18339,-0.19918 -0.30235,-0.22297c-0.03471,-0.00695 -0.0775,0.03418 -0.11987,0.07481l-0.61776,-0.6793h-6.60038v1.54195c-0.08021,0.02379 -0.16041,0.04855 -0.2415,0.06887c-0.15681,0.03963 -0.28208,0.00397 -0.29828,-0.21802c-0.02255,0.00547 -0.04508,0.01087 -0.06761,0.01634c0.01803,0.18531 0.03606,0.37112 0.04734,0.48904c0.11354,-0.05995 0.21854,-0.13179 0.33299,-0.17144c0.07479,-0.02576 0.15141,-0.04508 0.22711,-0.06739v1.24369h1.83528c0,0.25023 0,0.49994 0,0.75015c0.0054,-0.03516 0.01487,-0.06492 0.032,-0.08324c0.22216,-0.24131 0.01442,-0.45089 0.02208,-0.66691h4.71103l1.32024,-1.45179zM225.37831,175.4574c-0.1978,0.3642 -0.1978,0.36418 -0.09059,0.41323c0,0.12834 0,0.23484 0,0.34089c0.03021,0.0005 0.06038,0.001 0.09059,0.0015c0,-0.24773 0,-0.49597 0,-0.75559zM232.46712,169.92232h15.84169v5.80613h-10.56112v1.45179h10.56159v5.8076h-1.19366c0.02208,-0.09316 0.04011,-0.18929 0.06625,-0.27994c-0.04729,0.09218 -0.09553,0.18679 -0.14285,0.27994h-6.53817c0.04056,-0.07729 0.08112,-0.1536 0.12256,-0.23239c-0.0712,-0.0436 -0.13024,-0.07976 -0.18926,-0.11595c0.00043,-0.0015 0.00045,-0.0025 0.00045,-0.00397c0.06758,0 0.13607,0 0.22304,0c-0.05678,-0.17242 -0.10588,-0.32257 -0.15543,-0.4727c-0.0117,0.00197 -0.023,0.00347 -0.03426,0.00545c-0.01128,0.15558 -0.02253,0.31168 -0.0338,0.46725c-0.00181,0 -0.00404,0 -0.0063,0l0.00588,0.00645c-0.16897,0.06145 -0.16538,0.13526 0.01442,0.34534h-2.70042v1.45179h6.94957c-0.07208,0.02529 -0.14192,0.05005 -0.21719,0.07631c0.00585,0.112 0.01173,0.23586 0.01984,0.40333c0.12886,-0.06589 0.23746,-0.12139 0.36544,-0.18681c-0.00809,-0.03271 -0.02479,-0.0996 -0.05274,-0.21108c0.08833,0.06095 0.13248,0.09116 0.17663,0.12139c0.01261,-0.01684 0.02476,-0.03368 0.03742,-0.05053c-0.05947,-0.0555 -0.11578,-0.10802 -0.16445,-0.1531h3.44572v5.80563h-0.12886c-0.00404,-0.04955 -0.00676,-0.09763 -0.01399,-0.14221c-0.00902,-0.05797 -0.02388,-0.11445 -0.03604,-0.17192c-0.03154,0.04163 -0.07569,0.07781 -0.09194,0.12586c-0.01982,0.05897 -0.0338,0.12187 -0.0482,0.18876h-0.65787c0.15187,-0.05452 0.30552,-0.1095 0.49026,-0.17539c-0.11806,-0.08818 -0.18474,-0.13776 -0.26001,-0.19423c-0.10679,0.08421 -0.21764,0.17144 -0.32804,0.25865c0.01622,0.03716 0.03245,0.07382 0.04867,0.11097h-1.78528c0.00495,-0.07729 0.00992,-0.15558 0.01489,-0.23287c-0.03426,0.07979 -0.06713,0.15558 -0.10005,0.23287h-12.94434zM246.61637,189.40391c0.00136,0.13379 0.06758,0.26707 0.10498,0.40034c0.01128,0.00197 0.02208,0.00447 0.03335,0.00645c0.02388,-0.23239 0.0482,-0.46478 0.07346,-0.70707c-0.03197,-0.04063 -0.08067,-0.10258 -0.12482,-0.15855c-0.03154,0.15313 -0.0883,0.30623 -0.08695,0.45883zM246.13558,189.44304c-0.00902,-0.11595 -0.01848,-0.23089 -0.02748,-0.34634c-0.01622,-0.0005 -0.032,-0.0005 -0.04822,-0.001c-0.01848,0.05498 -0.03742,0.11 -0.06442,0.19076c-0.04192,-0.12834 -0.07301,-0.22297 -0.12615,-0.38599c-0.08787,0.40483 -0.0009,0.56486 0.26629,0.54257zM245.24159,188.00712c0.01803,0.13676 0.20097,0.28194 -0.03019,0.38549c-0.01261,0.00547 0.07075,0.26952 0.1095,0.41323c0.02117,-0.00547 0.04192,-0.0109 0.06309,-0.01584c-0.08381,-0.24873 0.15769,-0.55496 -0.1424,-0.78288zM244.97665,187.15785c0.12346,0.05153 0.23341,0.09713 0.34291,0.14271c0.04101,-0.07829 0.08473,-0.16252 0.14958,-0.28689c-0.18474,0.05402 -0.33706,0.0986 -0.49252,0.14418zM243.35268,185.3533c0.07344,0.10308 0.13383,0.18779 0.19376,0.27152c0.1316,-0.24328 0.03828,-0.59607 0.33568,-0.75909c-0.14059,-0.04111 -0.14057,-0.04113 -0.40193,0.50689c-0.03021,-0.04063 -0.05407,-0.07234 -0.08426,-0.11297c-0.02117,0.04658 -0.03875,0.08473 -0.04327,0.09366zM242.51999,188.45158c0.17304,0.00197 0.29874,0.06937 0.28658,0.30276c0.03154,-0.07929 0.06264,-0.15905 0.10365,-0.2636c0.06668,0.05797 0.1149,0.1001 0.16357,0.14271c0.00947,-0.00942 0.01846,-0.01884 0.02793,-0.02824c-0.06175,-0.12487 -0.12394,-0.24973 -0.18519,-0.3731c-0.08335,0.04013 -0.15094,0.07282 -0.23429,0.11297c0,-0.15408 0,-0.28986 0,-0.42562c-0.02298,-0.0015 -0.04641,-0.00345 -0.06939,-0.00495c-0.03021,0.17589 -0.06038,0.35178 -0.09282,0.5371zM241.51019,186.76243c0.10859,-0.01732 0.18745,-0.02974 0.27892,-0.0441c0.05902,0.15608 -0.12346,0.57725 0.3339,0.32605c-0.1212,-0.19621 -0.23881,-0.38699 -0.32488,-0.5262c-0.08742,0.07434 -0.16897,0.14371 -0.28794,0.24428zM240.45534,186.44781c0.01982,0.00695 0.04011,0.01337 0.06038,0.01982c0.02162,-0.07829 0.0437,-0.15608 0.06532,-0.23436c0.02705,-0.0025 0.05452,-0.00495 0.08157,-0.00742c0.01668,0.15113 0.03335,0.30176 0.04686,0.42512c0.12886,-0.02476 0.2244,-0.04261 0.34517,-0.06589c-0.15724,-0.18384 -0.30506,-0.35773 -0.48395,-0.56733c-0.04822,0.17787 -0.082,0.30373 -0.11535,0.43007zM242.84442,180.39444c0.04777,0.02429 0.09101,0.04655 0.13471,0.06887c-0.14014,0.36718 -0.14014,0.36715 0.02569,0.62928c0.10365,-0.20463 0.26089,-0.37805 0.26224,-0.55296c0.00136,-0.20315 -0.22618,-0.18879 -0.38164,-0.20068c-0.00856,-0.0005 -0.01848,0.02429 -0.04099,0.0555zM234.88367,188.91337c-0.03604,-0.00745 -0.07208,-0.01484 -0.10814,-0.02229c-0.04325,0.28936 -0.08607,0.57923 -0.12931,0.86909c0.03559,0.00695 0.07118,0.01337 0.10676,0.01982c0.0437,-0.28886 0.08742,-0.57775 0.13069,-0.86661zM235.84211,183.00518c-0.08833,-0.02032 -0.1532,-0.03471 -0.20411,-0.04608c0.03021,0.17639 0.05678,0.33099 0.07524,0.43652c0.1158,0.02824 0.22934,0.0555 0.35145,0.08523c0.0428,-0.0555 0.0996,-0.12931 0.16224,-0.2106c-0.04415,-0.01784 -0.08607,-0.03518 -0.13881,-0.0565c0.04325,-0.08671 0.08473,-0.16947 0.13881,-0.27747c-0.1424,-0.05402 -0.27804,-0.10505 -0.47135,-0.17837c0.05003,0.14271 0.0658,0.18779 0.08652,0.24726zM235.07788,186.56228c-0.10724,0.08621 -0.15365,0.12387 -0.21222,0.17094c-0.05319,-0.14568 -0.09779,-0.26707 -0.13338,-0.36368c-0.05091,0.0986 -0.09777,0.18976 -0.11625,0.22544c0.11311,0.11792 0.23206,0.24279 0.39967,0.41868c0.02162,-0.1546 0.03787,-0.2745 0.06218,-0.45139zM234.58629,177.92099c0.03109,0.10553 0.06173,0.20958 0.09282,0.31662c0.09373,-0.10205 0.18612,-0.20315 0.2956,-0.32257c-0.04867,-0.10605 -0.04867,-0.10603 -0.38842,0.00595zM234.16814,171.37756c-0.05003,0.03171 -0.09777,0.06242 -0.18565,0.11842c0.13743,0.02476 0.27982,0.09763 0.33164,0.05055c0.16041,-0.14618 0.16267,-0.35923 0.07075,-0.58567c-0.37807,0.20663 -0.39427,0.23684 -0.21674,0.4167zM264.14914,174.28905v-4.36674h5.28057v20.32344h-3.96031l-2.42467,-2.66621c0.05317,-0.03863 0.10724,-0.07531 0.15953,-0.11147c0.25863,0.29581 0.41499,0.26707 0.51098,-0.08374c0.22216,0.05053 0.25596,-0.01239 0.18519,-0.37905c-0.2573,0.05302 -0.51683,0.0986 -0.77234,0.16352c-0.09506,0.02429 -0.17663,0.112 -0.27216,0.13826c-0.01665,0.00445 -0.03245,0.00695 -0.04912,0.0109l-2.94152,-3.23455c0.26224,-0.13426 0.52404,-0.26805 0.78628,-0.40233c-0.01577,-0.03368 -0.032,-0.06739 -0.04822,-0.10108c-0.25998,0.1521 -0.52044,0.30423 -0.78043,0.45633l-3.59442,-3.95251v10.16047h-3.00144c-0.00271,-0.01189 -0.00542,-0.02476 -0.00811,-0.03666c-0.01939,0.00197 -0.03875,0.00345 -0.05814,0.00495c0.0009,0.0109 0.00181,0.02131 0.00271,0.03221h-2.21559v-20.32292h3.96031l2.92304,3.21423c-0.19602,0.03716 -0.39111,0.07382 -0.60021,0.11395c0.05947,0.13526 0.08561,0.19573 0.13788,0.31465c0.15187,-0.17389 0.31315,-0.30868 0.49071,-0.39789l6.28989,6.91651v-1.63263c0.0063,0.08671 0.01801,0.17244 0.02748,0.25863c0.02883,-0.00397 0.05769,-0.00842 0.08652,-0.01237c-0.03335,-0.22299 -0.06218,-0.44646 -0.10317,-0.66743c-0.00133,-0.00695 -0.00811,-0.01387 -0.01082,-0.02129v-3.65025c0.02298,-0.00345 0.04506,-0.00547 0.0712,-0.01042c-0.0266,-0.02181 -0.04596,-0.03813 -0.0712,-0.05845zM253.71871,189.33999c-0.13969,-0.05203 -0.27352,-0.10405 -0.4452,-0.16797c0.00181,0.00892 -0.09958,-0.05452 -0.11176,-0.11794c-0.02255,0.0015 -0.15727,0.00347 -0.15727,0.00497c0,0.33592 0,0.67236 0,1.0088c0,0.00495 0.15094,0.00992 0.18248,0.01437c0,-0.08671 0.05814,-0.17639 0.04146,-0.25913c-0.03694,-0.18134 0.0446,-0.25765 0.20953,-0.27302c0.08968,-0.00842 0.18791,-0.05302 0.27623,-0.08124c-0.00043,-0.04261 0.00495,-0.08571 0.00452,-0.12881zM253.87686,176.26949c0.02027,0.00792 0.04011,0.01584 0.06038,0.02379c0.03963,-0.06242 0.11085,-0.12337 0.11311,-0.18729c0.00809,-0.21405 0.02434,-0.43849 -0.02388,-0.64115c-0.05588,-0.23436 0.01668,-0.33149 0.20323,-0.38402c-0.00136,-0.02429 -0.00271,-0.04855 -0.00407,-0.07282c-0.08787,0.00445 -0.17573,0.00892 -0.26405,0.01337c-0.04056,-0.05847 -0.08202,-0.11842 -0.12303,-0.17789c0.09056,0.47765 0.23296,0.94093 0.0383,1.42603zM254.27698,188.06262c-0.02072,-0.01387 -0.12527,-0.02824 -0.14599,-0.04261c-0.02928,0.03716 0.17844,0.07531 -0.13562,0.15907c-0.00766,-0.15508 -0.01487,-0.31018 -0.02117,-0.46526c0.04101,0 0.08383,0 0.08067,0c0.03694,-0.49549 0.07344,-0.54752 0.1212,-0.89832c-0.08742,0.13526 -0.20908,0.22644 -0.21134,0.33147c-0.00404,0.18876 0.00181,0.37807 0.00947,0.56686c-0.03471,0 -0.06851,0 -0.06851,0c0,0 0,0.26855 0,0.48854c0.03649,-0.00842 0.06173,-0.01537 0.08968,-0.02279c0.00271,0.05452 0.0054,0.1085 0.00766,0.16302c0.03245,0.0109 0.06487,0.02229 0.09732,0.03318c0.05902,-0.10455 0.11806,-0.2086 0.17663,-0.31315zM254.73931,185.0867c-0.08067,0.34336 -0.36092,0.275 -0.57723,0.35526c0.02838,0.0555 0.05093,0.09963 0.07841,0.15313c0.09822,-0.25518 0.59029,-0.00894 0.49882,-0.50838zM257.24595,173.54283c-0.05272,-0.06887 -0.09822,-0.12834 -0.14958,-0.19573c-0.22756,0.10355 -0.43259,0.19623 -0.64212,0.29136c0.02072,0.03368 0.03109,0.04658 0.03785,0.06192c0.00809,0.01732 0.01261,0.03668 0.01622,0.04708c-0.57361,-0.08473 -0.87325,0.42167 -1.28824,0.66741c0.21943,0.05105 0.42715,0.14318 0.59478,-0.12981c0.07344,-0.11992 0.23658,-0.18284 0.36858,-0.24776c0.35012,-0.17144 0.70607,-0.32949 1.06251,-0.49449zM266.90501,174.78355c-0.04325,0.00297 -0.08652,0.00645 -0.12977,0.00942c0.02479,0.2641 0.04958,0.52868 0.07436,0.79278c0.01848,-0.0005 0.03694,-0.00048 0.05543,-0.001c0,-0.26707 0,-0.53415 0,-0.8012zM267.47186,182.31991c-0.01442,-0.05498 -0.0482,-0.12437 -0.0482,-0.19126c0,0.51581 0,1.03161 0,1.54742c0,0 0.08112,-0.0005 0.10633,-0.0005c-0.01848,-0.45091 0.06083,-0.90327 -0.05814,-1.35564zM268.28969,186.60143c0.31541,-0.32702 0.36049,-0.92111 0.11357,-1.09253c0.01216,0.36615 0.12482,0.74522 -0.11357,1.09253zM267.82512,187.90209c0.07434,0.29084 0.15322,0.58023 0.2199,0.87306c0.01803,0.07879 -0.0054,0.16847 -0.00316,0.2532c0.00856,0.29581 0.02027,0.5921 0.03064,0.88791c0.03694,-0.18929 0.00271,-0.38202 0.04327,-0.55396c0.12753,-0.54307 -0.07931,-1.00138 -0.29065,-1.46019zM267.54846,181.16643c-0.02072,0.0005 -0.04192,0.0015 -0.06306,0.00197c0,0.27302 0,0.54602 0,0.81951c0.0054,-0.03516 0.01487,-0.06492 0.03197,-0.08324c0.24692,-0.26805 -0.03966,-0.49697 0.03109,-0.73828zM266.81264,174.31679c0.04596,0.06539 0.09192,0.13129 0.13833,0.19721c0.06264,-0.0996 0.21448,0.00397 0.26764,-0.15658c0.01982,-0.05995 0.14825,-0.07681 0.29379,-0.14418c-0.02974,-0.04858 -0.09958,-0.21207 -0.12931,-0.20365c-0.21583,0.06145 -0.14599,-0.11397 -0.15365,-0.21008c-0.00495,-0.05847 0.02479,-0.11989 0.03878,-0.18036c-0.02793,-0.00942 -0.05588,-0.01884 -0.08381,-0.02824c-0.03966,0.17044 -0.09285,0.33941 -0.1149,0.51283c-0.01982,0.15705 -0.05317,0.25221 -0.25684,0.21305zM266.65268,170.51491c0.0117,0.17192 0.0266,0.38499 0.04146,0.59807c0.05857,-0.04608 0.06535,-0.08768 0.0649,-0.12931c-0.00043,-0.05105 -0.02614,-0.11495 -0.00676,-0.1511c0.14149,-0.2651 0.14418,-0.2631 0.07929,-0.53959c-0.05272,0.06539 -0.10771,0.13379 -0.17889,0.22199zM265.04267,179.74388c0.01803,0.18531 0.03606,0.37112 0.04732,0.48904c0.11354,-0.05995 0.21852,-0.13181 0.33297,-0.17144c0.21854,-0.07581 0.44251,-0.13231 0.6642,-0.19721c-0.00271,-0.01982 -0.00588,-0.04013 -0.00856,-0.05995c-0.04415,-0.00495 -0.09147,-0.02379 -0.13248,-0.01289c-0.17979,0.04708 -0.3569,0.10802 -0.53712,0.1536c-0.15681,0.03963 -0.28206,0.00395 -0.29828,-0.21802c-0.02253,0.00547 -0.04508,0.0109 -0.06804,0.01684zM264.91697,180.58868c0.02479,0.22097 0.04912,0.44147 0.07391,0.66444c0.15907,-0.23239 0.02072,-0.45089 -0.07391,-0.66444zM264.26358,188.60269c0.02705,0.00397 0.05364,0.00742 0.08021,0.01139c0.04146,-0.31315 0.08245,-0.6268 0.12391,-0.94043c-0.01848,0.0005 -0.0374,0.0015 -0.05588,0.0025c-0.04912,0.30868 -0.09867,0.61788 -0.14825,0.92656z" fill="#ff28d1" stroke-width="1"/><path d="M289.77705,174.22605v15.96907h-5.28057v-4.35484h-0.03109c0.00404,-0.00547 0.00676,-0.0089 0.01082,-0.01437c-0.04415,-0.01784 -0.08607,-0.03518 -0.13878,-0.0565c0.04325,-0.08671 0.08471,-0.16995 0.13878,-0.27747c-0.1424,-0.05402 -0.27804,-0.10505 -0.47135,-0.17837c0.05003,0.14271 0.0658,0.18779 0.08654,0.24726c-0.08875,-0.02032 -0.15367,-0.03468 -0.20458,-0.04608c0.02162,0.12487 0.04011,0.23139 0.05633,0.32505h-7.3673v4.35484h-5.28057v-15.96808l3.96031,-4.35486h8.9534c0.09641,0.19078 0.19195,0.38054 0.2911,0.57675c0.18296,-0.12931 0.15139,-0.25568 0.04955,-0.41275c-0.03514,-0.05452 -0.07344,-0.1095 -0.11173,-0.1645h1.37838zM272.82822,179.11057c-0.11085,0 -0.20365,0 -0.3127,0c0.01939,-0.28491 -0.18341,-0.1992 -0.30235,-0.22297c-0.04958,-0.00992 -0.11628,0.07926 -0.17485,0.12337c0.36363,-0.1665 0.39517,0.31762 0.63625,0.33696c0.0383,-0.05947 0.08875,-0.13776 0.15365,-0.23734zM273.62714,178.01206c-0.1978,0.3642 -0.1978,0.36418 -0.09056,0.41323c0,0.12834 0,0.23486 0,0.34089c0.03021,0.0005 0.06038,0.00098 0.09056,0.00147c0,-0.24823 0,-0.49597 0,-0.75562zM274.50491,178.71913c-0.09822,-0.16797 -0.17304,-0.29581 -0.28073,-0.48012c-0.09373,0.37807 -0.09373,0.37807 0.28073,0.48012zM275.56561,181.6846c-0.10365,-0.3201 -0.20727,-0.64015 -0.31092,-0.96025c-0.02883,0.01189 -0.05814,0.02379 -0.08697,0.03566c0.03197,0.08918 0.06356,0.17837 0.10096,0.28491c-0.00316,0.001 -0.04686,0.01337 -0.09013,0.02526c0.12301,0.22642 0.23477,0.43257 0.34698,0.63867c0.01351,-0.00792 0.02702,-0.01584 0.04008,-0.02426zM282.41742,173.93222c-0.05003,0.03171 -0.09777,0.06244 -0.18565,0.11844c0.13743,0.02476 0.27982,0.0976 0.33164,0.05053c0.16041,-0.14618 0.16267,-0.35921 0.07075,-0.58567c-0.37807,0.20663 -0.39472,0.23634 -0.21676,0.4167zM280.5204,170.8062c0.09958,-0.02181 0.16447,-0.03618 0.24964,-0.0545c0.05181,0.19768 0.21314,0.20613 0.43393,0.12634c-0.06218,-0.14815 -0.11806,-0.29084 -0.18519,-0.4271c-0.00902,-0.01882 -0.07479,-0.00397 -0.11445,-0.00447c0.06218,0.17389 -0.08157,0.13676 -0.12708,0.11744c-0.16357,-0.06987 -0.20187,0.03716 -0.25684,0.24231zM279.86026,172.04194c0.11354,0.4281 0.12479,0.43602 0.32172,0.30571c-0.10319,-0.0981 -0.18833,-0.17937 -0.32172,-0.30571zM283.22309,180.46968c-0.0482,-0.10605 -0.04822,-0.10603 -0.38797,0.00595c0.03109,0.10553 0.06173,0.20958 0.09282,0.31662c0.09373,-0.10205 0.1861,-0.20318 0.29514,-0.32257zM284.49647,180.03266v-2.90305l-1.32024,-1.45179h-5.28057l-1.32024,1.45179v2.90305h7.92062zM288.72896,185.58111c0.04777,-0.09068 0.09461,-0.17937 0.1433,-0.27152c-0.0712,-0.0436 -0.13022,-0.07976 -0.18924,-0.11595c0.00043,-0.0015 0.00045,-0.0025 0.00045,-0.00397c0.06758,0 0.13607,0 0.22304,0c-0.05678,-0.17242 -0.10588,-0.32255 -0.15546,-0.47268c-0.0117,0.00197 -0.02298,0.00347 -0.03426,0.00547c-0.01128,0.15558 -0.02253,0.31165 -0.0338,0.46723c-0.00181,0 -0.00404,0 -0.0063,0l0.00585,0.00645c-0.1807,0.06539 -0.17211,0.13923 0.04644,0.38497zM289.30392,189.13973c-0.15727,-0.18384 -0.30506,-0.35773 -0.48395,-0.56733c-0.04777,0.17787 -0.082,0.30376 -0.1158,0.4301c0.01982,0.00695 0.04011,0.01337 0.06038,0.01982c0.02162,-0.07829 0.0437,-0.15608 0.06532,-0.23436c0.02705,-0.0025 0.05452,-0.00495 0.08157,-0.00745c0.01665,0.15113 0.03335,0.30176 0.04686,0.42515c0.12886,-0.02476 0.22442,-0.0431 0.34562,-0.06589zM205.73682,171.81502l2.19261,2.41104v15.9686h-4.83539c-0.0428,-0.06887 -0.08559,-0.13826 -0.12841,-0.20713c-0.00043,0.07434 0.01622,0.14121 0.03197,0.20713h-0.34876v-1.4171c0.06984,-0.04755 0.12889,-0.11942 0.17259,-0.23042c0.04686,-0.11942 0.12977,-0.22149 0.19421,-0.33247c0.00723,-0.01237 0.0009,-0.03421 0.0009,-0.06839c-0.04415,0.01339 -0.08426,0.02576 -0.1149,0.03518c-0.13743,-0.26213 0.07569,-0.3711 0.19645,-0.5272c-0.19331,0.00397 -0.27171,0.09266 -0.28118,0.28786c-0.01037,0.21702 -0.06038,0.41126 -0.16809,0.56436v-2.66721h-7.06763c0.02388,-0.17144 0.04912,-0.34586 -0.13923,-0.48904c0.01803,0.13676 0.20097,0.28194 -0.03021,0.38549c-0.00495,0.0025 0.00633,0.04755 0.02165,0.10355h-0.70521v4.35484h-5.28057v-15.96808l3.96031,-4.35484h10.56157l1.61357,1.77434c-0.05272,0.04063 -0.10633,0.07926 -0.16267,0.11247c0.10947,0.02576 0.21626,0.06142 0.31632,0.057zM192.28107,189.51035c-0.10365,0.18134 -0.16626,0.29086 -0.26179,0.45883c0.10365,0 0.25006,0.0104 0.25142,-0.0015c0.01668,-0.13031 0.01037,-0.2636 0.01037,-0.45733zM192.32386,184.3875c-0.12165,-0.19621 -0.23926,-0.38697 -0.32533,-0.5262c-0.08742,0.07434 -0.16897,0.14368 -0.28748,0.24426c0.10859,-0.01732 0.18745,-0.02974 0.27892,-0.0441c0.05857,0.15608 -0.12391,0.57723 0.3339,0.32602zM193.30212,185.94829c-0.06218,-0.12487 -0.12394,-0.24973 -0.18519,-0.37312c-0.08335,0.04013 -0.15096,0.07284 -0.23432,0.11297c0,-0.15408 0,-0.28986 0,-0.42562c-0.02298,-0.00197 -0.04641,-0.00345 -0.06939,-0.00495c-0.03021,0.17639 -0.06038,0.35228 -0.09237,0.53762c0.17304,0.00197 0.29876,0.06937 0.28658,0.30273c0.03154,-0.07929 0.06264,-0.15905 0.10365,-0.26358c0.06625,0.05797 0.11442,0.1001 0.16309,0.14271c0.00902,-0.00942 0.01848,-0.01884 0.02795,-0.02876zM197.38137,180.05002c-0.12708,0.24921 -0.25413,0.49846 -0.3848,0.75462c0.3064,-0.13923 0.30326,-0.47468 0.3848,-0.75462zM202.64933,180.03266v-2.90305l-1.32026,-1.45179h-5.28057l-1.32026,1.45179v2.90305h7.92062zM203.68751,188.7716c-0.09867,-0.44889 -0.18339,-0.83441 -0.2681,-1.22037c-0.01939,0.00197 -0.03875,0.00347 -0.05812,0.00495c0.0338,0.36718 0.06264,0.7348 0.10859,1.09998c0.00495,0.03816 0.11083,0.06145 0.21764,0.11545zM203.93714,186.81393c-0.00043,-0.0431 -0.0063,-0.08623 -0.00676,-0.12934c-0.11354,-0.04261 -0.23432,-0.08621 -0.36589,-0.13476c0,-0.04905 0,-0.0976 0,-0.14668c0,-0.0015 -0.04551,-0.00347 -0.02253,-0.00495c0.01216,0.06342 -0.06623,0.12634 -0.06804,0.11794c0.03245,0.01189 0.05992,0.02179 0.09056,0.03318c0,0.12782 0,0.25618 0,0.38452c-0.05769,0.04063 -0.07075,0.11197 -0.04596,0.23337c0.01532,0.07729 0.04237,0.16152 0.04596,0.24328c0,0 0,0.0005 0,0.00098c0,0.00445 -0.02883,0.00942 0.00226,0.01439c0,-0.00547 -0.00226,-0.01042 -0.00226,-0.01587c0,-0.15855 0,-0.3176 0,-0.47665c0.02838,-0.01982 0.06442,-0.03468 0.11851,-0.03963c0.09011,-0.00842 0.16581,-0.05302 0.25413,-0.07979zM204.13721,173.63643c0.03963,-0.06242 0.11083,-0.12337 0.11309,-0.18729c0.00809,-0.21405 0.02434,-0.43852 -0.02388,-0.64117c-0.05588,-0.23436 0.0167,-0.33147 0.20325,-0.38399c-0.00136,-0.02429 -0.00271,-0.04858 -0.00407,-0.07284c-0.08787,0.00445 -0.17575,0.00894 -0.26405,0.01339c-0.04056,-0.05847 -0.08202,-0.11842 -0.12303,-0.17789c0.09056,0.47765 0.23341,0.94043 0.03875,1.4265c0.01982,0.00792 0.04011,0.01587 0.05992,0.02329zM204.5031,185.37948c-0.01532,0.00892 -0.03875,0.01784 -0.02569,0.02676c-0.00404,0.00695 -0.00766,0.01387 -0.0117,0.02081c0,-0.14913 0,-0.24179 0,-0.24179c0,0 -0.20458,0 -0.21043,0c0.03649,-0.49549 0.07301,-0.61141 0.12077,-0.96172c-0.08742,0.13476 -0.2091,0.16202 -0.21134,0.26705c-0.00809,0.39789 0.02208,0.79675 0.0383,1.19511c0.03245,0.0109 0.0649,0.02231 0.09734,0.03321c0.05543,-0.09713 0.1104,-0.19471 0.16538,-0.29184c0,0.03716 0,0.07481 0,0.11842c0,-0.08918 0.01308,-0.12934 0.0374,-0.166zM204.93971,182.42985c-0.08067,0.34336 -0.36092,0.275 -0.57723,0.35526c0.02838,0.0555 0.05093,0.0996 0.07841,0.1531c0.09822,-0.25518 0.59029,-0.00892 0.49882,-0.50838zM205.60301,188.32614c-0.02117,-0.00197 -0.04192,-0.00347 -0.06309,-0.00545c-0.03245,0.44889 -0.06442,0.89832 -0.09687,1.34774c0.02117,0.00197 0.04234,0.00345 0.06352,0.00545c0.03197,-0.44941 0.06444,-0.89882 0.09644,-1.34771zM225.09092,184.3875l5.28145,5.80613h-1.35992c0,-0.15608 0,-0.3196 0,-0.51531c-0.05362,0.21602 -0.09011,0.3622 -0.12796,0.51531h-0.05766c-0.03109,-0.01832 -0.05814,-0.03418 -0.08247,-0.04855c-0.01037,0.01637 -0.02027,0.03219 -0.03064,0.04855h-6.26242l-4.35099,-4.78441c-0.02431,-0.05452 -0.04955,-0.1095 -0.07479,-0.16402c0.00947,0.03766 0.01848,0.07581 0.02838,0.11347l-0.88317,-0.97117h-1.32026v5.80613h-4.01167c-0.0063,-0.02379 -0.00588,-0.04213 -0.01758,-0.06987c-0.05452,0.02576 -0.10093,0.04758 -0.14825,0.06987h-1.10307v-9.02481c0.09418,-0.04805 0.18879,-0.09663 0.28296,-0.14468c-0.01577,-0.03368 -0.032,-0.06739 -0.04822,-0.10108c-0.07841,0.04558 -0.15634,0.09166 -0.23474,0.13726v-11.18911h14.52143l3.96031,4.35482v5.80663zM226.14397,178.15427c0.03154,0.08918 0.06354,0.17839 0.10093,0.28491c-0.00362,0.001 -0.04732,0.01337 -0.09056,0.02526c0.12303,0.22642 0.23474,0.43257 0.34696,0.63867c0.01351,-0.00792 0.02705,-0.01584 0.04056,-0.02379c-0.10365,-0.3201 -0.20727,-0.64015 -0.31092,-0.96025c-0.02883,0.01189 -0.05814,0.02379 -0.08697,0.03518zM225.48024,176.11336c-0.09822,-0.16797 -0.17301,-0.29581 -0.28073,-0.48015c-0.09373,0.37807 -0.09373,0.37807 0.28073,0.48015zM228.68039,188.69826c0.01082,0.11644 0.04822,0.22989 0.07346,0.33842c0.05769,0.08671 0.11713,0.17592 0.18339,0.27549c0.01037,-0.02874 0.032,-0.05995 0.02883,-0.08771c-0.02162,-0.19968 -0.04282,-0.39986 -0.07841,-0.59704c-0.00585,-0.03171 -0.09373,-0.07731 -0.12394,-0.06392c-0.03963,0.01784 -0.08785,0.09066 -0.08335,0.13476zM217.01306,171.65992c0.04596,0.06539 0.09239,0.13129 0.13833,0.19718c0.06264,-0.0996 0.21448,0.00397 0.26764,-0.15655c0.01982,-0.05995 0.14825,-0.07681 0.29379,-0.14421c-0.02974,-0.04858 -0.0996,-0.21207 -0.12931,-0.20365c-0.21583,0.06145 -0.14599,-0.11397 -0.15365,-0.21008c-0.00495,-0.05847 0.02479,-0.11989 0.03875,-0.18036c-0.02793,-0.00942 -0.05588,-0.01882 -0.08381,-0.02824c-0.03963,0.17044 -0.09285,0.33941 -0.1149,0.51283c-0.02027,0.15705 -0.05317,0.25271 -0.25684,0.21307zM216.97567,172.13607c0.02479,0.2641 0.04955,0.5287 0.07434,0.79278c0.01848,-0.0005 0.03694,-0.0005 0.05543,-0.00098c0,-0.26707 0,-0.53415 0,-0.8012c-0.04325,0.00345 -0.08652,0.00642 -0.12977,0.0094zM213.89986,171.26503c0.07974,0.4192 0.16719,0.48954 0.52135,0.42562c-0.20998,-0.17144 -0.36544,-0.29878 -0.52135,-0.42562zM213.89356,187.12903c-0.03514,-0.19174 -0.07838,-0.38202 -0.10407,-0.57525c-0.02883,-0.219 -0.06804,-0.44247 -0.0541,-0.65999c0.01216,-0.19323 0.04189,-0.19076 -0.0338,-0.33147c-0.10543,0.47023 -0.0392,1.16885 0.19195,1.56673zM214.10218,184.34837c-0.2573,0.05302 -0.51683,0.0986 -0.77232,0.16352c-0.09508,0.02429 -0.17708,0.11197 -0.27216,0.13823c-0.17439,0.04858 -0.35416,0.07282 -0.46951,0.09513c0.05181,0.07184 0.11713,0.16252 0.18833,0.26063c0.0338,-0.02279 0.08109,-0.05402 0.13878,-0.09266c0.05319,0.07134 0.09237,0.12437 0.12482,0.16747c0.07075,-0.0555 0.12796,-0.10208 0.18745,-0.14568c0.05902,-0.0431 0.11987,-0.08374 0.17799,-0.12389c0.25863,0.29581 0.41499,0.26707 0.51098,-0.08374c0.22171,0.05005 0.25594,-0.01239 0.18567,-0.37905zM214.37884,188.8246c0,-0.64017 0,-1.27984 0,-1.92002c0,0.32752 -0.00992,0.65254 -0.00992,0.97759c0,0.3181 -0.01306,0.6357 0.00316,0.95382c0.01622,-0.00397 0.00676,-0.00742 0.00676,-0.01139zM214.46448,176.04002c-0.03335,-0.22299 -0.06218,-0.44644 -0.10319,-0.66741c-0.00856,-0.04658 -0.05362,-0.10158 -0.09418,-0.11942c-0.0338,-0.01487 -0.11716,0.0104 -0.12256,0.03368c-0.01442,0.06045 -0.0162,0.14171 0.01128,0.19226c0.0541,0.0991 0.18384,0.13626 0.19107,0.28094c0.00495,0.0976 0.01982,0.19473 0.03064,0.29234c0.02883,-0.00397 0.05769,-0.00842 0.08697,-0.01239zM214.66814,185.01678c-0.01848,0.0005 -0.0374,0.00147 -0.05588,0.00247c-0.04958,0.30868 -0.09867,0.61788 -0.14823,0.92656c0.02705,0.00397 0.05362,0.00745 0.08021,0.01139c0.04101,-0.31363 0.08245,-0.62728 0.12391,-0.94043zM215.11693,177.9318c0.02479,0.22097 0.0491,0.44149 0.07389,0.66444c0.15953,-0.23239 0.0212,-0.45039 -0.07389,-0.66444zM217.6849,181.01869c-0.01848,-0.45091 0.0383,-0.90327 -0.08067,-1.35516c-0.01489,-0.05498 -0.0712,-0.12387 -0.0712,-0.19126c0,0.51581 0,1.03159 0,1.54739c0,-0.0005 0.1266,-0.0005 0.15184,-0.001zM218.60366,182.85198c0.0117,0.36615 0.12437,0.74522 -0.11354,1.09253c0.31541,-0.32752 0.36047,-0.92161 0.11354,-1.09253zM223.09252,176.38341c0.28794,-0.06292 0.3357,0.34139 0.55739,0.35923c0.03875,-0.05947 0.08923,-0.13776 0.15365,-0.23734c-0.11085,0 -0.20368,0 -0.31272,0c0.01939,-0.28491 -0.18339,-0.19918 -0.30235,-0.22297c-0.03471,-0.00695 -0.0775,0.03418 -0.11985,0.07481l-0.61776,-0.6793h-6.60038v1.54195c-0.08021,0.02379 -0.16043,0.04855 -0.24152,0.06887c-0.15681,0.03963 -0.28208,0.00395 -0.29828,-0.21802c-0.02255,0.00547 -0.04506,0.0109 -0.06758,0.01637c0.01803,0.18531 0.03604,0.37112 0.04732,0.48904c0.11354,-0.05995 0.21854,-0.13181 0.33299,-0.17144c0.07479,-0.02576 0.15139,-0.04508 0.22708,-0.06739v1.24366h1.83528c0,0.25023 0,0.49994 0,0.75017c0.0054,-0.03516 0.01487,-0.06492 0.032,-0.08324c0.22216,-0.24131 0.01442,-0.45089 0.02208,-0.66693h4.711l1.32026,-1.45179zM224.60293,175.4063c-0.1978,0.3642 -0.1978,0.36418 -0.09059,0.41323c0,0.12834 0,0.23486 0,0.34089c0.03021,0.0005 0.06038,0.001 0.09059,0.0015c0,-0.24773 0,-0.49597 0,-0.75562zM231.69175,169.87121h15.84169v5.80613h-10.56112v1.45179h10.56159v5.8076h-1.19364c0.02208,-0.09316 0.04008,-0.18929 0.06623,-0.27994c-0.04729,0.09218 -0.09553,0.18679 -0.14285,0.27994h-6.53817c0.04056,-0.07729 0.08112,-0.1536 0.12256,-0.23239c-0.0712,-0.0436 -0.13022,-0.07976 -0.18924,-0.11595c0.00043,-0.0015 0.00045,-0.0025 0.00045,-0.00397c0.06758,0 0.13607,0 0.22304,0c-0.05678,-0.17242 -0.10591,-0.32255 -0.15546,-0.47268c-0.0117,0.00197 -0.02298,0.00345 -0.03426,0.00545c-0.01128,0.15558 -0.02253,0.31168 -0.0338,0.46725c-0.00181,0 -0.00407,0 -0.00633,0l0.00588,0.00645c-0.16897,0.06145 -0.16538,0.13529 0.01442,0.34536h-2.70045v1.45179h6.94957c-0.07208,0.02529 -0.14192,0.05003 -0.21719,0.07629c0.00585,0.112 0.0117,0.23586 0.01982,0.40333c0.12886,-0.06589 0.23748,-0.12139 0.36544,-0.18681c-0.00809,-0.03271 -0.02479,-0.0996 -0.05274,-0.21108c0.08833,0.06095 0.13248,0.09116 0.17663,0.12139c0.01261,-0.01684 0.02479,-0.03368 0.03742,-0.05053c-0.05947,-0.0555 -0.1158,-0.10802 -0.16447,-0.15313h3.44574v5.80563h-0.12889c-0.00404,-0.04955 -0.00673,-0.09763 -0.01396,-0.14221c-0.00902,-0.05797 -0.02388,-0.11445 -0.03604,-0.17192c-0.03154,0.04163 -0.07572,0.07781 -0.09194,0.12586c-0.01982,0.05897 -0.0338,0.12187 -0.04822,0.18876h-0.65787c0.15187,-0.05452 0.30552,-0.1095 0.49026,-0.17539c-0.11806,-0.08818 -0.18474,-0.13776 -0.26001,-0.19423c-0.10679,0.08421 -0.21764,0.17144 -0.32804,0.25863c0.01622,0.03716 0.03245,0.07384 0.04867,0.111h-1.78528c0.00495,-0.07729 0.00992,-0.15558 0.01489,-0.23287c-0.03426,0.07979 -0.06713,0.15558 -0.10005,0.23287h-12.94434zM245.84099,189.3528c0.00136,0.13379 0.06758,0.26705 0.10498,0.40034c0.01128,0.00197 0.02208,0.00447 0.03335,0.00645c0.02388,-0.23239 0.0482,-0.46478 0.07344,-0.70707c-0.03197,-0.04063 -0.08064,-0.10258 -0.12479,-0.15855c-0.03154,0.15313 -0.08833,0.30623 -0.08695,0.45883zM245.3602,189.39193c-0.00902,-0.11595 -0.01848,-0.23089 -0.02748,-0.34634c-0.01622,-0.0005 -0.032,-0.0005 -0.04822,-0.001c-0.01848,0.05498 -0.03742,0.11 -0.06442,0.19078c-0.04192,-0.12834 -0.07301,-0.22299 -0.12617,-0.38599c-0.08787,0.40483 -0.0009,0.56486 0.26631,0.54254zM244.46622,187.95599c0.01803,0.13676 0.20094,0.28194 -0.03021,0.38549c-0.01261,0.00547 0.07075,0.26955 0.1095,0.41323c0.02117,-0.00547 0.04192,-0.0109 0.06309,-0.01587c-0.08381,-0.24873 0.15772,-0.55496 -0.14237,-0.78288zM244.20127,187.10674c0.12346,0.05153 0.23341,0.09713 0.34289,0.14271c0.04101,-0.07829 0.08473,-0.16252 0.14961,-0.28687c-0.18474,0.05402 -0.33706,0.0986 -0.49252,0.14418zM242.5773,185.30219c0.07344,0.10308 0.13383,0.18779 0.19376,0.27152c0.1316,-0.24328 0.03828,-0.59607 0.33568,-0.75909c-0.14059,-0.04111 -0.14057,-0.04113 -0.40193,0.50689c-0.03021,-0.04063 -0.05407,-0.07234 -0.08426,-0.11297c-0.02117,0.04658 -0.03875,0.08473 -0.04327,0.09366zM241.74461,188.40045c0.17304,0.00197 0.29874,0.06937 0.28658,0.30276c0.03154,-0.07929 0.06264,-0.15907 0.10365,-0.2636c0.06668,0.05797 0.1149,0.1001 0.16357,0.14271c0.00947,-0.00942 0.01846,-0.01882 0.02793,-0.02824c-0.06175,-0.12487 -0.12394,-0.24973 -0.18519,-0.3731c-0.08335,0.04013 -0.15096,0.07282 -0.23432,0.11297c0,-0.15408 0,-0.28986 0,-0.42562c-0.02298,-0.0015 -0.04641,-0.00345 -0.06939,-0.00495c-0.03021,0.17589 -0.06038,0.35178 -0.09282,0.5371zM240.73481,186.71135c0.10859,-0.01732 0.18745,-0.02971 0.27892,-0.04408c0.05902,0.15608 -0.12346,0.57723 0.3339,0.32602c-0.1212,-0.19621 -0.23884,-0.38699 -0.3249,-0.5262c-0.08742,0.07434 -0.16897,0.14371 -0.28794,0.24428zM239.67996,186.39672c0.01982,0.00695 0.04011,0.01337 0.06038,0.01982c0.02162,-0.07829 0.04372,-0.15608 0.06535,-0.23434c0.02705,-0.0025 0.05452,-0.00495 0.08157,-0.00745c0.01668,0.15113 0.03335,0.30176 0.04686,0.42512c0.12886,-0.02476 0.2244,-0.04261 0.34515,-0.06589c-0.15724,-0.18384 -0.30506,-0.35773 -0.48395,-0.56733c-0.04822,0.17787 -0.082,0.30373 -0.11535,0.43007zM242.06903,180.34334c0.04777,0.02429 0.09101,0.04655 0.13474,0.06887c-0.14014,0.36718 -0.14014,0.36718 0.02569,0.62928c0.10365,-0.20463 0.26091,-0.37807 0.26227,-0.55296c0.00136,-0.20315 -0.2262,-0.18879 -0.38166,-0.20068c-0.00856,-0.0005 -0.01848,0.02429 -0.04099,0.0555zM234.10831,188.86226c-0.03604,-0.00745 -0.07208,-0.01487 -0.10814,-0.02231c-0.04325,0.28936 -0.08607,0.57923 -0.12931,0.86909c0.03559,0.00695 0.0712,0.01337 0.10679,0.01982c0.0437,-0.28886 0.0874,-0.57773 0.13067,-0.86659zM235.06672,182.95405c-0.08833,-0.02032 -0.1532,-0.03471 -0.20411,-0.04608c0.03021,0.17639 0.05678,0.33099 0.07524,0.43652c0.1158,0.02824 0.22934,0.0555 0.35145,0.08523c0.0428,-0.0555 0.0996,-0.12931 0.16224,-0.2106c-0.04415,-0.01784 -0.08607,-0.03516 -0.13878,-0.05647c0.04325,-0.08671 0.08471,-0.16947 0.13878,-0.27749c-0.1424,-0.05402 -0.27804,-0.10505 -0.47135,-0.17837c0.05003,0.14271 0.0658,0.18779 0.08652,0.24726zM234.30252,186.51117c-0.10724,0.08621 -0.15367,0.12387 -0.21224,0.17094c-0.05319,-0.14568 -0.09777,-0.26707 -0.13336,-0.36368c-0.05091,0.0986 -0.09779,0.18976 -0.11628,0.22544c0.11311,0.11792 0.23206,0.24281 0.39969,0.4187c0.02162,-0.1546 0.03787,-0.2745 0.06218,-0.45139zM233.8109,177.86986c0.03109,0.10553 0.06173,0.20958 0.09282,0.3166c0.09373,-0.10205 0.18612,-0.20315 0.2956,-0.32255c-0.04867,-0.10605 -0.04867,-0.10603 -0.38842,0.00595zM233.39277,171.32645c-0.05003,0.03171 -0.09779,0.06242 -0.18567,0.11842c0.13743,0.02476 0.27982,0.0976 0.33164,0.05053c0.16041,-0.14618 0.16267,-0.35923 0.07072,-0.58567c-0.37807,0.20663 -0.39427,0.23684 -0.21671,0.4167zM263.37377,174.23792v-4.36674h5.28057v20.32342h-3.96031l-2.42467,-2.66621c0.05317,-0.03863 0.10724,-0.07531 0.1595,-0.11147c0.25863,0.29581 0.41501,0.26707 0.511,-0.08374c0.22216,0.05053 0.25594,-0.01239 0.18519,-0.37905c-0.2573,0.05302 -0.51683,0.0986 -0.77234,0.16352c-0.09508,0.02429 -0.17663,0.112 -0.27216,0.13826c-0.01665,0.00445 -0.03245,0.00692 -0.04912,0.0109l-2.94152,-3.23455c0.26224,-0.13426 0.52404,-0.26805 0.7863,-0.40233c-0.01577,-0.03368 -0.032,-0.06739 -0.04822,-0.10108c-0.25998,0.1521 -0.52044,0.30423 -0.78043,0.45633l-3.59442,-3.95251v10.16045h-3.00144c-0.00271,-0.01189 -0.0054,-0.02476 -0.00811,-0.03666c-0.01939,0.00197 -0.03875,0.00345 -0.05814,0.00495c0.0009,0.0109 0.00181,0.02131 0.00271,0.03221h-2.21559v-20.32292h3.96031l2.92304,3.21423c-0.19599,0.03716 -0.39111,0.07382 -0.60021,0.11395c0.05947,0.13526 0.08561,0.19571 0.13788,0.31463c0.15187,-0.17389 0.31315,-0.30868 0.49069,-0.39786l6.28992,6.91651v-1.63263c0.00633,0.08671 0.01801,0.17244 0.02748,0.25863c0.02883,-0.00397 0.05769,-0.00842 0.08652,-0.01237c-0.03335,-0.22299 -0.06218,-0.44644 -0.10319,-0.66743c-0.00133,-0.00695 -0.00811,-0.01387 -0.0108,-0.02131v-3.65025c0.02298,-0.00345 0.04506,-0.00545 0.0712,-0.0104c-0.0266,-0.02181 -0.04596,-0.03813 -0.0712,-0.05845zM252.94333,189.28888c-0.13969,-0.05203 -0.27352,-0.10403 -0.44518,-0.16797c0.00181,0.00892 -0.0996,-0.05452 -0.11176,-0.11794c-0.02253,0.0015 -0.15724,0.00347 -0.15724,0.00495c0,0.33592 0,0.67238 0,1.00882c0,0.00495 0.15094,0.00992 0.18248,0.01437c0,-0.08671 0.05812,-0.17639 0.04144,-0.25913c-0.03694,-0.18134 0.0446,-0.25768 0.20953,-0.27304c0.08968,-0.00842 0.18791,-0.05302 0.27623,-0.08124c-0.00045,-0.04261 0.00495,-0.08571 0.0045,-0.12884zM253.1015,176.21841c0.02027,0.00792 0.04008,0.01587 0.06038,0.02379c0.03963,-0.06242 0.11085,-0.12337 0.11311,-0.18729c0.00811,-0.21405 0.02434,-0.43852 -0.02388,-0.64117c-0.05586,-0.23436 0.01668,-0.33149 0.20323,-0.38402c-0.00136,-0.02429 -0.00271,-0.04855 -0.00407,-0.07282c-0.08787,0.00445 -0.17573,0.00892 -0.26405,0.01337c-0.04056,-0.05847 -0.082,-0.11842 -0.12299,-0.17789c0.09056,0.47765 0.23296,0.94093 0.0383,1.426zM253.50162,188.01151c-0.02072,-0.01387 -0.12527,-0.02826 -0.14599,-0.04263c-0.02931,0.03716 0.17844,0.07531 -0.13564,0.15907c-0.00766,-0.15508 -0.01487,-0.31018 -0.02117,-0.46526c0.04101,0 0.08383,0 0.08067,0c0.03694,-0.49549 0.07344,-0.54752 0.1212,-0.89832c-0.08742,0.13526 -0.20908,0.22644 -0.21134,0.33147c-0.00404,0.18876 0.00178,0.37807 0.00944,0.56686c-0.03471,0 -0.06849,0 -0.06849,0c0,0 0,0.26857 0,0.48857c0.03649,-0.00842 0.06173,-0.01537 0.08966,-0.02281c0.00271,0.05452 0.0054,0.1085 0.00766,0.16302c0.03245,0.0109 0.0649,0.02231 0.09734,0.03321c0.05902,-0.10455 0.11806,-0.2086 0.17663,-0.31315zM253.96392,185.03562c-0.08067,0.34336 -0.36092,0.275 -0.57723,0.35526c0.02838,0.0555 0.05093,0.09963 0.07841,0.15313c0.09822,-0.25518 0.59029,-0.00894 0.49882,-0.50838zM256.47058,173.49173c-0.05272,-0.06887 -0.09822,-0.12834 -0.14958,-0.19573c-0.22756,0.10355 -0.43257,0.19623 -0.6421,0.29136c0.02072,0.03368 0.03109,0.04658 0.03785,0.06192c0.00809,0.01732 0.01261,0.03668 0.01622,0.04708c-0.57361,-0.08473 -0.87328,0.42167 -1.28827,0.66741c0.21943,0.05105 0.42717,0.14321 0.59478,-0.12981c0.07344,-0.11992 0.23658,-0.18284 0.36858,-0.24776c0.35012,-0.17144 0.70609,-0.32949 1.06251,-0.49449zM266.12965,174.73244c-0.04325,0.00297 -0.08649,0.00642 -0.12977,0.0094c0.02479,0.2641 0.04955,0.5287 0.07434,0.79278c0.01848,-0.0005 0.03694,-0.0005 0.05543,-0.001c0,-0.26707 0,-0.53412 0,-0.8012zM266.69648,182.2688c-0.01442,-0.05498 -0.04822,-0.12437 -0.04822,-0.19126c0,0.51581 0,1.03161 0,1.54742c0,0 0.08112,-0.0005 0.10636,-0.0005c-0.01848,-0.45091 0.06083,-0.90327 -0.05814,-1.35564zM267.51433,186.5503c0.31544,-0.32702 0.36047,-0.92111 0.11354,-1.09253c0.01216,0.36615 0.12482,0.74522 -0.11354,1.09253zM267.04976,187.85099c0.07434,0.29084 0.15322,0.58023 0.2199,0.87306c0.01803,0.07879 -0.0054,0.16845 -0.00316,0.25318c0.00856,0.29581 0.02027,0.5921 0.03064,0.88791c0.03694,-0.18929 0.00271,-0.38202 0.04327,-0.55396c0.12753,-0.54307 -0.07931,-1.00138 -0.29065,-1.46019zM266.77308,181.1153c-0.02072,0.0005 -0.04189,0.0015 -0.06306,0.002c0,0.27302 0,0.54602 0,0.81951c0.0054,-0.03516 0.01487,-0.06492 0.032,-0.08324c0.24692,-0.26805 -0.03966,-0.49697 0.03109,-0.73828zM266.03725,174.26568c0.04596,0.06539 0.09192,0.13131 0.13833,0.19721c0.06264,-0.0996 0.21448,0.00397 0.26764,-0.15658c0.01982,-0.05995 0.14825,-0.07681 0.29379,-0.14421c-0.02974,-0.04858 -0.0996,-0.21205 -0.12931,-0.20363c-0.21583,0.06145 -0.14599,-0.11397 -0.15365,-0.2101c-0.00495,-0.05847 0.02479,-0.11989 0.03875,-0.18036c-0.02793,-0.00942 -0.05586,-0.01882 -0.08381,-0.02824c-0.03966,0.17044 -0.09282,0.33941 -0.1149,0.51283c-0.01982,0.15705 -0.05317,0.25221 -0.25684,0.21305zM265.8773,170.46381c0.0117,0.17192 0.0266,0.38499 0.04146,0.59804c0.05857,-0.04608 0.06532,-0.08768 0.06487,-0.12931c-0.00045,-0.05105 -0.02614,-0.11495 -0.00676,-0.1511c0.14149,-0.2651 0.14418,-0.2631 0.07929,-0.53957c-0.05272,0.06539 -0.10769,0.13379 -0.17889,0.22197zM264.26732,179.69274c0.01803,0.18531 0.03604,0.37112 0.04729,0.48904c0.11354,-0.05995 0.21854,-0.13181 0.33299,-0.17144c0.21854,-0.07581 0.44249,-0.13229 0.66417,-0.19718c-0.00271,-0.01982 -0.00588,-0.04013 -0.00856,-0.05995c-0.04415,-0.00495 -0.09144,-0.02381 -0.13248,-0.01289c-0.17979,0.04708 -0.35688,0.10802 -0.53712,0.1536c-0.15681,0.03963 -0.28206,0.00395 -0.29828,-0.21802c-0.02253,0.00547 -0.04506,0.01092 -0.06804,0.01687zM264.14159,180.53757c0.02479,0.22097 0.0491,0.44149 0.07389,0.66444c0.15907,-0.23239 0.02074,-0.45091 -0.07389,-0.66444zM263.48822,188.55158c0.02705,0.00397 0.05362,0.00742 0.08021,0.01139c0.04146,-0.31315 0.08245,-0.6268 0.12391,-0.94043c-0.01848,0.0005 -0.0374,0.0015 -0.05588,0.0025c-0.04912,0.30868 -0.09867,0.61788 -0.14825,0.92656z" fill="url(#color-6)" stroke-width="1"/><path d="M290.05901,174.14735v15.96907h-5.28057v-4.35486h-0.03109c0.00404,-0.00547 0.00676,-0.0089 0.01082,-0.01437c-0.04415,-0.01784 -0.08607,-0.03518 -0.13878,-0.0565c0.04325,-0.08671 0.08471,-0.16995 0.13878,-0.27747c-0.14237,-0.05402 -0.27804,-0.10505 -0.47132,-0.17837c0.05003,0.14271 0.0658,0.18779 0.08652,0.24723c-0.08875,-0.02032 -0.15365,-0.03468 -0.20456,-0.04608c0.02162,0.12487 0.04011,0.23139 0.05633,0.32505h-7.3673v4.35482h-5.28057v-15.96808l3.96031,-4.35486h8.9534c0.09644,0.19078 0.19195,0.38054 0.2911,0.57675c0.18296,-0.12931 0.15141,-0.25568 0.04958,-0.41273c-0.03514,-0.05452 -0.07346,-0.1095 -0.11176,-0.1645h1.37838zM273.11019,179.03189c-0.11085,0 -0.20365,0 -0.3127,0c0.01939,-0.28491 -0.18341,-0.19918 -0.30235,-0.22297c-0.04958,-0.00992 -0.11628,0.07926 -0.17485,0.12337c0.36363,-0.1665 0.39517,0.3176 0.63627,0.33694c0.0383,-0.05947 0.08875,-0.13776 0.15365,-0.23734zM273.90909,177.93341c-0.1978,0.3642 -0.1978,0.36418 -0.09056,0.41323c0,0.12834 0,0.23484 0,0.34089c0.03021,0.0005 0.06038,0.001 0.09056,0.0015c0,-0.24823 0,-0.49597 0,-0.75562zM274.78686,178.64045c-0.09822,-0.16797 -0.17301,-0.29581 -0.2807,-0.48012c-0.09373,0.37807 -0.09373,0.37807 0.2807,0.48012zM275.84758,181.60595c-0.10365,-0.3201 -0.20727,-0.64015 -0.31092,-0.96025c-0.02883,0.01189 -0.05814,0.02379 -0.08697,0.03566c0.03197,0.08918 0.06356,0.17837 0.10096,0.28491c-0.00316,0.001 -0.04686,0.01337 -0.09013,0.02526c0.12303,0.22642 0.23477,0.43257 0.34698,0.63867c0.01351,-0.00792 0.02702,-0.01584 0.04008,-0.02426zM282.69937,173.85356c-0.05003,0.03171 -0.09777,0.06244 -0.18565,0.11844c0.13743,0.02476 0.27982,0.0976 0.33164,0.05053c0.16041,-0.14618 0.16267,-0.35921 0.07075,-0.58567c-0.37807,0.20663 -0.39472,0.23634 -0.21676,0.4167zM280.80235,170.72752c0.09958,-0.02181 0.16447,-0.03618 0.24964,-0.0545c0.05181,0.19768 0.21312,0.20613 0.43393,0.12634c-0.06218,-0.14815 -0.11804,-0.29086 -0.18517,-0.42712c-0.00902,-0.01882 -0.07481,-0.00395 -0.11445,-0.00445c0.06218,0.17389 -0.08155,0.13676 -0.12708,0.11742c-0.16357,-0.06987 -0.20187,0.03716 -0.25684,0.24231zM280.14222,171.96326c0.11354,0.4281 0.12482,0.43602 0.32174,0.30571c-0.10319,-0.0981 -0.18836,-0.17937 -0.32174,-0.30571zM283.50504,180.391c-0.0482,-0.10605 -0.0482,-0.10603 -0.38794,0.00595c0.03109,0.10553 0.06173,0.20958 0.09282,0.3166c0.09373,-0.10205 0.1861,-0.20315 0.29514,-0.32257zM284.77844,179.954v-2.90308l-1.32026,-1.45179h-5.28057l-1.32026,1.45179v2.90308h7.92062zM289.01092,185.50248c0.04777,-0.09068 0.09461,-0.17937 0.14328,-0.27152c-0.0712,-0.0436 -0.13022,-0.07979 -0.18924,-0.11595c0.00043,-0.0015 0.00045,-0.0025 0.00045,-0.00397c0.06758,0 0.13607,0 0.22304,0c-0.05678,-0.17242 -0.10588,-0.32255 -0.15546,-0.47268c-0.0117,0.00197 -0.02298,0.00347 -0.03426,0.00547c-0.01128,0.15558 -0.02253,0.31165 -0.0338,0.46723c-0.00181,0 -0.00404,0 -0.0063,0l0.00585,0.00645c-0.1807,0.06539 -0.17211,0.13923 0.04644,0.38499zM289.58589,189.06105c-0.15727,-0.18384 -0.30506,-0.35773 -0.48395,-0.56733c-0.04777,0.17787 -0.082,0.30373 -0.1158,0.43007c0.01982,0.00695 0.04008,0.01337 0.06038,0.01982c0.02162,-0.07829 0.0437,-0.15608 0.06532,-0.23436c0.02705,-0.0025 0.05452,-0.00495 0.08157,-0.00745c0.01665,0.15113 0.03335,0.30176 0.04686,0.42515c0.12886,-0.02476 0.22442,-0.0431 0.34562,-0.06589zM206.0188,171.73632l2.19261,2.41104v15.96858h-4.83539c-0.0428,-0.06887 -0.08561,-0.13823 -0.12841,-0.2071c-0.00043,0.07434 0.01622,0.14121 0.032,0.2071h-0.34876v-1.41708c0.06984,-0.04755 0.12889,-0.11942 0.17259,-0.23042c0.04686,-0.11942 0.12977,-0.22149 0.19421,-0.33247c0.00723,-0.01237 0.0009,-0.03421 0.0009,-0.06839c-0.04415,0.01339 -0.08426,0.02576 -0.1149,0.03518c-0.13743,-0.26213 0.07569,-0.3711 0.19645,-0.5272c-0.19331,0.00397 -0.27171,0.09266 -0.28118,0.28786c-0.01037,0.21702 -0.06038,0.41126 -0.16807,0.56436v-2.66721h-7.06763c0.02388,-0.17144 0.04912,-0.34586 -0.13923,-0.48904c0.01803,0.13676 0.20097,0.28194 -0.03019,0.38549c-0.00495,0.0025 0.00633,0.04755 0.02165,0.10355h-0.70521v4.35484h-5.28057v-15.96808l3.96033,-4.35484h10.56157l1.61357,1.77434c-0.05272,0.04063 -0.10633,0.07926 -0.16267,0.11247c0.10947,0.02576 0.21626,0.06142 0.31632,0.057zM192.56303,189.43167c-0.10365,0.18134 -0.16626,0.29086 -0.26179,0.45883c0.10365,0 0.25006,0.01042 0.25142,-0.00147c0.01668,-0.13031 0.01037,-0.2636 0.01037,-0.45736zM192.60582,184.30885c-0.12165,-0.19621 -0.23926,-0.38697 -0.32533,-0.5262c-0.08742,0.07434 -0.16897,0.14371 -0.28748,0.24428c0.10859,-0.01732 0.18745,-0.02974 0.27892,-0.0441c0.05857,0.15608 -0.12394,0.57725 0.3339,0.32602zM193.58408,185.86963c-0.06218,-0.12487 -0.12394,-0.24973 -0.18519,-0.37312c-0.08335,0.04013 -0.15096,0.07282 -0.23432,0.11297c0,-0.15408 0,-0.28984 0,-0.4256c-0.02298,-0.00197 -0.04641,-0.00347 -0.06939,-0.00495c-0.03021,0.17639 -0.06038,0.35228 -0.09237,0.5376c0.17304,0.00197 0.29876,0.06937 0.28658,0.30276c0.03154,-0.07929 0.06264,-0.15905 0.10365,-0.26358c0.06625,0.05797 0.11442,0.1001 0.16312,0.14271c0.00902,-0.00942 0.01846,-0.01884 0.02793,-0.02876zM197.66333,179.97132c-0.12708,0.24921 -0.25413,0.49846 -0.3848,0.75462c0.3064,-0.13923 0.30326,-0.47468 0.3848,-0.75462zM202.93129,179.954v-2.90308l-1.32026,-1.45179h-5.28057l-1.32024,1.45179v2.90308h7.92062zM203.96947,188.6929c-0.09867,-0.44889 -0.18341,-0.83441 -0.26812,-1.2204c-0.01939,0.00197 -0.03873,0.00347 -0.05812,0.00497c0.0338,0.36718 0.06264,0.7348 0.10859,1.09998c0.00495,0.03816 0.11083,0.06145 0.21764,0.11545zM204.21911,186.73523c-0.00043,-0.0431 -0.0063,-0.08621 -0.00676,-0.12931c-0.11354,-0.04261 -0.23432,-0.08621 -0.36591,-0.13476c0,-0.04905 0,-0.0976 0,-0.14668c0,-0.0015 -0.04551,-0.00347 -0.02253,-0.00497c0.01216,0.06342 -0.06623,0.12634 -0.06804,0.11794c0.03245,0.01189 0.05992,0.02179 0.09056,0.03321c0,0.12782 0,0.25618 0,0.38452c-0.05769,0.04063 -0.07075,0.11197 -0.04596,0.23337c0.01532,0.07729 0.04234,0.16152 0.04596,0.24328c0,0 0,0.00048 0,0.00098c0,0.00445 -0.02883,0.00942 0.00226,0.01439c0,-0.00547 -0.00226,-0.0104 -0.00226,-0.01587c0,-0.15855 0,-0.3176 0,-0.47665c0.02838,-0.01982 0.06442,-0.03468 0.11851,-0.03966c0.09011,-0.00842 0.16581,-0.05302 0.25413,-0.07979zM204.41917,173.55773c0.03963,-0.06242 0.11083,-0.12337 0.11309,-0.18729c0.00809,-0.21405 0.02434,-0.43852 -0.02388,-0.64117c-0.05588,-0.23436 0.0167,-0.33147 0.20325,-0.38399c-0.00136,-0.02429 -0.00271,-0.04858 -0.00407,-0.07284c-0.08787,0.00445 -0.17575,0.00894 -0.26405,0.01339c-0.04056,-0.05847 -0.08202,-0.11842 -0.12303,-0.17789c0.09056,0.47765 0.23341,0.94043 0.03875,1.42652c0.01982,0.00792 0.04011,0.01584 0.05992,0.02329zM204.78506,185.3008c-0.01532,0.00892 -0.03875,0.01784 -0.02569,0.02674c-0.00404,0.00695 -0.00766,0.01389 -0.0117,0.02081c0,-0.14913 0,-0.24181 0,-0.24181c0,0 -0.20458,0 -0.21043,0c0.03649,-0.49549 0.07298,-0.61141 0.12075,-0.96172c-0.08742,0.13476 -0.20908,0.16202 -0.21131,0.26707c-0.00809,0.39789 0.02208,0.79672 0.0383,1.19511c0.03245,0.0109 0.0649,0.02231 0.09734,0.03321c0.05543,-0.09713 0.1104,-0.19471 0.16538,-0.29184c0,0.03716 0,0.07481 0,0.11842c0,-0.08918 0.01308,-0.12931 0.0374,-0.166zM205.22167,182.35117c-0.08067,0.34336 -0.36092,0.275 -0.57723,0.35526c0.02838,0.0555 0.05093,0.0996 0.07841,0.1531c0.09822,-0.25518 0.59029,-0.00892 0.49882,-0.50838zM205.88497,188.24746c-0.02117,-0.00197 -0.04192,-0.00347 -0.06309,-0.00545c-0.03245,0.44889 -0.06442,0.89832 -0.09687,1.34774c0.02117,0.00197 0.04234,0.00345 0.06352,0.00545c0.03197,-0.44941 0.06444,-0.89882 0.09644,-1.34771zM225.37291,184.30885l5.28147,5.80613h-1.35992c0,-0.15608 0,-0.31957 0,-0.51528c-0.05362,0.21602 -0.09011,0.36218 -0.12796,0.51528h-0.05769c-0.03109,-0.01832 -0.05814,-0.03418 -0.08245,-0.04855c-0.01037,0.01637 -0.02029,0.03219 -0.03064,0.04855h-6.26242l-4.35099,-4.78441c-0.02431,-0.05452 -0.04958,-0.1095 -0.07481,-0.16402c0.00947,0.03766 0.01848,0.07581 0.02838,0.11347l-0.88317,-0.97117h-1.32024v5.80613h-4.01167c-0.0063,-0.02379 -0.00588,-0.04213 -0.01758,-0.06987c-0.05452,0.02576 -0.10093,0.04758 -0.14825,0.06987h-1.10307v-9.02481c0.09418,-0.04805 0.18881,-0.09663 0.28299,-0.14468c-0.01577,-0.03368 -0.032,-0.06739 -0.04822,-0.10108c-0.07841,0.04558 -0.15636,0.09166 -0.23477,0.13724v-11.18911h14.52143l3.96033,4.35484v5.80663zM226.42595,178.07559c0.03154,0.08918 0.06354,0.17839 0.10093,0.28491c-0.00362,0.001 -0.04732,0.01337 -0.09056,0.02526c0.12303,0.22642 0.23474,0.43257 0.34696,0.63867c0.01351,-0.00792 0.02705,-0.01587 0.04056,-0.02379c-0.10365,-0.3201 -0.20727,-0.64015 -0.31092,-0.96025c-0.02883,0.01189 -0.05814,0.02379 -0.08697,0.03518zM225.76221,176.03468c-0.09822,-0.16797 -0.17301,-0.29581 -0.28073,-0.48012c-0.09373,0.37807 -0.09373,0.37807 0.28073,0.48012zM228.96238,188.61956c0.01082,0.11644 0.04822,0.22989 0.07346,0.33842c0.05769,0.08671 0.11713,0.17592 0.18339,0.27549c0.01037,-0.02874 0.032,-0.05995 0.02883,-0.08771c-0.02162,-0.19968 -0.0428,-0.39986 -0.07841,-0.59704c-0.00585,-0.03171 -0.09373,-0.07731 -0.12391,-0.06392c-0.03963,0.01784 -0.08785,0.09066 -0.08335,0.13476zM217.29502,171.58124c0.04596,0.06539 0.09239,0.13129 0.13833,0.19721c0.06264,-0.0996 0.21448,0.00397 0.26764,-0.15658c0.01982,-0.05995 0.14825,-0.07679 0.29379,-0.14418c-0.02974,-0.04858 -0.09958,-0.21207 -0.12931,-0.20365c-0.21583,0.06145 -0.14601,-0.11397 -0.15367,-0.21008c-0.00495,-0.05847 0.02479,-0.11992 0.03875,-0.18039c-0.02793,-0.00942 -0.05588,-0.01882 -0.08381,-0.02824c-0.03963,0.17044 -0.09285,0.33941 -0.1149,0.51283c-0.02027,0.15705 -0.05317,0.25271 -0.25684,0.21307zM217.25763,172.05741c0.02479,0.2641 0.04955,0.5287 0.07434,0.79278c0.01848,-0.0005 0.03694,-0.0005 0.05543,-0.00098c0,-0.26707 0,-0.53415 0,-0.8012c-0.04325,0.00345 -0.08652,0.00642 -0.12977,0.0094zM214.18182,171.18633c0.07974,0.4192 0.16719,0.48954 0.52135,0.42562c-0.20998,-0.17144 -0.36544,-0.29878 -0.52135,-0.42562zM214.17552,187.05038c-0.03514,-0.19174 -0.07841,-0.38202 -0.10407,-0.57525c-0.02883,-0.219 -0.06804,-0.44247 -0.05407,-0.65999c0.01216,-0.19323 0.04189,-0.19076 -0.0338,-0.33147c-0.10543,0.47023 -0.0392,1.16885 0.19195,1.56673zM214.38414,184.26969c-0.2573,0.05302 -0.51683,0.0986 -0.77232,0.16352c-0.09508,0.02429 -0.17706,0.11197 -0.27216,0.13823c-0.17439,0.04858 -0.35416,0.07284 -0.46951,0.09513c0.05181,0.07184 0.11713,0.16252 0.18833,0.26063c0.0338,-0.02279 0.08109,-0.054 0.13876,-0.09266c0.05319,0.07134 0.09239,0.12437 0.12484,0.16747c0.07075,-0.0555 0.12798,-0.10205 0.18745,-0.14566c0.05902,-0.0431 0.11987,-0.08374 0.17799,-0.12389c0.25863,0.29581 0.41499,0.26707 0.51098,-0.08374c0.22171,0.05005 0.25594,-0.01239 0.18565,-0.37907zM214.66083,188.74592c0,-0.64017 0,-1.27984 0,-1.92002c0,0.32752 -0.00992,0.65254 -0.00992,0.97759c0,0.3181 -0.01306,0.6357 0.00316,0.95382c0.01622,-0.00397 0.00676,-0.00742 0.00676,-0.01139zM214.74644,175.96134c-0.03335,-0.22299 -0.06218,-0.44644 -0.10319,-0.66743c-0.00856,-0.04658 -0.05362,-0.10158 -0.09418,-0.11942c-0.0338,-0.01487 -0.11716,0.0104 -0.12256,0.03368c-0.01442,0.06045 -0.0162,0.14171 0.01128,0.19226c0.0541,0.0991 0.18384,0.13626 0.19107,0.28094c0.00495,0.0976 0.01982,0.19473 0.03064,0.29234c0.02883,-0.00397 0.05769,-0.00842 0.08697,-0.01239zM214.9501,184.93812c-0.01848,0.0005 -0.0374,0.00147 -0.05588,0.00247c-0.04958,0.30868 -0.0987,0.61788 -0.14825,0.92656c0.02705,0.00397 0.05364,0.00745 0.08021,0.01139c0.04101,-0.31363 0.08245,-0.62728 0.12391,-0.94043zM215.39891,177.85312c0.02479,0.22097 0.0491,0.44149 0.07389,0.66444c0.15953,-0.23239 0.0212,-0.45039 -0.07389,-0.66444zM217.96686,180.93999c-0.01848,-0.45091 0.0383,-0.90325 -0.08067,-1.35514c-0.01489,-0.05498 -0.0712,-0.12389 -0.0712,-0.19126c0,0.51581 0,1.03159 0,1.54739c0,-0.0005 0.1266,-0.0005 0.15187,-0.001zM218.88564,182.77332c0.0117,0.36615 0.12437,0.74522 -0.11357,1.09253c0.31541,-0.32752 0.36049,-0.92161 0.11357,-1.09253zM223.37448,176.30473c0.28794,-0.06292 0.3357,0.34139 0.55739,0.35923c0.03875,-0.05947 0.08923,-0.13776 0.15365,-0.23734c-0.11085,0 -0.20368,0 -0.31272,0c0.01939,-0.28491 -0.18339,-0.19918 -0.30235,-0.22295c-0.03471,-0.00695 -0.0775,0.03418 -0.11985,0.07481l-0.61776,-0.6793h-6.60038v1.54195c-0.08021,0.02379 -0.16043,0.04855 -0.24152,0.06887c-0.15681,0.03963 -0.28208,0.00397 -0.29828,-0.21802c-0.02255,0.00547 -0.04508,0.0109 -0.06758,0.01634c0.01803,0.18531 0.03606,0.37112 0.04732,0.48904c0.11354,-0.05995 0.21854,-0.13181 0.33299,-0.17144c0.07479,-0.02576 0.15139,-0.04508 0.22708,-0.06739v1.24369h1.83528c0,0.25023 0,0.49994 0,0.75017c0.0054,-0.03516 0.01487,-0.06492 0.032,-0.08326c0.22216,-0.24131 0.01442,-0.45089 0.02208,-0.66691h4.711l1.32024,-1.45179zM224.88491,175.32762c-0.1978,0.3642 -0.1978,0.36418 -0.09056,0.41323c0,0.12834 0,0.23486 0,0.34089c0.03021,0.0005 0.06038,0.00098 0.09056,0.00147c0,-0.24773 0,-0.49597 0,-0.75562zM231.97372,169.79253h15.84169v5.80613h-10.56112v1.45179h10.56159v5.8076h-1.19364c0.02208,-0.09316 0.04008,-0.18929 0.06623,-0.27994c-0.04729,0.09218 -0.09553,0.18679 -0.14285,0.27994h-6.53817c0.04056,-0.07729 0.08112,-0.1536 0.12256,-0.23239c-0.0712,-0.0436 -0.13022,-0.07976 -0.18924,-0.11595c0.00043,-0.0015 0.00045,-0.0025 0.00045,-0.00397c0.06758,0 0.13607,0 0.22304,0c-0.05678,-0.17242 -0.10588,-0.32255 -0.15543,-0.47268c-0.0117,0.00197 -0.02298,0.00347 -0.03426,0.00545c-0.01128,0.15558 -0.02253,0.31165 -0.03378,0.46723c-0.00181,0 -0.00407,0 -0.00633,0l0.00588,0.00645c-0.16897,0.06145 -0.16538,0.13526 0.01442,0.34534h-2.70045v1.45179h6.94957c-0.07208,0.02529 -0.14195,0.05005 -0.21721,0.07631c0.00585,0.112 0.01173,0.23584 0.01984,0.40333c0.12886,-0.06589 0.23746,-0.12139 0.36544,-0.18681c-0.00809,-0.03271 -0.02479,-0.0996 -0.05272,-0.21108c0.08833,0.06095 0.13248,0.09116 0.17663,0.12139c0.01261,-0.01684 0.02476,-0.03368 0.03742,-0.05053c-0.05947,-0.0555 -0.11578,-0.10802 -0.16445,-0.1531h3.44572v5.80563h-0.12886c-0.00404,-0.04955 -0.00673,-0.09763 -0.01396,-0.14221c-0.00902,-0.05797 -0.02391,-0.11445 -0.03606,-0.17192c-0.03154,0.04163 -0.07569,0.07781 -0.09192,0.12586c-0.01982,0.05897 -0.0338,0.12187 -0.04822,0.18876h-0.65787c0.15187,-0.05452 0.30552,-0.1095 0.49026,-0.17539c-0.11806,-0.08818 -0.18474,-0.13776 -0.26001,-0.19423c-0.10679,0.08421 -0.21764,0.17144 -0.32804,0.25865c0.01622,0.03716 0.03245,0.07382 0.04867,0.11097h-1.78528c0.00495,-0.07729 0.00992,-0.15558 0.01489,-0.23287c-0.03426,0.07979 -0.06713,0.15558 -0.10005,0.23287h-12.94434zM246.12297,189.27412c0.00136,0.13379 0.06758,0.26707 0.10498,0.40034c0.01128,0.00197 0.02208,0.00447 0.03335,0.00645c0.02388,-0.23239 0.0482,-0.46478 0.07346,-0.70707c-0.03197,-0.04063 -0.08067,-0.10258 -0.12482,-0.15855c-0.03154,0.15313 -0.08833,0.30623 -0.08695,0.45883zM245.64216,189.31326c-0.00902,-0.11595 -0.01848,-0.23089 -0.02748,-0.34634c-0.01622,-0.0005 -0.032,-0.0005 -0.04822,-0.001c-0.01848,0.05498 -0.03742,0.11 -0.06442,0.19078c-0.04192,-0.12834 -0.07301,-0.22299 -0.12617,-0.38599c-0.08787,0.40483 -0.0009,0.56486 0.26631,0.54257zM244.74819,187.87733c0.01803,0.13676 0.20094,0.28194 -0.03021,0.38549c-0.01261,0.00547 0.07075,0.26955 0.1095,0.41323c0.02117,-0.00547 0.04192,-0.0109 0.06309,-0.01587c-0.08381,-0.24873 0.15772,-0.55496 -0.14237,-0.78288zM244.48323,187.02806c0.12346,0.05153 0.23341,0.09713 0.34291,0.14271c0.04101,-0.07829 0.08473,-0.16252 0.14958,-0.28689c-0.18474,0.05402 -0.33704,0.0986 -0.49249,0.14418zM242.85928,185.22351c0.07344,0.10308 0.13383,0.18779 0.19376,0.27152c0.1316,-0.24328 0.03828,-0.59607 0.33568,-0.75909c-0.14059,-0.04111 -0.14057,-0.04113 -0.40193,0.50689c-0.03021,-0.04063 -0.05407,-0.07234 -0.08426,-0.11297c-0.02117,0.04658 -0.03875,0.08473 -0.04325,0.09366zM242.02657,188.3218c0.17304,0.00197 0.29874,0.06937 0.28658,0.30276c0.03154,-0.07929 0.06264,-0.15905 0.10365,-0.2636c0.06668,0.05797 0.1149,0.1001 0.16357,0.14271c0.00947,-0.00942 0.01846,-0.01884 0.02793,-0.02824c-0.06175,-0.12487 -0.12394,-0.24973 -0.18519,-0.3731c-0.08335,0.04013 -0.15094,0.07282 -0.23429,0.11297c0,-0.15408 0,-0.28986 0,-0.42562c-0.02298,-0.0015 -0.04641,-0.00345 -0.06939,-0.00495c-0.03021,0.17589 -0.06038,0.35178 -0.09282,0.5371zM241.01677,186.63265c0.10859,-0.01732 0.18745,-0.02974 0.27892,-0.0441c0.05902,0.15608 -0.12346,0.57725 0.3339,0.32605c-0.1212,-0.19621 -0.23881,-0.38697 -0.32488,-0.5262c-0.08742,0.07434 -0.16897,0.14368 -0.28794,0.24426zM239.96192,186.31802c0.01982,0.00695 0.04011,0.01337 0.06038,0.01982c0.02162,-0.07829 0.04372,-0.15608 0.06535,-0.23434c0.02705,-0.0025 0.05452,-0.00495 0.08157,-0.00745c0.01668,0.15113 0.03335,0.30176 0.04686,0.42512c0.12886,-0.02476 0.2244,-0.04261 0.34515,-0.06589c-0.15724,-0.18384 -0.30506,-0.35773 -0.48395,-0.56733c-0.04822,0.17787 -0.082,0.30373 -0.11535,0.43007zM242.35099,180.26466c0.04777,0.02429 0.09104,0.04655 0.13474,0.06887c-0.14014,0.36718 -0.14014,0.36718 0.02569,0.62928c0.10365,-0.20463 0.26089,-0.37807 0.26224,-0.55296c0.00136,-0.20315 -0.22618,-0.18879 -0.38164,-0.20068c-0.00856,-0.0005 -0.01848,0.02429 -0.04099,0.0555zM234.39027,188.78358c-0.03604,-0.00745 -0.07208,-0.01487 -0.10814,-0.02231c-0.04325,0.28936 -0.08607,0.57923 -0.12931,0.86909c0.03559,0.00695 0.0712,0.01337 0.10679,0.01982c0.0437,-0.28886 0.0874,-0.57773 0.13067,-0.86659zM235.34871,182.8754c-0.08833,-0.02032 -0.1532,-0.03471 -0.20411,-0.04608c0.03021,0.17639 0.05678,0.33099 0.07524,0.43652c0.1158,0.02824 0.22934,0.0555 0.35145,0.08523c0.0428,-0.0555 0.0996,-0.12931 0.16224,-0.2106c-0.04415,-0.01784 -0.08607,-0.03516 -0.13881,-0.05647c0.04325,-0.08671 0.08473,-0.16947 0.13881,-0.27749c-0.1424,-0.05402 -0.27802,-0.10505 -0.47132,-0.17837c0.05003,0.14271 0.06578,0.18779 0.08652,0.24726zM234.58448,186.43249c-0.10724,0.08621 -0.15365,0.12387 -0.21222,0.17094c-0.05319,-0.14568 -0.09777,-0.26707 -0.13336,-0.36368c-0.05091,0.0986 -0.09779,0.18976 -0.11628,0.22544c0.11311,0.11792 0.23206,0.24279 0.39967,0.41868c0.02162,-0.1546 0.03787,-0.2745 0.06218,-0.45139zM234.09289,177.7912c0.03109,0.10553 0.06173,0.20958 0.09282,0.31662c0.09373,-0.10205 0.18612,-0.20315 0.2956,-0.32255c-0.04867,-0.10605 -0.04867,-0.10605 -0.38842,0.00592zM233.67471,171.24777c-0.05003,0.03171 -0.09777,0.06242 -0.18565,0.11842c0.13743,0.02476 0.27982,0.09763 0.33164,0.05055c0.16041,-0.14618 0.16267,-0.35923 0.07075,-0.58567c-0.37807,0.20663 -0.39427,0.23684 -0.21674,0.4167zM263.65573,174.15927v-4.36674h5.28057v20.32342h-3.96031l-2.42469,-2.66621c0.05317,-0.03863 0.10724,-0.07531 0.15953,-0.11147c0.25863,0.29581 0.41499,0.26707 0.51098,-0.08374c0.22216,0.05053 0.25594,-0.01239 0.18519,-0.37905c-0.2573,0.05302 -0.51683,0.0986 -0.77234,0.16352c-0.09506,0.02429 -0.17663,0.112 -0.27216,0.13826c-0.01665,0.00445 -0.03245,0.00695 -0.04912,0.0109l-2.94152,-3.23455c0.26224,-0.13426 0.52404,-0.26805 0.78628,-0.40233c-0.01577,-0.03368 -0.032,-0.06739 -0.04822,-0.10108c-0.25998,0.1521 -0.52047,0.30423 -0.78045,0.45633l-3.59442,-3.95251v10.16045h-3.00144c-0.00271,-0.01189 -0.0054,-0.02476 -0.00809,-0.03666c-0.01939,0.00197 -0.03875,0.00345 -0.05814,0.00495c0.0009,0.0109 0.00181,0.02131 0.00271,0.03221h-2.21559v-20.32292h3.96031l2.92304,3.21423c-0.19602,0.03716 -0.39111,0.07382 -0.60021,0.11395c0.05947,0.13526 0.08561,0.19573 0.13788,0.31465c0.15187,-0.17389 0.31315,-0.30868 0.49071,-0.39789l6.28989,6.91651v-1.63263c0.0063,0.08671 0.01803,0.17244 0.0275,0.25863c0.02883,-0.00397 0.05766,-0.00842 0.08649,-0.01237c-0.03335,-0.22299 -0.06218,-0.44644 -0.10317,-0.66741c-0.00133,-0.00695 -0.00811,-0.01387 -0.01082,-0.02131v-3.65025c0.02298,-0.00345 0.04506,-0.00545 0.0712,-0.0104c-0.0266,-0.02181 -0.04596,-0.03813 -0.0712,-0.05845zM253.22529,189.2102c-0.13969,-0.05203 -0.27352,-0.10405 -0.4452,-0.16797c0.00181,0.00892 -0.0996,-0.05452 -0.11176,-0.11794c-0.02255,0.0015 -0.15724,0.00347 -0.15724,0.00497c0,0.33592 0,0.67236 0,1.0088c0,0.00495 0.15094,0.00992 0.18248,0.01437c0,-0.08671 0.05814,-0.17639 0.04146,-0.25913c-0.03694,-0.18134 0.0446,-0.25768 0.20953,-0.27304c0.08968,-0.00842 0.18791,-0.05302 0.27623,-0.08124c-0.00043,-0.04261 0.00495,-0.08571 0.00452,-0.12881zM253.38346,176.13971c0.02027,0.00792 0.04008,0.01584 0.06038,0.02379c0.03963,-0.06242 0.11085,-0.12337 0.11311,-0.18729c0.00809,-0.21405 0.02434,-0.43849 -0.02388,-0.64115c-0.05588,-0.23436 0.01668,-0.33149 0.20323,-0.38402c-0.00136,-0.02429 -0.00271,-0.04855 -0.00407,-0.07282c-0.08787,0.00445 -0.17573,0.00892 -0.26405,0.01337c-0.04056,-0.05847 -0.082,-0.1184 -0.12301,-0.17787c0.09056,0.47765 0.23296,0.94091 0.0383,1.426zM253.78358,187.93283c-0.02072,-0.01387 -0.12525,-0.02824 -0.14597,-0.04261c-0.02928,0.03716 0.17844,0.07531 -0.13564,0.15907c-0.00766,-0.15508 -0.01487,-0.31018 -0.02117,-0.46526c0.04101,0 0.08383,0 0.08067,0c0.03694,-0.49549 0.07344,-0.54752 0.1212,-0.89832c-0.08742,0.13526 -0.20908,0.22647 -0.21134,0.33149c-0.00404,0.18876 0.00181,0.37805 0.00947,0.56683c-0.03471,0 -0.06851,0 -0.06851,0c0,0 0,0.26855 0,0.48854c0.03649,-0.00842 0.06173,-0.01534 0.08968,-0.02279c0.00271,0.05452 0.0054,0.1085 0.00766,0.16302c0.03245,0.0109 0.06487,0.02229 0.09732,0.03318c0.05902,-0.10455 0.11806,-0.2086 0.17663,-0.31315zM254.24589,184.95692c-0.08067,0.34336 -0.36092,0.275 -0.5772,0.35526c0.02838,0.0555 0.05093,0.09963 0.07841,0.15313c0.09822,-0.25518 0.59029,-0.00894 0.49882,-0.50838zM256.75257,173.41307c-0.05272,-0.06887 -0.09825,-0.12834 -0.14961,-0.19571c-0.22756,0.10355 -0.43259,0.19623 -0.64212,0.29136c0.02072,0.03368 0.03109,0.04658 0.03785,0.06192c0.00809,0.01732 0.01261,0.03668 0.01622,0.04708c-0.57361,-0.08473 -0.87328,0.42167 -1.28827,0.66741c0.21943,0.05105 0.42715,0.14318 0.59478,-0.12981c0.07344,-0.11992 0.23658,-0.18284 0.36858,-0.24773c0.35012,-0.17144 0.70609,-0.32949 1.06251,-0.49449zM266.41161,174.65376c-0.04325,0.00297 -0.08652,0.00642 -0.12977,0.00942c0.02479,0.2641 0.04955,0.5287 0.07434,0.79278c0.01848,-0.0005 0.03694,-0.0005 0.05543,-0.001c0,-0.26707 0,-0.53415 0,-0.8012zM266.97843,182.19012c-0.01442,-0.05498 -0.04822,-0.12437 -0.04822,-0.19126c0,0.51581 0,1.03161 0,1.54742c0,0 0.08112,-0.0005 0.10636,-0.0005c-0.01848,-0.45091 0.06083,-0.90327 -0.05814,-1.35564zM267.79629,186.47165c0.31541,-0.32702 0.36047,-0.92111 0.11354,-1.09253c0.01216,0.36615 0.12482,0.74522 -0.11354,1.09253zM267.33171,187.77231c0.07434,0.29084 0.1532,0.58023 0.2199,0.87306c0.01803,0.07879 -0.0054,0.16847 -0.00316,0.2532c0.00856,0.29581 0.02027,0.5921 0.03064,0.88791c0.03694,-0.18929 0.00271,-0.38202 0.04327,-0.55396c0.12753,-0.54307 -0.07931,-1.00138 -0.29065,-1.46019zM267.05506,181.03664c-0.02072,0.0005 -0.04192,0.0015 -0.06306,0.00197c0,0.27302 0,0.54602 0,0.81951c0.0054,-0.03516 0.01487,-0.06492 0.03197,-0.08324c0.24692,-0.26805 -0.03966,-0.49697 0.03109,-0.73828zM266.31923,174.18701c0.04596,0.06539 0.09192,0.13129 0.13833,0.19718c0.06264,-0.0996 0.21448,0.00397 0.26764,-0.15658c0.01982,-0.05995 0.14825,-0.07681 0.29379,-0.14418c-0.02974,-0.04858 -0.09958,-0.21207 -0.12931,-0.20365c-0.21583,0.06145 -0.14599,-0.11397 -0.15365,-0.21008c-0.00495,-0.05847 0.02479,-0.11989 0.03878,-0.18036c-0.02793,-0.00942 -0.05588,-0.01884 -0.08381,-0.02824c-0.03966,0.17044 -0.09285,0.33941 -0.1149,0.51283c-0.01982,0.15705 -0.05317,0.25223 -0.25684,0.21307zM266.15925,170.38513c0.0117,0.17192 0.0266,0.38499 0.04146,0.59807c0.05857,-0.04608 0.06535,-0.08768 0.0649,-0.12931c-0.00043,-0.05105 -0.02614,-0.11495 -0.00676,-0.1511c0.14149,-0.2651 0.14418,-0.2631 0.07929,-0.53959c-0.05272,0.06539 -0.10771,0.13379 -0.17889,0.22199zM264.54928,179.61409c0.01803,0.18531 0.03606,0.37112 0.04732,0.48904c0.11354,-0.05995 0.21854,-0.13181 0.33299,-0.17144c0.21854,-0.07581 0.44249,-0.13231 0.66417,-0.19721c-0.00271,-0.01982 -0.00588,-0.04013 -0.00856,-0.05995c-0.04415,-0.00495 -0.09147,-0.02379 -0.13248,-0.01287c-0.17979,0.04708 -0.35688,0.108 -0.53712,0.1536c-0.15681,0.03963 -0.28206,0.00395 -0.29828,-0.21802c-0.02253,0.00547 -0.04508,0.01092 -0.06804,0.01687zM264.42356,180.45889c0.02479,0.22097 0.04912,0.44149 0.07391,0.66444c0.15907,-0.23239 0.02072,-0.45091 -0.07391,-0.66444zM263.77017,188.4729c0.02705,0.00397 0.05364,0.00742 0.08021,0.01139c0.04146,-0.31315 0.08245,-0.6268 0.12391,-0.94043c-0.01848,0.0005 -0.0374,0.0015 -0.05588,0.0025c-0.04912,0.30868 -0.09867,0.61788 -0.14825,0.92656z" fill="#24b6e2" stroke-width="1"/><path d="M290.35996,174.26629v15.96907h-5.28055v-4.35486h-0.03109c0.00404,-0.00547 0.00676,-0.0089 0.0108,-0.01437c-0.04415,-0.01784 -0.08607,-0.03518 -0.13878,-0.0565c0.04325,-0.08671 0.08471,-0.16995 0.13878,-0.27747c-0.14237,-0.05402 -0.27802,-0.10505 -0.47132,-0.17837c0.05003,0.14271 0.0658,0.18779 0.08652,0.24723c-0.08875,-0.02032 -0.15365,-0.03468 -0.20456,-0.04608c0.02162,0.12487 0.04008,0.23139 0.05631,0.32505h-7.36727v4.35484h-5.28057v-15.96808l3.96029,-4.35486h8.9534c0.09644,0.19078 0.19195,0.38054 0.2911,0.57675c0.18296,-0.12931 0.15139,-0.25568 0.04955,-0.41275c-0.03514,-0.05452 -0.07344,-0.1095 -0.11173,-0.1645h1.37838zM273.41112,179.15083c-0.11085,0 -0.20368,0 -0.31272,0c0.01939,-0.28491 -0.18339,-0.19918 -0.30235,-0.22297c-0.04958,-0.00992 -0.11625,0.07926 -0.17485,0.12337c0.36363,-0.1665 0.39515,0.3176 0.63625,0.33694c0.0383,-0.05947 0.08878,-0.13776 0.15365,-0.23736zM274.21002,178.05233c-0.1978,0.3642 -0.1978,0.36418 -0.09056,0.41323c0,0.12834 0,0.23486 0,0.34089c0.03021,0.0005 0.06038,0.001 0.09056,0.0015c0,-0.24823 0,-0.49599 0,-0.75562zM275.08781,178.75937c-0.09822,-0.16797 -0.17304,-0.29581 -0.28073,-0.48012c-0.09373,0.37807 -0.09373,0.37807 0.28073,0.48012zM276.14851,181.72489c-0.10365,-0.3201 -0.20727,-0.64015 -0.31092,-0.96025c-0.02883,0.01189 -0.05812,0.02379 -0.08695,0.03566c0.03197,0.08918 0.06354,0.17837 0.10093,0.28491c-0.00316,0.001 -0.04686,0.01337 -0.09011,0.02526c0.12303,0.22642 0.23477,0.43257 0.34698,0.63867c0.01351,-0.00792 0.02702,-0.01584 0.04008,-0.02426zM283.00032,173.97248c-0.05003,0.03171 -0.09779,0.06242 -0.18567,0.11842c0.13743,0.02476 0.27982,0.0976 0.33164,0.05053c0.16041,-0.14618 0.16267,-0.35921 0.07075,-0.58567c-0.37807,0.20663 -0.3947,0.23634 -0.21674,0.4167zM281.1033,170.84646c0.09958,-0.02181 0.16447,-0.03618 0.24964,-0.0545c0.05181,0.19768 0.21314,0.20613 0.43393,0.12634c-0.06218,-0.14815 -0.11806,-0.29084 -0.18519,-0.4271c-0.00902,-0.01882 -0.07479,-0.00397 -0.11442,-0.00447c0.06218,0.17389 -0.08157,0.13676 -0.12708,0.11742c-0.16357,-0.06987 -0.20187,0.03716 -0.25684,0.24231zM280.44318,172.08218c0.11354,0.4281 0.12479,0.43602 0.32172,0.30571c-0.10319,-0.0981 -0.18833,-0.17937 -0.32172,-0.30571zM283.80598,180.50994c-0.0482,-0.10605 -0.0482,-0.10605 -0.38794,0.00595c0.03109,0.10553 0.06173,0.20958 0.09282,0.3166c0.09373,-0.10205 0.1861,-0.20315 0.29514,-0.32255zM285.07939,180.07292v-2.90308l-1.32026,-1.45176h-5.28057l-1.32026,1.45176v2.90308h7.92062zM289.31185,185.6214c0.04777,-0.09068 0.09461,-0.17937 0.1433,-0.27152c-0.0712,-0.0436 -0.13022,-0.07979 -0.18924,-0.11595c0.00043,-0.0015 0.00045,-0.00247 0.00045,-0.00397c0.06758,0 0.13607,0 0.22304,0c-0.05678,-0.17242 -0.10588,-0.32257 -0.15543,-0.4727c-0.0117,0.00197 -0.02298,0.00347 -0.03426,0.00547c-0.01128,0.15558 -0.02253,0.31165 -0.0338,0.46723c-0.00181,0 -0.00404,0 -0.0063,0l0.00585,0.00645c-0.1807,0.06539 -0.17213,0.13923 0.04641,0.38499zM289.88683,189.17999c-0.15727,-0.18384 -0.30506,-0.35773 -0.48395,-0.56733c-0.04777,0.17787 -0.082,0.30373 -0.1158,0.43007c0.01982,0.00695 0.04008,0.01337 0.06038,0.01982c0.02162,-0.07829 0.0437,-0.15608 0.06535,-0.23436c0.02705,-0.0025 0.05452,-0.00495 0.08157,-0.00745c0.01665,0.15113 0.03335,0.30176 0.04686,0.42515c0.12886,-0.02476 0.22442,-0.0431 0.34562,-0.06589zM206.31975,171.85526l2.19261,2.41104v15.9686h-4.83539c-0.0428,-0.06887 -0.08561,-0.13826 -0.12843,-0.20713c-0.00043,0.07434 0.01622,0.14121 0.032,0.20713h-0.34876v-1.4171c0.06984,-0.04755 0.12886,-0.11942 0.17259,-0.23042c0.04686,-0.11942 0.12977,-0.22149 0.19421,-0.33247c0.00723,-0.01237 0.0009,-0.03421 0.0009,-0.06839c-0.04415,0.01339 -0.08426,0.02579 -0.1149,0.03521c-0.13743,-0.26213 0.07569,-0.37112 0.19645,-0.52722c-0.19331,0.00397 -0.27171,0.09266 -0.28118,0.28786c-0.01037,0.21702 -0.06038,0.41126 -0.16807,0.56436v-2.66721h-7.06763c0.02388,-0.17144 0.04912,-0.34586 -0.13926,-0.48904c0.01803,0.13676 0.20099,0.28194 -0.03019,0.38549c-0.00495,0.0025 0.0063,0.04755 0.02162,0.10355h-0.70519v4.35484h-5.28057v-15.96808l3.96033,-4.35484h10.56157l1.61357,1.77434c-0.05272,0.04063 -0.10633,0.07926 -0.16267,0.11247c0.10947,0.02576 0.21626,0.06142 0.31632,0.057zM192.86396,189.55062c-0.10365,0.18134 -0.16626,0.29084 -0.26179,0.45881c0.10365,0 0.25009,0.01042 0.25142,-0.00147c0.01668,-0.13031 0.01037,-0.26358 0.01037,-0.45733zM192.90676,184.42776c-0.12165,-0.19621 -0.23926,-0.38697 -0.32533,-0.5262c-0.08742,0.07434 -0.16897,0.14368 -0.28748,0.24426c0.10859,-0.01732 0.18745,-0.02974 0.27892,-0.0441c0.05857,0.15608 -0.12391,0.57725 0.3339,0.32602zM193.88502,185.98855c-0.06218,-0.12487 -0.12394,-0.24973 -0.18519,-0.37312c-0.08335,0.04013 -0.15096,0.07284 -0.23432,0.11297c0,-0.15408 0,-0.28986 0,-0.42562c-0.02298,-0.00197 -0.04641,-0.00347 -0.06939,-0.00495c-0.03021,0.17639 -0.06038,0.35228 -0.09237,0.53762c0.17304,0.00197 0.29874,0.06937 0.28658,0.30273c0.03154,-0.07929 0.06264,-0.15905 0.10365,-0.26358c0.06625,0.05797 0.11445,0.1001 0.16312,0.14271c0.00902,-0.00942 0.01846,-0.01884 0.02793,-0.02876zM197.96427,180.09027c-0.12708,0.24921 -0.25413,0.49846 -0.3848,0.75462c0.3064,-0.13923 0.30326,-0.47468 0.3848,-0.75462zM203.23223,180.07292v-2.90308l-1.32024,-1.45176h-5.28057l-1.32024,1.45176v2.90308h7.92062zM204.27041,188.81184c-0.09867,-0.44889 -0.18339,-0.83441 -0.2681,-1.22037c-0.01939,0.00197 -0.03873,0.00347 -0.05812,0.00495c0.0338,0.36718 0.06261,0.7348 0.10857,1.09998c0.00495,0.03816 0.11085,0.06145 0.21764,0.11545zM204.52005,186.85417c-0.00043,-0.0431 -0.0063,-0.08621 -0.00676,-0.12931c-0.11354,-0.04261 -0.23432,-0.08621 -0.36589,-0.13476c0,-0.04905 0,-0.0976 0,-0.14668c0,-0.0015 -0.04551,-0.00347 -0.02253,-0.00495c0.01216,0.06342 -0.06623,0.12634 -0.06804,0.11792c0.03245,0.01189 0.05992,0.02179 0.09059,0.03321c0,0.12782 0,0.25618 0,0.38452c-0.05769,0.04063 -0.07075,0.11197 -0.04596,0.23337c0.01532,0.07729 0.04237,0.16152 0.04596,0.24328c0,0 0,0.0005 0,0.00098c0,0.00445 -0.02886,0.00942 0.00224,0.01439c0,-0.00547 -0.00224,-0.01042 -0.00224,-0.01587c0,-0.15855 0,-0.3176 0,-0.47665c0.02838,-0.01982 0.06442,-0.03468 0.11851,-0.03966c0.09011,-0.00842 0.16581,-0.05302 0.25413,-0.07979zM204.72011,173.67667c0.03963,-0.06242 0.11085,-0.12337 0.11311,-0.18729c0.00809,-0.21405 0.02434,-0.43852 -0.02388,-0.64117c-0.05588,-0.23436 0.01668,-0.33147 0.20323,-0.38399c-0.00136,-0.02429 -0.00271,-0.04858 -0.00407,-0.07284c-0.08787,0.00445 -0.17573,0.00894 -0.26405,0.01339c-0.04056,-0.05847 -0.08202,-0.11842 -0.12303,-0.17789c0.09056,0.47765 0.23341,0.94043 0.03875,1.42652c0.01982,0.00792 0.04011,0.01584 0.05992,0.02329zM205.086,185.41975c-0.01532,0.00892 -0.03875,0.01784 -0.02569,0.02676c-0.00404,0.00695 -0.00766,0.01387 -0.0117,0.02081c0,-0.14913 0,-0.24179 0,-0.24179c0,0 -0.20458,0 -0.21043,0c0.03649,-0.49549 0.07298,-0.61144 0.12075,-0.96175c-0.08742,0.13476 -0.2091,0.16202 -0.21134,0.26707c-0.00809,0.39789 0.0221,0.79672 0.03832,1.19511c0.03245,0.0109 0.0649,0.02231 0.09734,0.03321c0.05543,-0.09713 0.1104,-0.19471 0.16535,-0.29184c0,0.03716 0,0.07481 0,0.11842c0,-0.08918 0.01308,-0.12931 0.03742,-0.166zM205.52261,182.47009c-0.08067,0.34336 -0.36092,0.275 -0.5772,0.35526c0.02838,0.0555 0.05093,0.0996 0.07841,0.1531c0.09822,-0.25518 0.59029,-0.00892 0.49882,-0.50838zM206.18591,188.3664c-0.02117,-0.00197 -0.04192,-0.00347 -0.06309,-0.00545c-0.03245,0.44889 -0.06442,0.89832 -0.09689,1.34774c0.02117,0.00197 0.04237,0.00347 0.06354,0.00545c0.03197,-0.44941 0.06444,-0.89882 0.09644,-1.34774zM225.67385,184.42776l5.28145,5.80615h-1.35989c0,-0.15608 0,-0.3196 0,-0.51531c-0.05362,0.21602 -0.09013,0.3622 -0.12798,0.51531h-0.05766c-0.03109,-0.01832 -0.05814,-0.03421 -0.08247,-0.04858c-0.01037,0.01637 -0.02027,0.03221 -0.03064,0.04858h-6.26242l-4.35099,-4.78441c-0.02431,-0.05452 -0.04955,-0.1095 -0.07479,-0.16402c0.00947,0.03766 0.01848,0.07581 0.02838,0.11347l-0.88317,-0.97114h-1.32024v5.80613h-4.01169c-0.0063,-0.02379 -0.00588,-0.04213 -0.01758,-0.06987c-0.05452,0.02576 -0.10093,0.04758 -0.14825,0.06987h-1.10307v-9.02483c0.09418,-0.04805 0.18881,-0.09663 0.28299,-0.14468c-0.01577,-0.03368 -0.032,-0.06739 -0.04822,-0.10108c-0.07841,0.04558 -0.15636,0.09166 -0.23477,0.13724v-11.18911h14.52145l3.96033,4.35484v5.80663zM226.7269,178.19454c0.03154,0.08918 0.06354,0.17837 0.10093,0.28491c-0.00362,0.001 -0.04732,0.01337 -0.09056,0.02526c0.12303,0.22642 0.23474,0.43257 0.34696,0.6387c0.01351,-0.00792 0.02705,-0.01584 0.04056,-0.02379c-0.10365,-0.3201 -0.20727,-0.64017 -0.31092,-0.96025c-0.02883,0.01189 -0.05814,0.02379 -0.08697,0.03518zM226.06315,176.15363c-0.09822,-0.16797 -0.17301,-0.29581 -0.28073,-0.48012c-0.09373,0.37807 -0.09373,0.37807 0.28073,0.48012zM229.2633,188.7385c0.01082,0.11644 0.04822,0.22992 0.07346,0.33844c0.05769,0.08671 0.11713,0.17589 0.18339,0.27547c0.01037,-0.02874 0.032,-0.05995 0.02883,-0.08771c-0.02162,-0.19968 -0.04282,-0.39986 -0.07841,-0.59704c-0.00585,-0.03171 -0.09373,-0.07731 -0.12391,-0.06392c-0.03963,0.01784 -0.08787,0.09066 -0.08335,0.13476zM217.59596,171.70018c0.04596,0.06539 0.09237,0.13129 0.13833,0.19721c0.06264,-0.0996 0.21448,0.00397 0.26764,-0.15658c0.01982,-0.05995 0.14825,-0.07679 0.29379,-0.14418c-0.02974,-0.04858 -0.09958,-0.21207 -0.12931,-0.20365c-0.21583,0.06145 -0.14599,-0.11397 -0.15365,-0.21008c-0.00495,-0.05847 0.02479,-0.11989 0.03875,-0.18036c-0.02793,-0.00942 -0.05588,-0.01882 -0.08381,-0.02826c-0.03963,0.17044 -0.09282,0.33941 -0.1149,0.51283c-0.02027,0.15705 -0.05317,0.25271 -0.25684,0.21307zM217.55854,172.17636c0.02479,0.2641 0.04955,0.5287 0.07434,0.79278c0.01848,-0.0005 0.03694,-0.0005 0.05543,-0.001c0,-0.26707 0,-0.53415 0,-0.8012c-0.04325,0.00345 -0.08652,0.00645 -0.12977,0.00942zM214.48277,171.30527c0.07974,0.4192 0.16716,0.48954 0.52135,0.42562c-0.20998,-0.17144 -0.36544,-0.29878 -0.52135,-0.42562zM214.47646,187.16929c-0.03514,-0.19174 -0.07841,-0.38202 -0.10407,-0.57525c-0.02883,-0.219 -0.06804,-0.44247 -0.05407,-0.65999c0.01216,-0.19323 0.04189,-0.19076 -0.0338,-0.33149c-0.10543,0.47023 -0.0392,1.16885 0.19197,1.56673zM214.68509,184.38863c-0.2573,0.05302 -0.51683,0.0986 -0.77234,0.16352c-0.09508,0.02429 -0.17706,0.11197 -0.27214,0.13823c-0.17439,0.04858 -0.35419,0.07284 -0.46954,0.09513c0.05181,0.07184 0.11716,0.16252 0.18836,0.26063c0.0338,-0.02279 0.08109,-0.054 0.13876,-0.09263c0.05319,0.07134 0.09239,0.12434 0.12484,0.16747c0.07075,-0.0555 0.12796,-0.10205 0.18743,-0.14566c0.05902,-0.0431 0.11989,-0.08374 0.17801,-0.12387c0.25863,0.29581 0.41499,0.26707 0.51098,-0.08374c0.22171,0.05005 0.25594,-0.01239 0.18565,-0.37907zM214.96177,188.86487c0,-0.64017 0,-1.27984 0,-1.92002c0,0.32752 -0.00992,0.65254 -0.00992,0.97759c0,0.3181 -0.01306,0.6357 0.00316,0.95382c0.01622,-0.00397 0.00676,-0.00742 0.00676,-0.01139zM215.04736,176.08029c-0.03335,-0.22299 -0.06218,-0.44644 -0.10317,-0.66741c-0.00856,-0.04658 -0.05364,-0.10158 -0.09418,-0.11942c-0.0338,-0.01487 -0.11713,0.0104 -0.12256,0.03368c-0.01442,0.06045 -0.01622,0.14171 0.01125,0.19226c0.0541,0.0991 0.18384,0.13626 0.19107,0.28094c0.00495,0.0976 0.01984,0.19473 0.03064,0.29234c0.02883,-0.00397 0.05766,-0.00842 0.08695,-0.01239zM215.25103,185.05704c-0.01848,0.0005 -0.0374,0.00147 -0.05588,0.00247c-0.04958,0.30868 -0.09867,0.61788 -0.14823,0.92659c0.02705,0.00397 0.05362,0.00742 0.08021,0.01137c0.04101,-0.31363 0.08247,-0.62728 0.12394,-0.94043zM215.69982,177.97204c0.02479,0.22097 0.04912,0.44149 0.07391,0.66444c0.15953,-0.23239 0.02117,-0.45039 -0.07391,-0.66444zM218.26779,181.05893c-0.01848,-0.45091 0.0383,-0.90325 -0.08067,-1.35514c-0.01489,-0.05498 -0.0712,-0.12389 -0.0712,-0.19126c0,0.51581 0,1.03159 0,1.54739c0,-0.0005 0.12663,-0.0005 0.15187,-0.001zM219.18658,182.89224c0.0117,0.36615 0.12437,0.74522 -0.11354,1.09253c0.31541,-0.32752 0.36047,-0.92161 0.11354,-1.09253zM223.67543,176.42365c0.28794,-0.06292 0.33568,0.34139 0.55739,0.35923c0.03875,-0.05947 0.08923,-0.13776 0.15365,-0.23736c-0.11085,0 -0.20368,0 -0.31272,0c0.01939,-0.28491 -0.18339,-0.19918 -0.30235,-0.22295c-0.03471,-0.00695 -0.0775,0.03418 -0.11987,0.07481l-0.61776,-0.6793h-6.60038v1.54197c-0.08021,0.02379 -0.16041,0.04855 -0.2415,0.06887c-0.15681,0.03963 -0.28208,0.00397 -0.29828,-0.21802c-0.02255,0.00547 -0.04508,0.0109 -0.06761,0.01637c0.01803,0.18531 0.03604,0.37112 0.04732,0.48904c0.11354,-0.05995 0.21854,-0.13181 0.33299,-0.17144c0.07479,-0.02576 0.15141,-0.04508 0.22711,-0.06739v1.24369h1.83528c0,0.25023 0,0.49994 0,0.75017c0.0054,-0.03516 0.01487,-0.06492 0.032,-0.08326c0.22216,-0.24131 0.01442,-0.45089 0.02208,-0.66691h4.71103l1.32024,-1.45179zM225.18583,175.44656c-0.1978,0.3642 -0.1978,0.36418 -0.09056,0.41323c0,0.12834 0,0.23486 0,0.34089c0.03021,0.0005 0.06038,0.00098 0.09056,0.00147c0,-0.24773 0,-0.49597 0,-0.75562zM232.27466,169.91148h15.84169v5.80613h-10.56112v1.45179h10.56157v5.8076h-1.19364c0.02208,-0.09316 0.04011,-0.18929 0.06625,-0.27994c-0.04729,0.09218 -0.09553,0.18679 -0.14285,0.27994h-6.5382c0.04056,-0.07729 0.08112,-0.1536 0.12256,-0.23237c-0.0712,-0.0436 -0.13022,-0.07979 -0.18924,-0.11595c0.00043,-0.0015 0.00045,-0.00247 0.00045,-0.00397c0.06758,0 0.13607,0 0.22304,0c-0.05678,-0.17242 -0.10591,-0.32257 -0.15546,-0.4727c-0.0117,0.00197 -0.02298,0.00347 -0.03426,0.00545c-0.01128,0.15558 -0.02253,0.31165 -0.0338,0.46725c-0.00181,0 -0.00407,0 -0.0063,0l0.00588,0.00645c-0.16897,0.06145 -0.16538,0.13529 0.01442,0.34536h-2.70042v1.45176h6.94957c-0.07208,0.02529 -0.14192,0.05005 -0.21719,0.07631c0.00585,0.112 0.0117,0.23584 0.01982,0.40333c0.12886,-0.06589 0.23748,-0.12139 0.36544,-0.18679c-0.00809,-0.03271 -0.02479,-0.0996 -0.05272,-0.2111c0.08833,0.06095 0.13248,0.09118 0.17663,0.12142c0.01261,-0.01684 0.02476,-0.03368 0.03742,-0.05055c-0.05947,-0.0555 -0.1158,-0.10802 -0.16447,-0.1531h3.44574v5.80563h-0.12886c-0.00404,-0.04955 -0.00676,-0.0976 -0.01399,-0.14221c-0.00902,-0.05797 -0.02388,-0.11447 -0.03604,-0.17194c-0.03154,0.04163 -0.07569,0.07781 -0.09194,0.12586c-0.01982,0.05897 -0.0338,0.12189 -0.0482,0.18879h-0.65787c0.15187,-0.05452 0.30552,-0.1095 0.49026,-0.17539c-0.11806,-0.08818 -0.18474,-0.13776 -0.26001,-0.19423c-0.10679,0.08421 -0.21764,0.17144 -0.32804,0.25865c0.01622,0.03716 0.03245,0.07384 0.04867,0.111h-1.78528c0.00495,-0.07729 0.00992,-0.1556 0.01489,-0.23289c-0.03426,0.07979 -0.06713,0.1556 -0.10005,0.23289h-12.94434zM246.42392,189.39304c0.00136,0.13379 0.06758,0.26705 0.10498,0.40034c0.01128,0.00197 0.02208,0.00447 0.03335,0.00645c0.02388,-0.23239 0.04822,-0.46478 0.07346,-0.70707c-0.03197,-0.04063 -0.08067,-0.10258 -0.12482,-0.15855c-0.03154,0.15313 -0.0883,0.30623 -0.08695,0.45883zM245.9431,189.43217c-0.00902,-0.11595 -0.01848,-0.23089 -0.02748,-0.34634c-0.01622,-0.0005 -0.032,-0.0005 -0.04822,-0.001c-0.01848,0.05498 -0.03742,0.11 -0.06442,0.19076c-0.04192,-0.12834 -0.07298,-0.22297 -0.12615,-0.38597c-0.08787,0.40483 -0.0009,0.56486 0.26629,0.54254zM245.04912,187.99628c0.01803,0.13676 0.20097,0.28194 -0.03019,0.38549c-0.01261,0.00547 0.07075,0.26955 0.1095,0.41323c0.02117,-0.00547 0.04192,-0.0109 0.06309,-0.01587c-0.08381,-0.24873 0.15772,-0.55494 -0.1424,-0.78286zM244.78417,187.14698c0.12346,0.05153 0.23344,0.09713 0.34291,0.14273c0.04101,-0.07829 0.08473,-0.16252 0.14961,-0.28689c-0.18474,0.05402 -0.33706,0.0986 -0.49252,0.14418zM243.16023,185.34243c0.07344,0.10308 0.13381,0.18779 0.19376,0.27152c0.1316,-0.24328 0.0383,-0.59607 0.3357,-0.75909c-0.14059,-0.04111 -0.14057,-0.04113 -0.40193,0.50689c-0.03021,-0.04063 -0.0541,-0.07234 -0.08428,-0.11297c-0.02117,0.04658 -0.03875,0.08473 -0.04325,0.09366zM242.3275,188.44072c0.17304,0.00197 0.29876,0.06937 0.28658,0.30276c0.03154,-0.07929 0.06264,-0.15905 0.10365,-0.2636c0.06668,0.05797 0.1149,0.1001 0.16357,0.14271c0.00947,-0.00942 0.01846,-0.01884 0.02793,-0.02824c-0.06175,-0.12487 -0.12394,-0.24973 -0.18519,-0.3731c-0.08335,0.04013 -0.15094,0.07284 -0.23429,0.11297c0,-0.15408 0,-0.28986 0,-0.42562c-0.02298,-0.0015 -0.04644,-0.00345 -0.06941,-0.00495c-0.03021,0.17589 -0.06038,0.35178 -0.09282,0.5371zM241.31771,186.75159c0.10859,-0.01732 0.18743,-0.02971 0.2789,-0.04408c0.05902,0.15608 -0.12346,0.57723 0.3339,0.32602c-0.1212,-0.19621 -0.23881,-0.38697 -0.32488,-0.5262c-0.08742,0.07434 -0.16897,0.14368 -0.28794,0.24426zM240.26285,186.43696c0.01982,0.00695 0.04011,0.01337 0.06038,0.01982c0.02162,-0.07829 0.0437,-0.15608 0.06532,-0.23434c0.02705,-0.0025 0.05452,-0.00495 0.08157,-0.00745c0.01668,0.15113 0.03335,0.30176 0.04686,0.42512c0.12886,-0.02476 0.2244,-0.04261 0.34515,-0.06589c-0.15724,-0.18384 -0.30506,-0.35776 -0.48395,-0.56736c-0.04822,0.17787 -0.082,0.30373 -0.11533,0.43007zM242.65193,180.3836c0.04777,0.02429 0.09101,0.04658 0.13471,0.06887c-0.14014,0.36718 -0.14014,0.36715 0.02569,0.62928c0.10365,-0.20463 0.26089,-0.37807 0.26224,-0.55296c0.00136,-0.20315 -0.2262,-0.18879 -0.38166,-0.20068c-0.00856,-0.0005 -0.01846,0.02429 -0.04099,0.0555zM234.69121,188.90252c-0.03604,-0.00745 -0.07208,-0.01487 -0.10814,-0.02231c-0.04325,0.28936 -0.08609,0.57923 -0.12934,0.86909c0.03559,0.00695 0.0712,0.01337 0.10679,0.01982c0.0437,-0.28886 0.08742,-0.57773 0.13069,-0.86659zM235.64965,182.99434c-0.08833,-0.02032 -0.1532,-0.03468 -0.20411,-0.04608c0.03021,0.17639 0.05678,0.33097 0.07524,0.43652c0.1158,0.02824 0.22934,0.0555 0.35145,0.08523c0.0428,-0.0555 0.09958,-0.12931 0.16221,-0.2106c-0.04415,-0.01784 -0.08607,-0.03516 -0.13878,-0.05647c0.04325,-0.08671 0.08471,-0.16947 0.13878,-0.27749c-0.1424,-0.05402 -0.27804,-0.10505 -0.47135,-0.17837c0.05003,0.14271 0.0658,0.18779 0.08652,0.24726zM234.88542,186.55144c-0.10724,0.08621 -0.15365,0.12389 -0.21222,0.17097c-0.05319,-0.14568 -0.09779,-0.2671 -0.13338,-0.3637c-0.05091,0.0986 -0.09777,0.18978 -0.11625,0.22544c0.11311,0.11792 0.23206,0.24279 0.39967,0.41868c0.02162,-0.1546 0.03787,-0.2745 0.06218,-0.45139zM234.39381,177.91012c0.03109,0.10553 0.06175,0.20958 0.09285,0.31662c0.09373,-0.10205 0.18612,-0.20315 0.2956,-0.32255c-0.04867,-0.10605 -0.0487,-0.10603 -0.38844,0.00595zM233.97566,171.36671c-0.05003,0.03171 -0.09777,0.06242 -0.18565,0.11842c0.13743,0.02476 0.27982,0.0976 0.33164,0.05053c0.16041,-0.14618 0.16267,-0.35923 0.07075,-0.58567c-0.37807,0.20663 -0.39427,0.23684 -0.21674,0.4167zM263.95667,174.27821v-4.36674h5.28057v20.32342h-3.96033l-2.42467,-2.66621c0.05317,-0.03863 0.10724,-0.07531 0.15953,-0.11147c0.25863,0.29581 0.41499,0.26707 0.51098,-0.08374c0.22216,0.05053 0.25596,-0.01239 0.18519,-0.37905c-0.2573,0.05302 -0.51683,0.0986 -0.77234,0.1635c-0.09506,0.02429 -0.17663,0.112 -0.27216,0.13826c-0.01665,0.00445 -0.03245,0.00695 -0.04912,0.0109l-2.94152,-3.23455c0.26224,-0.13426 0.52404,-0.26805 0.78628,-0.40233c-0.01577,-0.03368 -0.032,-0.06739 -0.04822,-0.10108c-0.25998,0.1521 -0.52044,0.30423 -0.78043,0.45633l-3.59442,-3.95251v10.16045h-3.00142c-0.00271,-0.01189 -0.00542,-0.02476 -0.00811,-0.03666c-0.01939,0.00197 -0.03875,0.00345 -0.05814,0.00495c0.0009,0.0109 0.00178,0.02131 0.00271,0.03223h-2.21559v-20.32294h3.96033l2.92301,3.21423c-0.19602,0.03716 -0.39111,0.07382 -0.60018,0.11395c0.05947,0.13526 0.08561,0.19573 0.13788,0.31465c0.15187,-0.17389 0.31315,-0.30868 0.49069,-0.39789l6.28989,6.91651v-1.63263c0.0063,0.08671 0.01803,0.17244 0.0275,0.25863c0.02883,-0.00397 0.05769,-0.00842 0.08652,-0.01237c-0.03335,-0.22299 -0.06218,-0.44644 -0.10319,-0.66741c-0.00133,-0.00695 -0.00811,-0.01387 -0.01082,-0.02131v-3.65025c0.02298,-0.00345 0.04508,-0.00545 0.07122,-0.01042c-0.0266,-0.02181 -0.04598,-0.03813 -0.07122,-0.05845zM253.52623,189.32912c-0.13969,-0.05203 -0.27352,-0.10405 -0.4452,-0.16797c0.00181,0.00892 -0.09958,-0.05452 -0.11173,-0.11794c-0.02255,0.0015 -0.15727,0.00347 -0.15727,0.00497c0,0.33592 0,0.67236 0,1.0088c0,0.00495 0.15094,0.00992 0.18248,0.01437c0,-0.08671 0.05814,-0.17639 0.04146,-0.25913c-0.03694,-0.18134 0.0446,-0.25768 0.20953,-0.27304c0.08968,-0.00842 0.18791,-0.05302 0.27623,-0.08124c-0.00043,-0.04261 0.00495,-0.08571 0.0045,-0.12881zM253.68438,176.25865c0.02027,0.00792 0.04011,0.01587 0.06038,0.02379c0.03963,-0.06242 0.11083,-0.12337 0.11309,-0.18731c0.00809,-0.21405 0.02436,-0.43849 -0.02386,-0.64115c-0.05588,-0.23436 0.01668,-0.33149 0.20323,-0.38402c-0.00136,-0.02429 -0.00271,-0.04855 -0.00404,-0.07282c-0.08787,0.00445 -0.17573,0.00892 -0.26405,0.01337c-0.04056,-0.05847 -0.08202,-0.1184 -0.12303,-0.17787c0.09056,0.47765 0.23296,0.94091 0.0383,1.426zM254.08452,188.05175c-0.02072,-0.01387 -0.12527,-0.02826 -0.14599,-0.04263c-0.02928,0.03716 0.17844,0.07531 -0.13562,0.15907c-0.00766,-0.15508 -0.01487,-0.31018 -0.02117,-0.46526c0.04101,0 0.08383,0 0.08067,0c0.03694,-0.49549 0.07344,-0.54752 0.1212,-0.89832c-0.08742,0.13526 -0.20908,0.22647 -0.21134,0.33149c-0.00404,0.18876 0.00181,0.37805 0.00947,0.56683c-0.03471,0 -0.06851,0 -0.06851,0c0,0 0,0.26857 0,0.48857c0.03649,-0.00842 0.06173,-0.01534 0.08968,-0.02279c0.00271,0.05452 0.0054,0.1085 0.00766,0.163c0.03245,0.0109 0.06487,0.02229 0.09732,0.03318c0.05902,-0.10455 0.11806,-0.2086 0.17663,-0.31315zM254.54683,185.07586c-0.08067,0.34336 -0.36092,0.275 -0.57723,0.35526c0.02838,0.0555 0.05093,0.09963 0.07841,0.15313c0.09822,-0.25518 0.59029,-0.00894 0.49882,-0.50838zM257.0535,173.53199c-0.05272,-0.06887 -0.09822,-0.12834 -0.14958,-0.19573c-0.22756,0.10355 -0.43259,0.19623 -0.64212,0.29136c0.02072,0.03368 0.03109,0.04658 0.03785,0.06192c0.00809,0.01732 0.01261,0.03668 0.01622,0.04708c-0.57361,-0.08473 -0.87325,0.42167 -1.28824,0.66741c0.21943,0.05105 0.42715,0.14321 0.59478,-0.12981c0.07344,-0.11992 0.23658,-0.18284 0.3686,-0.24776c0.35012,-0.17144 0.70607,-0.32949 1.06251,-0.49449zM266.71252,174.7727c-0.04325,0.00297 -0.08652,0.00642 -0.12977,0.00942c0.02479,0.2641 0.04958,0.5287 0.07436,0.79278c0.01848,-0.0005 0.03692,-0.0005 0.0554,-0.001c0,-0.26707 0,-0.53415 0,-0.8012zM267.27939,182.30907c-0.01442,-0.05498 -0.0482,-0.12437 -0.0482,-0.19126c0,0.51581 0,1.03164 0,1.54742c0,0 0.08112,-0.0005 0.10633,-0.0005c-0.01848,-0.45091 0.06083,-0.90327 -0.05814,-1.35566zM268.09722,186.59057c0.31541,-0.32702 0.36049,-0.92111 0.11357,-1.09253c0.01216,0.36615 0.12482,0.74522 -0.11357,1.09253zM267.63266,187.89123c0.07434,0.29084 0.1532,0.58023 0.2199,0.87306c0.01803,0.07879 -0.0054,0.16847 -0.00316,0.2532c0.00856,0.29581 0.02027,0.5921 0.03064,0.88791c0.03694,-0.18929 0.00269,-0.38202 0.04325,-0.55394c0.12753,-0.54307 -0.07929,-1.0014 -0.29062,-1.46021zM267.35598,181.15559c-0.02072,0.0005 -0.04192,0.00147 -0.06309,0.00197c0,0.27302 0,0.54604 0,0.81954c0.0054,-0.03516 0.01489,-0.06492 0.032,-0.08326c0.24692,-0.26805 -0.03966,-0.49697 0.03109,-0.73828zM266.62017,174.30595c0.04596,0.06539 0.09192,0.13129 0.13833,0.19718c0.06264,-0.0996 0.21448,0.00397 0.26764,-0.15658c0.01982,-0.05995 0.14825,-0.07681 0.29379,-0.14418c-0.02974,-0.04858 -0.09958,-0.21207 -0.12931,-0.20365c-0.21583,0.06145 -0.14599,-0.11397 -0.15365,-0.21008c-0.00495,-0.05847 0.02476,-0.11989 0.03875,-0.18036c-0.02793,-0.00942 -0.05586,-0.01882 -0.08378,-0.02824c-0.03966,0.17044 -0.09285,0.33941 -0.1149,0.51283c-0.01982,0.15705 -0.05317,0.25223 -0.25684,0.21307zM266.4602,170.50407c0.0117,0.17192 0.0266,0.38499 0.04146,0.59807c0.05857,-0.04608 0.06535,-0.08768 0.0649,-0.12931c-0.00043,-0.05105 -0.02614,-0.11495 -0.00678,-0.1511c0.14149,-0.2651 0.14421,-0.2631 0.07931,-0.53959c-0.05272,0.06539 -0.10771,0.13379 -0.17889,0.22199zM264.85022,179.73303c0.01803,0.18531 0.03606,0.37112 0.04732,0.48904c0.11354,-0.05995 0.21852,-0.13181 0.33297,-0.17144c0.21854,-0.07581 0.44251,-0.13231 0.6642,-0.19721c-0.00271,-0.01982 -0.00588,-0.04013 -0.00856,-0.05995c-0.04415,-0.00495 -0.09149,-0.02379 -0.1325,-0.01287c-0.17979,0.04708 -0.35688,0.10802 -0.53712,0.1536c-0.15681,0.03963 -0.28206,0.00397 -0.29828,-0.21802c-0.02253,0.00547 -0.04508,0.0109 -0.06804,0.01684zM264.7245,180.57783c0.02479,0.22097 0.04912,0.44149 0.07391,0.66444c0.15907,-0.23239 0.02072,-0.45091 -0.07391,-0.66444zM264.07113,188.59185c0.02705,0.00397 0.05364,0.00745 0.08021,0.01142c0.04146,-0.31315 0.08245,-0.6268 0.12391,-0.94043c-0.01848,0.0005 -0.0374,0.00147 -0.05588,0.00247c-0.04912,0.30868 -0.09867,0.61788 -0.14825,0.92656z" fill="url(#color-7)" stroke-width="1"/></g></g></svg>