<svg version="1.1" xmlns="http://www.w3.org/2000/svg" xmlns:xlink="http://www.w3.org/1999/xlink" width="35.2" height="6.6" viewBox="0,0,35.2,6.6"><g transform="translate(-222.4,-176.7)"><g data-paper-data="{&quot;isPaintingLayer&quot;:true}" fill="#000000" fill-rule="nonzero" stroke="none" stroke-width="1" stroke-linecap="butt" stroke-linejoin="miter" stroke-miterlimit="10" stroke-dasharray="" stroke-dashoffset="0" style="mix-blend-mode: normal"><path d="M227.4,176.7l1.4,1.4l-1.4,1.4l-0.9,-0.9h-1.8l-0.4,0.4v1.9l0.5,0.5h1.8l0.9,-0.9l1.4,1.4l-1.4,1.4h-3.7l-1.4,-1.4v-3.8l1.4,-1.4z"/><path d="M230.8,176.7h3.6l1.4,1.4v5.1h-1.8v-1.4h-2.7v1.4h-1.8v-5.1zM233.6,178.5h-1.9l-0.4,0.5v0.9h2.7v-0.9z"/><path d="M243.1,178.1v1.9l-1.4,1.4l1.8,1.9h-2.7l-1.8,-1.9h-0.5v1.9h-1.8v-6.5h5zM241.2,179l-0.5,-0.5h-2.3v0.9h2.3z"/><path d="M244,181.8v-3.7l1.4,-1.4h3.6l1.3,1.4l-0.9,0.9h0.9v4.2h-5zM245.8,179v1.9l0.5,0.5h2.3v-0.5h-1.8v-1.9h1.8l-0.5,-0.5h-1.8z"/><path d="M251.2,181.8v-3.7l1.4,-1.4h3.6l1.4,1.4v3.7l-1.4,1.4h-3.6zM253,179v1.9l0.5,0.5h1.8l0.5,-0.5v-1.9l-0.5,-0.5h-1.8z"/></g></g></svg>