<?xml version="1.0" encoding="utf-8"?><!-- Generator: Adobe Illustrator 16.0.0, SVG Export Plug-In . SVG Version: 6.00 Build 0)  --><!DOCTYPE svg PUBLIC "-//W3C//DTD SVG 1.1//EN" "http://www.w3.org/Graphics/SVG/1.1/DTD/svg11.dtd"><svg xmlns="http://www.w3.org/2000/svg" xmlns:xlink="http://www.w3.org/1999/xlink" version="1.1" id="Layer_1" x="0px" y="0px" width="83.7660140991211" height="6.676994323730469" viewBox="78.11699676513672 86.66100311279297 83.7660140991211 6.676994323730469" enable-background="new 0 0 240 180" xml:space="preserve">
<g>
	<path fill="#FFFFFF" d="M79.561,88.049v1.511h2.734v0.848h-2.734v1.543h3.15v0.848h-4.094v-5.597h3.998v0.847H79.561z" stroke-width="1"/>
	<path fill="#FFFFFF" d="M86.16,87.202c1.679,0,2.895,1.175,2.895,2.798c0,1.615-1.224,2.799-2.918,2.799h-2.271v-5.597H86.16z    M84.809,91.951h1.375c1.087,0,1.919-0.809,1.919-1.943c0-1.143-0.855-1.959-1.959-1.959h-1.335V91.951z" stroke-width="1"/>
	<path fill="#FFFFFF" d="M90.065,92.799v-5.597h0.943v5.597H90.065z" stroke-width="1"/>
	<path fill="#FFFFFF" d="M94.528,88.049v4.75h-0.944v-4.75h-1.767v-0.847h4.486v0.847H94.528z" stroke-width="1"/>
	<path fill="#FFFFFF" d="M103.831,90.048v2.063c-0.568,0.432-1.407,0.727-2.175,0.727c-1.655,0-2.942-1.238-2.942-2.838   c0-1.599,1.303-2.823,2.998-2.823c0.8,0,1.599,0.304,2.151,0.784l-0.536,0.696c-0.432-0.4-1.031-0.64-1.615-0.64   c-1.143,0-2.039,0.872-2.039,1.983c0,1.119,0.903,1.99,2.047,1.99c0.416,0,0.887-0.144,1.287-0.383v-1.56H103.831z" stroke-width="1"/>
	<path fill="#FFFFFF" d="M105.961,91.535l-0.536,1.264h-0.983l2.471-5.597h0.968l2.446,5.597h-1.007l-0.536-1.264H105.961z    M107.368,88.209l-1.056,2.486h2.111L107.368,88.209z" stroke-width="1"/>
	<path fill="#FFFFFF" d="M116.118,92.799l-0.008-4.182l-1.767,3.598h-0.616l-1.767-3.598v4.182h-0.887v-5.597h1.119l1.847,3.718   l1.839-3.718h1.111v5.597H116.118z" stroke-width="1"/>
	<path fill="#FFFFFF" d="M119.417,88.049v1.511h2.734v0.848h-2.734v1.543h3.15v0.848h-4.094v-5.597h3.998v0.847H119.417z" stroke-width="1"/>
	<path fill="#FFFFFF" d="M131.254,90c0,1.6-1.295,2.838-2.967,2.838c-1.671,0-2.966-1.238-2.966-2.838   c0-1.607,1.295-2.823,2.966-2.823C129.959,87.177,131.254,88.401,131.254,90z M126.28,90c0,1.111,0.92,1.99,2.015,1.99   c1.096,0,1.992-0.879,1.992-1.99s-0.896-1.975-1.992-1.975C127.192,88.025,126.28,88.889,126.28,90z" stroke-width="1"/>
	<path fill="#FFFFFF" d="M134.496,87.202c1.406,0,2.215,0.695,2.215,1.911c0,1.263-0.809,1.999-2.215,1.999h-1.287v1.688h-0.944   v-5.597H134.496z M133.209,90.264h1.246c0.864,0,1.352-0.368,1.352-1.127c0-0.735-0.487-1.087-1.352-1.087h-1.246V90.264z" stroke-width="1"/>
	<path fill="#FFFFFF" d="M139.695,88.049v4.75h-0.943v-4.75h-1.768v-0.847h4.486v0.847H139.695z" stroke-width="1"/>
	<path fill="#FFFFFF" d="M142.28,92.799v-5.597h0.944v5.597H142.28z" stroke-width="1"/>
	<path fill="#FFFFFF" d="M150.166,90c0,1.6-1.296,2.838-2.967,2.838S144.232,91.6,144.232,90c0-1.607,1.296-2.823,2.967-2.823   S150.166,88.401,150.166,90z M145.192,90c0,1.111,0.919,1.99,2.015,1.99s1.991-0.879,1.991-1.99s-0.896-1.975-1.991-1.975   C146.104,88.025,145.192,88.889,145.192,90z" stroke-width="1"/>
	<path fill="#FFFFFF" d="M155.103,92.799l-2.982-4.014v4.014h-0.943v-5.597h0.928l2.998,4.021v-4.021h0.928v5.597H155.103z" stroke-width="1"/>
	<path fill="#FFFFFF" d="M161.311,87.737l-0.392,0.832c-0.607-0.368-1.215-0.52-1.639-0.52c-0.552,0-0.912,0.208-0.912,0.584   c0,1.223,3.022,0.567,3.015,2.582c0,1-0.88,1.615-2.111,1.615c-0.879,0-1.711-0.359-2.286-0.887l0.407-0.816   c0.576,0.527,1.296,0.816,1.896,0.816c0.655,0,1.047-0.248,1.047-0.68c0-1.248-3.021-0.552-3.021-2.543   c0-0.959,0.823-1.559,2.038-1.559C160.079,87.162,160.791,87.393,161.311,87.737z" stroke-width="1"/>
</g>
</svg>