<svg version="1.1" xmlns="http://www.w3.org/2000/svg" xmlns:xlink="http://www.w3.org/1999/xlink" width="129.72284" height="19.28895" viewBox="0,0,129.72284,19.28895"><g transform="translate(-175.34537,-176.75292)"><g data-paper-data="{&quot;isPaintingLayer&quot;:true}" fill="#000000" fill-rule="nonzero" stroke="none" stroke-width="1" stroke-linecap="butt" stroke-linejoin="miter" stroke-miterlimit="10" stroke-dasharray="" stroke-dashoffset="0" style="mix-blend-mode: normal"><path d="M225.27174,178.14454v1.85547l-1.3916,1.3916l1.85547,1.85547h-2.7832l-1.85547,-1.85547h-0.46387v1.85547h-1.85547v-6.49414h5.10254zM223.41628,179.07227l-0.46387,-0.46387h-2.31934v0.92773h2.31934z"/><path d="M226.19948,181.85546v-3.71094l1.3916,-1.3916h3.71094l1.3916,1.3916v3.71094l-1.3916,1.3916h-3.71094zM228.05495,179.07227v1.85547l0.46387,0.46387h1.85547l0.46387,-0.46387v-1.85547l-0.46387,-0.46387h-1.85547z"/><path d="M238.72389,176.75292l1.3916,1.3916l-1.3916,1.3916l-0.92773,-0.92773h-1.85547l-0.46387,0.46387v1.85547l0.46387,0.46387h1.85547l0.92773,-0.92773l1.3916,1.3916l-1.3916,1.3916h-3.71094l-1.3916,-1.3916v-3.71094l1.3916,-1.3916h3.71094z"/><path d="M242.89919,180.92772v2.31934h-1.85596v-6.49414h1.85596v2.31934l2.31934,-2.31934h2.7832l-3.24707,3.24707l3.24707,3.24707h-2.7832z"/><path d="M250.32106,181.39161h3.71094v1.85547h-5.56641v-6.49414h5.56641v1.85547h-3.71094v0.46387h3.71094v1.85547h-3.71094z"/><path d="M258.90211,178.6084v4.63867h-1.85547v-4.63867h-2.31934v-1.85547h6.49512v1.85547z"/><text transform="translate(175.43594,193.55) scale(0.18116,0.19935)" font-size="40" xml:space="preserve" fill="#000000" fill-rule="nonzero" stroke="none" stroke-width="1" stroke-linecap="butt" stroke-linejoin="miter" stroke-miterlimit="10" stroke-dasharray="" stroke-dashoffset="0" font-family="Sans Serif" font-weight="normal" text-anchor="start" style="mix-blend-mode: normal"><tspan x="0" dy="0">Fires deadly, but slow moving rockets</tspan></text></g></g></svg>