<svg version="1.1" xmlns="http://www.w3.org/2000/svg" xmlns:xlink="http://www.w3.org/1999/xlink" width="57.6404" height="18.4045" viewBox="0,0,57.6404,18.4045"><g transform="translate(-211.1798,-170.79775)"><g data-paper-data="{&quot;isPaintingLayer&quot;:true}" fill-rule="nonzero" stroke="none" stroke-width="1" stroke-linecap="butt" stroke-linejoin="miter" stroke-miterlimit="10" stroke-dasharray="" stroke-dashoffset="0" style="mix-blend-mode: normal"><g><g fill="#000000"><path d="M266.4438,189.20225h-52.8876c-1.307,0 -2.3764,-1.0694 -2.3764,-2.3764v-13.6517c0,-1.307 1.0694,-2.3764 2.3764,-2.3764h52.8876c1.307,0 2.3764,1.0694 2.3764,2.3764v13.6517c0,1.3071 -1.0694,2.3764 -2.3764,2.3764z"/></g><g fill="#ffffff"><path d="M224.2382,175.10425h1.9443v6.8154h4.2119v1.584h-6.1562z"/><path d="M238.9736,175.10425l-3.6357,8.3994h-1.9199l-3.624,-8.3994h2.1006l2.5557,6l2.5918,-6z"/><path d="M239.6699,175.10425h1.9443v6.8154h4.2119v1.584h-6.1562z"/><path d="M256.3622,175.10425v1.2598l-3.1201,7.1396h-2.1123l3.0127,-6.8154h-2.7842v1.3672h-1.7285v-2.9512z"/></g></g></g></g></svg>