<?xml version="1.0" encoding="utf-8"?><!-- Generator: Adobe Illustrator 16.0.0, SVG Export Plug-In . SVG Version: 6.00 Build 0)  --><!DOCTYPE svg PUBLIC "-//W3C//DTD SVG 1.1//EN" "http://www.w3.org/Graphics/SVG/1.1/DTD/svg11.dtd"><svg xmlns="http://www.w3.org/2000/svg" xmlns:xlink="http://www.w3.org/1999/xlink" version="1.1" id="Layer_1" x="0px" y="0px" width="114.08200073242188" height="9.395999908447266" viewBox="-81.63500213623047 6.5 114.08200073242188 9.395999908447266" enable-background="new 0 0 32 24" xml:space="preserve">
<g>
	<path fill="#FFFFFF" d="M-80.175,7.924v2.758h4.233v0.923h-4.233v2.879h4.893v0.911h-5.853V7h5.697v0.924H-80.175z" stroke-width="1"/>
	<path fill="#FFFFFF" d="M-67.326,15.396l-5.037-6.74v6.74h-0.959V7h0.995l5.038,6.752V7h0.947v8.396H-67.326z" stroke-width="1"/>
	<path fill="#FFFFFF" d="M-61.229,7.924v7.472h-0.959V7.924h-2.734V7h6.44v0.924H-61.229z" stroke-width="1"/>
	<path fill="#FFFFFF" d="M-56.127,7.924v2.758h4.233v0.923h-4.233v2.879h4.893v0.911h-5.853V7h5.697v0.924H-56.127z" stroke-width="1"/>
	<path fill="#FFFFFF" d="M-45.521,12.721c-0.18,0.012-0.372,0.024-0.564,0.024h-2.23v2.65h-0.959V7h3.19   c2.099,0,3.31,1.032,3.31,2.818c0,1.392-0.671,2.327-1.883,2.723l1.967,2.854h-1.091L-45.521,12.721z M-46.085,11.821   c1.523,0,2.387-0.671,2.387-1.979c0-1.271-0.863-1.919-2.387-1.919h-2.23v3.897H-46.085z" stroke-width="1"/>
	<path fill="#FFFFFF" d="M-34.757,7.924v7.472h-0.959V7.924h-2.734V7h6.44v0.924H-34.757z" stroke-width="1"/>
	<path fill="#FFFFFF" d="M-24.595,15.396v-3.694h-5.061v3.694h-0.959V7h0.959v3.79h5.061V7h0.959v8.396H-24.595z" stroke-width="1"/>
	<path fill="#FFFFFF" d="M-20.128,7.924v2.758h4.233v0.923h-4.233v2.879h4.893v0.911h-5.853V7h5.697v0.924H-20.128z" stroke-width="1"/>
	<path fill="#FFFFFF" d="M-9.256,13.272l-0.936,2.123h-1.02L-7.445,7h0.996l3.754,8.396h-1.043l-0.936-2.123H-9.256z M-6.978,8.091   l-1.871,4.258h3.766L-6.978,8.091z" stroke-width="1"/>
	<path fill="#FFFFFF" d="M2.382,12.721c-0.18,0.012-0.372,0.024-0.564,0.024h-2.23v2.65h-0.959V7h3.19   c2.099,0,3.311,1.032,3.311,2.818c0,1.392-0.672,2.327-1.883,2.723l1.967,2.854H4.121L2.382,12.721z M1.818,11.821   c1.523,0,2.387-0.671,2.387-1.979c0-1.271-0.863-1.919-2.387-1.919h-2.23v3.897H1.818z" stroke-width="1"/>
	<path fill="#FFFFFF" d="M8.263,7.924v2.758h4.233v0.923H8.263v2.879h4.893v0.911H7.304V7H13v0.924H8.263z" stroke-width="1"/>
	<path fill="#FFFFFF" d="M21.112,15.396l-5.037-6.74v6.74h-0.959V7h0.995l5.038,6.752V7h0.947v8.396H21.112z" stroke-width="1"/>
	<path fill="#FFFFFF" d="M25.387,13.272l-0.936,2.123h-1.02L27.198,7h0.995l3.754,8.396h-1.043l-0.936-2.123H25.387z M27.666,8.091   l-1.871,4.258h3.766L27.666,8.091z" stroke-width="1"/>
</g>
</svg>