<svg xmlns="http://www.w3.org/2000/svg" xmlns:xlink="http://www.w3.org/1999/xlink" version="1.1" width="15.398799240589142" height="16.948099434375763" viewBox="-0.06024947762489319 -0.28564948588609695 15.398799240589142 16.948099434375763">
  <!-- Exported by Scratch - http://scratch.mit.edu/ -->
  <g id="ID0.5567468330264091">
    <path id="ID0.8620374747551978" fill="#FFFFFF" d="M 9.9225 2.0013 C 10.1378 1.7994 10.2746 1.513 10.2746 1.1941 C 10.2746 0.5807 9.7774 0.0843 9.1648 0.0843 L 6.1127 0.0843 C 5.4993 0.0843 5.0029 0.5807 5.0029 1.1941 C 5.0029 1.513 5.1397 1.7986 5.3551 2.0013 C 2.4265 2.9617 0.3097 5.7134 0.3097 8.9631 C 0.3097 13.011 3.5911 16.2925 7.6391 16.2925 C 11.6871 16.2925 14.9686 13.0103 14.9686 8.9631 C 14.9678 5.7127 12.851 2.9617 9.9225 2.0013 Z M 7.6384 14.6048 C 4.5227 14.6048 1.9967 12.0788 1.9967 8.9631 C 1.9967 5.8473 4.5227 3.3213 7.6384 3.3213 C 10.7541 3.3213 13.2801 5.8473 13.2801 8.9631 C 13.2801 12.0788 10.7541 14.6048 7.6384 14.6048 Z " stroke-width="0.7398989796638489"/>
    <path id="ID0.27613707818090916" fill="#FFFFFF" d="M 11.8921 8.4229 L 8.9976 8.4229 C 8.857 8.07 8.5832 7.7859 8.2392 7.6298 L 8.2392 4.7701 C 8.2392 4.4378 7.9699 4.1685 7.6376 4.1685 C 7.3054 4.1685 7.0361 4.4378 7.0361 4.7701 L 7.0361 7.6312 C 6.5278 7.8613 6.1734 8.3697 6.1734 8.9631 C 6.1734 9.7718 6.8297 10.4273 7.6376 10.4273 C 8.2066 10.4273 8.6942 10.0995 8.9369 9.6253 L 11.8913 9.6253 C 12.2235 9.6253 12.4929 9.3559 12.4929 9.0237 C 12.4936 8.6923 12.2243 8.4229 11.8921 8.4229 Z M 7.6384 9.7644 C 7.1959 9.7644 6.8378 9.4063 6.8378 8.9631 C 6.8378 8.5206 7.1959 8.1617 7.6384 8.1617 C 8.0816 8.1617 8.439 8.5206 8.439 8.9631 C 8.439 9.4063 8.0816 9.7644 7.6384 9.7644 Z " stroke-width="0.7398989796638489"/>
  </g>
</svg>