<svg xmlns="http://www.w3.org/2000/svg" xmlns:xlink="http://www.w3.org/1999/xlink" version="1.1" width="15.281000137329102" height="17.946001052856445" viewBox="0.36099958419799805 -0.18599998950958252 15.281000137329102 17.946001052856445">
  <defs>
    <linearGradient id="grad_1" x1="32.0005" y1="25.9863" x2="32.0005" y2="16.1667" gradientUnits="userSpaceOnUse">
      <stop offset="0" stop-color="#FFFFFF" stop-opacity="0.01"/>
      <stop offset="1" stop-color="#000000" stop-opacity="0"/>
    </linearGradient>
  <linearGradient id="grad_1-,0,0,1,-24,-14" x1="8.0005" y1="11.9863" x2="8.0005" y2="2.1667" gradientUnits="userSpaceOnUse">
      <stop offset="0" stop-color="#FFFFFF" stop-opacity="0.01"/>
      <stop offset="1" stop-color="#000000" stop-opacity="0"/>
    </linearGradient></defs>
  <!-- Exported by Scratch - http://scratch.mit.edu/ -->
  <g id="ID0.5780456010252237">
    <path id="ID0.22074661031365395" fill="#FFFFFF" d="M 15.142 8.787 C 15.142 14.236 12.598 17.26 8.014 17.26 C 3.405 17.26 0.861 14.236 0.861 8.787 C 0.861 3.339 3.405 0.314 8.014 0.314 C 12.598 0.314 15.142 3.338 15.142 8.787 Z M 3.765 8.787 C 3.765 13.036 5.181 15.028 8.014 15.028 C 10.822 15.028 12.238 13.036 12.238 8.787 C 12.238 4.515 10.822 2.547 8.014 2.547 C 5.181 2.546 3.765 4.515 3.765 8.787 Z " stroke-width="1"/>
  </g>
  <g id="ID0.20805533835664392">
    <path id="ID0.013417818117886782" fill="url(#grad_1-,0,0,1,-24,-14)" d="M 3.788 8.553 C 3.812 8.05 3.872 7.558 3.968 7.079 C 4.064 6.6 4.202 6.144 4.382 5.712 C 4.562 5.281 4.808 4.903 5.12 4.58 C 5.432 4.256 5.825 3.999 6.299 3.807 C 6.773 3.616 7.34 3.52 8 3.52 C 8.66 3.52 9.227 3.616 9.701 3.808 C 10.175 4 10.568 4.257 10.88 4.581 C 11.192 4.904 11.438 5.282 11.618 5.713 C 11.798 6.145 11.935 6.6 12.032 7.08 C 12.128 7.559 12.187 8.05 12.212 8.554 C 12.237 9.058 12.248 9.543 12.248 10.01 C 12.248 10.479 12.236 10.966 12.212 11.47 C 12.188 11.975 12.128 12.468 12.032 12.949 C 11.935 13.429 11.798 13.883 11.618 14.309 C 11.437 14.736 11.191 15.111 10.88 15.436 C 10.568 15.76 10.178 16.015 9.71 16.203 C 9.242 16.389 8.672 16.482 8 16.482 C 7.34 16.482 6.773 16.388 6.299 16.203 C 5.824 16.015 5.432 15.761 5.12 15.436 C 4.808 15.111 4.562 14.736 4.382 14.309 C 4.202 13.882 4.064 13.429 3.968 12.949 C 3.872 12.469 3.812 11.975 3.788 11.47 C 3.764 10.966 3.752 10.479 3.752 10.01 C 3.752 9.542 3.764 9.056 3.788 8.553 Z M 5.417 11.6 C 5.447 12.192 5.543 12.749 5.705 13.27 C 5.867 13.791 6.128 14.232 6.488 14.591 C 6.848 14.95 7.352 15.13 8 15.13 C 8.648 15.13 9.152 14.95 9.512 14.591 C 9.872 14.232 10.133 13.791 10.295 13.27 C 10.457 12.749 10.553 12.192 10.583 11.6 C 10.613 11.006 10.628 10.471 10.628 9.991 C 10.628 9.679 10.625 9.335 10.619 8.958 C 10.613 8.581 10.583 8.204 10.529 7.826 C 10.474 7.449 10.396 7.08 10.295 6.721 C 10.194 6.362 10.043 6.047 9.846 5.778 C 9.647 5.508 9.399 5.29 9.098 5.122 C 8.798 4.954 8.432 4.87 8 4.87 C 7.568 4.87 7.202 4.954 6.902 5.122 C 6.602 5.289 6.353 5.508 6.155 5.778 C 5.957 6.048 5.807 6.362 5.705 6.721 C 5.603 7.08 5.525 7.449 5.471 7.826 C 5.417 8.203 5.387 8.58 5.381 8.958 C 5.375 9.335 5.372 9.68 5.372 9.991 C 5.372 10.47 5.387 11.006 5.417 11.6 Z " stroke-width="1"/>
  </g>
</svg>