<svg version="1.1" xmlns="http://www.w3.org/2000/svg" xmlns:xlink="http://www.w3.org/1999/xlink" width="113.25811" height="19.28895" viewBox="0,0,113.25811,19.28895"><g transform="translate(-183.71203,-176.75293)"><g data-paper-data="{&quot;isPaintingLayer&quot;:true}" fill="#000000" fill-rule="nonzero" stroke="none" stroke-width="1" stroke-linecap="butt" stroke-linejoin="miter" stroke-miterlimit="10" stroke-dasharray="" stroke-dashoffset="0" style="mix-blend-mode: normal"><path d="M221.79297,178.14453v1.3916l-0.46387,0.46387l0.46387,0.46387v1.3916l-1.3916,1.3916h-5.10254v-6.49414h5.10254zM219.47363,178.6084h-2.31934v0.46387h2.31934l0.23193,-0.23145zM217.15429,180.92774v0.46387h2.31934l0.23193,-0.23145l-0.23193,-0.23242z"/><path d="M222.7207,176.75293h1.85547v4.63867h3.71094v1.85547h-5.56641z"/><path d="M230.60644,176.75293h3.71094l1.3916,1.3916v5.10254h-1.85547v-1.3916h-2.7832v1.3916h-1.85547v-5.10254zM233.38965,178.6084h-1.85547l-0.46387,0.46387v0.92773h2.7832v-0.92773z"/><path d="M236.63672,178.14453l1.3916,-1.3916h5.10254v1.85547h-4.1748l-0.23193,0.23242l0.23193,0.23145h2.7832l1.3916,1.3916v1.3916l-1.3916,1.3916h-5.10254v-1.85547h4.1748l0.23193,-0.23145l-0.23193,-0.23242h-2.7832l-1.3916,-1.3916z"/><path d="M248.00195,178.6084v4.63867h-1.85547v-4.63867h-2.31934v-1.85547h6.49414v1.85547z"/><path d="M253.10449,181.3916h3.70996v1.85547h-5.56543v-6.49414h5.56543v1.85547h-3.70996v0.46387h3.70996v1.85547h-3.70996z"/><path d="M264.2373,178.14453v1.85547l-1.3916,1.3916l1.85547,1.85547h-2.7832l-1.85547,-1.85547h-0.46387v1.85547h-1.85547v-6.49414h5.10254zM262.38183,179.07227l-0.46387,-0.46387h-2.31934v0.92773h2.31934z"/><text transform="translate(183.80261,193.55) scale(0.18116,0.19935)" font-size="40" xml:space="preserve" fill="#000000" fill-rule="nonzero" stroke="none" stroke-width="1" stroke-linecap="butt" stroke-linejoin="miter" stroke-miterlimit="10" stroke-dasharray="" stroke-dashoffset="0" font-family="Sans Serif" font-weight="normal" text-anchor="start" style="mix-blend-mode: normal"><tspan x="0" dy="0">Fires a burst of wavey projectiles</tspan></text></g></g></svg>