<svg xmlns="http://www.w3.org/2000/svg" xmlns:xlink="http://www.w3.org/1999/xlink" version="1.1" width="21.487998962402344" height="5.197999954223633" viewBox="0.25599998235702515 0.4010000228881836 21.487998962402344 5.197999954223633">
  <!-- Exported by Scratch - http://scratch.mit.edu/ -->
  <g id="ID0.5104754148051143">
    <path id="ID0.16143613774329424" fill="#FFFFFF" d="M 2.788 1.537 L 2.788 5.099 L 2.081 5.099 L 2.081 1.537 L 0.756 1.537 L 0.756 0.901 L 4.119 0.901 L 4.119 1.537 L 2.788 1.537 Z " stroke-width="1"/>
    <path id="ID0.5566481584683061" fill="#FFFFFF" d="M 5.435 1.537 L 5.435 2.67 L 7.486 2.67 L 7.486 3.306 L 5.435 3.306 L 5.435 4.463 L 7.798 4.463 L 7.798 5.099 L 4.728 5.099 L 4.728 0.901 L 7.726 0.901 L 7.726 1.537 L 5.435 1.537 Z " stroke-width="1"/>
    <path id="ID0.6893982719630003" fill="#FFFFFF" d="M 9.257 4.151 L 8.856 5.098 L 8.118 5.098 L 9.972 0.901 L 10.698 0.901 L 12.533 5.098 L 11.777 5.098 L 11.376 4.151 L 9.257 4.151 Z M 10.313 1.657 L 9.521 3.521 L 11.104 3.521 L 10.313 1.657 Z " stroke-width="1"/>
    <path id="ID0.45091560017317533" fill="#FFFFFF" d="M 16.875 5.099 L 16.869 1.963 L 15.543 4.661 L 15.082 4.661 L 13.757 1.963 L 13.757 5.099 L 13.091 5.099 L 13.091 0.901 L 13.931 0.901 L 15.316 3.689 L 16.695 0.901 L 17.529 0.901 L 17.529 5.098 L 16.875 5.098 Z " stroke-width="1"/>
    <path id="ID0.0718244300223887" fill="#FFFFFF" d="M 20.536 5.099 L 20.536 1.531 L 19.715 1.531 L 19.715 0.901 L 21.244 0.901 L 21.244 5.098 L 20.536 5.098 Z " stroke-width="1"/>
  </g>
</svg>