<svg version="1.1" xmlns="http://www.w3.org/2000/svg" xmlns:xlink="http://www.w3.org/1999/xlink" width="60.25" height="19.79785" viewBox="0,0,60.25,19.79785"><defs><linearGradient x1="240" y1="170.10108" x2="240" y2="189.89893" gradientUnits="userSpaceOnUse" id="color-1"><stop offset="0" stop-color="#000000"/><stop offset="1" stop-color="#000000" stop-opacity="0"/></linearGradient></defs><g transform="translate(-209.875,-170.10107)"><g data-paper-data="{&quot;isPaintingLayer&quot;:true}" fill-rule="nonzero" stroke="none" stroke-linecap="butt" stroke-linejoin="miter" stroke-miterlimit="10" stroke-dasharray="" stroke-dashoffset="0" style="mix-blend-mode: normal"><path d="M209.875,189.89893v-19.79785h60.25v19.79785z" fill="url(#color-1)" stroke-width="0"/><path d="M221.5,183.8c-0.7,-0.4 -1.2,-0.9 -1.6,-1.5c-0.4,-0.6 -0.6,-1.4 -0.6,-2.2c0,-0.8 0.2,-1.6 0.6,-2.2c0.4,-0.6 0.9,-1.2 1.6,-1.5c0.7,-0.3 1.5,-0.6 2.3,-0.6c0.7,0 1.4,0.1 2,0.4c0.6,0.3 1.1,0.6 1.5,1.1l-1.2,1c-0.6,-0.7 -1.3,-1 -2.1,-1c-0.5,0 -1,0.1 -1.4,0.3c-0.4,0.2 -0.7,0.5 -1,1c-0.3,0.5 -0.3,0.9 -0.3,1.4c0,0.5 0.1,1 0.3,1.4c0.2,0.4 0.5,0.7 1,1c0.4,0.2 0.9,0.3 1.4,0.3c0.8,0 1.5,-0.3 2.1,-1l1.2,1.2c-0.4,0.5 -0.9,0.9 -1.5,1.1c-0.6,0.3 -1.3,0.4 -2,0.4c-0.8,-0.1 -1.6,-0.2 -2.3,-0.6z" fill="#ffffff" stroke-width="1"/><path d="M230.2,183.8c-0.7,-0.4 -1.2,-0.9 -1.6,-1.6c-0.4,-0.7 -0.6,-1.4 -0.6,-2.2c0,-0.8 0.2,-1.6 0.6,-2.2c0.4,-0.6 0.9,-1.2 1.6,-1.6c0.7,-0.4 1.5,-0.6 2.4,-0.6c0.9,0 1.7,0.2 2.4,0.6c0.7,0.4 1.2,0.9 1.6,1.6c0.3,0.6 0.5,1.4 0.5,2.2c0,0.8 -0.2,1.6 -0.6,2.2c-0.4,0.7 -0.9,1.2 -1.6,1.6c-0.7,0.4 -1.5,0.6 -2.4,0.6c-0.9,0 -1.6,-0.2 -2.3,-0.6zM233.9,182.3c0.4,-0.2 0.7,-0.5 0.9,-1c0.2,-0.5 0.3,-0.9 0.3,-1.4c0,-0.5 -0.1,-1 -0.3,-1.4c-0.2,-0.4 -0.5,-0.7 -0.9,-1c-0.4,-0.2 -0.8,-0.3 -1.3,-0.3c-0.5,0 -0.9,0.1 -1.3,0.3c-0.4,0.2 -0.7,0.5 -0.9,1c-0.2,0.5 -0.3,0.9 -0.3,1.4c0,0.5 0.1,1 0.3,1.4c0.2,0.4 0.5,0.7 0.9,1c0.4,0.2 0.8,0.3 1.3,0.3c0.5,0 0.9,0 1.3,-0.3z" fill="#ffffff" stroke-width="1"/><path d="M238.3,180.1h3.4v1.5h-3.4z" fill="#ffffff" stroke-width="1"/><path d="M245,183.8c-0.7,-0.4 -1.2,-0.9 -1.6,-1.6c-0.4,-0.7 -0.6,-1.4 -0.6,-2.2c0,-0.8 0.2,-1.6 0.6,-2.2c0.4,-0.6 0.9,-1.2 1.6,-1.6c0.7,-0.4 1.5,-0.6 2.4,-0.6c0.9,0 1.7,0.2 2.4,0.6c0.7,0.4 1.2,0.9 1.6,1.6c0.4,0.7 0.6,1.4 0.6,2.2c0,0.8 -0.2,1.6 -0.6,2.2c-0.4,0.7 -0.9,1.2 -1.6,1.6c-0.7,0.4 -1.5,0.6 -2.4,0.6c-0.9,0 -1.7,-0.2 -2.4,-0.6zM248.7,182.3c0.4,-0.2 0.7,-0.5 0.9,-1c0.2,-0.5 0.3,-0.9 0.3,-1.4c0,-0.5 -0.1,-1 -0.3,-1.4c-0.2,-0.4 -0.5,-0.7 -0.9,-1c-0.4,-0.2 -0.8,-0.3 -1.3,-0.3c-0.5,0 -0.9,0.1 -1.3,0.3c-0.4,0.2 -0.7,0.5 -0.9,1c-0.2,0.5 -0.3,0.9 -0.3,1.4c0,0.5 0.1,1 0.3,1.4c0.2,0.4 0.5,0.7 0.9,1c0.4,0.2 0.8,0.3 1.3,0.3c0.5,0 0.9,0 1.3,-0.3z" fill="#ffffff" stroke-width="1"/><path d="M259,176.2c0.5,0.2 1,0.6 1.3,1.1c0.3,0.5 0.4,1 0.4,1.6c0,0.6 -0.1,1.2 -0.4,1.6c-0.3,0.5 -0.7,0.8 -1.3,1.1c-0.6,0.3 -1.2,0.4 -1.9,0.4h-1.7v2.3h-1.9v-8.4h3.6c0.7,-0.1 1.4,0 1.9,0.3zM258.3,179.9c0.3,-0.3 0.5,-0.6 0.5,-1.1c0,-0.5 -0.2,-0.8 -0.5,-1.1c-0.3,-0.3 -0.7,-0.4 -1.3,-0.4h-1.6v2.9h1.6c0.6,0.1 1,0 1.3,-0.3z" fill="#ffffff" stroke-width="1"/></g></g></svg>