<svg version="1.1" xmlns="http://www.w3.org/2000/svg" xmlns:xlink="http://www.w3.org/1999/xlink" width="35.939" height="6.262" viewBox="0,0,35.939,6.262"><g transform="translate(-222.03,-176.583)"><g data-paper-data="{&quot;isPaintingLayer&quot;:true}" fill="#000000" fill-rule="nonzero" stroke="none" stroke-width="1" stroke-linecap="butt" stroke-linejoin="miter" stroke-miterlimit="10" stroke-dasharray="" stroke-dashoffset="0" style="mix-blend-mode: normal"><g><path/><path d="M228.522,177.925v1.789l-1.391,1.342h-3.246v1.789h-1.855v-6.262h5.101zM226.667,178.819l-0.463,-0.447h-2.319v0.894h2.319z"/><path d="M230.841,176.583h3.71l1.391,1.342v4.92h-1.855v-1.342h-2.782v1.342h-1.855v-4.92zM233.624,178.372h-1.855l-0.464,0.447v0.895h2.782v-0.895z"/><path d="M243.362,177.925v1.789l-1.391,1.342l1.854,1.789h-2.781l-1.855,-1.789h-0.464v1.789h-1.855v-6.262h5.102zM241.507,178.819l-0.463,-0.447h-2.319v0.894h2.319z"/><path d="M248.231,178.372v4.473h-1.855v-4.473h-2.318v-1.789h6.492v1.789z"/><path d="M251.478,179.713v-3.13h1.854v2.236l0.464,0.447h1.855l0.464,-0.447v-2.236h1.854v3.13l-1.391,1.342h-0.928v1.789h-1.855v-1.788h-0.927z"/><path/></g></g></g></svg>