<svg version="1.1" xmlns="http://www.w3.org/2000/svg" xmlns:xlink="http://www.w3.org/1999/xlink" width="29.214" height="6.262" viewBox="0,0,29.214,6.262"><g transform="translate(-225.625,-176.583)"><g data-paper-data="{&quot;isPaintingLayer&quot;:true}" fill="#000000" fill-rule="nonzero" stroke="none" stroke-width="1" stroke-linecap="butt" stroke-linejoin="miter" stroke-miterlimit="10" stroke-dasharray="" stroke-dashoffset="0" style="mix-blend-mode: normal"><g><path/><path d="M232.117,177.925v1.341l-0.463,0.447l0.463,0.447v1.342l-1.391,1.342h-5.101v-6.261h5.101zM229.798,178.372h-2.319v0.447h2.319l0.231,-0.223zM227.479,180.608v0.448h2.319l0.231,-0.224l-0.231,-0.224z"/><path d="M238.146,182.845h-1.391l-0.464,-0.447l-0.464,0.447h-1.391l-1.391,-1.342v-4.92h1.855v4.025l0.232,0.224l0.232,-0.224v-4.025h1.855v4.025l0.231,0.224l0.232,-0.224v-4.025h1.855v4.92z"/><path d="M241.855,176.583h3.71l1.391,1.342v4.92h-1.854v-1.342h-2.783v1.342h-1.854v-4.92zM244.638,178.372h-1.855l-0.464,0.447v0.895h2.783v-0.895z"/><path d="M249.738,180.608v2.237h-1.854v-6.262h1.854v2.236l2.319,-2.236h2.782l-3.246,3.13l3.246,3.131h-2.782z"/><path/></g></g></g></svg>