<svg version="1.1" xmlns="http://www.w3.org/2000/svg" xmlns:xlink="http://www.w3.org/1999/xlink" width="72.46233" height="19.28894" viewBox="0,0,72.46233,19.28894"><g transform="translate(-203.85943,-176.75293)"><g data-paper-data="{&quot;isPaintingLayer&quot;:true}" fill="#000000" fill-rule="nonzero" stroke="none" stroke-width="1" stroke-linecap="butt" stroke-linejoin="miter" stroke-miterlimit="10" stroke-dasharray="" stroke-dashoffset="0" style="mix-blend-mode: normal"><path d="M227.70703,178.14453v1.85547l-1.3916,1.3916h-3.24707v1.85547h-1.85547v-6.49414h5.10254zM225.85156,179.07227l-0.46387,-0.46387h-2.31934v0.92773h2.31934z"/><path d="M230.49024,183.24707h-1.85547v-6.49414h1.85547z"/><path d="M231.41797,178.14453l1.3916,-1.3916h5.10254v1.85547h-4.1748l-0.23193,0.23193l0.23193,0.23193h2.7832l1.3916,1.3916v1.3916l-1.3916,1.3916h-5.10254v-1.85547h4.1748l0.23193,-0.23193l-0.23193,-0.23193h-2.7832l-1.3916,-1.3916z"/><path d="M242.78321,178.6084v4.63867h-1.85596v-4.63867h-2.31934v-1.85547h6.49463v1.85547z"/><path d="M245.79785,181.85547v-3.71094l1.3916,-1.3916h3.71094l1.3916,1.3916v3.71094l-1.3916,1.3916h-3.71094zM247.65332,179.07227v1.85547l0.46387,0.46387h1.85547l0.46387,-0.46387v-1.85547l-0.46387,-0.46387h-1.85547z"/><path d="M253.21973,176.75293h1.85547v4.63867h3.71191v1.85547h-5.56738z"/><text transform="translate(203.95,193.55) scale(0.18116,0.19935)" font-size="40" xml:space="preserve" fill="#000000" fill-rule="nonzero" stroke="none" stroke-width="1" stroke-linecap="butt" stroke-linejoin="miter" stroke-miterlimit="10" stroke-dasharray="" stroke-dashoffset="0" font-family="Sans Serif" font-weight="normal" text-anchor="start" style="mix-blend-mode: normal"><tspan x="0" dy="0">Standard issue Pistol</tspan></text></g></g></svg>