<svg version="1.1" xmlns="http://www.w3.org/2000/svg" xmlns:xlink="http://www.w3.org/1999/xlink" width="24.5" height="8"><g transform="translate(-227.75,-176.5)"><g data-paper-data="{&quot;isPaintingLayer&quot;:true}" fill="none" fill-rule="nonzero" stroke="none" stroke-width="1" stroke-linecap="butt" stroke-linejoin="miter" stroke-miterlimit="10" stroke-dasharray="" stroke-dashoffset="0" font-family="none" font-weight="none" font-size="none" text-anchor="none" style="mix-blend-mode: normal"><path d="M228.05,176.85h23.95v7.4h-23.95z" id="ID0.0823833430185914" fill="#2f312f"/><path d="M252.25,176.5v8h-24.5v-8zM251.75,177h-23.5v7h23.5z" id="ID0.449006175622344" fill="#4f524f"/><g fill="#bdc6bd"><path d="M233.122,181.889h-0.547v-3.248h1.294c0.816,0 1.285,0.404 1.285,1.109c0,0.732 -0.469,1.159 -1.285,1.159h-0.747zM233.122,180.418h0.724c0.501,0 0.784,-0.214 0.784,-0.654c0,-0.427 -0.283,-0.631 -0.784,-0.631h-0.724z" data-paper-data="{&quot;origPos&quot;:null}" id="ID0.2968461997807026"/><path d="M235.066,181.889l1.434,-3.248h0.561l1.419,3.248h-0.584l-0.311,-0.733h-1.637l-0.311,0.733zM236.152,180.668h1.225l-0.612,-1.442z" data-paper-data="{&quot;origPos&quot;:null}" id="ID0.6345449103973806"/><path d="M238.752,180.543v-1.902h0.547v1.902c0,0.547 0.339,0.877 0.872,0.877c0.528,0 0.858,-0.325 0.858,-0.877v-1.902h0.547v1.902c0,0.848 -0.533,1.368 -1.41,1.368c-0.876,0 -1.415,-0.519 -1.414,-1.368z" data-paper-data="{&quot;origPos&quot;:null}" id="ID0.9621431534178555"/><path d="M243.994,180.998c0,-0.724 -1.754,-0.32 -1.754,-1.475c0,-0.556 0.479,-0.904 1.184,-0.904c0.422,0 0.834,0.134 1.136,0.334l-0.228,0.482c-0.351,-0.214 -0.705,-0.302 -0.95,-0.302c-0.32,0 -0.529,0.121 -0.529,0.339c0,0.709 1.754,0.329 1.749,1.498c0,0.581 -0.51,0.937 -1.225,0.937c-0.51,0 -0.992,-0.208 -1.326,-0.515l0.236,-0.473c0.334,0.306 0.751,0.473 1.1,0.473c0.38,0 0.607,-0.144 0.607,-0.394z" data-paper-data="{&quot;origPos&quot;:null}" id="ID0.7430771440267563"/><path d="M247.613,181.396v0.493h-2.375v-3.248h2.321v0.492h-1.773v0.877h1.587v0.491h-1.587v0.895h1.827" data-paper-data="{&quot;origPos&quot;:null}" id="ID0.5360893341712654"/></g></g></g></svg>