<svg version="1.1" xmlns="http://www.w3.org/2000/svg" xmlns:xlink="http://www.w3.org/1999/xlink" width="48.5" height="15.5" viewBox="0,0,48.5,15.5"><g transform="translate(-215.75,-252.86155)"><g data-paper-data="{&quot;isPaintingLayer&quot;:true}" fill-rule="nonzero" stroke="none" stroke-linecap="butt" stroke-linejoin="miter" stroke-miterlimit="10" stroke-dasharray="" stroke-dashoffset="0" style="mix-blend-mode: normal"><path d="M215.93442,267.95424v-14.79973h48.18517v14.79973z" fill="#ffffff" stroke-width="0"/><path d="M264.25,252.86156v15.5h-48.5v-15.5zM263.75,253.36156h-47.5v14.5h47.5z" fill="#ffffff" stroke-width="1"/><g fill="#7f7f7f" stroke-width="1"><path d="M227.7556,263.168c-0.41981,-0.13994 -0.69968,-0.34984 -0.97955,-0.55974l0.27987,-0.62971c0.2099,0.2099 0.48978,0.34984 0.83962,0.48978c0.34984,0.13994 0.69968,0.2099 1.04952,0.2099c0.48978,0 0.83962,-0.06997 1.11949,-0.27987c0.2099,-0.13994 0.34984,-0.34984 0.34984,-0.62971c0,-0.2099 -0.06997,-0.34984 -0.2099,-0.48978c-0.13994,-0.13994 -0.27987,-0.2099 -0.48978,-0.27987c-0.2099,-0.06997 -0.48978,-0.13994 -0.83962,-0.2099c-0.41981,-0.13994 -0.76965,-0.2099 -1.04952,-0.34984c-0.27987,-0.13994 -0.48978,-0.27987 -0.69968,-0.48978c-0.2099,-0.2099 -0.27987,-0.48978 -0.27987,-0.90958c0,-0.27987 0.06997,-0.62971 0.27987,-0.83962c0.13994,-0.27987 0.41981,-0.41981 0.76965,-0.62971c0.34984,-0.13994 0.76965,-0.2099 1.25942,-0.2099c0.34984,0 0.69968,0.06997 1.04952,0.13994c0.34984,0.06997 0.62971,0.2099 0.83962,0.41981l-0.27987,0.69968c-0.27987,-0.13994 -0.48978,-0.27987 -0.76965,-0.34984c-0.27987,-0.06997 -0.55974,-0.13994 -0.83962,-0.13994c-0.48978,0 -0.83962,0.06997 -1.04952,0.27987c-0.2099,0.13994 -0.34984,0.41981 -0.34984,0.69968c0,0.2099 0.06997,0.34984 0.2099,0.48978c0.13994,0.13994 0.27987,0.2099 0.48978,0.27987c0.2099,0.06997 0.48978,0.13994 0.83962,0.2099c0.41981,0.13994 0.76965,0.2099 1.04952,0.34984c0.27987,0.13994 0.48978,0.27987 0.69968,0.48978c0.2099,0.2099 0.27987,0.48978 0.27987,0.90958c0,0.27987 -0.06997,0.55974 -0.27987,0.83962c-0.2099,0.27987 -0.41981,0.48978 -0.76965,0.62971c-0.34984,0.13994 -0.76965,0.2099 -1.25942,0.2099c-0.41981,-0.13994 -0.83962,-0.2099 -1.25942,-0.34984z"/><path d="M233.63291,258.1303h-2.02907v-0.69968h4.82779v0.69968h-2.02907v5.17763h-0.83962v-5.17763z"/><path d="M240.83962,261.8386h-3.14856l-0.62971,1.46933h-0.83962l2.65878,-5.87731h0.83962l2.65878,5.87731h-0.90958zM240.55974,261.13892l-1.25942,-2.86869l-1.25942,2.86869z"/><path d="M247.2067,263.30793l-1.25942,-1.81917c-0.13994,0 -0.27987,0 -0.34984,0h-1.46933v1.81917h-0.83962v-5.87731h2.30894c0.76965,0 1.32939,0.2099 1.81917,0.55974c0.41981,0.34984 0.62971,0.83962 0.62971,1.46933c0,0.41981 -0.13994,0.83962 -0.34984,1.18946c-0.2099,0.34984 -0.55974,0.55974 -0.97955,0.69968l1.39936,1.9591zM246.71693,260.43924c0.27987,-0.2099 0.41981,-0.55974 0.41981,-0.97955c0,-0.41981 -0.13994,-0.76965 -0.41981,-0.97955c-0.27987,-0.2099 -0.69968,-0.34984 -1.18946,-0.34984h-1.39936v2.65878h1.39936c0.55974,0 0.90958,-0.06997 1.18946,-0.34984z"/><path d="M250.42523,258.1303h-2.02907v-0.69968h4.82779v0.69968h-2.02907v5.17763h-0.83962v-5.17763z"/></g></g></g></svg>