<svg version="1.1" xmlns="http://www.w3.org/2000/svg" xmlns:xlink="http://www.w3.org/1999/xlink" width="113.2" height="38.8" viewBox="0,0,113.2,38.8"><g transform="translate(-183.4,-160.6)"><g data-paper-data="{&quot;isPaintingLayer&quot;:true}" fill-rule="nonzero" stroke="none" stroke-linecap="butt" stroke-linejoin="miter" stroke-miterlimit="10" stroke-dasharray="" stroke-dashoffset="0" style="mix-blend-mode: normal"><g fill="#ffffff" stroke-width="1"><path d="M206.52052,173.69775h5.10254l1.3916,1.3916v3.71094l-1.3916,1.3916h-5.10254zM208.37598,175.55322v2.7832h2.31934l0.46387,-0.46387v-1.85547l-0.46387,-0.46387h-2.31934z"/><path d="M215.79786,178.33642h3.71094v1.85547h-5.56641v-6.49414h5.56641v1.85547h-3.71094v0.46387h3.71094v1.85547h-3.71094z"/><path d="M221.5962,173.69775h3.71094l1.3916,1.3916v5.10254h-1.85547v-1.3916h-2.7832v1.3916h-1.85547v-5.10254zM224.3794,175.55322h-1.85547l-0.46387,0.46387v0.92773h2.7832v-0.92773z"/><path d="M231.56934,175.55322v4.63867h-1.85547v-4.63867h-2.31934v-1.85547h6.49414v1.85547z"/><path d="M236.67188,177.87256v2.31934h-1.85547v-6.49414h1.85547v2.31934h2.7832v-2.31934h1.85498v6.49414h-1.85498v-2.31934z"/><path d="M251.08936,175.08935v1.3916l-0.46484,0.46387l0.46484,0.46387v1.3916l-1.39258,1.3916h-5.10254v-6.49414h5.10254zM248.76905,175.55322h-2.31934v0.46387h2.31934l0.23242,-0.23145zM246.44972,177.87256v0.46387h2.31934l0.23242,-0.23242l-0.23242,-0.23145z"/><path d="M252.01612,178.80029v-3.71094l1.3916,-1.3916h3.71094l1.3916,1.3916v3.71094l-1.3916,1.3916h-3.71094zM253.87159,176.01709v1.85547l0.46387,0.46387h1.85547l0.46387,-0.46387v-1.85547l-0.46387,-0.46387h-1.85547z"/><path d="M261.29347,176.48095v3.71094h-1.85547v-6.49414h1.85547l1.3916,1.3916l1.3916,-1.3916h1.85547v6.49414h-1.85547v-3.71094l-1.3916,1.3916z"/><path d="M273.35401,175.08935v1.3916l-0.46387,0.46387l0.46387,0.46387v1.3916l-1.3916,1.3916h-5.10254v-6.49414h5.10254zM271.03468,175.55322h-2.31934v0.46387h2.31934l0.23242,-0.23145zM268.71534,177.87256v0.46387h2.31934l0.23242,-0.23242l-0.23242,-0.23145z"/></g><g fill="#ffffff" stroke-width="1"><path d="M197.36182,183.83056h0.99756c0.25879,0 0.48779,0.05176 0.68604,0.15625c0.19824,0.10352 0.35205,0.24805 0.46191,0.43359c0.10986,0.18554 0.16455,0.39746 0.16455,0.63574c0,0.2373 -0.05469,0.44922 -0.16455,0.63477c-0.10986,0.18555 -0.26367,0.33008 -0.46191,0.43457c-0.19824,0.10352 -0.42725,0.15527 -0.68604,0.15527h-0.99756zM198.34522,186.05714c0.21484,0 0.40283,-0.04297 0.56348,-0.12793c0.16113,-0.08496 0.28613,-0.20312 0.37451,-0.35352c0.08887,-0.15039 0.1333,-0.32422 0.1333,-0.51953c0,-0.19629 -0.04443,-0.37012 -0.1333,-0.52051c-0.08838,-0.15039 -0.21338,-0.26758 -0.37451,-0.35352c-0.16064,-0.08496 -0.34863,-0.12695 -0.56348,-0.12695h-0.72412v2.00195h0.72412z"/><path d="M201.98536,186.05714v0.22363h-1.73242v-2.4502h1.68018v0.22461h-1.4209v0.87109h1.2666v0.2207h-1.2666v0.91016h1.47314z"/><path d="M202.85352,184.05518v0.96191h1.2666v0.22461h-1.2666v1.03906h-0.25928v-2.4502h1.68018v0.22461h-1.4209z"/><path d="M206.542,186.05714v0.22363h-1.73242v-2.4502h1.68018v0.22461h-1.4209v0.87109h1.2666v0.2207h-1.2666v0.91016h1.47314z"/><path d="M208.688,185.62647h-1.36523l-0.29395,0.6543h-0.26953l1.12012,-2.4502h0.25537l1.12012,2.4502h-0.27295zM208.59327,185.4165l-0.58789,-1.31641l-0.58789,1.31641z"/><path d="M210.01417,184.05518h-0.86084v-0.22461h1.98096v0.22461h-0.86133v2.22559h-0.25879z"/><path d="M213.27979,186.05714v0.22363h-1.73242v-2.4502h1.68018v0.22461h-1.4209v0.87109h1.2666v0.2207h-1.2666v0.91016h1.47314z"/><path d="M213.88868,183.83056h0.99756c0.25879,0 0.48779,0.05176 0.68604,0.15625c0.19824,0.10352 0.35205,0.24805 0.46191,0.43359c0.10986,0.18554 0.16455,0.39746 0.16455,0.63574c0,0.2373 -0.05469,0.44922 -0.16455,0.63477c-0.10986,0.18555 -0.26367,0.33008 -0.46191,0.43457c-0.19824,0.10352 -0.42725,0.15527 -0.68604,0.15527h-0.99756zM214.87208,186.05714c0.21484,0 0.40283,-0.04297 0.56348,-0.12793c0.16113,-0.08496 0.28613,-0.20312 0.37451,-0.35352c0.08887,-0.15039 0.1333,-0.32422 0.1333,-0.51953c0,-0.19629 -0.04443,-0.37012 -0.1333,-0.52051c-0.08838,-0.15039 -0.21338,-0.26758 -0.37451,-0.35352c-0.16064,-0.08496 -0.34863,-0.12695 -0.56348,-0.12695h-0.72412v2.00195h0.72412z"/><path d="M219.34864,184.05518c0.17773,0.14941 0.26611,0.35449 0.26611,0.61523c0,0.26172 -0.08838,0.4668 -0.26611,0.61426c-0.17725,0.14844 -0.42236,0.22266 -0.73486,0.22266h-0.65771v0.77344h-0.25928v-2.4502h0.91699c0.3125,0 0.55762,0.0752 0.73486,0.22461zM219.16358,185.12061c0.12793,-0.10645 0.19238,-0.25586 0.19238,-0.4502c0,-0.19824 -0.06445,-0.35059 -0.19238,-0.45605c-0.12842,-0.10645 -0.31396,-0.15918 -0.55664,-0.15918h-0.65088v1.22461h0.65088c0.24268,0 0.42822,-0.05273 0.55664,-0.15918z"/><path d="M220.17432,183.83056h0.25928v2.22656h1.37158v0.22363h-1.63086z"/><path d="M223.77979,185.62647h-1.36523l-0.29395,0.6543h-0.26953l1.12012,-2.4502h0.25537l1.12012,2.4502h-0.27295zM223.68507,185.4165l-0.58789,-1.31641l-0.58789,1.31641z"/><path d="M225.44874,185.43409v0.84668h-0.25537v-0.84668l-0.97998,-1.60352h0.27637l0.84033,1.37598l0.83984,-1.37598h0.25928z"/><path d="M228.51124,186.05714v0.22363h-1.73242v-2.4502h1.68018v0.22461h-1.4209v0.87109h1.2666v0.2207h-1.2666v0.91016h1.47314z"/><path d="M230.79347,186.28076l-0.55957,-0.78711c-0.06299,0.00684 -0.12842,0.00977 -0.19629,0.00977h-0.65771v0.77734h-0.25928v-2.4502h0.91699c0.3125,0 0.55762,0.0752 0.73486,0.22461c0.17773,0.14941 0.26611,0.35449 0.26611,0.61523c0,0.19141 -0.04834,0.35352 -0.14502,0.48535c-0.09717,0.13184 -0.23535,0.22656 -0.41504,0.28516l0.59863,0.83984h-0.28368zM230.58741,185.12256c0.12793,-0.10742 0.19238,-0.25781 0.19238,-0.45215c0,-0.19824 -0.06445,-0.35059 -0.19238,-0.45605c-0.12842,-0.10645 -0.31396,-0.15918 -0.55664,-0.15918h-0.65088v1.22852h0.65088c0.24268,-0.00001 0.42822,-0.05372 0.55664,-0.16114z"/><path d="M231.80323,186.21436c-0.16699,-0.05859 -0.2959,-0.13574 -0.38672,-0.23145l0.10156,-0.19922c0.08838,0.08887 0.20654,0.16016 0.35352,0.21484c0.14697,0.05566 0.29834,0.08301 0.45508,0.08301c0.21924,0 0.38379,-0.04102 0.49316,-0.12109c0.10986,-0.08008 0.16455,-0.18457 0.16455,-0.31348c0,-0.09766 -0.02979,-0.17578 -0.08936,-0.23438c-0.05908,-0.05859 -0.13232,-0.10352 -0.21875,-0.13477c-0.08594,-0.03125 -0.20654,-0.06543 -0.36035,-0.10352c-0.18408,-0.0459 -0.33154,-0.09082 -0.44092,-0.13477c-0.10986,-0.04297 -0.20361,-0.1084 -0.28174,-0.19727c-0.07813,-0.08887 -0.11719,-0.20898 -0.11719,-0.36035c0,-0.12402 0.03271,-0.23633 0.09766,-0.33789c0.06543,-0.10156 0.16602,-0.18262 0.30127,-0.24316c0.13525,-0.06054 0.30322,-0.09082 0.50391,-0.09082c0.14014,0 0.27686,0.01855 0.41113,0.05762c0.13428,0.03809 0.25049,0.0918 0.34863,0.15918l-0.08789,0.20605c-0.10254,-0.06738 -0.2124,-0.11816 -0.32861,-0.15234c-0.1167,-0.0332 -0.23145,-0.05078 -0.34326,-0.05078c-0.21484,0 -0.37598,0.04199 -0.48486,0.125c-0.1084,0.08301 -0.1626,0.18945 -0.1626,0.32031c0,0.09766 0.02979,0.17676 0.08936,0.23633c0.05957,0.05957 0.13428,0.10449 0.22412,0.13574c0.08936,0.03223 0.21045,0.06641 0.36182,0.10352c0.17969,0.04395 0.3252,0.08789 0.43604,0.13086c0.11084,0.04395 0.20459,0.10938 0.28174,0.19629c0.07715,0.08789 0.11523,0.20605 0.11523,0.35547c0,0.12402 -0.0332,0.23633 -0.09961,0.33789c-0.06641,0.10156 -0.16846,0.18164 -0.30615,0.24121c-0.13769,0.05957 -0.30664,0.08984 -0.50732,0.08984c-0.18214,0.00002 -0.35646,-0.02927 -0.52345,-0.08787z"/><path d="M234.72022,183.83056h0.99756c0.25879,0 0.48779,0.05176 0.68604,0.15625c0.19824,0.10352 0.35205,0.24805 0.46191,0.43359c0.10986,0.18554 0.16455,0.39746 0.16455,0.63574c0,0.2373 -0.05469,0.44922 -0.16455,0.63477c-0.10986,0.18555 -0.26367,0.33008 -0.46191,0.43457c-0.19824,0.10352 -0.42725,0.15527 -0.68604,0.15527h-0.99756zM235.70362,186.05714c0.21484,0 0.40283,-0.04297 0.56348,-0.12793c0.16113,-0.08496 0.28613,-0.20312 0.37451,-0.35352c0.08887,-0.15039 0.1333,-0.32422 0.1333,-0.51953c0,-0.19629 -0.04443,-0.37012 -0.1333,-0.52051c-0.08838,-0.15039 -0.21338,-0.26758 -0.37451,-0.35352c-0.16064,-0.08496 -0.34863,-0.12695 -0.56348,-0.12695h-0.72412v2.00195h0.72412z"/><path d="M239.28419,186.28076l-0.55957,-0.78711c-0.06299,0.00684 -0.12842,0.00977 -0.19629,0.00977h-0.65771v0.77734h-0.25928v-2.4502h0.91699c0.3125,0 0.55762,0.0752 0.73486,0.22461c0.17773,0.14941 0.26611,0.35449 0.26611,0.61523c0,0.19141 -0.04834,0.35352 -0.14502,0.48535c-0.09717,0.13184 -0.23535,0.22656 -0.41504,0.28516l0.59863,0.83984h-0.28368zM239.07813,185.12256c0.12793,-0.10742 0.19238,-0.25781 0.19238,-0.45215c0,-0.19824 -0.06445,-0.35059 -0.19238,-0.45605c-0.12842,-0.10645 -0.31396,-0.15918 -0.55664,-0.15918h-0.65088v1.22852h0.65088c0.24268,-0.00001 0.42823,-0.05372 0.55664,-0.16114z"/><path d="M240.55225,186.13917c-0.19629,-0.1084 -0.35059,-0.25781 -0.46094,-0.44629c-0.11133,-0.18945 -0.16602,-0.40137 -0.16602,-0.63672c0,-0.23633 0.05469,-0.44824 0.16602,-0.6377c0.11035,-0.18848 0.26465,-0.33789 0.46094,-0.44629c0.19824,-0.1084 0.41797,-0.16211 0.66016,-0.16211c0.24316,0 0.46191,0.05371 0.65625,0.16113c0.19531,0.10645 0.34863,0.25586 0.46094,0.44629c0.11133,0.18945 0.16797,0.40234 0.16797,0.63867c0,0.23535 -0.05664,0.44824 -0.16797,0.63867c-0.1123,0.18945 -0.26562,0.33887 -0.46094,0.44629c-0.19434,0.10742 -0.41309,0.16113 -0.65625,0.16113c-0.24219,0.00001 -0.46191,-0.05467 -0.66016,-0.16307zM241.7378,185.93995c0.15625,-0.08789 0.27832,-0.20898 0.36719,-0.36426c0.08887,-0.15528 0.13281,-0.32812 0.13281,-0.51953c0,-0.19141 -0.04395,-0.36523 -0.13281,-0.52051c-0.08887,-0.1543 -0.21094,-0.27637 -0.36719,-0.36328c-0.15625,-0.08789 -0.33105,-0.13184 -0.52539,-0.13184c-0.19336,0 -0.36914,0.04395 -0.52637,0.13184c-0.15723,0.08691 -0.28125,0.20898 -0.37109,0.36328c-0.08984,0.15527 -0.13477,0.3291 -0.13477,0.52051c0,0.19141 0.04492,0.36426 0.13477,0.51953c0.08985,0.15527 0.21387,0.27637 0.37109,0.36426c0.15723,0.08691 0.33301,0.13086 0.52637,0.13086c0.19434,0 0.36914,-0.04395 0.52539,-0.13086z"/><path d="M244.72999,184.05518c0.17773,0.14941 0.2666,0.35449 0.2666,0.61523c0,0.26172 -0.08887,0.4668 -0.2666,0.61426c-0.17676,0.14844 -0.42188,0.22266 -0.73438,0.22266h-0.6582v0.77344h-0.25879v-2.4502h0.91699c0.3125,0 0.55762,0.0752 0.73438,0.22461zM244.54444,185.12061c0.12891,-0.10645 0.19238,-0.25586 0.19238,-0.4502c0,-0.19824 -0.06348,-0.35059 -0.19238,-0.45605c-0.12793,-0.10645 -0.31348,-0.15918 -0.55664,-0.15918h-0.65039v1.22461h0.65039c0.24317,0 0.42871,-0.05273 0.55664,-0.15918z"/><path d="M246.50831,183.83056h0.99707c0.25879,0 0.4873,0.05176 0.68555,0.15625c0.19922,0.10352 0.35254,0.24805 0.46289,0.43359c0.10938,0.18555 0.16406,0.39746 0.16406,0.63574c0,0.2373 -0.05469,0.44922 -0.16406,0.63477c-0.11035,0.18555 -0.26367,0.33008 -0.46289,0.43457c-0.19824,0.10352 -0.42676,0.15527 -0.68555,0.15527h-0.99707zM247.49171,186.05714c0.21387,0 0.40234,-0.04297 0.56348,-0.12793c0.16114,-0.08496 0.28516,-0.20312 0.37402,-0.35352c0.08886,-0.1504 0.13281,-0.32422 0.13281,-0.51953c0,-0.19629 -0.04395,-0.37012 -0.13281,-0.52051c-0.08886,-0.15039 -0.21289,-0.26758 -0.37402,-0.35352c-0.16113,-0.08496 -0.34961,-0.12695 -0.56348,-0.12695h-0.72461v2.00195h0.72461z"/><path d="M251.13233,186.05714v0.22363h-1.73242v-2.4502h1.67969v0.22461h-1.4209v0.87109h1.2666v0.2207h-1.2666v0.91016h1.47363z"/><path d="M253.27686,185.62647h-1.36523l-0.29395,0.6543h-0.26953l1.12012,-2.4502h0.25586l1.12012,2.4502h-0.27344zM253.18214,185.4165l-0.58789,-1.31641l-0.58789,1.31641z"/><path d="M254.2505,183.83056h0.99707c0.25879,0 0.4873,0.05176 0.68555,0.15625c0.19922,0.10352 0.35254,0.24805 0.46289,0.43359c0.10938,0.18555 0.16406,0.39746 0.16406,0.63574c0,0.2373 -0.05469,0.44922 -0.16406,0.63477c-0.11035,0.18555 -0.26367,0.33008 -0.46289,0.43457c-0.19824,0.10352 -0.42676,0.15527 -0.68555,0.15527h-0.99707zM255.2339,186.05714c0.21387,0 0.40234,-0.04297 0.56348,-0.12793c0.16114,-0.08496 0.28516,-0.20312 0.37402,-0.35352c0.08886,-0.1504 0.13281,-0.32422 0.13281,-0.51953c0,-0.19629 -0.04395,-0.37012 -0.13281,-0.52051c-0.08886,-0.15039 -0.21289,-0.26758 -0.37402,-0.35352c-0.16113,-0.08496 -0.34961,-0.12695 -0.56348,-0.12695h-0.72461v2.00195h0.72461z"/><path d="M257.14112,183.83056h0.25879v2.22656h1.37207v0.22363h-1.63086z"/><path d="M259.7837,185.43409v0.84668h-0.25586v-0.84668l-0.97949,-1.60352h0.27637l0.83984,1.37598l0.83984,-1.37598h0.25879z"/><path d="M263.80811,185.05616h0.24902v0.93457c-0.11426,0.09961 -0.25,0.17676 -0.40625,0.23047c-0.15625,0.05371 -0.32031,0.08105 -0.49316,0.08105c-0.24512,0 -0.46582,-0.05371 -0.66211,-0.16113c-0.19531,-0.10742 -0.34961,-0.25684 -0.46191,-0.44629c-0.11133,-0.19043 -0.16797,-0.40332 -0.16797,-0.63867c0,-0.23633 0.05664,-0.44922 0.16797,-0.63867c0.1123,-0.19043 0.2666,-0.33984 0.46191,-0.44629c0.19629,-0.10742 0.41797,-0.16113 0.66504,-0.16113c0.1875,0 0.3584,0.0293 0.51465,0.08887c0.15625,0.05957 0.28809,0.14746 0.39551,0.26465l-0.16113,0.16406c-0.19336,-0.19141 -0.43945,-0.28711 -0.73828,-0.28711c-0.19824,0 -0.37695,0.04395 -0.53711,0.13184c-0.16016,0.08691 -0.28516,0.20898 -0.37598,0.36328c-0.09082,0.15527 -0.13672,0.3291 -0.13672,0.52051c0,0.19141 0.0459,0.36328 0.13672,0.51758c0.09082,0.1543 0.21582,0.27539 0.37402,0.36426c0.15918,0.08887 0.33789,0.13281 0.53613,0.13281c0.25195,0 0.46484,-0.06348 0.63965,-0.18945z"/><path d="M266.46143,186.28076l-0.56055,-0.78711c-0.0625,0.00684 -0.12793,0.00977 -0.19531,0.00977h-0.6582v0.77734h-0.25879v-2.4502h0.91699c0.3125,0 0.55762,0.0752 0.73438,0.22461c0.17773,0.14941 0.2666,0.35449 0.2666,0.61523c0,0.19141 -0.04883,0.35352 -0.14551,0.48535c-0.09668,0.13183 -0.23535,0.22656 -0.41504,0.28516l0.59863,0.83984h-0.2832zM266.2544,185.12256c0.12891,-0.10742 0.19238,-0.25781 0.19238,-0.45215c0,-0.19824 -0.06348,-0.35059 -0.19238,-0.45605c-0.12793,-0.10645 -0.31348,-0.15918 -0.55664,-0.15918h-0.65039v1.22852h0.65039c0.24317,-0.00001 0.42871,-0.05372 0.55664,-0.16114z"/><path d="M269.05225,186.05714v0.22363h-1.73242v-2.4502h1.67969v0.22461h-1.4209v0.87109h1.2666v0.2207h-1.2666v0.91016h1.47363z"/><path d="M271.70753,183.83056v2.4502h-0.21289l-1.5752,-1.98828v1.98828h-0.25879v-2.4502h0.21289l1.5791,1.98828v-1.98828z"/><path d="M274.04249,185.62647h-1.36523l-0.29395,0.6543h-0.26953l1.12012,-2.4502h0.25586l1.12012,2.4502h-0.27344zM273.94776,185.4165l-0.58789,-1.31641l-0.58789,1.31641z"/><path d="M275.01612,183.83056h0.99707c0.25879,0 0.4873,0.05176 0.68555,0.15625c0.19922,0.10352 0.35254,0.24805 0.46289,0.43359c0.10938,0.18555 0.16406,0.39746 0.16406,0.63574c0,0.2373 -0.05469,0.44922 -0.16406,0.63477c-0.11035,0.18555 -0.26367,0.33008 -0.46289,0.43457c-0.19824,0.10352 -0.42676,0.15527 -0.68555,0.15527h-0.99707zM275.99952,186.05714c0.21387,0 0.40234,-0.04297 0.56348,-0.12793c0.16114,-0.08496 0.28516,-0.20312 0.37402,-0.35352c0.08886,-0.1504 0.13281,-0.32422 0.13281,-0.51953c0,-0.19629 -0.04395,-0.37012 -0.13281,-0.52051c-0.08886,-0.15039 -0.21289,-0.26758 -0.37402,-0.35352c-0.16113,-0.08496 -0.34961,-0.12695 -0.56348,-0.12695h-0.72461v2.00195h0.72461z"/><path d="M279.63917,186.05714v0.22363h-1.73242v-2.4502h1.67969v0.22461h-1.4209v0.87109h1.2666v0.2207h-1.2666v0.91016h1.47363z"/><path d="M280.39991,186.21436c-0.16602,-0.05859 -0.29492,-0.13574 -0.38672,-0.23145l0.10156,-0.19922c0.08887,0.08887 0.20703,0.16016 0.35352,0.21484c0.14746,0.05566 0.29883,0.08301 0.45508,0.08301c0.21973,0 0.38379,-0.04102 0.49414,-0.12109c0.10938,-0.08008 0.16406,-0.18457 0.16406,-0.31348c0,-0.09766 -0.0293,-0.17578 -0.08887,-0.23438c-0.05957,-0.0586 -0.13281,-0.10352 -0.21875,-0.13477c-0.08691,-0.03125 -0.20703,-0.06543 -0.36035,-0.10352c-0.18457,-0.0459 -0.33203,-0.09082 -0.44141,-0.13477c-0.10938,-0.04297 -0.2041,-0.1084 -0.28223,-0.19727c-0.07813,-0.08887 -0.11719,-0.20898 -0.11719,-0.36035c0,-0.12402 0.0332,-0.23633 0.09863,-0.33789c0.06543,-0.10156 0.16504,-0.18262 0.30078,-0.24316c0.13477,-0.06055 0.30371,-0.09082 0.50391,-0.09082c0.13965,0 0.27734,0.01855 0.41113,0.05762c0.13477,0.03809 0.25,0.0918 0.34863,0.15918l-0.08789,0.20605c-0.10254,-0.06738 -0.21191,-0.11816 -0.3291,-0.15234c-0.11621,-0.0332 -0.23047,-0.05078 -0.34277,-0.05078c-0.21484,0 -0.37598,0.04199 -0.48438,0.125c-0.1084,0.08301 -0.16309,0.18945 -0.16309,0.32031c0,0.09766 0.0293,0.17676 0.08887,0.23633c0.05957,0.05957 0.13477,0.10449 0.22461,0.13574c0.08984,0.03223 0.20996,0.06641 0.3623,0.10352c0.17969,0.04395 0.32422,0.08789 0.43555,0.13086c0.11035,0.04395 0.20508,0.10938 0.28125,0.19629c0.07715,0.08789 0.11621,0.20605 0.11621,0.35547c0,0.12402 -0.0332,0.23633 -0.09961,0.33789c-0.06738,0.10156 -0.16895,0.18164 -0.30664,0.24121c-0.13769,0.05957 -0.30664,0.08984 -0.50781,0.08984c-0.18162,0.00002 -0.35643,-0.02927 -0.52342,-0.08787z"/><path d="M282.32569,186.24366c-0.03711,-0.03613 -0.05469,-0.07812 -0.05469,-0.12695c0,-0.05176 0.01758,-0.09473 0.05273,-0.12793c0.03516,-0.03418 0.0791,-0.05078 0.13281,-0.05078c0.05078,0 0.09473,0.0166 0.12988,0.05078c0.03418,0.0332 0.05176,0.07617 0.05176,0.12793c0,0.04883 -0.01758,0.09082 -0.05176,0.12695c-0.03516,0.03613 -0.0791,0.05469 -0.12988,0.05469c-0.05175,0 -0.09472,-0.01856 -0.13085,-0.05469zM282.30909,183.83056h0.29395l-0.05176,1.71484h-0.19238z"/></g><path d="M183.4,199.4v-38.8h113.2v38.8z" fill="none" stroke-width="0"/></g></g></svg>