<svg version="1.1" xmlns="http://www.w3.org/2000/svg" xmlns:xlink="http://www.w3.org/1999/xlink" width="147.63181" height="19.28896" viewBox="0,0,147.63181,19.28896"><g transform="translate(-166.51204,-176.75292)"><g data-paper-data="{&quot;isPaintingLayer&quot;:true}" fill="#000000" fill-rule="nonzero" stroke="none" stroke-width="1" stroke-linecap="butt" stroke-linejoin="miter" stroke-miterlimit="10" stroke-dasharray="" stroke-dashoffset="0" style="mix-blend-mode: normal"><path d="M210.17847,176.75292h5.10254l1.3916,1.3916v3.71094l-1.3916,1.3916h-5.10254zM212.03394,178.6084v2.7832h2.31934l0.46387,-0.46387v-1.85547l-0.46387,-0.46387h-2.31934z"/><path d="M217.60035,181.85549v-5.10254h1.85547v4.1748l0.46387,0.46387h1.85547l0.46387,-0.46387v-4.1748h1.85547v5.10254l-1.3916,1.3916h-3.71094z"/><path d="M226.41383,176.75292h3.71094l1.3916,1.3916v5.10254h-1.85547v-1.3916h-2.7832v1.3916h-1.85547v-5.10254zM229.19703,178.6084h-1.85547l-0.46387,0.46387v0.92773h2.7832v-0.92773z"/><path d="M232.4441,176.75292h1.85547v4.63867h3.71094v1.85547h-5.56641z"/><path d="M241.29469,178.14455l1.39111,-1.3916h5.10254v1.85547h-4.1748l-0.23145,0.23242l0.23145,0.23145h2.7832l1.3916,1.3916v1.3916l-1.3916,1.3916h-5.10205v-1.85547h4.17432l0.23242,-0.23145l-0.23242,-0.23242h-2.7832l-1.39111,-1.3916v-1.3916z"/><path d="M250.57154,180.92776v2.31934h-1.85547v-6.49414h1.85547v2.31934h2.7832v-2.31934h1.85547v6.49414h-1.85547v-2.31934z"/><path d="M256.13795,181.85549v-3.71094l1.3916,-1.3916h3.71094l1.3916,1.3916v3.71094l-1.3916,1.3916h-3.71094zM257.99342,179.07229v1.85547l0.46387,0.46387h1.85547l0.46387,-0.46387v-1.85547l-0.46387,-0.46387h-1.85548z"/><path d="M267.5022,178.6084v4.63867h-1.85547v-4.63867h-2.31934v-1.85547h6.49414v1.85547z"/><text transform="translate(166.60262,193.55001) scale(0.18116,0.19935)" font-size="40" xml:space="preserve" fill="#000000" fill-rule="nonzero" stroke="none" stroke-width="1" stroke-linecap="butt" stroke-linejoin="miter" stroke-miterlimit="10" stroke-dasharray="" stroke-dashoffset="0" font-family="Sans Serif" font-weight="normal" text-anchor="start" style="mix-blend-mode: normal"><tspan x="0" dy="0">Fires a shotgun blast in multiple directions</tspan></text></g></g></svg>