<svg version="1.1" xmlns="http://www.w3.org/2000/svg" xmlns:xlink="http://www.w3.org/1999/xlink" width="28.003" height="6.323" viewBox="0,0,28.003,6.323"><g transform="translate(-225.982,-177.333)"><g data-paper-data="{&quot;isPaintingLayer&quot;:true}" fill="#000000" fill-rule="nonzero" stroke="none" stroke-width="1" stroke-linecap="butt" stroke-linejoin="miter" stroke-miterlimit="10" stroke-dasharray="" stroke-dashoffset="0" style="mix-blend-mode: normal"><path/><path d="M232.304,178.688v1.355l-0.451,0.452l0.452,0.452v1.355l-1.355,1.354h-4.968v-6.323h4.968zM230.046,179.14h-2.258v0.452h2.258l0.226,-0.226zM227.788,181.398v0.451h2.258l0.226,-0.226l-0.226,-0.226h-2.258z"/><path d="M233.208,182.302v-4.969h1.807v4.065l0.452,0.451h1.807l0.452,-0.451v-4.065h1.807v4.968l-1.355,1.354h-3.613z"/><path d="M242.241,180.495v3.161h-1.807v-6.323h1.355l3.161,3.162v-3.162h1.807v6.323h-1.354z"/><path d="M247.662,178.688l1.354,-1.355h4.969v1.807h-4.065l-0.226,0.225l0.226,0.226h2.71l1.355,1.355v1.355l-1.355,1.354h-4.968v-1.806h4.064l0.226,-0.226l-0.226,-0.226h-2.71l-1.354,-1.355z"/><path/></g></g></svg>