<svg version="1.1" xmlns="http://www.w3.org/2000/svg" xmlns:xlink="http://www.w3.org/1999/xlink" width="34.9" height="6.4" viewBox="0,0,34.9,6.4"><g transform="translate(-222.55,-176.8)"><g data-paper-data="{&quot;isPaintingLayer&quot;:true}" fill="#000000" fill-rule="nonzero" stroke="none" stroke-width="1" stroke-linecap="butt" stroke-linejoin="miter" stroke-miterlimit="10" stroke-dasharray="" stroke-dashoffset="0" style="mix-blend-mode: normal"><path d="M227.55,176.8l1.4,1.4l-1.4,1.4l-0.9,-0.9h-1.8l-0.5,0.5v1.8l0.5,0.5h1.8l0.9,-1.1l1.4,1.4l-1.4,1.4h-3.6l-1.4,-1.4v-3.6l1.4,-1.4z"/><path d="M229.75,181.8v-3.6l1.4,-1.4h3.6l1.4,1.4v3.6l-1.4,1.4h-3.6zM231.55,179.1v1.8l0.5,0.5h1.8l0.5,-0.5v-1.8l-0.5,-0.5h-1.8z"/><path d="M237.05,181.8v-5h1.8v4.1l0.5,0.5h1.7l0.5,-0.5v-4.1h1.8v5l-1.4,1.4h-3.6z"/><path d="M250.55,178.2v1.8l-1.4,1.4l1.8,1.8h-2.7l-1.8,-1.8h-0.4v1.8h-1.8v-6.3h5zM248.75,179.1l-0.5,-0.5h-2.2v0.9h2.3z"/><path d="M255.25,178.6v4.5h-1.8v-4.5h-2.3v-1.8h6.3v1.8z"/></g></g></svg>