<?xml version="1.0" encoding="utf-8"?><!-- Generator: Adobe Illustrator 16.0.0, SVG Export Plug-In . SVG Version: 6.00 Build 0)  --><!DOCTYPE svg PUBLIC "-//W3C//DTD SVG 1.1//EN" "http://www.w3.org/Graphics/SVG/1.1/DTD/svg11.dtd"><svg xmlns="http://www.w3.org/2000/svg" xmlns:xlink="http://www.w3.org/1999/xlink" version="1.1" id="Layer_1" x="0px" y="0px" width="95.00302124023438" height="9.51700210571289" viewBox="-31.575998306274414 6.438999176025391 95.00302124023438 9.51700210571289" enable-background="new 0 0 32 24" xml:space="preserve">
<g>
	<path fill="#FFFFFF" d="M-23.4,11.27v3.095c-0.852,0.647-2.111,1.091-3.262,1.091c-2.482,0-4.414-1.858-4.414-4.257   c0-2.398,1.955-4.233,4.498-4.233c1.199,0,2.399,0.456,3.226,1.175l-0.803,1.043c-0.648-0.6-1.547-0.959-2.423-0.959   c-1.715,0-3.058,1.307-3.058,2.974c0,1.679,1.355,2.986,3.07,2.986c0.624,0,1.331-0.215,1.931-0.575V11.27H-23.4z" stroke-width="1"/>
	<path fill="#FFFFFF" d="M-20.206,13.5l-0.803,1.896h-1.475L-18.778,7h1.451l3.67,8.396h-1.511l-0.804-1.896H-20.206z    M-18.095,8.511l-1.583,3.73h3.167L-18.095,8.511z" stroke-width="1"/>
	<path fill="#FFFFFF" d="M-4.969,15.396l-0.012-6.272l-2.65,5.396h-0.923l-2.651-5.396v6.272h-1.331V7h1.679l2.77,5.577L-5.329,7   h1.667v8.396H-4.969z" stroke-width="1"/>
	<path fill="#FFFFFF" d="M-0.021,8.271v2.267H4.08v1.271h-4.102v2.314h4.726v1.271h-6.141V7H4.56v1.271H-0.021z" stroke-width="1"/>
	<path fill="#FFFFFF" d="M17.734,11.198c0,2.399-1.943,4.257-4.449,4.257c-2.507,0-4.45-1.858-4.45-4.257   c0-2.411,1.943-4.233,4.45-4.233C15.792,6.964,17.734,8.799,17.734,11.198z M10.275,11.198c0,1.667,1.379,2.986,3.022,2.986   s2.986-1.319,2.986-2.986s-1.343-2.962-2.986-2.962C11.642,8.235,10.275,9.531,10.275,11.198z" stroke-width="1"/>
	<path fill="#FFFFFF" d="M22.598,7c2.11,0,3.321,1.043,3.321,2.867c0,1.895-1.211,2.998-3.321,2.998h-1.932v2.531h-1.415V7H22.598z    M20.666,11.594h1.871c1.295,0,2.027-0.552,2.027-1.691c0-1.103-0.732-1.631-2.027-1.631h-1.871V11.594z" stroke-width="1"/>
	<path fill="#FFFFFF" d="M30.397,8.271v7.124h-1.415V8.271h-2.65V7h6.728v1.271H30.397z" stroke-width="1"/>
	<path fill="#FFFFFF" d="M34.274,15.396V7h1.415v8.396H34.274z" stroke-width="1"/>
	<path fill="#FFFFFF" d="M46.102,11.198c0,2.399-1.942,4.257-4.449,4.257s-4.449-1.858-4.449-4.257c0-2.411,1.942-4.233,4.449-4.233   S46.102,8.799,46.102,11.198z M38.642,11.198c0,1.667,1.38,2.986,3.022,2.986c1.644,0,2.986-1.319,2.986-2.986   s-1.343-2.962-2.986-2.962C40.009,8.235,38.642,9.531,38.642,11.198z" stroke-width="1"/>
	<path fill="#FFFFFF" d="M53.508,15.396l-4.474-6.021v6.021h-1.415V7h1.392l4.497,6.033V7h1.392v8.396H53.508z" stroke-width="1"/>
	<path fill="#FFFFFF" d="M62.819,7.804l-0.587,1.247C61.32,8.5,60.409,8.271,59.773,8.271c-0.827,0-1.367,0.312-1.367,0.875   c0,1.835,4.533,0.852,4.521,3.875c0,1.498-1.319,2.422-3.166,2.422c-1.319,0-2.566-0.539-3.431-1.331l0.612-1.224   c0.863,0.792,1.942,1.224,2.842,1.224c0.983,0,1.571-0.372,1.571-1.02c0-1.871-4.533-0.828-4.533-3.814   c0-1.439,1.235-2.339,3.059-2.339C60.973,6.94,62.04,7.288,62.819,7.804z" stroke-width="1"/>
</g>
</svg>