<svg version="1.1" xmlns="http://www.w3.org/2000/svg" xmlns:xlink="http://www.w3.org/1999/xlink" width="29.61" height="32" viewBox="0,0,29.61,32"><defs><linearGradient x1="240" y1="164.91566" x2="240" y2="195.08434" gradientUnits="userSpaceOnUse" id="color-1"><stop offset="0" stop-color="#000000"/><stop offset="1" stop-color="#000000" stop-opacity="0"/></linearGradient></defs><g transform="translate(-225.195,-163.9)"><g data-paper-data="{&quot;isPaintingLayer&quot;:true}" fill-rule="nonzero" stroke="none" stroke-linecap="butt" stroke-linejoin="miter" stroke-miterlimit="10" stroke-dasharray="" stroke-dashoffset="0" style="mix-blend-mode: normal"><path d="M225.195,195.08434v-30.16868h29.61v30.16868z" fill="url(#color-1)" stroke-width="0"/><path d="M228,163.9h24v32h-24z" fill="none" stroke-width="1"/><path d="M240,172.5l2.3,1.3l-0.8,1l-1.4,-1h-0.2l-1.4,1l-0.8,-1l2.3,-1.3v0.1v0z" fill="#ffffff" stroke-width="1"/><path d="M240,170.9l2.3,1.3l-0.8,1l-1.4,-1h-0.2l-1.4,1l-0.8,-1l2.3,-1.3v0.1v0z" fill="#ffffff" stroke-width="1"/><path d="M234.7,186.6l-0.6,-2.5l1.2,-0.2l0.3,1.8h0.1l1.7,0.4l-0.1,1.2l-2.6,-0.7h0.1v0z" fill="#ffffff" stroke-width="1"/><path d="M233.6,187.8l-0.6,-2.6l1.2,-0.1l0.3,1.7l0.1,0.1l1.7,0.3l-0.1,1.2l-2.6,-0.6l0.1,-0.1v0z" fill="#ffffff" stroke-width="1"/><path d="M245.3,186.6l-2.6,0.7l-0.1,-1.2l1.7,-0.4h0.1l0.3,-1.8l1.2,0.2l-0.6,2.5h-0.1v0z" fill="#ffffff" stroke-width="1"/><path d="M246.4,187.8l-2.6,0.6l-0.1,-1.2l1.7,-0.3l0.1,-0.1l0.3,-1.7l1.2,0.1l-0.6,2.6l-0.1,-0.1v0z" fill="#ffffff" stroke-width="1"/><path d="M231.7,179.8c0,-4 2.6,-6.2 6.2,-6.8l0.1,0.2l-0.8,0.6l1.2,1.5l1.6,-1.1l1.7,1l1.2,-1.5l-0.9,-0.5l0.2,-0.2c3.6,0.6 6.2,2.8 6.2,6.8c0,2.1 -0.7,3.3 -2,4v-0.1l-2,-0.2l-0.4,1.9l-1.9,0.4l0.2,1.4h-4.6l0.2,-1.4l-1.9,-0.4l-0.4,-1.9l-1.9,0.3c-1.3,-0.7 -2.1,-1.9 -2,-4zM241.1,180.6c0,1.2 1,2.1 2.2,2.1c1.2,0 2.2,-0.9 2.2,-2.1c0,-1.2 -1,-2.1 -2.2,-2.1c-1.2,0 -2.2,1 -2.2,2.1zM239.1,183h1.8c0,-1.6 -0.9,-2.9 -0.9,-2.9c0,0 -0.9,1.3 -0.9,2.9zM234.5,180.6c0,1.2 1,2.1 2.2,2.1c1.2,0 2.2,-0.9 2.2,-2.1c0,-1.2 -1,-2.1 -2.2,-2.1c-1.2,0 -2.1,1 -2.2,2.1z" fill="#ffffff" stroke-width="1"/></g></g></svg>