<svg version="1.1" xmlns="http://www.w3.org/2000/svg" xmlns:xlink="http://www.w3.org/1999/xlink" width="29.61" height="30.16868" viewBox="0,0,29.61,30.16868"><defs><linearGradient x1="240" y1="164.91566" x2="240" y2="195.08434" gradientUnits="userSpaceOnUse" id="color-1"><stop offset="0" stop-color="#000000"/><stop offset="1" stop-color="#000000" stop-opacity="0"/></linearGradient></defs><g transform="translate(-225.195,-164.91566)"><g data-paper-data="{&quot;isPaintingLayer&quot;:true}" fill-rule="nonzero" stroke="none" stroke-linecap="butt" stroke-linejoin="miter" stroke-miterlimit="10" stroke-dasharray="" stroke-dashoffset="0" style="mix-blend-mode: normal"><path d="M225.195,195.08434v-30.16868h29.61v30.16868z" fill="url(#color-1)" stroke-width="0"/><path d="M237.0165,179.014l0.574,-5.497c0.198,-1.897 1.912,-3.287 3.809,-3.089l5.497,0.574c1.897,0.199 3.287,1.913 3.089,3.81l-0.574,5.497c-0.198,1.897 -1.912,3.287 -3.809,3.089l-5.497,-0.574c-1.897,-0.198 -3.287,-1.912 -3.089,-3.81zM243.2755,179.074c-0.092,0.878 0.546,1.664 1.424,1.756c0.878,0.092 1.664,-0.546 1.756,-1.424c0.092,-0.878 -0.546,-1.664 -1.424,-1.756c-0.878,-0.092 -1.664,0.546 -1.756,1.424zM241.9705,176.176c0.878,0.092 1.664,-0.546 1.756,-1.424c0.092,-0.878 -0.546,-1.664 -1.424,-1.756c-0.878,-0.092 -1.664,0.546 -1.756,1.424c-0.092,0.878 0.546,1.664 1.424,1.756z" fill="#ffffff" stroke-width="1"/><path d="M243.0355,186.266c0.151,1.09 -0.616,2.105 -1.706,2.256l-8.071,1.119c-1.09,0.151 -2.105,-0.616 -2.256,-1.706l-1.097,-7.909c-0.151,-1.09 0.616,-2.105 1.706,-2.256l5.361,-0.743l-0.205,1.963c-0.025,0.239 -0.025,0.477 -0.004,0.712c-0.235,0.006 -0.474,0.02 -0.717,0.054c-0.015,0.002 -0.03,0.005 -0.045,0.007c-0.015,0.002 -0.031,0.003 -0.046,0.005c-2.177,0.302 -3.795,1.612 -3.487,3.833c0.194,1.395 0.971,1.873 2.062,1.962l0.177,1.275l0.091,-0.013l4.282,-0.594l0.092,-0.013l-0.177,-1.275c0.859,-0.32 1.425,-0.849 1.475,-1.829l2.159,0.225z" fill="#ffffff" stroke-width="1"/><path d="M234.8345,182.667c0.549,-0.052 1.045,0.321 1.119,0.857c0.074,0.536 -0.302,1.031 -0.844,1.13c-0.549,0.052 -1.045,-0.322 -1.119,-0.857c-0.075,-0.536 0.301,-1.03 0.844,-1.13z" fill="#ffffff" stroke-width="1"/><path d="M236.4855,183.256c0.133,0.164 0.482,0.641 0.567,1.257l-0.771,0.107c-0.085,-0.616 0.12,-1.17 0.204,-1.364z" fill="#ffffff" stroke-width="1"/><path d="M238.1315,182.26c0.237,0.193 0.499,0.344 0.774,0.472c0.065,0.109 0.11,0.232 0.128,0.365c0.074,0.536 -0.301,1.03 -0.843,1.13c-0.549,0.052 -1.045,-0.322 -1.119,-0.857c-0.075,-0.536 0.301,-1.031 0.843,-1.13c0.075,-0.007 0.144,0.012 0.217,0.02z" fill="#ffffff" stroke-width="1"/><path d="M238.2435,171.078l-0.276,-1.03l0.61,-0.164l0.203,0.757c-0.078,0.055 -0.163,0.096 -0.238,0.157c-0.103,0.083 -0.185,0.183 -0.278,0.274z" fill="#ffffff" stroke-width="1"/><path d="M241.2435,169.929c-0.212,-0.011 -0.424,-0.015 -0.632,0.008v-0.071h0.632z" fill="#ffffff" stroke-width="1"/><path d="M250.0955,178.598l-0.002,0.001v-0.006z" fill="#ffffff" stroke-width="1"/><path d="M235.45795,170.92544l0.54731,-0.316l0.533,0.92316l-0.54731,0.316z" fill="#ffffff" stroke-width="1"/><path d="M238.7155,189.388l0.632,-0.088v0.834h-0.632z" fill="#ffffff" stroke-width="1"/><path d="M249.60575,183.25016l-0.16362,0.61045l-1.02965,-0.27599l0.16362,-0.61045z" fill="#ffffff" stroke-width="1"/><path d="M246.69455,187.61124l-0.44689,0.44689l-0.75377,-0.75377l0.44689,-0.44689z" fill="#ffffff" stroke-width="1"/><path d="M248.43083,185.60806l-0.316,0.54731l-0.92316,-0.533l0.316,-0.54731z" fill="#ffffff" stroke-width="1"/><path d="M250.1135,180.632v0.632h-0.419c0.072,-0.204 0.121,-0.416 0.159,-0.632z" fill="#ffffff" stroke-width="1"/><path d="M244.49946,189.07456l-0.54731,0.316l-0.533,-0.92316l0.54731,-0.316z" fill="#ffffff" stroke-width="1"/><path d="M230.36762,176.76603l0.16356,-0.61045l1.02965,0.27588l-0.16356,0.61045z" fill="#ffffff" stroke-width="1"/><path d="M233.26428,172.38856l0.44689,-0.44689l0.75377,0.75377l-0.44689,0.44689z" fill="#ffffff" stroke-width="1"/><path d="M231.52771,174.39267l0.316,-0.54731l0.92316,0.533l-0.316,0.54731z" fill="#ffffff" stroke-width="1"/><path d="M241.7195,188.937l0.272,1.015l-0.61,0.164l-0.276,-1.03l0.227,-0.061l0.065,-0.009c0.112,-0.016 0.216,-0.049 0.322,-0.079z" fill="#ffffff" stroke-width="1"/></g></g></svg>