<svg version="1.1" xmlns="http://www.w3.org/2000/svg" xmlns:xlink="http://www.w3.org/1999/xlink" width="30.2" height="6.4" viewBox="0,0,30.2,6.4"><g transform="translate(-225.1,-176.9)"><g data-paper-data="{&quot;isPaintingLayer&quot;:true}" fill="#000000" fill-rule="nonzero" stroke="none" stroke-width="1" stroke-linecap="butt" stroke-linejoin="miter" stroke-miterlimit="10" stroke-dasharray="" stroke-dashoffset="0" style="mix-blend-mode: normal"><path d="M226.9,179.6v3.6h-1.8v-6.3h1.8l1.4,1.4l1.4,-1.4h1.8v6.3h-1.8v-3.6l-1.4,1.4z"/><path d="M234.1,183.3h-1.8v-6.3h1.8z"/><path d="M236.8,180.1v3.2h-1.8v-6.3h1.4l3.2,3.2v-3.2h1.8v6.3h-1.4z"/><path d="M244.1,181.4h3.6v1.8h-5.4v-6.3h5.4v1.8h-3.6v0.5h3.6v1.8h-3.6z"/><path d="M254.9,178.3v1.8l-1.4,1.4l1.8,1.8h-2.7l-1.8,-1.8h-0.5v1.8h-1.8v-6.3h5zM253.1,179.2l-0.5,-0.5h-2.3v0.9h2.3z"/><path/><path/></g></g></svg>