<svg version="1.1" xmlns="http://www.w3.org/2000/svg" xmlns:xlink="http://www.w3.org/1999/xlink" width="46.375" height="6.262" viewBox="0,0,46.375,6.262"><g transform="translate(-216.813,-176.583)"><g data-paper-data="{&quot;isPaintingLayer&quot;:true}" fill="#000000" fill-rule="nonzero" stroke="none" stroke-width="1" stroke-linecap="butt" stroke-linejoin="miter" stroke-miterlimit="10" stroke-dasharray="" stroke-dashoffset="0" style="mix-blend-mode: normal"><g><path/><path d="M216.813,181.503v-4.92h1.855v4.025l0.464,0.448h1.855l0.463,-0.448v-4.025h1.855v4.92l-1.391,1.342h-3.71z"/><path d="M226.088,179.713v3.131h-1.855v-6.261h1.391l3.246,3.13v-3.13h1.855v6.262h-1.391z"/><path d="M233.508,182.845h-1.855v-6.262h1.855z"/><path d="M239.537,176.583l1.391,1.342l-1.391,1.341l-0.927,-0.894h-1.855l-0.464,0.447v1.789l0.464,0.448h1.855l0.927,-0.895l1.391,1.342l-1.391,1.342h-3.71l-1.391,-1.342v-3.578l1.391,-1.342z"/><path d="M241.855,181.503v-3.578l1.392,-1.342h3.71l1.391,1.342v3.578l-1.391,1.342h-3.71zM243.71,178.819v1.789l0.464,0.448h1.855l0.464,-0.448v-1.789l-0.464,-0.447h-1.855z"/><path d="M255.768,177.925v1.789l-1.391,1.342l1.854,1.789h-2.782l-1.855,-1.789h-0.464v1.789h-1.854v-6.262h5.102zM253.913,178.819l-0.464,-0.447h-2.319v0.894h2.319z"/><path d="M258.55,179.713v3.131h-1.854v-6.261h1.392l3.246,3.13v-3.13h1.854v6.262h-1.391z"/><path/></g></g></g></svg>