<svg xmlns="http://www.w3.org/2000/svg" xmlns:xlink="http://www.w3.org/1999/xlink" version="1.1" width="12.78499984741211" height="17.898000717163086" viewBox="0.1290000081062317 -0.09000000357627869 12.78499984741211 17.898000717163086">
  <!-- Exported by Scratch - http://scratch.mit.edu/ -->
  <g id="ID0.045090294908732176">
    <path id="ID0.5075015551410615" fill="#FFFFFF" d="M 7.685 7.467 C 10.493 7.707 12.414 9.339 12.414 11.979 C 12.414 15.124 10.037 17.308 6.293 17.308 C 4.229 17.308 2.069 16.588 0.629 15.484 L 1.805 13.18 C 3.005 14.307 4.566 14.932 6.102 14.932 C 8.333 14.932 9.63 13.78 9.63 12.051 C 9.63 10.227 8.31 9.291 6.077 9.291 L 3.749 9.291 L 3.749 7.635 L 8.117 2.93 L 1.397 2.93 L 1.397 0.41 L 11.622 0.41 L 11.622 2.186 L 6.821 7.371 L 7.685 7.467 Z " stroke-width="1"/>
  </g>
</svg>