<svg version="1.1" xmlns="http://www.w3.org/2000/svg" xmlns:xlink="http://www.w3.org/1999/xlink" width="113.2" height="38.8" viewBox="0,0,113.2,38.8"><g transform="translate(-183.4,-160.6)"><g data-paper-data="{&quot;isPaintingLayer&quot;:true}" fill-rule="nonzero" stroke="none" stroke-linecap="butt" stroke-linejoin="miter" stroke-miterlimit="10" stroke-dasharray="" stroke-dashoffset="0" style="mix-blend-mode: normal"><g fill="#ffffff" stroke-width="1"><path d="M198.21484,173.69776h5.10254l1.3916,1.3916v3.71094l-1.3916,1.3916h-5.10254zM200.07031,175.55323v2.7832h2.31934l0.46387,-0.46387v-1.85547l-0.46387,-0.46387h-2.31934z"/><path d="M212.13086,175.08936v1.85547l-1.3916,1.3916l1.85547,1.85547h-2.7832l-1.85547,-1.85547h-0.46387v1.85547h-1.85547v-6.49414h5.10254zM210.27539,176.0171l-0.46387,-0.46387h-2.31934v0.92773h2.31934z"/><path d="M214.91406,178.33643h3.71094v1.85547h-5.56641v-6.49414h5.56641v1.85547h-3.71094v0.46387h3.71094v1.85547h-3.71094z"/><path d="M219.55273,175.08936l1.3916,-1.3916h5.10254v1.85547h-4.1748l-0.23193,0.23242l0.23193,0.23145h2.7832l1.3916,1.3916v1.3916l-1.3916,1.3916h-5.10254v-1.85547h4.1748l0.23193,-0.23242l-0.23193,-0.23145h-2.7832l-1.3916,-1.3916z"/><path d="M226.97461,175.08936l1.3916,-1.3916h5.10254v1.85547h-4.1748l-0.23193,0.23242l0.23193,0.23145h2.7832l1.3916,1.3916v1.3916l-1.3916,1.3916h-5.10254v-1.85547h4.1748l0.23193,-0.23242l-0.23193,-0.23145h-2.7832l-1.3916,-1.3916z"/><path d="M236.75293,178.8003v-5.10254h1.85547v4.1748l0.46387,0.46387h1.85596l0.46338,-0.46387v-4.1748h1.85547v5.10254l-1.39062,1.3916h-3.71191z"/><path d="M250.66992,175.08936v1.85547l-1.3916,1.3916h-3.24707v1.85547h-1.85547v-6.49414h5.10254zM248.81445,176.0171l-0.46387,-0.46387h-2.31934v0.92773h2.31934z"/><path d="M255.80859,176.48097v3.71094h-1.85547v-6.49414h1.85547l1.3916,1.3916l1.3916,-1.3916h1.85547v6.49414h-1.85547v-3.71094l-1.3916,1.3916z"/><path d="M261.375,178.8003v-3.71094l1.3916,-1.3916h3.71094l1.3916,1.3916v3.71094l-1.3916,1.3916h-3.71094zM263.23047,176.0171v1.85547l0.46387,0.46387h1.85547l0.46387,-0.46387v-1.85547l-0.46387,-0.46387h-1.85547z"/><path d="M268.79688,173.69776h5.10254l1.3916,1.3916v3.71094l-1.3916,1.3916h-5.10254zM270.65234,175.55323v2.7832h2.31934l0.46387,-0.46387v-1.85547l-0.46387,-0.46387h-2.31934z"/><path d="M278.07422,178.33643h3.71094v1.85547h-5.56641v-6.49414h5.56641v1.85547h-3.71094v0.46387h3.71094v1.85547h-3.71094z"/></g><g fill="#ffffff" stroke-width="1"><path d="M215.09082,186.21436c-0.16699,-0.05859 -0.2959,-0.13574 -0.38672,-0.23145l0.10156,-0.19922c0.08838,0.08887 0.20654,0.16016 0.35352,0.21484c0.14697,0.05566 0.29834,0.08301 0.45508,0.08301c0.21924,0 0.38379,-0.04102 0.49316,-0.12109c0.10986,-0.08008 0.16455,-0.18457 0.16455,-0.31348c0,-0.09766 -0.02979,-0.17578 -0.08936,-0.23438c-0.05908,-0.05859 -0.13232,-0.10352 -0.21875,-0.13477c-0.08594,-0.03125 -0.20654,-0.06543 -0.36035,-0.10352c-0.18408,-0.0459 -0.33154,-0.09082 -0.44092,-0.13477c-0.10986,-0.04297 -0.20361,-0.1084 -0.28174,-0.19727c-0.07813,-0.08887 -0.11719,-0.20898 -0.11719,-0.36035c0,-0.12402 0.03271,-0.23633 0.09766,-0.33789c0.06543,-0.10156 0.16602,-0.18262 0.30127,-0.24316c0.13525,-0.06054 0.30322,-0.09082 0.50391,-0.09082c0.14014,0 0.27686,0.01855 0.41113,0.05762c0.13428,0.03809 0.25049,0.0918 0.34863,0.15918l-0.08789,0.20605c-0.10254,-0.06738 -0.2124,-0.11816 -0.32861,-0.15234c-0.1167,-0.0332 -0.23145,-0.05078 -0.34326,-0.05078c-0.21484,0 -0.37598,0.04199 -0.48486,0.125c-0.1084,0.08301 -0.1626,0.18945 -0.1626,0.32031c0,0.09766 0.02979,0.17676 0.08936,0.23633c0.05957,0.05957 0.13428,0.10449 0.22412,0.13574c0.08936,0.03223 0.21045,0.06641 0.36182,0.10352c0.17969,0.04395 0.3252,0.08789 0.43604,0.13086c0.11084,0.04395 0.20459,0.10938 0.28174,0.19629c0.07715,0.08789 0.11523,0.20605 0.11523,0.35547c0,0.12402 -0.0332,0.23633 -0.09961,0.33789c-0.06641,0.10156 -0.16846,0.18164 -0.30615,0.24121c-0.13769,0.05957 -0.30664,0.08984 -0.50732,0.08984c-0.18214,0.00002 -0.35646,-0.02927 -0.52345,-0.08787z"/><path d="M218.74268,184.05518c0.17773,0.14941 0.26611,0.35449 0.26611,0.61523c0,0.26172 -0.08838,0.4668 -0.26611,0.61426c-0.17725,0.14844 -0.42236,0.22266 -0.73486,0.22266h-0.65772v0.77344h-0.25928v-2.4502h0.91699c0.3125,0 0.55762,0.0752 0.73487,0.22461zM218.55762,185.12061c0.12793,-0.10645 0.19238,-0.25586 0.19238,-0.4502c0,-0.19824 -0.06445,-0.35059 -0.19238,-0.45605c-0.12842,-0.10645 -0.31396,-0.15918 -0.55664,-0.15918h-0.65088v1.22461h0.65088c0.24267,0 0.42822,-0.05273 0.55664,-0.15918z"/><path d="M220.98291,185.62647h-1.36523l-0.29395,0.6543h-0.26953l1.12012,-2.4502h0.25537l1.12012,2.4502h-0.27295zM220.88818,185.41651l-0.58789,-1.31641l-0.58789,1.31641z"/><path d="M225.19385,183.83057l-0.82617,2.4502h-0.27295l-0.71777,-2.08984l-0.7207,2.08984h-0.26953l-0.82617,-2.4502h0.26611l0.70703,2.10742l0.73145,-2.10742h0.2417l0.7207,2.11816l0.71777,-2.11816z"/><path d="M227.71338,183.83057v2.4502h-0.21338l-1.57471,-1.98828v1.98828h-0.25928v-2.4502h0.21338l1.57861,1.98828v-1.98828z"/><path d="M230.96484,185.62647h-1.36523l-0.29395,0.6543h-0.26953l1.12012,-2.4502h0.25537l1.12012,2.4502h-0.27295zM230.87012,185.41651l-0.58789,-1.31641l-0.58789,1.31641z"/><path d="M232.09033,186.21436c-0.16699,-0.05859 -0.2959,-0.13574 -0.38672,-0.23145l0.10156,-0.19922c0.08838,0.08887 0.20654,0.16016 0.35352,0.21484c0.14697,0.05566 0.29834,0.08301 0.45508,0.08301c0.21924,0 0.38379,-0.04102 0.49316,-0.12109c0.10986,-0.08008 0.16455,-0.18457 0.16455,-0.31348c0,-0.09766 -0.02979,-0.17578 -0.08936,-0.23438c-0.05908,-0.05859 -0.13232,-0.10352 -0.21875,-0.13477c-0.08594,-0.03125 -0.20654,-0.06543 -0.36035,-0.10352c-0.18408,-0.0459 -0.33154,-0.09082 -0.44092,-0.13477c-0.10986,-0.04297 -0.20361,-0.1084 -0.28174,-0.19727c-0.07813,-0.08887 -0.11719,-0.20898 -0.11719,-0.36035c0,-0.12402 0.03271,-0.23633 0.09766,-0.33789c0.06543,-0.10156 0.16602,-0.18262 0.30127,-0.24316c0.13525,-0.06054 0.30322,-0.09082 0.50391,-0.09082c0.14014,0 0.27686,0.01855 0.41113,0.05762c0.13428,0.03809 0.25049,0.0918 0.34863,0.15918l-0.08789,0.20605c-0.10254,-0.06738 -0.2124,-0.11816 -0.32861,-0.15234c-0.1167,-0.0332 -0.23145,-0.05078 -0.34326,-0.05078c-0.21484,0 -0.37598,0.04199 -0.48486,0.125c-0.1084,0.08301 -0.1626,0.18945 -0.1626,0.32031c0,0.09766 0.02979,0.17676 0.08936,0.23633c0.05957,0.05957 0.13428,0.10449 0.22412,0.13574c0.08936,0.03223 0.21045,0.06641 0.36182,0.10352c0.17969,0.04395 0.3252,0.08789 0.43604,0.13086c0.11084,0.04395 0.20459,0.10938 0.28174,0.19629c0.07715,0.08789 0.11523,0.20605 0.11523,0.35547c0,0.12402 -0.0332,0.23633 -0.09961,0.33789c-0.06641,0.10156 -0.16846,0.18164 -0.30615,0.24121c-0.13769,0.05957 -0.30664,0.08984 -0.50732,0.08984c-0.18214,0.00002 -0.35646,-0.02927 -0.52345,-0.08787z"/><path d="M236.54395,185.62647h-1.36523l-0.29395,0.6543h-0.26953l1.12012,-2.4502h0.25537l1.12012,2.4502h-0.27295zM236.44922,185.41651l-0.58789,-1.31641l-0.58789,1.31641z"/><path d="M240.10645,186.28077l-0.55957,-0.78711c-0.06299,0.00684 -0.12842,0.00977 -0.19629,0.00977h-0.65771v0.77734h-0.25928v-2.4502h0.91699c0.3125,0 0.55762,0.0752 0.73486,0.22461c0.17773,0.14941 0.26611,0.35449 0.26611,0.61523c0,0.19141 -0.04834,0.35352 -0.14502,0.48535c-0.09717,0.13184 -0.23535,0.22656 -0.41504,0.28516l0.59863,0.83984h-0.28368zM239.90039,185.12257c0.12793,-0.10742 0.19238,-0.25781 0.19238,-0.45215c0,-0.19824 -0.06445,-0.35059 -0.19238,-0.45605c-0.12842,-0.10645 -0.31396,-0.15918 -0.55664,-0.15918h-0.65088v1.22852h0.65088c0.24268,-0.00001 0.42822,-0.05372 0.55664,-0.16114z"/><path d="M242.50098,185.62647h-1.36523l-0.29395,0.6543h-0.26953l1.12012,-2.4502h0.25586l1.12012,2.4502h-0.27344zM242.40625,185.41651l-0.58789,-1.31641l-0.58789,1.31641z"/><path d="M245.52148,183.83057v2.4502h-0.21387l-1.57422,-1.98828v1.98828h-0.25977v-2.4502h0.21387l1.57812,1.98828v-1.98828z"/><path d="M246.31934,183.83057h0.99805c0.25879,0 0.4873,0.05176 0.68555,0.15625c0.19824,0.10352 0.35254,0.24805 0.46191,0.43359c0.11035,0.18555 0.16504,0.39746 0.16504,0.63574c0,0.2373 -0.05469,0.44922 -0.16504,0.63477c-0.10938,0.18555 -0.26367,0.33008 -0.46191,0.43457c-0.19824,0.10352 -0.42676,0.15527 -0.68555,0.15527h-0.99805zM247.30273,186.05714c0.21484,0 0.40332,-0.04297 0.56348,-0.12793c0.16113,-0.08496 0.28613,-0.20312 0.375,-0.35352c0.08887,-0.1504 0.13281,-0.32422 0.13281,-0.51953c0,-0.19629 -0.04395,-0.37012 -0.13281,-0.52051c-0.08886,-0.15039 -0.21387,-0.26758 -0.375,-0.35352c-0.16016,-0.08496 -0.34863,-0.12695 -0.56348,-0.12695h-0.72363v2.00195h0.72363z"/><path d="M249.62109,186.13917c-0.19629,-0.1084 -0.35059,-0.25781 -0.46191,-0.44629c-0.11035,-0.18945 -0.16602,-0.40137 -0.16602,-0.63672c0,-0.23633 0.05566,-0.44824 0.16602,-0.6377c0.11133,-0.18848 0.26562,-0.33789 0.46191,-0.44629c0.19727,-0.1084 0.41797,-0.16211 0.66016,-0.16211c0.24316,0 0.46191,0.05371 0.65625,0.16113c0.19531,0.10645 0.34863,0.25586 0.45996,0.44629c0.1123,0.18945 0.16797,0.40234 0.16797,0.63867c0,0.23535 -0.05566,0.44824 -0.16797,0.63867c-0.11133,0.18945 -0.26465,0.33887 -0.45996,0.44629c-0.19434,0.10742 -0.41309,0.16113 -0.65625,0.16113c-0.24219,0.00001 -0.46289,-0.05467 -0.66016,-0.16307zM250.80664,185.93995c0.15625,-0.08789 0.27832,-0.20898 0.36719,-0.36426c0.08887,-0.15528 0.13281,-0.32812 0.13281,-0.51953c0,-0.19141 -0.04395,-0.36523 -0.13281,-0.52051c-0.08887,-0.1543 -0.21094,-0.27637 -0.36719,-0.36328c-0.15625,-0.08789 -0.33203,-0.13184 -0.52539,-0.13184c-0.19336,0 -0.36914,0.04395 -0.52637,0.13184c-0.1582,0.08691 -0.28125,0.20898 -0.37109,0.36328c-0.08984,0.15527 -0.13477,0.3291 -0.13477,0.52051c0,0.19141 0.04492,0.36426 0.13477,0.51953c0.08985,0.15527 0.21289,0.27637 0.37109,0.36426c0.15723,0.08691 0.33301,0.13086 0.52637,0.13086c0.19336,0 0.36914,-0.04395 0.52539,-0.13086z"/><path d="M254.69141,183.83057v2.4502h-0.24902v-1.95996l-0.96191,1.64844h-0.12305l-0.96191,-1.6377v1.94922h-0.24902v-2.4502h0.21387l1.06348,1.81641l1.05371,-1.81641z"/><path d="M256.55859,186.21436c-0.16699,-0.05859 -0.2959,-0.13574 -0.38672,-0.23145l0.10156,-0.19922c0.08789,0.08887 0.20605,0.16016 0.35352,0.21484c0.14648,0.05566 0.29785,0.08301 0.45508,0.08301c0.21875,0 0.38281,-0.04102 0.49219,-0.12109c0.11035,-0.08008 0.16504,-0.18457 0.16504,-0.31348c0,-0.09766 -0.03027,-0.17578 -0.08887,-0.23438c-0.05957,-0.05859 -0.13281,-0.10352 -0.21875,-0.13477c-0.08594,-0.03125 -0.20703,-0.06543 -0.36035,-0.10352c-0.18457,-0.0459 -0.33203,-0.09082 -0.44141,-0.13477c-0.10938,-0.04297 -0.20312,-0.1084 -0.28125,-0.19727c-0.07813,-0.08887 -0.11719,-0.20898 -0.11719,-0.36035c0,-0.12402 0.03223,-0.23633 0.09766,-0.33789c0.06543,-0.10156 0.16602,-0.18262 0.30078,-0.24316c0.13574,-0.06055 0.30371,-0.09082 0.50391,-0.09082c0.14062,0 0.27637,0.01855 0.41113,0.05762c0.13477,0.03809 0.25,0.0918 0.34863,0.15918l-0.08789,0.20605c-0.10254,-0.06738 -0.21191,-0.11816 -0.3291,-0.15234c-0.11621,-0.0332 -0.23047,-0.05078 -0.34277,-0.05078c-0.21484,0 -0.37598,0.04199 -0.48438,0.125c-0.1084,0.08301 -0.16309,0.18945 -0.16309,0.32031c0,0.09766 0.03027,0.17676 0.08984,0.23633c0.05957,0.05957 0.13379,0.10449 0.22363,0.13574c0.08984,0.03223 0.21094,0.06641 0.3623,0.10352c0.17969,0.04395 0.32422,0.08789 0.43555,0.13086c0.11133,0.04395 0.20508,0.10938 0.28125,0.19629c0.07812,0.08789 0.11523,0.20605 0.11523,0.35547c0,0.12402 -0.0332,0.23633 -0.09961,0.33789c-0.06641,0.10156 -0.16797,0.18164 -0.30566,0.24121c-0.13769,0.05957 -0.30664,0.08984 -0.50684,0.08984c-0.1826,0.00002 -0.35642,-0.02927 -0.52342,-0.08787z"/><path d="M259.31738,185.1294l-0.5,0.50781v0.64355h-0.25879v-2.4502h0.25879v1.48047l1.43848,-1.48047h0.29688l-1.05957,1.10938l1.13379,1.34082h-0.30859z"/><path d="M261.04785,183.83057h0.25879v2.4502h-0.25879z"/><path d="M264.15137,183.83057v2.4502h-0.21289l-1.5752,-1.98828v1.98828h-0.25879v-2.4502h0.21289l1.5791,1.98828v-1.98828z"/><path d="M264.875,186.24366c-0.03711,-0.03613 -0.05469,-0.07812 -0.05469,-0.12695c0,-0.05176 0.01758,-0.09473 0.05273,-0.12793c0.03516,-0.03418 0.0791,-0.05078 0.13281,-0.05078c0.05078,0 0.09473,0.0166 0.12988,0.05078c0.03418,0.0332 0.05176,0.07617 0.05176,0.12793c0,0.04883 -0.01758,0.09082 -0.05176,0.12695c-0.03516,0.03613 -0.0791,0.05469 -0.12988,0.05469c-0.05175,0 -0.09472,-0.01856 -0.13085,-0.05469zM264.8584,183.83057h0.29395l-0.05176,1.71484h-0.19238z"/></g><path d="M183.4,199.4v-38.8h113.2v38.8z" fill="none" stroke-width="0"/></g></g></svg>