<svg version="1.1" xmlns="http://www.w3.org/2000/svg" xmlns:xlink="http://www.w3.org/1999/xlink" width="37.795" height="6.262" viewBox="0,0,37.795,6.262"><g transform="translate(-221.103,-176.583)"><g data-paper-data="{&quot;isPaintingLayer&quot;:true}" fill="#000000" fill-rule="nonzero" stroke="none" stroke-width="1" stroke-linecap="butt" stroke-linejoin="miter" stroke-miterlimit="10" stroke-dasharray="" stroke-dashoffset="0" style="mix-blend-mode: normal"><g><path/><path d="M222.958,182.845h-1.855v-6.262h1.855z"/><path d="M225.74,179.713v3.131h-1.855v-6.261h1.391l3.246,3.13v-3.13h1.855v6.262h-1.391z"/><path d="M235.942,179.266v-2.683h1.855v3.578l-2.782,2.684h-0.928l-2.782,-2.684v-3.578h1.855v2.683l1.391,1.342z"/><path d="M240.58,181.056h3.709v1.789h-5.564v-6.262h5.564v1.789h-3.709v0.447h3.709v1.789h-3.709z"/><path d="M251.71,177.925v1.789l-1.391,1.342l1.854,1.789h-2.782l-1.855,-1.789h-0.464v1.789h-1.854v-6.262h5.102zM249.855,178.819l-0.464,-0.447h-2.319v0.894h2.319z"/><path d="M256.579,178.372v4.473h-1.855v-4.473h-2.318v-1.789h6.492v1.789z"/><path/></g></g></g></svg>