<svg version="1.1" xmlns="http://www.w3.org/2000/svg" xmlns:xlink="http://www.w3.org/1999/xlink" width="41.968" height="6.262" viewBox="0,0,41.968,6.262"><g transform="translate(-219.248,-176.583)"><g data-paper-data="{&quot;isPaintingLayer&quot;:true}" fill="#000000" fill-rule="nonzero" stroke="none" stroke-width="1" stroke-linecap="butt" stroke-linejoin="miter" stroke-miterlimit="10" stroke-dasharray="" stroke-dashoffset="0" style="mix-blend-mode: normal"><g><path/><path d="M225.74,177.925v1.789l-1.391,1.342l1.855,1.789h-2.782l-1.855,-1.789h-0.464v1.789h-1.855v-6.262h5.101zM223.885,178.819l-0.463,-0.447h-2.319v0.894h2.319z"/><path d="M228.523,181.056h3.71v1.789h-5.565v-6.262h5.565v1.789h-3.71v0.447h3.71v1.789h-3.71z"/><path d="M234.32,176.583h3.71l1.391,1.342v4.92h-1.855v-1.342h-2.782v1.342h-1.855v-4.92zM237.103,178.372h-1.855l-0.464,0.447v0.895h2.782v-0.895z"/><path d="M246.84,177.925v1.789l-1.391,1.342h-3.247v1.789h-1.854v-6.262h5.101zM244.985,178.819l-0.464,-0.447h-2.319v0.894h2.319z"/><path d="M249.622,181.056h3.71v1.789h-5.564v-6.262h5.564v1.789h-3.71v0.447h3.71v1.789h-3.71z"/><path d="M260.753,177.925v1.789l-1.391,1.342l1.854,1.789h-2.782l-1.855,-1.789h-0.464v1.789h-1.854v-6.262h5.102zM258.898,178.819l-0.464,-0.447h-2.319v0.894h2.319z"/><path/></g></g></g></svg>