<svg version="1.1" xmlns="http://www.w3.org/2000/svg" xmlns:xlink="http://www.w3.org/1999/xlink" width="26.9" height="6.6" viewBox="0,0,26.9,6.6"><g transform="translate(-226.5,-177.175)"><g data-paper-data="{&quot;isPaintingLayer&quot;:true}" fill="#000000" fill-rule="nonzero" stroke="none" stroke-width="1" stroke-linecap="butt" stroke-linejoin="miter" stroke-miterlimit="10" stroke-dasharray="" stroke-dashoffset="0" style="mix-blend-mode: normal"><path/><path d="M230.7,179.075v4.6h-1.9v-4.6h-2.3v-1.9h6.5v1.9z"/><path d="M240.5,178.575v1.9l-1.4,1.4l1.9,1.9h-2.8l-1.9,-1.9h-0.5v1.9h-1.8v-6.5h5.1zM238.6,179.575l-0.5,-0.5h-2.3v0.9h2.3z"/><path d="M243.2,181.875h3.7v1.9h-5.6v-6.5h5.6v1.9h-3.7v0.5h3.7v1.9h-3.7z"/><path d="M249.7,181.875h3.7v1.9h-5.6v-6.5h5.6v1.9h-3.7v0.5h3.7v1.9h-3.7z"/><path/></g></g></svg>