<svg version="1.1" xmlns="http://www.w3.org/2000/svg" xmlns:xlink="http://www.w3.org/1999/xlink" width="35.4518" height="31.01603" viewBox="0,0,35.4518,31.01603"><g transform="translate(-222.73993,-165.00369)"><g data-paper-data="{&quot;isPaintingLayer&quot;:true}" fill="#ffffff" fill-rule="nonzero" stroke="none" stroke-width="1" stroke-linecap="butt" stroke-linejoin="miter" stroke-miterlimit="10" stroke-dasharray="" stroke-dashoffset="0" style="mix-blend-mode: normal"><path d="M257.96898,185.2652c-0.75311,1.28094 -1.51776,2.5141 -2.28949,3.69934c-0.92114,1.4148 -1.85235,2.76148 -2.78613,4.03992c-0.46154,0.63892 -1.38891,0.63892 -1.85052,0c-0.93371,-1.27845 -1.86493,-2.62507 -2.78607,-4.03986c-0.77173,-1.1853 -1.53638,-2.41845 -2.28955,-3.69946c-0.54541,-0.94177 -0.02887,-1.81158 0.89545,-1.55139c0.12304,0.03393 0.24634,0.06659 0.36981,0.09796c0.62317,0.15912 1.13452,-0.25861 1.13434,-0.88739c0,-0.70197 0,-1.40399 0,-2.10596c0,-0.63007 0.51001,-1.03803 1.14435,-0.95685c1.63116,0.21027 3.28278,0.21027 4.91394,0c0.63434,-0.08124 1.14441,0.32678 1.14435,0.95685c0,0.70197 0,1.40399 0,2.10596c-0.00018,0.62878 0.51117,1.04645 1.13434,0.88739c0.12353,-0.03137 0.24676,-0.06409 0.36981,-0.09796c0.92425,-0.2602 1.44079,0.60961 0.89537,1.55145z"/><path d="M255.5694,174.71778c0,0.48664 0,0.97321 0,1.45978c0,0.1109 0,0.22186 0,0.33276c0,0.48658 0,0.97315 0,1.45972c0,0.62885 -0.50995,1.24127 -1.14429,1.32245c-1.63116,0.21027 -3.28284,0.21027 -4.91394,0c-0.6344,-0.08118 -1.14435,-0.69367 -1.14435,-1.32245c0,-0.48658 0,-0.97315 0,-1.45972c0,-0.1109 0,-0.22186 0,-0.33276c0,-0.48657 0,-0.97321 0,-1.45978c0,-0.62995 0.50995,-1.03797 1.14429,-0.95679c1.63116,0.21027 3.28278,0.21027 4.91394,0c0.6344,-0.08118 1.14435,0.32684 1.14435,0.95679z"/><path d="M248.36682,172.43085c0,-0.24329 0,-0.48657 0,-0.72986c0,-0.05548 0,-0.1109 0,-0.16638c0,-0.24329 0,-0.48657 0,-0.72986c0,-0.3153 0.50995,-0.4682 1.14429,-0.38702c1.63116,0.21027 3.28278,0.21027 4.91394,0c0.6344,-0.08118 1.14435,0.07177 1.14435,0.38702c0,0.24329 0,0.48657 0,0.72986c0,0.05548 0,0.1109 0,0.16638c0,0.24329 0,0.48657 0,0.72986c0,0.31408 -0.50995,0.67144 -1.14429,0.75262c-1.63116,0.21027 -3.28284,0.21027 -4.91394,0c-0.6344,-0.08118 -1.14435,-0.43854 -1.14435,-0.75262z"/><path d="M247.83772,189.23688c0.05468,0.08405 0.11273,0.16639 0.16772,0.25037l-0.67828,1.16064c-0.35595,0.60913 -0.85718,1.12066 -1.45886,1.48895l-4.56525,2.79437c-0.55286,0.33838 -1.17548,0.54657 -1.82068,0.60889l-4.76294,0.45984c-1.10291,0.10645 -2.20404,-0.21954 -3.07129,-0.90924l-1.96832,-1.56549c-0.7627,-0.60663 -1.29523,-1.45563 -1.50928,-2.40631l-0.57959,-2.5741c-0.19867,-0.88233 -0.67206,-1.6789 -1.35217,-2.27515l-1.40332,-1.23022c-0.42493,-0.37256 -0.77179,-0.82568 -1.02051,-1.33319l-0.38776,-0.79126l-0.11151,-2.00916c-0.0257,-0.01733 -0.0423,-0.04523 -0.04517,-0.07611l-0.53058,-5.66815l0.35437,-0.86328l0.33935,-0.27106c0.42371,-0.33844 0.90796,-0.59314 1.42688,-0.75055l17.25382,-5.23351c0.71673,-0.21741 1.47809,-0.24261 2.20764,-0.07318l0.70837,0.16455c1.05115,0.24414 1.97101,0.87683 2.57501,1.77112l0.36206,0.53607c-0.06054,0.11237 -0.1004,0.23322 -0.1004,0.36304v1.62598c0,0.42914 0.32574,0.77447 0.75854,0.99603c-0.09869,0.05236 -0.19196,0.11486 -0.2771,0.18951c-0.31055,0.27344 -0.48145,0.66455 -0.48145,1.10156v3.25195c0,0.61554 0.3418,1.18878 0.83795,1.52527c-0.12781,0.05829 -0.24982,0.12793 -0.35651,0.2218c-0.31055,0.27344 -0.48145,0.66455 -0.48145,1.10156v2.10596c0,0.15137 -0.05176,0.27637 -0.14746,0.34961c-0.09277,0.07129 -0.2207,0.08887 -0.36035,0.05469l-0.36133,-0.09668c-0.14161,-0.04047 -0.28034,-0.05982 -0.41486,-0.06342l0.00885,-0.3313l-1.67773,-1.12811l-1.20782,-1.45288l-1.86194,-0.41528l-1.83832,0.16101l-1.83905,0.24713l-1.46198,1.20697l-0.43207,0.62988l0.46727,0.76821l-0.00391,2.39294l0.36353,2.01556l0.6543,1.53912l1.74506,-0.25415l1.46552,0.39807l1.59149,0.62164l1.66779,-0.3559l0.7622,-1.57764l0.80188,-1.49017l0.05695,-0.11444c0.64258,1.07898 1.30799,2.15618 1.99269,3.20764zM244.53302,175.961l0.48463,1.01055l0.70782,0.79285l0.9895,0.26526l0.39545,-0.54132l0.65454,-0.90881l-0.37531,-1.77435l-1.55475,-0.96405l-0.22101,0.23999l0.02612,0.42749zM231.19782,181.18622l0.21851,-1.14441l0.6181,-2.00378l-1.28394,-1.32141l-1.70923,0.00018l-1.72803,-0.16565l-1.6701,0.47717l-0.16461,0.7027l0.44037,0.44226l-0.37708,2.97485l1.73163,1.1275l2.02893,-0.4306zM234.05274,189.31862l-1.47192,-1.01117l-1.57709,0.64105l-0.23126,0.10144l0.22296,0.20355l0.07764,1.46954l0.7821,0.49463l0.97717,0.15259l0.97919,-0.36475l0.0191,-0.63544zM235.50537,176.24792l1.27924,0.68866l1.4494,0.04266l1.2511,-0.67267l0.40137,-0.7171l-0.16553,-1.42023l-1.77509,-1.37897l-2.31219,0.73456l-0.21863,0.18201l0.06317,0.36884z"/><path d="M224.68945,168.65771c-0.1408,-0.51226 0.05506,-0.95684 0.23834,-1.41803c0.13532,-0.34045 0.25043,-0.70813 0.43921,-1.02313c0.26783,-0.4469 0.66547,-0.78589 1.16889,-0.93683c0.10821,-0.03247 0.21844,-0.04827 0.32928,-0.06854c0.05848,-0.01068 0.11597,-0.02514 0.17395,-0.03735c0.40448,-0.23822 0.87885,-0.22565 1.27649,0.03375c0.02289,-0.00751 0.04035,-0.02203 0.06403,-0.02844c0.48492,-0.13147 0.99774,0.03271 1.47169,0.14191c0.30474,0.07019 0.61914,0.12677 0.91589,0.22571c0.45929,0.15302 0.8562,0.41614 1.0896,0.85132c0.26874,0.50079 0.18829,1.03723 0.04779,1.55981c-0.21344,0.79395 -0.64283,1.5238 -1.40784,1.89209c-0.20148,0.09705 -0.4115,0.1795 -0.61969,0.26117c-0.00416,0.00232 -0.0044,0.00275 -0.00916,0.00531c-0.05511,0.03015 -0.11187,0.05609 -0.16583,0.0885c-0.00318,0.00183 -0.00611,0.00409 -0.00928,0.00598c-0.09748,0.09107 -0.39258,0.29352 -0.31177,0.23969c-0.17139,0.11413 -0.36279,0.19555 -0.56305,0.24127c-0.4743,0.1084 -0.95965,-0.00678 -1.42584,-0.10547c-0.27698,-0.05866 -0.55078,-0.12952 -0.81586,-0.22992c-0.79864,-0.30268 -1.64587,-0.82196 -1.88684,-1.6988zM229.41907,167.69867c0.00671,-0.00397 0.01178,-0.0069 0.01837,-0.01081c-0.0069,-0.00165 -0.01379,-0.00323 -0.02069,-0.00482c-0.00183,0.00464 0.0025,0.0105 0.00232,0.01563zM226.80304,165.32385c0.06213,-0.05761 0.13544,-0.08642 0.20367,-0.12945c-0.01971,0.00732 -0.03466,0.01288 -0.05957,0.02203c-0.04803,0.03583 -0.09607,0.07166 -0.1441,0.10742z"/><path d="M234.39349,167.28835c-0.16516,-0.20624 -0.26562,-0.48285 -0.28485,-0.74567c-0.0285,-0.38965 0.11927,-0.86506 0.51044,-1.01923c0.12744,-0.05023 0.2879,-0.03565 0.42224,-0.03882c0.16705,-0.00391 0.32788,0.01074 0.49188,0.04504c0.526,0.10998 1.05823,0.32312 1.35907,0.79547c0.10291,0.17614 0.17987,0.36169 0.18628,0.5686c0.0075,0.23987 -0.07032,0.46216 -0.2168,0.65167c-0.20373,0.26349 -0.55548,0.39203 -0.87805,0.41608c-0.59277,0.04406 -1.21862,-0.20923 -1.59021,-0.67314z"/></g></g></svg>