<svg version="1.1" xmlns="http://www.w3.org/2000/svg" xmlns:xlink="http://www.w3.org/1999/xlink" width="29.1975" height="6.4" viewBox="0,0,29.1975,6.4"><g transform="translate(-226.4,-176.9)"><g data-paper-data="{&quot;isPaintingLayer&quot;:true}" fill="#000000" fill-rule="nonzero" stroke="none" stroke-width="1" stroke-linecap="butt" stroke-linejoin="miter" stroke-miterlimit="10" stroke-dasharray="" stroke-dashoffset="0" style="mix-blend-mode: normal"><path d="M226.4,176.9h1.8v4.5h3.6v1.8h-5.4z"/><path d="M234.1,176.9h3.6l1.4,1.4v5h-1.8v-1.4h-2.7v1.4h-1.8v-5zM236.8,178.7h-1.8l-0.5,0.5v0.9h2.7v-0.9z"/><path d="M244.5,179.6v-2.7h1.8v3.6l-2.7,2.7h-0.9l-2.7,-2.7v-3.6h1.8v2.7l1.4,1.4z"/><path d="M248.6,176.9h3.6l1.4,1.4v5h-1.8v-1.4h-2.8v1.4h-1.8v-5zM251.3,178.7h-1.8l-0.5,0.5v0.9h2.7v-0.9z"/><path/><path d="M255.5975,178.4445z"/></g></g></svg>