<svg version="1.1" xmlns="http://www.w3.org/2000/svg" xmlns:xlink="http://www.w3.org/1999/xlink" width="113.2" height="38.8" viewBox="0,0,113.2,38.8"><g transform="translate(-183.4,-160.6)"><g data-paper-data="{&quot;isPaintingLayer&quot;:true}" fill-rule="nonzero" stroke="none" stroke-linecap="butt" stroke-linejoin="miter" stroke-miterlimit="10" stroke-dasharray="" stroke-dashoffset="0" style="mix-blend-mode: normal"><g fill="#ffffff" stroke-width="1"><path d="M206.35058,176.48096v-2.7832h1.85547v3.71094l-2.7832,2.7832h-0.92773l-2.7832,-2.7832v-3.71094h1.85547v2.7832l1.3916,1.3916z"/><path d="M210.52538,173.69776h3.71094l1.3916,1.3916v5.10254h-1.85547v-1.3916h-2.7832v1.3916h-1.85547v-5.10254zM213.30858,175.55322h-1.85547l-0.46387,0.46387v0.92773h2.7832v-0.92773z"/><path d="M218.41112,176.48096v3.71094h-1.85547v-6.49414h1.85547l1.3916,1.3916l1.3916,-1.3916h1.85547v6.49414h-1.85547v-3.71094l-1.3916,1.3916z"/><path d="M230.47167,175.08936v1.85547l-1.3916,1.3916h-3.24707v1.85547h-1.85547v-6.49414h5.10254zM228.6162,176.01709l-0.46387,-0.46387h-2.31934v0.92773h2.31934z"/><path d="M233.25487,180.1919h-1.85547v-6.49414h1.85547z"/><path d="M240.67675,175.08936v1.85547l-1.3916,1.3916l1.85547,1.85547h-2.7832l-1.85547,-1.85547h-0.46387v1.85547h-1.85547v-6.49414h5.10254zM238.82128,176.01709l-0.46387,-0.46387h-2.31934v0.92773h2.31934z"/><path d="M243.45995,178.33643h3.71191v1.85547h-5.56738v-6.49414h5.56738v1.85547h-3.71191v0.46387h3.71191v1.85547h-3.71191z"/><path d="M252.31151,176.48096v3.71094h-1.85547v-6.49414h1.85547l1.3916,1.3916l1.3916,-1.3916h1.85547v6.49414h-1.85547v-3.71094l-1.3916,1.3916z"/><path d="M257.87792,178.80029v-3.71094l1.3916,-1.3916h3.71094l1.3916,1.3916v3.71094l-1.3916,1.3916h-3.71094zM259.73339,176.01709v1.85547l0.46387,0.46387h1.85547l0.46387,-0.46387v-1.85547l-0.46387,-0.46387h-1.85547z"/><path d="M265.29979,173.69776h5.10254l1.3916,1.3916v3.71094l-1.3916,1.3916h-5.10254zM267.15526,175.55322v2.7832h2.31934l0.46387,-0.46387v-1.85546l-0.46387,-0.46387z"/><path d="M274.57714,178.33643h3.71094v1.85547h-5.56641v-6.49414h5.56641v1.85547h-3.71094v0.46387h3.71094v1.85547h-3.71094z"/></g><g fill="#ffffff" stroke-width="1"><path d="M204.73095,183.83057h0.99756c0.25879,0 0.48779,0.05176 0.68604,0.15625c0.19824,0.10352 0.35205,0.24805 0.46191,0.43359c0.10986,0.18554 0.16455,0.39746 0.16455,0.63574c0,0.2373 -0.05469,0.44922 -0.16455,0.63477c-0.10986,0.18555 -0.26367,0.33008 -0.46191,0.43457c-0.19824,0.10352 -0.42725,0.15527 -0.68604,0.15527h-0.99756zM205.71435,186.05713c0.21484,0 0.40283,-0.04297 0.56348,-0.12793c0.16113,-0.08496 0.28613,-0.20312 0.37451,-0.35352c0.08887,-0.15039 0.1333,-0.32422 0.1333,-0.51953c0,-0.19629 -0.04443,-0.37012 -0.1333,-0.52051c-0.08838,-0.15039 -0.21338,-0.26758 -0.37451,-0.35352c-0.16064,-0.08496 -0.34863,-0.12695 -0.56348,-0.12695h-0.72412v2.00195h0.72412z"/><path d="M209.35448,186.05713v0.22363h-1.73242v-2.4502h1.68018v0.22461h-1.4209v0.87109h1.2666v0.2207h-1.2666v0.91016h1.47314z"/><path d="M210.22265,184.05518v0.96191h1.2666v0.22461h-1.2666v1.03906h-0.25928v-2.4502h1.68018v0.22461h-1.4209z"/><path d="M213.91112,186.05713v0.22363h-1.73242v-2.4502h1.68018v0.22461h-1.4209v0.87109h1.2666v0.2207h-1.2666v0.91016h1.47314z"/><path d="M216.05712,185.62647h-1.36523l-0.29395,0.6543h-0.26953l1.12012,-2.4502h0.25537l1.12012,2.4502h-0.27295zM215.96239,185.41651l-0.58789,-1.31641l-0.58789,1.31641z"/><path d="M217.38329,184.05518h-0.86084v-0.22461h1.98096v0.22461h-0.86133v2.22559h-0.25879z"/><path d="M218.91649,183.83057h0.25928v2.4502h-0.25928z"/><path d="M222.0205,183.83057v2.4502h-0.21338l-1.57471,-1.98828v1.98828h-0.25928v-2.4502h0.21338l1.57861,1.98828v-1.98828z"/><path d="M224.54442,185.05615h0.24854v0.93457c-0.11426,0.09961 -0.24951,0.17676 -0.40625,0.23047c-0.15625,0.05371 -0.3208,0.08105 -0.49316,0.08105c-0.24512,0 -0.46582,-0.05371 -0.66162,-0.16113c-0.1958,-0.10742 -0.3501,-0.25684 -0.46191,-0.44629c-0.1123,-0.19043 -0.16797,-0.40332 -0.16797,-0.63867c0,-0.23633 0.05566,-0.44922 0.16797,-0.63867c0.11182,-0.19043 0.26611,-0.33984 0.46191,-0.44629c0.1958,-0.10742 0.41748,-0.16113 0.66504,-0.16113c0.18652,0 0.35791,0.0293 0.51465,0.08887c0.15625,0.05957 0.28809,0.14746 0.39551,0.26465l-0.16114,0.16406c-0.19385,-0.19141 -0.43994,-0.28711 -0.73877,-0.28711c-0.19824,0 -0.37744,0.04395 -0.53711,0.13184c-0.15967,0.08691 -0.28516,0.20898 -0.37598,0.36328c-0.09131,0.15527 -0.13672,0.3291 -0.13672,0.52051c0,0.19141 0.04541,0.36328 0.13672,0.51758c0.09082,0.1543 0.21582,0.27539 0.37451,0.36426c0.1582,0.08887 0.33691,0.13281 0.53516,0.13281c0.25195,0 0.46582,-0.06348 0.64062,-0.18945z"/><path d="M227.97802,185.62647h-1.36523l-0.29395,0.6543h-0.26953l1.12012,-2.4502h0.25537l1.12012,2.4502h-0.27295zM227.88329,185.41651l-0.58789,-1.31641l-0.58789,1.31641z"/><path d="M230.99804,183.83057v2.4502h-0.21338l-1.57471,-1.98828v1.98828h-0.25928v-2.4502h0.21338l1.57861,1.98828v-1.98828z"/><path d="M234.4453,186.05713v0.22363h-1.73242v-2.4502h1.68018v0.22461h-1.4209v0.87109h1.2666v0.2207h-1.2666v0.91016h1.47314z"/><path d="M237.10204,183.83057v2.4502h-0.21338l-1.57471,-1.98828v1.98828h-0.25928v-2.4502h0.21338l1.57861,1.98828v-1.98828z"/><path d="M239.63231,186.05713v0.22363h-1.73242v-2.4502h1.68018v0.22461h-1.4209v0.87109h1.2666v0.2207h-1.2666v0.91016h1.47314z"/><path d="M242.78515,183.83057v2.4502h-0.24805v-1.95996l-0.96289,1.64844h-0.12207l-0.9624,-1.6377v1.94922h-0.24854v-2.4502h0.21338l1.06396,1.81641l1.05371,-1.81641z"/><path d="M244.42382,185.43408v0.84668h-0.25586v-0.84668l-0.97949,-1.60352h0.27637l0.83984,1.37598l0.83984,-1.37598h0.25977z"/><path d="M250.0869,183.83057l-0.82617,2.4502h-0.27344l-0.7168,-2.08984l-0.72266,2.08984h-0.26855l-0.82617,-2.4502h0.2666l0.70703,2.10742l0.73047,-2.10742h0.24219l0.7207,2.11816l0.7168,-2.11816z"/><path d="M250.55956,183.83057h0.25879v2.4502h-0.25879z"/><path d="M251.6162,183.83057h0.25879v2.22656h1.37207v0.22363h-1.63086z"/><path d="M253.67772,183.83057h0.25879v2.22656h1.37207v0.22363h-1.63086z"/><path d="M258.70311,183.83057v2.4502h-0.25488v-1.13086h-1.5332v1.13086h-0.25879v-2.4502h0.25879v1.0918h1.5332v-1.0918z"/><path d="M261.23437,186.05713v0.22363h-1.73242v-2.4502h1.67969v0.22461h-1.4209v0.87109h1.2666v0.2207h-1.2666v0.91016h1.47363z"/><path d="M263.3789,185.62647h-1.36523l-0.29395,0.6543h-0.26953l1.12012,-2.4502h0.25586l1.12012,2.4502h-0.27344zM263.28417,185.41651l-0.58789,-1.31641l-0.58789,1.31641z"/><path d="M264.35253,183.83057h0.25879v2.22656h1.37207v0.22363h-1.63086z"/><path d="M268.17089,185.43408v0.84668h-0.25586v-0.84668l-0.97949,-1.60352h0.27637l0.83984,1.37598l0.83984,-1.37598h0.25879z"/><path d="M269.85937,186.13916c-0.19727,-0.1084 -0.35156,-0.25781 -0.46191,-0.44629c-0.11133,-0.18945 -0.16699,-0.40137 -0.16699,-0.63672c0,-0.23633 0.05566,-0.44824 0.16699,-0.6377c0.11035,-0.18848 0.26465,-0.33789 0.46191,-0.44629c0.19726,-0.1084 0.41699,-0.16211 0.65918,-0.16211c0.24316,0 0.46191,0.05371 0.65625,0.16113c0.19531,0.10645 0.34863,0.25586 0.46094,0.44629c0.11133,0.18945 0.16797,0.40234 0.16797,0.63867c0,0.23535 -0.05664,0.44824 -0.16797,0.63867c-0.1123,0.18945 -0.26562,0.33887 -0.46094,0.44629c-0.19434,0.10742 -0.41309,0.16113 -0.65625,0.16113c-0.24219,0.00002 -0.46192,-0.05467 -0.65918,-0.16307zM271.04394,185.93994c0.15625,-0.08789 0.27832,-0.20898 0.36719,-0.36426c0.08887,-0.15528 0.13281,-0.32812 0.13281,-0.51953c0,-0.19141 -0.04395,-0.36523 -0.13281,-0.52051c-0.08887,-0.1543 -0.21094,-0.27637 -0.36719,-0.36328c-0.15625,-0.08789 -0.33105,-0.13184 -0.52539,-0.13184c-0.19336,0 -0.36914,0.04395 -0.52637,0.13184c-0.15723,0.08691 -0.28125,0.20898 -0.37109,0.36328c-0.08984,0.15527 -0.13477,0.3291 -0.13477,0.52051c0,0.19141 0.04492,0.36426 0.13477,0.51953c0.08985,0.15527 0.21387,0.27637 0.37109,0.36426c0.15723,0.08691 0.33301,0.13086 0.52637,0.13086c0.19433,0 0.36914,-0.04394 0.52539,-0.13086z"/><path d="M272.6289,186.02881c-0.17676,-0.18164 -0.26562,-0.44727 -0.26562,-0.79492v-1.40332h0.25879v1.39355c0,0.28418 0.06445,0.49707 0.19238,0.63672c0.12891,0.13965 0.31445,0.20996 0.55664,0.20996c0.24512,0 0.43164,-0.07031 0.56055,-0.20996c0.12793,-0.13965 0.19238,-0.35254 0.19238,-0.63672v-1.39355h0.25195v1.40332c0,0.34766 -0.08789,0.61328 -0.26465,0.79492c-0.17578,0.18164 -0.42285,0.27344 -0.74023,0.27344c-0.31738,0 -0.56446,-0.0918 -0.74219,-0.27344z"/><path d="M275.08202,186.24365c-0.03711,-0.03613 -0.05469,-0.07812 -0.05469,-0.12695c0,-0.05176 0.01758,-0.09473 0.05273,-0.12793c0.03516,-0.03418 0.0791,-0.05078 0.13281,-0.05078c0.05078,0 0.09473,0.0166 0.12988,0.05078c0.03418,0.0332 0.05176,0.07617 0.05176,0.12793c0,0.04883 -0.01758,0.09082 -0.05176,0.12695c-0.03516,0.03613 -0.0791,0.05469 -0.12988,0.05469c-0.05175,0 -0.09472,-0.01855 -0.13085,-0.05469zM275.06542,183.83057h0.29395l-0.05176,1.71484h-0.19238z"/></g><path d="M183.4,199.4v-38.8h113.2v38.8z" fill="none" stroke-width="0"/></g></g></svg>