<svg version="1.1" xmlns="http://www.w3.org/2000/svg" xmlns:xlink="http://www.w3.org/1999/xlink" width="66.92222" height="5.74229" viewBox="0,0,66.92222,5.74229"><g transform="translate(-206.53889,-177.12888)"><g data-paper-data="{&quot;isPaintingLayer&quot;:true}" fill="#ffffff" fill-rule="nonzero" stroke="none" stroke-width="1" stroke-linecap="butt" stroke-linejoin="miter" stroke-miterlimit="10" stroke-dasharray="" stroke-dashoffset="0" style="mix-blend-mode: normal"><path d="M210.57974,182.09132v0.68529h-4.04085v-5.55322h3.9227v0.68529h-3.14289v1.70142h2.78843v0.68529h-2.78843v1.79593z"/><path d="M211.87943,177.22339h2.33945c0.59077,0 1.11065,0.11815 1.55963,0.35446c0.44898,0.23631 0.80344,0.56714 1.06339,0.99249c0.25994,0.40172 0.37809,0.87434 0.37809,1.41785c0,0.54351 -0.11815,1.03975 -0.37809,1.44147c-0.25994,0.42536 -0.6144,0.75618 -1.06339,0.99249c-0.44898,0.23631 -0.96886,0.35446 -1.55963,0.35446h-2.33945zM214.17161,182.09132c0.44898,0 0.8507,-0.09452 1.18154,-0.25994c0.33083,-0.16541 0.6144,-0.42536 0.77982,-0.73255c0.18905,-0.3072 0.28357,-0.68529 0.28357,-1.08701c0,-0.40172 -0.07089,-0.80344 -0.25994,-1.11065c-0.18905,-0.3072 -0.44898,-0.56714 -0.77982,-0.73255c-0.33083,-0.16541 -0.73255,-0.25994 -1.18154,-0.25994h-1.51237v4.18264z"/><path d="M218.44877,177.22339h0.80344v5.57685h-0.80344z"/><path d="M222.01701,177.90869h-1.91409v-0.68529h4.608v0.68529h-1.91409v4.86793h-0.77982z"/><path d="M232.88714,182.77662v-4.06449l-2.03224,3.40282h-0.35446l-2.00861,-3.35556v4.04085h-0.75618v-5.57685h0.66166l2.29218,3.89907l2.29218,-3.9227h0.66166v5.57685z"/><path d="M236.3136,182.46941c-0.44898,-0.23631 -0.80344,-0.59077 -1.06339,-1.01612c-0.25994,-0.42536 -0.37809,-0.9216 -0.37809,-1.46511c0,-0.54351 0.11815,-1.01612 0.37809,-1.46511c0.25994,-0.42536 0.6144,-0.77982 1.06339,-1.01612c0.44898,-0.23631 0.96886,-0.37809 1.51237,-0.37809c0.56714,0 1.06339,0.11815 1.51237,0.37809c0.44898,0.23631 0.80344,0.59077 1.06339,1.01612c0.25994,0.44898 0.37809,0.9216 0.37809,1.46511c0,0.54351 -0.11815,1.01612 -0.37809,1.46511c-0.25994,0.42536 -0.6144,0.77982 -1.06339,1.01612c-0.44898,0.23631 -0.94523,0.37809 -1.51237,0.37809c-0.56714,0 -1.06339,-0.11815 -1.51237,-0.37809zM238.93661,181.85502c0.33083,-0.18905 0.59077,-0.44898 0.77982,-0.77982c0.18905,-0.33083 0.28357,-0.68529 0.28357,-1.08701c0,-0.40172 -0.09452,-0.75618 -0.28357,-1.08701c-0.18905,-0.33083 -0.44898,-0.59077 -0.77982,-0.75618c-0.33083,-0.18905 -0.68529,-0.28357 -1.11065,-0.28357c-0.40172,0 -0.77982,0.09452 -1.11065,0.28357c-0.33083,0.18905 -0.59077,0.44898 -0.77982,0.75618c-0.18905,0.33083 -0.28357,0.68529 -0.28357,1.08701c0,0.40172 0.09452,0.75618 0.28357,1.08701c0.18905,0.33083 0.44898,0.59077 0.77982,0.77982c0.33083,0.18905 0.70892,0.28357 1.11065,0.28357c0.42536,0 0.77982,-0.09452 1.11065,-0.28357z"/><path d="M242.00861,177.22339h2.33945c0.59077,0 1.11065,0.09452 1.55963,0.33083c0.44898,0.23631 0.80344,0.56714 1.06339,0.99249c0.25994,0.42536 0.37809,0.89797 0.37809,1.44147c0,0.54351 -0.11815,1.03975 -0.37809,1.44147c-0.25994,0.42536 -0.6144,0.75618 -1.06339,0.99249c-0.44898,0.23631 -0.96886,0.35446 -1.55963,0.35446h-2.33945zM244.30079,182.09132c0.44898,0 0.8507,-0.09452 1.18154,-0.25994c0.35446,-0.16541 0.6144,-0.42536 0.77982,-0.73255c0.18905,-0.3072 0.28357,-0.68529 0.28357,-1.08701c0,-0.40172 -0.07089,-0.80344 -0.25994,-1.11065c-0.18905,-0.3072 -0.44898,-0.56714 -0.77982,-0.73255c-0.33083,-0.16541 -0.73255,-0.25994 -1.18154,-0.25994h-1.51237v4.18264z"/><path d="M248.57795,177.22339h0.80344v5.57685h-0.80344z"/><path d="M251.83899,177.90869v1.93772h2.78843v0.68529h-2.78843v2.24492h-0.80344v-5.55322h3.9227v0.68529z"/><path d="M256.09252,177.22339h0.80344v5.57685h-0.80344z"/><path d="M262.59097,182.09132v0.68529h-4.04085v-5.55322h3.9227v0.68529h-3.14289v1.70142h2.78843v0.68529h-2.78843v1.79593z"/><path d="M267.62432,182.77662l-1.20517,-1.70142c-0.14179,0 -0.25994,0.02363 -0.35446,0.02363h-1.37058v1.70142h-0.80344v-5.57685h2.17403c0.70892,0 1.29969,0.16541 1.70142,0.51988c0.40172,0.35446 0.6144,0.82708 0.6144,1.41785c0,0.42536 -0.11815,0.80344 -0.3072,1.08701c-0.21267,0.3072 -0.51988,0.51988 -0.89797,0.66166l1.32332,1.86683zM267.19896,180.08271c0.25994,-0.21267 0.40172,-0.51988 0.40172,-0.9216c0,-0.40172 -0.14179,-0.70892 -0.40172,-0.9216c-0.25994,-0.21267 -0.63803,-0.33083 -1.15791,-0.33083h-1.34695v2.50486h1.34695c0.49624,0 0.87434,-0.11815 1.15791,-0.33083z"/><path d="M270.08191,182.65846c-0.37809,-0.14179 -0.68529,-0.3072 -0.9216,-0.49624l0.28357,-0.6144c0.21267,0.18905 0.47262,0.35446 0.82708,0.47262c0.33083,0.11815 0.66166,0.18905 1.01612,0.18905c0.47262,0 0.80344,-0.07089 1.03975,-0.23631c0.23631,-0.16541 0.35446,-0.35446 0.35446,-0.6144c0,-0.18905 -0.07089,-0.35446 -0.18905,-0.47262c-0.11815,-0.11815 -0.28357,-0.21267 -0.47262,-0.28357c-0.18905,-0.07089 -0.44898,-0.14179 -0.77982,-0.21267c-0.42536,-0.09452 -0.75618,-0.21267 -1.01612,-0.3072c-0.25994,-0.09452 -0.47262,-0.25994 -0.66166,-0.47262c-0.18905,-0.21267 -0.28357,-0.49624 -0.28357,-0.8507c0,-0.3072 0.07089,-0.56714 0.23631,-0.80344c0.16541,-0.23631 0.40172,-0.42536 0.70892,-0.56714c0.3072,-0.14179 0.70892,-0.21267 1.18154,-0.21267c0.33083,0 0.66166,0.04726 0.96886,0.11815c0.3072,0.09452 0.59077,0.21267 0.82708,0.35446l-0.25994,0.63803c-0.23631,-0.14179 -0.47262,-0.25994 -0.75618,-0.33083c-0.25994,-0.07089 -0.51988,-0.11815 -0.77982,-0.11815c-0.44898,0 -0.77982,0.07089 -1.01612,0.23631c-0.23631,0.16541 -0.33083,0.37809 -0.33083,0.63803c0,0.18905 0.07089,0.35446 0.18905,0.47262c0.11815,0.11815 0.28357,0.21267 0.47262,0.28357c0.18905,0.07089 0.44898,0.14179 0.77982,0.21267c0.42536,0.09452 0.75618,0.21267 1.01612,0.3072c0.25994,0.09452 0.47262,0.25994 0.66166,0.47262c0.18905,0.21267 0.28357,0.49624 0.28357,0.82708c0,0.28357 -0.07089,0.56714 -0.23631,0.80344c-0.16541,0.23631 -0.40172,0.42536 -0.73255,0.56714c-0.33083,0.14179 -0.73255,0.21267 -1.20517,0.21267c-0.40172,-0.02363 -0.80344,-0.09452 -1.20517,-0.21267z"/></g></g></svg>