<svg version="1.1" xmlns="http://www.w3.org/2000/svg" xmlns:xlink="http://www.w3.org/1999/xlink" width="54.75" height="15.5" viewBox="0,0,54.75,15.5"><g transform="translate(-212.625,-172.25)"><g data-paper-data="{&quot;isPaintingLayer&quot;:true}" fill-rule="nonzero" stroke-linecap="butt" stroke-linejoin="miter" stroke-miterlimit="10" stroke-dasharray="" stroke-dashoffset="0" style="mix-blend-mode: normal"><path d="M213.375,173h53.25v14h-53.25z" fill="#ffffff" stroke="#ffffff" stroke-width="1.5"/><path d="M224.64099,178.44228v4.61545h-0.7143l-2.52751,-3.13191v3.13191h-0.82419v-4.61545h0.7143l2.52751,3.13191v-3.13191z" fill="#ffffff" stroke="none" stroke-width="1"/><path d="M229.31138,182.34343v0.7143h-3.46159v-4.61545h3.35169v0.7143h-2.52751v1.20881h2.25278v0.7143h-2.25278v1.26375z" fill="#ffffff" stroke="none" stroke-width="1"/><path d="M233.15759,183.05773l-1.26375,-1.75827l-1.26375,1.75827h-0.98902l1.70332,-2.36267l-1.64837,-2.25278h0.98902l1.15386,1.64837l1.15386,-1.64837h0.93408l-1.59343,2.25278l1.75827,2.36267z" fill="#ffffff" stroke="none" stroke-width="1"/><path d="M235.52026,179.15658h-1.53848v-0.7143h3.90115v0.7143h-1.48354v3.90115h-0.87913z" fill="#ffffff" stroke="none" stroke-width="1"/><path d="M240.41043,178.44228h0.87913v3.90115h2.41762v0.7143h-3.29675z" fill="#ffffff" stroke="none" stroke-width="1"/><path d="M247.77317,182.34343v0.7143h-3.46159v-4.61545h3.35169v0.7143h-2.47256v1.20881h2.25278v0.7143h-2.25278v1.26375z" fill="#ffffff" stroke="none" stroke-width="1"/><path d="M252.88313,178.44228l-2.03299,4.61545h-0.82419l-2.03299,-4.61545h0.93408l1.53848,3.57148l1.53848,-3.57148z" fill="#ffffff" stroke="none" stroke-width="1"/><path d="M256.83923,182.34343v0.7143h-3.46159v-4.61545h3.35169v0.7143h-2.52751v1.20881h2.25278v0.7143h-2.25278v1.26375z" fill="#ffffff" stroke="none" stroke-width="1"/><path d="M257.82825,178.44228h0.87913v3.90115h2.41762v0.7143h-3.29675z" fill="#ffffff" stroke="none" stroke-width="1"/><g fill="#7f7f7f" stroke="none" stroke-width="1"><path d="M222.79168,177.55v4.9h-0.75834l-2.68334,-3.325v3.325h-0.875v-4.9h0.75834l2.68334,3.325v-3.325z"/><path d="M227.75001,181.69167v0.75834h-3.675v-4.9h3.55833v0.75834h-2.68334v1.28334h2.39167v0.75834h-2.39167v1.34166z"/><path d="M231.83335,182.45001l-1.34166,-1.86667l-1.34166,1.86667h-1.05l1.80833,-2.50833l-1.75,-2.39167h1.05l1.225,1.75l1.225,-1.75h0.99167l-1.69167,2.39167l1.86667,2.50833z"/><path d="M234.34168,178.30834h-1.63333v-0.75834h4.14166v0.75834h-1.575v4.14166h-0.93333z"/><path d="M239.53334,177.55h0.93333v4.14166h2.56667v0.75834h-3.5z"/><path d="M247.35001,181.69167v0.75834h-3.675v-4.9h3.55833v0.75834h-2.625v1.28334h2.39167v0.75834h-2.39167v1.34166z"/><path d="M252.77501,177.55l-2.15833,4.9h-0.875l-2.15833,-4.9h0.99167l1.63333,3.79167l1.63333,-3.79167z"/><path d="M256.97501,181.69167v0.75834h-3.675v-4.9h3.55833v0.75834h-2.68334v1.28334h2.39167v0.75834h-2.39167v1.34166z"/><path d="M258.02501,177.55h0.93333v4.14166h2.56667v0.75834h-3.5z"/></g></g></g></svg>