<svg xmlns="http://www.w3.org/2000/svg" xmlns:xlink="http://www.w3.org/1999/xlink" version="1.1" id="Layer_1" x="0px" y="0px" width="32.972007751464844" height="18.929000854492188" viewBox="103.48099517822266 73.02400207519531 32.972007751464844 18.929000854492188" enable-background="new 0 0 240 180" xml:space="preserve">
  <g>
    <g>
      <polygon fill="#FFFFFF" points="125.196,84.844 120,90.039 114.804,84.844 114.097,85.551 120,91.453 125.903,85.551 &#9;" stroke-width="1"/>
    </g>
    <g>
      <path fill="#FFFFFF" d="M105.5,77.881l-0.536,1.263h-0.983l2.471-5.597h0.968l2.446,5.597h-1.007l-0.536-1.263H105.5z&#13;&#10;&#9;&#9; M106.907,74.555l-1.056,2.486h2.111L106.907,74.555z" stroke-width="1"/>
      <path fill="#FFFFFF" d="M115.073,74.387l-0.551,0.688c-0.408-0.439-0.992-0.711-1.559-0.711c-1.12,0-1.999,0.863-1.999,1.967&#13;&#10;&#9;&#9;s0.879,1.975,1.999,1.975c0.56,0,1.135-0.256,1.559-0.664l0.56,0.624c-0.568,0.56-1.375,0.919-2.167,0.919&#13;&#10;&#9;&#9;c-1.639,0-2.91-1.239-2.91-2.847c0-1.591,1.287-2.814,2.942-2.814C113.738,73.523,114.529,73.851,115.073,74.387z" stroke-width="1"/>
      <path fill="#FFFFFF" d="M120.529,74.387l-0.551,0.688c-0.408-0.439-0.992-0.711-1.559-0.711c-1.12,0-1.999,0.863-1.999,1.967&#13;&#10;&#9;&#9;s0.879,1.975,1.999,1.975c0.56,0,1.135-0.256,1.559-0.664l0.56,0.624c-0.568,0.56-1.375,0.919-2.167,0.919&#13;&#10;&#9;&#9;c-1.639,0-2.91-1.239-2.91-2.847c0-1.591,1.287-2.814,2.942-2.814C119.194,73.523,119.985,73.851,120.529,74.387z" stroke-width="1"/>
      <path fill="#FFFFFF" d="M122.443,74.395v1.511h2.734v0.848h-2.734v1.543h3.15v0.848H121.5v-5.597h3.998v0.848H122.443z" stroke-width="1"/>
      <path fill="#FFFFFF" d="M128.979,73.547c1.407,0,2.215,0.696,2.215,1.911c0,1.263-0.808,1.999-2.215,1.999h-1.287v1.687h-0.943&#13;&#10;&#9;&#9;v-5.597H128.979z M127.691,76.609h1.247c0.864,0,1.352-0.368,1.352-1.127c0-0.735-0.487-1.087-1.352-1.087h-1.247V76.609z" stroke-width="1"/>
      <path fill="#FFFFFF" d="M134.178,74.395v4.75h-0.943v-4.75h-1.767v-0.848h4.485v0.848H134.178z" stroke-width="1"/>
    </g>
  </g>
</svg>