<svg xmlns="http://www.w3.org/2000/svg" xmlns:xlink="http://www.w3.org/1999/xlink" version="1.1" width="34.02899932861328" height="7.094000339508057" viewBox="0.1380000114440918 -0.34699998795986176 34.02899932861328 7.094000339508057">
  <!-- Exported by Scratch - http://scratch.mit.edu/ -->
  <g id="ID0.5074647185392678">
    <path id="ID0.9041394460946321" fill="#FFFFFF" d="M 12.473 1.617 L 12.473 2.373 L 13.841 2.373 L 13.841 2.797 L 12.473 2.797 L 12.473 3.568 L 14.048 3.568 L 14.048 3.991 L 12.001 3.991 L 12.001 1.193 L 14 1.193 L 14 1.617 L 12.473 1.617 Z " stroke-width="1"/>
    <path id="ID0.7535739312879741" fill="#FFFFFF" d="M 17.36 2.592 C 17.36 3.392 16.712 4.01 15.877 4.01 C 15.042 4.01 14.394 3.391 14.394 2.592 C 14.394 1.788 15.042 1.181 15.877 1.181 C 16.712 1.181 17.36 1.792 17.36 2.592 Z M 14.873 2.592 C 14.873 3.148 15.332 3.588 15.88 3.588 C 16.428 3.588 16.875 3.148 16.875 2.592 C 16.875 2.036 16.428 1.605 15.88 1.605 C 15.329 1.605 14.873 2.036 14.873 2.592 Z " stroke-width="1"/>
    <path id="ID0.24064165959134698" fill="#FFFFFF" d="M 19.013 1.193 C 19.852 1.193 20.459 1.781 20.459 2.592 C 20.459 3.4 19.848 3.991 19 3.991 L 17.865 3.991 L 17.865 1.193 L 19.013 1.193 Z M 18.338 3.568 L 19.026 3.568 C 19.57 3.568 19.985 3.165 19.985 2.596 C 19.985 2.025 19.557 1.617 19.006 1.617 L 18.339 1.617 L 18.339 3.568 Z " stroke-width="1"/>
    <path id="ID0.7799211735837162" fill="#FFFFFF" d="M 22.757 3.991 L 21.642 1.193 L 22.15 1.193 L 23.013 3.468 L 23.884 1.193 L 24.376 1.193 L 23.245 3.991 L 22.757 3.991 Z " stroke-width="1"/>
    <path id="ID0.1463105659931898" fill="#FFFFFF" d="M 25.23 1.617 L 25.23 2.373 L 26.597 2.373 L 26.597 2.797 L 25.23 2.797 L 25.23 3.568 L 26.804 3.568 L 26.804 3.991 L 24.757 3.991 L 24.757 1.193 L 26.755 1.193 L 26.755 1.617 L 25.23 1.617 Z " stroke-width="1"/>
    <path id="ID0.6703267977572978" fill="#FFFFFF" d="M 29.28 1.461 L 29.085 1.876 C 28.78 1.692 28.476 1.616 28.265 1.616 C 27.99 1.616 27.81 1.72 27.81 1.908 C 27.81 2.52 29.32 2.192 29.316 3.199 C 29.316 3.699 28.877 4.006 28.261 4.006 C 27.822 4.006 27.406 3.827 27.116 3.563 L 27.321 3.155 C 27.608 3.42 27.967 3.563 28.268 3.563 C 28.596 3.563 28.791 3.439 28.791 3.223 C 28.791 2.599 27.279 2.948 27.279 1.952 C 27.279 1.473 27.691 1.173 28.299 1.173 C 28.665 1.173 29.021 1.289 29.28 1.461 Z " stroke-width="1"/>
    <path id="ID0.17247141106054187" fill="#FFFFFF" d="M 30.894 1.617 L 30.894 3.992 L 30.421 3.992 L 30.421 1.617 L 29.538 1.617 L 29.538 1.193 L 31.78 1.193 L 31.78 1.617 L 30.894 1.617 Z " stroke-width="1"/>
    <path id="ID0.5624175602570176" fill="#FFFFFF" d="M 32.964 2.852 L 32.964 3.552 L 32.665 3.552 L 32.665 2.852 L 31.956 2.852 L 31.956 2.536 L 32.665 2.536 L 32.665 1.836 L 32.964 1.836 L 32.964 2.536 L 33.667 2.536 L 33.667 2.851 L 32.964 2.851 Z " stroke-width="1"/>
  </g>
  <g id="ID0.7928190152160823">
    <g id="ID0.5844192011281848">
      <path id="ID0.5809764778241515" fill="#FFFFFF" d="M 8.99 3.051 L 8.097 2.732 L 8.49 1.907 C 8.525 1.848 8.545 1.78 8.545 1.707 C 8.545 1.488 8.369 1.31 8.15 1.31 L 8.149 1.31 C 8.148 1.31 8.147 1.31 8.146 1.31 C 8.136 1.31 8.126 1.31 8.116 1.311 C 8.063 1.315 8.013 1.329 7.968 1.351 L 7.12 1.755 L 6.983 1.368 L 6.983 0.153 L 5.328 0.153 L 5.733 1.372 L 5.043 0.367 L 4.992 0.153 L 0.638 0.153 L 0.638 3.206 L 0.646 3.206 C 0.677 3.886 1.23 4.51 1.863 5.009 L 2.85 4.367 L 4.653 4.188 L 3.199 5.278 L 2.381 5.382 C 3.118 5.867 3.81 6.165 3.81 6.165 C 3.81 6.165 4.655 5.797 5.472 5.217 L 5.737 5.091 L 6.055 5.983 C 6.112 6.142 6.261 6.247 6.428 6.247 C 6.596 6.247 6.746 6.143 6.802 5.983 L 7.12 5.091 L 7.975 5.497 C 8.03 5.522 8.087 5.536 8.145 5.536 C 8.248 5.536 8.349 5.495 8.426 5.42 C 8.545 5.3 8.575 5.121 8.504 4.969 L 8.097 4.114 L 8.99 3.796 C 9.148 3.741 9.254 3.591 9.254 3.423 C 9.254 3.256 9.148 3.106 8.99 3.051 Z M 3.452 1.929 L 4.59 2.622 L 3.253 2.619 L 2.737 2.157 L 3.452 1.929 Z M 1.876 3.627 L 1.019 3.404 L 1.696 3.25 L 3.392 3.569 L 1.876 3.627 Z M 7.55 3.888 L 8.145 5.139 L 6.893 4.545 L 6.428 5.85 L 5.964 4.545 L 4.712 5.139 L 5.308 3.888 L 4 3.424 L 5.307 2.96 L 4.712 1.707 L 5.964 2.302 L 6.428 0.996 L 6.893 2.302 L 8.145 1.707 L 7.55 2.959 L 8.857 3.423 L 7.55 3.888 Z " stroke-width="1"/>
    </g>
  </g>
</svg>