<?xml version="1.0" encoding="iso-8859-1"?>
<!-- Generator: Adobe Illustrator 19.0.0, SVG Export Plug-In . SVG Version: 6.00 Build 0)  -->
<svg version="1.1" id="Layer_1" xmlns="http://www.w3.org/2000/svg" xmlns:xlink="http://www.w3.org/1999/xlink" x="0px" y="0px"
	 viewBox="0 0 120 90" style="enable-background:new 0 0 120 90;" xml:space="preserve">
<g id="XMLID_2_">
	<path id="XMLID_19_" d="M162.539,25.093h-3.059c0.085,0.111,0.17,0.222,0.248,0.332c0.226,0.317,0.296,0.572-0.11,0.833
		c-0.22-0.396-0.432-0.779-0.646-1.164h-19.87l-8.789,8.789v32.227h11.719v-8.789h16.35c-0.036-0.189-0.077-0.404-0.125-0.656
		c0.113,0.023,0.257,0.052,0.454,0.093c-0.046-0.12-0.081-0.211-0.192-0.499c0.429,0.148,0.73,0.251,1.046,0.36
		c-0.12,0.217-0.212,0.385-0.308,0.56c0.117,0.043,0.21,0.078,0.308,0.114c-0.009,0.011-0.015,0.018-0.024,0.029h0.069v8.789h11.719
		V33.882L162.539,25.093z M133.374,44.219c-0.535-0.039-0.605-1.016-1.412-0.68c0.13-0.089,0.278-0.269,0.388-0.249
		c0.264,0.048,0.714-0.125,0.671,0.45c0.242,0,0.448,0,0.694,0C133.571,43.941,133.459,44.099,133.374,44.219z M135.488,43.048
		c-0.067-0.001-0.134-0.002-0.201-0.003c0-0.214,0-0.429,0-0.688c-0.238-0.099-0.238-0.099,0.201-0.834
		C135.488,42.047,135.488,42.547,135.488,43.048z M136.813,41.981c0.239,0.372,0.405,0.63,0.623,0.969
		C136.605,42.744,136.605,42.744,136.813,41.981z M139.701,48.984c-0.249-0.416-0.497-0.832-0.77-1.289
		c0.096-0.024,0.193-0.049,0.2-0.051c-0.083-0.215-0.153-0.395-0.224-0.575c0.064-0.024,0.129-0.048,0.193-0.072
		c0.23,0.646,0.46,1.292,0.69,1.938C139.761,48.952,139.731,48.968,139.701,48.984z M155.477,32.448
		c0.204,0.457,0.199,0.887-0.157,1.182c-0.115,0.095-0.431-0.052-0.736-0.102c0.195-0.113,0.301-0.175,0.412-0.239
		C154.601,32.925,154.638,32.865,155.477,32.448z M151.356,26.491c0.101,0.039,0.42,0.114,0.282-0.237
		c0.088,0.001,0.234-0.029,0.254,0.009c0.149,0.275,0.273,0.563,0.411,0.862c-0.49,0.161-0.848,0.144-0.963-0.255
		c-0.189,0.037-0.333,0.066-0.554,0.11C150.908,26.566,150.993,26.35,151.356,26.491z M150.035,30.091
		c-0.437,0.263-0.462,0.247-0.714-0.617C149.617,29.729,149.806,29.893,150.035,30.091z M156.129,47.134
		c-0.069-0.216-0.137-0.426-0.206-0.639c0.754-0.226,0.754-0.226,0.861-0.012C156.542,46.724,156.337,46.928,156.129,47.134z
		 M159.609,45.601h-17.578v-5.859l2.93-2.93h11.719l2.93,2.93V45.601z M168.9,56.022c0,0-0.013-0.013-0.013-0.013
		c0.005,0,0.01,0,0.014,0c0.025-0.314,0.05-0.629,0.075-0.943c0.025-0.004,0.05-0.007,0.076-0.011
		c0.11,0.303,0.219,0.606,0.345,0.954c-0.193,0-0.345,0-0.495,0c0,0.003,0,0.005-0.001,0.008c0.131,0.073,0.262,0.146,0.42,0.234
		c-0.108,0.186-0.212,0.365-0.318,0.548C168.518,56.303,168.499,56.154,168.9,56.022z M169.512,64.114
		c-0.03-0.249-0.067-0.553-0.104-0.858c-0.06,0.005-0.121,0.01-0.181,0.015c-0.048,0.158-0.097,0.315-0.145,0.473
		c-0.045-0.013-0.09-0.026-0.134-0.04c0.075-0.255,0.151-0.509,0.257-0.868c0.397,0.423,0.725,0.774,1.074,1.145
		C170.01,64.027,169.798,64.064,169.512,64.114z M-15.881,28.901c0.125-0.067,0.244-0.145,0.361-0.227l-3.581-3.581H-42.54
		l-8.789,8.789v32.227h11.719v-8.789h1.565c-0.034-0.113-0.059-0.204-0.048-0.209c0.513-0.209,0.107-0.502,0.067-0.778
		c0.418,0.289,0.362,0.641,0.309,0.987h15.685v5.383c0.239-0.309,0.35-0.701,0.373-1.139c0.021-0.394,0.195-0.573,0.624-0.581
		c-0.268,0.315-0.741,0.535-0.436,1.064c0.068-0.019,0.157-0.044,0.255-0.071c0,0.069,0.014,0.113-0.002,0.138
		c-0.143,0.224-0.327,0.43-0.431,0.671c-0.097,0.224-0.228,0.369-0.383,0.465v2.86h0.774c-0.035-0.133-0.072-0.268-0.071-0.418
		c0.095,0.139,0.19,0.279,0.285,0.418h10.731V33.882l-4.866-4.866C-15.401,29.025-15.638,28.953-15.881,28.901z M-45.064,65.652
		c-0.003,0.024-0.328,0.003-0.558,0.003c0.212-0.339,0.351-0.56,0.581-0.926C-45.041,65.12-45.027,65.389-45.064,65.652z
		 M-45.687,53.732c-0.203,0.029-0.378,0.054-0.619,0.089c0.263-0.203,0.444-0.343,0.638-0.493c0.191,0.281,0.452,0.666,0.722,1.062
		C-45.962,54.897-45.557,54.047-45.687,53.732z M-42.837,57.598c-0.108-0.086-0.215-0.171-0.362-0.288
		c-0.091,0.211-0.16,0.372-0.23,0.532c0.027-0.471-0.252-0.607-0.636-0.611c0.071-0.374,0.138-0.729,0.205-1.085
		c0.051,0.003,0.103,0.006,0.154,0.01c0,0.274,0,0.548,0,0.859c0.185-0.081,0.335-0.147,0.52-0.228
		c0.136,0.249,0.273,0.501,0.411,0.753C-42.796,57.56-42.817,57.579-42.837,57.598z M-34.576,47.159
		c0.29-0.517,0.572-1.02,0.854-1.523C-33.903,46.201-33.896,46.878-34.576,47.159z M-22.032,45.601H-39.61v-5.859l2.93-2.93h11.719
		l2.93,2.93V45.601z M-20.21,63.005c-0.102-0.737-0.166-1.479-0.241-2.22c0.043-0.003,0.086-0.006,0.129-0.01
		c0.188,0.779,0.376,1.557,0.595,2.463C-19.964,63.129-20.199,63.082-20.21,63.005z M-19.737,59.448c-0.12,0.01-0.2,0.04-0.263,0.08
		c0,0.321,0,0.642,0,0.962c0,0.011,0.005,0.021,0.005,0.032c-0.069-0.01-0.005-0.02-0.005-0.029c0-0.001,0-0.002,0-0.002
		c-0.008-0.165-0.068-0.335-0.102-0.491c-0.055-0.245-0.026-0.389,0.102-0.471c0-0.259,0-0.518,0-0.776
		c-0.068-0.023-0.129-0.043-0.201-0.067c0.004,0.017,0.178-0.11,0.151-0.238c-0.051,0.003,0.05,0.007,0.05,0.01
		c0,0.099,0,0.197,0,0.296c0.292,0.098,0.56,0.186,0.812,0.272c0.001,0.087,0.014,0.174,0.015,0.261
		C-19.369,59.341-19.537,59.431-19.737,59.448z M-18.862,32.645c0.432-0.981,0.115-1.915-0.086-2.879
		c0.091,0.12,0.183,0.241,0.273,0.359c0.196-0.009,0.391-0.018,0.586-0.027c0.003,0.049,0.006,0.098,0.009,0.147
		c-0.414,0.106-0.575,0.302-0.451,0.775c0.107,0.409,0.071,0.862,0.053,1.294c-0.005,0.129-0.163,0.252-0.251,0.378
		C-18.773,32.677-18.818,32.661-18.862,32.645z M-18,56.727c0-0.088,0-0.164,0-0.239c-0.122,0.196-0.244,0.393-0.367,0.589
		c-0.072-0.022-0.144-0.045-0.216-0.067c-0.036-0.804-0.103-1.609-0.085-2.412c0.005-0.212,0.275-0.267,0.469-0.539
		C-18.305,54.766-18.386,55-18.467,56C-18.454,56-18,56-18,56s0,0.187,0,0.488c0.009-0.014,0.017-0.028,0.026-0.042
		c-0.029-0.018,0.023-0.036,0.057-0.054C-17.971,56.466-18,56.547-18,56.727z M-18.055,51.465c-0.061-0.108-0.111-0.197-0.174-0.309
		c0.48-0.162,1.102-0.024,1.281-0.717C-16.745,51.447-17.837,50.95-18.055,51.465z M-15.69,65.059
		c-0.047-0.004-0.094-0.007-0.141-0.011c0.072-0.907,0.143-1.814,0.215-2.72c0.047,0.004,0.093,0.007,0.14,0.011
		C-15.547,63.245-15.619,64.152-15.69,65.059z M36.563,45.601V33.882l-8.789-8.789H-4.453v22.582
		c0.174-0.092,0.347-0.185,0.521-0.277c0.036,0.068,0.072,0.136,0.107,0.204c-0.209,0.097-0.419,0.195-0.628,0.292v18.214h2.448
		c0.105-0.045,0.208-0.089,0.329-0.141c0.026,0.056,0.025,0.093,0.039,0.141h8.903V54.39h2.93l1.96,1.96
		c-0.022-0.076-0.042-0.153-0.063-0.229c0.056,0.11,0.112,0.221,0.166,0.331l9.656,9.656h13.898
		c0.023-0.033,0.045-0.065,0.068-0.098c0.054,0.029,0.114,0.061,0.183,0.098h0.128c0.084-0.309,0.165-0.604,0.284-1.04
		c0,0.395,0,0.725,0,1.04h3.018L27.773,54.39L36.563,45.601z M30.303,41.739c0.23,0.646,0.46,1.292,0.69,1.938
		c-0.03,0.016-0.06,0.032-0.09,0.048c-0.249-0.416-0.497-0.832-0.77-1.289c0.096-0.024,0.193-0.049,0.201-0.051
		c-0.083-0.215-0.154-0.395-0.224-0.575C30.174,41.787,30.239,41.763,30.303,41.739z M28.014,36.722
		c0.239,0.372,0.405,0.63,0.623,0.969C27.806,37.485,27.806,37.485,28.014,36.722z M35.924,62.818
		c0.067-0.027,0.262,0.065,0.275,0.129c0.079,0.398,0.126,0.802,0.174,1.205c0.007,0.056-0.041,0.119-0.064,0.177
		c-0.147-0.201-0.279-0.381-0.407-0.556c-0.056-0.219-0.139-0.448-0.163-0.683C35.729,63.001,35.836,62.854,35.924,62.818z
		 M10.416,28.273c0.049-0.35,0.167-0.691,0.255-1.035c0.062,0.019,0.124,0.038,0.186,0.057c-0.031,0.122-0.097,0.246-0.086,0.364
		c0.017,0.194-0.138,0.548,0.341,0.424c0.066-0.017,0.221,0.313,0.287,0.411c-0.323,0.136-0.608,0.17-0.652,0.291
		c-0.118,0.324-0.455,0.115-0.594,0.316c-0.102-0.133-0.205-0.266-0.307-0.398C10.298,28.783,10.371,28.59,10.416,28.273z
		 M10.051,29.645c0,0.539,0,1.078,0,1.617c-0.041,0.001-0.082,0.001-0.123,0.002c-0.055-0.533-0.11-1.067-0.165-1.6
		C9.859,29.658,9.955,29.652,10.051,29.645z M4.094,28.765c-0.786,0.129-0.98-0.013-1.157-0.859
		C3.283,28.162,3.628,28.419,4.094,28.765z M2.497,56.761c0.168,0.284,0.102,0.279,0.075,0.669c-0.031,0.439,0.056,0.89,0.12,1.332
		c0.057,0.39,0.153,0.774,0.231,1.161C2.41,59.12,2.263,57.71,2.497,56.761z M2.974,55.076c-0.213,0.708-0.56,0.766-1.134,0.169
		c-0.129,0.081-0.264,0.163-0.395,0.25c-0.132,0.088-0.259,0.182-0.416,0.294c-0.072-0.087-0.159-0.194-0.277-0.338
		c-0.128,0.078-0.233,0.141-0.308,0.187c-0.158-0.198-0.303-0.381-0.418-0.526c0.256-0.045,0.655-0.094,1.042-0.192
		c0.211-0.053,0.393-0.23,0.604-0.279c0.567-0.131,1.143-0.223,1.714-0.33C3.542,55.051,3.466,55.177,2.974,55.076z M3.985,63.368
		c-0.036-0.642-0.007-1.283-0.007-1.925C3.978,60.787,4,60.131,4,59.47c0,1.292,0,2.583,0,3.875C4,63.353,4.021,63.36,3.985,63.368z
		 M3.997,37.568c-0.024-0.197-0.057-0.393-0.068-0.59c-0.016-0.292-0.304-0.367-0.424-0.567c-0.061-0.102-0.057-0.266-0.025-0.388
		c0.012-0.047,0.197-0.098,0.272-0.068c0.09,0.036,0.19,0.147,0.209,0.241c0.091,0.446,0.155,0.897,0.229,1.347
		C4.125,37.551,4.061,37.56,3.997,37.568z M4.367,57.558c-0.059-0.008-0.118-0.015-0.178-0.023c0.11-0.623,0.219-1.247,0.329-1.87
		c0.041-0.002,0.083-0.004,0.124-0.005C4.55,56.292,4.458,56.925,4.367,57.558z M5.802,42.702c-0.055-0.45-0.109-0.895-0.164-1.341
		C5.849,41.793,6.156,42.233,5.802,42.702z M11,47.593c0-1.041,0-2.082,0-3.123c0,0.136,0.125,0.275,0.158,0.386
		c0.264,0.912,0.138,1.825,0.179,2.735C11.281,47.592,11,47.592,11,47.593z M13.124,53.496c0.528-0.701,0.278-1.466,0.252-2.205
		C13.924,51.636,13.824,52.835,13.124,53.496z M24.844,39.741l-2.93,2.93H11.459c-0.017,0.436,0.444,0.859-0.049,1.346
		c-0.038,0.037-0.059,0.097-0.071,0.168c0-0.505,0-1.009,0-1.514H7.266v-2.51c-0.168,0.045-0.338,0.084-0.504,0.136
		c-0.254,0.08-0.487,0.225-0.739,0.346c-0.025-0.238-0.065-0.613-0.105-0.987c0.05-0.011,0.1-0.022,0.15-0.033
		c0.036,0.448,0.314,0.52,0.662,0.44c0.18-0.041,0.358-0.091,0.536-0.139v-3.112h14.648l1.371,1.371
		c0.094-0.082,0.189-0.165,0.266-0.151c0.264,0.048,0.714-0.125,0.671,0.45c0.242,0,0.448,0,0.694,0
		c-0.143,0.201-0.255,0.359-0.341,0.479c-0.492-0.036-0.598-0.852-1.237-0.725L24.844,39.741z M26.69,37.789
		c-0.067-0.001-0.134-0.002-0.201-0.003c0-0.214,0-0.429,0-0.688c-0.238-0.099-0.238-0.099,0.201-0.834
		C26.69,36.788,26.69,37.289,26.69,37.789z M42.422,66.108h28.727c0.073-0.156,0.146-0.309,0.222-0.47
		c-0.011,0.156-0.022,0.314-0.033,0.47h3.962c-0.036-0.075-0.072-0.149-0.108-0.224c0.245-0.176,0.491-0.352,0.728-0.522
		c0.167,0.114,0.315,0.214,0.577,0.392c-0.41,0.133-0.751,0.244-1.088,0.354h1.46c0.032-0.135,0.063-0.262,0.107-0.381
		c0.036-0.097,0.134-0.17,0.204-0.254c0.027,0.116,0.06,0.23,0.08,0.347c0.016,0.09,0.022,0.187,0.031,0.287h0.286V54.39H69.93
		c0.108,0.091,0.233,0.197,0.365,0.309c-0.028,0.034-0.055,0.068-0.083,0.102c-0.098-0.061-0.196-0.122-0.392-0.245
		c0.062,0.225,0.099,0.36,0.117,0.426c-0.284,0.132-0.525,0.244-0.811,0.377c-0.018-0.338-0.031-0.588-0.044-0.814
		c0.167-0.053,0.322-0.103,0.482-0.154H54.141v-2.93h5.993c-0.399-0.424-0.407-0.573-0.032-0.697c0,0-0.013-0.013-0.013-0.013
		c0.005,0,0.01,0,0.014,0c0.025-0.314,0.05-0.629,0.075-0.943c0.025-0.004,0.05-0.007,0.076-0.011
		c0.11,0.303,0.219,0.606,0.345,0.954c-0.193,0-0.345,0-0.495,0c0,0.003,0,0.005-0.001,0.008c0.131,0.073,0.262,0.146,0.42,0.234
		c-0.092,0.159-0.182,0.313-0.272,0.469h14.51c0.105-0.188,0.212-0.379,0.317-0.565c-0.058,0.183-0.098,0.377-0.147,0.565h2.649
		V39.741H54.141v-2.93h23.438V25.093H42.422V66.108z M74.016,63.485c0.098,0.113,0.206,0.238,0.277,0.32
		c-0.056,0.489-0.11,0.958-0.163,1.427c-0.025-0.004-0.049-0.009-0.074-0.013c-0.083-0.269-0.23-0.538-0.233-0.808
		C73.82,64.103,73.946,63.794,74.016,63.485z M72.165,63.395c0.118,0.329,0.187,0.52,0.28,0.779c0.06-0.163,0.102-0.274,0.143-0.385
		c0.036,0.001,0.071,0.001,0.107,0.002c0.02,0.233,0.041,0.465,0.061,0.699C72.163,64.535,71.97,64.212,72.165,63.395z
		 M71.088,63.172c-0.047,0.01-0.093,0.021-0.14,0.032c-0.086-0.29-0.271-0.823-0.243-0.834c0.513-0.209,0.107-0.502,0.067-0.778
		C71.438,62.052,70.902,62.67,71.088,63.172z M71.277,59.587c-0.144,0.251-0.241,0.421-0.332,0.579
		c-0.243-0.092-0.487-0.184-0.761-0.288C70.529,59.786,70.867,59.696,71.277,59.587z M66.676,56.047
		c0.067,0.082,0.12,0.146,0.187,0.228c0.58-1.106,0.58-1.106,0.892-1.023c-0.66,0.329-0.453,1.041-0.745,1.532
		c-0.133-0.169-0.267-0.34-0.43-0.548C66.59,56.218,66.629,56.141,66.676,56.047z M64.938,61.405
		c0.051,0.003,0.103,0.007,0.154,0.01c0,0.274,0,0.548,0,0.859c0.185-0.081,0.335-0.147,0.52-0.228
		c0.136,0.249,0.274,0.501,0.411,0.753c-0.021,0.019-0.041,0.038-0.062,0.057c-0.108-0.086-0.215-0.171-0.363-0.288
		c-0.091,0.211-0.16,0.372-0.23,0.532c0.027-0.471-0.252-0.607-0.636-0.611C64.804,62.115,64.871,61.76,64.938,61.405z
		 M63.13,58.587c0.191,0.281,0.452,0.666,0.721,1.062c-1.015,0.507-0.61-0.343-0.741-0.658c-0.203,0.029-0.378,0.054-0.619,0.089
		C62.755,58.877,62.936,58.737,63.13,58.587z M60.406,57.577c0.397,0.423,0.725,0.774,1.074,1.145
		c-0.268,0.047-0.48,0.083-0.766,0.133c-0.03-0.249-0.067-0.553-0.104-0.858c-0.06,0.005-0.121,0.01-0.181,0.015
		c-0.048,0.158-0.097,0.315-0.145,0.473c-0.045-0.013-0.09-0.026-0.134-0.04C60.224,58.19,60.299,57.936,60.406,57.577z
		 M65.543,46.116c0.345,0.024,0.85-0.005,0.847,0.405c-0.003,0.353-0.352,0.703-0.582,1.116c-0.368-0.529-0.368-0.529-0.057-1.27
		c-0.097-0.045-0.193-0.09-0.299-0.139C65.502,46.165,65.524,46.115,65.543,46.116z M47.495,65.17
		c-0.079-0.013-0.158-0.026-0.237-0.04c0.096-0.585,0.191-1.17,0.287-1.754c0.08,0.015,0.16,0.03,0.24,0.045
		C47.689,64.004,47.592,64.587,47.495,65.17z M49.72,50.998c0.429,0.148,0.73,0.251,1.046,0.36c-0.12,0.218-0.212,0.385-0.308,0.56
		c0.117,0.043,0.21,0.078,0.308,0.114c-0.139,0.164-0.265,0.313-0.36,0.425c-0.271-0.06-0.523-0.115-0.78-0.172
		c-0.041-0.213-0.1-0.525-0.167-0.881c0.113,0.023,0.257,0.052,0.453,0.093C49.866,51.377,49.831,51.286,49.72,50.998z
		 M48.078,59.587c-0.372-0.355-0.636-0.607-0.887-0.845c0.041-0.072,0.145-0.256,0.258-0.455c0.079,0.195,0.178,0.44,0.296,0.734
		c0.13-0.095,0.233-0.171,0.471-0.345C48.162,59.033,48.126,59.275,48.078,59.587z M47.987,41.224
		c-0.243,0.241-0.448,0.445-0.656,0.651c-0.069-0.216-0.137-0.426-0.206-0.639C47.879,41.01,47.879,41.01,47.987,41.224z
		 M46.678,27.189c0.204,0.457,0.199,0.887-0.157,1.182c-0.115,0.095-0.431-0.052-0.736-0.102c0.195-0.113,0.301-0.175,0.412-0.239
		C45.803,27.667,45.839,27.606,46.678,27.189z M112.734,33.906c0.056,0.041,0.099,0.074,0.158,0.118
		c-0.058,0.01-0.107,0.014-0.158,0.021v7.367c0.006,0.015,0.021,0.029,0.024,0.043c0.091,0.446,0.155,0.897,0.229,1.347
		c-0.064,0.008-0.128,0.017-0.192,0.025c-0.021-0.174-0.047-0.347-0.061-0.522v3.295L98.775,31.641
		c-0.394,0.18-0.752,0.452-1.089,0.803c-0.116-0.24-0.174-0.362-0.306-0.635c0.464-0.081,0.897-0.155,1.332-0.23l-6.487-6.487
		h-8.789v41.016h4.917c-0.002-0.022-0.004-0.043-0.006-0.065c0.043-0.003,0.086-0.006,0.129-0.01
		c0.006,0.024,0.012,0.05,0.018,0.074h6.661V45.601l7.977,7.977c0.577-0.307,1.155-0.614,1.732-0.921
		c0.036,0.068,0.072,0.136,0.107,0.204c-0.582,0.271-1.163,0.541-1.745,0.812l6.528,6.528c0.037-0.008,0.072-0.013,0.109-0.022
		c0.212-0.053,0.393-0.23,0.604-0.279c0.567-0.131,1.143-0.223,1.714-0.33c0.157,0.74,0.082,0.867-0.411,0.765
		c-0.213,0.708-0.56,0.766-1.134,0.169c-0.116,0.073-0.236,0.147-0.354,0.225l5.381,5.381h8.789V25.093h-11.719V33.906z
		 M89.575,64.542c-0.196,0.057-0.414,0.147-0.613,0.164c-0.366,0.031-0.547,0.185-0.465,0.551c0.037,0.167-0.092,0.348-0.092,0.523
		C88.335,65.771,88,65.761,88,65.751c0-0.679,0-1.358,0-2.036c0-0.003,0.299-0.007,0.349-0.01c0.027,0.128,0.252,0.256,0.248,0.238
		c0.381,0.129,0.678,0.234,0.988,0.339C89.586,64.369,89.574,64.456,89.575,64.542z M89.851,35.025
		c0.091,0.12,0.183,0.241,0.273,0.359c0.196-0.009,0.391-0.018,0.586-0.027c0.003,0.049,0.006,0.098,0.009,0.147
		c-0.414,0.106-0.575,0.302-0.451,0.775c0.107,0.409,0.071,0.862,0.053,1.294c-0.005,0.129-0.163,0.252-0.251,0.378
		c-0.045-0.016-0.089-0.032-0.134-0.048C90.368,36.924,90.052,35.989,89.851,35.025z M90.432,62.336
		c-0.072-0.022-0.144-0.045-0.216-0.067c-0.005-0.11-0.011-0.219-0.017-0.329c-0.062,0.015-0.118,0.029-0.199,0.046
		C90,61.542,90,61,90,61s0.075,0,0.152,0c-0.017-0.381-0.03-0.763-0.021-1.144c0.005-0.212,0.275-0.396,0.469-0.669
		C90.494,59.895,90.413,60,90.331,61c0.007,0-0.088,0-0.179,0c0.014,0.313,0.03,0.626,0.047,0.939
		c0.697-0.169,0.236-0.246,0.301-0.321c0.046,0.029,0.278,0.058,0.324,0.086C90.694,61.915,90.563,62.125,90.432,62.336z
		 M90.743,56.724c-0.061-0.108-0.111-0.197-0.174-0.309c0.48-0.162,1.102-0.024,1.281-0.717
		C92.053,56.706,90.961,56.209,90.743,56.724z M95.055,33.398c-0.293,0.131-0.655,0.258-0.818,0.5
		c-0.372,0.551-0.833,0.365-1.32,0.262c0.921-0.496,1.586-1.518,2.859-1.347c-0.008-0.021-0.018-0.06-0.036-0.095
		c-0.015-0.031-0.038-0.057-0.084-0.125c0.465-0.192,0.92-0.379,1.425-0.588c0.114,0.136,0.215,0.256,0.332,0.395
		C96.622,32.733,95.832,33.052,95.055,33.398z M118.849,36.521c-0.041,0.001-0.082,0.001-0.123,0.002
		c-0.055-0.533-0.11-1.067-0.165-1.6c0.096-0.006,0.192-0.013,0.288-0.019C118.849,35.443,118.849,35.982,118.849,36.521z
		 M120.236,52.85c-0.056,0-0.236,0.001-0.236,0.001c0-1.041,0-2.082,0-3.123c0,0.135,0.075,0.275,0.107,0.386
		C120.371,51.027,120.195,51.94,120.236,52.85z M122.174,56.55c0.548,0.346,0.448,1.545-0.252,2.205
		C122.451,58.054,122.201,57.289,122.174,56.55z M121.536,64.327c-0.09,0.347-0.014,0.736-0.096,1.118
		c-0.023-0.597-0.049-1.195-0.068-1.792c-0.005-0.171,0.047-0.352,0.007-0.511c-0.148-0.591-0.323-1.175-0.488-1.762
		C121.36,62.306,121.819,63.231,121.536,64.327z M120.208,49.276c-0.038,0.037-0.059,0.097-0.071,0.168c0-0.552,0-1.103,0-1.654
		c0.047-0.001,0.094-0.003,0.14-0.004C120.12,48.273,120.756,48.735,120.208,49.276z M119.214,33.532
		c0.049-0.35,0.167-0.691,0.255-1.035c0.062,0.019,0.124,0.038,0.186,0.057c-0.031,0.122-0.097,0.246-0.086,0.364
		c0.017,0.194-0.138,0.548,0.341,0.424c0.066-0.017,0.221,0.313,0.287,0.411c-0.323,0.136-0.608,0.17-0.652,0.291
		c-0.118,0.324-0.455,0.115-0.594,0.316c-0.103-0.133-0.205-0.266-0.307-0.398C119.096,34.041,119.17,33.849,119.214,33.532z
		 M118.686,25.841c0.144,0.558,0.138,0.554-0.176,1.089c-0.043,0.073,0.014,0.202,0.015,0.305c0.001,0.084-0.014,0.168-0.144,0.261
		c-0.033-0.43-0.066-0.86-0.092-1.207C118.447,26.111,118.569,25.973,118.686,25.841z M114.867,44.881
		c0.036,0.448,0.314,0.52,0.662,0.44c0.4-0.092,0.793-0.215,1.192-0.31c0.091-0.022,0.196,0.016,0.294,0.026
		c0.006,0.04,0.013,0.081,0.019,0.121c-0.492,0.131-0.989,0.245-1.474,0.398c-0.254,0.08-0.487,0.225-0.739,0.346
		c-0.025-0.238-0.065-0.613-0.105-0.987C114.767,44.903,114.817,44.892,114.867,44.881z M114.601,47.961
		c-0.055-0.45-0.109-0.895-0.164-1.341C114.647,47.051,114.954,47.492,114.601,47.961z M113.316,60.924
		c0.041-0.002,0.083-0.004,0.124-0.005c-0.092,0.633-0.183,1.266-0.275,1.898c-0.059-0.008-0.118-0.015-0.178-0.023
		C113.097,62.171,113.207,61.547,113.316,60.924z"/>
</g>
</svg>
