<svg xmlns="http://www.w3.org/2000/svg" xmlns:xlink="http://www.w3.org/1999/xlink" version="1.1" width="13.135000228881836" height="5.247000217437744" viewBox="0.4320000410079956 0.37599998712539673 13.135000228881836 5.247000217437744">
  <!-- Exported by Scratch - http://scratch.mit.edu/ -->
  <g id="ID0.5659594046883285">
    <path id="ID0.19882168900221586" fill="#FFFFFF" d="M 4.734 1.525 L 4.32 2.041 C 4.014 1.711 3.577 1.507 3.151 1.507 C 2.311 1.507 1.651 2.154 1.651 2.982 C 1.651 3.81 2.311 4.462 3.151 4.462 C 3.57 4.462 4.003 4.271 4.32 3.965 L 4.74 4.433 C 4.314 4.853 3.709 5.122 3.115 5.122 C 1.886 5.122 0.932 4.192 0.932 2.987 C 0.932 1.794 1.897 0.876 3.138 0.876 C 3.732 0.877 4.326 1.124 4.734 1.525 Z " stroke-width="1"/>
    <path id="ID0.5332595626823604" fill="#FFFFFF" d="M 7.135 0.896 C 8.191 0.896 8.796 1.418 8.796 2.329 C 8.796 3.277 8.191 3.829 7.135 3.829 L 6.17 3.829 L 6.17 5.095 L 5.462 5.095 L 5.462 0.896 L 7.135 0.896 Z M 6.17 3.192 L 7.106 3.192 C 7.753 3.192 8.119 2.916 8.119 2.346 C 8.119 1.794 7.754 1.531 7.106 1.531 L 6.17 1.531 L 6.17 3.192 Z " stroke-width="1"/>
    <path id="ID0.5932496497407556" fill="#FFFFFF" d="M 13.067 3.354 C 13.067 4.451 12.378 5.123 11.245 5.123 C 10.111 5.123 9.416 4.451 9.416 3.354 L 9.416 0.896 L 10.123 0.896 L 10.123 3.354 C 10.123 4.062 10.561 4.488 11.251 4.488 C 11.935 4.488 12.36 4.068 12.36 3.354 L 12.36 0.896 L 13.067 0.896 L 13.067 3.354 Z " stroke-width="1"/>
  </g>
</svg>