<svg version="1.1" xmlns="http://www.w3.org/2000/svg" xmlns:xlink="http://www.w3.org/1999/xlink" width="21.332" height="6.262" viewBox="0,0,21.332,6.262"><g transform="translate(-229.335,-176.583)"><g data-paper-data="{&quot;isPaintingLayer&quot;:true}" fill="#000000" fill-rule="nonzero" stroke="none" stroke-width="1" stroke-linecap="butt" stroke-linejoin="miter" stroke-miterlimit="10" stroke-dasharray="" stroke-dashoffset="0" style="mix-blend-mode: normal"><g><path/><path d="M235.827,177.925v1.789l-1.391,1.342h-3.246v1.789h-1.855v-6.262h5.101zM233.972,178.819l-0.463,-0.447h-2.319v0.894h2.319z"/><path d="M243.246,177.925v1.789l-1.391,1.342l1.854,1.789h-2.782l-1.855,-1.789h-0.464v1.789h-1.855v-6.262h5.101zM241.392,178.819l-0.463,-0.447h-2.319v0.894h2.319z"/><path d="M244.174,181.503v-3.578l1.392,-1.342h3.71l1.391,1.342v3.578l-1.391,1.342h-3.71zM246.028,178.819v1.789l0.464,0.448h1.855l0.464,-0.448v-1.789l-0.464,-0.447h-1.855z"/><path/></g></g></g></svg>