<svg version="1.1" xmlns="http://www.w3.org/2000/svg" xmlns:xlink="http://www.w3.org/1999/xlink" width="159.32116" height="19.28895" viewBox="0,0,159.32116,19.28895"><g transform="translate(-160.51204,-176.75292)"><g data-paper-data="{&quot;isPaintingLayer&quot;:true}" fill="#000000" fill-rule="nonzero" stroke="none" stroke-width="1" stroke-linecap="butt" stroke-linejoin="miter" stroke-miterlimit="10" stroke-dasharray="" stroke-dashoffset="0" style="mix-blend-mode: normal"><path d="M220.05347,178.6084v4.63867h-1.85547v-4.63867h-2.31934v-1.85547h6.49414v1.85547z"/><path d="M225.15601,181.39162h3.71094v1.85547h-5.56641v-6.49414h5.56641v1.85547h-3.71094v0.46387h3.71094v1.85547h-3.71094z"/><path d="M229.79469,176.75294h1.85547v4.63867h3.71094v1.85547h-5.56641z"/><path d="M238.14429,181.39162h3.71143v1.85547h-5.56689v-6.49414h5.56689v1.85547h-3.71143v0.46387h3.71143v1.85547h-3.71143z"/><path d="M242.78346,181.85547v-3.71094l1.3916,-1.3916h3.71094l1.3916,1.3916l-0.92773,0.92773h0.92773v4.1748h-5.10254zM244.63892,179.07228v1.85547l0.46387,0.46387h2.31934v-0.46387h-1.85547v-1.85547h1.85547l-0.46387,-0.46387h-1.85547z"/><path d="M250.20533,181.85547v-5.10254h1.85547v4.1748l0.46387,0.46387h1.85547l0.46387,-0.46387v-4.1748h1.85547v5.10254l-1.3916,1.3916h-3.71094z"/><path d="M259.48267,180.00002v3.24707h-1.85547v-6.49414h1.3916l3.24707,3.24707v-3.24707h1.85547v6.49414h-1.3916z"/><text transform="translate(160.60262,193.55001) scale(0.18116,0.19935)" font-size="40" xml:space="preserve" fill="#000000" fill-rule="nonzero" stroke="none" stroke-width="1" stroke-linecap="butt" stroke-linejoin="miter" stroke-miterlimit="10" stroke-dasharray="" stroke-dashoffset="0" font-family="Sans Serif" font-weight="normal" text-anchor="start" style="mix-blend-mode: normal"><tspan x="0" dy="0">Fires bullets that travel through solid surfaces</tspan></text></g></g></svg>