<svg version="1.1" xmlns="http://www.w3.org/2000/svg" xmlns:xlink="http://www.w3.org/1999/xlink" width="111.14991" height="19.28895" viewBox="0,0,111.14991,19.28895"><g transform="translate(-184.34537,-176.75293)"><g data-paper-data="{&quot;isPaintingLayer&quot;:true}" fill="#000000" fill-rule="nonzero" stroke="none" stroke-width="1" stroke-linecap="butt" stroke-linejoin="miter" stroke-miterlimit="10" stroke-dasharray="" stroke-dashoffset="0" style="mix-blend-mode: normal"><path d="M220.98145,179.53613v3.71094h-1.85547v-6.49414h1.85547l1.3916,1.3916l1.3916,-1.3916h1.85547v6.49414h-1.85547v-3.71094l-1.3916,1.3916z"/><path d="M228.40332,183.24707h-1.85547v-6.49414h1.85547z"/><path d="M231.18653,180v3.24707h-1.85547v-6.49414h1.3916l3.24707,3.24707v-3.24707h1.85547v6.49414h-1.3916z"/><path d="M238.6084,183.24707h-1.85547v-6.49414h1.85547z"/><path d="M239.53613,181.85547v-3.71094l1.3916,-1.3916h3.71094l1.3916,1.3916l-0.92773,0.92773h0.92773v4.1748h-5.10254zM241.3916,179.07226v1.85547l0.46387,0.46387h2.31934v-0.46387h-1.85547v-1.85547h1.85547l-0.46387,-0.46387h-1.85547z"/><path d="M246.95801,181.85547v-5.10254h1.85547v4.1748l0.46387,0.46387h1.85547l0.46387,-0.46387v-4.1748h1.85547v5.10254l-1.3916,1.3916h-3.71094z"/><path d="M256.23535,180v3.24707h-1.85547v-6.49414h1.3916l3.24707,3.24707v-3.24707h1.85547v6.49414h-1.3916z"/><text transform="translate(184.43595,193.55) scale(0.18116,0.19935)" font-size="40" xml:space="preserve" fill="#000000" fill-rule="nonzero" stroke="none" stroke-width="1" stroke-linecap="butt" stroke-linejoin="miter" stroke-miterlimit="10" stroke-dasharray="" stroke-dashoffset="0" font-family="Sans Serif" font-weight="normal" text-anchor="start" style="mix-blend-mode: normal"><tspan x="0" dy="0">Rapid Firerate, slows movement</tspan></text></g></g></svg>