<svg version="1.1" xmlns="http://www.w3.org/2000/svg" xmlns:xlink="http://www.w3.org/1999/xlink" width="157.49688" height="14.53887" viewBox="0,0,157.49688,14.53887"><defs><linearGradient x1="240.00156" y1="179.98611" x2="318.74844" y2="179.98611" gradientUnits="userSpaceOnUse" id="color-1"><stop offset="0" stop-color="#000000"/><stop offset="1" stop-color="#000000" stop-opacity="0"/></linearGradient><linearGradient x1="239.99844" y1="180.01389" x2="161.25156" y2="180.01389" gradientUnits="userSpaceOnUse" id="color-2"><stop offset="0" stop-color="#000000"/><stop offset="1" stop-color="#000000" stop-opacity="0"/></linearGradient></defs><g transform="translate(-161.25156,-172.73056)"><g data-paper-data="{&quot;isPaintingLayer&quot;:true}" fill-rule="nonzero" stroke="none" stroke-linecap="butt" stroke-linejoin="miter" stroke-miterlimit="10" stroke-dasharray="" stroke-dashoffset="0" style="mix-blend-mode: normal"><g stroke-width="0"><path d="M240.00156,187.24166v-14.51109h78.74688v14.51109z" fill="url(#color-1)"/><path d="M161.25156,187.26944v-14.51109h78.74688v14.51109z" data-paper-data="{&quot;index&quot;:null}" fill="url(#color-2)"/></g><path d="M225.2,180.7h-1.6v1.5h-1.2v-1.5h-1.6v-1.1h1.6v-1.5h1.2v1.5h1.6z" fill="#ffffff" stroke-width="1"/><path d="M234.8,177v6.3h-1.5v-2.6h-2.9v2.6h-1.3v-6.3h1.5v2.5h2.9v-2.5z" fill="#ffffff" stroke-width="1"/><path d="M240.9,181.3h-3.6c0.1,0.3 0.2,0.5 0.5,0.7c0.2,0.2 0.5,0.3 0.9,0.3c0.3,0 0.5,0 0.7,-0.1c0.2,-0.1 0.4,-0.2 0.5,-0.4l0.7,0.8c-0.5,0.5 -1.1,0.8 -2,0.8c-0.5,0 -1,-0.1 -1.4,-0.3c-0.4,-0.2 -0.7,-0.5 -1,-0.9c-0.2,-0.4 -0.3,-0.8 -0.3,-1.3c0,-0.5 0.1,-0.9 0.3,-1.3c0.2,-0.4 0.5,-0.7 0.9,-0.9c0.4,-0.2 0.8,-0.3 1.3,-0.3c0.5,0 0.9,0.1 1.3,0.3c0.4,0.2 0.7,0.5 0.9,0.9c0.2,0.4 0.3,0.8 0.3,1.3c0,0 0,0.2 0,0.4zM237.6,179.7c-0.2,0.2 -0.3,0.4 -0.4,0.7h2.4c0,-0.3 -0.2,-0.5 -0.4,-0.7c-0.2,-0.2 -0.5,-0.3 -0.8,-0.3c-0.3,0.1 -0.5,0.2 -0.8,0.3z" fill="#ffffff" stroke-width="1"/><path d="M245.4,178.9c0.4,0.4 0.6,0.9 0.6,1.6v2.8h-1.3v-0.6c-0.3,0.4 -0.8,0.7 -1.5,0.7c-0.4,0 -0.7,-0.1 -1,-0.2c-0.3,-0.1 -0.5,-0.3 -0.6,-0.5c-0.1,-0.2 -0.2,-0.5 -0.2,-0.8c0,-0.4 0.2,-0.8 0.5,-1.1c0.3,-0.3 0.9,-0.4 1.6,-0.4h1.1c0,-0.3 -0.1,-0.5 -0.3,-0.7c-0.2,-0.2 -0.5,-0.2 -0.8,-0.2c-0.3,0 -0.5,0 -0.8,0.1c-0.2,0.1 -0.5,0.2 -0.6,0.3l-0.5,-1c0.3,-0.2 0.6,-0.3 0.9,-0.4c0.4,-0.1 0.7,-0.2 1.1,-0.2c0.8,0.1 1.4,0.3 1.8,0.6zM244.2,182.3c0.2,-0.1 0.3,-0.3 0.4,-0.5v-0.5h-1c-0.6,0 -0.9,0.2 -0.9,0.6c0,0.2 0.1,0.3 0.2,0.4c0.1,0.1 0.3,0.2 0.6,0.2c0.3,-0.1 0.5,-0.1 0.7,-0.2z" fill="#ffffff" stroke-width="1"/><path d="M247.3,176.7h1.4v6.7h-1.4z" fill="#ffffff" stroke-width="1"/><path d="M253.4,183.1c-0.1,0.1 -0.3,0.2 -0.5,0.2c-0.2,0.1 -0.4,0.1 -0.6,0.1c-0.6,0 -1,-0.1 -1.3,-0.4c-0.3,-0.3 -0.5,-0.7 -0.5,-1.3v-2h-0.7v-1.1h0.7v-1.2h1.4v1.2h1.2v1.1h-1.2v2c0,0.2 0.1,0.4 0.2,0.5c0.1,0.1 0.3,0.2 0.4,0.2c0.2,0 0.4,-0.1 0.6,-0.2z" fill="#ffffff" stroke-width="1"/><path d="M258.6,179c0.4,0.4 0.6,0.9 0.6,1.6v2.8h-1.4v-2.6c0,-0.4 -0.1,-0.7 -0.3,-0.9c-0.2,-0.2 -0.4,-0.3 -0.7,-0.3c-0.4,0 -0.6,0.1 -0.8,0.3c-0.2,0.2 -0.3,0.5 -0.3,1v2.4h-1.4v-6.7h1.4v2.3c0.2,-0.2 0.4,-0.3 0.7,-0.4c0.3,-0.1 0.5,-0.1 0.9,-0.1c0.5,0 0.9,0.2 1.3,0.6z" fill="#ffffff" stroke-width="1"/></g></g></svg>