<?xml version="1.0" encoding="utf-8"?><!-- Generator: Adobe Illustrator 16.0.0, SVG Export Plug-In . SVG Version: 6.00 Build 0)  --><!DOCTYPE svg PUBLIC "-//W3C//DTD SVG 1.1//EN" "http://www.w3.org/Graphics/SVG/1.1/DTD/svg11.dtd"><svg xmlns="http://www.w3.org/2000/svg" xmlns:xlink="http://www.w3.org/1999/xlink" version="1.1" id="Layer_1" x="0px" y="0px" width="91.19902038574219" height="9.504000663757324" viewBox="-29.326000213623047 6.439998626708984 91.19902038574219 9.504000663757324" enable-background="new 0 0 32 24" xml:space="preserve">
<g>
	<path fill="#FFFFFF" d="M-25.48,7c2.111,0,3.322,1.043,3.322,2.867c0,1.895-1.211,2.998-3.322,2.998h-1.931v2.531h-1.415V7H-25.48z    M-27.411,11.594h1.871c1.295,0,2.027-0.552,2.027-1.691c0-1.103-0.731-1.631-2.027-1.631h-1.871V11.594z" stroke-width="1"/>
	<path fill="#FFFFFF" d="M-15.701,14.112v1.283h-5.049V7h1.415v7.112H-15.701z" stroke-width="1"/>
	<path fill="#FFFFFF" d="M-13.083,13.5l-0.803,1.896h-1.475L-11.656,7h1.451l3.67,8.396h-1.511L-8.85,13.5H-13.083z M-10.973,8.511   l-1.583,3.73h3.167L-10.973,8.511z" stroke-width="1"/>
	<path fill="#FFFFFF" d="M-2.561,15.396h-1.403v-2.747L-7.094,7h1.427l2.399,4.09L-0.917,7h1.439l-3.083,5.601V15.396z" stroke-width="1"/>
	<path fill="#FFFFFF" d="M3.057,8.271v2.267h4.102v1.271H3.057v2.314h4.726v1.271H1.642V7h5.997v1.271H3.057z" stroke-width="1"/>
	<path fill="#FFFFFF" d="M13.303,12.853c-0.12,0.012-0.251,0.012-0.384,0.012h-1.991v2.531H9.513V7h3.406   c2.147,0,3.382,1.043,3.382,2.867c0,1.343-0.624,2.291-1.739,2.722l1.883,2.807h-1.607L13.303,12.853z M12.919,11.594   c1.295,0,2.039-0.552,2.039-1.691c0-1.103-0.744-1.631-2.039-1.631h-1.991v3.322H12.919z" stroke-width="1"/>
	<path fill="#FFFFFF" d="M26.311,9.051c0,0.852-0.648,1.799-1.535,2.759l-2.184,2.314h4.102v1.271h-5.973v-1.031l3.095-3.322   c0.612-0.624,1.02-1.308,1.02-1.787c0-0.672-0.527-1.08-1.403-1.08c-0.731,0-1.583,0.408-2.291,1.056L20.578,8.14   c0.91-0.744,1.979-1.2,3.058-1.2C25.219,6.94,26.311,7.768,26.311,9.051z" stroke-width="1"/>
	<path fill="#FFFFFF" d="M34.28,11.689l-1.428,1.571v2.135h-1.415V7h1.415v4.342L36.858,7h1.667l-3.25,3.586l3.466,4.81h-1.703   L34.28,11.689z" stroke-width="1"/>
	<path fill="#FFFFFF" d="M41.468,8.271v2.267h4.102v1.271h-4.102v2.314h4.726v1.271h-6.141V7h5.997v1.271H41.468z" stroke-width="1"/>
	<path fill="#FFFFFF" d="M51.367,15.396h-1.403v-2.747L46.833,7h1.428l2.398,4.09L53.01,7h1.439l-3.082,5.601V15.396z" stroke-width="1"/>
	<path fill="#FFFFFF" d="M61.265,7.804l-0.587,1.247c-0.912-0.551-1.823-0.779-2.459-0.779c-0.827,0-1.367,0.312-1.367,0.875   c0,1.835,4.533,0.852,4.521,3.875c0,1.498-1.319,2.422-3.166,2.422c-1.319,0-2.566-0.539-3.431-1.331l0.612-1.224   c0.863,0.792,1.942,1.224,2.842,1.224c0.983,0,1.571-0.372,1.571-1.02c0-1.871-4.533-0.828-4.533-3.814   c0-1.439,1.235-2.339,3.059-2.339C59.418,6.94,60.485,7.288,61.265,7.804z" stroke-width="1"/>
</g>
</svg>