<svg version="1.1" xmlns="http://www.w3.org/2000/svg" xmlns:xlink="http://www.w3.org/1999/xlink" width="253.99652" height="41.1484" viewBox="0,0,253.99652,41.1484"><g transform="translate(-108.47309,-158.74279)"><g data-paper-data="{&quot;isPaintingLayer&quot;:true}" fill-rule="nonzero" stroke="none" stroke-width="1" stroke-linecap="butt" stroke-linejoin="miter" stroke-miterlimit="10" stroke-dasharray="" stroke-dashoffset="0" style="mix-blend-mode: normal"><g fill="#000000"><path d="M150.7209,170.36736l-1.86935,10.73493l-9.35342,8.05175h-18.55606l-1.86935,10.73715h-10.59964l6.54163,-37.57112h29.15569zM139.18323,175.73812l-2.18203,-2.68318h-13.25625l-0.93358,5.36413h13.25625z"/><path d="M165.37414,162.32002h21.20376l6.55049,8.0473l-5.14019,29.52383h-10.60408l1.40144,-8.05398h-15.9039l-1.40145,8.05398h-10.59963l5.14019,-29.52383zM179.40874,173.05494h-10.60409l-3.11779,2.68318l-0.93577,5.36413h15.90391l0.93577,-5.36413z"/><path d="M194.69396,191.83721l5.14019,-29.51715h10.59964l-4.2066,24.1508l2.18648,2.68318h10.60408l3.11339,-2.68318l4.2066,-24.1508h10.60408l-5.14019,29.51715l-9.35342,8.05398h-21.20377z"/><path d="M240.84015,170.36736l9.35341,-8.0473h29.15793l-1.87158,10.73492h-23.85588l-1.5589,1.34159l1.09321,1.34159h15.90391l6.55049,8.05175l-1.4014,8.0473l-9.35787,8.05398h-29.15347l1.86935,-10.73715h23.85588l1.55667,-1.33936l-1.09099,-1.34382h-15.90391l-6.54826,-8.05175z"/><path d="M290.58093,189.15404h21.20377l-1.87158,10.73715h-31.8034l6.54609,-37.57112h31.8034l-1.87158,10.73492h-21.20376l-0.46568,2.68318h21.20377l-1.87157,10.7327h-21.20377z"/><path d="M321.76343,162.32002h29.1557l6.55048,8.0473l-3.7387,21.4699l-9.35787,8.05398h-29.15569zM330.49149,173.05494l-2.80293,16.09905h13.25624l3.11338,-2.68318l1.87158,-10.7327l-2.18203,-2.68318z"/></g><g fill="#ff096b"><path d="M154.67866,167.19441l-1.86935,10.73493l-9.35342,8.05175h-18.55606l-1.86935,10.73715h-10.59963l6.54163,-37.57112h29.15569zM143.14099,172.56517l-2.18203,-2.68318h-13.25625l-0.93358,5.36413h13.25625z"/><path d="M169.3319,159.14707h21.20377l6.55049,8.0473l-5.14019,29.52383h-10.60408l1.40144,-8.05398h-15.90391l-1.40144,8.05398h-10.59963l5.14019,-29.52383zM183.3665,169.88199h-10.60409l-3.11779,2.68318l-0.93577,5.36413h15.90391l0.93577,-5.36413z"/><path d="M198.65172,188.66426l5.14019,-29.51715h10.59964l-4.2066,24.1508l2.18648,2.68318h10.60408l3.11338,-2.68318l4.20661,-24.1508h10.60408l-5.14019,29.51715l-9.35342,8.05398h-21.20377z"/><path d="M244.79791,167.19441l9.35342,-8.0473h29.15793l-1.87158,10.73492h-23.85588l-1.5589,1.34159l1.09321,1.34159h15.90391l6.55049,8.05175l-1.4014,8.0473l-9.35787,8.05398h-29.15348l1.86935,-10.73715h23.85588l1.55667,-1.33936l-1.09099,-1.34382h-15.90391l-6.54826,-8.05175z"/><path d="M294.53869,185.98109h21.20377l-1.87158,10.73715h-31.8034l6.54608,-37.57112h31.80341l-1.87158,10.73492h-21.20376l-0.46568,2.68318h21.20376l-1.87157,10.7327h-21.20377z"/><path d="M325.72119,159.14707h29.1557l6.55048,8.0473l-3.7387,21.4699l-9.35787,8.05398h-29.15569zM334.44925,169.88199l-2.80294,16.09905h13.25625l3.11338,-2.68318l1.87158,-10.7327l-2.18203,-2.68318z"/></g><g fill="#00b5ff"><path d="M155.7209,166.83074l-1.86935,10.73493l-9.35342,8.05175h-18.55606l-1.86935,10.73715h-10.59963l6.54163,-37.57112h29.15569zM144.18323,172.20149l-2.18203,-2.68318h-13.25625l-0.93358,5.36413h13.25625z"/><path d="M170.37414,158.78339h21.20377l6.55049,8.0473l-5.14019,29.52383h-10.60408l1.40144,-8.05398h-15.90391l-1.40144,8.05398h-10.59963l5.14019,-29.52383zM184.40874,169.51832h-10.60409l-3.11779,2.68318l-0.93577,5.36413h15.90391l0.93577,-5.36413z"/><path d="M199.69396,188.30059l5.14019,-29.51715h10.59964l-4.2066,24.1508l2.18648,2.68318h10.60408l3.11338,-2.68318l4.20661,-24.1508h10.60408l-5.14019,29.51715l-9.35342,8.05398h-21.20377z"/><path d="M245.84015,166.83074l9.35342,-8.0473h29.15792l-1.87158,10.73492h-23.85588l-1.5589,1.34159l1.09321,1.34159h15.90391l6.55049,8.05175l-1.4014,8.0473l-9.35787,8.05398h-29.15347l1.86935,-10.73715h23.85588l1.55667,-1.33936l-1.09099,-1.34382h-15.90391l-6.54826,-8.05175z"/><path d="M295.58093,185.61741h21.20377l-1.87158,10.73715h-31.8034l6.54608,-37.57112h31.80341l-1.87158,10.73492h-21.20376l-0.46568,2.68318h21.20377l-1.87157,10.7327h-21.20377z"/><path d="M326.76343,158.78339h29.1557l6.55048,8.0473l-3.7387,21.4699l-9.35787,8.05398h-29.15569zM335.49149,169.51832l-2.80293,16.09905h13.25624l3.11338,-2.68318l1.87158,-10.7327l-2.18203,-2.68318z"/></g><g fill="#ffffff"><path d="M155.20604,166.79013l-1.86935,10.73493l-9.35342,8.05175h-18.55606l-1.86935,10.73715h-10.59964l6.54163,-37.57113h29.1557zM143.66837,172.16089l-2.18203,-2.68317h-13.25624l-0.93358,5.36412h13.25624z"/><path d="M169.85928,158.74279h21.20377l6.55049,8.0473l-5.14019,29.52383h-10.60409l1.40144,-8.05398h-15.9039l-1.40144,8.05398h-10.59964l5.14019,-29.52383zM183.89388,169.47772h-10.60409l-3.11779,2.68317l-0.93576,5.36412h15.9039l0.93576,-5.36412z"/><path d="M199.1791,188.25999l5.14019,-29.51715h10.59964l-4.2066,24.1508l2.18648,2.68317h10.60409l3.11339,-2.68317l4.2066,-24.1508h10.60409l-5.14019,29.51715l-9.35342,8.05398h-21.20377z"/><path d="M245.32529,166.79013l9.35342,-8.0473h29.15792l-1.87157,10.73493h-23.85588l-1.5589,1.34159l1.09322,1.34159h15.9039l6.55049,8.05175l-1.4014,8.0473l-9.35787,8.05398h-29.15347l1.86935,-10.73715h23.85588l1.55667,-1.33936l-1.09099,-1.34381h-15.9039l-6.54826,-8.05175z"/><path d="M295.06607,185.57681h21.20377l-1.87157,10.73715h-31.8034l6.54608,-37.57113h31.8034l-1.87157,10.73493h-21.20377l-0.46568,2.68317h21.20377l-1.87157,10.7327h-21.20377z"/><path d="M326.24857,158.74279h29.1557l6.55049,8.0473l-3.7387,21.4699l-9.35787,8.05398h-29.1557zM334.97663,169.47772l-2.80293,16.09905h13.25624l3.11339,-2.68317l1.87157,-10.7327l-2.18203,-2.68317z"/></g></g></g></svg>