<svg version="1.1" xmlns="http://www.w3.org/2000/svg" xmlns:xlink="http://www.w3.org/1999/xlink" width="180.91205" height="20.13184" viewBox="0,0,180.91205,20.13184"><g transform="translate(-150.39395,-169.97784)"><g data-paper-data="{&quot;isPaintingLayer&quot;:true}" fill-rule="nonzero" stroke="none" stroke-width="1" stroke-linecap="butt" stroke-linejoin="miter" stroke-miterlimit="10" stroke-dasharray="" stroke-dashoffset="0" style="mix-blend-mode: normal"><path d="M151.88761,185.44191v-11.2466l4.21747,-4.21747h11.2466l4.21747,4.21747l-2.81165,2.81165h2.81165v12.65242h-15.46407zM157.51091,177.00696v5.6233l1.40582,1.40582h7.02912v-1.40582h-5.6233v-5.6233h5.6233l-1.40582,-1.40582h-5.6233z" fill="#30bbff"/><path d="M177.89537,169.97784h11.2466l4.21747,4.21747v15.46407h-5.6233v-4.21747h-8.43495v4.21747h-5.6233v-15.46407zM186.33032,175.60114h-5.6233l-1.40582,1.40582v2.81165h8.43495v-2.81165z" fill="#30bbff"/><path d="M201.79439,178.7862v11.2466h-5.6233v-19.68155h5.6233l4.21747,4.21747l4.21747,-4.21747h5.6233v19.68155h-5.6233v-11.2466l-4.21747,4.21747z" fill="#30bbff"/><path d="M224.28759,184.4095h11.2466v5.6233h-16.8699v-19.68155h16.8699v5.6233h-11.2466v1.40582h11.2466v5.6233h-11.2466z" fill="#30bbff"/><path d="M245.55069,185.81533v-11.2466l4.21747,-4.21747h11.2466l4.21747,4.21747v11.2466l-4.21747,4.21747h-11.2466zM251.17399,177.38038v5.6233l1.40582,1.40582h5.6233l1.40582,-1.40582v-5.6233l-1.40582,-1.40582h-5.6233z" fill="#30bbff"/><path d="M282.10214,178.7862v-8.43495h5.6233v11.2466l-8.43495,8.43495h-2.81165l-8.43495,-8.43495v-11.2466h5.6233v8.43495l4.21747,4.21747z" fill="#30bbff"/><path d="M296.16038,184.4095h11.2466v5.6233h-16.8699v-19.68155h16.8699v5.6233h-11.2466v1.40582h11.2466v5.6233h-11.2466z" fill="#30bbff"/><path d="M329.90018,174.56873v5.6233l-4.21747,4.21747l5.6233,5.6233h-8.43495l-5.6233,-5.6233h-1.40582v5.6233h-5.6233v-19.68155h15.46407zM324.27688,177.38038l-1.40582,-1.40582h-7.02912v2.81165h7.02912z" fill="#30bbff"/><g fill="#ff2591"><path d="M150.39395,185.62861v-11.2466l4.21747,-4.21747h11.2466l4.21747,4.21747l-2.81165,2.81165h2.81165v12.65242h-15.46407zM156.01725,177.19367v5.6233l1.40582,1.40582h7.02912v-1.40582h-5.6233v-5.6233h5.6233l-1.40582,-1.40582h-5.6233z"/><path d="M176.40171,170.16454h11.2466l4.21747,4.21747v15.46407h-5.6233v-4.21747h-8.43495v4.21747h-5.6233v-15.46407zM184.83666,175.78784h-5.6233l-1.40582,1.40582v2.81165h8.43495v-2.81165z"/><path d="M200.30074,178.59949v11.2466h-5.6233v-19.68155h5.6233l4.21747,4.21747l4.21747,-4.21747h5.6233v19.68155h-5.6233v-11.2466l-4.21747,4.21747z"/><path d="M222.79393,184.22279h11.2466v5.6233h-16.8699v-19.68155h16.8699v5.6233h-11.2466v1.40582h11.2466v5.6233h-11.2466z"/><path d="M244.05704,185.62861v-11.2466l4.21747,-4.21747h11.2466l4.21747,4.21747v11.2466l-4.21747,4.21747h-11.2466zM249.68034,177.19367v5.6233l1.40582,1.40582h5.6233l1.40582,-1.40582v-5.6233l-1.40582,-1.40582h-5.6233z"/><path d="M280.60848,178.59949v-8.43495h5.6233v11.2466l-8.43495,8.43495h-2.81165l-8.43495,-8.43495v-11.2466h5.6233v8.43495l4.21747,4.21747z"/><path d="M294.66673,184.22279h11.2466v5.6233h-16.8699v-19.68155h16.8699v5.6233h-11.2466v1.40582h11.2466v5.6233h-11.2466z"/><path d="M328.40653,174.38202v5.6233l-4.21747,4.21747l5.6233,5.6233h-8.43495l-5.6233,-5.6233h-1.40582v5.6233h-5.6233v-19.68155h15.46407zM322.78323,177.19367l-1.40582,-1.40582h-7.02912v2.81165h7.02912z"/></g><path d="M151.09687,185.51879v-11.2466l4.21747,-4.21747h11.2466l4.21747,4.21747l-2.81165,2.81165h2.81165v12.65242h-15.46407zM156.72017,177.08384v5.6233l1.40582,1.40582h7.02912v-1.40582h-5.6233v-5.6233h5.6233l-1.40582,-1.40582h-5.6233z" fill="#ffffff"/><path d="M177.10463,170.05472h11.2466l4.21747,4.21747v15.46407h-5.6233v-4.21747h-8.43495v4.21747h-5.6233v-15.46407zM185.53958,175.67802h-5.6233l-1.40582,1.40582v2.81165h8.43495v-2.81165z" fill="#ffffff"/><path d="M201.00365,178.86308v11.2466h-5.6233v-19.68155h5.6233l4.21747,4.21747l4.21747,-4.21747h5.6233v19.68155h-5.6233v-11.2466l-4.21747,4.21747z" fill="#ffffff"/><path d="M223.49685,184.48638h11.2466v5.6233h-16.8699v-19.68155h16.8699v5.6233h-11.2466v1.40582h11.2466v5.6233h-11.2466z" fill="#ffffff"/><path d="M244.75995,185.89221v-11.2466l4.21747,-4.21747h11.2466l4.21747,4.21747v11.2466l-4.21747,4.21747h-11.2466zM250.38325,177.45726v5.6233l1.40582,1.40582h5.6233l1.40582,-1.40582v-5.6233l-1.40582,-1.40582h-5.6233z" fill="#ffffff"/><path d="M281.31139,178.86308v-8.43495h5.6233v11.2466l-8.43495,8.43495h-2.81165l-8.43495,-8.43495v-11.2466h5.6233v8.43495l4.21747,4.21747z" fill="#ffffff"/><path d="M295.36964,184.48638h11.2466v5.6233h-16.8699v-19.68155h16.8699v5.6233h-11.2466v1.40582h11.2466v5.6233h-11.2466z" fill="#ffffff"/><path d="M329.10944,174.64561v5.6233l-4.21747,4.21747l5.6233,5.6233h-8.43495l-5.6233,-5.6233h-1.40582v5.6233h-5.6233v-19.68155h15.46407zM323.48614,177.45726l-1.40582,-1.40582h-7.02912v2.81165h7.02912z" fill="#ffffff"/></g></g></svg>