<svg xmlns="http://www.w3.org/2000/svg" xmlns:xlink="http://www.w3.org/1999/xlink" version="1.1" width="22.849998474121094" height="5.22599983215332" viewBox="-0.42499998956918716 0.38700002431869507 22.849998474121094 5.22599983215332">
  <!-- Exported by Scratch - http://scratch.mit.edu/ -->
  <g id="ID0.7726500136777759">
    <path id="ID0.013020758517086506" fill="#FFFFFF" d="M 2.107 1.522 L 2.107 5.084 L 1.4 5.084 L 1.4 1.522 L 0.075 1.522 L 0.075 0.887 L 3.438 0.887 L 3.438 1.523 L 2.107 1.523 Z " stroke-width="1"/>
    <path id="ID0.29911578772589564" fill="#FFFFFF" d="M 4.754 1.522 L 4.754 2.655 L 6.805 2.655 L 6.805 3.291 L 4.754 3.291 L 4.754 4.448 L 7.117 4.448 L 7.117 5.084 L 4.047 5.084 L 4.047 0.887 L 7.045 0.887 L 7.045 1.523 L 4.754 1.523 Z " stroke-width="1"/>
    <path id="ID0.54210010683164" fill="#FFFFFF" d="M 8.576 4.137 L 8.175 5.084 L 7.437 5.084 L 9.291 0.887 L 10.017 0.887 L 11.852 5.084 L 11.096 5.084 L 10.695 4.137 L 8.576 4.137 Z M 9.632 1.643 L 8.84 3.507 L 10.423 3.507 L 9.632 1.643 Z " stroke-width="1"/>
    <path id="ID0.4857314876280725" fill="#FFFFFF" d="M 16.194 5.084 L 16.188 1.948 L 14.862 4.646 L 14.401 4.646 L 13.076 1.948 L 13.076 5.084 L 12.41 5.084 L 12.41 0.887 L 13.25 0.887 L 14.635 3.675 L 16.014 0.887 L 16.848 0.887 L 16.848 5.084 L 16.194 5.084 Z " stroke-width="1"/>
    <path id="ID0.22300457442179322" fill="#FFFFFF" d="M 20.743 2.655 C 21.444 2.716 21.925 3.123 21.925 3.783 C 21.925 4.568 21.331 5.113 20.396 5.113 C 19.88 5.113 19.34 4.933 18.981 4.658 L 19.274 4.083 C 19.574 4.364 19.964 4.521 20.348 4.521 C 20.906 4.521 21.229 4.233 21.229 3.801 C 21.229 3.345 20.9 3.112 20.341 3.112 L 19.76 3.112 L 19.76 2.697 L 20.851 1.522 L 19.172 1.522 L 19.172 0.892 L 21.727 0.892 L 21.727 1.335 L 20.528 2.631 L 20.743 2.655 Z " stroke-width="1"/>
  </g>
</svg>