<svg version="1.1" xmlns="http://www.w3.org/2000/svg" xmlns:xlink="http://www.w3.org/1999/xlink" width="210.14297" height="18.98674" viewBox="0,0,210.14297,18.98674"><g transform="translate(-134.92851,-170.50662)"><g data-paper-data="{&quot;isPaintingLayer&quot;:true}" fill="#ffffff" fill-rule="nonzero" stroke="none" stroke-width="1" stroke-linecap="butt" stroke-linejoin="miter" stroke-miterlimit="10" stroke-dasharray="" stroke-dashoffset="0" style="mix-blend-mode: normal"><g><path d="M134.92851,170.59253h5.32661v13.40243h10.82502v5.32661h-16.15163z"/><path d="M159.07003,183.99495h10.73912v5.32661h-16.06569v-18.81494h16.06569v5.32661h-10.73912v1.3746h10.73912v5.32661h-10.73912z"/><path d="M185.96078,178.66835v-8.07582h5.32661v10.73912l-8.07582,8.07582h-2.66331l-8.07582,-8.07582v-10.73912h5.32661v8.07582l4.03791,4.03791z"/><path d="M199.36319,183.99495h10.73912v5.32661h-16.06569v-18.81494h16.06569v5.32661h-10.73912v1.3746h10.73912v5.32661h-10.73912z"/><path d="M212.76562,170.59253h5.32661v13.40243h10.73912v5.32661h-16.06569z"/><path d="M253.14467,170.59253l4.03791,4.03791l-4.03791,4.03791l-2.66331,-2.66331h-5.32661l-1.3746,1.3746v5.32661l1.3746,1.3746h5.32661l2.66331,-2.66331l4.03791,4.03791l-4.03791,4.03791h-10.73912l-4.03791,-4.03791v-10.73912l4.03791,-4.03791h10.73912z"/><path d="M259.84588,170.59253h5.32661v13.40243h10.73912v5.32661h-16.06569z"/><path d="M283.98742,183.99495h10.73912v5.32661h-16.06569v-18.81494h16.06569v5.32661h-10.73912v1.3746h10.73912v5.32661h-10.73912z"/><path d="M300.74043,170.59253h10.73912l4.03791,4.03791v14.77703h-5.32661v-4.03791h-8.07582v4.03791h-5.32661v-14.77703zM308.81625,176.00506h-5.32661l-1.3746,1.3746v2.66331h8.07582v-2.66331z"/><path d="M336.99568,174.63044v5.32661l-4.03791,4.03791l5.32661,5.32661h-8.07582l-5.32661,-5.32661h-1.3746v5.32661h-5.32661v-18.81494h14.77703zM331.66906,177.29374l-1.3746,-1.3746h-6.70121v2.66331h6.70121z"/><path d="M345.07149,182.70626h-5.32661v-12.11373h5.32661zM345.07149,189.40746h-5.32661v-5.32661h5.32661z"/></g></g></g></svg>