<svg version="1.1" xmlns="http://www.w3.org/2000/svg" xmlns:xlink="http://www.w3.org/1999/xlink" width="442.70625" height="56.75257" viewBox="0,0,442.70625,56.75257"><defs><linearGradient x1="240.00314" y1="181.18667" x2="461.35606" y2="181.18667" gradientUnits="userSpaceOnUse" id="color-1"><stop offset="0" stop-color="#000000" stop-opacity="0.54839"/><stop offset="1" stop-color="#000000" stop-opacity="0"/></linearGradient><linearGradient x1="240.00273" y1="181.19574" x2="18.6498" y2="181.19574" gradientUnits="userSpaceOnUse" id="color-2"><stop offset="0" stop-color="#000000" stop-opacity="0.54839"/><stop offset="1" stop-color="#000000" stop-opacity="0"/></linearGradient></defs><g transform="translate(-18.64981,-152.81493)"><g data-paper-data="{&quot;isPaintingLayer&quot;:true}" fill-rule="nonzero" stroke="none" stroke-linecap="butt" stroke-linejoin="miter" stroke-miterlimit="10" stroke-dasharray="" stroke-dashoffset="0" style="mix-blend-mode: normal"><g stroke-width="0"><path d="M461.35606,152.81493v56.74349h-221.35292v-56.74349z" data-paper-data="{&quot;index&quot;:null}" fill="url(#color-1)"/><path d="M240.00273,152.82401v56.74349h-221.35292v-56.74349z" data-paper-data="{&quot;index&quot;:null}" fill="url(#color-2)"/></g><path d="M139.59996,186.18752v-12.8l4.8,-4.8h12.8l4.8,4.8l-3.2,3.2h3.2v14.4h-17.6zM145.99996,176.58752v6.4l1.6,1.6h8v-1.6h-6.4v-6.4h6.4l-1.6,-1.6h-6.4z" fill="#30bbff" stroke-width="1"/><path d="M169.19996,168.58752h12.8l4.8,4.8v17.6h-6.4v-4.8h-9.6v4.8h-6.4v-17.6zM178.79996,174.98751h-6.4l-1.6,1.6v3.2h9.6v-3.2z" fill="#30bbff" stroke-width="1"/><path d="M196.39996,178.61251v12.8h-6.4v-22.4h6.4l4.8,4.8l4.8,-4.8h6.4v22.4h-6.4v-12.8l-4.8,4.8z" fill="#30bbff" stroke-width="1"/><path d="M221.99996,185.0125h12.8v6.4h-19.2v-22.4h19.2v6.4h-12.8v1.6h12.8v6.4h-12.8z" fill="#30bbff" stroke-width="1"/><path d="M246.19996,186.61251v-12.8l4.8,-4.8h12.8l4.8,4.8v12.8l-4.8,4.8h-12.8zM252.59996,177.0125v6.4l1.6,1.6h6.4l1.6,-1.6v-6.4l-1.6,-1.6h-6.4z" fill="#30bbff" stroke-width="1"/><path d="M287.79996,178.61251v-9.6h6.4v12.8l-9.6,9.6h-3.2l-9.6,-9.6v-12.8h6.4v9.6l4.8,4.8z" fill="#30bbff" stroke-width="1"/><path d="M303.79996,185.0125h12.8v6.4h-19.2v-22.4h19.2v6.4h-12.8v1.6h12.8v6.4h-12.8z" fill="#30bbff" stroke-width="1"/><path d="M342.19996,173.81251v6.4l-4.8,4.8l6.4,6.4h-9.6l-6.4,-6.4h-1.6v6.4h-6.4v-22.4h17.6zM335.79996,177.0125l-1.6,-1.6h-8v3.2h8z" fill="#30bbff" stroke-width="1"/><g fill="#ff2591" stroke-width="1"><path d="M137.9,186.40001v-12.8l4.8,-4.8h12.8l4.8,4.8l-3.2,3.2h3.2v14.4h-17.6zM144.3,176.80001v6.4l1.6,1.6h8v-1.6h-6.4v-6.4h6.4l-1.6,-1.6h-6.4z"/><path d="M167.5,168.80001h12.8l4.8,4.8v17.6h-6.4v-4.8h-9.6v4.8h-6.4v-17.6zM177.1,175.2h-6.4l-1.6,1.6v3.2h9.6v-3.2z"/><path d="M194.7,178.40001v12.8h-6.4v-22.4h6.4l4.8,4.8l4.8,-4.8h6.4v22.4h-6.4v-12.8l-4.8,4.8z"/><path d="M220.3,184.80001h12.8v6.4h-19.2v-22.4h19.2v6.4h-12.8v1.6h12.8v6.4h-12.8z"/><path d="M244.5,186.40001v-12.8l4.8,-4.8h12.8l4.8,4.8v12.8l-4.8,4.8h-12.8zM250.9,176.80001v6.4l1.6,1.6h6.4l1.6,-1.6v-6.4l-1.6,-1.6h-6.4z"/><path d="M286.1,178.40001v-9.6h6.4v12.8l-9.6,9.6h-3.2l-9.6,-9.6v-12.8h6.4v9.6l4.8,4.8z"/><path d="M302.1,184.80001h12.8v6.4h-19.2v-22.4h19.2v6.4h-12.8v1.6h12.8v6.4h-12.8z"/><path d="M340.5,173.60001v6.4l-4.8,4.8l6.4,6.4h-9.6l-6.4,-6.4h-1.6v6.4h-6.4v-22.4h17.6zM334.1,176.80001l-1.6,-1.6h-8v3.2h8z"/></g><path d="M138.7,186.27502v-12.8l4.8,-4.8h12.8l4.8,4.8l-3.2,3.2h3.2v14.4h-17.6zM145.1,176.67501v6.4l1.6,1.6h8v-1.6h-6.4v-6.4h6.4l-1.6,-1.6h-6.4z" fill="#ffffff" stroke-width="1"/><path d="M168.3,168.67501h12.8l4.8,4.8v17.6h-6.4v-4.8h-9.6v4.8h-6.4v-17.6zM177.9,175.07501h-6.4l-1.6,1.6v3.2h9.6v-3.2z" fill="#ffffff" stroke-width="1"/><path d="M195.5,178.7v12.8h-6.4v-22.4h6.4l4.8,4.8l4.8,-4.8h6.4v22.4h-6.4v-12.8l-4.8,4.8z" fill="#ffffff" stroke-width="1"/><path d="M221.1,185.10001h12.8v6.4h-19.2v-22.4h19.2v6.4h-12.8v1.6h12.8v6.4h-12.8z" fill="#ffffff" stroke-width="1"/><path d="M245.3,186.7v-12.8l4.8,-4.8h12.8l4.8,4.8v12.8l-4.8,4.8h-12.8zM251.7,177.10001v6.4l1.6,1.6h6.4l1.6,-1.6v-6.4l-1.6,-1.6h-6.4z" fill="#ffffff" stroke-width="1"/><path d="M286.9,178.7v-9.6h6.4v12.8l-9.6,9.6h-3.2l-9.6,-9.6v-12.8h6.4v9.6l4.8,4.8z" fill="#ffffff" stroke-width="1"/><path d="M302.9,185.10001h12.8v6.4h-19.2v-22.4h19.2v6.4h-12.8v1.6h12.8v6.4h-12.8z" fill="#ffffff" stroke-width="1"/><path d="M341.3,173.90001v6.4l-4.8,4.8l6.4,6.4h-9.6l-6.4,-6.4h-1.6v6.4h-6.4v-22.4h17.6zM334.9,177.10001l-1.6,-1.6h-8v3.2h8z" fill="#ffffff" stroke-width="1"/></g></g></svg>