<svg xmlns="http://www.w3.org/2000/svg" xmlns:xlink="http://www.w3.org/1999/xlink" version="1.1" id="Layer_1" x="0px" y="0px" width="83.7660140991211" height="18.934005737304688" viewBox="78.11699676513672 73.01899719238281 83.7660140991211 18.934005737304688" enable-background="new 0 0 240 180" xml:space="preserve">
  <g>
    <g>
      <path fill="#FFFFFF" d="M79.561,86.664v1.511h2.734v0.848h-2.734v1.543h3.15v0.848h-4.094v-5.597h3.998v0.847H79.561z" stroke-width="1"/>
      <path fill="#FFFFFF" d="M86.16,85.817c1.679,0,2.895,1.175,2.895,2.798c0,1.615-1.224,2.799-2.918,2.799h-2.271v-5.597H86.16z&#13;&#10;&#9;&#9; M84.809,90.566h1.375c1.087,0,1.919-0.808,1.919-1.943c0-1.143-0.855-1.959-1.959-1.959h-1.335V90.566z" stroke-width="1"/>
      <path fill="#FFFFFF" d="M90.065,91.414v-5.597h0.943v5.597H90.065z" stroke-width="1"/>
      <path fill="#FFFFFF" d="M94.528,86.664v4.75h-0.944v-4.75h-1.767v-0.847h4.486v0.847H94.528z" stroke-width="1"/>
      <path fill="#FFFFFF" d="M103.831,88.663v2.063c-0.568,0.432-1.407,0.727-2.175,0.727c-1.655,0-2.942-1.239-2.942-2.838&#13;&#10;&#9;&#9;s1.303-2.823,2.998-2.823c0.8,0,1.599,0.304,2.151,0.784l-0.536,0.696c-0.432-0.4-1.031-0.64-1.615-0.64&#13;&#10;&#9;&#9;c-1.143,0-2.039,0.872-2.039,1.983c0,1.119,0.903,1.991,2.047,1.991c0.416,0,0.887-0.144,1.287-0.384v-1.559H103.831z" stroke-width="1"/>
      <path fill="#FFFFFF" d="M105.961,90.15l-0.536,1.264h-0.983l2.471-5.597h0.968l2.446,5.597h-1.007l-0.536-1.264H105.961z&#13;&#10;&#9;&#9; M107.368,86.824l-1.056,2.486h2.111L107.368,86.824z" stroke-width="1"/>
      <path fill="#FFFFFF" d="M116.118,91.414l-0.008-4.182l-1.767,3.598h-0.616l-1.767-3.598v4.182h-0.887v-5.597h1.119l1.847,3.718&#13;&#10;&#9;&#9;l1.839-3.718h1.111v5.597H116.118z" stroke-width="1"/>
      <path fill="#FFFFFF" d="M119.417,86.664v1.511h2.735v0.848h-2.735v1.543h3.15v0.848h-4.094v-5.597h3.998v0.847H119.417z" stroke-width="1"/>
      <path fill="#FFFFFF" d="M131.254,88.615c0,1.599-1.296,2.838-2.966,2.838c-1.672,0-2.967-1.239-2.967-2.838&#13;&#10;&#9;&#9;c0-1.607,1.295-2.823,2.967-2.823C129.958,85.792,131.254,87.016,131.254,88.615z M126.28,88.615c0,1.111,0.92,1.991,2.016,1.991&#13;&#10;&#9;&#9;s1.99-0.879,1.99-1.991s-0.895-1.975-1.99-1.975C127.192,86.64,126.28,87.504,126.28,88.615z" stroke-width="1"/>
      <path fill="#FFFFFF" d="M134.495,85.817c1.408,0,2.215,0.695,2.215,1.911c0,1.263-0.807,1.999-2.215,1.999h-1.287v1.688h-0.943&#13;&#10;&#9;&#9;v-5.597H134.495z M133.208,88.879h1.248c0.863,0,1.352-0.368,1.352-1.127c0-0.735-0.488-1.087-1.352-1.087h-1.248V88.879z" stroke-width="1"/>
      <path fill="#FFFFFF" d="M139.695,86.664v4.75h-0.943v-4.75h-1.767v-0.847h4.485v0.847H139.695z" stroke-width="1"/>
      <path fill="#FFFFFF" d="M142.28,91.414v-5.597h0.943v5.597H142.28z" stroke-width="1"/>
      <path fill="#FFFFFF" d="M150.166,88.615c0,1.599-1.296,2.838-2.967,2.838s-2.966-1.239-2.966-2.838&#13;&#10;&#9;&#9;c0-1.607,1.295-2.823,2.966-2.823S150.166,87.016,150.166,88.615z M145.192,88.615c0,1.111,0.92,1.991,2.015,1.991&#13;&#10;&#9;&#9;c1.096,0,1.991-0.879,1.991-1.991s-0.896-1.975-1.991-1.975C146.104,86.64,145.192,87.504,145.192,88.615z" stroke-width="1"/>
      <path fill="#FFFFFF" d="M155.103,91.414L152.12,87.4v4.014h-0.943v-5.597h0.928l2.998,4.021v-4.021h0.928v5.597H155.103z" stroke-width="1"/>
      <path fill="#FFFFFF" d="M161.311,86.353l-0.392,0.832c-0.607-0.368-1.215-0.52-1.639-0.52c-0.552,0-0.912,0.208-0.912,0.584&#13;&#10;&#9;&#9;c0,1.223,3.022,0.567,3.015,2.583c0,1-0.88,1.615-2.111,1.615c-0.879,0-1.711-0.359-2.286-0.887l0.407-0.815&#13;&#10;&#9;&#9;c0.576,0.527,1.296,0.815,1.896,0.815c0.655,0,1.047-0.248,1.047-0.68c0-1.247-3.021-0.552-3.021-2.542&#13;&#10;&#9;&#9;c0-0.959,0.823-1.559,2.038-1.559C160.079,85.777,160.791,86.008,161.311,86.353z" stroke-width="1"/>
    </g>
    <polygon fill="#FFFFFF" points="120,73.519 114.097,79.421 114.804,80.128 120,74.933 125.196,80.128 125.903,79.421 " stroke-width="1"/>
  </g>
</svg>