<svg version="1.1" xmlns="http://www.w3.org/2000/svg" xmlns:xlink="http://www.w3.org/1999/xlink" width="119.39716" height="119.39716" viewBox="0,0,119.39716,119.39716"><defs><radialGradient cx="240" cy="180" r="51.75" gradientUnits="userSpaceOnUse" id="color-1"><stop offset="0" stop-color="#1c75bc" stop-opacity="0.5"/><stop offset="0.9163" stop-color="#1c75bc" stop-opacity="0"/><stop offset="1" stop-color="#1c75bc" stop-opacity="0"/></radialGradient><radialGradient cx="240" cy="180" r="51.75" gradientUnits="userSpaceOnUse" id="color-2"><stop offset="0" stop-color="#1c75bc" stop-opacity="0.5"/><stop offset="0.9163" stop-color="#1c75bc" stop-opacity="0"/><stop offset="1" stop-color="#1c75bc" stop-opacity="0"/></radialGradient></defs><g transform="translate(-180.30142,-120.30142)"><g data-paper-data="{&quot;isPaintingLayer&quot;:true}" fill-rule="nonzero" stroke="none" stroke-linecap="butt" stroke-linejoin="miter" stroke-miterlimit="10" stroke-dasharray="" stroke-dashoffset="0" style="mix-blend-mode: normal"><path d="M188.2,180c0,-28.60835 23.19165,-51.8 51.8,-51.8c28.60835,0 51.8,23.19165 51.8,51.8c0,28.60835 -23.19165,51.8 -51.8,51.8c-28.60835,0 -51.8,-23.19165 -51.8,-51.8z" fill="url(#color-1)" stroke-width="1"/><path d="M188.2,180c0,-28.60835 23.19165,-51.8 51.8,-51.8c28.60835,0 51.8,23.19165 51.8,51.8c0,28.60835 -23.19165,51.8 -51.8,51.8c-28.60835,0 -51.8,-23.19165 -51.8,-51.8z" fill="url(#color-2)" stroke-width="1"/><path d="M180.30142,239.69858v-119.39716h119.39716v119.39716z" fill="none" stroke-width="0"/></g></g></svg>