<svg xmlns="http://www.w3.org/2000/svg" xmlns:xlink="http://www.w3.org/1999/xlink" version="1.1" width="26.94700050354004" height="8.122399806976318" viewBox="-0.24500000476837158 -0.31619998812675476 26.94700050354004 8.122399806976318">
  <!-- Exported by Scratch - http://scratch.mit.edu/ -->
  <g id="ID0.27479294361546636">
    <path id="ID0.6379539910703897" fill="#FFFFFF" d="M 11.679 4.148 C 11.639 4.152 11.595 4.152 11.551 4.152 L 10.887 4.152 L 10.887 4.996 L 10.415 4.996 L 10.415 2.197 L 11.551 2.197 C 12.267 2.197 12.678 2.545 12.678 3.153 C 12.678 3.601 12.47 3.916 12.099 4.06 L 12.726 4.996 L 12.19 4.996 L 11.679 4.148 Z M 11.551 3.729 C 11.983 3.729 12.231 3.545 12.231 3.165 C 12.231 2.797 11.983 2.622 11.551 2.622 L 10.887 2.622 L 10.887 3.729 L 11.551 3.729 Z " stroke-width="1"/>
    <path id="ID0.4774799984879792" fill="#FFFFFF" d="M 13.779 2.621 L 13.779 3.376 L 15.146 3.376 L 15.146 3.8 L 13.779 3.8 L 13.779 4.571 L 15.354 4.571 L 15.354 4.995 L 13.307 4.995 L 13.307 2.197 L 15.305 2.197 L 15.305 2.621 L 13.779 2.621 Z " stroke-width="1"/>
    <path id="ID0.8069848287850618" fill="#FFFFFF" d="M 18.258 3.621 L 18.258 4.652 C 17.975 4.868 17.555 5.016 17.171 5.016 C 16.343 5.016 15.699 4.396 15.699 3.597 C 15.699 2.798 16.35 2.186 17.198 2.186 C 17.598 2.186 17.998 2.338 18.274 2.578 L 18.005 2.926 C 17.789 2.726 17.489 2.606 17.197 2.606 C 16.626 2.606 16.177 3.042 16.177 3.597 C 16.177 4.157 16.629 4.593 17.2 4.593 C 17.408 4.593 17.644 4.521 17.845 4.401 L 17.845 3.621 L 18.258 3.621 Z " stroke-width="1"/>
    <path id="ID0.3717627818696201" fill="#FFFFFF" d="M 19.399 2.621 L 19.399 3.376 L 20.766 3.376 L 20.766 3.8 L 19.399 3.8 L 19.399 4.571 L 20.974 4.571 L 20.974 4.995 L 18.927 4.995 L 18.927 2.197 L 20.926 2.197 L 20.926 2.621 L 19.399 2.621 Z " stroke-width="1"/>
    <path id="ID0.6789985205978155" fill="#FFFFFF" d="M 23.515 4.996 L 22.024 2.989 L 22.024 4.996 L 21.552 4.996 L 21.552 2.197 L 22.015 2.197 L 23.515 4.208 L 23.515 2.197 L 23.979 2.197 L 23.979 4.995 L 23.515 4.995 Z " stroke-width="1"/>
    <path id="ID0.26873163925483823" fill="#FFFFFF" d="M 25.499 3.856 L 25.499 4.555 L 25.199 4.555 L 25.199 3.856 L 24.491 3.856 L 24.491 3.541 L 25.199 3.541 L 25.199 2.841 L 25.499 2.841 L 25.499 3.541 L 26.202 3.541 L 26.202 3.857 L 25.499 3.857 Z " stroke-width="1"/>
  </g>
  <g id="ID0.7075533177703619">
    <path id="ID0.21445790771394968" fill="#FFFFFF" d="M 6.545 2.3575 L 5.2807 2.3575 L 5.2807 1.2937 C 5.2807 0.6807 4.7836 0.1838 4.1707 0.1838 L 3.7391 0.1838 C 3.1262 0.1838 2.6291 0.6807 2.6291 1.2937 L 2.6291 2.3575 L 1.365 2.3575 C 0.7519 2.3575 0.255 2.8544 0.255 3.4675 L 0.255 3.8989 C 0.255 4.512 0.7519 5.0089 1.365 5.0089 L 2.6291 5.0089 L 2.6291 6.1962 C 2.6291 6.8092 3.1262 7.3062 3.7391 7.3062 L 4.1707 7.3062 C 4.7836 7.3062 5.2807 6.8092 5.2807 6.1962 L 5.2807 5.0089 L 6.545 5.0089 C 7.1579 5.0089 7.655 4.512 7.655 3.8989 L 7.655 3.4675 C 7.655 2.8544 7.1579 2.3575 6.545 2.3575 Z M 7.285 3.8989 C 7.285 4.307 6.9531 4.6389 6.545 4.6389 L 5.2807 4.6389 L 4.9107 4.6389 L 4.9107 5.0089 L 4.9107 6.1962 C 4.9107 6.6044 4.5788 6.9362 4.1707 6.9362 L 3.7391 6.9362 C 3.331 6.9362 2.9991 6.6044 2.9991 6.1962 L 2.9991 5.0089 L 2.9991 4.6389 L 2.6291 4.6389 L 1.365 4.6389 C 0.9569 4.6389 0.625 4.307 0.625 3.8989 L 0.625 3.4675 C 0.625 3.0594 0.9569 2.7275 1.365 2.7275 L 2.6291 2.7275 L 2.9991 2.7275 L 2.9991 2.3575 L 2.9991 1.2937 C 2.9991 0.8856 3.331 0.5538 3.7391 0.5538 L 4.1707 0.5538 C 4.5788 0.5538 4.9107 0.8856 4.9107 1.2937 L 4.9107 2.3575 L 4.9107 2.7275 L 5.2807 2.7275 L 6.545 2.7275 C 6.9531 2.7275 7.285 3.0594 7.285 3.4675 L 7.285 3.8989 Z " stroke-width="0.1849999874830246"/>
    <path id="ID0.8405231880024076" fill="#FFFFFF" d="M 0.995 3.3299 L 0.995 3.8989 C 0.995 4.103 1.1609 4.2689 1.365 4.2689 L 2.6291 4.2689 L 3.3691 4.2689 L 3.3691 4.5795 L 3.3691 5.0089 L 3.3691 6.1962 C 3.3691 6.4003 3.535 6.5662 3.7391 6.5662 L 4.1707 6.5662 C 4.3748 6.5662 4.5407 6.4003 4.5407 6.1962 L 4.5407 5.0089 L 4.5407 4.4116 L 4.5407 4.2689 L 5.2807 4.2689 L 6.545 4.2689 C 6.7491 4.2689 6.915 4.103 6.915 3.8989 L 6.915 3.1752 C 4.9416 2.7471 2.9684 3.7578 0.995 3.3299 Z " stroke-width="0.1849999874830246"/>
    <path id="ID0.22365913400426507" fill="#FFFFFF" d="M 4.4253 1.6571 C 4.4891 1.6571 4.5409 1.5988 4.5409 1.527 L 4.5409 1.1078 C 4.5409 1.036 4.4891 0.9778 4.4253 0.9778 C 4.3614 0.9778 4.3096 1.036 4.3096 1.1078 L 4.3096 1.527 C 4.3096 1.5986 4.3614 1.6571 4.4253 1.6571 Z " stroke-width="0.1849999874830246"/>
    <path id="ID0.5256806365214288" fill="#FFFFFF" d="M 4.4253 1.7629 C 4.4571 1.7629 4.4861 1.7783 4.507 1.8031 C 4.5279 1.828 4.5409 1.8623 4.5409 1.9002 C 4.5409 1.9381 4.5279 1.9723 4.507 1.9973 C 4.4861 2.0221 4.4571 2.0374 4.4253 2.0374 C 4.3934 2.0374 4.3644 2.0221 4.3435 1.9973 C 4.3226 1.9723 4.3096 1.9381 4.3096 1.9002 C 4.3096 1.8623 4.3226 1.828 4.3435 1.8031 C 4.3644 1.7783 4.3934 1.7629 4.4253 1.7629 Z " stroke-width="0.1849999874830246"/>
  </g>
</svg>