<svg version="1.1" xmlns="http://www.w3.org/2000/svg" xmlns:xlink="http://www.w3.org/1999/xlink" width="49.2" height="6.5" viewBox="0,0,49.2,6.5"><g transform="translate(-215.4,-176.75)"><g data-paper-data="{&quot;isPaintingLayer&quot;:true}" fill="#000000" fill-rule="nonzero" stroke="none" stroke-width="1" stroke-linecap="butt" stroke-linejoin="miter" stroke-miterlimit="10" stroke-dasharray="" stroke-dashoffset="0" style="mix-blend-mode: normal"><path d="M220.4,176.85l1.4,1.4l-1.4,1.4l-0.9,-0.9h-1.8l-0.5,0.4v1.8l0.5,0.5h1.8l0.9,-0.9l1.4,1.4l-1.4,1.2h-3.6l-1.4,-1.4v-3.6l1.4,-1.4h3.6z"/><path d="M224.4,180.95v2.2h-1.8v-6.3h1.8v2.3h2.7v-2.3h1.8v6.3h-1.7v-2.3h-2.8z"/><path d="M231.2,176.85h3.6l1.4,1.4v5h-1.8v-1.4h-2.7v1.3h-1.8v-5zM233.9,178.65h-1.8l-0.4,0.5v0.9h2.7v-0.9z"/><path d="M238.9,179.55v3.6h-1.8v-6.3h1.8l1.4,1.4l1.4,-1.4h1.8v6.3h-1.8v-3.6l-1.4,1.4z"/><path d="M250.6,178.25v1.4l-0.5,0.5l0.5,0.5v1.4l-1.3,1.1h-5v-6.3h5zM248.4,178.65h-2.3v0.5h2.3l0.2,-0.2zM246.1,180.95v0.5h2.3l0.2,-0.2l-0.2,-0.2h-2.3z"/><path d="M253.3,181.35h3.6v1.8h-5.4v-6.3h5.4v1.8h-3.6v0.5h3.6v1.8h-3.6z"/><path d="M264.2,178.25v1.8l-1.4,1.3l1.8,1.8h-2.7l-1.8,-1.8h-0.5v1.8h-1.8v-6.3h5zM262.4,179.15l-0.5,-0.5h-2.3v0.9h2.3z"/></g></g></svg>