<svg version="1.1" xmlns="http://www.w3.org/2000/svg" xmlns:xlink="http://www.w3.org/1999/xlink" width="99" height="22.75" viewBox="0,0,99,22.75"><g transform="translate(-190.5,-168.625)"><g data-paper-data="{&quot;isPaintingLayer&quot;:true}" fill-rule="nonzero" stroke-linecap="butt" stroke-linejoin="miter" stroke-miterlimit="10" stroke-dasharray="" stroke-dashoffset="0" style="mix-blend-mode: normal"><path d="M190.875,191v-22h98.25v22z" fill-opacity="0.5" fill="#000000" stroke="#ffffff" stroke-width="0.75"/><g fill="#ffffff" stroke="none" stroke-width="1"><path d="M226,178.2v1.8l-1.4,1.4l1.8,1.8h-2.7l-1.8,-1.8h-0.4v1.8h-1.8v-6.3h5zM224.2,179.1l-0.5,-0.5h-2.2v0.9h2.3z"/><path d="M228.7,181.4h3.6v1.8h-5.4v-6.3h5.4v1.8h-3.6v0.5h3.6v1.8h-3.6z"/><path d="M233.2,178.2l1.4,-1.4h5v1.8h-4.1l-0.2,0.2l0.2,0.2h2.7l1.4,1.4v1.4l-1.4,1.4h-5v-1.8h4.1l0.2,-0.2l-0.2,-0.2h-2.7l-1.4,-1.4z"/><path d="M240.5,181.8v-5h1.8v4.1l0.5,0.5h1.8l0.5,-0.5v-4.1h1.8v5l-1.4,1.4h-3.6z"/><path d="M249.5,179.6v3.6h-1.8v-6.3h1.8l1.4,1.4l1.4,-1.4h1.7v6.3h-1.8v-3.6l-1.4,1.4z"/><path d="M256.7,181.4h3.6v1.8h-5.4v-6.3h5.4v1.8h-3.6v0.5h3.6v1.8h-3.6z"/></g></g></g></svg>