<svg version="1.1" xmlns="http://www.w3.org/2000/svg" xmlns:xlink="http://www.w3.org/1999/xlink" width="48.5" height="15.5" viewBox="0,0,48.5,15.5"><g transform="translate(-215.75,-172.25)"><g data-paper-data="{&quot;isPaintingLayer&quot;:true}" fill="#ffffff" fill-rule="nonzero" stroke="none" stroke-width="1" stroke-linecap="butt" stroke-linejoin="miter" stroke-miterlimit="10" stroke-dasharray="" stroke-dashoffset="0" style="mix-blend-mode: normal"><g><path d="M233.455,182.7985l-2.982,-4.015v4.015h-0.943v-5.598h0.928l2.998,4.021v-4.021h0.928v5.598z"/><path d="M236.809,178.0485v1.511h2.734v0.848h-2.734v1.544h3.15v0.848h-4.094v-5.599h3.998v0.848z"/><path d="M245.742,182.7985h-1.127l-1.512,-2.111l-1.503,2.111h-1.103l2.038,-2.871l-1.895,-2.727h1.095l1.367,1.943l1.375,-1.943h1.104l-1.879,2.687z"/><path d="M248.695,178.0485v4.75h-0.943v-4.75h-1.766v-0.848h4.484v0.848z"/></g><path d="M264.25,172.25v15.5h-48.5v-15.5zM263.75,172.75h-47.5v14.5h47.5z"/></g></g></svg>