<svg version="1.1" xmlns="http://www.w3.org/2000/svg" xmlns:xlink="http://www.w3.org/1999/xlink" width="72.97129" height="20.94673" viewBox="0,0,72.97129,20.94673"><defs><linearGradient x1="227.8075" y1="180.76762" x2="300.77879" y2="180.76762" gradientUnits="userSpaceOnUse" id="color-1"><stop offset="0" stop-color="#00ba56" stop-opacity="0.62833"/><stop offset="1" stop-color="#00ba56" stop-opacity="0"/></linearGradient></defs><g transform="translate(-227.8075,-170.29424)"><g data-paper-data="{&quot;isPaintingLayer&quot;:true}" fill-rule="nonzero" stroke-linecap="butt" stroke-linejoin="miter" stroke-miterlimit="10" stroke-dasharray="" stroke-dashoffset="0" style="mix-blend-mode: normal"><path d="M227.8075,191.24098v-20.94673h72.97129v20.94673z" fill="url(#color-1)" stroke="none" stroke-width="0"/><path d="M249.93752,174.99953v9.938c0,1.1 -0.9,2 -2,2h-14c-0.962,0 -1.772,-0.689 -1.959,-1.599c-0.027,-0.13 -0.041,-0.263 -0.041,-0.401v-9.937c0,-0.138 0.01,-0.262 0.029,-0.373c0.075,-0.444 0.295,-0.672 0.596,-0.659c0.226,0.009 0.497,0.154 0.789,0.446l3.086,3.086l3.086,-3.086c0.778,-0.778 2.05,-0.778 2.828,0l3.086,3.086l3.086,-3.086c0.777,-0.778 1.414,-0.515 1.414,0.585z" fill="#39b54a" stroke="#ffffff" stroke-width="1"/><g fill="#ffffff" stroke="none" stroke-width="1"><path d="M260.17402,177.32287v7.124h-1.415v-7.124h-2.65v-1.271h6.728v1.271z"/><path d="M268.741,181.78487h-4.822c0.217,0.983 0.972,1.595 1.979,1.595c0.695,0 1.331,-0.264 1.799,-0.743l0.731,0.779c-0.623,0.684 -1.535,1.079 -2.639,1.079c-1.967,0 -3.262,-1.308 -3.262,-3.226c0,-1.931 1.331,-3.238 3.226,-3.25c2.244,-0.001 3.155,1.463 2.988,3.766zM267.54102,180.77687c-0.048,-1.031 -0.731,-1.655 -1.774,-1.655c-1.008,0 -1.715,0.636 -1.871,1.655z"/><path d="M274.01,183.66787c-0.456,0.563 -1.188,0.839 -2.111,0.839c-1.379,0 -2.242,-0.852 -2.242,-1.979c0,-1.163 0.875,-1.907 2.41,-1.919h1.931v-0.192c0,-0.804 -0.516,-1.283 -1.522,-1.283c-0.612,0 -1.248,0.216 -1.884,0.647l-0.563,-0.959c0.888,-0.528 1.535,-0.804 2.747,-0.804c1.643,0 2.566,0.84 2.578,2.243l0.012,4.186h-1.356zM273.99701,182.20387v-0.587h-1.727c-0.899,0 -1.319,0.239 -1.319,0.852c0,0.575 0.468,0.947 1.235,0.947c0.984,0 1.74,-0.516 1.811,-1.212z"/><path d="M287.878,180.47687v3.97h-1.379v-3.586c0,-0.972 -0.576,-1.559 -1.512,-1.559c-1.091,0.036 -1.751,0.875 -1.751,1.991v3.154h-1.379v-3.586c0,-0.972 -0.563,-1.559 -1.499,-1.559c-1.104,0.036 -1.775,0.875 -1.775,1.991v3.154h-1.367v-6.38h1.367v1.235c0.443,-0.9 1.259,-1.284 2.314,-1.284c1.14,0 1.919,0.564 2.219,1.535c0.408,-1.067 1.26,-1.535 2.423,-1.535c1.463,0 2.339,0.936 2.339,2.459z"/><path d="M295.38202,179.58987c1.403,0.12 2.362,0.936 2.362,2.255c0,1.571 -1.188,2.662 -3.059,2.662c-1.031,0 -2.11,-0.359 -2.83,-0.911l0.588,-1.151c0.6,0.563 1.379,0.876 2.146,0.876c1.115,0 1.764,-0.576 1.764,-1.439c0,-0.912 -0.66,-1.379 -1.775,-1.379h-1.163v-0.828l2.183,-2.351h-3.358v-1.259h5.109v0.887l-2.398,2.591z"/></g></g></g></svg>