<svg version="1.1" xmlns="http://www.w3.org/2000/svg" xmlns:xlink="http://www.w3.org/1999/xlink" width="57.6404" height="18.5057" viewBox="0,0,57.6404,18.5057"><g transform="translate(-211.1798,-170.74715)"><g data-paper-data="{&quot;isPaintingLayer&quot;:true}" fill-rule="nonzero" stroke="none" stroke-width="1" stroke-linecap="butt" stroke-linejoin="miter" stroke-miterlimit="10" stroke-dasharray="" stroke-dashoffset="0" style="mix-blend-mode: normal"><g><g fill="#000000"><path d="M266.4439,189.25285h-52.8877c-1.307,0 -2.3764,-1.0694 -2.3764,-2.3764v-13.6517c0,-1.307 1.0694,-2.3764 2.3764,-2.3764h52.8876c1.307,0 2.3764,1.0694 2.3764,2.3764v13.6517c0.0001,1.307 -1.0693,2.3764 -2.3763,2.3764z"/></g><g fill="#ffffff"><path d="M224.9566,175.15545h1.9434v6.8159h4.2119v1.584h-6.1553z"/><path d="M239.6919,175.15545l-3.6357,8.3999h-1.9199l-3.624,-8.3999h2.0996l2.5557,6l2.5928,-6z"/><path d="M240.3882,175.15545h1.9434v6.8159h4.2119v1.584h-6.1553z"/><path d="M253.7437,175.15545v8.3999h-1.9434v-6.8398h-1.6807v-1.5601z"/></g><g fill="#000000"><path d="M266.4439,189.15165h-52.8877c-1.307,0 -2.3764,-1.0694 -2.3764,-2.3764v-13.6517c0,-1.307 1.0694,-2.3764 2.3764,-2.3764h52.8876c1.307,0 2.3764,1.0694 2.3764,2.3764v13.6517c0.0001,1.3071 -1.0693,2.3764 -2.3763,2.3764z"/></g><g fill="#ffffff"><path d="M224.4068,175.05335h1.9434v6.8159h4.2119v1.584h-6.1553z"/><path d="M239.1421,175.05335l-3.6357,8.3999h-1.9199l-3.624,-8.3999h2.0996l2.5557,6l2.5928,-6z"/><path d="M239.8384,175.05335h1.9434v6.8159h4.2119v1.584h-6.1553z"/><path d="M255.5699,179.29505c0.3926,0.4282 0.5879,0.9585 0.5879,1.5903c0,0.4878 -0.1279,0.938 -0.3838,1.3501c-0.2559,0.4121 -0.6455,0.7417 -1.1699,0.9897c-0.5244,0.248 -1.166,0.3721 -1.9258,0.3721c-0.5918,0 -1.1738,-0.0781 -1.7461,-0.2339c-0.5723,-0.1562 -1.0586,-0.3779 -1.458,-0.666l0.7559,-1.4883c0.3203,0.2402 0.6904,0.4263 1.1104,0.5581c0.42,0.1318 0.8496,0.1982 1.29,0.1982c0.4873,0 0.8721,-0.0942 1.1514,-0.2822c0.2803,-0.188 0.4199,-0.4541 0.4199,-0.7979c0,-0.688 -0.5234,-1.0322 -1.5713,-1.0322h-0.8887v-1.2836l1.7285,-1.9561h-3.5762v-1.5601h5.8799v1.2598l-1.8955,2.1602c0.7353,0.1202 1.2998,0.3941 1.6914,0.8218z"/></g></g></g></g></svg>