<svg version="1.1" xmlns="http://www.w3.org/2000/svg" xmlns:xlink="http://www.w3.org/1999/xlink" width="58.178" height="56.104" viewBox="0,0,58.178,56.104"><g transform="translate(-210.911,-151.948)"><g data-paper-data="{&quot;isPaintingLayer&quot;:true}" fill="#ff4569" fill-rule="nonzero" stroke="none" stroke-width="1" stroke-linecap="butt" stroke-linejoin="miter" stroke-miterlimit="10" stroke-dasharray="" stroke-dashoffset="0" style="mix-blend-mode: normal"><path d="M224.295,169.815l16.699,-13.046v16.207l-16.483,16.486l-0.216,-0.17h-13.384v-19.477zM265.364,179.552c0,7.951 -3.387,14.947 -8.51,18.998l-3.786,-6.123c3.012,-2.861 5.03,-7.607 5.03,-12.875c0,-2.863 -0.612,-5.564 -1.644,-7.904l5.354,-5.352c2.229,3.728 3.554,8.303 3.556,13.256zM232.442,195.66l8.552,-8.551v15.23z"/><path d="M266.924,151.948l2.165,2.166l-53.939,53.938l-2.171,-2.166l53.945,-53.938"/></g></g></svg>