<svg version="1.1" xmlns="http://www.w3.org/2000/svg" xmlns:xlink="http://www.w3.org/1999/xlink" width="57.6404" height="18.5056" viewBox="0,0,57.6404,18.5056"><g transform="translate(-211.1798,-170.7472)"><g data-paper-data="{&quot;isPaintingLayer&quot;:true}" fill-rule="nonzero" stroke="none" stroke-width="1" stroke-linecap="butt" stroke-linejoin="miter" stroke-miterlimit="10" stroke-dasharray="" stroke-dashoffset="0" style="mix-blend-mode: normal"><g><g fill="#000000"><path d="M266.4438,189.2528h-52.8876c-1.307,0 -2.3764,-1.0694 -2.3764,-2.3764v-13.6516c0,-1.307 1.0694,-2.3764 2.3764,-2.3764h52.8876c1.307,0 2.3764,1.0694 2.3764,2.3764v13.6517c0,1.307 -1.0694,2.3763 -2.3764,2.3763z"/></g><g fill="#ffffff"><path d="M224.9564,175.1553h1.9434v6.8159h4.2119v1.584h-6.1553z"/><path d="M239.6917,175.1553l-3.6357,8.3999h-1.9199l-3.624,-8.3999h2.0996l2.5557,6l2.5928,-6z"/><path d="M240.388,175.1553h1.9434v6.8159h4.2119v1.584h-6.1553z"/><path d="M253.7435,175.1553v8.3999h-1.9434v-6.8398h-1.6807v-1.5601z"/></g><g fill="#000000"><path d="M266.4438,189.1517h-52.8876c-1.307,0 -2.3764,-1.0694 -2.3764,-2.3764v-13.6517c0,-1.307 1.0694,-2.3764 2.3764,-2.3764h52.8876c1.307,0 2.3764,1.0694 2.3764,2.3764v13.6517c0,1.307 -1.0694,2.3764 -2.3764,2.3764z"/></g><g fill="#ffffff"><path d="M224.389,175.0538h1.9434v6.8159h4.2119v1.584h-6.1553z"/><path d="M239.1244,175.0538l-3.6357,8.3999h-1.9199l-3.624,-8.3999h2.1006l2.5557,6l2.5918,-6z"/><path d="M239.8206,175.0538h1.9434v6.8159h4.2119v1.584h-6.1553z"/><path d="M255.4388,178.9176c0.5635,0.4722 0.8457,1.104 0.8457,1.896c0,0.5122 -0.1279,0.978 -0.3838,1.3979c-0.2568,0.4204 -0.6465,0.7563 -1.1699,1.0083c-0.5244,0.252 -1.1709,0.3779 -1.9385,0.3779c-0.5918,0 -1.1738,-0.0781 -1.7461,-0.2339c-0.5723,-0.1562 -1.0576,-0.3779 -1.458,-0.666l0.7686,-1.4883c0.3193,0.2402 0.6875,0.4263 1.1035,0.5581c0.416,0.1318 0.8438,0.1982 1.2842,0.1982c0.4873,0 0.8721,-0.0962 1.1523,-0.2881c0.2793,-0.1919 0.4199,-0.46 0.4199,-0.8042c0,-0.3599 -0.1465,-0.6318 -0.4385,-0.8159c-0.292,-0.1841 -0.7979,-0.2759 -1.5176,-0.2759h-2.1484l0.4316,-4.728h5.124v1.5601h-3.5039l-0.1318,1.5957h0.6846c1.1836,0 2.0577,0.2364 2.6221,0.7081z"/></g></g></g></g></svg>