<svg version="1.1" xmlns="http://www.w3.org/2000/svg" xmlns:xlink="http://www.w3.org/1999/xlink" width="29.61" height="32" viewBox="0,0,29.61,32"><defs><linearGradient x1="240" y1="164.91566" x2="240" y2="195.08434" gradientUnits="userSpaceOnUse" id="color-1"><stop offset="0" stop-color="#000000"/><stop offset="1" stop-color="#000000" stop-opacity="0"/></linearGradient><linearGradient x1="232.28802" y1="173.558" x2="232.28802" y2="186.643" gradientUnits="userSpaceOnUse" id="color-2"><stop offset="0" stop-color="#ffffff"/><stop offset="1" stop-color="#fefefe"/></linearGradient><linearGradient x1="229.97402" y1="170.3334" x2="229.97402" y2="189.867" gradientUnits="userSpaceOnUse" id="color-3"><stop offset="0" stop-color="#ffffff"/><stop offset="1" stop-color="#fefefe"/></linearGradient></defs><g transform="translate(-225.195,-164)"><g data-paper-data="{&quot;isPaintingLayer&quot;:true}" fill-rule="nonzero" stroke="none" stroke-linecap="butt" stroke-linejoin="miter" stroke-miterlimit="10" stroke-dasharray="" stroke-dashoffset="0" style="mix-blend-mode: normal"><path d="M225.195,195.08434v-30.16868h29.61v30.16868z" fill="url(#color-1)" stroke-width="0"/><path d="M228.00002,164h24v32h-24z" data-paper-data="{&quot;origPos&quot;:null}" fill="none" stroke-width="1"/><path d="M244.31702,184.177v2.466h-0.178h-8.279h-0.177v-2.466c-2.046,-0.455 -3.395,-1.567 -3.395,-4.264c0,-4.295 3.414,-6.355 7.624,-6.355c0.029,0 0.059,0.002 0.088,0.002c0.029,0 0.059,-0.002 0.088,-0.002c4.211,0 7.625,2.06 7.625,6.355c0,2.697 -1.349,3.809 -3.396,4.264zM241.08202,180.686c0,1.035 0.842,1.874 1.897,1.921c1.054,-0.047 1.896,-0.886 1.896,-1.921c0,-1.036 -0.841,-1.875 -1.896,-1.921c-1.054,0.046 -1.897,0.885 -1.897,1.921zM237.02102,182.607c1.054,-0.046 1.898,-0.886 1.898,-1.921c0,-1.036 -0.843,-1.875 -1.898,-1.921c-1.054,0.046 -1.897,0.884 -1.897,1.921c0,1.035 0.843,1.875 1.897,1.921zM240.74502,182.849c0,-1.191 -0.535,-2.187 -0.745,-2.534c-0.21,0.347 -0.745,1.344 -0.745,2.534z" data-paper-data="{&quot;origPos&quot;:null}" fill="url(#color-2)" stroke-width="1"/><path d="M247.83402,173.903l-1.896,-1.896c1.626,-1.119 3.119,-1.951 3.482,-1.587c0.364,0.365 -0.467,1.858 -1.586,3.483zM246.63502,175.555c-0.743,-0.833 -1.733,-1.478 -2.927,-1.904c0.53,-0.413 1.095,-0.84 1.661,-1.245l2.066,2.067c-0.262,0.364 -0.531,0.727 -0.8,1.082zM234.63302,172.406c0.563,0.404 1.124,0.827 1.652,1.239c-1.191,0.425 -2.178,1.072 -2.921,1.908c-0.269,-0.355 -0.538,-0.717 -0.798,-1.08zM232.16802,173.903c-1.12,-1.626 -1.951,-3.119 -1.587,-3.483c0.363,-0.364 1.857,0.468 3.482,1.587zM250.02702,186.997l-2.87,2.87l-2.724,-2.724h0.385v-2.575c0.748,-0.208 1.357,-0.523 1.856,-0.924zM235.18402,187.143h0.384l-2.724,2.724l-2.87,-2.87l3.354,-3.354c0.498,0.403 1.108,0.717 1.856,0.925z" data-paper-data="{&quot;origPos&quot;:null}" fill="url(#color-3)" stroke-width="1"/></g></g></svg>