<svg version="1.1" xmlns="http://www.w3.org/2000/svg" xmlns:xlink="http://www.w3.org/1999/xlink" width="41.8" height="6.6" viewBox="0,0,41.8,6.6"><g transform="translate(-219.1,-176.7)"><g data-paper-data="{&quot;isPaintingLayer&quot;:true}" fill="#000000" fill-rule="nonzero" stroke="none" stroke-width="1" stroke-linecap="butt" stroke-linejoin="miter" stroke-miterlimit="10" stroke-dasharray="" stroke-dashoffset="0" style="mix-blend-mode: normal"><path d="M219.2,176.7h5l1.3,1.4v3.7l-1.4,1.4h-5v-6.5zM221,178.6v2.8h2.3l0.5,-0.5v-1.9l-0.5,-0.4z"/><path d="M228.2,181.3h3.6v1.9h-5.4v-6.5h5.4v1.9h-3.6v0.5h3.6v1.9h-3.6z"/><path d="M239.1,178.1v1.9l-1.4,1.4h-3.2v1.9h-1.8v-6.5h5zM237.3,179l-0.5,-0.5h-2.3v0.9h2.3z"/><path d="M244.1,178.6v4.6h-1.8v-4.6h-2.3v-1.9h6.3v1.9z"/><path d="M249,180.9v2.3h-1.8v-6.5h1.8v2.3h2.7v-2.3h1.8v6.5h-1.8v-2.3z"/><path d="M254.5,178.1l1.4,-1.4h5v1.9h-4.1l-0.2,0.2l0.2,0.2h2.7l1.4,1.4v1.4l-1.4,1.4h-5v-1.9h4.1l0.2,-0.2l-0.2,-0.2h-2.7l-1.4,-1.4z"/></g></g></svg>