<svg version="1.1" xmlns="http://www.w3.org/2000/svg" xmlns:xlink="http://www.w3.org/1999/xlink" width="102.5" height="102.5" viewBox="0,0,102.5,102.5"><defs><linearGradient x1="240.00001" y1="180.96837" x2="240.00001" y2="205.19505" gradientUnits="userSpaceOnUse" id="color-1"><stop offset="0" stop-color="#c29600"/><stop offset="1" stop-color="#fff300"/></linearGradient><linearGradient x1="240.00001" y1="174.50288" x2="240.00001" y2="186.04022" gradientUnits="userSpaceOnUse" id="color-2"><stop offset="0" stop-color="#c29600"/><stop offset="1" stop-color="#fff300"/></linearGradient><linearGradient x1="240.00001" y1="154.80498" x2="240.00001" y2="179.03164" gradientUnits="userSpaceOnUse" id="color-3"><stop offset="0" stop-color="#c29600"/><stop offset="1" stop-color="#fff300"/></linearGradient><radialGradient cx="240" cy="180" r="51.25" gradientUnits="userSpaceOnUse" id="color-4"><stop offset="0" stop-color="#ffae63" stop-opacity="0.23669"/><stop offset="1" stop-color="#ffae63" stop-opacity="0"/></radialGradient></defs><g transform="translate(-188.75,-128.75)"><g data-paper-data="{&quot;isPaintingLayer&quot;:true}" fill-rule="nonzero" stroke="none" stroke-linecap="butt" stroke-linejoin="miter" stroke-miterlimit="10" stroke-dasharray="" stroke-dashoffset="0" style="mix-blend-mode: normal"><path d="M240.02106,205.19505l-0.02106,-0.02106l-0.02106,0.02106l-16.50803,-16.50803c-0.70175,-0.70177 -0.70177,-1.83955 0,-2.54132l4.65096,-4.65099c0.70177,-0.70177 1.83955,-0.70177 2.54132,-0.00001l8.06616,8.06616c0.70177,0.70177 1.83955,0.70177 2.54132,0l8.06615,-8.06616c0.70178,-0.70177 1.83957,-0.70177 2.54134,0.00001l4.65094,4.65099c0.70177,0.70177 0.70177,1.83955 0,2.54132z" fill="url(#color-1)" stroke-width="1"/><path d="M240.63571,174.89806l1.31387,2.66218c0.10326,0.20924 0.30287,0.35426 0.53377,0.38781l2.9379,0.4269c0.58148,0.08449 0.81366,0.79907 0.3929,1.20921l-2.12589,2.07222c-0.16708,0.16287 -0.24332,0.39752 -0.20387,0.62749l0.50185,2.92602c0.09933,0.57913 -0.50853,1.02076 -1.02861,0.74733l-2.62773,-1.38148c-0.20653,-0.10858 -0.45326,-0.10858 -0.65979,0l-2.62773,1.38148c-0.5201,0.27343 -1.12794,-0.16821 -1.02861,-0.74733l0.50185,-2.92602c0.03944,-0.22997 -0.0368,-0.46463 -0.20389,-0.62749l-2.12589,-2.07222c-0.42075,-0.41014 -0.18857,-1.12472 0.3929,-1.20921l2.9379,-0.4269c0.23091,-0.03355 0.43051,-0.17858 0.53378,-0.38781l1.31386,-2.66218c0.26003,-0.5269 1.01139,-0.5269 1.27143,0z" fill="url(#color-2)" stroke-width="1"/><path d="M239.97895,154.80498l0.02106,0.02106l0.02106,-0.02106l16.50803,16.50803c0.70177,0.70177 0.70177,1.83955 0,2.54132l-4.65094,4.65099c-0.70177,0.70177 -1.83955,0.70177 -2.54134,0l-8.06615,-8.06616c-0.70177,-0.70177 -1.83955,-0.70177 -2.54132,0l-8.06616,8.06616c-0.70177,0.70177 -1.83955,0.70177 -2.54132,0l-4.65096,-4.65099c-0.70177,-0.70177 -0.70175,-1.83955 0,-2.54132z" fill="url(#color-3)" stroke-width="1"/><path d="M188.75,180c0,-28.3046 22.9454,-51.25 51.25,-51.25c28.3046,0 51.25,22.9454 51.25,51.25c0,28.3046 -22.9454,51.25 -51.25,51.25c-28.3046,0 -51.25,-22.9454 -51.25,-51.25z" fill="url(#color-4)" stroke-width="0"/></g></g></svg>