<svg version="1.1" xmlns="http://www.w3.org/2000/svg" xmlns:xlink="http://www.w3.org/1999/xlink" width="929.5807" height="360" viewBox="0,0,929.5807,360"><defs><clipPath id="clip-1"><path d="M660,360v-360h480v360z" fill="none"/></clipPath></defs><g transform="translate(-210.41929,0)"><g data-paper-data="{&quot;isPaintingLayer&quot;:true}" fill-rule="nonzero" stroke="none" stroke-width="1" stroke-linecap="butt" stroke-linejoin="miter" stroke-miterlimit="10" stroke-dasharray="" stroke-dashoffset="0" style="mix-blend-mode: normal"><path d="M267.31929,163.65v12.2l-4.1,4.1l4.1,4.1v12.2l-12.2,12.2h-44.7v-16.3h36.6l2,-2l-2,-2h-36.6v-16.3h36.6l2,-2l-2,-2h-36.6v-16.3h44.7z" fill="#ff4a9b"/><path d="M269.58071,163.65v12.2l-4.1,4.1l4.1,4.1v12.2l-12.2,12.2h-44.7v-16.3h36.6l2,-2l-2,-2h-36.6v-16.3h36.6l2,-2l-2,-2h-36.6v-16.3h44.7z" fill="#4af9ff"/><g clip-path="url(#clip-1)"><image x="-0.00001" y="0" transform="scale(0.5,0.5)" width="0" height="0" xlink:href="data:," fill="#000000"/></g><path d="M268.45,163.65v12.2l-4.1,4.1l4.1,4.1v12.2l-12.2,12.2h-44.7v-16.3h36.6l2,-2l-2,-2h-36.6v-16.3h36.6l2,-2l-2,-2h-36.6v-16.3h44.7z" fill="#ffffff"/></g></g></svg>