<svg version="1.1" xmlns="http://www.w3.org/2000/svg" xmlns:xlink="http://www.w3.org/1999/xlink" width="43.44489" height="6.328" viewBox="0,0,43.44489,6.328"><g transform="translate(-218.668,-176.583)"><g data-paper-data="{&quot;isPaintingLayer&quot;:true}" fill="#000000" fill-rule="nonzero" stroke="none" stroke-width="1" stroke-linecap="butt" stroke-linejoin="miter" stroke-miterlimit="10" stroke-dasharray="" stroke-dashoffset="0" style="mix-blend-mode: normal"><path d="M220.523,180.608v2.237h-1.855v-6.262h1.855v2.236h2.782v-2.236h1.855v6.262h-1.855v-2.237z"/><path d="M226.088,181.503v-4.92h1.855v4.025l0.464,0.448h1.855l0.463,-0.448v-4.025h1.855v4.92l-1.391,1.342h-3.71z"/><path d="M235.363,179.713v3.131h-1.855v-6.261h1.391l3.246,3.13v-3.13h1.855v6.262h-1.391z"/><path d="M245.102,178.372v4.473h-1.855v-4.473h-2.318v-1.789h6.492v1.789z"/><path d="M250.202,181.056h3.71v1.789h-5.564v-6.262h5.564v1.789h-3.71v0.447h3.71v1.789h-3.71z"/><path d="M261.64989,177.991v1.789l-1.391,1.342l1.854,1.789h-2.782l-1.855,-1.789h-0.464v1.789h-1.854v-6.262h5.102zM259.79489,178.885l-0.464,-0.447h-2.319v0.894h2.319z"/></g></g></svg>