<svg version="1.1" xmlns="http://www.w3.org/2000/svg" xmlns:xlink="http://www.w3.org/1999/xlink" width="90.76079" height="24.98959" viewBox="0,0,90.76079,24.98959"><g transform="translate(-192.42712,-168.25146)"><g data-paper-data="{&quot;isPaintingLayer&quot;:true}" fill-rule="nonzero" stroke="none" stroke-linecap="butt" stroke-linejoin="miter" stroke-miterlimit="10" stroke-dasharray="" stroke-dashoffset="0" style="mix-blend-mode: normal"><g data-paper-data="{&quot;origPos&quot;:null}" fill="#ffcf00" stroke-width="1"><path d="M214.384,178.5378v-3.648l1.368,-1.368h3.646l1.368,1.368l-0.912,0.912h0.912v4.103h-5.014zM216.207,175.8018v1.823l0.456,0.457h2.279v-0.456h-1.823v-1.824h1.823l-0.455,-0.456h-1.824z"/><path d="M221.679,178.5378v-5.016h1.823v4.104l0.456,0.456h1.823l0.456,-0.456v-4.104h1.823v5.016l-1.367,1.367h-3.647z"/><path d="M230.796,176.7128v3.191h-1.823v-6.382h1.367l3.191,3.191v-3.191h1.823v6.383h-1.367z"/><path d="M238.583,178.5378v-3.648l1.367,-1.368h3.648l1.367,1.368l-0.911,0.912h0.911v4.103h-5.015zM240.406,175.8018v1.823l0.456,0.456h2.279v-0.455h-1.823v-1.824h1.823l-0.456,-0.456h-1.823z"/><path d="M247.017,173.5218h3.647l1.367,1.368v5.015h-1.823v-1.367h-2.735v1.367h-1.823v-5.015zM249.752,175.34578h-1.823l-0.456,0.456v0.911h2.735v-0.911z"/><path d="M254.767,176.25678v3.647h-1.823v-6.382h1.823l1.367,1.368l1.368,-1.368h1.823v6.383h-1.823v-3.648l-1.368,1.368z"/><path d="M262.061,178.0818h3.647v1.823h-5.471v-6.383h5.471v1.824h-3.647v0.456h3.647v1.823h-3.647z"/></g><g fill="#ffffff" stroke-width="1"><path d="M210.606,185.13753h0.249v0.935c-0.114,0.1 -0.25,0.177 -0.406,0.23c-0.156,0.054 -0.321,0.081 -0.493,0.081c-0.245,0 -0.466,-0.054 -0.662,-0.161c-0.196,-0.107 -0.35,-0.257 -0.462,-0.446c-0.112,-0.19 -0.168,-0.403 -0.168,-0.639c0,-0.236 0.056,-0.449 0.168,-0.639c0.112,-0.19 0.266,-0.34 0.462,-0.446c0.196,-0.107 0.417,-0.161 0.665,-0.161c0.187,0 0.358,0.029 0.515,0.089c0.156,0.06 0.288,0.147 0.396,0.265l-0.161,0.164c-0.194,-0.191 -0.44,-0.287 -0.739,-0.287c-0.198,0 -0.377,0.044 -0.537,0.132c-0.16,0.087 -0.285,0.209 -0.376,0.363c-0.091,0.155 -0.137,0.329 -0.137,0.521c0,0.192 0.045,0.363 0.137,0.518c0.091,0.154 0.216,0.275 0.375,0.364c0.158,0.089 0.337,0.133 0.535,0.133c0.252,0 0.466,-0.063 0.641,-0.189v-0.827z"/><path d="M213.318,186.13854v0.224h-1.732v-2.45h1.68v0.225h-1.421v0.871h1.267v0.221h-1.267v0.91h1.473z"/><path d="M214.403,184.13652h-0.861v-0.225h1.981v0.225h-0.861v2.226h-0.259z"/><path d="M217.613,185.21054l-0.5,0.508v0.644h-0.26v-2.45h0.259v1.48l1.438,-1.48h0.297l-1.061,1.109l1.134,1.341h-0.308z"/><path d="M219.341,183.91153h0.259v2.45h-0.259z"/><path d="M220.398,183.91153h0.259v2.227h1.372v0.224h-1.631z"/><path d="M222.46,183.91153h0.259v2.227h1.372v0.224h-1.631z"/><path d="M224.646,186.29554c-0.167,-0.059 -0.296,-0.136 -0.387,-0.231l0.102,-0.199c0.088,0.089 0.207,0.16 0.354,0.215c0.147,0.056 0.298,0.083 0.455,0.083c0.219,0 0.384,-0.041 0.493,-0.121c0.11,-0.08 0.165,-0.185 0.165,-0.313c0,-0.098 -0.03,-0.176 -0.089,-0.234c-0.059,-0.059 -0.132,-0.104 -0.219,-0.135c-0.086,-0.031 -0.207,-0.065 -0.36,-0.104c-0.184,-0.046 -0.332,-0.091 -0.441,-0.135c-0.11,-0.043 -0.204,-0.108 -0.282,-0.197c-0.078,-0.089 -0.117,-0.209 -0.117,-0.36c0,-0.124 0.033,-0.236 0.098,-0.338c0.065,-0.102 0.166,-0.183 0.301,-0.243c0.135,-0.06 0.303,-0.091 0.504,-0.091c0.14,0 0.277,0.019 0.411,0.058c0.134,0.038 0.25,0.092 0.349,0.159l-0.088,0.206c-0.103,-0.067 -0.212,-0.118 -0.329,-0.152c-0.117,-0.033 -0.231,-0.051 -0.343,-0.051c-0.215,0 -0.376,0.042 -0.485,0.125c-0.108,0.083 -0.163,0.189 -0.163,0.32c0,0.098 0.03,0.177 0.089,0.236c0.059,0.059 0.134,0.104 0.224,0.136c0.089,0.032 0.21,0.066 0.362,0.104c0.18,0.044 0.325,0.088 0.436,0.131c0.111,0.044 0.205,0.109 0.282,0.196c0.077,0.088 0.115,0.206 0.115,0.355c0,0.124 -0.033,0.236 -0.1,0.338c-0.067,0.102 -0.168,0.182 -0.306,0.241c-0.138,0.059 -0.307,0.09 -0.507,0.09c-0.183,-0.001 -0.357,-0.03 -0.524,-0.089z"/><path d="M228.039,184.13652h-0.861v-0.225h1.981v0.225h-0.861v2.226h-0.259z"/><path d="M229.948,186.22052c-0.197,-0.108 -0.351,-0.258 -0.462,-0.446c-0.111,-0.189 -0.166,-0.401 -0.166,-0.637c0,-0.236 0.055,-0.448 0.166,-0.638c0.111,-0.188 0.265,-0.338 0.462,-0.446c0.197,-0.108 0.417,-0.162 0.66,-0.162c0.243,0 0.461,0.054 0.656,0.161c0.195,0.106 0.348,0.256 0.46,0.446c0.112,0.189 0.168,0.402 0.168,0.639c0,0.235 -0.056,0.448 -0.168,0.639c-0.112,0.189 -0.265,0.339 -0.46,0.446c-0.195,0.107 -0.414,0.161 -0.656,0.161c-0.242,0 -0.463,-0.055 -0.66,-0.163zM231.133,186.02054c0.156,-0.088 0.279,-0.209 0.367,-0.364c0.089,-0.155 0.133,-0.328 0.133,-0.52c0,-0.192 -0.044,-0.365 -0.133,-0.521c-0.088,-0.154 -0.211,-0.276 -0.367,-0.363c-0.156,-0.088 -0.332,-0.132 -0.525,-0.132c-0.194,0 -0.37,0.044 -0.527,0.132c-0.158,0.087 -0.281,0.209 -0.371,0.363c-0.09,0.155 -0.135,0.329 -0.135,0.521c0,0.192 0.045,0.364 0.135,0.52c0.09,0.156 0.213,0.276 0.371,0.364c0.157,0.087 0.333,0.131 0.527,0.131c0.193,0 0.369,-0.044 0.525,-0.131z"/><path d="M233.39,183.91153h0.259v2.227h1.372v0.224h-1.631z"/><path d="M237.184,186.13854v0.224h-1.732v-2.45h1.68v0.225h-1.421v0.871h1.267v0.221h-1.267v0.91h1.473z"/><path d="M239.795,183.91153l-1.085,2.45h-0.255l-1.085,-2.45h0.28l0.938,2.128l0.945,-2.128z"/><path d="M241.881,186.13854v0.224h-1.733v-2.45h1.681v0.225h-1.421v0.871h1.267v0.221h-1.267v0.91h1.473z"/><path d="M242.489,183.91153h0.26v2.227h1.372v0.224h-1.632z"/><path d="M245.713,186.10954c-0.177,-0.182 -0.266,-0.447 -0.266,-0.795v-1.403h0.259v1.394c0,0.284 0.064,0.497 0.192,0.637c0.129,0.14 0.314,0.21 0.557,0.21c0.245,0 0.432,-0.07 0.561,-0.21c0.128,-0.14 0.192,-0.353 0.192,-0.637v-1.394h0.252v1.403c0,0.348 -0.088,0.613 -0.265,0.795c-0.176,0.182 -0.423,0.273 -0.74,0.273c-0.317,0 -0.564,-0.091 -0.742,-0.273z"/><path d="M249.892,184.13652c0.178,0.149 0.267,0.354 0.267,0.615c0,0.262 -0.089,0.467 -0.267,0.614c-0.177,0.148 -0.422,0.223 -0.734,0.223h-0.658v0.773h-0.259v-2.45h0.917c0.312,0 0.557,0.075 0.734,0.225zM249.706,185.20153c0.129,-0.106 0.192,-0.256 0.192,-0.45c0,-0.198 -0.063,-0.351 -0.192,-0.456c-0.128,-0.106 -0.313,-0.159 -0.557,-0.159h-0.65v1.225h0.65c0.244,-0.001 0.429,-0.053 0.557,-0.16z"/><path d="M252.51,185.51554v0.847h-0.256v-0.847l-0.979,-1.604h0.276l0.84,1.376l0.84,-1.376h0.259z"/><path d="M254.198,186.22052c-0.197,-0.108 -0.352,-0.258 -0.462,-0.446c-0.111,-0.189 -0.167,-0.401 -0.167,-0.637c0,-0.236 0.056,-0.448 0.167,-0.638c0.11,-0.188 0.265,-0.338 0.462,-0.446c0.197,-0.108 0.417,-0.162 0.659,-0.162c0.243,0 0.462,0.054 0.656,0.161c0.195,0.106 0.349,0.256 0.461,0.446c0.111,0.189 0.168,0.402 0.168,0.639c0,0.235 -0.057,0.448 -0.168,0.639c-0.112,0.189 -0.266,0.339 -0.461,0.446c-0.194,0.107 -0.413,0.161 -0.656,0.161c-0.242,0 -0.462,-0.055 -0.659,-0.163zM255.383,186.02054c0.156,-0.088 0.278,-0.209 0.367,-0.364c0.089,-0.155 0.133,-0.328 0.133,-0.52c0,-0.192 -0.044,-0.365 -0.133,-0.521c-0.089,-0.154 -0.211,-0.276 -0.367,-0.363c-0.156,-0.088 -0.331,-0.132 -0.525,-0.132c-0.193,0 -0.369,0.044 -0.526,0.132c-0.157,0.087 -0.281,0.209 -0.371,0.363c-0.09,0.155 -0.135,0.329 -0.135,0.521c0,0.192 0.045,0.364 0.135,0.52c0.09,0.156 0.214,0.276 0.371,0.364c0.157,0.087 0.333,0.131 0.526,0.131c0.194,0 0.369,-0.044 0.525,-0.131z"/><path d="M256.968,186.10954c-0.177,-0.182 -0.266,-0.447 -0.266,-0.795v-1.403h0.259v1.394c0,0.284 0.064,0.497 0.192,0.637c0.129,0.14 0.314,0.21 0.557,0.21c0.245,0 0.432,-0.07 0.561,-0.21c0.128,-0.14 0.192,-0.353 0.192,-0.637v-1.394h0.252v1.403c0,0.348 -0.088,0.613 -0.265,0.795c-0.176,0.182 -0.423,0.273 -0.74,0.273c-0.317,0 -0.565,-0.091 -0.742,-0.273z"/><path d="M261.169,186.36153l-0.561,-0.787c-0.063,0.007 -0.128,0.01 -0.195,0.01h-0.658v0.777h-0.259v-2.45h0.917c0.313,0 0.558,0.075 0.734,0.225c0.178,0.149 0.267,0.354 0.267,0.615c0,0.191 -0.049,0.354 -0.146,0.485c-0.097,0.131 -0.235,0.227 -0.415,0.285l0.599,0.84zM260.962,185.20354c0.129,-0.107 0.192,-0.258 0.192,-0.452c0,-0.198 -0.063,-0.351 -0.192,-0.456c-0.128,-0.106 -0.313,-0.159 -0.557,-0.159h-0.65v1.229h0.65c0.243,-0.001 0.429,-0.054 0.557,-0.162z"/><path d="M264.668,185.13753h0.249v0.935c-0.114,0.1 -0.25,0.177 -0.406,0.23c-0.156,0.053 -0.32,0.081 -0.493,0.081c-0.245,0 -0.466,-0.054 -0.662,-0.161c-0.195,-0.107 -0.35,-0.257 -0.462,-0.446c-0.111,-0.19 -0.168,-0.403 -0.168,-0.639c0,-0.236 0.057,-0.449 0.168,-0.639c0.112,-0.19 0.267,-0.34 0.462,-0.446c0.196,-0.107 0.418,-0.161 0.665,-0.161c0.188,0 0.358,0.029 0.515,0.089c0.157,0.06 0.288,0.147 0.396,0.265l-0.161,0.164c-0.193,-0.191 -0.439,-0.287 -0.738,-0.287c-0.198,0 -0.377,0.044 -0.537,0.132c-0.16,0.087 -0.285,0.209 -0.376,0.363c-0.091,0.155 -0.137,0.329 -0.137,0.521c0,0.192 0.046,0.363 0.137,0.518c0.091,0.155 0.216,0.275 0.374,0.364c0.159,0.089 0.338,0.133 0.536,0.133c0.252,0 0.465,-0.063 0.64,-0.189v-0.827z"/><path d="M265.893,186.10954c-0.177,-0.182 -0.266,-0.447 -0.266,-0.795v-1.403h0.259v1.394c0,0.284 0.064,0.497 0.192,0.637c0.129,0.14 0.314,0.21 0.557,0.21c0.245,0 0.432,-0.07 0.561,-0.21c0.128,-0.14 0.192,-0.353 0.192,-0.637v-1.394h0.252v1.403c0,0.348 -0.088,0.613 -0.265,0.795c-0.176,0.182 -0.423,0.273 -0.74,0.273c-0.317,0 -0.565,-0.091 -0.742,-0.273z"/><path d="M270.467,183.91153v2.45h-0.213l-1.575,-1.988v1.988h-0.259v-2.45h0.213l1.579,1.988v-1.988z"/><path d="M271.106,186.32354c-0.037,-0.038 -0.055,-0.083 -0.055,-0.137c0,-0.054 0.018,-0.099 0.055,-0.135c0.036,-0.036 0.079,-0.055 0.131,-0.055c0.051,0 0.096,0.019 0.133,0.055c0.037,0.036 0.056,0.081 0.056,0.135c0,0.054 -0.019,0.099 -0.056,0.137c-0.037,0.037 -0.082,0.056 -0.133,0.056c-0.051,0 -0.094,-0.019 -0.131,-0.056z"/><path d="M209.44,189.33753h0.249v0.935c-0.114,0.1 -0.25,0.177 -0.406,0.23c-0.156,0.054 -0.321,0.081 -0.493,0.081c-0.245,0 -0.466,-0.054 -0.662,-0.161c-0.196,-0.107 -0.35,-0.257 -0.462,-0.446c-0.112,-0.191 -0.168,-0.404 -0.168,-0.639c0,-0.236 0.056,-0.449 0.168,-0.639c0.112,-0.19 0.266,-0.34 0.462,-0.446c0.196,-0.107 0.417,-0.161 0.665,-0.161c0.187,0 0.358,0.029 0.515,0.089c0.156,0.06 0.288,0.147 0.396,0.265l-0.161,0.164c-0.194,-0.191 -0.44,-0.287 -0.739,-0.287c-0.198,0 -0.377,0.044 -0.537,0.132c-0.16,0.087 -0.285,0.209 -0.376,0.363c-0.091,0.155 -0.137,0.329 -0.137,0.521c0,0.192 0.045,0.363 0.137,0.518c0.091,0.154 0.216,0.275 0.375,0.364c0.158,0.089 0.337,0.133 0.535,0.133c0.252,0 0.466,-0.063 0.641,-0.189v-0.827z"/><path d="M212.153,190.33853v0.224h-1.733v-2.45h1.68v0.225h-1.42v0.871h1.267v0.221h-1.267v0.91h1.473z"/><path d="M213.238,188.33654h-0.861v-0.225h1.981v0.225h-0.861v2.226h-0.259z"/><path d="M217.224,189.90754h-1.365l-0.294,0.654h-0.27l1.12,-2.45h0.255l1.12,2.45h-0.272zM217.129,189.69754l-0.588,-1.316l-0.588,1.316z"/><path d="M219.873,189.41052l-0.5,0.508v0.644h-0.259v-2.45h0.259v1.48l1.438,-1.48h0.297l-1.061,1.109l1.134,1.341h-0.308z"/><path d="M221.602,188.11153h0.259v2.45h-0.259z"/><path d="M222.659,188.11153h0.259v2.227h1.372v0.224h-1.631z"/><path d="M224.721,188.11153h0.259v2.227h1.372v0.224h-1.631z"/><path d="M231.063,188.11153l-0.826,2.45h-0.273l-0.718,-2.09l-0.721,2.09h-0.27l-0.826,-2.45h0.266l0.707,2.107l0.731,-2.107h0.242l0.721,2.118l0.718,-2.118z"/><path d="M231.536,188.11153h0.259v2.45h-0.259z"/><path d="M233.068,188.33654h-0.861v-0.225h1.981v0.225h-0.861v2.226h-0.259z"/><path d="M236.648,188.11153v2.45h-0.255v-1.131h-1.533v1.131h-0.259v-2.45h0.259v1.092h1.533v-1.092z"/><path d="M240.096,190.33853v0.224h-1.732v-2.45h1.68v0.225h-1.421v0.871h1.267v0.221h-1.267v0.91h1.473z"/><path d="M242.242,189.90754h-1.365l-0.294,0.654h-0.27l1.12,-2.45h0.255l1.121,2.45h-0.273zM242.147,189.69754l-0.588,-1.316l-0.588,1.316z"/><path d="M243.587,190.42252c-0.194,-0.107 -0.348,-0.257 -0.458,-0.446c-0.111,-0.19 -0.167,-0.403 -0.167,-0.639c0,-0.236 0.056,-0.449 0.167,-0.639c0.11,-0.19 0.264,-0.34 0.46,-0.446c0.196,-0.107 0.415,-0.161 0.658,-0.161c0.182,0 0.35,0.03 0.504,0.091c0.153,0.061 0.284,0.149 0.392,0.266l-0.164,0.165c-0.191,-0.194 -0.433,-0.291 -0.725,-0.291c-0.193,0 -0.37,0.045 -0.528,0.133c-0.159,0.089 -0.283,0.21 -0.373,0.364c-0.09,0.154 -0.135,0.327 -0.135,0.519c0,0.192 0.045,0.363 0.135,0.518c0.09,0.155 0.214,0.275 0.373,0.364c0.158,0.089 0.335,0.133 0.528,0.133c0.294,0 0.535,-0.098 0.725,-0.294l0.164,0.164c-0.107,0.117 -0.238,0.206 -0.394,0.269c-0.155,0.062 -0.324,0.093 -0.506,0.093c-0.242,-0.002 -0.461,-0.056 -0.656,-0.163z"/><path d="M247.743,188.11153v2.45h-0.255v-1.131h-1.533v1.131h-0.259v-2.45h0.259v1.092h1.533v-1.092z"/><path d="M251.184,189.33753h0.249v0.935c-0.114,0.1 -0.25,0.177 -0.406,0.23c-0.156,0.053 -0.32,0.081 -0.493,0.081c-0.245,0 -0.466,-0.054 -0.662,-0.161c-0.195,-0.107 -0.35,-0.257 -0.462,-0.446c-0.111,-0.19 -0.168,-0.403 -0.168,-0.639c0,-0.236 0.057,-0.449 0.168,-0.639c0.112,-0.19 0.267,-0.34 0.462,-0.446c0.196,-0.107 0.418,-0.161 0.665,-0.161c0.188,0 0.358,0.029 0.515,0.089c0.157,0.06 0.288,0.147 0.396,0.265l-0.161,0.164c-0.193,-0.191 -0.439,-0.287 -0.738,-0.287c-0.198,0 -0.377,0.044 -0.537,0.132c-0.16,0.087 -0.285,0.209 -0.376,0.363c-0.091,0.155 -0.137,0.329 -0.137,0.521c0,0.192 0.046,0.363 0.137,0.518c0.091,0.155 0.216,0.275 0.374,0.364c0.159,0.089 0.338,0.133 0.536,0.133c0.252,0 0.465,-0.063 0.64,-0.189v-0.827z"/><path d="M252.408,190.31053c-0.177,-0.182 -0.266,-0.447 -0.266,-0.795v-1.403h0.259v1.394c0,0.284 0.064,0.497 0.192,0.637c0.129,0.14 0.314,0.21 0.557,0.21c0.245,0 0.432,-0.07 0.561,-0.21c0.128,-0.14 0.192,-0.353 0.192,-0.637v-1.394h0.252v1.403c0,0.348 -0.088,0.613 -0.265,0.795c-0.176,0.182 -0.423,0.273 -0.74,0.273c-0.317,0 -0.564,-0.092 -0.742,-0.273z"/><path d="M256.982,188.11153v2.45h-0.213l-1.575,-1.988v1.988h-0.259v-2.45h0.213l1.579,1.988v-1.988z"/><path d="M259.174,188.33654h-0.861v-0.225h1.981v0.225h-0.861v2.226h-0.259z"/><path d="M261.084,190.42054c-0.197,-0.108 -0.352,-0.258 -0.462,-0.446c-0.111,-0.189 -0.167,-0.401 -0.167,-0.637c0,-0.236 0.056,-0.448 0.167,-0.638c0.11,-0.188 0.265,-0.338 0.462,-0.446c0.197,-0.108 0.417,-0.162 0.659,-0.162c0.243,0 0.462,0.054 0.656,0.161c0.195,0.106 0.349,0.256 0.461,0.446c0.111,0.189 0.168,0.402 0.168,0.639c0,0.235 -0.057,0.448 -0.168,0.639c-0.112,0.189 -0.266,0.339 -0.461,0.446c-0.194,0.107 -0.413,0.161 -0.656,0.161c-0.242,0 -0.462,-0.055 -0.659,-0.163zM262.269,190.22154c0.156,-0.088 0.278,-0.209 0.367,-0.364c0.089,-0.155 0.133,-0.328 0.133,-0.52c0,-0.192 -0.044,-0.365 -0.133,-0.521c-0.089,-0.154 -0.211,-0.276 -0.367,-0.363c-0.156,-0.088 -0.331,-0.132 -0.525,-0.132c-0.193,0 -0.369,0.044 -0.526,0.132c-0.157,0.087 -0.281,0.209 -0.371,0.363c-0.09,0.155 -0.135,0.329 -0.135,0.521c0,0.192 0.045,0.364 0.135,0.52c0.09,0.156 0.214,0.276 0.371,0.364c0.157,0.087 0.333,0.131 0.526,0.131c0.193,0 0.368,-0.044 0.525,-0.131z"/><path d="M267.89,188.11153l-0.826,2.45h-0.273l-0.717,-2.09l-0.722,2.09h-0.27l-0.825,-2.45h0.266l0.707,2.107l0.731,-2.107h0.241l0.722,2.118l0.717,-2.118z"/><path d="M268.362,188.11153h0.259v2.45h-0.259z"/><path d="M271.466,188.11153v2.45h-0.213l-1.575,-1.988v1.988h-0.259v-2.45h0.213l1.579,1.988v-1.988z"/><path d="M272.189,190.52453c-0.037,-0.036 -0.055,-0.078 -0.055,-0.127c0,-0.052 0.018,-0.095 0.053,-0.128c0.035,-0.034 0.079,-0.051 0.133,-0.051c0.051,0 0.095,0.017 0.13,0.051c0.034,0.033 0.052,0.076 0.052,0.128c0,0.049 -0.018,0.091 -0.052,0.127c-0.035,0.036 -0.079,0.055 -0.13,0.055c-0.051,0 -0.094,-0.018 -0.131,-0.055zM272.173,188.11153h0.294l-0.052,1.715h-0.192z"/></g><path d="M192.42712,193.24105v-24.98959h90.76079v24.98959z" fill="none" stroke-width="0"/></g></g></svg>