<svg version="1.1" xmlns="http://www.w3.org/2000/svg" xmlns:xlink="http://www.w3.org/1999/xlink" width="38.723" height="6.262" viewBox="0,0,38.723,6.262"><g transform="translate(-220.639,-176.583)"><g data-paper-data="{&quot;isPaintingLayer&quot;:true}" fill="#000000" fill-rule="nonzero" stroke="none" stroke-width="1" stroke-linecap="butt" stroke-linejoin="miter" stroke-miterlimit="10" stroke-dasharray="" stroke-dashoffset="0" style="mix-blend-mode: normal"><g><path/><path d="M222.03,176.583h3.71l1.391,1.342v4.92h-1.855v-1.342h-2.782v1.342h-1.855v-4.92zM224.813,178.372h-1.855l-0.464,0.447v0.895h2.782v-0.895z"/><path d="M234.551,177.925v1.789l-1.391,1.342l1.855,1.789h-2.782l-1.855,-1.789h-0.464v1.789h-1.855v-6.262h5.101zM232.696,178.819l-0.463,-0.447h-2.319v0.894h2.319z"/><path d="M240.581,176.583l1.39,1.342l-1.39,1.341l-0.928,-0.894h-1.855l-0.464,0.447v1.789l0.464,0.448h1.855l0.928,-0.895l1.39,1.342l-1.39,1.342h-3.71l-1.391,-1.342v-3.578l1.391,-1.342z"/><path d="M246.841,178.372v4.473h-1.855v-4.473h-2.318v-1.789h6.492v1.789z"/><path d="M251.941,182.845h-1.854v-6.262h1.854z"/><path d="M257.971,176.583l1.391,1.342l-1.391,1.341l-0.928,-0.894h-1.855l-0.464,0.447v1.789l0.464,0.448h1.855l0.928,-0.895l1.391,1.342l-1.391,1.342h-3.71l-1.392,-1.342v-3.578l1.392,-1.342z"/><path/></g></g></g></svg>