<svg version="1.1" xmlns="http://www.w3.org/2000/svg" xmlns:xlink="http://www.w3.org/1999/xlink" width="29.61" height="30.16868" viewBox="0,0,29.61,30.16868"><defs><linearGradient x1="240" y1="164.91566" x2="240" y2="195.08434" gradientUnits="userSpaceOnUse" id="color-1"><stop offset="0" stop-color="#000000"/><stop offset="1" stop-color="#000000" stop-opacity="0"/></linearGradient><linearGradient x1="232.44451" y1="181.54" x2="232.44451" y2="188.162" gradientUnits="userSpaceOnUse" id="color-2"><stop offset="0" stop-color="#ffffff"/><stop offset="1" stop-color="#fefefe"/></linearGradient><linearGradient x1="240.04941" y1="171.848" x2="240.04941" y2="184.867" gradientUnits="userSpaceOnUse" id="color-3"><stop offset="0" stop-color="#ffffff"/><stop offset="1" stop-color="#fefefe"/></linearGradient><linearGradient x1="231.33911" y1="171.839" x2="231.33911" y2="184.872" gradientUnits="userSpaceOnUse" id="color-4"><stop offset="0" stop-color="#ffffff"/><stop offset="1" stop-color="#fefefe"/></linearGradient><linearGradient x1="241.25931" y1="180.1268" x2="241.25931" y2="185.389" gradientUnits="userSpaceOnUse" id="color-5"><stop offset="0" stop-color="#ffffff"/><stop offset="1" stop-color="#fefefe"/></linearGradient><linearGradient x1="236.96321" y1="176.1" x2="236.96321" y2="178.271" gradientUnits="userSpaceOnUse" id="color-6"><stop offset="0" stop-color="#ffffff"/><stop offset="1" stop-color="#fefefe"/></linearGradient><linearGradient x1="235.14801" y1="180.1362" x2="235.14801" y2="185.43" gradientUnits="userSpaceOnUse" id="color-7"><stop offset="0" stop-color="#ffffff"/><stop offset="1" stop-color="#fefefe"/></linearGradient></defs><g transform="translate(-225.195,-164.91566)"><g data-paper-data="{&quot;isPaintingLayer&quot;:true}" fill-rule="nonzero" stroke="none" stroke-linecap="butt" stroke-linejoin="miter" stroke-miterlimit="10" stroke-dasharray="" stroke-dashoffset="0" style="mix-blend-mode: normal"><path d="M225.195,195.08434v-30.16868h29.61v30.16868z" fill="url(#color-1)" stroke-width="0"/><path d="M247.60501,185.982c0.033,0.022 0.052,0.058 0.054,0.097c0.002,0.039 -0.015,0.077 -0.044,0.102l-0.068,0.057c-0.308,0.261 -0.587,0.495 -0.868,0.724c-0.954,0.773 -2.156,1.199 -3.385,1.199c-1.121,0 -2.194,-0.344 -3.104,-0.993c-0.102,-0.072 -0.156,-0.081 -0.188,-0.081c-0.054,0 -0.116,0.03 -0.221,0.104c-0.912,0.635 -1.979,0.971 -3.088,0.971c-1.499,0 -2.936,-0.629 -3.941,-1.724c-0.048,-0.055 -0.093,-0.108 -0.143,-0.168c-0.04,-0.049 -0.084,-0.1 -0.134,-0.158c-0.022,-0.026 -0.033,-0.059 -0.03,-0.093c0.003,-0.033 0.019,-0.065 0.045,-0.086c0.102,-0.084 0.18,-0.147 0.263,-0.213l0.048,-0.039c0.049,-0.041 0.119,-0.036 0.164,0.007c1.613,1.533 3.091,1.738 4.624,0.657c1.333,-0.944 1.67,-2.353 1.062,-4.437c-0.012,-0.042 -0.001,-0.087 0.028,-0.119c0.096,-0.106 0.249,-0.247 0.459,-0.247c0.13,0 0.266,0.054 0.413,0.165c0.271,0.201 0.626,0.202 0.884,-0.001c0.141,-0.111 0.273,-0.166 0.404,-0.166c0.184,0 0.332,0.107 0.465,0.221c0.038,0.032 0.053,0.083 0.039,0.13c-0.636,2.179 -0.234,3.643 1.265,4.605c0.536,0.345 1.059,0.512 1.598,0.512c0.856,0 1.776,-0.431 2.813,-1.32c0.045,-0.037 0.108,-0.04 0.153,-0.007c0.093,0.066 0.193,0.135 0.433,0.301z" data-paper-data="{&quot;origPos&quot;:null}" fill="url(#color-2)" stroke-width="1"/><path d="M248.42101,184.385c-0.026,0.086 -0.058,0.169 -0.091,0.254c-0.019,0.048 -0.037,0.096 -0.056,0.145c-0.017,0.051 -0.065,0.083 -0.117,0.083c-0.011,0 -0.021,-0.001 -0.032,-0.004c-0.267,-0.071 -0.499,-0.194 -0.394,-0.608c0.441,-1.716 -0.159,-3.169 -1.604,-3.888c-0.502,-0.249 -1.037,-0.375 -1.591,-0.375c-1.088,0 -2.104,0.493 -2.789,1.35l-0.195,0.244c-0.031,0.041 -0.084,0.056 -0.134,0.043c-0.285,-0.085 -0.583,-0.217 -0.518,-0.709c0.046,-0.354 -0.132,-0.656 -0.463,-0.789c-0.441,-0.176 -0.416,-0.484 -0.352,-0.784c0.011,-0.05 0.05,-0.088 0.1,-0.097l0.183,-0.032c0.123,-0.022 0.246,-0.043 0.368,-0.069c1.607,-0.348 2.763,-1.723 2.811,-3.343c0.043,-1.543 -0.969,-2.833 -2.578,-3.286c-0.133,-0.036 -0.298,-0.08 -0.365,-0.226c-0.045,-0.099 -0.032,-0.222 0.041,-0.375c0.023,-0.047 0.072,-0.077 0.126,-0.07c0.846,0.093 1.637,0.408 2.349,0.937c1.595,1.186 2.341,2.785 2.218,4.754c-0.017,0.247 0.016,0.341 0.248,0.45c2.436,1.142 3.629,3.833 2.835,6.395z" data-paper-data="{&quot;origPos&quot;:null}" fill="url(#color-3)" stroke-width="1"/><path d="M232.23801,184.197c0.039,0.154 0.069,0.316 -0.018,0.454c-0.068,0.109 -0.195,0.178 -0.399,0.219c-0.008,0.001 -0.016,0.002 -0.024,0.002c-0.058,0 -0.108,-0.039 -0.122,-0.096c-0.031,-0.13 -0.065,-0.259 -0.1,-0.389c-0.078,-0.289 -0.158,-0.588 -0.194,-0.892c-0.286,-2.344 0.909,-4.509 3.044,-5.515c0.2,-0.094 0.243,-0.167 0.227,-0.39c-0.184,-2.698 1.492,-5.024 4.074,-5.656c0.108,-0.026 0.219,-0.045 0.327,-0.064l0.152,-0.027c0.055,-0.016 0.113,0.018 0.137,0.07c0.054,0.118 0.107,0.271 0.042,0.403c-0.046,0.094 -0.14,0.156 -0.287,0.19c-1.435,0.329 -2.803,1.63 -2.639,3.48c0.153,1.735 1.392,2.974 3.232,3.235c0.031,0.005 0.055,0.014 0.083,0.025l0.04,0.016c0.038,0.013 0.067,0.044 0.078,0.083c0.078,0.282 0.124,0.599 -0.341,0.789c-0.33,0.136 -0.507,0.439 -0.463,0.792c0.059,0.477 -0.225,0.623 -0.51,0.703c-0.047,0.013 -0.099,-0.003 -0.13,-0.04l-0.253,-0.306c-0.68,-0.819 -1.68,-1.289 -2.744,-1.289c-0.355,0 -0.707,0.054 -1.046,0.159c-1.764,0.545 -2.634,2.17 -2.166,4.044z" data-paper-data="{&quot;origPos&quot;:null}" fill="url(#color-4)" stroke-width="1"/><path d="M241.26801,184.398c-0.045,-0.147 0.094,-0.36 0.208,-0.421c1.322,-0.714 1.951,-1.792 1.926,-3.296c-0.003,-0.162 0.165,-0.382 0.32,-0.421c0.212,-0.056 0.435,-0.081 0.649,-0.104c0.082,-0.008 0.163,-0.017 0.242,-0.028c0.073,-0.009 0.123,0.032 0.138,0.094c0.44,1.791 -0.741,4.379 -2.979,5.16c-0.014,0.005 -0.027,0.007 -0.041,0.007c-0.05,0 -0.096,-0.03 -0.116,-0.079c-0.033,-0.083 -0.067,-0.166 -0.101,-0.248c-0.087,-0.214 -0.178,-0.436 -0.246,-0.664z" data-paper-data="{&quot;origPos&quot;:null}" fill="url(#color-5)" stroke-width="1"/><path d="M237.00201,177.175c0.715,-0.673 1.833,-1.075 2.99,-1.075c1.117,0 2.183,0.371 3,1.045c0.053,0.044 0.062,0.12 0.02,0.174c-0.163,0.207 -0.32,0.406 -0.479,0.607l-0.234,0.298c-0.026,0.03 -0.062,0.047 -0.099,0.047c-0.023,0 -0.048,-0.007 -0.069,-0.021c-1.452,-0.961 -2.805,-0.961 -4.26,-0.003c-0.054,0.034 -0.125,0.024 -0.166,-0.026l-0.714,-0.878c-0.041,-0.051 -0.036,-0.125 0.011,-0.168z" data-paper-data="{&quot;origPos&quot;:null}" fill="url(#color-6)" stroke-width="1"/><path d="M238.34201,183.876c0.088,0.052 0.179,0.1 0.289,0.16l0.116,0.062c0.056,0.03 0.08,0.097 0.057,0.157l-0.438,1.096c-0.013,0.032 -0.039,0.057 -0.071,0.07c-0.014,0.006 -0.03,0.009 -0.045,0.009c-0.019,0 -0.037,-0.004 -0.055,-0.013c-0.066,-0.032 -0.129,-0.061 -0.188,-0.088c-0.137,-0.064 -0.255,-0.119 -0.37,-0.188c-1.71,-1.019 -2.546,-2.545 -2.486,-4.533c0.011,-0.37 0.172,-0.528 0.54,-0.454c0.082,0.016 0.165,0.023 0.249,0.03l0.04,0.003c0.398,0.039 0.642,0.17 0.633,0.701c-0.021,1.29 0.56,2.295 1.729,2.988z" data-paper-data="{&quot;origPos&quot;:null}" fill="url(#color-7)" stroke-width="1"/></g></g></svg>