<svg version="1.1" xmlns="http://www.w3.org/2000/svg" xmlns:xlink="http://www.w3.org/1999/xlink" width="29.61" height="30.16868" viewBox="0,0,29.61,30.16868"><defs><linearGradient x1="240" y1="164.91566" x2="240" y2="195.08434" gradientUnits="userSpaceOnUse" id="color-1"><stop offset="0" stop-color="#000000"/><stop offset="1" stop-color="#000000" stop-opacity="0"/></linearGradient></defs><g transform="translate(-225.195,-164.91566)"><g data-paper-data="{&quot;isPaintingLayer&quot;:true}" fill-rule="nonzero" stroke="none" stroke-linecap="butt" stroke-linejoin="miter" stroke-miterlimit="10" stroke-dasharray="" stroke-dashoffset="0" style="mix-blend-mode: normal"><path d="M225.195,195.08434v-30.16868h29.61v30.16868z" fill="url(#color-1)" stroke-width="0"/><path d="M243.25594,185.03746h-6.51114v-1.89815c-1.57559,-0.34996 -2.6143,-1.20667 -2.6143,-3.28336c0,-3.30724 2.62839,-4.89339 5.87026,-4.89339c3.24187,0 5.8688,1.58616 5.8688,4.89339c0,2.07742 -1.03938,2.9334 -2.61363,3.28336zM239.23615,180.4512c0,-0.82081 -0.68522,-1.48562 -1.52924,-1.48562c-0.84541,0 -1.52991,0.66481 -1.52991,1.48562c0,0.81941 0.68449,1.48562 1.52991,1.48562c0.84402,0.00006 1.52924,-0.66621 1.52924,-1.48562zM240.64164,182.11675c0,-1.13639 -0.64094,-2.05913 -0.64094,-2.05913c0,0 -0.64094,0.92274 -0.64094,2.05913zM242.29389,181.93688c0.84402,0 1.52924,-0.66621 1.52924,-1.48562c0,-0.82081 -0.68522,-1.48562 -1.52924,-1.48562c-0.84541,0 -1.52924,0.66481 -1.52924,1.48562c0,0.81935 0.68377,1.48562 1.52924,1.48562z" fill="#ffffff" stroke-width="1"/><path d="M235.42477,186.28585l1.13918,1.13918h-3.98887v-3.98887l1.13912,1.13912v1.71057zM233.7142,175.00554l-1.13912,1.13912v-3.5696h3.56966l-1.13912,1.13912h-1.29142zM246.28592,184.99444l1.13912,-1.13912v3.56966h-3.5696l1.13912,-1.13912h1.29135zM243.43617,172.57513h3.98887v3.98881l-1.13912,-1.13912v-1.71063h-1.71063l-1.13912,-1.13912z" fill="#ffffff" stroke-width="1"/></g></g></svg>