<svg version="1.1" xmlns="http://www.w3.org/2000/svg" xmlns:xlink="http://www.w3.org/1999/xlink" width="114.66069" height="19.28895" viewBox="0,0,114.66069,19.28895"><g transform="translate(-182.91204,-176.75293)"><g data-paper-data="{&quot;isPaintingLayer&quot;:true}" fill="#000000" fill-rule="nonzero" stroke="none" stroke-width="1" stroke-linecap="butt" stroke-linejoin="miter" stroke-miterlimit="10" stroke-dasharray="" stroke-dashoffset="0" style="mix-blend-mode: normal"><path d="M208.09009,176.75293h3.71094l1.3916,1.3916v5.10254h-1.85547v-1.3916h-2.7832v1.3916h-1.85547v-5.10254zM210.87329,178.6084h-1.85547l-0.46387,0.46387v0.92773h2.7832v-0.92773z"/><path d="M214.12036,181.85547v-5.10254h1.85547v4.1748l0.46387,0.46387h1.85547l0.46387,-0.46387v-4.1748h1.85547v5.10254l-1.3916,1.3916h-3.71094z"/><path d="M225.71704,178.6084v4.63867h-1.85547v-4.63867h-2.31933v-1.85547h6.49414v1.85547z"/><path d="M228.73218,181.85547v-3.71094l1.3916,-1.3916h3.71094l1.3916,1.3916v3.71094l-1.3916,1.3916h-3.71094zM230.58765,179.07226v1.85547l0.46387,0.46387h1.85547l0.46387,-0.46387v-1.85547l-0.46387,-0.46387h-1.85547z"/><path d="M238.5105,176.75293h1.85547v4.63867h3.71094v1.85547h-5.56641z"/><path d="M246.39624,176.75293h3.71094l1.3916,1.3916v5.10254h-1.85547v-1.3916h-2.7832v1.3916h-1.85547v-5.10254zM249.17944,178.6084h-1.85547l-0.46387,0.46387v0.92773h2.7832v-0.92773z"/><path d="M252.42652,178.14453l1.3916,-1.3916h5.10254v1.85547h-4.1748l-0.23145,0.23145l0.23145,0.23242h2.78418l1.39062,1.3916v1.3916l-1.39062,1.3916h-5.10352v-1.85547h4.17578l0.23242,-0.23242l-0.23242,-0.23145h-2.78418l-1.3916,-1.3916z"/><path d="M261.70484,181.3916h3.71094v1.85547h-5.56641v-6.49414h5.56641v1.85547h-3.71094v0.46387h3.71094v1.85547h-3.71094z"/><path d="M272.83765,178.14453v1.85547l-1.3916,1.3916l1.85547,1.85547h-2.7832l-1.85547,-1.85547h-0.46387v1.85547h-1.85547v-6.49414h5.10254zM270.98218,179.07226l-0.46387,-0.46387h-2.31934v0.92773h2.31934z"/><text transform="translate(183.00262,193.55001) scale(0.18116,0.19935)" font-size="40" xml:space="preserve" fill="#000000" fill-rule="nonzero" stroke="none" stroke-width="1" stroke-linecap="butt" stroke-linejoin="miter" stroke-miterlimit="10" stroke-dasharray="" stroke-dashoffset="0" font-family="Sans Serif" font-weight="normal" text-anchor="start" style="mix-blend-mode: normal"><tspan x="0" dy="0">Fires deadly lasers at a rapid rate</tspan></text></g></g></svg>