<svg version="1.1" xmlns="http://www.w3.org/2000/svg" xmlns:xlink="http://www.w3.org/1999/xlink" width="157.49688" height="14.53887" viewBox="0,0,157.49688,14.53887"><defs><linearGradient x1="240.00156" y1="179.98611" x2="318.74844" y2="179.98611" gradientUnits="userSpaceOnUse" id="color-1"><stop offset="0" stop-color="#000000"/><stop offset="1" stop-color="#000000" stop-opacity="0"/></linearGradient><linearGradient x1="239.99844" y1="180.01389" x2="161.25156" y2="180.01389" gradientUnits="userSpaceOnUse" id="color-2"><stop offset="0" stop-color="#000000"/><stop offset="1" stop-color="#000000" stop-opacity="0"/></linearGradient></defs><g transform="translate(-161.25156,-172.73056)"><g data-paper-data="{&quot;isPaintingLayer&quot;:true}" fill-rule="nonzero" stroke="none" stroke-linecap="butt" stroke-linejoin="miter" stroke-miterlimit="10" stroke-dasharray="" stroke-dashoffset="0" style="mix-blend-mode: normal"><g stroke-width="0"><path d="M240.00156,187.24166v-14.51109h78.74688v14.51109z" fill="url(#color-1)"/><path d="M161.25156,187.26944v-14.51109h78.74688v14.51109z" data-paper-data="{&quot;index&quot;:null}" fill="url(#color-2)"/></g><path d="M225,180.5h-1.6v1.5h-1.2v-1.5h-1.6v-1h1.6v-1.5h1.2v1.5h1.6z" fill="#ffffff" stroke-width="1"/><path d="M232.9,181.8h-2.9l-0.6,1.3h-1.5l2.8,-6.3h1.4l2.8,6.3h-1.5zM232.5,180.7l-1,-2.4l-1,2.4z" fill="#ffffff" stroke-width="1"/><path d="M243.2,178.8c0.4,0.4 0.5,0.9 0.5,1.6v2.8h-1.4v-2.5c0,-0.4 -0.1,-0.7 -0.2,-0.9c-0.2,-0.3 -0.4,-0.3 -0.7,-0.3c-0.3,0 -0.6,0.1 -0.8,0.3c-0.2,0.2 -0.3,0.5 -0.3,0.9v2.4h-1.4v-2.5c0,-0.8 -0.3,-1.1 -0.9,-1.1c-0.3,0 -0.6,0.1 -0.8,0.3c-0.2,0.2 -0.3,0.5 -0.3,0.9v2.4h-1.4v-4.8h1.4v0.6c0.2,-0.2 0.4,-0.4 0.7,-0.5c0.3,-0.1 0.5,-0.2 0.9,-0.2c0.3,0 0.6,0.1 0.9,0.2c0.3,0.1 0.5,0.3 0.7,0.6c0.2,-0.3 0.4,-0.4 0.7,-0.6c0.3,-0.2 0.6,-0.2 1,-0.2c0.5,0 1,0.2 1.4,0.6z" fill="#ffffff" stroke-width="1"/><path d="M252.6,178.8c0.4,0.4 0.5,0.9 0.5,1.6v2.8h-1.4v-2.5c0,-0.4 -0.1,-0.7 -0.2,-0.9c-0.2,-0.3 -0.4,-0.3 -0.7,-0.3c-0.3,0 -0.6,0.1 -0.8,0.3c-0.2,0.2 -0.3,0.5 -0.3,0.9v2.4h-1.4v-2.5c0,-0.8 -0.3,-1.1 -0.9,-1.1c-0.3,0 -0.6,0.1 -0.8,0.3c-0.2,0.2 -0.3,0.5 -0.3,0.9v2.4h-1.4v-4.8h1.3v0.6c0.2,-0.2 0.4,-0.4 0.7,-0.5c0.3,-0.1 0.5,-0.2 0.9,-0.2c0.3,0 0.6,0.1 0.9,0.2c0.3,0.1 0.5,0.3 0.7,0.6c0.2,-0.3 0.4,-0.4 0.7,-0.6c0.3,-0.2 0.6,-0.2 1,-0.2c0.7,0 1.1,0.2 1.5,0.6z" fill="#ffffff" stroke-width="1"/><path d="M255.4,182.9c-0.4,-0.2 -0.7,-0.5 -0.9,-0.9c-0.2,-0.4 -0.3,-0.8 -0.3,-1.3c0,-0.5 0.1,-0.9 0.3,-1.3c0.2,-0.4 0.5,-0.7 0.9,-0.9c0.4,-0.2 0.9,-0.3 1.4,-0.3c0.5,0 1,0.1 1.4,0.3c0.4,0.2 0.7,0.5 0.9,0.9c0.2,0.4 0.3,0.8 0.3,1.3c0,0.5 -0.1,0.9 -0.3,1.3c-0.2,0.4 -0.5,0.7 -0.9,0.9c-0.4,0.2 -0.9,0.3 -1.4,0.3c-0.5,0 -1,-0.1 -1.4,-0.3zM257.6,181.7c0.2,-0.2 0.3,-0.6 0.3,-1c0,-0.4 -0.1,-0.7 -0.3,-1c-0.2,-0.2 -0.5,-0.4 -0.9,-0.4c-0.4,0 -0.7,0.1 -0.9,0.4c-0.2,0.2 -0.3,0.6 -0.3,1c0,0.4 0.1,0.7 0.3,1c0.2,0.2 0.5,0.4 0.9,0.4c0.4,0 0.7,-0.2 0.9,-0.4z" fill="#ffffff" stroke-width="1"/></g></g></svg>