<svg version="1.1" xmlns="http://www.w3.org/2000/svg" xmlns:xlink="http://www.w3.org/1999/xlink" width="36.16766" height="36.22492" viewBox="0,0,36.16766,36.22492"><g transform="translate(-222.12862,-161.88751)"><g data-paper-data="{&quot;isPaintingLayer&quot;:true}" fill="#ffffff" fill-rule="nonzero" stroke="none" stroke-width="1" stroke-linecap="butt" stroke-linejoin="miter" stroke-miterlimit="10" stroke-dasharray="" stroke-dashoffset="0" style="mix-blend-mode: normal"><g><path d="M233.60309,165.84088c-0.04779,-0.40381 -0.06378,-0.77173 -0.06378,-1.06543c0,-1.59497 2.92779,-2.88794 6.53937,-2.88794c3.61158,0 6.53931,1.29297 6.53931,2.88794c0,0.21192 -0.01917,0.61622 -0.07935,1.11176c-2.01252,-0.75568 -4.2215,-1.17493 -6.53864,-1.17493c-2.26398,0 -4.42181,0.40546 -6.39691,1.1286zM256.268,183.81398c-0.0885,7.90936 -7.33386,14.29846 -16.26788,14.29846c-8.93438,0 -16.17999,-6.38953 -16.26794,-14.29932c1.98492,6.35382 8.51703,11.0354 16.26782,11.0354c7.75043,0 14.28271,-4.68121 16.268,-11.03454z"/><path d="M238.71833,180.17237c-0.02906,1.1546 -1.13861,2.08337 -2.4762,2.07104c-1.33979,-0.01239 -2.35364,-0.95685 -2.26636,-2.1062c0.0874,-1.15136 1.19574,-2.07812 2.47723,-2.07098c1.27942,0.00708 2.2945,0.94959 2.26533,2.10614zM239.9107,179.62605c0,0 0.98511,1.3097 0.98181,2.91425l-2.03674,-0.01923c0.03705,-1.60144 1.05493,-2.89502 1.05493,-2.89502zM256.27618,179.78017c0,7.97669 -7.28711,14.44312 -16.27612,14.44312c-8.98907,0 -16.27612,-6.46643 -16.27612,-14.44312c0,-7.97669 7.28705,-14.44312 16.27612,-14.44312c8.98901,0 16.27612,6.46643 16.27612,14.44312zM245.62537,170.35914c0.22058,0.11859 0.49469,0.04785 0.60852,-0.15723l0.20544,-0.37207c0.11285,-0.20514 0.02496,-0.47009 -0.19452,-0.58868c-0.21918,-0.11853 -0.49084,-0.04773 -0.60443,0.15741l-0.20679,0.37201c-0.1145,0.20508 -0.0285,0.46991 0.19178,0.58856zM239.3927,168.06471l0.00158,0.42895c0.00086,0.23651 0.2027,0.43012 0.44849,0.43024c0.24579,0.00006 0.44495,-0.19342 0.44263,-0.42999l-0.00421,-0.42908c-0.00238,-0.23664 -0.20355,-0.43018 -0.44714,-0.43018c-0.2436,0 -0.4422,0.19355 -0.44135,0.43006zM238.67053,171.80005c-0.05017,0.09742 -0.10388,0.19373 -0.14496,0.29401c0.33911,-0.36578 0.80036,-0.6037 1.19214,-0.91101c0.45447,0.35456 1.00153,0.59308 1.43488,0.9856c-0.38989,-0.83215 -1.0191,-1.56775 -1.34991,-2.45099c-0.3877,0.70123 -0.77539,1.40253 -1.16315,2.10376zM233.2779,169.90248l0.21069,0.37097c0.11664,0.20465 0.3919,0.27557 0.61102,0.15765c0.21875,-0.11792 0.30121,-0.3819 0.18378,-0.58649l-0.21204,-0.37109c-0.11639,-0.20459 -0.38922,-0.27545 -0.60687,-0.15753c-0.21802,0.11798 -0.30225,0.3819 -0.18658,0.58649zM227.724,179.94806c0.01691,-0.23584 -0.18512,-0.42945 -0.44897,-0.4303l-0.47858,-0.0014c-0.26386,-0.0008 -0.49543,0.1914 -0.51453,0.42712c-0.01917,0.23578 0.18225,0.42939 0.44757,0.43024l0.48126,0.00153c0.26532,0.00086 0.49628,-0.1914 0.51325,-0.42719zM229.08179,185.41883c-0.12438,-0.20489 -0.42559,-0.27685 -0.6701,-0.15997l-0.44434,0.21204c-0.24549,0.11688 -0.34607,0.38013 -0.22278,0.58496c0.12359,0.2049 0.42669,0.27692 0.67291,0.1601l0.44568,-0.21198c0.24518,-0.11689 0.34332,-0.38019 0.21863,-0.58515zM229.52892,173.8799l-0.38531,-0.21454c-0.21198,-0.11829 -0.50037,-0.0481 -0.64148,0.15594c-0.14148,0.20404 -0.08368,0.46777 0.12903,0.58606l0.38666,0.21466c0.21375,0.11835 0.50391,0.04822 0.64429,-0.15582c0.14001,-0.20417 0.07977,-0.46796 -0.13319,-0.5863zM233.64434,189.42342c-0.2392,-0.11939 -0.55518,-0.05024 -0.70282,0.1535l-0.26874,0.36957c-0.14862,0.20373 -0.07415,0.46814 0.16608,0.58752c0.24066,0.11945 0.55908,0.05048 0.70703,-0.15338l0.2674,-0.36957c0.14692,-0.20386 0.07062,-0.46826 -0.16895,-0.58764zM240.70879,191.75068l-0.00476,-0.42908c-0.00262,-0.23663 -0.23639,-0.43151 -0.51953,-0.43304c-0.28315,-0.00158 -0.51392,0.19068 -0.51276,0.42725l0.00208,0.42896c0.00116,0.23657 0.23554,0.43139 0.52094,0.43304c0.28528,0.00164 0.5166,-0.19056 0.51403,-0.42713zM246.43451,188.82422c-0.22168,-0.77002 -0.44342,-1.54004 -0.66516,-2.31006l-0.00677,0.03693c-0.03339,-0.10431 -0.06348,-0.21039 -0.10535,-0.3103c0.0188,0.49847 -0.1391,0.9928 -0.19885,1.48712c-0.57202,0.07068 -1.12751,0.28888 -1.71149,0.31775c0.86407,0.31275 1.82916,0.38788 2.68762,0.77856zM247.65186,189.94564l-0.27441,-0.37354c-0.15082,-0.20594 -0.46778,-0.27857 -0.70496,-0.16132c-0.23755,0.11712 -0.30963,0.38153 -0.15961,0.58746l0.27307,0.37347c0.15113,0.20599 0.47046,0.27869 0.70917,0.1615c0.23828,-0.11718 0.30853,-0.38159 0.15674,-0.58757zM248.93163,179.40168c-0.39166,-4.70599 -4.3175,-6.96301 -8.93054,-6.96301c-4.61297,0 -8.59716,2.21802 -9.10632,6.84265c-0.3197,2.90393 1.21503,4.1189 3.71051,4.63605l-0.17712,2.66467l10.78711,0.13745l-0.10968,-2.69061c2.50568,-0.47028 4.07208,-1.6712 3.82604,-4.6272zM250.8211,174.52222l0.38324,-0.21442c0.21082,-0.11829 0.26484,-0.38336 0.12061,-0.58905c-0.14392,-0.20568 -0.43299,-0.27716 -0.64313,-0.15887l-0.38196,0.21448c-0.21105,0.11823 -0.26745,0.38318 -0.12469,0.58881c0.14313,0.20569 0.43408,0.27728 0.64593,0.15905zM252.21161,185.43726l-0.44727,-0.21704c-0.24609,-0.11957 -0.54602,-0.04986 -0.66711,0.15497c-0.12146,0.20484 -0.01935,0.47028 0.22754,0.58997l0.44849,0.21704c0.24786,0.11969 0.54962,0.05004 0.66992,-0.15479v-0.00006c0.11999,-0.20483 0.0155,-0.47039 -0.23157,-0.59009zM253.7184,179.86786c-0.02259,-0.23736 -0.25678,-0.43225 -0.52039,-0.43304l-0.47803,-0.00146c-0.26361,-0.00074 -0.46258,0.19275 -0.44214,0.43005c0.02044,0.2373 0.25402,0.43213 0.5191,0.43298l0.48065,0.00153c0.26507,0.00086 0.46344,-0.19269 0.44081,-0.43006zM245.82947,180.22511c0.05817,1.16254 -0.98046,2.09766 -2.31805,2.08533c-1.33978,-0.01239 -2.4234,-0.96325 -2.4234,-2.12048c0,-1.15918 1.03649,-2.09235 2.31805,-2.08527c1.27935,0.00708 2.36517,0.95599 2.4234,2.12042z"/><path d="M223.34347,174.23609c-0.9601,-3.43449 0.98459,-7.10014 4.50781,-8.32735c0.69562,-0.24229 1.4022,-0.37078 2.09922,-0.39772c-0.16734,0.04804 -0.33513,0.08968 -0.50165,0.14768c-3.80277,1.32458 -6.1787,4.86363 -6.10538,8.57739z"/><path d="M222.2767,170.92303c-0.58184,-2.08134 0.59667,-4.30278 2.73179,-5.04648c0.42155,-0.14684 0.84975,-0.2247 1.27215,-0.24103c-0.10141,0.02912 -0.20309,0.05435 -0.304,0.0895c-2.30453,0.80272 -3.74438,2.94743 -3.69994,5.19801z"/><path d="M257.08142,188.17363c0.9601,3.43449 -0.98459,7.10014 -4.50781,8.32735c-0.69561,0.2423 -1.4022,0.37079 -2.09921,0.39773c0.16733,-0.04805 0.33512,-0.08969 0.50164,-0.14769c3.80277,-1.32457 6.1787,-4.86362 6.10538,-8.57739z"/><path d="M258.14819,191.48669c0.58184,2.08134 -0.59667,4.30277 -2.73179,5.04648c-0.42155,0.14683 -0.84975,0.2247 -1.27215,0.24103c0.10141,-0.02911 0.20309,-0.05435 0.304,-0.0895c2.30453,-0.80271 3.74438,-2.94742 3.69994,-5.19801z"/></g></g></g></svg>