<svg version="1.1" xmlns="http://www.w3.org/2000/svg" xmlns:xlink="http://www.w3.org/1999/xlink" width="44.982" height="6.262" viewBox="0,0,44.982,6.262"><g transform="translate(-217.242,-176.649)"><g data-paper-data="{&quot;isPaintingLayer&quot;:true}" fill="#000000" fill-rule="nonzero" stroke="none" stroke-width="1" stroke-linecap="butt" stroke-linejoin="miter" stroke-miterlimit="10" stroke-dasharray="" stroke-dashoffset="0" style="mix-blend-mode: normal"><path d="M217.242,177.991l1.391,-1.342h5.101v1.789h-4.173l-0.232,0.224l0.232,0.223h2.782l1.391,1.342v1.342l-1.391,1.342h-5.101v-1.789h4.174l0.231,-0.224l-0.231,-0.224h-2.783l-1.391,-1.342z"/><path d="M224.662,181.569v-3.578l1.391,-1.342h3.71l1.391,1.342v3.578l-1.391,1.342h-3.71zM226.517,178.885v1.789l0.464,0.448h1.855l0.463,-0.448v-1.789l-0.463,-0.447h-1.855z"/><path d="M232.082,176.649h1.855v4.473h3.71v1.789h-5.565z"/><path d="M238.574,176.649h5.102l1.391,1.342v3.578l-1.391,1.342h-5.102zM240.428,178.438v2.684h2.32l0.463,-0.448v-1.789l-0.463,-0.447z"/><path d="M247.848,182.911h-1.854v-6.262h1.854z"/><path d="M250.631,181.122h3.71v1.789h-5.564v-6.262h5.564v1.789h-3.71v0.447h3.71v1.789h-3.71z"/><path d="M261.761,177.991v1.789l-1.391,1.342l1.854,1.789h-2.782l-1.855,-1.789h-0.464v1.789h-1.854v-6.262h5.102zM259.906,178.885l-0.464,-0.447h-2.319v0.894h2.319z"/></g></g></svg>