<svg version="1.1" xmlns="http://www.w3.org/2000/svg" xmlns:xlink="http://www.w3.org/1999/xlink" width="57.6404" height="18.4045" viewBox="0,0,57.6404,18.4045"><g transform="translate(-211.1798,-170.79775)"><g data-paper-data="{&quot;isPaintingLayer&quot;:true}" fill-rule="nonzero" stroke="none" stroke-width="1" stroke-linecap="butt" stroke-linejoin="miter" stroke-miterlimit="10" stroke-dasharray="" stroke-dashoffset="0" style="mix-blend-mode: normal"><path d="M266.4439,189.20225h-52.8877c-1.307,0 -2.3764,-1.0694 -2.3764,-2.3764v-13.6517c0,-1.307 1.0694,-2.3764 2.3764,-2.3764h52.8876c1.307,0 2.3764,1.0694 2.3764,2.3764v13.6517c0.0001,1.307 -1.0693,2.3764 -2.3763,2.3764z" fill="#000000"/><g fill="#3c3c3c"><path d="M225.2605,176.60675v5.8213h-1.1064l-2.9023,-3.5342v3.5342h-1.3301v-5.8213h1.1143l2.8936,3.5342v-3.5342z"/><path d="M227.825,182.13705c-0.4854,-0.2607 -0.8643,-0.6196 -1.1387,-1.0771c-0.2744,-0.457 -0.4121,-0.9712 -0.4121,-1.5425c0,-0.5708 0.1377,-1.085 0.4121,-1.5425c0.2744,-0.4575 0.6533,-0.8164 1.1387,-1.0771c0.4854,-0.2603 1.0303,-0.3906 1.6348,-0.3906c0.6035,0 1.1475,0.1304 1.6299,0.3906c0.4814,0.2607 0.8613,0.6196 1.1387,1.0771c0.2774,0.4575 0.416,0.9717 0.416,1.5425c0,0.5713 -0.1387,1.0854 -0.416,1.5425c-0.2773,0.4575 -0.6572,0.8164 -1.1387,1.0771c-0.4824,0.2607 -1.0264,0.3906 -1.6299,0.3906c-0.6045,0 -1.1494,-0.1299 -1.6348,-0.3906zM230.3904,181.14335c0.2773,-0.1582 0.4951,-0.3784 0.6533,-0.6611c0.1582,-0.2827 0.2363,-0.6045 0.2363,-0.9648c0,-0.3603 -0.0781,-0.6816 -0.2363,-0.9644c-0.1582,-0.2828 -0.376,-0.5034 -0.6533,-0.6611c-0.2773,-0.1582 -0.5879,-0.2373 -0.9307,-0.2373c-0.3447,0 -0.6543,0.0791 -0.9316,0.2373c-0.2773,0.1577 -0.4951,0.3784 -0.6533,0.6611c-0.1572,0.2827 -0.2363,0.604 -0.2363,0.9644c0,0.3604 0.0791,0.6821 0.2363,0.9648c0.1582,0.2827 0.376,0.5029 0.6533,0.6611c0.2773,0.1577 0.5869,0.2368 0.9316,0.2368c0.3428,0.0001 0.6534,-0.079 0.9307,-0.2368z"/><path d="M239.7215,182.42805l-1.123,-1.6216h-0.0664h-1.1729v1.6216h-1.3467v-5.8213h2.5195c0.5156,0 0.9629,0.0864 1.3428,0.2578c0.3799,0.1719 0.6729,0.416 0.8779,0.7319c0.205,0.3159 0.3076,0.6904 0.3076,1.1226c0,0.4326 -0.1045,0.8057 -0.3125,1.1187c-0.208,0.313 -0.5029,0.5527 -0.8857,0.7192l1.3057,1.8711zM239.3807,177.96665c-0.2109,-0.1748 -0.5186,-0.2622 -0.9238,-0.2622h-1.0977v2.0293h1.0977c0.4053,0 0.7129,-0.0889 0.9238,-0.2661c0.21,-0.1772 0.3154,-0.4268 0.3154,-0.7485c0,-0.3272 -0.1055,-0.5777 -0.3154,-0.7525z"/><path d="M245.9578,181.18045h-2.7021l-0.5156,1.2476h-1.3809l2.5947,-5.8213h1.3311l2.6025,5.8213h-1.4141zM245.534,180.15805l-0.9229,-2.229l-0.9229,2.229z"/><path d="M253.8338,176.60675v5.8213h-1.1064l-2.9023,-3.5342v3.5342h-1.3301v-5.8213h1.1143l2.8936,3.5342v-3.5342z"/><path d="M257.3338,180.14095l-0.7813,0.8154v1.4717h-1.3389v-5.8213h1.3389v2.7192l2.5781,-2.7192h1.4961l-2.4111,2.5947l2.5527,3.2266h-1.5713z"/></g></g></g></svg>