<svg version="1.1" xmlns="http://www.w3.org/2000/svg" xmlns:xlink="http://www.w3.org/1999/xlink" width="162.19708" height="19.28895" viewBox="0,0,162.19708,19.28895"><g transform="translate(-158.91204,-176.75293)"><g data-paper-data="{&quot;isPaintingLayer&quot;:true}" fill="#000000" fill-rule="nonzero" stroke="none" stroke-width="1" stroke-linecap="butt" stroke-linejoin="miter" stroke-miterlimit="10" stroke-dasharray="" stroke-dashoffset="0" style="mix-blend-mode: normal"><path d="M220.05373,179.53613v3.71094h-1.85547v-6.49414h1.85547l1.3916,1.3916l1.3916,-1.3916h1.85547v6.49414h-1.85547v-3.71094l-1.3916,1.3916z"/><path d="M225.62013,181.85547v-3.71094l1.3916,-1.3916h3.71094l1.3916,1.3916v3.71094l-1.3916,1.3916h-3.71094zM227.4756,179.07227v1.85547l0.46387,0.46387h1.85547l0.46387,-0.46387v-1.85547l-0.46387,-0.46387h-1.85547z"/><path d="M239.53615,178.14453v1.85547l-1.3916,1.3916l1.85547,1.85547h-2.7832l-1.85547,-1.85547h-0.46387v1.85547h-1.85547v-6.49414h5.10254zM237.68068,179.07227l-0.46387,-0.46387h-2.31934v0.92773h2.31934z"/><path d="M244.40724,178.6084v4.63867h-1.85547v-4.63867h-2.31982v-1.85547h6.49463v1.85547z"/><path d="M248.81349,176.75293h3.71094l1.3916,1.3916v5.10254h-1.85547v-1.3916h-2.7832v1.3916h-1.85547v-5.10254zM251.5967,178.6084h-1.85547l-0.46387,0.46387v0.92773h2.7832v-0.92773z"/><path d="M261.33888,178.14453v1.85547l-1.39258,1.3916l1.85547,1.85547h-2.7832l-1.85547,-1.85547h-0.46289v1.85547h-1.85645v-6.49414h5.10254zM259.48342,179.07227l-0.46484,-0.46387h-2.31836v0.92773h2.31836z"/><text transform="translate(159.00262,193.55001) scale(0.18116,0.19935)" font-size="40" xml:space="preserve" fill="#000000" fill-rule="nonzero" stroke="none" stroke-width="1" stroke-linecap="butt" stroke-linejoin="miter" stroke-miterlimit="10" stroke-dasharray="" stroke-dashoffset="0" font-family="Sans Serif" font-weight="normal" text-anchor="start" style="mix-blend-mode: normal"><tspan x="0" dy="0">Rain down a trio of explosives, slow movement</tspan></text></g></g></svg>