<svg version="1.1" xmlns="http://www.w3.org/2000/svg" xmlns:xlink="http://www.w3.org/1999/xlink" width="35.52109" height="35.59727" viewBox="0,0,35.52109,35.59727"><g transform="translate(-221.70789,-162.58224)"><g data-paper-data="{&quot;isPaintingLayer&quot;:true}" fill="#ffffff" fill-rule="nonzero" stroke="none" stroke-width="1" stroke-linecap="butt" stroke-linejoin="miter" stroke-miterlimit="10" stroke-dasharray="" stroke-dashoffset="0" style="mix-blend-mode: normal"><g><g><path d="M229.1795,176.3319l-2.41004,-3.25618c-0.79217,-0.81353 -0.38685,-1.48269 0.28238,-2.13435l1.66561,-1.62187c0.66922,-0.65165 1.34894,-1.03903 2.1411,-0.2255l3.18093,2.488c-1.52973,1.67302 -3.15223,3.25882 -4.85998,4.7499z"/><path d="M251.08232,188.27518c0.03829,0.03064 0.07767,0.05931 0.11282,0.0954c0.47015,0.48283 0.45985,1.25538 -0.02298,1.72553l-3.94836,3.84469c-0.48283,0.47015 -1.25538,0.45991 -1.72553,-0.02293c-0.03849,-0.03953 -0.06925,-0.08318 -0.10111,-0.12627c2.01198,-1.71445 3.91074,-3.55683 5.68516,-5.51642z"/><path d="M248.94202,185.737l1.13202,1.16254c0.23944,0.2459 0.34734,0.56645 0.33845,0.88437c-1.70465,1.89114 -3.52667,3.6727 -5.45589,5.33444c-0.32598,0.00685 -0.65351,-0.10823 -0.899,-0.36034l-1.16923,-1.20076c2.0817,-1.86821 4.10706,-3.80832 6.05365,-5.82025z"/><path d="M245.07898,181.7698l3.56607,3.66222c-1.94143,2.01582 -3.96294,3.96013 -6.04262,5.83158l-3.5771,-3.67356c2.0817,-1.86819 4.10704,-3.80834 6.05365,-5.82024z"/><path d="M229.34156,177.24242c1.99238,-1.69997 3.87344,-3.52568 5.63254,-5.46638c0.2622,0.03284 0.51535,0.14567 0.71455,0.35023l9.09337,9.33856c-1.94143,2.01582 -3.96294,3.96013 -6.04262,5.83158l-9.06719,-9.31167c-0.2039,-0.2094 -0.3083,-0.4728 -0.33065,-0.74232z"/></g><g><path d="M251.7643,172.16742l1.05517,-1.08352c0.25222,-0.34073 0.52312,-0.23155 0.80342,-0.02407l0.69762,0.51639c0.28029,0.20748 0.46384,0.43469 0.21162,0.77542l-0.72584,1.32146c-0.70831,-0.46324 -1.39005,-0.96591 -2.04199,-1.50568z"/><path d="M248.6782,180.95513c-0.00899,0.01595 -0.01719,0.03218 -0.02838,0.0473c-0.14969,0.20223 -0.43498,0.2448 -0.63721,0.09511l-1.6537,-1.22411c-0.20223,-0.14969 -0.24483,-0.43498 -0.09513,-0.6372c0.01225,-0.01656 0.02649,-0.03051 0.04046,-0.04484c0.75251,0.63846 1.54537,1.22752 2.37396,1.76374z"/><path d="M249.48499,180.0141l-0.36042,0.48691c-0.07624,0.10299 -0.18787,0.16199 -0.30556,0.1778c-0.79917,-0.51461 -1.56502,-1.07905 -2.29314,-1.69018c-0.02209,-0.11971 0.00065,-0.2473 0.07881,-0.35289l0.37227,-0.50292c0.81336,0.65493 1.64984,1.28477 2.50804,1.88128z"/><path d="M250.71494,178.35251l-1.1354,1.53386c-0.85933,-0.59438 -1.69712,-1.22255 -2.51155,-1.87653l1.13891,-1.53861c0.81336,0.65492 1.64984,1.28475 2.50804,1.88128z"/><path d="M251.43852,172.2818c0.746,0.63211 1.53166,1.21565 2.35237,1.74735c0.00364,0.09859 -0.02274,0.19864 -0.08616,0.28432l-2.89523,3.9113c-0.85933,-0.59438 -1.69712,-1.22255 -2.51155,-1.87653l2.88689,-3.90004c0.06491,-0.08771 0.1557,-0.14199 0.25368,-0.1664z"/></g><g><path d="M233.49555,190.76286l1.61289,0.911c0.48233,0.19221 0.43768,0.54715 0.27956,0.94393l-0.39354,0.98752c-0.15812,0.39677 -0.36983,0.68513 -0.85216,0.49292l-1.79176,-0.44663c0.32727,-0.98358 0.70952,-1.948 1.14501,-2.88874z"/><path d="M222.12432,189.85423c-0.0217,-0.00566 -0.04348,-0.0103 -0.06488,-0.01883c-0.28626,-0.11408 -0.42584,-0.43863 -0.31176,-0.72489l0.93288,-2.34092c0.11408,-0.28626 0.43862,-0.42586 0.72488,-0.31178c0.02344,0.00934 0.04441,0.02184 0.06574,0.0339c-0.52094,1.09068 -0.97078,2.2137 -1.34686,3.36252z"/><path d="M223.49084,190.51561l-0.68926,-0.27468c-0.14579,-0.0581 -0.25055,-0.17187 -0.30604,-0.3063c0.35969,-1.10723 0.78881,-2.19057 1.28501,-3.24382c0.13486,-0.06357 0.29307,-0.07651 0.44254,-0.01694l0.71191,0.2837c-0.52142,1.16789 -1.00592,2.35531 -1.44416,3.55804z"/><path d="M225.84294,191.45294l-2.17128,-0.86528c0.43536,-1.2034 0.91747,-2.39185 1.43745,-3.56071l2.178,0.86795c-0.52143,1.16789 -1.00592,2.35532 -1.44417,3.55804z"/><path d="M233.2583,190.41279c-0.51546,1.08099 -0.961,2.19375 -1.33421,3.33183c-0.11562,0.03511 -0.24235,0.03514 -0.36363,-0.01319l-5.5367,-2.20643c0.43536,-1.2034 0.91747,-2.39185 1.43745,-3.56071l5.52076,2.20008c0.12415,0.04947 0.2168,0.14003 0.27633,0.24842z"/></g><g><path d="M242.52276,169.66242l0.89145,0.50351c0.26659,0.10624 0.24191,0.30241 0.15452,0.52171l-0.21751,0.54581c-0.08739,0.2193 -0.20441,0.37868 -0.47099,0.27244l-0.99031,-0.24685c0.18087,-0.54362 0.39214,-1.07666 0.63284,-1.59662z"/><path d="M236.23783,169.16022c-0.01199,-0.00313 -0.02403,-0.0057 -0.03586,-0.01041c-0.15822,-0.06305 -0.23536,-0.24243 -0.17231,-0.40065l0.51561,-1.29384c0.06305,-0.15822 0.24243,-0.23537 0.40065,-0.17232c0.01295,0.00516 0.02455,0.01207 0.03633,0.01874c-0.28794,0.60282 -0.53656,1.22352 -0.74442,1.85848z"/><path d="M236.99311,169.52577l-0.38095,-0.15181c-0.08058,-0.03211 -0.13848,-0.09499 -0.16915,-0.16929c0.1988,-0.61197 0.43598,-1.21074 0.71023,-1.79288c0.07454,-0.03514 0.16198,-0.04229 0.2446,-0.00936l0.39348,0.1568c-0.28821,0.64549 -0.556,1.30178 -0.79821,1.96654z"/><path d="M238.29313,170.04384l-1.20008,-0.47824c0.24063,-0.66512 0.50709,-1.32199 0.79449,-1.96802l1.20379,0.47972c-0.2882,0.64549 -0.55598,1.30178 -0.7982,1.96654z"/><path d="M242.39163,169.46894c-0.28489,0.59747 -0.53115,1.2125 -0.73742,1.84152c-0.0639,0.01941 -0.13395,0.01942 -0.20098,-0.00729l-3.06016,-1.2195c0.24063,-0.66513 0.50709,-1.32199 0.79449,-1.96802l3.05135,1.21599c0.06861,0.02734 0.11982,0.07739 0.15272,0.1373z"/></g><g><path d="M225.97222,180.14768l0.53441,-0.21011c0.1433,-0.07455 0.20674,-0.01321 0.25439,0.07837l0.11857,0.22794c0.04764,0.09158 0.06144,0.17874 -0.08186,0.25328l-0.47732,0.31598c-0.13202,-0.21326 -0.24827,-0.43543 -0.34819,-0.66546z"/><path d="M223.33928,182.43426c-0.00584,0.00378 -0.01148,0.00774 -0.01784,0.01105c-0.08505,0.04424 -0.18186,0.02654 -0.21624,-0.03953l-0.28108,-0.54033c-0.03437,-0.06607 0.00671,-0.15551 0.09176,-0.19975c0.00696,-0.00362 0.01405,-0.00626 0.02112,-0.00904c0.11241,0.27011 0.24675,0.52982 0.40228,0.7776z"/><path d="M223.76932,182.24011l-0.20478,0.10653c-0.04332,0.02253 -0.08926,0.02821 -0.12886,0.02038c-0.15049,-0.23822 -0.28113,-0.48772 -0.39115,-0.7471c0.01593,-0.03798 0.0473,-0.07352 0.0917,-0.09663l0.21152,-0.11003c0.12818,0.28149 0.26833,0.55797 0.42157,0.82685z"/><path d="M224.46816,181.87658l-0.64511,0.33559c-0.154,-0.26836 -0.29487,-0.54449 -0.42357,-0.82581l0.64711,-0.33662c0.12817,0.28147 0.26832,0.55795 0.42157,0.82684z"/><path d="M225.84915,180.14703c0.11158,0.26753 0.24474,0.52482 0.39867,0.77042c-0.01764,0.02973 -0.0449,0.05669 -0.08093,0.07544l-1.64501,0.85574c-0.154,-0.26836 -0.29488,-0.54449 -0.42357,-0.82581l1.64028,-0.85327c0.03688,-0.01919 0.07545,-0.02568 0.11056,-0.02252z"/></g><g><path d="M252.50726,182.28629l-0.0672,-0.57028c-0.03563,-0.15756 0.03983,-0.2033 0.14052,-0.22607l0.25061,-0.05667c0.10069,-0.02277 0.18849,-0.01394 0.22412,0.14362l0.18411,0.54201c-0.23984,0.0734 -0.48427,0.12929 -0.73216,0.16739z"/><path d="M254.04856,185.41442c0.00218,0.00661 0.00457,0.01307 0.00615,0.02006c0.02114,0.09351 -0.02061,0.18263 -0.09326,0.19906l-0.59407,0.13433c-0.07265,0.01643 -0.14868,-0.04606 -0.16983,-0.13957c-0.00173,-0.00766 -0.00248,-0.01518 -0.00336,-0.02272c0.28983,-0.03997 0.57517,-0.10381 0.85437,-0.19116z"/><path d="M253.97023,184.94913l0.05091,0.22515c0.01077,0.04762 0.00456,0.0935 -0.01308,0.12981c-0.26867,0.08492 -0.54321,0.14776 -0.82204,0.18816c-0.03267,-0.02507 -0.05907,-0.06445 -0.07011,-0.11328l-0.05259,-0.23255c0.30485,-0.05234 0.60789,-0.11751 0.90691,-0.19729z"/><path d="M253.7965,184.18079l0.16038,0.70927c-0.29872,0.08064 -0.6016,0.14661 -0.90641,0.19948l-0.16087,-0.71147c0.30483,-0.05233 0.60788,-0.1175 0.9069,-0.19728z"/><path d="M252.47532,182.40514c0.28712,-0.03983 0.56982,-0.10314 0.84651,-0.1895c0.02426,0.02463 0.0434,0.05784 0.05236,0.09746l0.40896,1.80862c-0.29872,0.08064 -0.6016,0.14661 -0.90641,0.19948l-0.40778,-1.80341c-0.00918,-0.04055 -0.00564,-0.0795 0.00636,-0.11265z"/></g><g><path d="M238.93283,194.50238l0.21195,-0.53502c0.04048,-0.15638 0.14316,-0.1587 0.26119,-0.12815l0.29375,0.07603c0.11802,0.03055 0.20669,0.0824 0.16621,0.23878l-0.074,0.56888c-0.29064,-0.05592 -0.57745,-0.12954 -0.8591,-0.22052z"/><path d="M239.0131,198.02594c-0.00097,0.0069 -0.00164,0.01378 -0.00344,0.02072c-0.02402,0.09281 -0.11253,0.15018 -0.19768,0.12814l-0.69633,-0.18023c-0.08515,-0.02204 -0.13471,-0.11514 -0.11069,-0.20796c0.00197,-0.0076 0.00491,-0.01458 0.00772,-0.02166c0.32702,0.1104 0.66114,0.19757 1.00042,0.26099z"/><path d="M239.16113,197.57762l-0.05784,0.22347c-0.01224,0.04727 -0.04159,0.08448 -0.07832,0.10753c-0.32692,-0.06027 -0.64909,-0.14288 -0.96467,-0.24739c-0.02218,-0.03844 -0.0306,-0.08631 -0.01806,-0.13477l0.05974,-0.23082c0.34907,0.10707 0.70262,0.20195 1.05915,0.28198z"/><path d="M239.35852,196.81501l-0.18221,0.70398c-0.35664,-0.07911 -0.71041,-0.17322 -1.05971,-0.2798l0.18278,-0.70615c0.34906,0.10707 0.70261,0.20195 1.05914,0.28197z"/><path d="M238.83996,194.59081c0.32408,0.10916 0.65514,0.19548 0.99127,0.2585c0.01348,0.03382 0.01727,0.07264 0.0071,0.11196l-0.46463,1.79512c-0.35664,-0.07911 -0.71041,-0.17322 -1.05971,-0.2798l0.4633,-1.78996c0.0104,-0.04025 0.0335,-0.0727 0.06267,-0.09582z"/></g><path d="M251.76974,166.21116c-0.81331,0.75086 -1.58003,1.5954 -2.92514,1.5954c-1.50148,0 -2.51849,-1.12605 -2.51849,-2.61241c0,-1.39219 1.04823,-2.61191 2.64338,-2.61191c1.15777,0 2.04939,0.86039 2.81611,1.5954c0.81331,-0.75086 1.58003,-1.5954 2.92514,-1.5954c1.50173,0 2.51824,1.12605 2.51824,2.61191c0,1.39269 -1.04774,2.61241 -2.64363,2.61241c-1.15726,0 -2.04888,-0.8599 -2.81561,-1.5954zM250.81568,165.21001c-0.48521,-0.46935 -1.07946,-1.18899 -1.81446,-1.18899c-0.64133,0 -1.14191,0.5318 -1.14191,1.17313c0,0.68842 0.48472,1.17363 1.09482,1.17363c0.71964,0 1.31389,-0.62597 1.86155,-1.15777zM255.69604,165.19415c0,-0.68792 -0.48472,-1.17313 -1.09483,-1.17313c-0.71964,0 -1.31388,0.62597 -1.86155,1.15777c0.48472,0.46935 1.07946,1.18899 1.81446,1.18899c0.64135,0 1.14192,-0.5318 1.14192,-1.17363z"/></g></g></g></svg>