<svg version="1.1" xmlns="http://www.w3.org/2000/svg" xmlns:xlink="http://www.w3.org/1999/xlink" width="102.5" height="102.5" viewBox="0,0,102.5,102.5"><defs><linearGradient x1="240.00001" y1="161.73065" x2="240.00001" y2="185.95731" gradientUnits="userSpaceOnUse" id="color-1"><stop offset="0" stop-color="#c39700"/><stop offset="1" stop-color="#fef200"/></linearGradient><linearGradient x1="240.00001" y1="180.87672" x2="240.00001" y2="198.26936" gradientUnits="userSpaceOnUse" id="color-2"><stop offset="0" stop-color="#c39700"/><stop offset="1" stop-color="#fef200"/></linearGradient><radialGradient cx="240" cy="180" r="51.25" gradientUnits="userSpaceOnUse" id="color-3"><stop offset="0" stop-color="#ffae63" stop-opacity="0.23669"/><stop offset="1" stop-color="#ffae63" stop-opacity="0"/></radialGradient></defs><g transform="translate(-188.75,-128.75)"><g data-paper-data="{&quot;isPaintingLayer&quot;:true}" fill-rule="nonzero" stroke="none" stroke-linecap="butt" stroke-linejoin="miter" stroke-miterlimit="10" stroke-dasharray="" stroke-dashoffset="0" style="mix-blend-mode: normal"><path d="M256.52907,180.77998l-4.65094,4.651c-0.70178,0.70178 -1.83954,0.70178 -2.54132,0l-8.06616,-8.06616c-0.70178,-0.70172 -1.83954,-0.70172 -2.54132,0l-8.06616,8.06616c-0.70178,0.70178 -1.83954,0.70178 -2.54132,0l-4.65094,-4.651c-0.70178,-0.70172 -0.70178,-1.83954 0,-2.54132l16.50806,-16.508l0.02106,0.02106l0.02105,-0.02106l16.508,16.508c0.70179,0.70179 0.70179,1.8396 -0.00001,2.54132z" fill="url(#color-1)" stroke-width="1"/><path d="M247.98843,187.85695c0.94385,0.94385 0.94385,2.48834 0,3.43225l-6.27228,6.27228c-0.94391,0.94385 -2.4884,0.94385 -3.43225,0l-6.27234,-6.27228c-0.94385,-0.94391 -0.94385,-2.4884 0,-3.43225l6.27234,-6.27234c0.94385,-0.94385 2.48834,-0.94385 3.43225,0z" fill="url(#color-2)" stroke-width="1"/><path d="M188.75,180c0,-28.3046 22.9454,-51.25 51.25,-51.25c28.3046,0 51.25,22.9454 51.25,51.25c0,28.3046 -22.9454,51.25 -51.25,51.25c-28.3046,0 -51.25,-22.9454 -51.25,-51.25z" fill="url(#color-3)" stroke-width="0"/></g></g></svg>