<svg version="1.1" xmlns="http://www.w3.org/2000/svg" xmlns:xlink="http://www.w3.org/1999/xlink" width="113.2" height="106.9586" viewBox="0,0,113.2,106.9586"><g transform="translate(-183.4,-160.6)"><g data-paper-data="{&quot;isPaintingLayer&quot;:true}" fill-rule="nonzero" stroke="none" stroke-linecap="butt" stroke-linejoin="miter" stroke-miterlimit="10" stroke-dasharray="" stroke-dashoffset="0" style="mix-blend-mode: normal"><g fill="#ffffff" stroke-width="1"><path d="M212.96094,175.08936v1.85547l-1.3916,1.3916h-3.24707v1.85547h-1.85547v-6.49414h5.10254zM211.10547,176.0171l-0.46387,-0.46387h-2.31934v0.92773h2.31934z"/><path d="M215.28027,173.69776h3.71094l1.3916,1.3916v5.10254h-1.85547v-1.3916h-2.7832v1.3916h-1.85547v-5.10254zM218.06348,175.55323h-1.85547l-0.46387,0.46387v0.92773h2.7832v-0.92773z"/><path d="M227.80469,175.08936v1.85547l-1.3916,1.3916l1.85547,1.85547h-2.7832l-1.85547,-1.85547h-0.46387v1.85547h-1.85547v-6.49414h5.10254zM225.94922,176.0171l-0.46387,-0.46387h-2.31934v0.92773h2.31934z"/><path d="M232.67578,175.55323v4.63867h-1.85547v-4.63867h-2.31934v-1.85547h6.49414v1.85547z"/><path d="M235.92285,176.94483v-3.24707h1.85547v2.31934l0.46387,0.46387h1.85547l0.46387,-0.46387v-2.31934h1.85547v3.24707l-1.3916,1.3916h-0.92773v1.85547h-1.85547v-1.85547h-0.92773z"/><path d="M247.55664,176.48096v3.71094h-1.85547v-6.49414h1.85547l1.3916,1.3916l1.3916,-1.3916h1.85547v6.49414h-1.85547v-3.71094l-1.3916,1.3916z"/><path d="M253.12305,178.8003v-3.71094l1.3916,-1.3916h3.71094l1.3916,1.3916v3.71094l-1.3916,1.3916h-3.71094zM254.97852,176.0171v1.85547l0.46387,0.46387h1.85547l0.46387,-0.46387v-1.85547l-0.46387,-0.46387h-1.85547z"/><path d="M260.54492,173.69776h5.10254l1.3916,1.3916v3.71094l-1.3916,1.3916h-5.10254zM262.40039,175.55323v2.7832h2.31934l0.46387,-0.46387v-1.85547l-0.46387,-0.46387h-2.31934z"/><path d="M269.82227,178.33643h3.71094v1.85547h-5.56641v-6.49414h5.56641v1.85547h-3.71094v0.46387h3.71094v1.85547h-3.71094z"/></g><g fill="#ffffff" stroke-width="1"><path d="M216.62207,183.83057v2.4502h-0.24854v-1.95996l-0.9624,1.64844h-0.12256l-0.9624,-1.6377v1.94922h-0.24854v-2.4502h0.21338l1.06396,1.81641l1.05371,-1.81641z"/><path d="M218.95654,185.62647h-1.36523l-0.29395,0.6543h-0.26953l1.12012,-2.4502h0.25537l1.12012,2.4502h-0.27295zM218.86182,185.41651l-0.58789,-1.31641l-0.58789,1.31641z"/><path d="M220.68945,185.1294l-0.50049,0.50781v0.64355h-0.25928v-2.4502h0.25928v1.48047l1.43848,-1.48047h0.29736l-1.06055,1.10938l1.13379,1.34082h-0.30762z"/><path d="M224.15039,186.05713v0.22363h-1.73242v-2.4502h1.68018v0.22461h-1.4209v0.87109h1.2666v0.2207h-1.2666v0.91016h1.47314z"/><path d="M226.15234,184.05518h-0.86084v-0.22461h1.98096v0.22461h-0.86133v2.22559h-0.25879z"/><path d="M229.73291,183.83057v2.4502h-0.25537v-1.13086h-1.53271v1.13086h-0.25928v-2.4502h0.25928v1.0918h1.53271v-1.0918z"/><path d="M232.26318,186.05713v0.22363h-1.73242v-2.4502h1.68018v0.22461h-1.4209v0.87109h1.2666v0.2207h-1.2666v0.91016h1.47314z"/><path d="M235.32617,185.62647h-1.36523l-0.29395,0.6543h-0.26953l1.12012,-2.4502h0.25537l1.12012,2.4502h-0.27295zM235.23145,185.41651l-0.58789,-1.31641l-0.58789,1.31641z"/><path d="M237.97168,186.28077l-0.55957,-0.78711c-0.06299,0.00684 -0.12842,0.00977 -0.19629,0.00977h-0.65771v0.77734h-0.25928v-2.4502h0.91699c0.3125,0 0.55762,0.0752 0.73486,0.22461c0.17773,0.14941 0.26611,0.35449 0.26611,0.61523c0,0.19141 -0.04834,0.35352 -0.14502,0.48535c-0.09717,0.13184 -0.23535,0.22656 -0.41504,0.28516l0.59863,0.83984h-0.28368zM237.76562,185.12256c0.12793,-0.10742 0.19238,-0.25781 0.19238,-0.45215c0,-0.19824 -0.06445,-0.35059 -0.19238,-0.45605c-0.12842,-0.10645 -0.31396,-0.15918 -0.55664,-0.15918h-0.65088v1.22852h0.65088c0.24268,0 0.42823,-0.05371 0.55664,-0.16114z"/><path d="M240.56152,186.05713v0.22363h-1.73242v-2.4502h1.68018v0.22461h-1.4209v0.87109h1.2666v0.2207h-1.2666v0.91016h1.47314z"/><path d="M243.21777,183.83057v2.4502h-0.21289l-1.5752,-1.98828v1.98828h-0.25879v-2.4502h0.21289l1.5791,1.98828v-1.98828z"/><path d="M245.55273,185.62647h-1.36523l-0.29395,0.6543h-0.26953l1.12012,-2.4502h0.25488l1.12012,2.4502h-0.27246zM245.45801,185.41651l-0.58789,-1.31641l-0.58789,1.31641z"/><path d="M249.11523,186.28077l-0.55957,-0.78711c-0.0625,0.00684 -0.12793,0.00977 -0.19629,0.00977h-0.65723v0.77734h-0.25977v-2.4502h0.91699c0.3125,0 0.55762,0.0752 0.73535,0.22461c0.17773,0.14941 0.26562,0.35449 0.26562,0.61523c0,0.19141 -0.04785,0.35352 -0.14453,0.48535c-0.09766,0.13184 -0.23535,0.22656 -0.41504,0.28516l0.59863,0.83984h-0.28416zM248.90918,185.12256c0.12793,-0.10742 0.19238,-0.25781 0.19238,-0.45215c0,-0.19824 -0.06445,-0.35059 -0.19238,-0.45605c-0.12793,-0.10645 -0.31348,-0.15918 -0.55664,-0.15918h-0.65039v1.22852h0.65039c0.24316,0 0.42871,-0.05371 0.55664,-0.16114z"/><path d="M251.50977,185.62647h-1.36523l-0.29395,0.6543h-0.26953l1.12012,-2.4502h0.25488l1.12012,2.4502h-0.27246zM251.41504,185.41651l-0.58789,-1.31641l-0.58789,1.31641z"/><path d="M252.48242,183.83057h0.25879v2.4502h-0.25879z"/><path d="M255.58691,183.83057v2.4502h-0.21387l-1.57422,-1.98828v1.98828h-0.25977v-2.4502h0.21387l1.57812,1.98828v-1.98828z"/><path d="M258.30078,185.2251c0.08789,0.10449 0.13086,0.23828 0.13086,0.40137c0,0.20996 -0.07617,0.37109 -0.23242,0.48438c-0.1543,0.11328 -0.38477,0.16992 -0.6875,0.16992h-1.12695v-2.4502h1.05664c0.27344,0 0.48438,0.05469 0.63477,0.16504c0.15234,0.10938 0.22656,0.26465 0.22656,0.46484c0,0.13574 -0.0332,0.25098 -0.09961,0.34473c-0.06641,0.09473 -0.1582,0.16504 -0.27539,0.21191c0.1621,0.03516 0.28515,0.1045 0.37304,0.20801zM256.64453,184.04444v0.88867h0.7793c0.19922,0 0.35156,-0.03809 0.45898,-0.11328c0.10742,-0.07617 0.16016,-0.18652 0.16016,-0.33105c0,-0.14453 -0.05273,-0.25488 -0.16016,-0.33105c-0.10742,-0.0752 -0.25977,-0.11328 -0.45898,-0.11328h-0.7793zM258.00586,185.95557c0.11133,-0.0752 0.16797,-0.19141 0.16797,-0.35059c0,-0.30566 -0.22266,-0.45801 -0.66602,-0.45801h-0.86328v0.91992h0.86328c0.22071,0.00001 0.38477,-0.0371 0.49805,-0.11132z"/><path d="M259.43555,186.13917c-0.19727,-0.1084 -0.35156,-0.25781 -0.46191,-0.44629c-0.11133,-0.18945 -0.16699,-0.40137 -0.16699,-0.63672c0,-0.23633 0.05566,-0.44824 0.16699,-0.6377c0.11035,-0.18848 0.26465,-0.33789 0.46191,-0.44629c0.19726,-0.1084 0.41699,-0.16211 0.65918,-0.16211c0.24316,0 0.46191,0.05371 0.65625,0.16113c0.19531,0.10645 0.34863,0.25586 0.46094,0.44629c0.11133,0.18945 0.16797,0.40234 0.16797,0.63867c0,0.23535 -0.05664,0.44824 -0.16797,0.63867c-0.1123,0.18945 -0.26562,0.33887 -0.46094,0.44629c-0.19434,0.10742 -0.41309,0.16113 -0.65625,0.16113c-0.24219,0.00001 -0.46192,-0.05468 -0.65918,-0.16307zM260.62012,185.93995c0.15625,-0.08789 0.27832,-0.20898 0.36719,-0.36426c0.08887,-0.15528 0.13281,-0.32812 0.13281,-0.51953c0,-0.19141 -0.04395,-0.36523 -0.13281,-0.52051c-0.08887,-0.1543 -0.21094,-0.27637 -0.36719,-0.36328c-0.15625,-0.08789 -0.33105,-0.13184 -0.52539,-0.13184c-0.19336,0 -0.36914,0.04395 -0.52637,0.13184c-0.15723,0.08691 -0.28125,0.20898 -0.37109,0.36328c-0.08984,0.15527 -0.13477,0.3291 -0.13477,0.52051c0,0.19141 0.04492,0.36426 0.13477,0.51953c0.08985,0.15527 0.21387,0.27637 0.37109,0.36426c0.15723,0.08691 0.33301,0.13086 0.52637,0.13086c0.19433,0 0.36914,-0.04395 0.52539,-0.13086z"/><path d="M265.25,183.83057l-0.82617,2.4502h-0.27344l-0.7168,-2.08984l-0.72168,2.08984h-0.26953l-0.8252,-2.4502h0.26562l0.70703,2.10742l0.73145,-2.10742h0.24121l0.72168,2.11816l0.7168,-2.11816z"/><path d="M265.73535,186.24366c-0.03711,-0.03613 -0.05469,-0.07812 -0.05469,-0.12695c0,-0.05176 0.01758,-0.09473 0.05273,-0.12793c0.03516,-0.03418 0.0791,-0.05078 0.13281,-0.05078c0.05078,0 0.09473,0.0166 0.12988,0.05078c0.03418,0.0332 0.05176,0.07617 0.05176,0.12793c0,0.04883 -0.01758,0.09082 -0.05176,0.12695c-0.03516,0.03613 -0.0791,0.05469 -0.12988,0.05469c-0.05175,0 -0.09472,-0.01856 -0.13085,-0.05469zM265.71875,183.83057h0.29395l-0.05176,1.71484h-0.19238z"/></g><g fill="#000000" stroke-width="1"><path d="M206.75537,266.69043v0.84668h-0.25537v-0.84668l-0.97998,-1.60352h0.27637l0.84033,1.37598l0.83984,-1.37598h0.25928z"/><path d="M208.44434,267.39551c-0.19678,-0.1084 -0.35107,-0.25781 -0.46191,-0.44629c-0.11084,-0.18945 -0.16602,-0.40137 -0.16602,-0.63672c0,-0.23633 0.05518,-0.44824 0.16602,-0.6377c0.11084,-0.18848 0.26514,-0.33789 0.46191,-0.44629c0.19727,-0.1084 0.41748,-0.16211 0.66016,-0.16211c0.24268,0 0.46143,0.05371 0.65625,0.16113c0.19482,0.10645 0.34814,0.25586 0.45996,0.44629c0.1123,0.18945 0.16797,0.40234 0.16797,0.63867c0,0.23535 -0.05566,0.44824 -0.16797,0.63867c-0.11182,0.18945 -0.26514,0.33887 -0.45996,0.44629c-0.19482,0.10742 -0.41357,0.16113 -0.65625,0.16113c-0.24268,0 -0.4629,-0.05467 -0.66016,-0.16307zM209.62939,267.19629c0.15625,-0.08789 0.27881,-0.20898 0.36719,-0.36426c0.08887,-0.15527 0.1333,-0.32812 0.1333,-0.51953c0,-0.19141 -0.04443,-0.36523 -0.1333,-0.52051c-0.08838,-0.1543 -0.21094,-0.27637 -0.36719,-0.36328c-0.15625,-0.08789 -0.33154,-0.13184 -0.5249,-0.13184c-0.19385,0 -0.36963,0.04395 -0.52686,0.13184c-0.15771,0.08691 -0.28125,0.20898 -0.37109,0.36328c-0.08984,0.15527 -0.13477,0.3291 -0.13477,0.52051c0,0.19141 0.04492,0.36426 0.13477,0.51953c0.08985,0.15527 0.21338,0.27637 0.37109,0.36426c0.15723,0.08691 0.33301,0.13086 0.52686,0.13086c0.19336,0 0.36865,-0.04395 0.5249,-0.13086z"/><path d="M211.21436,267.28516c-0.17725,-0.18164 -0.26611,-0.44727 -0.26611,-0.79492v-1.40332h0.25928v1.39355c0,0.28418 0.06396,0.49707 0.19238,0.63672c0.12842,0.13965 0.31348,0.20996 0.55664,0.20996c0.24463,0 0.43164,-0.07031 0.55957,-0.20996c0.12842,-0.13965 0.19287,-0.35254 0.19287,-0.63672v-1.39355h0.25195v1.40332c0,0.34766 -0.08838,0.61328 -0.26416,0.79492c-0.17627,0.18164 -0.42334,0.27344 -0.74023,0.27344c-0.31739,-0.00001 -0.56495,-0.0918 -0.74219,-0.27344z"/><path d="M218.02197,265.08691l-0.82617,2.4502h-0.27295l-0.71777,-2.08984l-0.7207,2.08984h-0.26953l-0.82617,-2.4502h0.26611l0.70703,2.10742l0.73145,-2.10742h0.2417l0.7207,2.11816l0.71777,-2.11816z"/><path d="M218.49463,265.08691h0.25928v2.4502h-0.25928z"/><path d="M219.55127,265.08691h0.25928v2.22656h1.37158v0.22363h-1.63086z"/><path d="M221.61279,265.08691h0.25928v2.22656h1.37158v0.22363h-1.63086z"/><path d="M225.06738,265.31152h-0.86084v-0.22461h1.98096v0.22461h-0.86133v2.22559h-0.25879z"/><path d="M228.01416,266.88281h-1.36523l-0.29395,0.6543h-0.26953l1.12012,-2.4502h0.25537l1.12012,2.4502h-0.27295zM227.91943,266.67285l-0.58789,-1.31641l-0.58789,1.31641z"/><path d="M229.74707,266.38574l-0.50049,0.50781v0.64355h-0.25928v-2.4502h0.25928v1.48047l1.43848,-1.48047h0.29736l-1.06055,1.10938l1.13379,1.34082h-0.30762z"/><path d="M233.20801,267.31348v0.22363h-1.73242v-2.4502h1.68018v0.22461h-1.4209v0.87109h1.2666v0.2207h-1.2666v0.91016h1.47314z"/><path d="M234.73438,265.08691h0.99756c0.25879,0 0.48779,0.05176 0.68604,0.15625c0.19824,0.10352 0.35205,0.24805 0.46191,0.43359c0.10986,0.18554 0.16455,0.39746 0.16455,0.63574c0,0.2373 -0.05469,0.44922 -0.16455,0.63477c-0.10986,0.18555 -0.26367,0.33008 -0.46191,0.43457c-0.19824,0.10352 -0.42725,0.15527 -0.68604,0.15527h-0.99756zM235.71777,267.31348c0.21484,0 0.40283,-0.04297 0.56348,-0.12793c0.16113,-0.08496 0.28613,-0.20312 0.37451,-0.35352c0.08887,-0.15039 0.1333,-0.32422 0.1333,-0.51953c0,-0.19629 -0.04443,-0.37012 -0.1333,-0.52051c-0.08838,-0.15039 -0.21338,-0.26758 -0.37451,-0.35352c-0.16064,-0.08496 -0.34863,-0.12695 -0.56348,-0.12695h-0.72412v2.00195h0.72412z"/><path d="M239.12695,266.88281h-1.36523l-0.29395,0.6543h-0.26953l1.12012,-2.4502h0.25537l1.12012,2.4502h-0.27295zM239.03223,266.67285l-0.58789,-1.31641l-0.58789,1.31641z"/><path d="M242.64453,265.08691v2.4502h-0.24902v-1.95996l-0.96191,1.64844h-0.12305l-0.9624,-1.6377v1.94922h-0.24854v-2.4502h0.21338l1.06396,1.81641l1.05371,-1.81641z"/><path d="M244.97852,266.88281h-1.36523l-0.29395,0.6543h-0.26953l1.12012,-2.4502h0.25586l1.12012,2.4502h-0.27344zM244.88379,266.67285l-0.58789,-1.31641l-0.58789,1.31641z"/><path d="M247.64258,266.3125h0.24805v0.93457c-0.11426,0.09961 -0.24902,0.17676 -0.40625,0.23047c-0.15625,0.05371 -0.32031,0.08105 -0.49316,0.08105c-0.24512,0 -0.46582,-0.05371 -0.66113,-0.16113c-0.19629,-0.10742 -0.35059,-0.25684 -0.46191,-0.44629c-0.1123,-0.19043 -0.16797,-0.40332 -0.16797,-0.63867c0,-0.23633 0.05566,-0.44922 0.16797,-0.63867c0.11133,-0.19043 0.26562,-0.33984 0.46191,-0.44629c0.19531,-0.10742 0.41699,-0.16113 0.66504,-0.16113c0.18652,0 0.35742,0.0293 0.51465,0.08887c0.15625,0.05957 0.28809,0.14746 0.39551,0.26465l-0.16113,0.16406c-0.19434,-0.19141 -0.44043,-0.28711 -0.73926,-0.28711c-0.19824,0 -0.37695,0.04395 -0.53711,0.13184c-0.15918,0.08691 -0.28516,0.20898 -0.37598,0.36328c-0.09082,0.15527 -0.13672,0.3291 -0.13672,0.52051c0,0.19141 0.0459,0.36328 0.13672,0.51758c0.09082,0.1543 0.21582,0.27539 0.375,0.36426c0.1582,0.08887 0.33691,0.13281 0.53516,0.13281c0.25195,0 0.46582,-0.06348 0.64062,-0.18945v-0.82521z"/><path d="M250.35547,267.31348v0.22363h-1.7334v-2.4502h1.68066v0.22461h-1.4209v0.87109h1.2666v0.2207h-1.2666v0.91016h1.47364z"/><path d="M255.24512,265.08691l-0.82617,2.4502h-0.27344l-0.7168,-2.08984l-0.72168,2.08984h-0.26953l-0.8252,-2.4502h0.26562l0.70703,2.10742l0.73145,-2.10742h0.24121l0.72168,2.11816l0.7168,-2.11816z"/><path d="M257.76465,265.08691v2.4502h-0.25488v-1.13086h-1.5332v1.13086h-0.25879v-2.4502h0.25879v1.0918h1.5332v-1.0918z"/><path d="M260.29492,267.31348v0.22363h-1.73242v-2.4502h1.67969v0.22461h-1.4209v0.87109h1.2666v0.2207h-1.2666v0.91016h1.47363z"/><path d="M262.95117,265.08691v2.4502h-0.21289l-1.5752,-1.98828v1.98828h-0.25879v-2.4502h0.21289l1.5791,1.98828v-1.98828z"/><path d="M264.81836,267.4707c-0.16602,-0.05859 -0.29492,-0.13574 -0.38672,-0.23145l0.10156,-0.19922c0.08887,0.08887 0.20703,0.16016 0.35352,0.21484c0.14746,0.05566 0.29883,0.08301 0.45508,0.08301c0.21973,0 0.38379,-0.04102 0.49414,-0.12109c0.10938,-0.08008 0.16406,-0.18457 0.16406,-0.31348c0,-0.09766 -0.0293,-0.17578 -0.08887,-0.23438c-0.05957,-0.0586 -0.13281,-0.10352 -0.21875,-0.13477c-0.08691,-0.03125 -0.20703,-0.06543 -0.36035,-0.10352c-0.18457,-0.0459 -0.33203,-0.09082 -0.44141,-0.13477c-0.10938,-0.04297 -0.2041,-0.1084 -0.28223,-0.19727c-0.07813,-0.08887 -0.11719,-0.20898 -0.11719,-0.36035c0,-0.12402 0.0332,-0.23633 0.09863,-0.33789c0.06543,-0.10156 0.16504,-0.18262 0.30078,-0.24316c0.13477,-0.06055 0.30371,-0.09082 0.50391,-0.09082c0.13965,0 0.27734,0.01855 0.41113,0.05762c0.13477,0.03809 0.25,0.0918 0.34863,0.15918l-0.08789,0.20605c-0.10254,-0.06738 -0.21191,-0.11816 -0.3291,-0.15234c-0.11621,-0.0332 -0.23047,-0.05078 -0.34277,-0.05078c-0.21484,0 -0.37598,0.04199 -0.48438,0.125c-0.1084,0.08301 -0.16309,0.18945 -0.16309,0.32031c0,0.09766 0.0293,0.17676 0.08887,0.23633c0.05957,0.05957 0.13477,0.10449 0.22461,0.13574c0.08984,0.03223 0.20996,0.06641 0.3623,0.10352c0.17969,0.04395 0.32422,0.08789 0.43555,0.13086c0.11035,0.04395 0.20508,0.10938 0.28125,0.19629c0.07715,0.08789 0.11621,0.20605 0.11621,0.35547c0,0.12402 -0.0332,0.23633 -0.09961,0.33789c-0.06738,0.10156 -0.16895,0.18164 -0.30664,0.24121c-0.13769,0.05957 -0.30664,0.08984 -0.50781,0.08984c-0.18162,0.00002 -0.35643,-0.02927 -0.52342,-0.08787z"/><path d="M267.25977,265.31152h-0.86133v-0.22461h1.98145v0.22461h-0.86133v2.22559h-0.25879z"/><path d="M268.79297,265.08691h0.25879v2.4502h-0.25879z"/><path d="M269.85059,265.08691h0.25879v2.22656h1.37207v0.22363h-1.63086z"/><path d="M271.91211,265.08691h0.25879v2.22656h1.37207v0.22363h-1.63086z"/><path d="M273.89746,267.5c-0.03711,-0.03613 -0.05469,-0.07812 -0.05469,-0.12695c0,-0.05176 0.01758,-0.09473 0.05273,-0.12793c0.03516,-0.03418 0.0791,-0.05078 0.13281,-0.05078c0.05078,0 0.09473,0.0166 0.12988,0.05078c0.03418,0.0332 0.05176,0.07617 0.05176,0.12793c0,0.04883 -0.01758,0.09082 -0.05176,0.12695c-0.03516,0.03613 -0.0791,0.05469 -0.12988,0.05469c-0.05175,0 -0.09472,-0.01856 -0.13085,-0.05469zM273.88086,265.08691h0.29395l-0.05176,1.71484h-0.19238z"/></g><path d="M183.4,199.4v-38.8h113.2v38.8z" fill="none" stroke-width="0"/></g></g></svg>