<svg version="1.1" xmlns="http://www.w3.org/2000/svg" xmlns:xlink="http://www.w3.org/1999/xlink" width="31.535" height="6.262" viewBox="0,0,31.535,6.262"><g transform="translate(-223.7335,-176.649)"><g data-paper-data="{&quot;isPaintingLayer&quot;:true}" fill="#000000" fill-rule="nonzero" stroke="none" stroke-width="1" stroke-linecap="butt" stroke-linejoin="miter" stroke-miterlimit="10" stroke-dasharray="" stroke-dashoffset="0" style="mix-blend-mode: normal"><path d="M225.5885,179.779v3.131h-1.855v-6.261h1.391l3.246,3.13v-3.13h1.855v6.262h-1.391z"/><path d="M233.0085,182.911h-1.855v-6.262h1.855z"/><path d="M235.7915,179.779v3.131h-1.855v-6.261h1.391l3.246,3.13v-3.13h1.854v6.262h-1.391z"/><path d="M245.9935,180.674v-4.025h1.854v4.92l-1.391,1.342h-3.71l-1.392,-1.342l1.392,-1.342l0.927,0.895h1.855z"/><path d="M250.1675,176.649h3.71l1.391,1.342v4.92h-1.854v-1.342h-2.784v1.342h-1.854v-4.92zM252.9495,178.438h-1.855l-0.464,0.447v0.895h2.783v-0.895z"/></g></g></svg>