<svg xmlns="http://www.w3.org/2000/svg" xmlns:xlink="http://www.w3.org/1999/xlink" version="1.1" width="49" height="15" viewBox="0.5 0.5 49 15">
  <!-- Exported by Scratch - http://scratch.mit.edu/ -->
  <g id="ID0.67121238168329">
    <path id="ID0.002543373964726925" fill="#FFFFFF" stroke="#FFFFFF" d="M 1 1 L 49 1 L 49 15 L 1 15 L 1 1 Z " stroke-width="1"/>
    <g id="ID0.17371930973604321">
      <path id="ID0.56843101978302" fill="#7F7F7F" d="M 6.8 9.096 C 6.72 9.104 6.632 9.104 6.544 9.104 L 5.217 9.104 L 5.217 10.792 L 4.273 10.792 L 4.273 5.193 L 6.544 5.193 C 7.975 5.193 8.799 5.889 8.799 7.104 C 8.799 8 8.383 8.631 7.639 8.919 L 8.894 10.79 L 7.823 10.79 L 6.8 9.096 Z M 6.544 8.256 C 7.407 8.256 7.903 7.888 7.903 7.129 C 7.903 6.394 7.407 6.042 6.544 6.042 L 5.217 6.042 L 5.217 8.257 L 6.544 8.257 Z " stroke-width="1"/>
      <path id="ID0.05710962926968932" fill="#7F7F7F" d="M 11 6.041 L 11 7.552 L 13.735 7.552 L 13.735 8.4 L 11 8.4 L 11 9.943 L 14.15 9.943 L 14.15 10.791 L 10.056 10.791 L 10.056 5.193 L 14.054 5.193 L 14.054 6.041 L 11 6.041 Z " stroke-width="1"/>
      <path id="ID0.9851389694958925" fill="#7F7F7F" d="M 15.057 8.672 L 15.057 8.04 L 17.025 8.04 L 17.025 8.672 L 15.057 8.672 Z " stroke-width="1"/>
      <path id="ID0.9316852642223239" fill="#7F7F7F" d="M 23.295 10.791 L 23.286 6.609 L 21.519 10.207 L 20.903 10.207 L 19.136 6.609 L 19.136 10.791 L 18.248 10.791 L 18.248 5.193 L 19.367 5.193 L 21.215 8.912 L 23.054 5.193 L 24.165 5.193 L 24.165 10.791 L 23.295 10.791 Z " stroke-width="1"/>
      <path id="ID0.8494556695222855" fill="#7F7F7F" d="M 26.44 9.527 L 25.904 10.791 L 24.921 10.791 L 27.392 5.193 L 28.36 5.193 L 30.806 10.791 L 29.799 10.791 L 29.263 9.527 L 26.44 9.527 Z M 27.848 6.201 L 26.792 8.687 L 28.903 8.687 L 27.848 6.201 Z " stroke-width="1"/>
      <path id="ID0.5137496027164161" fill="#7F7F7F" d="M 33.048 6.041 L 33.048 10.791 L 32.105 10.791 L 32.105 6.041 L 30.338 6.041 L 30.338 5.193 L 34.823 5.193 L 34.823 6.041 L 33.048 6.041 Z " stroke-width="1"/>
      <path id="ID0.4202640079893172" fill="#7F7F7F" d="M 39.902 6.033 L 39.35 6.721 C 38.943 6.282 38.359 6.01 37.791 6.01 C 36.672 6.01 35.792 6.873 35.792 7.977 C 35.792 9.081 36.672 9.952 37.791 9.952 C 38.351 9.952 38.926 9.696 39.35 9.288 L 39.91 9.911 C 39.343 10.472 38.535 10.831 37.744 10.831 C 36.104 10.831 34.833 9.593 34.833 7.985 C 34.833 6.394 36.121 5.171 37.775 5.171 C 38.567 5.169 39.358 5.498 39.902 6.033 Z " stroke-width="1"/>
      <path id="ID0.40683829644694924" fill="#7F7F7F" d="M 44.783 10.791 L 44.783 8.472 L 41.816 8.472 L 41.816 10.791 L 40.873 10.791 L 40.873 5.193 L 41.816 5.193 L 41.816 7.624 L 44.783 7.624 L 44.783 5.193 L 45.726 5.193 L 45.726 10.791 L 44.783 10.791 Z " stroke-width="1"/>
    </g>
  </g>
</svg>