<svg xmlns="http://www.w3.org/2000/svg" xmlns:xlink="http://www.w3.org/1999/xlink" version="1.1" width="28.255062341690063" height="6.921173334121704" viewBox="-0.11968103051185608 0.31001901626586914 28.255062341690063 6.921173334121704">
  <!-- Exported by Scratch - http://scratch.mit.edu/ -->
  <g id="ID0.8647331977263093">
    <g id="ID0.6703868149779737">
      <path id="ID0.2551952828653157" fill="#FFFFFF" d="M 14.014 2.628 L 13.812 3.057 C 13.499 2.867 13.186 2.789 12.967 2.789 C 12.683 2.789 12.497 2.896 12.497 3.09 C 12.497 3.72 14.054 3.382 14.05 4.421 C 14.05 4.936 13.597 5.253 12.962 5.253 C 12.509 5.253 12.081 5.067 11.784 4.796 L 11.994 4.376 C 12.29 4.647 12.661 4.796 12.97 4.796 C 13.308 4.796 13.51 4.669 13.51 4.446 C 13.51 3.803 11.952 4.162 11.952 3.136 C 11.952 2.641 12.376 2.333 13.003 2.333 C 13.38 2.332 13.747 2.451 14.014 2.628 Z " stroke-width="1"/>
      <path id="ID0.9325939705595374" fill="#FFFFFF" d="M 15.774 2.352 C 16.499 2.352 16.915 2.71 16.915 3.336 C 16.915 3.987 16.499 4.366 15.774 4.366 L 15.111 4.366 L 15.111 5.236 L 14.625 5.236 L 14.625 2.352 L 15.774 2.352 Z M 15.111 3.93 L 15.754 3.93 C 16.198 3.93 16.45 3.74 16.45 3.349 C 16.45 2.97 16.199 2.788 15.754 2.788 L 15.111 2.788 L 15.111 3.93 Z " stroke-width="1"/>
      <path id="ID0.5473143476992846" fill="#FFFFFF" d="M 17.888 2.789 L 17.888 3.568 L 19.297 3.568 L 19.297 4.005 L 17.888 4.005 L 17.888 4.8 L 19.511 4.8 L 19.511 5.237 L 17.402 5.237 L 17.402 2.352 L 19.462 2.352 L 19.462 2.789 L 17.888 2.789 Z " stroke-width="1"/>
      <path id="ID0.9556114631704986" fill="#FFFFFF" d="M 20.595 2.789 L 20.595 3.568 L 22.004 3.568 L 22.004 4.005 L 20.595 4.005 L 20.595 4.8 L 22.219 4.8 L 22.219 5.237 L 20.109 5.237 L 20.109 2.352 L 22.169 2.352 L 22.169 2.789 L 20.595 2.789 Z " stroke-width="1"/>
      <path id="ID0.8174073663540184" fill="#FFFFFF" d="M 23.998 2.352 C 24.863 2.352 25.489 2.957 25.489 3.794 C 25.489 4.626 24.859 5.236 23.985 5.236 L 22.815 5.236 L 22.815 2.352 L 23.998 2.352 Z M 23.302 4.799 L 24.011 4.799 C 24.571 4.799 24.999 4.382 24.999 3.798 C 24.999 3.209 24.559 2.789 23.989 2.789 L 23.301 2.789 L 23.301 4.799 Z " stroke-width="1"/>
      <path id="ID0.34489816427230835" fill="#FFFFFF" d="M 26.817 4.062 L 26.817 4.783 L 26.507 4.783 L 26.507 4.062 L 25.778 4.062 L 25.778 3.736 L 26.507 3.736 L 26.507 3.015 L 26.817 3.015 L 26.817 3.736 L 27.542 3.736 L 27.542 4.061 L 26.817 4.061 Z " stroke-width="1"/>
    </g>
    <g id="ID0.3123940406367183">
      <path id="ID0.5396870039403439" fill="#FFFFFF" d="M 8.0476 3.3291 L 8.0476 2.7144 C 8.0476 1.7139 7.4898 0.9034 6.8015 0.9034 L 5.7251 0.9034 C 5.038 0.9034 4.479 1.7151 4.479 2.7144 L 4.479 4.9039 C 4.479 5.216 4.5395 5.5068 4.6357 5.7631 C 4.7935 6.1856 5.0605 6.5037 5.3845 6.6378 L 7.1421 6.6378 L 8.0417 6.6378 C 8.9555 6.6378 9.6972 6.658 9.6972 4.9823 C 9.696 3.3137 8.9578 3.3291 8.0476 3.3291 Z " stroke-width="1.1867620944976807"/>
      <path id="ID0.2816425757482648" fill="#FFFFFF" d="M 3.8856 2.1506 C 3.8856 2.4378 3.8975 2.6704 2.8365 2.6704 C 1.7767 2.6704 0.9187 2.1506 0.9187 2.1506 C 0.9187 2.1506 1.7779 1.6308 2.8365 1.6308 C 3.8975 1.632 3.8856 1.8634 3.8856 2.1506 Z " stroke-width="1.1867620944976807"/>
      <path id="ID0.6667273989878595" fill="#FFFFFF" d="M 3.9972 3.5605 C 3.9972 3.8477 4.0114 4.0803 2.7523 4.0803 C 1.4931 4.0803 0.4737 3.5605 0.4737 3.5605 C 0.4737 3.5605 1.4931 3.0407 2.7523 3.0407 C 4.0114 3.0407 3.9972 3.2733 3.9972 3.5605 Z " stroke-width="1.1867620944976807"/>
      <path id="ID0.26680557476356626" fill="#FFFFFF" d="M 3.9972 5.0808 C 3.9972 5.368 4.0055 5.6006 3.2507 5.6006 C 2.4947 5.6006 1.8836 5.0808 1.8836 5.0808 C 1.8836 5.0808 2.4959 4.5621 3.2507 4.5621 C 4.0055 4.5621 3.9972 4.7936 3.9972 5.0808 Z " stroke-width="1.1867620944976807"/>
    </g>
  </g>
</svg>