<svg version="1.1" xmlns="http://www.w3.org/2000/svg" xmlns:xlink="http://www.w3.org/1999/xlink" width="54.5" height="15.5" viewBox="0,0,54.5,15.5"><g transform="translate(-212.75,-172.25)"><g data-paper-data="{&quot;isPaintingLayer&quot;:true}" fill="#ffffff" fill-rule="nonzero" stroke="none" stroke-width="1" stroke-linecap="butt" stroke-linejoin="miter" stroke-miterlimit="10" stroke-dasharray="" stroke-dashoffset="0" style="mix-blend-mode: normal"><path d="M267.25,172.25v15.5h-54.5v-15.5zM266.68814,172.75h-53.37629v14.5h53.37629z"/><g><path d="M222.79168,177.55v4.9h-0.75834l-2.68334,-3.325v3.325h-0.875v-4.9h0.75834l2.68334,3.325v-3.325z"/><path d="M227.75001,181.69167v0.75834h-3.675v-4.9h3.55833v0.75834h-2.68334v1.28334h2.39167v0.75834h-2.39167v1.34166z"/><path d="M231.83334,182.45001l-1.34166,-1.86667l-1.34166,1.86667h-1.05l1.80833,-2.50833l-1.75,-2.39167h1.05l1.225,1.75l1.225,-1.75h0.99167l-1.69167,2.39167l1.86667,2.50833z"/><path d="M234.34167,178.30834h-1.63333v-0.75834h4.14166v0.75834h-1.575v4.14166h-0.93333z"/><path d="M239.53334,177.55h0.93333v4.14166h2.56667v0.75834h-3.5z"/><path d="M247.35001,181.69167v0.75834h-3.675v-4.9h3.55833v0.75834h-2.625v1.28334h2.39167v0.75834h-2.39167v1.34166z"/><path d="M252.77501,177.55l-2.15833,4.9h-0.875l-2.15833,-4.9h0.99167l1.63333,3.79167l1.63333,-3.79167z"/><path d="M256.975,181.69167v0.75834h-3.675v-4.9h3.55833v0.75834h-2.68334v1.28334h2.39167v0.75834h-2.39167v1.34166z"/><path d="M258.02501,177.55h0.93333v4.14166h2.56667v0.75834h-3.5z"/></g></g></g></svg>