<svg version="1.1" xmlns="http://www.w3.org/2000/svg" xmlns:xlink="http://www.w3.org/1999/xlink" width="57.6404" height="18.5056" viewBox="0,0,57.6404,18.5056"><g transform="translate(-211.1798,-170.7472)"><g data-paper-data="{&quot;isPaintingLayer&quot;:true}" fill-rule="nonzero" stroke="none" stroke-width="1" stroke-linecap="butt" stroke-linejoin="miter" stroke-miterlimit="10" stroke-dasharray="" stroke-dashoffset="0" style="mix-blend-mode: normal"><g><g fill="#000000"><path d="M266.4438,189.2528h-52.8876c-1.307,0 -2.3764,-1.0694 -2.3764,-2.3764v-13.6517c0,-1.307 1.0694,-2.3764 2.3764,-2.3764h52.8876c1.307,0 2.3764,1.0694 2.3764,2.3764v13.6517c0,1.307 -1.0693,2.3764 -2.3764,2.3764z"/></g><g fill="#ffffff"><path d="M224.9564,175.1555h1.9443v6.8154h4.2119v1.584h-6.1562z"/><path d="M239.6917,175.1555l-3.6357,8.3994h-1.9199l-3.624,-8.3994h2.1006l2.5557,6l2.5918,-6z"/><path d="M240.388,175.1555h1.9443v6.8154h4.2119v1.584h-6.1562z"/><path d="M253.7445,175.1555v8.3994h-1.9443v-6.8398h-1.6797v-1.5596z"/></g><g fill="#000000"><path d="M266.4438,189.1516h-52.8876c-1.307,0 -2.3764,-1.0694 -2.3764,-2.3764v-13.6516c0,-1.307 1.0694,-2.3764 2.3764,-2.3764h52.8876c1.307,0 2.3764,1.0694 2.3764,2.3764v13.6517c0,1.307 -1.0693,2.3763 -2.3764,2.3763z"/></g><g fill="#ffffff"><path d="M225.6068,175.0539h1.9434v6.8154h4.2119v1.584h-6.1553z"/><path d="M240.3421,175.0539l-3.6357,8.3994h-1.9199l-3.624,-8.3994h2.0996l2.5557,6l2.5928,-6z"/><path d="M241.0384,175.0539h1.9434v6.8154h4.2119v1.584h-6.1553z"/><path d="M254.3939,175.0539v8.3994h-1.9434v-6.8398h-1.6807v-1.5596z"/></g></g></g></g></svg>