<svg version="1.1" xmlns="http://www.w3.org/2000/svg" xmlns:xlink="http://www.w3.org/1999/xlink" width="279.49518" height="279.49518" viewBox="0,0,279.49518,279.49518"><defs><radialGradient cx="240.92549" cy="183.70193" r="139.74759" gradientUnits="userSpaceOnUse" id="color-1"><stop offset="0" stop-color="#252525"/><stop offset="1" stop-color="#252525" stop-opacity="0"/></radialGradient></defs><g transform="translate(-100.25241,-40.25241)"><g data-paper-data="{&quot;isPaintingLayer&quot;:true}" fill-rule="nonzero" stroke="none" stroke-linecap="butt" stroke-linejoin="miter" stroke-miterlimit="10" stroke-dasharray="" stroke-dashoffset="0" style="mix-blend-mode: normal"><path d="M224.13481,268.6715l-16.959,3.211l-0.352,0.066l-0.922,-4.876l-2.461,-13.01l-16.961,3.211l-0.349,0.066l-0.923,-4.873l-2.464,-13.01l-16.957,3.211l-0.35,0.067l-3.386,-17.883l-3.387,-17.887l-3.387,-17.883l-3.385,-17.884l-1.693,-8.942l-1.693,-8.943l17.31,-3.276l-3.386,-17.884l17.306,-3.279v-0.001l-3.385,-17.884l17.309,-3.275l17.309,-3.277l17.308,-3.278l17.309,-3.276l17.31,-3.278l17.307,-3.277l17.311,-3.276l3.384,17.885l3.387,17.885l3.385,17.884l3.387,17.882l-17.307,3.277l-17.311,3.276l-17.31,3.278l-17.307,3.277l3.387,17.886l17.307,-3.277l17.31,-3.277l17.309,-3.279l17.308,-3.276l3.385,17.887l3.387,17.879l3.386,17.882l3.385,17.887l-17.308,3.277l-17.309,3.278l-17.307,3.277l-17.31,3.277l-17.309,3.278z" fill="#ff4abe" stroke-width="1"/><path d="M100.25241,180c0,-77.18047 62.56713,-139.74759 139.74759,-139.74759c77.18047,0 139.74759,62.56713 139.74759,139.74759c0,77.18047 -62.56713,139.74759 -139.74759,139.74759c-77.18047,0 -139.74759,-62.56713 -139.74759,-139.74759z" fill="url(#color-1)" stroke-width="0"/><path d="M227.73956,268.11862l-16.959,3.211l-0.352,0.066l-0.922,-4.876l-2.461,-13.01l-16.961,3.211l-0.349,0.066l-0.923,-4.873l-2.464,-13.01l-16.957,3.211l-0.35,0.067l-3.386,-17.883l-3.387,-17.887l-3.387,-17.883l-3.385,-17.884l-1.693,-8.942l-1.693,-8.943l17.31,-3.276l-3.386,-17.884l17.306,-3.279v-0.001l-3.385,-17.884l17.309,-3.275l17.309,-3.277l17.308,-3.278l17.309,-3.276l17.31,-3.278l17.307,-3.277l17.311,-3.276l3.384,17.885l3.387,17.885l3.385,17.884l3.387,17.882l-17.307,3.277l-17.311,3.276l-17.31,3.278l-17.307,3.277l3.387,17.886l17.307,-3.277l17.31,-3.277l17.309,-3.279l17.308,-3.276l3.385,17.887l3.387,17.879l3.386,17.882l3.385,17.887l-17.308,3.277l-17.309,3.278l-17.307,3.277l-17.31,3.277l-17.309,3.278z" fill="#4accff" stroke-width="1"/><path d="M225.889,268.62l-16.959,3.211l-0.352,0.066l-0.922,-4.876l-2.461,-13.01l-16.961,3.211l-0.349,0.066l-0.923,-4.873l-2.464,-13.01l-16.957,3.211l-0.35,0.067l-3.386,-17.883l-3.387,-17.887l-3.387,-17.883l-3.385,-17.884l-1.693,-8.942l-1.693,-8.943l17.31,-3.276l-3.386,-17.884l17.306,-3.279v-0.001l-3.385,-17.884l17.309,-3.275l17.309,-3.277l17.308,-3.278l17.309,-3.276l17.31,-3.278l17.307,-3.277l17.311,-3.276l3.384,17.885l3.387,17.885l3.385,17.884l3.387,17.882l-17.307,3.277l-17.311,3.276l-17.31,3.278l-17.307,3.277l3.387,17.886l17.307,-3.277l17.31,-3.277l17.309,-3.279l17.308,-3.276l3.385,17.887l3.387,17.879l3.386,17.882l3.385,17.887l-17.308,3.277l-17.309,3.278l-17.307,3.277l-17.31,3.277l-17.309,3.278z" fill="#ffffff" stroke-width="1"/></g></g></svg>