<svg version="1.1" xmlns="http://www.w3.org/2000/svg" xmlns:xlink="http://www.w3.org/1999/xlink" width="71.34045" height="9.01023" viewBox="0,0,71.34045,9.01023"><g transform="translate(-204.32977,-175.49487)"><g data-paper-data="{&quot;isPaintingLayer&quot;:true}" fill="#ffffff" fill-rule="nonzero" stroke="none" stroke-width="1" stroke-linecap="butt" stroke-linejoin="miter" stroke-miterlimit="10" stroke-dasharray="" stroke-dashoffset="0" style="mix-blend-mode: normal"><path d="M206.63256,183.92314c-0.71794,-0.38801 -1.28086,-0.92569 -1.68948,-1.61463c-0.40939,-0.68815 -0.61331,-1.45728 -0.61331,-2.30814c0,-0.85161 0.20392,-1.62073 0.61331,-2.30888c0.40862,-0.68815 0.97152,-1.22662 1.68948,-1.61463c0.71719,-0.38801 1.52221,-0.58199 2.41507,-0.58199c0.89209,0 1.6971,0.19399 2.41507,0.58199c0.71719,0.38801 1.28009,0.92417 1.68948,1.60851c0.40862,0.68358 0.61255,1.45574 0.61255,2.315c0,0.85925 -0.20392,1.63065 -0.61255,2.31423c-0.40939,0.68434 -0.97228,1.2205 -1.68948,1.60851c-0.71794,0.38801 -1.52297,0.58199 -2.41507,0.58199c-0.89285,0.00001 -1.69788,-0.19399 -2.41507,-0.58198zM210.62406,182.68429c0.46744,-0.26274 0.83403,-0.63011 1.10137,-1.10137c0.26656,-0.47126 0.40021,-0.99902 0.40021,-1.58255c0,-0.5843 -0.13367,-1.11207 -0.40021,-1.58331c-0.26732,-0.47126 -0.63393,-0.83863 -1.10137,-1.10137c-0.46744,-0.26274 -0.99292,-0.39409 -1.57643,-0.39409c-0.5843,0 -1.10975,0.13135 -1.57719,0.39409c-0.46744,0.26274 -0.83403,0.63011 -1.10137,1.10137c-0.26656,0.47126 -0.40021,0.99902 -0.40021,1.58331c0,0.58353 0.13367,1.11129 0.40021,1.58255c0.26732,0.47126 0.63393,0.83863 1.10137,1.10137c0.46744,0.26274 0.99292,0.39409 1.57719,0.39409c0.58353,0.00001 1.10899,-0.13135 1.57643,-0.39409z"/><path d="M223.22558,175.62014l-3.81659,8.75974h-1.60165l-3.82957,-8.75974h1.76432l2.91609,6.75711l2.94054,-6.75711z"/><path d="M230.72128,183.01578v1.36411h-6.57v-8.75974h6.39432v1.36411h-4.76748v2.27756h4.22978v1.3389h-4.22978v2.41507z"/><path d="M238.26662,184.37988l-1.78954,-2.56552c-0.07485,0.0084 -0.18789,0.01298 -0.33759,0.01298h-1.97742v2.55254h-1.62685v-8.75974h3.60425c0.75842,0 1.41986,0.12527 1.98354,0.37578c0.56289,0.24976 0.99444,0.60873 1.2946,1.07616c0.30093,0.46744 0.45063,1.02192 0.45063,1.66426c0,0.65915 -0.16039,1.22586 -0.48195,1.7017c-0.32079,0.47583 -0.7821,0.83023 -1.38244,1.06394l2.01484,2.8779h-1.7521zM237.67851,177.44709c-0.36737,-0.30015 -0.90507,-0.45063 -1.61463,-0.45063h-1.9018v3.49198h1.9018c0.70954,0 1.24725,-0.15277 1.61463,-0.45673c0.36662,-0.30475 0.55068,-0.73628 0.55068,-1.29535c0,-0.55908 -0.18408,-0.98909 -0.55068,-1.28926z"/><path d="M249.69268,175.62014l-3.81735,8.75974h-1.60087l-3.83033,-8.75974h1.76508l2.91609,6.75711l2.94054,-6.75711z"/><path d="M250.61839,175.62014h1.62685v8.75974h-1.62685z"/><path d="M261.17986,183.01578v1.36411h-6.57v-8.75974h6.39432v1.36411h-4.76748v2.27756h4.22978v1.3389h-4.22978v2.41507z"/><path d="M275.67022,175.62014l-2.90235,8.75974h-1.72766l-2.16454,-6.48217l-2.20274,6.48217h-1.73835l-2.90387,-8.75974h1.68948l2.17829,6.65706l2.26384,-6.65706h1.50158l2.21496,6.6945l2.24092,-6.6945z"/></g></g></svg>