<svg version="1.1" xmlns="http://www.w3.org/2000/svg" xmlns:xlink="http://www.w3.org/1999/xlink" width="35.012" height="6.263" viewBox="0,0,35.012,6.263"><g transform="translate(-222.494,-176.582)"><g data-paper-data="{&quot;isPaintingLayer&quot;:true}" fill="#000000" fill-rule="nonzero" stroke="none" stroke-width="1" stroke-linecap="butt" stroke-linejoin="miter" stroke-miterlimit="10" stroke-dasharray="" stroke-dashoffset="0" style="mix-blend-mode: normal"><g><path/><path d="M227.595,176.583l1.391,1.342l-1.391,1.341l-0.927,-0.894h-1.855l-0.464,0.447v1.789l0.464,0.448h1.855l0.927,-0.895l1.391,1.342l-1.391,1.342h-3.71l-1.391,-1.342v-3.578l1.391,-1.342z"/><path d="M229.914,176.583h1.855v4.473h3.71v1.789h-5.565z"/><path d="M236.175,181.503v-3.578l1.391,-1.342h3.71l1.391,1.342v3.578l-1.391,1.342h-3.71zM238.03,178.819v1.789l0.464,0.448h1.855l0.463,-0.448v-1.789l-0.463,-0.447h-1.855z"/><path d="M248.695,182.845h-1.392l-0.463,-0.448l-0.464,0.447h-1.391l-1.392,-1.342v-4.92h1.854v4.025l0.232,0.224l0.231,-0.224v-4.024h1.855v4.025l0.231,0.224l0.232,-0.224v-4.025h1.854v4.92z"/><path d="M252.868,179.713v3.131h-1.854v-6.261h1.392l3.246,3.13v-3.13h1.854v6.262h-1.391z"/><path/></g></g></g></svg>