<svg version="1.1" xmlns="http://www.w3.org/2000/svg" xmlns:xlink="http://www.w3.org/1999/xlink" width="28.752" height="6.262" viewBox="0,0,28.752,6.262"><g transform="translate(-225.625,-176.583)"><g data-paper-data="{&quot;isPaintingLayer&quot;:true}" fill="#000000" fill-rule="nonzero" stroke="none" stroke-width="1" stroke-linecap="butt" stroke-linejoin="miter" stroke-miterlimit="10" stroke-dasharray="" stroke-dashoffset="0" style="mix-blend-mode: normal"><path d="M232.117,177.925v1.789l-1.391,1.342l1.855,1.789h-2.782l-1.855,-1.789h-0.464v1.789h-1.855v-6.262h5.101zM230.262,178.819l-0.463,-0.447h-2.319v0.894h2.319z"/><path d="M233.044,181.503v-3.578l1.391,-1.342h3.71l1.391,1.342v3.578l-1.391,1.342h-3.71zM234.899,178.819v1.789l0.464,0.448h1.855l0.463,-0.448v-1.789l-0.463,-0.447h-1.855z"/><path d="M246.956,177.925v1.341l-0.464,0.447l0.464,0.447v1.342l-1.391,1.342h-5.101v-6.261h5.101zM244.638,178.372h-2.319v0.447h2.319l0.231,-0.223zM242.318,180.608v0.448h2.319l0.231,-0.224l-0.231,-0.224z"/><path d="M247.884,181.503v-3.578l1.392,-1.342h3.71l1.391,1.342v3.578l-1.391,1.342h-3.71zM249.738,178.819v1.789l0.464,0.448h1.855l0.464,-0.448v-1.789l-0.464,-0.447h-1.855z"/></g></g></svg>