<svg version="1.1" xmlns="http://www.w3.org/2000/svg" xmlns:xlink="http://www.w3.org/1999/xlink" width="102.5" height="102.5" viewBox="0,0,102.5,102.5"><defs><linearGradient x1="240" y1="167.88667" x2="240" y2="192.11334" gradientUnits="userSpaceOnUse" id="color-1"><stop offset="0" stop-color="#c39700"/><stop offset="1" stop-color="#fef200"/></linearGradient><radialGradient cx="240" cy="180" r="51.25" gradientUnits="userSpaceOnUse" id="color-2"><stop offset="0" stop-color="#ffae63" stop-opacity="0.23669"/><stop offset="1" stop-color="#ffae63" stop-opacity="0"/></radialGradient></defs><g transform="translate(-188.75,-128.75)"><g data-paper-data="{&quot;isPaintingLayer&quot;:true}" fill-rule="nonzero" stroke="none" stroke-linecap="butt" stroke-linejoin="miter" stroke-miterlimit="10" stroke-dasharray="" stroke-dashoffset="0" style="mix-blend-mode: normal"><path d="M256.5291,184.3947c0.70176,0.70177 0.70176,1.83955 0,2.54132l-4.65095,4.65099c-0.70177,0.70177 -1.83956,0.70177 -2.54133,0l-8.06616,-8.06615c-0.70176,-0.70177 -1.83955,-0.70177 -2.54132,0l-8.06615,8.06615c-0.70177,0.70177 -1.83956,0.70177 -2.54133,0l-4.65095,-4.65099c-0.70177,-0.70177 -0.70176,-1.83956 0,-2.54132l16.50803,-16.50803l0.02106,0.02106l0.02106,-0.02106z" fill="url(#color-1)" stroke-width="1"/><path d="M188.75,180c0,-28.3046 22.9454,-51.25 51.25,-51.25c28.3046,0 51.25,22.9454 51.25,51.25c0,28.3046 -22.9454,51.25 -51.25,51.25c-28.3046,0 -51.25,-22.9454 -51.25,-51.25z" fill="url(#color-2)" stroke-width="0"/></g></g></svg>