<svg version="1.1" xmlns="http://www.w3.org/2000/svg" xmlns:xlink="http://www.w3.org/1999/xlink" width="37.099" height="6.262" viewBox="0,0,37.099,6.262"><g transform="translate(-221.451,-176.583)"><g data-paper-data="{&quot;isPaintingLayer&quot;:true}" fill="#000000" fill-rule="nonzero" stroke="none" stroke-width="1" stroke-linecap="butt" stroke-linejoin="miter" stroke-miterlimit="10" stroke-dasharray="" stroke-dashoffset="0" style="mix-blend-mode: normal"><g><path/><path d="M227.943,177.925v1.789l-1.391,1.342h-3.246v1.789h-1.855v-6.262h5.101zM226.088,178.819l-0.463,-0.447h-2.319v0.894h2.319z"/><path d="M230.726,182.845h-1.855v-6.262h1.855z"/><path d="M236.754,176.583l1.391,1.342l-1.391,1.341l-0.927,-0.894h-1.855l-0.464,0.447v1.789l0.464,0.448h1.855l0.927,-0.895l1.391,1.342l-1.391,1.342h-3.71l-1.391,-1.342v-3.578l1.391,-1.342z"/><path d="M240.927,180.608v2.237h-1.854v-6.262h1.854v2.236l2.319,-2.236h2.782l-3.246,3.13l3.246,3.131h-2.782z"/><path d="M246.492,176.583h1.854v4.473h3.71v1.789h-5.564z"/><path d="M254.84,181.056h3.71v1.789h-5.564v-6.262h5.564v1.789h-3.71v0.447h3.71v1.789h-3.71z"/><path/></g></g></g></svg>