<svg version="1.1" xmlns="http://www.w3.org/2000/svg" xmlns:xlink="http://www.w3.org/1999/xlink" width="125.08702" height="15.83098" viewBox="0,0,125.08702,15.83098"><defs><linearGradient x1="215.88257" y1="179.75603" x2="340.96959" y2="179.75603" gradientUnits="userSpaceOnUse" id="color-1"><stop offset="0" stop-color="#000000" stop-opacity="0.838"/><stop offset="1" stop-color="#000000" stop-opacity="0"/></linearGradient></defs><g transform="translate(-215.88257,-171.84053)"><g data-paper-data="{&quot;isPaintingLayer&quot;:true}" fill-rule="nonzero" stroke="none" stroke-linecap="butt" stroke-linejoin="miter" stroke-miterlimit="10" stroke-dasharray="" stroke-dashoffset="0" style="mix-blend-mode: normal"><path d="M215.88257,187.67151v-15.83098h125.08702v15.83098z" fill="url(#color-1)" stroke-width="0"/><path d="M220.98102,182.8122c-0.6,-0.3 -1.1,-0.8 -1.5,-1.4c-0.4,-0.6 -0.5,-1.3 -0.5,-2c0,-0.7 0.2,-1.4 0.5,-2c0.3,-0.6 0.9,-1.1 1.5,-1.4c0.6,-0.3 1.3,-0.5 2.1,-0.5c0.8,0 1.5,0.2 2.1,0.5c0.6,0.3 1.1,0.8 1.5,1.4c0.4,0.6 0.5,1.3 0.5,2c0,0.8 -0.2,1.4 -0.5,2c-0.3,0.6 -0.9,1.1 -1.5,1.4c-0.6,0.3 -1.3,0.5 -2.1,0.5c-0.8,0 -1.5,-0.1 -2.1,-0.5zM224.48102,181.8122c0.4,-0.2 0.7,-0.6 1,-1c0.2,-0.4 0.4,-0.9 0.4,-1.4c0,-0.5 -0.1,-1 -0.4,-1.4c-0.2,-0.4 -0.6,-0.7 -1,-1c-0.4,-0.3 -0.9,-0.3 -1.4,-0.3c-0.5,0 -1,0.1 -1.4,0.3c-0.4,0.2 -0.7,0.6 -1,1c-0.2,0.4 -0.3,0.9 -0.3,1.4c0,0.5 0.1,1 0.4,1.4c0.2,0.4 0.6,0.7 1,1c0.4,0.2 0.9,0.3 1.4,0.3c0.5,0 0.9,-0.1 1.3,-0.3z" fill="#ffffff" stroke-width="1"/><path d="M234.28102,175.91219c0.5,0.2 0.9,0.5 1.1,0.9c0.3,0.4 0.4,0.9 0.4,1.5c0,0.6 -0.1,1 -0.4,1.5c-0.3,0.4 -0.6,0.7 -1.1,1c-0.5,0.2 -1.1,0.3 -1.7,0.3h-1.7v2.2h-1.5v-7.7h3.2c0.7,-0.1 1.2,0.1 1.7,0.3zM233.88102,179.41219c0.3,-0.3 0.5,-0.6 0.5,-1.1c0,-0.5 -0.2,-0.9 -0.5,-1.1c-0.3,-0.3 -0.8,-0.4 -1.4,-0.4h-1.7v3.1h1.7c0.6,-0.1 1.1,-0.2 1.4,-0.5z" fill="#ffffff" stroke-width="1"/><path d="M239.28102,176.8122h-2.6v-1.2h6.5v1.2h-2.6v6.5h-1.4v-6.5z" fill="#ffffff" stroke-width="1"/><path d="M244.98102,175.5122h1.4v7.7h-1.4z" fill="#ffffff" stroke-width="1"/><path d="M250.68101,182.8122c-0.6,-0.3 -1.1,-0.8 -1.5,-1.4c-0.4,-0.6 -0.5,-1.3 -0.5,-2c0,-0.7 0.2,-1.4 0.5,-2c0.3,-0.6 0.9,-1.1 1.5,-1.4c0.6,-0.3 1.3,-0.5 2.1,-0.5c0.8,0 1.5,0.2 2.1,0.5c0.6,0.3 1.1,0.8 1.5,1.4c0.4,0.6 0.5,1.3 0.5,2c0,0.8 -0.2,1.4 -0.5,2c-0.3,0.6 -0.9,1.1 -1.5,1.4c-0.6,0.3 -1.3,0.5 -2.1,0.5c-0.8,0.1 -1.5,-0.1 -2.1,-0.5zM254.18101,181.8122c0.4,-0.2 0.7,-0.6 1,-1c0.2,-0.4 0.4,-0.9 0.4,-1.4c0,-0.5 -0.1,-1 -0.4,-1.4c-0.2,-0.4 -0.6,-0.7 -1,-1c-0.4,-0.2 -0.9,-0.3 -1.4,-0.3c-0.5,0 -1,0.1 -1.4,0.3c-0.4,0.2 -0.7,0.6 -1,1c-0.2,0.4 -0.4,0.9 -0.4,1.4c0,0.5 0.1,1 0.4,1.4c0.2,0.4 0.6,0.7 1,1c0.4,0.3 0.9,0.3 1.4,0.3c0.5,0 1,-0.1 1.4,-0.3z" fill="#ffffff" stroke-width="1"/><path d="M265.98096,175.5122v7.7h-1.2l-4.2,-5.2v5.2h-1.4v-7.7h1.2l4.2,5.2v-5.2z" fill="#ffffff" stroke-width="1"/><path d="M269.28099,183.1122c-0.6,-0.2 -1,-0.4 -1.3,-0.7l0.5,-1.1c0.3,0.2 0.7,0.5 1.2,0.6c0.5,0.2 0.9,0.2 1.4,0.2c0.6,0 1,-0.1 1.3,-0.3c0.3,-0.2 0.4,-0.4 0.4,-0.7c0,-0.2 -0.1,-0.4 -0.2,-0.5c-0.2,-0.1 -0.4,-0.3 -0.6,-0.3c-0.2,0 -0.6,-0.2 -1,-0.3c-0.6,-0.1 -1.1,-0.3 -1.4,-0.4c-0.4,-0.1 -0.7,-0.4 -0.9,-0.7c-0.3,-0.3 -0.4,-0.7 -0.4,-1.2c0,-0.4 0.1,-0.8 0.3,-1.2c0.2,-0.4 0.6,-0.6 1,-0.8c0.5,-0.2 1,-0.3 1.7,-0.3c0.5,0 0.9,0.1 1.4,0.2c0.5,0.1 0.8,0.3 1.2,0.5l-0.5,1.1c-0.3,-0.2 -0.7,-0.3 -1.1,-0.5c-0.4,-0.1 -0.7,-0.2 -1.1,-0.2c-0.6,0 -1,0.1 -1.3,0.3c-0.3,0.2 -0.4,0.4 -0.4,0.8c0,0.2 0.1,0.4 0.2,0.5c0.2,0.1 0.4,0.2 0.6,0.3c0.2,0.1 0.6,0.2 1,0.3c0.6,0.1 1,0.3 1.4,0.4c0.4,0.1 0.7,0.4 0.9,0.7c0.3,0.3 0.4,0.7 0.4,1.2c0,0.4 -0.1,0.8 -0.3,1.2c-0.2,0.4 -0.6,0.6 -1.1,0.8c-0.5,0.2 -1,0.3 -1.7,0.3c-0.4,0.1 -1,0 -1.6,-0.2z" fill="#ffffff" stroke-width="1"/></g></g></svg>