<svg xmlns="http://www.w3.org/2000/svg" xmlns:xlink="http://www.w3.org/1999/xlink" version="1.1" width="13.937999725341797" height="18.040998458862305" viewBox="0.04500001668930054 -0.23399999737739563 13.937999725341797 18.040998458862305">
  <!-- Exported by Scratch - http://scratch.mit.edu/ -->
  <g id="ID0.0539127541705966">
    <path id="ID0.5674173668958247" fill="#FFFFFF" d="M 12.641 4.61 C 12.641 6.242 11.705 7.514 10.145 8.211 C 12.186 8.883 13.483 10.443 13.483 12.482 C 13.483 15.483 10.985 17.307 7.001 17.307 C 3.041 17.307 0.545 15.483 0.545 12.531 C 0.545 10.467 1.865 8.883 4.001 8.211 C 2.369 7.467 1.385 6.147 1.385 4.515 C 1.385 1.874 3.57 0.266 7.001 0.266 C 10.457 0.266 12.641 1.922 12.641 4.61 Z M 3.232 12.219 C 3.232 14.043 4.601 15.075 7 15.075 C 9.4 15.075 10.792 14.043 10.792 12.219 C 10.792 10.467 9.399 9.435 7 9.435 C 4.625 9.435 3.232 10.467 3.232 12.219 Z M 3.785 4.778 C 3.785 6.338 4.985 7.226 7.001 7.226 C 9.042 7.226 10.217 6.338 10.217 4.778 C 10.217 3.218 9.041 2.306 7 2.306 C 4.985 2.306 3.785 3.218 3.785 4.778 Z " stroke-width="1"/>
  </g>
</svg>