<?xml version="1.0" encoding="utf-8"?><!-- Generator: Adobe Illustrator 16.0.0, SVG Export Plug-In . SVG Version: 6.00 Build 0)  --><!DOCTYPE svg PUBLIC "-//W3C//DTD SVG 1.1//EN" "http://www.w3.org/Graphics/SVG/1.1/DTD/svg11.dtd"><svg xmlns="http://www.w3.org/2000/svg" xmlns:xlink="http://www.w3.org/1999/xlink" version="1.1" id="Layer_1" x="0px" y="0px" width="36.80302810668945" height="9.503999710083008" viewBox="-14.402000427246094 -0.752000093460083 36.80302810668945 9.503999710083008" enable-background="new 0 0 8 8" xml:space="preserve">
<g>
	<path fill="#FFFFFF" d="M-7.414,0.612l-0.588,1.247C-8.913,1.308-9.824,1.08-10.46,1.08c-0.828,0-1.367,0.312-1.367,0.875   c0,1.835,4.534,0.852,4.521,3.874c0,1.5-1.319,2.423-3.166,2.423c-1.319,0-2.567-0.54-3.43-1.331l0.611-1.224   c0.864,0.792,1.943,1.224,2.843,1.224c0.983,0,1.571-0.372,1.571-1.02c0-1.871-4.533-0.828-4.533-3.814   c0-1.438,1.235-2.339,3.058-2.339C-9.261-0.252-8.193,0.097-7.414,0.612z" stroke-width="1"/>
	<path fill="#FFFFFF" d="M-2.804,4.498l-1.427,1.571v2.135h-1.415v-8.396h1.415V4.15l4.006-4.342h1.667l-3.25,3.586l3.466,4.81   h-1.703L-2.804,4.498z" stroke-width="1"/>
	<path fill="#FFFFFF" d="M2.969,8.204v-8.396h1.415v8.396H2.969z" stroke-width="1"/>
	<path fill="#FFFFFF" d="M12.481,8.204L8.008,2.184v6.021H6.593v-8.396h1.392l4.497,6.032v-6.032h1.392v8.396H12.481z" stroke-width="1"/>
	<path fill="#FFFFFF" d="M21.793,0.612l-0.588,1.247c-0.91-0.552-1.822-0.779-2.458-0.779c-0.827,0-1.367,0.312-1.367,0.875   c0,1.835,4.534,0.852,4.521,3.874c0,1.5-1.319,2.423-3.167,2.423c-1.318,0-2.566-0.54-3.43-1.331l0.611-1.224   c0.864,0.792,1.943,1.224,2.844,1.224c0.982,0,1.57-0.372,1.57-1.02c0-1.871-4.533-0.828-4.533-3.814   c0-1.438,1.235-2.339,3.059-2.339C19.946-0.252,21.014,0.097,21.793,0.612z" stroke-width="1"/>
</g>
</svg>