<svg version="1.1" xmlns="http://www.w3.org/2000/svg" xmlns:xlink="http://www.w3.org/1999/xlink" width="28.25" height="27.25" viewBox="0,0,28.25,27.25"><g transform="translate(-225.875,-166.375)"><g data-paper-data="{&quot;isPaintingLayer&quot;:true}" fill-rule="nonzero" stroke="none" stroke-linecap="butt" stroke-linejoin="miter" stroke-miterlimit="10" stroke-dasharray="" stroke-dashoffset="0" style="mix-blend-mode: normal"><path d="M237.588,172.93v3.625l2.305,-0.024c3.648,0 6,2.16 6,5.112c0,3.409 -2.447,5.641 -6.216,5.641c-1.991,0 -4.32,-0.768 -5.976,-1.92l1.128,-2.305c1.344,1.129 3.025,1.777 4.537,1.777c2.184,0 3.504,-1.129 3.504,-3.025c0,-1.704 -1.32,-2.76 -3.48,-2.76c-1.009,0 -3.289,0.096 -4.417,0.216v-8.88h10.225l0.023,2.544h-7.633z" fill="#ffffff" stroke-width="1"/><path d="M225.875,193.625v-27.25h28.25v27.25z" fill="none" stroke-width="0"/></g></g></svg>