<svg xmlns="http://www.w3.org/2000/svg" xmlns:xlink="http://www.w3.org/1999/xlink" version="1.1" width="13.744999885559082" height="18.042001724243164" viewBox="0.27199995517730713 -0.2330015003681183 13.744999885559082 18.042001724243164">
  <!-- Exported by Scratch - http://scratch.mit.edu/ -->
  <g id="ID0.24333195155486465">
    <path id="ID0.7556586675345898" fill="#FFFFFF" d="M 13.038 1.538 L 11.934 3.674 C 10.902 3.002 9.486 2.618 8.213 2.618 C 4.949 2.618 3.437 5.066 3.533 8.691 C 4.421 7.131 6.005 6.315 8.117 6.315 C 11.477 6.315 13.517 8.403 13.517 11.668 C 13.517 15.148 11.189 17.309 7.613 17.309 C 3.364 17.309 0.772 14.285 0.772 9.124 C 0.772 3.771 3.581 0.267 8.021 0.267 C 9.678 0.266 11.67 0.77 13.038 1.538 Z M 3.989 11.739 C 3.965 13.203 5.045 14.859 7.469 14.859 C 9.509 14.859 10.877 13.683 10.877 11.642 C 10.877 9.722 9.629 8.546 7.588 8.546 C 5.31 8.547 3.965 10.011 3.989 11.739 Z " stroke-width="1"/>
  </g>
</svg>