<svg version="1.1" xmlns="http://www.w3.org/2000/svg" xmlns:xlink="http://www.w3.org/1999/xlink" width="158.77768" height="19.28896" viewBox="0,0,158.77768,19.28896"><g transform="translate(-161.11203,-176.75292)"><g data-paper-data="{&quot;isPaintingLayer&quot;:true}" fill="#000000" fill-rule="nonzero" stroke="none" stroke-width="1" stroke-linecap="butt" stroke-linejoin="miter" stroke-miterlimit="10" stroke-dasharray="" stroke-dashoffset="0" style="mix-blend-mode: normal"><path d="M231.88208,176.75292v1.85547h-3.71094v0.46387h3.71094v1.85547h-3.71094v2.31934h-1.85547v-6.49414h5.56641z"/><path d="M232.80982,176.75292h1.85547v4.63867h3.71094v1.85547h-5.56641z"/><path d="M240.69556,176.75292h3.71143l1.3916,1.3916v5.10254h-1.85547v-1.3916h-2.7832v1.3916h-1.85596v-5.10254zM243.47925,178.6084h-1.85547l-0.46387,0.46387v0.92773h2.7832v-0.92773z"/><path d="M248.58179,180.92774v2.31934h-1.85547v-6.49414h1.85547v2.31934l2.31934,-2.31934h2.7832l-3.24707,3.24707l3.24707,3.24707h-2.7832z"/><text transform="translate(161.20261,193.55001) scale(0.18116,0.19935)" font-size="40" xml:space="preserve" fill="#000000" fill-rule="nonzero" stroke="none" stroke-width="1" stroke-linecap="butt" stroke-linejoin="miter" stroke-miterlimit="10" stroke-dasharray="" stroke-dashoffset="0" font-family="Sans Serif" font-weight="normal" text-anchor="start" style="mix-blend-mode: normal"><tspan x="0" dy="0">Fires rapid rockets dealing large area damage</tspan></text></g></g></svg>