<svg version="1.1" xmlns="http://www.w3.org/2000/svg" xmlns:xlink="http://www.w3.org/1999/xlink" width="46.375" height="6.262" viewBox="0,0,46.375,6.262"><g transform="translate(-216.813,-176.583)"><g data-paper-data="{&quot;isPaintingLayer&quot;:true}" fill="#000000" fill-rule="nonzero" stroke="none" stroke-width="1" stroke-linecap="butt" stroke-linejoin="miter" stroke-miterlimit="10" stroke-dasharray="" stroke-dashoffset="0" style="mix-blend-mode: normal"><g><path/><path d="M223.306,177.925v1.789l-1.391,1.342h-3.246v1.789h-1.856v-6.262h5.101zM221.451,178.819l-0.463,-0.447h-2.319v0.894h2.319z"/><path d="M224.233,181.503v-4.92h1.855v4.025l0.464,0.448h1.855l0.463,-0.448v-4.025h1.855v4.92l-1.391,1.342h-3.71z"/><path d="M233.508,179.266v3.579h-1.855v-6.262h1.855l1.391,1.342l1.391,-1.342h1.855v6.262h-1.855v-3.579l-1.391,1.342z"/><path d="M245.565,177.925v1.789l-1.391,1.342h-3.248v1.789h-1.854v-6.262h5.102zM243.71,178.819l-0.463,-0.447h-2.32v0.894h2.32z"/><path d="M248.348,180.608v2.237h-1.854v-6.262h1.854v2.236l2.319,-2.236h2.782l-3.246,3.13l3.246,3.131h-2.782z"/><path d="M255.768,182.845h-1.854v-6.262h1.854z"/><path d="M258.55,179.713v3.131h-1.854v-6.261h1.392l3.246,3.13v-3.13h1.854v6.262h-1.391z"/><path/></g></g></g></svg>