<svg version="1.1" xmlns="http://www.w3.org/2000/svg" xmlns:xlink="http://www.w3.org/1999/xlink" width="28.5" height="6.5" viewBox="0,0,28.5,6.5"><g transform="translate(-225.75,-176.75)"><g data-paper-data="{&quot;isPaintingLayer&quot;:true}" fill="#000000" fill-rule="nonzero" stroke="none" stroke-width="1" stroke-linecap="butt" stroke-linejoin="miter" stroke-miterlimit="10" stroke-dasharray="" stroke-dashoffset="0" style="mix-blend-mode: normal"><g><path d="M225.75,176.75h5l1.4,1.4v3.6l-1.4,1.4h-5zM227.55,178.55v2.7h2.3l0.5,-0.5v-1.8l-0.5,-0.5h-2.3z"/><path d="M232.95,181.75v-5h1.8v4.1l0.5,0.5h1.8l0.5,-0.5v-4.1h1.8v5l-1.4,1.4h-3.6z"/><path d="M245.15,176.75l1.4,1.4l-1.4,1.4l-0.9,-0.9h-1.8l-0.5,0.5v1.7l0.5,0.5h1.8l0.9,-0.9l1.4,1.4l-1.4,1.4h-3.6l-1.4,-1.4v-3.6l1.4,-1.4h3.6z"/><path d="M249.25,180.85v2.3h-1.8v-6.3h1.8v2.3l2.3,-2.3h2.7l-3.2,3.2l3.2,3.2h-2.7z"/></g></g></g></svg>