<svg xmlns="http://www.w3.org/2000/svg" xmlns:xlink="http://www.w3.org/1999/xlink" version="1.1" width="149.2659912109375" height="9.467000007629395" viewBox="0.13199996948242188 0.265999972820282 149.2659912109375 9.467000007629395">
  <!-- Exported by Scratch - http://scratch.mit.edu/ -->
  <g id="ID0.5627256836742163">
    <path id="ID0.7389308512210846" fill="#FFFFFF" d="M 0.632 9.186 L 0.632 0.79 L 1.591 0.79 L 1.591 9.186 L 0.632 9.186 Z " stroke-width="1"/>
    <path id="ID0.6265902612358332" fill="#FFFFFF" d="M 10.132 9.186 L 5.095 2.446 L 5.095 9.186 L 4.136 9.186 L 4.136 0.79 L 5.131 0.79 L 10.169 7.543 L 10.169 0.79 L 11.116 0.79 L 11.116 9.186 L 10.132 9.186 Z " stroke-width="1"/>
    <path id="ID0.36701189167797565" fill="#FFFFFF" d="M 14.635 1.714 L 14.635 4.664 L 18.557 4.664 L 18.557 5.588 L 14.635 5.588 L 14.635 9.186 L 13.676 9.186 L 13.676 0.79 L 19.013 0.79 L 19.013 1.714 L 14.635 1.714 Z " stroke-width="1"/>
    <path id="ID0.8626263570040464" fill="#FFFFFF" d="M 28.431 4.988 C 28.431 7.35 26.488 9.233 24.041 9.233 C 21.583 9.233 19.64 7.35 19.64 4.988 C 19.64 2.613 21.583 0.766 24.041 0.766 C 26.488 0.767 28.431 2.625 28.431 4.988 Z M 20.611 4.988 C 20.611 6.835 22.17 8.31 24.041 8.31 C 25.912 8.31 27.447 6.834 27.447 4.988 C 27.447 3.142 25.912 1.677 24.041 1.677 C 22.17 1.677 20.611 3.142 20.611 4.988 Z " stroke-width="1"/>
    <path id="ID0.1807940797880292" fill="#FFFFFF" d="M 34.206 7.063 L 33.27 9.186 L 32.25 9.186 L 36.016 0.79 L 37.012 0.79 L 40.766 9.186 L 39.723 9.186 L 38.787 7.063 L 34.206 7.063 Z M 36.485 1.882 L 34.614 6.14 L 38.38 6.14 L 36.485 1.882 Z " stroke-width="1"/>
    <path id="ID0.9155895332805812" fill="#FFFFFF" d="M 45.629 0.79 C 47.32 0.79 48.339 1.57 48.339 2.89 C 48.339 3.873 47.775 4.58 46.792 4.785 C 48.003 4.965 48.711 5.757 48.711 6.907 C 48.711 8.335 47.584 9.186 45.689 9.186 L 42.091 9.186 L 42.091 0.79 L 45.629 0.79 Z M 43.051 4.412 L 45.581 4.412 C 46.708 4.412 47.368 3.921 47.368 3.045 C 47.368 2.193 46.708 1.714 45.581 1.714 L 43.051 1.714 L 43.051 4.412 Z M 43.051 8.273 L 45.581 8.273 C 46.948 8.273 47.74 7.734 47.74 6.775 C 47.74 5.863 46.948 5.324 45.581 5.324 L 43.051 5.324 L 43.051 8.273 Z " stroke-width="1"/>
    <path id="ID0.5302725867368281" fill="#FFFFFF" d="M 58.682 4.988 C 58.682 7.35 56.739 9.233 54.292 9.233 C 51.834 9.233 49.89 7.35 49.89 4.988 C 49.89 2.613 51.833 0.766 54.292 0.766 C 56.74 0.767 58.682 2.625 58.682 4.988 Z M 50.863 4.988 C 50.863 6.835 52.422 8.31 54.293 8.31 C 56.164 8.31 57.699 6.834 57.699 4.988 C 57.699 3.142 56.164 1.677 54.293 1.677 C 52.422 1.677 50.863 3.142 50.863 4.988 Z " stroke-width="1"/>
    <path id="ID0.2107772557064891" fill="#FFFFFF" d="M 67.299 5.731 C 67.299 7.914 65.98 9.233 63.785 9.233 C 61.578 9.233 60.247 7.914 60.247 5.731 L 60.247 0.79 L 61.206 0.79 L 61.206 5.731 C 61.206 7.363 62.189 8.31 63.785 8.31 C 65.38 8.31 66.339 7.363 66.339 5.731 L 66.339 0.79 L 67.298 0.79 L 67.298 5.731 Z " stroke-width="1"/>
    <path id="ID0.7138842730782926" fill="#FFFFFF" d="M 72.209 1.714 L 72.209 9.186 L 71.25 9.186 L 71.25 1.714 L 68.516 1.714 L 68.516 0.79 L 74.956 0.79 L 74.956 1.714 L 72.209 1.714 Z " stroke-width="1"/>
    <path id="ID0.5242523420602083" fill="#FFFFFF" d="M 82.193 1.714 L 82.193 9.186 L 81.234 9.186 L 81.234 1.714 L 78.5 1.714 L 78.5 0.79 L 84.94 0.79 L 84.94 1.714 L 82.193 1.714 Z " stroke-width="1"/>
    <path id="ID0.4915996082127094" fill="#FFFFFF" d="M 92.355 9.186 L 92.355 5.492 L 87.294 5.492 L 87.294 9.185 L 86.335 9.185 L 86.335 0.79 L 87.294 0.79 L 87.294 4.58 L 92.355 4.58 L 92.355 0.79 L 93.314 0.79 L 93.314 9.186 L 92.355 9.186 Z " stroke-width="1"/>
    <path id="ID0.32428699964657426" fill="#FFFFFF" d="M 96.822 1.714 L 96.822 4.473 L 101.055 4.473 L 101.055 5.396 L 96.822 5.396 L 96.822 8.274 L 101.715 8.274 L 101.715 9.186 L 95.862 9.186 L 95.862 0.79 L 101.559 0.79 L 101.559 1.714 L 96.822 1.714 Z " stroke-width="1"/>
    <path id="ID0.009747561533004045" fill="#FFFFFF" d="M 107.693 7.063 L 106.757 9.186 L 105.737 9.186 L 109.503 0.79 L 110.499 0.79 L 114.253 9.186 L 113.21 9.186 L 112.274 7.063 L 107.693 7.063 Z M 109.972 1.882 L 108.101 6.14 L 111.867 6.14 L 109.972 1.882 Z " stroke-width="1"/>
    <path id="ID0.7642843625508249" fill="#FFFFFF" d="M 119.332 6.512 C 119.152 6.524 118.96 6.535 118.768 6.535 L 116.538 6.535 L 116.538 9.185 L 115.579 9.185 L 115.579 0.79 L 118.769 0.79 C 120.868 0.79 122.08 1.822 122.08 3.608 C 122.08 5 121.408 5.935 120.197 6.331 L 122.164 9.185 L 121.073 9.185 L 119.332 6.512 Z M 118.768 5.611 C 120.291 5.611 121.155 4.94 121.155 3.632 C 121.155 2.361 120.292 1.713 118.768 1.713 L 116.538 1.713 L 116.538 5.61 L 118.768 5.61 Z " stroke-width="1"/>
    <path id="ID0.836563671939075" fill="#FFFFFF" d="M 125.213 1.714 L 125.213 4.473 L 129.446 4.473 L 129.446 5.396 L 125.213 5.396 L 125.213 8.274 L 130.106 8.274 L 130.106 9.186 L 124.253 9.186 L 124.253 0.79 L 129.95 0.79 L 129.95 1.714 L 125.213 1.714 Z " stroke-width="1"/>
    <path id="ID0.9638768155127764" fill="#FFFFFF" d="M 138.062 9.186 L 133.025 2.446 L 133.025 9.186 L 132.066 9.186 L 132.066 0.79 L 133.061 0.79 L 138.099 7.543 L 138.099 0.79 L 139.046 0.79 L 139.046 9.186 L 138.062 9.186 Z " stroke-width="1"/>
    <path id="ID0.8877792954444885" fill="#FFFFFF" d="M 142.337 7.063 L 141.401 9.186 L 140.381 9.186 L 144.148 0.79 L 145.144 0.79 L 148.898 9.186 L 147.854 9.186 L 146.919 7.063 L 142.337 7.063 Z M 144.616 1.882 L 142.744 6.14 L 146.51 6.14 L 144.616 1.882 Z " stroke-width="1"/>
  </g>
</svg>