<svg version="1.1" xmlns="http://www.w3.org/2000/svg" xmlns:xlink="http://www.w3.org/1999/xlink" width="42.199" height="6.262" viewBox="0,0,42.199,6.262"><g transform="translate(-219.132,-176.583)"><g data-paper-data="{&quot;isPaintingLayer&quot;:true}" fill="#000000" fill-rule="nonzero" stroke="none" stroke-width="1" stroke-linecap="butt" stroke-linejoin="miter" stroke-miterlimit="10" stroke-dasharray="" stroke-dashoffset="0" style="mix-blend-mode: normal"><g><path/><path d="M224.697,176.583v1.789h-3.71v0.447h3.71v1.789h-3.71v2.237h-1.855v-6.262z"/><path d="M227.015,176.583h3.71l1.391,1.342v4.92h-1.855v-1.342h-2.782v1.342h-1.855v-4.92zM229.798,178.372h-1.855l-0.464,0.447v0.895h2.782v-0.895z"/><path d="M239.536,177.925v1.789l-1.391,1.342l1.855,1.789h-2.782l-1.855,-1.789h-0.464v1.789h-1.855v-6.262h5.101zM237.681,178.819l-0.463,-0.447h-2.319v0.894h2.319z"/><path d="M242.318,179.266v3.579h-1.854v-6.262h1.854l1.392,1.342l1.392,-1.342h1.854v6.262h-1.854v-3.579l-1.392,1.342z"/><path d="M249.738,181.056h3.71v1.789h-5.564v-6.262h5.564v1.789h-3.71v0.447h3.71v1.789h-3.71z"/><path d="M260.868,177.925v1.789l-1.391,1.342l1.854,1.789h-2.781l-1.855,-1.789h-0.465v1.789h-1.854v-6.262h5.102zM259.014,178.819l-0.464,-0.447h-2.32v0.894h2.319z"/><path/></g></g></g></svg>