<svg version="1.1" xmlns="http://www.w3.org/2000/svg" xmlns:xlink="http://www.w3.org/1999/xlink" width="28.25" height="27.25" viewBox="0,0,28.25,27.25"><g transform="translate(-225.875,-166.375)"><g data-paper-data="{&quot;isPaintingLayer&quot;:true}" fill-rule="nonzero" stroke="none" stroke-linecap="butt" stroke-linejoin="miter" stroke-miterlimit="10" stroke-dasharray="" stroke-dashoffset="0" style="mix-blend-mode: normal"><path d="M245.641,174.61c0,1.632 -0.936,2.904 -2.496,3.601c2.041,0.672 3.338,2.232 3.338,4.271c0,3.001 -2.498,4.825 -6.482,4.825c-3.96,0 -6.456,-1.824 -6.456,-4.776c0,-2.064 1.32,-3.648 3.456,-4.32c-1.632,-0.744 -2.616,-2.064 -2.616,-3.696c0,-2.641 2.185,-4.249 5.616,-4.249c3.456,0 5.64,1.656 5.64,4.344zM236.232,182.219c0,1.824 1.369,2.856 3.768,2.856c2.4,0 3.792,-1.032 3.792,-2.856c0,-1.752 -1.393,-2.784 -3.792,-2.784c-2.375,0 -3.768,1.032 -3.768,2.784zM236.785,174.778c0,1.56 1.2,2.448 3.216,2.448c2.041,0 3.216,-0.888 3.216,-2.448c0,-1.56 -1.176,-2.472 -3.217,-2.472c-2.015,0 -3.215,0.912 -3.215,2.472z" fill="#ffffff" stroke-width="1"/><path d="M225.875,193.625v-27.25h28.25v27.25z" fill="none" stroke-width="0"/></g></g></svg>