<svg version="1.1" xmlns="http://www.w3.org/2000/svg" xmlns:xlink="http://www.w3.org/1999/xlink" width="33.851" height="6.262" viewBox="0,0,33.851,6.262"><g transform="translate(-223.306,-176.583)"><g data-paper-data="{&quot;isPaintingLayer&quot;:true}" fill="#000000" fill-rule="nonzero" stroke="none" stroke-width="1" stroke-linecap="butt" stroke-linejoin="miter" stroke-miterlimit="10" stroke-dasharray="" stroke-dashoffset="0" style="mix-blend-mode: normal"><g><path/><path d="M225.161,181.056h3.71v1.789h-5.565v-6.262h5.565v1.789h-3.71v0.447h3.71v1.789h-3.71z"/><path d="M229.798,176.583h1.855v4.473h3.71v1.789h-5.565z"/><path d="M236.291,176.583h5.101l1.391,1.342v3.578l-1.391,1.342h-5.101zM238.146,178.372v2.684h2.319l0.464,-0.448v-1.789l-0.464,-0.447z"/><path d="M245.564,181.056h3.71v1.789h-5.564v-6.262h5.564v1.789h-3.71v0.447h3.71v1.789h-3.71z"/><path d="M256.694,177.925v1.789l-1.391,1.342l1.854,1.789h-2.782l-1.855,-1.789h-0.464v1.789h-1.854v-6.262h5.102zM254.84,178.819l-0.464,-0.447h-2.319v0.894h2.319z"/><path/></g></g></g></svg>