<svg version="1.1" xmlns="http://www.w3.org/2000/svg" xmlns:xlink="http://www.w3.org/1999/xlink" width="66.18568" height="27.52848" viewBox="0,0,66.18568,27.52848"><defs><linearGradient x1="240" y1="166.48576" x2="240" y2="193.51424" gradientUnits="userSpaceOnUse" id="color-1"><stop offset="0" stop-color="#000000" stop-opacity="0"/><stop offset="1" stop-color="#000000"/></linearGradient></defs><g transform="translate(-206.90716,-166.23576)"><g data-paper-data="{&quot;isPaintingLayer&quot;:true}" fill-rule="nonzero" stroke-linecap="butt" stroke-miterlimit="10" stroke-dasharray="" stroke-dashoffset="0" style="mix-blend-mode: normal"><path d="M207.15716,193.51424v-27.02848h65.68568v27.02848z" fill="url(#color-1)" stroke="#ffffff" stroke-width="0.5" stroke-linejoin="bevel"/><path d="M215,181.95v-5.1h1.9v4.2l0.5,0.5h1.9l0.5,-0.5v-4.2h1.9v5.1l-1.4,1.4h-3.7z" fill="#ffffff" stroke="none" stroke-width="1" stroke-linejoin="miter"/><path d="M224.3,180.05v3.2h-1.9v-6.5h1.4l3.2,3.2v-3.2h1.9v6.5h-1.4z" fill="#ffffff" stroke="none" stroke-width="1" stroke-linejoin="miter"/><path d="M229.9,176.85h1.9v4.6h3.7v1.9h-5.6z" fill="#ffffff" stroke="none" stroke-width="1" stroke-linejoin="miter"/><path d="M236.1,181.95v-3.7l1.4,-1.4h3.7l1.4,1.4v3.7l-1.4,1.4h-3.7zM238,179.15v1.9l0.5,0.5h1.9l0.5,-0.5v-1.9l-0.5,-0.5h-1.9z" fill="#ffffff" stroke="none" stroke-width="1" stroke-linejoin="miter"/><path d="M248.6,176.85l1.4,1.4l-1.4,1.4l-0.9,-0.9h-1.9l-0.5,0.5v1.9l0.5,0.5h1.9l0.9,-0.9l1.4,1.4l-1.4,1.4h-3.7l-1.4,-1.4v-3.7l1.4,-1.4h3.7z" fill="#ffffff" stroke="none" stroke-width="1" stroke-linejoin="miter"/><path d="M252.8,181.05v2.3h-1.9v-6.5h1.9v2.3l2.3,-2.3h2.8l-3.2,3.2l3.2,3.2h-2.8z" fill="#ffffff" stroke="none" stroke-width="1" stroke-linejoin="miter"/><path d="M258.4,178.25l1.4,-1.4h5.1v1.9h-4.2l-0.2,0.2l0.2,0.2h2.8l1.4,1.4v1.4l-1.4,1.4h-5.1v-1.9h4.2l0.2,-0.2l-0.2,-0.2h-2.8l-1.4,-1.4z" fill="#ffffff" stroke="none" stroke-width="1" stroke-linejoin="miter"/></g></g></svg>