<svg version="1.1" xmlns="http://www.w3.org/2000/svg" xmlns:xlink="http://www.w3.org/1999/xlink" width="165.95162" height="19.28895" viewBox="0,0,165.95162,19.28895"><g transform="translate(-157.11203,-176.75293)"><g data-paper-data="{&quot;isPaintingLayer&quot;:true}" fill="#000000" fill-rule="nonzero" stroke="none" stroke-width="1" stroke-linecap="butt" stroke-linejoin="miter" stroke-miterlimit="10" stroke-dasharray="" stroke-dashoffset="0" style="mix-blend-mode: normal"><path d="M213.07691,180.92773v2.31934h-1.85547v-6.49414h1.85547v2.31934h2.7832v-2.31934h1.85547v6.49414h-1.85547v-2.31934z"/><path d="M220.49879,181.3916h3.71094v1.85547h-5.56641v-6.49414h5.56641v1.85547h-3.71094v0.46387h3.71094v1.85547h-3.71094z"/><path d="M226.29713,176.75293h3.71094l1.3916,1.3916v5.10254h-1.85547v-1.3916h-2.7832v1.3916h-1.85547v-5.10254zM229.08033,178.6084h-1.85547l-0.46387,0.46387v0.92773h2.7832v-0.92773z"/><path d="M232.3274,176.75293h1.85547v4.63867h3.71094v1.85547h-5.56641z"/><path d="M247.67213,178.14453v1.3916l-0.46387,0.46387l0.46387,0.46387v1.3916l-1.3916,1.3916h-5.10254v-6.49414h5.10254zM245.35279,178.6084h-2.31934v0.46387h2.31934l0.23242,-0.23145zM243.03346,180.92773v0.46387h2.31934l0.23242,-0.23145l-0.23242,-0.23242z"/><path d="M250.45533,181.3916h3.71094v1.85547h-5.56641v-6.49414h5.56641v1.85547h-3.71094v0.46387h3.71094v1.85547h-3.71094z"/><path d="M256.25416,176.75293h3.71094l1.3916,1.3916v5.10254h-1.85547v-1.3916h-2.7832v1.3916h-1.85547v-5.10254zM259.03737,178.6084h-1.85547l-0.46387,0.46387v0.92773h2.7832v-0.92773z"/><path d="M264.13991,179.53613v3.71094h-1.85547v-6.49414h1.85547l1.3916,1.3916l1.3916,-1.3916h1.85547v6.49414h-1.85547v-3.71094l-1.3916,1.3916z"/><text transform="translate(157.20261,193.55001) scale(0.18116,0.19935)" font-size="40" xml:space="preserve" fill="#000000" fill-rule="nonzero" stroke="none" stroke-width="1" stroke-linecap="butt" stroke-linejoin="miter" stroke-miterlimit="10" stroke-dasharray="" stroke-dashoffset="0" font-family="Sans Serif" font-weight="normal" text-anchor="start" style="mix-blend-mode: normal"><tspan x="0" dy="0">Long range sustained beam, that heals the user</tspan></text></g></g></svg>