<svg version="1.1" xmlns="http://www.w3.org/2000/svg" xmlns:xlink="http://www.w3.org/1999/xlink" width="90.76079" height="21.69235" viewBox="0,0,90.76079,21.69235"><g transform="translate(-192.42712,-168.25146)"><g data-paper-data="{&quot;isPaintingLayer&quot;:true}" fill-rule="nonzero" stroke="none" stroke-linecap="butt" stroke-linejoin="miter" stroke-miterlimit="10" stroke-dasharray="" stroke-dashoffset="0" style="mix-blend-mode: normal"><g fill="#ffd200" stroke-width="1"><path d="M205.5665,173.43765h5.015l1.368,1.368v3.647l-1.368,1.367h-5.015zM207.3905,175.26166v2.735h2.28l0.456,-0.456v-1.823l-0.456,-0.456z"/><path d="M214.6845,177.99765h3.647v1.823h-5.471v-6.383h5.471v1.824h-3.647v0.456h3.647v1.823h-3.647z"/><path d="M220.3835,173.43765h3.647l1.368,1.368v5.015h-1.824v-1.367h-2.735v1.367h-1.824v-5.015zM223.1185,175.26166h-1.824l-0.456,0.456v0.911h2.735v-0.911z"/><path d="M230.1855,175.26166v4.559h-1.824v-4.559h-2.279v-1.824h6.382v1.824z"/><path d="M235.1995,177.54166v2.279h-1.823v-6.383h1.823v2.28h2.735v-2.28h1.824v6.383h-1.824v-2.279z"/><path d="M242.4935,176.17266v3.647h-1.823v-6.383h1.823l1.368,1.368l1.367,-1.368h1.823v6.383h-1.823v-3.647l-1.367,1.368z"/><path d="M249.3315,173.43765h3.647l1.367,1.368v5.015h-1.823v-1.367h-2.735v1.367h-1.823v-5.015zM252.0665,175.26166h-1.823l-0.456,0.456v0.911h2.735v-0.911z"/><path d="M259.1335,175.26166v4.559h-1.823v-4.559h-2.279v-1.824h6.382v1.824z"/><path d="M267.1115,173.43765l1.367,1.368l-1.367,1.367l-0.912,-0.911h-1.823l-0.456,0.456v1.823l0.456,0.456h1.823l0.912,-0.912l1.367,1.368l-1.367,1.367h-3.647l-1.367,-1.367v-3.647l1.367,-1.368z"/><path d="M271.2155,177.54166v2.279h-1.823v-6.383h1.823v2.28h2.735v-2.28h1.823v6.383h-1.823v-2.279z"/></g><g data-paper-data="{&quot;origPos&quot;:null}" fill="#ffffff" stroke-width="1"><path d="M202.7295,186.32202c-0.195,-0.107 -0.348,-0.257 -0.458,-0.446c-0.111,-0.19 -0.166,-0.403 -0.166,-0.639c0,-0.236 0.055,-0.449 0.166,-0.639c0.111,-0.19 0.264,-0.34 0.46,-0.446c0.196,-0.107 0.415,-0.161 0.658,-0.161c0.182,0 0.35,0.03 0.504,0.091c0.154,0.061 0.285,0.149 0.392,0.266l-0.164,0.165c-0.191,-0.194 -0.433,-0.291 -0.725,-0.291c-0.194,0 -0.37,0.045 -0.529,0.133c-0.159,0.089 -0.283,0.21 -0.373,0.364c-0.09,0.154 -0.135,0.327 -0.135,0.519c0,0.192 0.045,0.363 0.135,0.518c0.09,0.155 0.214,0.275 0.373,0.364c0.159,0.089 0.335,0.133 0.529,0.133c0.294,0 0.535,-0.098 0.725,-0.294l0.164,0.164c-0.107,0.117 -0.238,0.206 -0.394,0.269c-0.155,0.062 -0.324,0.093 -0.506,0.093c-0.243,-0.002 -0.462,-0.056 -0.656,-0.163z"/><path d="M204.8375,184.01102h0.259v2.227h1.372v0.224h-1.631z"/><path d="M208.4425,185.80701h-1.365l-0.294,0.654h-0.27l1.12,-2.45h0.255l1.12,2.45h-0.273zM208.3485,185.59702l-0.588,-1.316l-0.588,1.316z"/><path d="M209.5675,186.39502c-0.167,-0.059 -0.296,-0.136 -0.387,-0.231l0.102,-0.199c0.088,0.089 0.207,0.16 0.354,0.215c0.147,0.056 0.298,0.083 0.455,0.083c0.219,0 0.384,-0.041 0.493,-0.121c0.11,-0.08 0.165,-0.185 0.165,-0.313c0,-0.098 -0.03,-0.176 -0.089,-0.234c-0.059,-0.059 -0.132,-0.104 -0.219,-0.135c-0.086,-0.031 -0.207,-0.065 -0.36,-0.104c-0.184,-0.046 -0.332,-0.091 -0.441,-0.135c-0.11,-0.043 -0.204,-0.108 -0.282,-0.197c-0.078,-0.089 -0.117,-0.209 -0.117,-0.36c0,-0.124 0.033,-0.236 0.098,-0.338c0.065,-0.102 0.166,-0.183 0.301,-0.243c0.135,-0.06 0.303,-0.091 0.504,-0.091c0.14,0 0.277,0.019 0.411,0.058c0.134,0.038 0.25,0.092 0.349,0.159l-0.089,0.204c-0.103,-0.067 -0.212,-0.118 -0.329,-0.152c-0.117,-0.033 -0.231,-0.051 -0.343,-0.051c-0.215,0 -0.376,0.042 -0.485,0.125c-0.108,0.083 -0.163,0.189 -0.163,0.32c0,0.098 0.03,0.177 0.089,0.236c0.059,0.059 0.134,0.104 0.224,0.136c0.089,0.032 0.21,0.066 0.362,0.104c0.18,0.044 0.325,0.088 0.436,0.131c0.111,0.044 0.205,0.109 0.282,0.196c0.077,0.088 0.115,0.206 0.115,0.355c0,0.124 -0.033,0.236 -0.1,0.338c-0.067,0.102 -0.168,0.182 -0.306,0.241c-0.138,0.059 -0.307,0.09 -0.507,0.09c-0.181,0.001 -0.356,-0.028 -0.523,-0.087z"/><path d="M211.7205,186.39502c-0.167,-0.059 -0.296,-0.136 -0.387,-0.231l0.102,-0.199c0.088,0.089 0.207,0.16 0.354,0.215c0.147,0.056 0.298,0.083 0.455,0.083c0.219,0 0.384,-0.041 0.493,-0.121c0.11,-0.08 0.165,-0.185 0.165,-0.313c0,-0.098 -0.03,-0.176 -0.089,-0.234c-0.059,-0.059 -0.132,-0.104 -0.219,-0.135c-0.086,-0.031 -0.207,-0.065 -0.36,-0.104c-0.184,-0.046 -0.332,-0.091 -0.441,-0.135c-0.11,-0.043 -0.204,-0.108 -0.282,-0.197c-0.078,-0.089 -0.117,-0.209 -0.117,-0.36c0,-0.124 0.033,-0.236 0.098,-0.338c0.065,-0.102 0.166,-0.183 0.301,-0.243c0.135,-0.06 0.303,-0.091 0.504,-0.091c0.14,0 0.277,0.019 0.411,0.058c0.134,0.038 0.25,0.092 0.349,0.159l-0.088,0.206c-0.103,-0.067 -0.212,-0.118 -0.329,-0.152c-0.117,-0.033 -0.231,-0.051 -0.343,-0.051c-0.215,0 -0.376,0.042 -0.485,0.125c-0.108,0.083 -0.163,0.189 -0.163,0.32c0,0.098 0.03,0.177 0.089,0.236c0.059,0.059 0.134,0.104 0.224,0.136c0.089,0.032 0.21,0.066 0.362,0.104c0.18,0.044 0.325,0.088 0.436,0.131c0.111,0.044 0.205,0.109 0.282,0.196c0.077,0.088 0.115,0.206 0.115,0.355c0,0.124 -0.033,0.236 -0.1,0.338c-0.067,0.102 -0.168,0.182 -0.306,0.241c-0.138,0.059 -0.307,0.09 -0.507,0.09c-0.183,-0.001 -0.357,-0.03 -0.524,-0.089z"/><path d="M213.7205,184.01102h0.259v2.45h-0.259z"/><path d="M215.1855,186.32202c-0.195,-0.107 -0.348,-0.257 -0.458,-0.446c-0.111,-0.19 -0.166,-0.403 -0.166,-0.639c0,-0.236 0.055,-0.449 0.166,-0.639c0.111,-0.19 0.264,-0.34 0.46,-0.446c0.196,-0.107 0.415,-0.161 0.658,-0.161c0.182,0 0.35,0.03 0.504,0.091c0.154,0.061 0.285,0.149 0.392,0.266l-0.164,0.165c-0.191,-0.194 -0.433,-0.291 -0.725,-0.291c-0.194,0 -0.37,0.045 -0.529,0.133c-0.159,0.089 -0.283,0.21 -0.373,0.364c-0.09,0.154 -0.135,0.327 -0.135,0.519c0,0.192 0.045,0.363 0.135,0.518c0.09,0.155 0.214,0.275 0.373,0.364c0.159,0.089 0.335,0.133 0.529,0.133c0.294,0 0.535,-0.098 0.725,-0.294l0.164,0.164c-0.107,0.117 -0.238,0.206 -0.394,0.269c-0.155,0.062 -0.324,0.093 -0.506,0.093c-0.243,-0.002 -0.462,-0.056 -0.656,-0.163z"/><path d="M218.2115,184.01102h0.998c0.259,0 0.488,0.052 0.686,0.156c0.198,0.104 0.352,0.248 0.462,0.434c0.11,0.186 0.165,0.397 0.165,0.636c0,0.237 -0.055,0.449 -0.165,0.635c-0.11,0.186 -0.264,0.33 -0.462,0.435c-0.198,0.104 -0.427,0.155 -0.686,0.155h-0.998zM219.1945,186.23802c0.215,0 0.403,-0.043 0.563,-0.128c0.161,-0.085 0.286,-0.203 0.375,-0.354c0.089,-0.15 0.133,-0.324 0.133,-0.52c0,-0.196 -0.044,-0.37 -0.133,-0.521c-0.088,-0.15 -0.213,-0.268 -0.375,-0.354c-0.161,-0.085 -0.349,-0.127 -0.563,-0.127h-0.724v2.002h0.724z"/><path d="M222.8345,186.23802v0.224h-1.732v-2.45h1.68v0.225h-1.421v0.871h1.267v0.221h-1.267v0.91h1.473z"/><path d="M224.9805,185.80701h-1.365l-0.294,0.654h-0.27l1.12,-2.45h0.255l1.12,2.45h-0.273zM224.8855,185.59702l-0.588,-1.316l-0.588,1.316z"/><path d="M226.3065,184.23601h-0.861v-0.225h1.981v0.225h-0.861v2.226h-0.259z"/><path d="M229.8865,184.01102v2.45h-0.255v-1.131h-1.533v1.131h-0.259v-2.45h0.259v1.092h1.533v-1.092z"/><path d="M233.2295,184.01102v2.45h-0.249v-1.96l-0.962,1.648h-0.123l-0.962,-1.638v1.949h-0.249v-2.45h0.213l1.064,1.816l1.054,-1.816h0.214z"/><path d="M235.5635,185.80701h-1.365l-0.294,0.654h-0.27l1.12,-2.45h0.255l1.12,2.45h-0.273zM235.4685,185.59702l-0.588,-1.316l-0.588,1.316z"/><path d="M236.8895,184.23601h-0.861v-0.225h1.981v0.225h-0.861v2.226h-0.259z"/><path d="M238.7955,186.32202c-0.195,-0.107 -0.348,-0.257 -0.458,-0.446c-0.111,-0.19 -0.166,-0.403 -0.166,-0.639c0,-0.236 0.055,-0.449 0.166,-0.639c0.111,-0.19 0.264,-0.34 0.46,-0.446c0.196,-0.107 0.415,-0.161 0.658,-0.161c0.182,0 0.35,0.03 0.504,0.091c0.154,0.061 0.285,0.149 0.392,0.266l-0.164,0.165c-0.191,-0.194 -0.433,-0.291 -0.725,-0.291c-0.194,0 -0.37,0.045 -0.529,0.133c-0.159,0.089 -0.283,0.21 -0.373,0.364c-0.09,0.154 -0.135,0.327 -0.135,0.519c0,0.192 0.045,0.363 0.135,0.518c0.09,0.155 0.214,0.275 0.373,0.364c0.159,0.089 0.335,0.133 0.529,0.133c0.294,0 0.535,-0.098 0.725,-0.294l0.164,0.164c-0.107,0.117 -0.238,0.206 -0.394,0.269c-0.155,0.062 -0.324,0.093 -0.506,0.093c-0.243,-0.002 -0.462,-0.056 -0.656,-0.163z"/><path d="M242.9515,184.01102v2.45h-0.256v-1.131h-1.533v1.131h-0.259v-2.45h0.259v1.092h1.533v-1.092z"/><path d="M243.5915,186.42302c-0.037,-0.038 -0.055,-0.083 -0.055,-0.137c0,-0.054 0.018,-0.099 0.055,-0.135c0.036,-0.036 0.079,-0.055 0.131,-0.055c0.051,0 0.096,0.019 0.133,0.055c0.037,0.036 0.056,0.081 0.056,0.135c0,0.054 -0.019,0.099 -0.056,0.137c-0.037,0.037 -0.082,0.056 -0.133,0.056c-0.052,0 -0.095,-0.019 -0.131,-0.056z"/><path d="M247.1345,185.23702h0.249v0.935c-0.114,0.1 -0.25,0.177 -0.406,0.23c-0.156,0.053 -0.32,0.081 -0.493,0.081c-0.245,0 -0.466,-0.054 -0.662,-0.161c-0.195,-0.107 -0.35,-0.257 -0.462,-0.446c-0.111,-0.19 -0.168,-0.403 -0.168,-0.639c0,-0.236 0.057,-0.449 0.168,-0.639c0.112,-0.19 0.267,-0.34 0.462,-0.446c0.196,-0.107 0.418,-0.161 0.665,-0.161c0.188,0 0.358,0.029 0.515,0.089c0.157,0.06 0.288,0.147 0.396,0.265l-0.161,0.164c-0.193,-0.191 -0.439,-0.287 -0.738,-0.287c-0.198,0 -0.377,0.044 -0.537,0.132c-0.16,0.087 -0.285,0.209 -0.376,0.363c-0.091,0.155 -0.137,0.329 -0.137,0.521c0,0.192 0.046,0.363 0.137,0.518c0.091,0.155 0.216,0.275 0.374,0.364c0.159,0.089 0.338,0.133 0.536,0.133c0.252,0 0.465,-0.063 0.64,-0.189v-0.827z"/><path d="M249.8475,186.23802v0.224h-1.732v-2.45h1.68v0.225h-1.421v0.871h1.267v0.221h-1.267v0.91h1.473z"/><path d="M250.9325,184.23601h-0.861v-0.225h1.981v0.225h-0.861v2.226h-0.259z"/><path d="M254.1415,185.31002l-0.5,0.508v0.644h-0.259v-2.45h0.259v1.48l1.438,-1.48h0.297l-1.06,1.109l1.134,1.341h-0.309z"/><path d="M255.8705,184.01102h0.259v2.45h-0.259z"/><path d="M256.9275,184.01102h0.259v2.227h1.372v0.224h-1.631z"/><path d="M258.9885,184.01102h0.259v2.227h1.372v0.224h-1.631z"/><path d="M261.1735,186.39502c-0.166,-0.059 -0.295,-0.136 -0.387,-0.231l0.102,-0.199c0.089,0.089 0.207,0.16 0.354,0.215c0.147,0.056 0.299,0.083 0.455,0.083c0.22,0 0.384,-0.041 0.494,-0.121c0.109,-0.08 0.164,-0.185 0.164,-0.313c0,-0.098 -0.029,-0.176 -0.089,-0.234c-0.06,-0.058 -0.133,-0.104 -0.219,-0.135c-0.087,-0.031 -0.207,-0.065 -0.36,-0.104c-0.185,-0.046 -0.332,-0.091 -0.441,-0.135c-0.109,-0.043 -0.204,-0.108 -0.282,-0.197c-0.078,-0.089 -0.117,-0.209 -0.117,-0.36c0,-0.124 0.033,-0.236 0.099,-0.338c0.066,-0.102 0.165,-0.183 0.301,-0.243c0.135,-0.061 0.304,-0.091 0.504,-0.091c0.14,0 0.277,0.019 0.411,0.058c0.135,0.038 0.25,0.092 0.349,0.159l-0.088,0.206c-0.103,-0.067 -0.212,-0.118 -0.329,-0.152c-0.116,-0.033 -0.23,-0.051 -0.343,-0.051c-0.215,0 -0.376,0.042 -0.484,0.125c-0.108,0.083 -0.163,0.189 -0.163,0.32c0,0.098 0.029,0.177 0.089,0.236c0.06,0.059 0.135,0.104 0.225,0.136c0.09,0.032 0.21,0.066 0.362,0.104c0.18,0.044 0.324,0.088 0.436,0.131c0.11,0.044 0.205,0.109 0.281,0.196c0.077,0.088 0.116,0.206 0.116,0.355c0,0.124 -0.033,0.236 -0.1,0.338c-0.067,0.102 -0.169,0.182 -0.307,0.241c-0.138,0.059 -0.307,0.09 -0.508,0.09c-0.183,-0.001 -0.358,-0.03 -0.525,-0.089z"/><path d="M264.5665,184.23601h-0.861v-0.225h1.981v0.225h-0.861v2.226h-0.259z"/><path d="M266.4765,186.32002c-0.197,-0.108 -0.352,-0.258 -0.462,-0.446c-0.111,-0.189 -0.167,-0.401 -0.167,-0.637c0,-0.236 0.056,-0.448 0.167,-0.638c0.11,-0.188 0.265,-0.338 0.462,-0.446c0.197,-0.108 0.417,-0.162 0.659,-0.162c0.243,0 0.462,0.054 0.656,0.161c0.195,0.106 0.349,0.256 0.461,0.446c0.111,0.189 0.168,0.402 0.168,0.639c0,0.235 -0.057,0.448 -0.168,0.639c-0.112,0.189 -0.266,0.339 -0.461,0.446c-0.194,0.107 -0.413,0.161 -0.656,0.161c-0.242,0 -0.462,-0.055 -0.659,-0.163zM267.6605,186.12102c0.156,-0.088 0.278,-0.209 0.367,-0.364c0.089,-0.155 0.133,-0.328 0.133,-0.52c0,-0.192 -0.044,-0.365 -0.133,-0.521c-0.089,-0.154 -0.211,-0.276 -0.367,-0.363c-0.156,-0.088 -0.331,-0.132 -0.525,-0.132c-0.193,0 -0.369,0.044 -0.526,0.132c-0.157,0.087 -0.281,0.209 -0.371,0.363c-0.09,0.155 -0.135,0.329 -0.135,0.521c0,0.192 0.045,0.364 0.135,0.52c0.09,0.156 0.214,0.276 0.371,0.364c0.157,0.087 0.333,0.131 0.526,0.131c0.194,-0.001 0.369,-0.045 0.525,-0.131z"/><path d="M273.2815,184.01102l-0.826,2.45h-0.273l-0.717,-2.09l-0.722,2.09h-0.27l-0.825,-2.45h0.266l0.707,2.107l0.731,-2.107h0.241l0.722,2.118l0.717,-2.118z"/><path d="M273.7545,184.01102h0.259v2.45h-0.259z"/><path d="M276.8585,184.01102v2.45h-0.213l-1.575,-1.988v1.988h-0.259v-2.45h0.213l1.579,1.988v-1.988z"/><path d="M277.5815,186.42402c-0.037,-0.036 -0.055,-0.078 -0.055,-0.127c0,-0.052 0.018,-0.095 0.053,-0.128c0.035,-0.034 0.079,-0.051 0.133,-0.051c0.051,0 0.095,0.017 0.13,0.051c0.034,0.033 0.052,0.076 0.052,0.128c0,0.049 -0.018,0.091 -0.052,0.127c-0.035,0.036 -0.079,0.055 -0.13,0.055c-0.052,0 -0.095,-0.019 -0.131,-0.055zM277.5655,184.01102h0.294l-0.052,1.715h-0.192z"/></g><path d="M192.42712,189.94381v-21.69235h90.76079v21.69235z" fill="none" stroke-width="0"/></g></g></svg>