<svg version="1.1" xmlns="http://www.w3.org/2000/svg" xmlns:xlink="http://www.w3.org/1999/xlink" width="79.50667" height="19.28895" viewBox="0,0,79.50667,19.28895"><g transform="translate(-200.31203,-176.75292)"><g data-paper-data="{&quot;isPaintingLayer&quot;:true}" fill="#000000" fill-rule="nonzero" stroke="none" stroke-width="1" stroke-linecap="butt" stroke-linejoin="miter" stroke-miterlimit="10" stroke-dasharray="" stroke-dashoffset="0" style="mix-blend-mode: normal"><path d="M221.90894,176.75294h3.71094l1.3916,1.3916v5.10254h-1.85547v-1.3916h-2.7832v1.3916h-1.85547v-5.10254zM224.69215,178.60841h-1.85547l-0.46387,0.46387v0.92773h2.7832v-0.92773z"/><path d="M229.79469,180.92775v2.31934h-1.85547v-6.49414h1.85547v2.31934l2.31934,-2.31934h2.7832l-3.24707,3.24707l3.24707,3.24707h-2.7832z"/><path d="M237.21656,183.24708h-1.85547v-6.49414h1.85547z"/><path d="M239.99976,179.53614v3.71094h-1.85547v-6.49414h1.85547l1.39209,1.3916l1.3916,-1.3916h1.85547v6.49414h-1.85547v-3.71094l-1.3916,1.3916z"/><path d="M252.0608,178.14454v1.3916l-0.46387,0.46387l0.46387,0.46387v1.3916l-1.3916,1.3916h-5.10254v-6.49414h5.10254zM249.74146,178.60841h-2.31934v0.46387h2.31934l0.23145,-0.23242zM247.42213,180.92775v0.46387h2.31934l0.23145,-0.23242l-0.23145,-0.23145z"/><path d="M252.98853,181.85547v-3.71094l1.3916,-1.3916h3.71094l1.3916,1.3916v3.71094l-1.3916,1.3916h-3.71094zM254.844,179.07228v1.85547l0.46387,0.46387h1.85547l0.46387,-0.46387v-1.85547l-0.46387,-0.46387h-1.85547z"/><text transform="translate(200.40261,193.55) scale(0.18116,0.19935)" font-size="40" xml:space="preserve" fill="#000000" fill-rule="nonzero" stroke="none" stroke-width="1" stroke-linecap="butt" stroke-linejoin="miter" stroke-miterlimit="10" stroke-dasharray="" stroke-dashoffset="0" font-family="Sans Serif" font-weight="normal" text-anchor="start" style="mix-blend-mode: normal"><tspan x="0" dy="0">Fires in both directions</tspan></text></g></g></svg>