<svg version="1.1" xmlns="http://www.w3.org/2000/svg" xmlns:xlink="http://www.w3.org/1999/xlink" width="60.25" height="19.79785" viewBox="0,0,60.25,19.79785"><defs><linearGradient x1="240" y1="170.10108" x2="240" y2="189.89893" gradientUnits="userSpaceOnUse" id="color-1"><stop offset="0" stop-color="#000000"/><stop offset="1" stop-color="#000000" stop-opacity="0"/></linearGradient></defs><g transform="translate(-209.875,-170.10107)"><g data-paper-data="{&quot;isPaintingLayer&quot;:true}" fill-rule="nonzero" stroke="none" stroke-linecap="butt" stroke-linejoin="miter" stroke-miterlimit="10" stroke-dasharray="" stroke-dashoffset="0" style="mix-blend-mode: normal"><path d="M209.875,189.89893v-19.79785h60.25v19.79785z" fill="url(#color-1)" stroke-width="0"/><path d="M224.77673,176.12604l-3.7,8.4h-1.9l-3.6,-8.4h2.1l2.6,6l2.6,-6z" fill="#ffffff" stroke-width="1"/><path d="M231.97673,182.92604v1.6h-6.5v-8.4h6.3v1.6h-4.4v1.8h3.9v1.5h-3.9v1.9z" fill="#ffffff" stroke-width="1"/><path d="M238.87673,184.52604l-1.7,-2.4h-0.1h-1.7v2.3h-1.9v-8.4h3.6c0.7,0 1.4,0.1 1.9,0.4c0.5,0.3 1,0.6 1.3,1.1c0.3,0.5 0.4,1 0.4,1.6c0,0.6 -0.1,1.2 -0.4,1.6c-0.3,0.5 -0.7,0.8 -1.3,1l1.9,2.7h-2zM238.37673,178.12604c-0.3,-0.3 -0.8,-0.4 -1.4,-0.4h-1.6v2.9h1.6c0.6,0 1,-0.1 1.3,-0.4c0.3,-0.3 0.5,-0.6 0.5,-1.1c0,-0.4 -0.1,-0.8 -0.4,-1z" fill="#ffffff" stroke-width="1"/><path d="M243.17673,184.42604c-0.6,-0.2 -1.1,-0.4 -1.5,-0.7l0.7,-1.5c0.4,0.3 0.8,0.5 1.3,0.6c0.5,0.2 1,0.2 1.5,0.2c0.6,0 1,-0.1 1.2,-0.2c0.3,-0.2 0.4,-0.4 0.4,-0.7c0,-0.2 -0.1,-0.4 -0.2,-0.5c-0.1,-0.1 -0.5,-0.2 -0.7,-0.2c-0.2,-0.1 -0.6,-0.2 -1,-0.3c-0.6,-0.2 -1.2,-0.3 -1.6,-0.5c-0.4,-0.2 -0.8,-0.4 -1.1,-0.7c-0.3,-0.3 -0.4,-0.8 -0.4,-1.3c0,-0.5 0.1,-0.9 0.4,-1.3c0.3,-0.4 0.7,-0.7 1.2,-0.9c0.5,-0.2 1.2,-0.3 1.9,-0.3c0.5,0 1.1,0.1 1.6,0.2c0.5,0.1 1,0.3 1.3,0.6l-0.6,1.5c-0.8,-0.4 -1.6,-0.7 -2.3,-0.7c-0.5,0 -0.9,0.1 -1.2,0.3c-0.3,0.2 -0.4,0.4 -0.4,0.7c0,0.3 0.1,0.5 0.5,0.6c0.3,0.1 0.8,0.3 1.4,0.4c0.6,0.2 1.2,0.3 1.6,0.5c0.4,0.2 0.8,0.4 1,0.7c0.2,0.3 0.4,0.8 0.4,1.3c0,0.5 -0.1,0.9 -0.4,1.3c-0.3,0.4 -0.7,0.7 -1.2,0.9c-0.5,0.2 -1.2,0.3 -2,0.3c-0.6,-0.1 -1.2,-0.2 -1.8,-0.3z" fill="#ffffff" stroke-width="1"/><path d="M250.87673,183.62604c-0.7,-0.7 -1,-1.6 -1,-2.8v-4.7h1.9v4.6c0,1.5 0.6,2.3 1.9,2.3c0.6,0 1.1,-0.2 1.4,-0.5c0.3,-0.4 0.5,-0.9 0.5,-1.7v-4.6h1.9v4.7c0,1.2 -0.3,2.2 -1,2.8c-0.7,0.6 -1.6,1 -2.8,1c-1.2,0 -2.1,-0.4 -2.8,-1.1z" fill="#ffffff" stroke-width="1"/><path d="M260.27673,184.42604c-0.6,-0.2 -1.1,-0.4 -1.5,-0.7l0.7,-1.5c0.4,0.3 0.8,0.5 1.3,0.6c0.5,0.2 1,0.2 1.5,0.2c0.6,0 1,-0.1 1.2,-0.2c0.3,-0.2 0.4,-0.4 0.4,-0.7c0,-0.2 -0.1,-0.4 -0.2,-0.5c-0.3,-0.1 -0.5,-0.2 -0.7,-0.2c-0.2,0 -0.6,-0.2 -1,-0.3c-0.6,-0.2 -1.2,-0.3 -1.6,-0.5c-0.4,-0.2 -0.8,-0.4 -1,-0.7c-0.3,-0.3 -0.4,-0.8 -0.4,-1.3c0,-0.5 0.1,-0.9 0.4,-1.3c0.3,-0.4 0.7,-0.7 1.2,-0.9c0.5,-0.2 1.2,-0.3 2,-0.3c0.5,0 1.1,0.1 1.6,0.2c0.5,0.1 1,0.3 1.3,0.6l-0.6,1.5c-0.8,-0.4 -1.6,-0.7 -2.3,-0.7c-0.5,0 -0.9,0.1 -1.2,0.3c-0.3,0.2 -0.4,0.4 -0.4,0.7c0,0.3 0.2,0.5 0.5,0.6c0.3,0.1 0.6,0.1 1.2,0.2c0.6,0.2 1.2,0.3 1.6,0.5c0.4,0.2 0.8,0.4 1,0.7c0.2,0.3 0.4,0.8 0.4,1.3c0,0.5 -0.1,0.9 -0.4,1.3c-0.3,0.4 -0.7,0.7 -1.2,0.9c-0.5,0.2 -1.2,0.3 -2,0.3c-0.6,0.1 -1.2,0 -1.8,-0.1z" fill="#ffffff" stroke-width="1"/></g></g></svg>