<svg version="1.1" xmlns="http://www.w3.org/2000/svg" xmlns:xlink="http://www.w3.org/1999/xlink" width="35.707" height="6.262" viewBox="0,0,35.707,6.262"><g transform="translate(-222.378,-176.583)"><g data-paper-data="{&quot;isPaintingLayer&quot;:true}" fill="#000000" fill-rule="nonzero" stroke="none" stroke-width="1" stroke-linecap="butt" stroke-linejoin="miter" stroke-miterlimit="10" stroke-dasharray="" stroke-dashoffset="0" style="mix-blend-mode: normal"><g><path/><path d="M222.378,177.925l1.391,-1.342h5.101v1.789h-4.173l-0.232,0.224l0.232,0.223h2.782l1.391,1.342v1.342l-1.391,1.342h-5.101v-1.789h4.174l0.231,-0.224l-0.231,-0.224h-2.782l-1.391,-1.342v-1.341z"/><path d="M229.798,181.503v-4.92h1.855v4.025l0.464,0.448h1.855l0.463,-0.448v-4.025h1.855v4.92l-1.391,1.342h-3.71z"/><path d="M243.71,177.925v1.789l-1.391,1.342h-3.246v1.789h-1.855v-6.262h5.101zM241.855,178.819l-0.464,-0.447h-2.318v0.894h2.318z"/><path d="M246.492,181.056h3.71v1.789h-5.564v-6.262h5.564v1.789h-3.71v0.447h3.71v1.789h-3.71z"/><path d="M257.622,177.925v1.789l-1.391,1.342l1.854,1.789h-2.782l-1.855,-1.789h-0.464v1.789h-1.854v-6.262h5.102zM255.768,178.819l-0.464,-0.447h-2.319v0.894h2.319z"/><path/></g></g></g></svg>