<svg version="1.1" xmlns="http://www.w3.org/2000/svg" xmlns:xlink="http://www.w3.org/1999/xlink" width="48.5" height="15.5" viewBox="0,0,48.5,15.5"><g transform="translate(-215.75,-172.25)"><g data-paper-data="{&quot;isPaintingLayer&quot;:true}" fill="#ffffff" fill-rule="nonzero" stroke="none" stroke-width="1" stroke-linecap="butt" stroke-linejoin="miter" stroke-miterlimit="10" stroke-dasharray="" stroke-dashoffset="0" style="mix-blend-mode: normal"><g><path d="M221.8,181.096c-0.08,0.008 -0.168,0.008 -0.256,0.008h-1.327v1.688h-0.944v-5.599h2.271c1.431,0 2.255,0.696 2.255,1.911c0,0.896 -0.416,1.527 -1.16,1.815l1.255,1.871h-1.071zM221.544,180.256c0.863,0 1.359,-0.368 1.359,-1.127c0,-0.735 -0.496,-1.087 -1.359,-1.087h-1.327v2.215h1.327z"/><path d="M226,178.041v1.511h2.735v0.848h-2.735v1.543h3.15v0.848h-4.094v-5.598h3.998v0.848z"/><path d="M230.057,180.672v-0.632h1.968v0.632z"/><path d="M238.295,182.791l-0.009,-4.182l-1.767,3.598h-0.616l-1.767,-3.598v4.182h-0.888v-5.598h1.119l1.848,3.719l1.839,-3.719h1.111v5.598z"/><path d="M241.44,181.527l-0.536,1.264h-0.983l2.471,-5.598h0.968l2.446,5.598h-1.007l-0.536,-1.264zM242.848,178.201l-1.056,2.486h2.111z"/><path d="M248.048,178.041v4.75h-0.943v-4.75h-1.767v-0.848h4.485v0.848z"/><path d="M254.902,178.033l-0.552,0.688c-0.407,-0.439 -0.991,-0.711 -1.559,-0.711c-1.119,0 -1.999,0.863 -1.999,1.967c0,1.104 0.88,1.975 1.999,1.975c0.56,0 1.135,-0.256 1.559,-0.664l0.56,0.623c-0.567,0.561 -1.375,0.92 -2.166,0.92c-1.64,0 -2.911,-1.238 -2.911,-2.846c0,-1.591 1.288,-2.814 2.942,-2.814c0.792,-0.002 1.583,0.327 2.127,0.862z"/><path d="M259.783,182.791v-2.319h-2.967v2.319h-0.943v-5.598h0.943v2.431h2.967v-2.431h0.943v5.598z"/></g><path d="M264.25,172.25v15.5h-48.5v-15.5zM263.75,172.75h-47.5v14.5h47.5z"/></g></g></svg>