<svg version="1.1" xmlns="http://www.w3.org/2000/svg" xmlns:xlink="http://www.w3.org/1999/xlink" width="442.70625" height="56.75256" viewBox="0,0,442.70625,56.75256"><defs><linearGradient x1="240.00022" y1="179.99547" x2="461.35314" y2="179.99547" gradientUnits="userSpaceOnUse" id="color-1"><stop offset="0" stop-color="#000000" stop-opacity="0.55645"/><stop offset="1" stop-color="#000000" stop-opacity="0"/></linearGradient><linearGradient x1="239.9998" y1="180.00454" x2="18.64686" y2="180.00454" gradientUnits="userSpaceOnUse" id="color-2"><stop offset="0" stop-color="#000000" stop-opacity="0.55645"/><stop offset="1" stop-color="#000000" stop-opacity="0"/></linearGradient></defs><g transform="translate(-18.64688,-151.62372)"><g data-paper-data="{&quot;isPaintingLayer&quot;:true}" fill-rule="nonzero" stroke="none" stroke-linecap="butt" stroke-linejoin="miter" stroke-miterlimit="10" stroke-dasharray="" stroke-dashoffset="0" style="mix-blend-mode: normal"><g stroke-width="0"><path d="M461.35314,151.62373v56.74349h-221.35292v-56.74349z" data-paper-data="{&quot;index&quot;:null}" fill="url(#color-1)"/><path d="M239.9998,151.6328v56.74349h-221.35292v-56.74349z" data-paper-data="{&quot;index&quot;:null}" fill="url(#color-2)"/></g><g fill="#ff1f83" stroke-width="1"><path d="M117.04093,169.05001h6.2v15.6h12.6v6.2h-18.8z"/><path d="M145.14093,184.65001h12.5v6.2h-18.7v-21.9h18.7v6.2h-12.5v1.6h12.5v6.2h-12.5z"/><path d="M176.44094,178.45001v-9.4h6.2v12.5l-9.4,9.4h-3.1l-9.4,-9.4v-12.5h6.2v9.4l4.7,4.7z"/><path d="M192.04094,184.65001h12.5v6.2h-18.7v-21.9h18.7v6.2h-12.5v1.6h12.5v6.2h-12.5z"/><path d="M207.64094,169.05001h6.2v15.6h12.5v6.2h-18.7z"/><path d="M254.64094,169.05001l4.7,4.7l-4.7,4.7l-3.1,-3.1h-6.2l-1.6,1.6v6.2l1.6,1.6h6.2l3.1,-3.1l4.7,4.7l-4.7,4.7h-12.5l-4.7,-4.7v-12.5l4.7,-4.7h12.5z"/><path d="M262.44093,169.05001h6.2v15.6h12.5v6.2h-18.7z"/><path d="M290.54094,184.65001h12.5v6.2h-18.7v-21.9h18.7v6.2h-12.5v1.6h12.5v6.2h-12.5z"/><path d="M310.04094,169.05001h12.5l4.7,4.7v17.2h-6.2v-4.7h-9.4v4.7h-6.2v-17.2zM319.44093,175.35001h-6.2l-1.6,1.6v3.1h9.4v-3.1z"/><path d="M352.24094,173.75001v6.2l-4.7,4.7l6.2,6.2h-9.4l-6.2,-6.2h-1.6v6.2h-6.2v-21.9h17.2zM346.04094,176.85001l-1.6,-1.6h-7.8v3.1h7.8z"/><path d="M361.64094,183.15001h-6.2v-14.1h6.2zM361.64094,190.95001h-6.2v-6.2h6.2z"/></g><g fill="#1fd6ff" stroke-width="1"><path d="M118.16143,169.05001h6.2v15.6h12.6v6.2h-18.8z"/><path d="M146.26142,184.65001h12.5v6.2h-18.7v-21.9h18.7v6.2h-12.5v1.6h12.5v6.2h-12.5z"/><path d="M177.56143,178.45001v-9.4h6.2v12.5l-9.4,9.4h-3.1l-9.4,-9.4v-12.5h6.2v9.4l4.7,4.7z"/><path d="M193.16142,184.65001h12.5v6.2h-18.7v-21.9h18.7v6.2h-12.5v1.6h12.5v6.2h-12.5z"/><path d="M208.76142,169.05001h6.2v15.6h12.5v6.2h-18.7z"/><path d="M255.76142,169.05001l4.7,4.7l-4.7,4.7l-3.1,-3.1h-6.2l-1.6,1.6v6.2l1.6,1.6h6.2l3.1,-3.1l4.7,4.7l-4.7,4.7h-12.5l-4.7,-4.7v-12.5l4.7,-4.7h12.5z"/><path d="M263.56143,169.05001h6.2v15.6h12.5v6.2h-18.7z"/><path d="M291.66143,184.65001h12.5v6.2h-18.7v-21.9h18.7v6.2h-12.5v1.6h12.5v6.2h-12.5z"/><path d="M311.16143,169.05001h12.5l4.7,4.7v17.2h-6.2v-4.7h-9.4v4.7h-6.2v-17.2zM320.56143,175.35001h-6.2l-1.6,1.6v3.1h9.4v-3.1z"/><path d="M353.36143,173.75001v6.2l-4.7,4.7l6.2,6.2h-9.4l-6.2,-6.2h-1.6v6.2h-6.2v-21.9h17.2zM347.16143,176.85001l-1.6,-1.6h-7.8v3.1h7.8z"/><path d="M362.76143,183.15001h-6.2v-14.1h6.2zM362.76143,190.95001h-6.2v-6.2h6.2z"/></g><g fill="#ffffff" stroke-width="1"><path d="M117.70001,169.05001h6.2v15.6h12.6v6.2h-18.8z"/><path d="M145.80001,184.65001h12.5v6.2h-18.7v-21.9h18.7v6.2h-12.5v1.6h12.5v6.2h-12.5z"/><path d="M177.10001,178.45001v-9.4h6.2v12.5l-9.4,9.4h-3.1l-9.4,-9.4v-12.5h6.2v9.4l4.7,4.7z"/><path d="M192.7,184.65001h12.5v6.2h-18.7v-21.9h18.7v6.2h-12.5v1.6h12.5v6.2h-12.5z"/><path d="M208.30001,169.05001h6.2v15.6h12.5v6.2h-18.7z"/><path d="M255.30001,169.05001l4.7,4.7l-4.7,4.7l-3.1,-3.1h-6.2l-1.6,1.6v6.2l1.6,1.6h6.2l3.1,-3.1l4.7,4.7l-4.7,4.7h-12.5l-4.7,-4.7v-12.5l4.7,-4.7h12.5z"/><path d="M263.10001,169.05001h6.2v15.6h12.5v6.2h-18.7z"/><path d="M291.20001,184.65001h12.5v6.2h-18.7v-21.9h18.7v6.2h-12.5v1.6h12.5v6.2h-12.5z"/><path d="M310.70001,169.05001h12.5l4.7,4.7v17.2h-6.2v-4.7h-9.4v4.7h-6.2v-17.2zM320.10001,175.35001h-6.2l-1.6,1.6v3.1h9.4v-3.1z"/><path d="M352.90001,173.75001v6.2l-4.7,4.7l6.2,6.2h-9.4l-6.2,-6.2h-1.6v6.2h-6.2v-21.9h17.2zM346.70001,176.85001l-1.6,-1.6h-7.8v3.1h7.8z"/><path d="M362.30001,183.15001h-6.2v-14.1h6.2zM362.30001,190.95001h-6.2v-6.2h6.2z"/></g></g></g></svg>