<svg version="1.1" xmlns="http://www.w3.org/2000/svg" xmlns:xlink="http://www.w3.org/1999/xlink" width="171" height="82" viewBox="0,0,171,82"><defs><linearGradient x1="240" y1="395" x2="240" y2="313" gradientUnits="userSpaceOnUse" id="color-1"><stop offset="0" stop-color="#1c1815" stop-opacity="0"/><stop offset="1" stop-color="#1c1815" stop-opacity="0"/></linearGradient></defs><g transform="translate(-154.5,-313)"><g data-paper-data="{&quot;isPaintingLayer&quot;:true}" fill-rule="nonzero" stroke="none" stroke-linecap="butt" stroke-linejoin="miter" stroke-miterlimit="10" stroke-dasharray="" stroke-dashoffset="0" style="mix-blend-mode: normal"><path d="M325.5,313v82h-171v-82z" data-paper-data="{&quot;index&quot;:null}" fill="url(#color-1)" stroke-width="0"/><g fill="#ffffff" stroke-width="1"><path d="M177.7,326.6v8.4h-1l-5,-6.3v6.3h-1.2v-8.4h1l5,6.3v-6.3z"/><path d="M186.3,334v1h-6.1v-8.4h5.9v1h-4.7v2.6h4.2v1h-4.2v2.7h4.9z"/><path d="M193.4,335l-2.5,-3.5l-2.5,3.5h-1.4l3.2,-4.3l-3,-4.1h1.4l2.4,3.2l2.3,-3.2h1.3l-3,4.1l3.2,4.3z"/><path d="M197.5,327.6h-2.9v-1h6.9v1h-2.9v7.4h-1.2v-7.4z"/><path d="M212,330.8h1.2v3.3c-0.4,0.3 -0.9,0.6 -1.5,0.8c-0.6,0.2 -1.1,0.3 -1.7,0.3c-0.8,0 -1.6,-0.2 -2.3,-0.6c-0.7,-0.4 -1.2,-0.9 -1.6,-1.5c-0.4,-0.7 -0.6,-1.4 -0.6,-2.2c0,-0.8 0.2,-1.6 0.6,-2.2c0.4,-0.7 0.9,-1.2 1.6,-1.5c0.7,-0.4 1.5,-0.6 2.3,-0.6c0.7,0 1.3,0.1 1.8,0.3c0.5,0.2 1,0.5 1.4,1l-0.7,0.7c-0.7,-0.6 -1.5,-1 -2.4,-1c-0.6,0 -1.2,0.1 -1.7,0.4c-0.5,0.3 -0.9,0.7 -1.2,1.2c-0.3,0.5 -0.4,1 -0.4,1.7c0,0.6 0.1,1.2 0.4,1.7c0.3,0.5 0.7,0.9 1.2,1.2c0.5,0.3 1.1,0.4 1.7,0.4c0.8,0 1.4,-0.2 2,-0.5v-2.9z"/><path d="M220.8,332.9h-4.5l-0.9,2.1h-1.2l3.8,-8.4h1.2l3.8,8.4h-1.3zM220.3,331.9l-1.8,-4.1l-1.8,4.1z"/><path d="M232,335v-6.1l-3,5.1h-0.6l-3,-5.1v6.1h-1.2v-8.4h1l3.5,5.9l3.5,-5.9h1v8.4z"/><path d="M241.7,334v1h-6.1v-8.4h5.9v1h-4.7v2.6h4.2v1h-4.2v2.7h4.9z"/><path d="M247.5,334.8c-0.6,-0.2 -1,-0.5 -1.4,-0.8l0.4,-0.9c0.3,0.3 0.7,0.5 1.2,0.7c0.5,0.2 1,0.3 1.5,0.3c0.7,0 1.2,-0.1 1.6,-0.4c0.3,-0.2 0.5,-0.5 0.5,-0.9c0,-0.3 -0.1,-0.5 -0.3,-0.7c-0.2,-0.2 -0.4,-0.3 -0.7,-0.4c-0.3,-0.1 -0.7,-0.2 -1.2,-0.3c-0.6,-0.2 -1.1,-0.3 -1.5,-0.5c-0.4,-0.2 -0.7,-0.4 -1,-0.7c-0.3,-0.3 -0.4,-0.7 -0.4,-1.3c0,-0.4 0.1,-0.9 0.4,-1.2c0.2,-0.4 0.6,-0.6 1.1,-0.9c0.5,-0.2 1.1,-0.3 1.8,-0.3c0.5,0 1,0.1 1.5,0.2c0.5,0.1 0.9,0.3 1.2,0.6l-0.4,1c-0.4,-0.2 -0.7,-0.4 -1.1,-0.5c-0.4,-0.1 -0.8,-0.2 -1.2,-0.2c-0.7,0 -1.2,0.1 -1.5,0.4c-0.3,0.2 -0.5,0.6 -0.5,1c0,0.3 0.1,0.5 0.3,0.7c0.2,0.2 0.4,0.3 0.7,0.4c0.3,0.1 0.7,0.2 1.2,0.3c0.6,0.2 1.1,0.3 1.5,0.5c0.4,0.2 0.7,0.4 1,0.7c0.3,0.3 0.4,0.7 0.4,1.3c0,0.4 -0.1,0.8 -0.4,1.2c-0.3,0.4 -0.6,0.7 -1.1,0.9c-0.5,0.2 -1.1,0.3 -1.8,0.3c-0.6,-0.2 -1.2,-0.3 -1.8,-0.5z"/><path d="M255.9,327.6h-2.9v-1h6.9v1h-2.9v7.4h-1.2v-7.4z"/><path d="M266.2,332.9h-4.5l-0.9,2.1h-1.2l3.8,-8.4h1.2l3.8,8.4h-1.3zM265.8,331.9l-1.8,-4.1l-1.8,4.1z"/><path d="M275.3,335l-1.8,-2.6c-0.2,0 -0.4,0 -0.5,0h-2.1v2.6h-1.2v-8.4h3.3c1.1,0 1.9,0.3 2.6,0.8c0.6,0.5 0.9,1.2 0.9,2.1c0,0.6 -0.2,1.2 -0.5,1.7c-0.3,0.5 -0.8,0.8 -1.4,1l2,2.8zM274.6,330.9c0.4,-0.3 0.6,-0.8 0.6,-1.4c0,-0.6 -0.2,-1.1 -0.6,-1.4c-0.4,-0.3 -1,-0.5 -1.7,-0.5h-2v3.8h2c0.8,0 1.3,-0.1 1.7,-0.5z"/><path d="M279.9,327.6h-2.9v-1h6.9v1h-2.9v7.4h-1.2v-7.4z"/><path d="M285.8,334.8c-0.6,-0.2 -1,-0.5 -1.4,-0.8l0.4,-0.9c0.3,0.3 0.7,0.5 1.2,0.7c0.5,0.2 1,0.3 1.5,0.3c0.7,0 1.2,-0.1 1.6,-0.4c0.3,-0.2 0.5,-0.5 0.5,-0.9c0,-0.3 -0.1,-0.5 -0.3,-0.7c-0.2,-0.2 -0.4,-0.3 -0.7,-0.4c-0.3,-0.1 -0.7,-0.2 -1.2,-0.3c-0.6,-0.2 -1.1,-0.3 -1.5,-0.5c-0.4,-0.2 -0.7,-0.4 -1,-0.7c-0.3,-0.3 -0.4,-0.7 -0.4,-1.3c0,-0.4 0.1,-0.9 0.4,-1.2c0.2,-0.4 0.6,-0.6 1.1,-0.9c0.5,-0.3 1.1,-0.3 1.8,-0.3c0.5,0 1,0.1 1.5,0.2c0.5,0.1 0.9,0.3 1.2,0.6l-0.4,1c-0.4,-0.2 -0.7,-0.4 -1.1,-0.5c-0.4,-0.1 -0.8,-0.2 -1.2,-0.2c-0.7,0 -1.2,0.1 -1.5,0.4c-0.3,0.2 -0.5,0.6 -0.5,1c0,0.3 0.1,0.5 0.3,0.7c0.2,0.2 0.4,0.3 0.7,0.4c0.3,0.1 0.7,0.2 1.2,0.3c0.6,0.2 1.1,0.3 1.5,0.5c0.4,0.2 0.7,0.4 1,0.7c0.3,0.3 0.4,0.7 0.4,1.3c0,0.4 -0.1,0.8 -0.4,1.2c-0.3,0.4 -0.6,0.7 -1.1,0.9c-0.5,0.2 -1.1,0.3 -1.8,0.3c-0.6,-0.2 -1.2,-0.3 -1.8,-0.5z"/><path d="M295.9,326.6h1.2v8.4h-1.2z"/><path d="M306.8,326.6v8.4h-1l-5,-6.3v6.3h-1.2v-8.4h1l5,6.3v-6.3z"/><path d="M308.9,330c-0.2,-0.2 -0.2,-0.4 -0.2,-0.6c0,-0.2 0.1,-0.4 0.2,-0.6c0.2,-0.2 0.4,-0.2 0.6,-0.2c0.2,0 0.4,0.1 0.6,0.2c0.2,0.2 0.2,0.3 0.2,0.6c0,0.2 -0.1,0.4 -0.2,0.6c-0.1,0.2 -0.3,0.2 -0.6,0.2c-0.3,0 -0.5,-0.1 -0.6,-0.2zM308.9,334.8c-0.2,-0.2 -0.2,-0.4 -0.2,-0.6c0,-0.2 0.1,-0.4 0.2,-0.6c0.1,-0.2 0.4,-0.2 0.6,-0.2c0.2,0 0.4,0.1 0.6,0.2c0.2,0.2 0.2,0.3 0.2,0.6c0,0.3 -0.1,0.4 -0.2,0.6c-0.1,0.2 -0.3,0.2 -0.6,0.2c-0.3,0.1 -0.5,0 -0.6,-0.2z"/></g></g></g></svg>