<svg version="1.1" xmlns="http://www.w3.org/2000/svg" xmlns:xlink="http://www.w3.org/1999/xlink" width="27.825" height="6.262" viewBox="0,0,27.825,6.262"><g transform="translate(-226.088,-176.583)"><g data-paper-data="{&quot;isPaintingLayer&quot;:true}" fill="#000000" fill-rule="nonzero" stroke="none" stroke-width="1" stroke-linecap="butt" stroke-linejoin="miter" stroke-miterlimit="10" stroke-dasharray="" stroke-dashoffset="0" style="mix-blend-mode: normal"><g><path/><path d="M227.943,180.608v2.237h-1.855v-6.262h1.855v2.236h2.782v-2.236h1.855v6.262h-1.855v-2.237z"/><path d="M235.363,181.056h3.71v1.789h-5.565v-6.262h5.565v1.789h-3.71v0.447h3.71v1.789h-3.71z"/><path d="M246.492,177.925v1.789l-1.391,1.342l1.854,1.789h-2.782l-1.855,-1.789h-0.464v1.789h-1.854v-6.262h5.101zM244.638,178.819l-0.464,-0.447h-2.319v0.894h2.319z"/><path d="M247.42,181.503v-3.578l1.392,-1.342h3.71l1.391,1.342v3.578l-1.391,1.342h-3.71zM249.274,178.819v1.789l0.464,0.448h1.855l0.464,-0.448v-1.789l-0.464,-0.447h-1.855z"/><path/></g></g></g></svg>