<svg version="1.1" xmlns="http://www.w3.org/2000/svg" xmlns:xlink="http://www.w3.org/1999/xlink" width="501.72582" height="423"><g transform="translate(4.978,41)"><g data-paper-data="{&quot;isPaintingLayer&quot;:true}" fill="none" fill-rule="nonzero" stroke="none" stroke-width="1" stroke-linecap="butt" stroke-linejoin="miter" stroke-miterlimit="10" stroke-dasharray="" stroke-dashoffset="0" font-family="none" font-weight="none" font-size="none" text-anchor="none" style="mix-blend-mode: normal"><path d="M488.004,21.898c-0.134,-0.408 -0.091,-0.703 0.049,-0.935c-0.048,0.288 -0.055,0.599 -0.025,0.932c-0.008,0.001 -0.015,0.002 -0.024,0.003z" id="XMLID_213_" fill="#221e1f"/><path d="M-0.949,267.766c-0.195,0.848 -0.455,1.259 -1.002,1.379c-0.034,0.008 -0.321,-0.539 -0.245,-0.734c0.132,-0.336 0.418,-0.656 0.722,-0.863c0.111,-0.076 0.459,0.189 0.525,0.218z" id="XMLID_238_" fill="#221e1f"/><path d="M485.349,316.586c0.21,0.078 0.413,0.153 0.627,0.233c-0.193,0.214 -0.404,0.382 -0.627,0.518z" id="XMLID_247_" fill="#221e1f"/><path d="M485.349,312.562c0.031,0.018 0.067,0.025 0.096,0.046c0.21,0.15 0.137,0.488 -0.096,0.732z" id="XMLID_248_" fill="#221e1f"/><path d="M485.702,306.714c-0.108,0.187 -0.228,0.329 -0.353,0.453v-0.475c0.118,0.008 0.229,0.014 0.353,0.022z" id="XMLID_249_" fill="#221e1f"/><path d="M487.003,323.421h-0.001h-0.001z" id="XMLID_250_" fill="#221e1f"/><path d="M486.421,298.589l-1.072,0.315v-0.464z" id="XMLID_251_" fill="#221e1f"/><path d="M485.349,353.764c0.371,0.094 0.742,0.333 1.131,0.724c-0.382,0.206 -0.754,0.303 -1.131,0.345z" id="XMLID_252_" fill="#221e1f"/><path d="M-4.858,275.699l0.116,-0.009c0,0.042 -0.002,0.084 -0.004,0.126c-0.045,-0.02 -0.089,-0.041 -0.134,-0.062c-0.032,-0.015 -0.065,-0.031 -0.098,-0.046z" id="XMLID_253_" fill="#221e1f"/><path d="M490.321,350.354c-0.807,0.502 -0.881,-0.435 -1.032,-0.958c-1.367,0.897 -2.542,-0.396 -3.69,-0.396h-0.087c-0.112,0 -0.512,-0.318 -0.512,-0.365v4.995c1,-0.019 1.762,0.087 1.01,1.857c-0.136,0.582 -0.141,1.165 -0.276,1.747c0.322,0.113 0.425,0.371 0.191,0.623c-0.142,0.153 0.075,0.123 -0.925,0.166v0.047c1,0.518 1,0.98 0,1.408v15.287v1.068v6.167h-6.488h-479.512v-86.321c1,-0.399 0.627,-0.766 0.816,-1.143c0.028,-0.065 0.348,-0.345 0.386,-0.411c0.059,-0.586 0.277,-1.171 0.279,-1.757c-1.009,-0.151 -0.812,-0.561 -0.802,-1.089c-0.01,-0.718 -0.058,-1.429 0.793,-1.576c0.856,-0.148 0.889,0.297 0.811,1.297h-0.005c0.044,0 0.199,0.55 0.243,0.893c0.044,0.597 0.188,1.058 0.232,1.655c1.195,1.011 -0.752,2.712 1.247,3.731c-0.002,-0.59 -0.151,-1.144 -0.127,-1.735c0.007,-0.295 -0.145,-0.547 -0.185,-0.836c-0.367,-2.671 0.979,-2.708 2.868,-1.708h0.001c0.507,-1 0.963,6.411 2.702,6.639c0.218,-0.509 0.586,-1.531 1.063,-1.061c0.952,0.936 0.153,1.651 -0.733,2.174c0.001,0.023 0.001,0.047 0.002,0.07c-0.024,0 -0.044,0.003 -0.067,0.003c0.357,1.703 -0.795,-5.833 -0.792,-4.186c0.595,-0.407 1.746,2.174 2.225,-0.549c0.128,-0.731 3.311,-0.936 5.092,-1.382c0.043,-0.828 -0.404,7.229 0.571,6.619v0c1.139,-0.532 0.461,-1.639 0.785,-2.429v0c0.997,-0.842 1.456,-2.282 2.933,-2.591v0c0.748,-0.485 1.017,0.19 1.408,0.57c2.039,1.275 1.941,-5.934 1.235,-3.996c1.982,1.025 0.952,7.277 2.207,7.324c0.708,0.744 0.215,-7.401 0.152,-6.582c0.037,0.2 0.074,0.401 0.111,0.601c0.163,-0.012 0.327,-0.025 0.491,-0.038v0v0c0.051,-0.963 1.242,8.245 1.648,7.155c0.668,-1.792 1.749,-8.485 2.772,-8.437c0.678,0.352 2.187,-0.398 1.815,1.343c0.232,0.186 0.464,0.372 0.696,0.557c0.777,-0.642 1.577,0.33 2.358,-0.032c1.825,-0.14 4.07,-1.451 4.474,1.975c0.076,0.641 2.202,1.774 2.538,1.532c1.63,-1.175 2.879,0.662 4.296,0.227c0.396,-0.676 -1.042,-1.422 -0.26,-1.713c1.151,-0.428 0.512,1.342 1.366,1.57c0.741,-3.658 2.916,-1.343 4.598,-1.081c0.703,0.181 1.541,-0.734 2.211,0.343c-0.648,0.724 -1.502,0.258 -2.232,0.371c-0.061,0.349 -0.056,0.681 -0.018,1.004h8.719c0.063,-0.856 -0.611,-1.053 -1.267,-1.267c-0.97,0.718 -1.944,0.009 -2.927,-0.055c0.941,-0.308 1.784,-1.744 2.872,-0.163c1.014,-0.456 2.071,-0.2 3.113,-0.185c1.018,-0.184 2.036,-0.369 3.054,-0.553c0.706,-0.274 1.395,-0.43 1.851,0.391c0.08,0.142 0.037,0.352 0.05,0.531c-0.582,-0.09 -1.164,-0.181 -1.746,-0.271c-0.88,1.213 -2.13,0.383 -3.196,0.569c-0.544,0.334 -1.089,0.669 -1.634,1.003h11.257c0.195,-0.772 1.3,-1.364 1.479,-1.866c0.03,0.472 0.073,1.138 0.12,1.866h20.155h0.01h0.53h0.009h1.347v0.587l0.842,-0.252l0.05,-0.164l0.532,-0.175h7.824c0.82,-0.417 1.83,-0.536 2.556,-1.309c-0.134,0.51 -0.192,0.929 -0.225,1.309h9.383c0.593,0 1.389,-0.419 2.071,-0.493c2.242,-1.109 4.607,-0.31 6.92,-0.362c1.664,-0.031 3.329,-0.062 4.994,-0.093c0.676,-0.513 1.383,-1.472 1.904,0.139c3.823,1.007 4.192,0.8 3.681,-2.069c-1.945,0.094 -3.89,0.189 -5.834,0.283c1.86,-1.019 3.82,-0.789 5.76,-0.767c0.458,0.399 0.917,0.797 1.375,1.196c0.831,0.025 1.661,0.05 2.491,0.075c3.13,-0.06 6.194,-1.126 9.362,-0.591c1.385,-0.064 2.77,-0.129 4.155,-0.193c1.517,-0.85 2.986,-0.064 4.472,0.128c1.132,-0.201 1.757,-1.609 3.111,-1.283c0.066,-0.193 0.102,-0.391 0.11,-0.594c-0.518,-0.259 -1.037,-0.517 -1.715,-0.856c1.031,-0.591 1.705,-0.533 2.238,0.272c1.845,0.472 3.697,-0.855 5.54,0.021c6.578,2.935 13.542,3.366 20.612,3.112l0.067,-0.028c0.656,-0.848 0.296,-2.934 2.443,-1.965c0.143,0.008 0.285,0.003 0.427,-0.014c0.713,-1.074 1.765,-1.035 2.86,-0.85c-0.109,0.478 -0.217,0.957 -0.325,1.435c-0.173,0.432 -0.345,0.863 -0.517,1.295v0v0c0.193,0.218 0.385,0.436 0.577,0.654v0c4.939,-0.246 9.879,-0.492 14.819,-0.738c0.696,-1.989 1.846,-1.26 3.002,-0.491c2.466,-1.138 4.781,0.082 7.152,0.423c0.193,0.022 0.386,0.04 0.579,0.066c3.61,-0.595 6.807,1.996 10.431,1.321c2.307,-0.431 4.619,-0.837 6.929,-1.254c1.859,-0.4 3.767,-1.804 5.507,0.26c3.305,0.654 6.548,1.595 9.948,0.064c1.225,-0.552 2.835,-0.276 4.271,-0.356c1.434,-0.08 2.715,0.131 4.058,-1.158c1.549,-1.486 4.059,-0.191 3.998,1.855c-0.036,1.19 0.534,1.379 1.409,1.473c0.297,0.032 0.594,0.055 0.891,0.083h2.162c-0.006,-0.285 -0.013,-0.569 -0.019,-0.854c-0.396,-0.059 -0.88,0 -1.159,-0.21c-0.248,-0.187 0.035,-0.541 0.353,-0.54c1.207,0.003 2.443,-0.118 3.542,0.567c1.138,-0.29 2.181,-0.404 2.391,1.036h11.388c0.504,-0.658 0.62,-0.591 1.404,0h6.336l-0.032,0.219l0.313,0.086l0.02,-0.305h21.133l-0.014,0.212c0.108,0.013 0.216,0.065 0.323,0.073l0.188,-0.285h1.406c-0.031,-0.261 -0.077,-0.55 -0.135,-0.878c-1.945,0.094 -3.889,0.189 -5.834,0.283c1.86,-1.019 3.82,-0.789 5.76,-0.767c0.458,0.399 0.917,0.797 1.375,1.196c0.831,0.025 1.661,0.05 2.491,0.075c3.13,-0.06 6.194,-1.126 9.362,-0.591c1.385,-0.064 2.77,-0.129 4.155,-0.193c1.517,-0.85 2.986,-0.064 4.472,0.128c1.132,-0.201 1.757,-1.609 3.111,-1.283c0.066,-0.193 0.102,-0.391 0.11,-0.594c-0.518,-0.259 -1.036,-0.517 -1.715,-0.856c1.031,-0.591 1.705,-0.533 2.238,0.272c1.845,0.472 3.697,-0.855 5.54,0.021c6.578,2.935 13.543,3.366 20.612,3.112l0.067,-0.028c0.656,-0.848 0.296,-2.934 2.443,-1.965c0.143,0.008 0.285,0.003 0.427,-0.014c0.713,-1.074 1.765,-1.035 2.86,-0.85c-0.109,0.478 -0.217,0.957 -0.325,1.435c-0.173,0.432 -0.345,0.863 -0.517,1.295v0v0c0.06,0.068 0.119,0.135 0.179,0.203h9.461c1.918,-0.096 3.837,-0.191 5.756,-0.287c0.696,-1.989 1.846,-1.26 3.002,-0.491c2.466,-1.138 4.781,0.082 7.152,0.423c0.193,0.022 0.386,0.04 0.579,0.066c1.288,-0.212 2.523,-0.017 3.744,0.289h11.727h0.009h0.657c0.408,-0.073 0.816,-0.147 1.224,-0.221c1.847,-0.398 3.74,-1.781 5.471,0.221h10.271c1.183,-0.401 2.656,-0.179 3.984,-0.253c1.434,-0.08 2.715,0.131 4.058,-1.158c1.51,-1.449 3.925,-0.253 3.991,1.702c0.105,0.005 0.208,0.009 0.312,0.014c0.123,0.004 0.228,-0.022 0.308,-0.041c0.076,-0.02 0.153,-0.091 0.23,-0.119l0.258,-0.145h17.726l0.01,0.251l0.314,0.084l-0.114,-0.334h14.846l-0.122,0.541c0,0 0,0.209 0,0.21c0,-0.001 0.539,0.25 0.688,0.25h0.312v1h-0.027c0.028,0.017 0.046,0.039 0.089,0.047c0.055,0.009 0.125,0.016 0.217,0.01l0.233,-0.182l0.154,0.161l0.06,-0.004l0.175,-0.239l0.297,-0.404l-0.13,0.188l0.139,-0.181l-0.29,0.409c0.002,0.001 0.006,0.004 0.006,0.004c-0.001,0 -0.001,0 -0.001,0l-0.005,-0.004l-0.161,0.226l1.291,-0.078l-0.851,0.663l0.332,0.371l-1.036,0.063c-0.079,0.005 -0.17,0.011 -0.268,0.011c-0.342,0 -0.773,-0.066 -1.101,-0.46l0.39,-0.318l0.344,-0.281h-0.57l-0.053,0.405l-0.503,-0.185l-0.374,-0.025c-0.185,-0.014 -0.371,-0.027 -0.557,-0.037c-0.061,0.092 -0.144,0.184 -0.256,0.249l1.401,0.469l-1.155,0.246l0.406,0.123l-0.02,0.015l1.762,0.153l-0.425,0.203c0.367,0.039 0.712,0.171 1.011,0.486l0.485,0.157l-0.067,0.455c0.176,0.088 0.323,0.191 0.484,0.286h0.779l0.065,-0.321l0.63,-0.025c0.326,-0.049 0.651,-0.096 0.979,-0.133c0.593,-0.068 1.19,-0.126 1.787,-0.187l0.901,-0.089l0.15,0.105c0.059,0.038 0.11,0.098 0.156,0.14c0.102,-0.007 0.227,0.007 0.27,-0.006l0.143,0.516c-0.05,0 -0.112,0 -0.112,0h-0.174v3.263l-0.089,-0.006c0.058,0.09 0.089,0.192 0.089,0.309v2.874v0.464v7.788v0.475v14.394v0.779v3.245v0.752v1.663l0.065,0.68l0.196,0.32h-0.26v1.08c0,-0.078 0.333,-0.157 0.44,-0.239c0.05,-0.373 0.264,-0.745 0.315,-1.117c-0.14,-0.877 0.127,-1.449 1.103,-1.181c1.577,0.433 0.536,1.65 0.619,2.516c0.121,1.265 -0.958,1.174 -1.731,1.078c-0.246,-0.031 -0.747,-0.083 -0.747,-0.149v1c0.11,0.005 0.133,0.012 0.261,0.012c0.001,0 -0.086,0 -0.086,0h-0.175v0.397l-0.529,-0.361c-0.062,-0.03 0.085,-0.015 0.031,-0.051c0.062,-0.007 0.142,-0.002 0.216,-0.001c-0.168,-0.007 -0.367,-0.012 -0.477,0.001c0.054,0.036 0.168,0.02 0.23,0.05l0.529,0.359l0.427,0.126c0.31,-0.189 1.161,-0.07 1.576,-0.112c1.037,0.077 2.176,-0.438 3.145,0.54c-0.882,1.252 -1.737,0.051 -2.566,0.051h-0.022c-0.732,1 -2.029,1.035 -2.347,0.029c-0.008,-0.025 -0.213,-0.024 -0.213,-0.047v0.213c0,-0.1 -0.024,-0.204 -0.354,-0.298l0.629,-0.065c-0.001,-0.008 -0.01,-0.017 -0.01,-0.024l-0.265,0.013l-0.529,0.078c0.33,0.094 0.528,0.198 0.528,0.298v0.355v1.198c1,-0.146 0.949,-0.748 1.337,-0.748h0.174c1.142,0 2.195,-0.034 2.979,1.071c-0.797,0.629 -1.716,0.371 -2.548,0.529c0.732,1.216 2.192,0.399 3.163,1.399h-0.005c0.551,0 0.784,1.005 0.222,1.354z" data-paper-data="{&quot;origPos&quot;:null}" id="XMLID_254_" fill="#07070a"/><path d="M492.252,313.596c-0.108,0.579 -0.388,0.935 -0.816,0.731c-0.284,-0.136 -0.543,-0.596 -0.566,-0.927c-0.026,-0.375 0.308,-0.83 0.751,-0.643c0.305,0.128 0.463,0.599 0.631,0.839z" id="XMLID_257_" fill="#221e1f"/><path d="M485.349,68.506v-1.237c0.207,0.17 0.287,0.471 0.22,0.77c-0.047,0.208 -0.125,0.354 -0.22,0.467z" id="XMLID_279_" fill="#221e1f"/><path d="M489.534,35.706c-0.332,0.882 -1.404,1.295 -1.885,1.295h-0.044c-0.221,2 -1.237,0.906 -2.021,0.623c-1.135,0.784 -2.584,1.013 -3.584,0.529v2.847h-5.195c-0.083,0.107 -0.165,0.213 -0.248,0.32c-0.686,1.665 -2.074,1.651 -3.333,1.047c-0.821,-0.394 -1.584,-0.229 -2.358,-0.391c0,0.001 0,0 0,0c-1.651,0.905 -3.303,0.354 -4.955,0.003c-0.368,0.052 -0.736,0.102 -1.105,0.154c-1.25,1.481 -2.912,1.121 -4.524,0.99c-1.412,-0.037 -2.931,0.761 -4.199,-0.427c-0.04,-0.031 -0.08,-0.084 -0.12,-0.129c-0.178,0.038 -0.356,-0.003 -0.532,-0.051c-0.113,2.196 -1.171,1.371 -2.225,0.626c-0.001,0.001 -0.006,-0.136 -0.007,-0.139c-1.26,0.998 -2.198,0.762 -4.198,0.289v-0.016c-2,-0.056 -4.683,-0.275 -7.26,-0.275h-0.048c-1.684,0 -3.366,0.165 -5.048,0.035c-0.337,0.282 -0.675,0.618 -1.012,0.899c-0.246,0.785 -0.461,1.609 -1.466,1.752c-0.153,0.022 -0.493,-0.198 -0.482,-0.242c0.169,-0.694 0.383,-1.376 1.198,-1.603c1.107,-1.155 0.053,-1.632 -0.674,-2.277c-0.219,-0.194 -0.087,-0.858 -0.654,-0.328c-0.222,0.207 -0.377,0.508 -0.628,0.656c-0.338,0.199 -0.747,0.43 -1.113,0.41c-2.883,-0.156 -5.534,0.402 -7.904,2.146c-0.302,0.223 -0.979,-0.048 -1.482,-0.093c-0.856,-0.199 -1.817,0.201 -2.594,-0.442c-1.919,-0.049 -3.837,-0.08 -5.755,-0.12c-0.839,-0.018 -1.687,0.057 -1.627,-1.146c-0.817,-0.006 -1.452,0.081 -2.452,0.081v0.271c-1,0 -2.119,0 -3.178,0h-0.002c-5.253,0 -10.523,0.11 -15.755,-0.176c-2.659,-0.146 -5.237,-1.789 -8.039,-1.34c-0.772,0.124 -1.682,-0.283 -2.31,0.497c-0.542,2.506 -2.521,0.731 -3.78,1.245v-0.001c-1.259,1.15 -3.23,0.385 -4.865,0.523c-1.693,-1.093 0.368,-1.107 0.521,-1.664c-2.723,-0.108 -5.455,-0.131 -8.167,-0.373c-1.196,-0.107 -2.085,0.139 -2.888,0.934c-1.143,1.778 -2.763,0.677 -4.062,0.441c-2.223,-0.404 -4.572,1.411 -6.658,-0.48c-2.267,0.537 -3.911,-0.578 -5.694,-1.605h-7.646c0.323,0.166 0.647,0.28 0.97,0.475c0.842,-0.081 1.692,-0.229 2.571,0.213c-0.785,0.94 -1.581,1.227 -2.551,0.42c-1.424,-0.053 -2.845,-0.084 -4.27,-0.137c-0.85,-0.215 -1.694,-0.386 -2.585,-0.612c0.107,-0.171 0.223,-0.278 0.342,-0.359h-43.877c-0.505,0.43 -1.009,0.839 -1.422,0h-4.021c-0.021,0.407 0.051,0.954 0.178,1.667c1.945,-0.094 3.889,-0.189 5.834,-0.283c-1.86,1.019 -3.82,0.789 -5.76,0.767c-0.458,-0.399 -0.917,-0.797 -1.375,-1.196c-0.831,-0.025 -1.661,-0.05 -2.491,-0.075c-3.13,0.06 -6.194,1.126 -9.362,0.591c-1.386,0.064 -2.771,0.129 -4.156,0.193c-1.517,0.85 -2.986,0.064 -4.472,-0.128c-1.132,0.201 -1.757,1.609 -3.111,1.283c-0.066,0.193 -0.102,0.391 -0.11,0.594c0.518,0.259 1.036,0.517 1.715,0.856c-1.031,0.591 -1.705,0.533 -2.238,-0.272c-1.845,-0.472 -3.697,0.855 -5.54,-0.021c-6.578,-2.935 -13.543,-3.366 -20.612,-3.112l-0.067,0.028c-0.656,0.848 -0.296,2.934 -2.443,1.965c-0.143,-0.008 -0.285,-0.003 -0.427,0.014c-0.713,1.074 -1.765,1.035 -2.86,0.85c0.109,-0.478 0.217,-0.957 0.325,-1.435c0.173,-0.432 0.345,-0.863 0.517,-1.295v0v0c-0.193,-0.218 -0.385,-0.436 -0.577,-0.654v0c-4.939,0.246 -9.879,0.492 -14.819,0.738c-0.696,1.989 -1.846,1.26 -3.002,0.491c-2.466,1.138 -4.781,-0.082 -7.152,-0.423c-0.193,-0.022 -0.386,-0.04 -0.579,-0.066c-2.308,0.38 -4.447,-0.54 -6.637,-1.078h-2.706l0.029,-0.22l-0.32,-0.086l-0.02,0.304h-2.123c-1.86,0.34 -3.722,0.674 -5.583,1.01c-1.859,0.4 -3.767,1.804 -5.507,-0.26c-1.339,-0.265 -2.667,-0.574 -4,-0.75h-3.664c-0.756,0.125 -1.516,0.34 -2.285,0.686c-1.225,0.552 -2.835,0.276 -4.271,0.356c-1.434,0.08 -2.715,-0.131 -4.058,1.158c-0.897,0.861 -2.113,0.785 -2.969,0.175c-1.445,1.357 -3.368,1.837 -5.564,1.816c-0.584,0.111 -1.226,0.84 -1.705,-0.158c-0.632,-0.797 -2.521,-0.486 -2.039,-2.266c-1.908,1.397 -1.724,-0.653 -2.336,-1.39c-0.132,-0.07 -0.273,-0.102 -0.423,-0.096c-0.274,0.23 -0.549,0.46 -0.823,0.689v0c-0.467,1.012 1.976,2.517 -0.55,3.181l-0.109,-0.068c-0.059,0.946 -0.118,1.892 -0.192,3.083c-1.095,-0.619 -1.016,-1.557 -1.045,-2.443c-0.515,-0.012 -0.58,0.896 -1.237,0.594c-0.95,0.089 -1.29,-0.378 -1.175,-1.261c-0.317,-0.503 -0.633,-1.006 -1.042,-1.656c-0.206,0.697 -0.344,1.166 -0.726,2.462c-0.14,-2.473 -1.565,-3.664 -2.856,-4.86h-0.468l0.085,0.128l-0.554,-0.129h-5.459c0.116,0.144 0.233,0.288 0.349,0.432v0c0.989,0.814 0.671,1.83 0.19,2.652c-0.271,0.465 -1.047,0.559 -1.38,-0.252l-0.002,-0.002c-0.628,0.009 -1.257,0.018 -1.886,0.027c-0.226,0.233 -0.453,0.465 -0.679,0.697c-0.143,1.35 1.492,1.253 1.834,2.209c0.151,-0.387 0.399,-0.744 0.819,-0.396c0.498,0.414 0.525,1.08 0.185,1.543c-0.196,0.268 -0.715,0.076 -0.927,-0.333c-1.394,0.539 -1.852,-0.566 -2.476,-1.38c-0.28,0.737 -0.56,1.475 -0.85,2.238c-0.827,-0.73 -0.997,-1.704 -1.119,-2.698c-0.369,0.004 -0.737,0.007 -1.106,0.011v0c-3.95,0.507 -0.362,-2.249 -1.337,-3.029l-0.293,-0.086l-0.248,0.177c-0.759,0.839 -0.501,2.762 -2.49,2.29l-0.009,0.006c-0.08,0.048 -0.157,0.086 -0.232,0.118c-0.721,0.365 -1.441,0.731 -2.162,1.096c-0.078,0.173 -0.142,0.351 -0.193,0.533c0.078,0.196 0.089,0.396 0.031,0.599c0.194,0.504 0.387,1.009 0.581,1.513v0c0.287,1.131 -1.003,1.253 -1.162,0.429c-1.229,0.725 -1.977,-0.108 -1.328,-1.245v0c0.264,-0.624 0.527,-1.249 0.79,-1.873c0.033,-1.003 -0.99,-1.809 -0.551,-2.888c-0.294,-0.247 -0.587,-0.493 -0.88,-0.74c0.52,1.382 -0.241,2.575 -0.667,3.779c-0.227,0.643 -0.768,0.444 -1.072,-0.125c-0.204,0.005 -0.404,0.034 -0.601,0.086c-0.206,0.419 -0.413,0.839 -0.62,1.258c-0.38,-0.403 -0.759,-0.807 -1.139,-1.21c-0.622,0.801 0.822,3.439 -2.04,2.248c-0.588,-0.134 -1.177,-0.268 -1.765,-0.402c-0.114,0.318 -0.374,0.506 -0.629,0.275c-0.16,-0.145 -0.121,-0.506 -0.171,-0.771c-0.657,0.507 -1.226,0.326 -1.748,-0.22c-0.216,-0.069 -0.432,-0.137 -0.648,-0.206c-1.299,-1.098 -2.966,-1.814 -3.703,-3.495c-0.884,-0.017 -1.271,-1.637 -2.438,-0.741c-2.218,0.051 -2.44,-0.962 -2.381,-2.125h-3.312c0.022,0.028 0.044,0.056 0.054,0.086c0.388,1.218 0.124,1.883 -1.326,1.585c-0.595,0.142 -1.182,0.953 -1.791,0.022c0.09,-0.9 -0.071,-1.407 -0.375,-1.693h-3.387c-1.805,0.514 -3.807,-0.513 -5.546,0.516c-0.207,0.548 0.888,1.496 -0.442,1.672c-1.342,0.177 -1.455,-0.781 -1.428,-1.773c-0.207,0.004 -0.413,0.008 -0.62,0.012c-0.064,0.847 0.188,2.041 -1.083,2.041c-1.688,0 -1.474,1.395 -2.026,2.237c-0.831,-0.577 -1.053,-1.932 -2.405,-1.843c-0.148,0.169 -0.297,0.339 -0.445,0.508c-1.143,1.498 1.669,1.908 0.937,3.346c-0.171,0.336 1.577,0.384 0.356,1.161c-0.666,0.424 -1.133,0.068 -1.443,-0.589c-0.943,-1.993 -1.624,-4.125 -3.153,-5.807c0.01,-0.004 0.01,0.004 0.02,0c-0.853,-0.211 -2.067,1.529 -2.612,-0.428c-1.016,-0.071 -1.746,-0.373 -2.129,-1.052h-10.733c0.165,0.073 0.249,0.28 0.237,0.589c-0.188,0.099 -0.409,0.283 -0.656,0.327c-0.302,0.054 -0.629,-0.093 -0.475,-0.459c0.084,-0.199 0.348,-0.382 0.58,-0.456h-4.567c-0.276,0.509 -0.884,0.302 -1.459,0.315c-0.436,-0.114 -0.811,-0.299 -1.147,-0.529l-0.509,-0.025c-0.434,-0.026 -0.914,-0.044 -1.394,-0.066c-0.124,-0.005 -0.226,0.021 -0.306,0.041c-0.082,0.02 -0.162,0.093 -0.242,0.123l-0.248,0.141h-0.985c-0.256,0.328 -0.652,0.521 -1.357,0.418c-0.056,0.051 -0.111,0.087 -0.165,0.118c-0.901,0.649 -1.912,0.741 -2.99,0.495l-0.024,-0.027c-2.284,2.025 -4.288,1.378 -6.151,-0.63c-2.008,1.256 -3.248,0.712 -4.257,-0.374h-1.797l-0.013,-0.252l-0.32,-0.085l0.112,0.336h-6.776c-0.48,1.69 0.189,3.706 -0.194,5.556c-0.438,-0.596 -0.753,-1.023 -1.067,-1.45v0c-0.163,0.591 0.065,1.931 -0.767,1.482c-0.832,-0.449 -0.871,-1.685 -0.057,-2.586c0.051,-0.117 0.104,-0.178 0.161,-0.178c0.006,-0.514 -0.142,-0.95 -0.629,-1.214v0v0c-1.841,0.844 -2.314,2.501 -2.602,4.34c-0.89,-0.328 -0.602,-1.368 -1.177,-1.844v0c-1.631,-0.219 -0.854,-1.138 -0.568,-1.915c-0.515,-0.729 -0.765,-1.459 -0.748,-2.19h-0.41l0.291,-0.499v-0.001c0,0.002 -0.709,0.5 -0.857,0.5h-0.143v-1h0.544l0.053,-0.903l0.508,-0.316l0.393,0.031c0.123,0.009 0.254,0.02 0.376,0.03c0.002,-0.118 0.02,-0.237 0.021,-0.355l-0.937,-0.305l1.042,-0.155c0,-0.009 0,-0.018 0,-0.027h-0.341l-1.11,-0.149c-0.028,0.111 -0.057,0.226 -0.088,0.352c0.07,0.052 0.139,0.112 0.204,0.185c-0.003,0.004 -0.007,0.009 -0.003,0.013l-0.435,0.318l-0.418,0.277c-0.059,-0.006 -0.138,-0.041 -0.258,-0.037l-0.235,0.165l-0.152,-0.159l-0.057,0.003l-0.179,0.244l0.309,0.359l-0.31,-0.357l-0.292,0.399l-0.524,-0.375l0.248,-0.223l-0.586,0.037l0.876,-0.667l-0.315,-0.367l1.065,-0.056c0.149,-0.01 0.601,-0.01 0.601,0.017v0.021h-0.125c0.136,0 0.276,0.031 0.412,0.094c-0.055,-0.099 -0.104,-0.199 -0.143,-0.298l-0.25,-0.033l0.195,-0.108c-0.037,-0.112 -0.065,-0.223 -0.086,-0.335c-0.077,-0.007 -0.154,-0.011 -0.231,-0.025l-0.949,-0.055l0.109,-0.24h-1.304l-0.064,-0.178l-0.634,-0.475c-0.325,0.048 -0.65,0.095 -0.977,0.132c-0.607,0.07 -1.215,0.129 -1.823,0.191l-0.864,0.085l-0.149,-0.104c-0.06,-0.038 -0.112,-0.098 -0.159,-0.141c-0.102,0.006 -0.225,-0.008 -0.268,0.006l-0.144,-0.516h-1.546v-3.263l0.089,0.006c-0.059,-0.09 -0.089,-0.191 -0.089,-0.309v-2.874v-0.065l-0.6,-0.083l0.6,-0.177v-0.139v-29.096v0v-1v0v-3v0v-0.728h-0.001h0.001v-0.458c0,-0.137 0,-0.269 0,-0.364v-35.45h5.502h480.496v26.987v0.013v15.005c0,-0.001 0.435,-0.005 0.474,-0.005h0.236c1.528,0 0.963,0.818 0.98,1.584c-0.249,0.938 -0.69,1.602 -1.69,2.137v2.158c1,0.237 1.986,0.452 1.783,1.818c0.051,0.056 0.252,0.11 0.283,0.164c0.655,0.892 0.726,1.893 0.478,2.96l-0.071,0.024c2.046,2.261 1.305,4.245 -0.723,6.089c1.681,2.633 0.251,3.935 -1.749,5.134v3.2v1.237v2.743c2,1.465 4.653,0.316 6.984,0.789c-0.602,0.435 -0.859,0.74 -1.29,1.051v-0.012c0.597,0.162 1.95,-0.088 1.497,0.736c-0.453,0.823 -1.702,0.815 -2.612,0.009c-0.118,-0.05 -0.181,-0.198 -0.181,-0.254c-0.519,-0.006 -0.961,0.433 -1.228,0.433h-0.003h-0.005c0.852,2 2.515,2.42 4.373,2.706zM-1.767,-3.985c-0.107,0.009 -0.222,0.007 -0.351,0c0.129,0.008 0.238,0.013 0.351,0z" data-paper-data="{&quot;origPos&quot;:null}" id="XMLID_282_" fill="#07070a"/><path d="M494.009,15.547c-0.967,1.107 -1.862,0.334 -2.71,0.358c0.1,-0.172 0.181,-0.359 0.305,-0.512c0.816,-1.007 1.565,-0.47 2.405,0.154z" id="XMLID_286_" fill="#221e1f"/><path d="M494.56,1.489c-0.986,0.533 -1.895,0.498 -3.047,-0.005c1.107,-1.005 2.015,-1.034 3.047,0.005z" id="XMLID_287_" fill="#221e1f"/><path d="M493.723,49.758c-0.119,0.439 -0.543,0.798 -0.831,1.193c-0.279,-0.264 -0.558,-0.528 -0.696,-0.658c-0.325,-0.954 0.209,-1.07 0.723,-1.089c0.358,-0.013 0.962,-0.03 0.804,0.554z" id="XMLID_291_" fill="#221e1f"/><path d="M496.731,52.972c-0.098,0.457 -0.547,0.483 -0.945,0.453c-0.441,-0.033 -0.803,-0.25 -0.701,-0.719c0.095,-0.442 0.519,-0.515 0.947,-0.451c0.407,0.065 0.803,0.233 0.699,0.717z" id="XMLID_292_" fill="#221e1f"/><path d="M493.241,51.768c-0.979,0.844 -1.808,0.466 -3.137,0.346c1.304,-0.797 2.126,-0.704 3.137,-0.346z" id="XMLID_293_" fill="#221e1f"/><path d="M486.526,37.549c-0.085,-0.34 0.168,-0.506 0.615,-0.489c0.1,0.186 0.286,0.405 0.33,0.649c0.054,0.299 -0.094,0.622 -0.464,0.47c-0.217,-0.09 -0.422,-0.389 -0.481,-0.63z" id="XMLID_295_" fill="#221e1f"/><path d="M485.26,295.257l0.089,0.006v0.303c0,-0.117 -0.031,-0.218 -0.089,-0.309z" id="XMLID_343_" fill="#221e1f"/><path d="M485.349,320h-0.089l-0.022,-0.32l0.111,-0.68z" id="XMLID_344_" fill="#221e1f"/><path d="M484.924,289.558l-0.908,0.118l-0.13,-0.992l0.908,-0.119l0.065,0.496z" id="XMLID_345_" fill="#221e1f"/><path d="M1.03464,80.43595l-0.1294,-0.9916l0.9093,-0.11866l0.1294,0.9916z" id="XMLID_346_" fill="#221e1f"/><path d="" id="XMLID_347_" fill="#221e1f"/><path d="" id="XMLID_348_" fill="#221e1f"/><path d="M481.73,167.011c0,0 0.027,-0.001 0.058,-0.001l-0.039,0.026c-0.005,-0.006 -0.195,-0.011 -0.195,-0.016v-0.001c0,0 0,-0.003 0,-0.004c0,0 0.176,-0.003 0.176,-0.004z" data-paper-data="{&quot;origPos&quot;:null}" id="XMLID_349_" fill="#221e1f"/><path d="" id="XMLID_350_" fill="#221e1f"/><path d="" id="XMLID_351_" fill="#221e1f"/><path d="" id="XMLID_352_" fill="#221e1f"/><path d="" id="XMLID_353_" fill="#221e1f"/><path d="" id="XMLID_354_" fill="#221e1f"/><path d="" id="XMLID_355_" fill="#221e1f"/><path d="" id="XMLID_356_" fill="#221e1f"/><path d="" id="XMLID_357_" fill="#221e1f"/><path d="M485.287,292v0c0.032,0 0.061,0 0.061,0z" id="XMLID_358_" fill="#221e1f"/><path d="" id="XMLID_359_" fill="#221e1f"/><path d="" id="XMLID_360_" fill="#221e1f"/><path d="" id="XMLID_361_" fill="#221e1f"/><path d="" id="XMLID_362_" fill="#221e1f"/><path d="" id="XMLID_363_" fill="#221e1f"/><path d="" id="XMLID_364_" fill="#221e1f"/><path d="" id="XMLID_365_" fill="#221e1f"/><path d="" id="XMLID_366_" fill="#221e1f"/><path d="" id="XMLID_367_" fill="#221e1f"/><path d="" id="XMLID_368_" fill="#221e1f"/><path d="" id="XMLID_369_" fill="#221e1f"/><path d="" id="XMLID_370_" fill="#221e1f"/><path d="" id="XMLID_371_" fill="#221e1f"/><path d="" id="XMLID_372_" fill="#221e1f"/><path d="" id="XMLID_373_" fill="#221e1f"/><path d="" id="XMLID_374_" fill="#221e1f"/><path d="" id="XMLID_375_" fill="#221e1f"/><path d="" id="XMLID_376_" fill="#221e1f"/></g></g></svg>