<svg version="1.1" xmlns="http://www.w3.org/2000/svg" xmlns:xlink="http://www.w3.org/1999/xlink" width="29.679" height="6.262" viewBox="0,0,29.679,6.262"><g transform="translate(-225.161,-176.583)"><g data-paper-data="{&quot;isPaintingLayer&quot;:true}" fill="#000000" fill-rule="nonzero" stroke="none" stroke-width="1" stroke-linecap="butt" stroke-linejoin="miter" stroke-miterlimit="10" stroke-dasharray="" stroke-dashoffset="0" style="mix-blend-mode: normal"><g><path/><path d="M230.262,176.583l1.391,1.342l-1.391,1.341l-0.927,-0.894h-1.855l-0.464,0.447v1.789l0.464,0.448h1.855l0.927,-0.895l1.391,1.342l-1.391,1.342h-3.71l-1.391,-1.342v-3.578l1.391,-1.342z"/><path d="M234.436,180.608v2.237h-1.855v-6.262h1.855v2.236h2.782v-2.236h1.855v6.262h-1.855v-2.237z"/><path d="M241.854,182.845h-1.854v-6.262h1.854z"/><path d="M244.637,181.056h3.71v1.789h-5.564v-6.262h5.564v1.789h-3.71v0.447h3.71v1.789h-3.71z"/><path d="M254.84,176.583v1.789h-3.71v0.447h3.71v1.789h-3.71v2.237h-1.854v-6.262z"/><path/></g></g></g></svg>