<svg version="1.1" xmlns="http://www.w3.org/2000/svg" xmlns:xlink="http://www.w3.org/1999/xlink" width="29.9" height="6.4" viewBox="0,0,29.9,6.4"><g transform="translate(-225,-176.95)"><g data-paper-data="{&quot;isPaintingLayer&quot;:true}" fill="#000000" fill-rule="nonzero" stroke="none" stroke-width="1" stroke-linecap="butt" stroke-linejoin="miter" stroke-miterlimit="10" stroke-dasharray="" stroke-dashoffset="0" style="mix-blend-mode: normal"><g><path/><path d="M231.4,178.35v1.8l-1.4,1.4h-3.2v1.8h-1.8v-6.3h5zM229.6,179.25l-0.5,-0.5h-2.3v0.9h2.4z"/><path d="M234.1,181.45h3.6v1.8h-5.4v-6.3h5.4v1.8h-3.6v0.5h3.6v1.8h-3.6z"/><path d="M240.5,180.15v3.2h-1.8v-6.3h1.4l3.2,3.2v-3.2h1.8v6.3h-1.4z"/><path d="M245.9,181.95v-3.6l1.4,-1.4h3.6l1.4,1.4l-0.9,0.9h0.9v4.1h-5zM247.7,179.25v1.8l0.5,0.5h2.3v-0.5h-1.8v-1.8h1.8l-0.5,-0.5h-1.8z"/><path d="M254.9,183.25h-1.8v-6.3h1.8z"/><path/></g></g></g></svg>