<svg version="1.1" xmlns="http://www.w3.org/2000/svg" xmlns:xlink="http://www.w3.org/1999/xlink" width="960" height="766.29796"><defs><radialGradient cx="254" cy="206" r="424.264" gradientUnits="userSpaceOnUse" id="color-1"><stop offset="0.5968" stop-color="#000000" stop-opacity="0"/><stop offset="0.6199" stop-color="#000000" stop-opacity="0.05739"/><stop offset="1" stop-color="#000000"/></radialGradient><linearGradient x1="-192.2" y1="69.14898" x2="354.1" y2="69.14898" gradientUnits="userSpaceOnUse" id="color-2"><stop offset="0" stop-color="#000000"/><stop offset="1" stop-color="#000000" stop-opacity="0"/></linearGradient><linearGradient x1="-198.2" y1="413.14898" x2="348.1" y2="413.14898" gradientUnits="userSpaceOnUse" id="color-3"><stop offset="0" stop-color="#000000"/><stop offset="1" stop-color="#000000" stop-opacity="0"/></linearGradient></defs><g transform="translate(226,154)"><g data-paper-data="{&quot;isPaintingLayer&quot;:true}" fill="none" fill-rule="nonzero" stroke="none" stroke-width="1" stroke-linecap="butt" stroke-linejoin="miter" stroke-miterlimit="10" stroke-dasharray="" stroke-dashoffset="0" font-family="none" font-weight="none" font-size="none" text-anchor="none" style="mix-blend-mode: normal"><path d="M-226,566v-720h960v720z" data-paper-data="{&quot;origPos&quot;:null}" id="XMLID_1_" fill="url(#color-1)"/><path d="M353.92934,133.00083v135.29714h-546.12933v-11.27078c0.85333,0 1.76353,0 2.61687,0c14.39279,0 28.84246,0 43.23524,0c-0.22755,-0.42982 -0.512,-1.24169 -0.62578,-1.24169c-2.73065,0.47757 -3.52708,-1.81479 -5.34752,-2.62667c-1.4791,-0.66861 -3.18576,-0.9074 -4.26663,-2.19685c-0.34133,-0.42982 -1.13777,-0.33431 -1.53599,0c-1.36532,1.14618 -3.4702,1.2417 -4.89241,2.29237c-1.82044,1.33721 -3.86841,1.43273 -6.08707,0.81188c-1.70665,-0.47757 -3.47019,-1.00291 -5.23374,-0.28655c-2.61687,1.05067 -5.29063,0.95515 -8.02128,0.57309c-1.9911,-0.28654 -3.9822,-0.81189 -5.9733,-1.2417c-1.13777,-0.66861 -2.38932,-1.28945 -3.12886,-2.34011c-0.22755,-0.23879 -0.39822,-0.52534 -0.62578,-0.76413v-325.5632h15.92878v-51.10058h2.84441v-3.34302h207.07405v4.77576h5.68885v49.66785h314.65014v205.93055c-1.99109,-0.76412 -4.09598,-0.62085 -5.68885,0.38207c-1.64977,1.00291 -3.29952,1.67151 -5.23373,2.14909c-2.55998,0.66861 -5.06309,1.52824 -7.11106,2.91321c-2.55998,1.71928 -6.14396,2.86545 -5.57506,6.49502c-1.42221,-0.04776 -2.61687,1.24169 -4.66485,0.04775c1.13777,1.95806 0.62578,3.96388 4.32353,2.62667c2.4462,-0.85963 4.15285,-1.67152 5.23373,-3.58182c0.34132,-0.62085 0.62578,-1.28945 0.96711,-1.95806c3.24264,-1.52824 4.89241,-4.728 9.04528,-5.44436c2.84443,-0.47757 5.57507,-1.33721 8.59015,-1.05066c0,0 0.05689,0 -0.05689,0.04776zM-187.36447,118.62581c-1.13777,0.09552 -2.21866,0.76412 -1.93421,1.9103c0.28445,1.00291 0.96711,1.95806 1.59287,3.10424c1.36532,-1.09843 1.08088,-2.34011 1.30843,-3.43854c0.17067,-0.71637 0.22755,-1.67152 -0.96711,-1.576zM-168.30683,152.10385l-0.17067,-0.04776v0.14328zM-154.14161,48.27893c2.44621,-3.34302 1.82044,-4.63247 -2.67375,-6.20848c-0.34133,1.57599 1.70666,3.24752 -0.73955,4.91902c0,-0.47758 -0.05689,-0.71637 0,-0.9074c0.22755,-1.00291 0.39822,-2.2446 -1.02399,-2.29237c-1.36532,-0.04776 -1.19465,1.28946 -1.08088,2.10133c0.34133,2.38788 -0.91022,3.91612 -3.4702,4.87127c-0.96711,0.38206 -2.27554,0.95515 -1.64977,2.14909c0.56889,1.05067 1.87732,1.28945 3.18575,1.09842c1.19466,-0.19103 2.4462,-0.38207 3.29953,-1.2417c1.42221,-1.48049 3.01508,-2.86545 4.15285,-4.4892zM-153.51584,85.86413c-0.11378,0.19103 -0.34133,0.38206 -0.34133,0.52533c0,0.14328 0.28445,0.28655 0.512,0.57309c0.17067,-0.28655 0.39821,-0.52533 0.34132,-0.6686c-0.05689,-0.19103 -0.34133,-0.28654 -0.512,-0.42982zM-152.32118,131.9024c-0.05689,-0.52533 -0.11378,-1.19394 -0.91021,-1.2417c-0.62578,-0.04776 -0.68267,0.47758 -0.62578,0.85963c0.05689,0.47757 0.28445,0.90739 0.91021,1.05067c0.45511,-0.04776 0.62578,-0.3343 0.62578,-0.6686zM-51.45791,4.62854c0.62578,0.09551 1.30843,0.14327 1.93421,0.19103c-0.11378,-0.52533 -0.11377,-1.09842 -0.28444,-1.62375c-0.11378,-0.47758 -0.62577,-0.71637 -1.08087,-0.47758c-0.45511,0.19103 -0.85333,0.57309 -1.13777,0.95515c-0.28444,0.42982 0,0.81188 0.56889,0.95515zM-62.26672,-24.6946c0.17066,-1.95806 2.9582,-2.05357 3.4702,-3.8206c-3.98219,0.76412 -5.00618,1.76703 -3.4702,3.8206zM-60.73074,-24.02599c-0.56888,0.19103 -1.13777,0.38207 -2.04798,0.71637c1.13777,0.38207 1.76355,0.47758 2.16176,-0.09552c0.11377,-0.14327 -0.05689,-0.42981 -0.11378,-0.62085zM-148.90787,97.89903c-0.34133,1.05066 -0.73955,2.1491 0.22755,3.39079c0.96711,-1.33722 0.79645,-2.38788 -0.22755,-3.39079zM-143.38968,256.97942c-0.22755,-0.47757 -0.17066,-1.19394 -1.02399,-1.09842c-0.62578,0.04776 -0.56889,0.6686 -0.68267,1.09842c0.56889,0 1.13777,0 1.70666,0zM-113.69391,192.93655c0,-0.14327 -0.11377,-0.23878 -0.22755,-0.38206c-0.17066,0.09552 -0.39822,0.14328 -0.39822,0.23879c0,0.14327 0.17067,0.23878 0.22756,0.38205c0.17066,-0.04776 0.39821,-0.14327 0.39821,-0.23879zM-94.52249,161.08227c-0.11377,-0.33431 -0.512,-0.52534 -0.85332,-0.33431c-0.22755,0.14327 -0.45511,0.47758 -0.51199,0.76412c-0.05689,0.33431 0.28445,0.52533 0.73955,0.47757c0.512,-0.14327 0.73955,-0.42982 0.62577,-0.90739zM-81.89325,28.84161c-2.16177,-3.96387 -4.66486,-7.78447 -6.9404,-11.70059c-3.18576,-5.49212 -5.63196,-11.22302 -8.70394,-16.7629c-1.99109,-3.58182 -4.09597,-7.11588 -6.25773,-10.64993c-3.01508,-4.96678 -6.20084,-9.88581 -9.15904,-14.90035c-2.44621,-4.10715 -4.77863,-8.26205 -7.05417,-12.41696c-2.38931,-4.25042 -5.40441,-8.16653 -7.96439,-12.32144c-2.55998,-4.20266 -4.66485,-8.59636 -7.3955,-12.70351c-2.44621,-3.67734 -5.29062,-7.21139 -7.3955,-11.07975c-1.70666,-3.24751 -3.5271,-6.44728 -5.63196,-9.55152c-0.39822,-0.52533 -0.62577,-1.19393 -1.70666,-1.24169c-1.42221,0.23879 -0.91021,1.0029 -0.39821,1.71927c4.72174,6.78157 8.02128,14.23175 12.79991,21.06108c3.07198,4.34594 4.32352,9.50375 8.24882,13.41987c0.05689,0.09551 0.05688,0.14328 0.11377,0.23879c2.67375,4.68024 5.9164,9.02618 8.53328,13.70642c3.24264,5.63539 7.05417,11.03199 10.46748,16.57187c3.35642,5.49212 6.76972,10.98424 9.61415,16.71515c2.78754,5.53988 5.85952,10.98424 8.87461,16.47636c2.61687,4.728 5.34752,9.45599 8.13505,14.13623c0.45511,0.81188 1.02399,2.43564 2.38931,1.81479c1.08088,-0.47758 -0.17066,-1.71928 -0.56888,-2.53115zM-58.00009,157.8825c-1.82043,-2.14909 -4.49419,-3.34303 -6.8835,-4.39369c-2.33243,0.09552 -3.52707,1.05066 -4.26663,2.43563c-0.56888,1.05067 -1.19467,1.95807 -2.61688,2.34013c-0.68266,0.19103 -1.64977,0.42981 -1.4791,1.19393c0.22755,0.95515 1.36533,0.66861 2.16177,0.62086c2.16177,-0.14327 3.75463,0.42982 5.23374,1.81479c2.04799,1.9103 4.49419,1.48048 6.03019,-0.81188c0.39822,-0.62085 0.91022,-1.19394 1.4791,-1.71928c0.45511,-0.47757 0.79643,-0.95515 0.34132,-1.48048zM-64.03027,96.70509c0.79644,-0.19103 2.38932,0.28655 2.33243,-0.95515c-0.05689,-1.2417 -1.64977,-1.33721 -2.84443,-1.43273c-1.08088,-0.09552 -2.27553,0.19103 -2.21864,1.28946c0.05689,1.43273 1.59287,0.95514 2.73064,1.09842zM-58.79653,101.24205c0.45511,0.04776 0.68267,-0.23878 0.512,-0.57309c-0.05689,-0.19103 -0.34134,-0.23878 -0.62578,-0.42982c-0.11378,0.23879 -0.39822,0.42981 -0.34132,0.57309c0.05689,0.19103 0.34133,0.42982 0.45511,0.42982zM-54.13167,69.29225c0.11378,2.14909 1.25154,4.01163 2.78753,5.68315c1.25155,0.81188 1.82044,2.00582 2.61688,3.05649c2.04798,2.76994 3.98219,5.63539 5.74574,8.5486c0.34132,0.57309 0.85333,1.48048 1.87731,1.00291c1.08089,-0.52533 0.56888,-1.33722 0.11378,-2.05357c-1.93421,-3.10424 -4.77864,-5.77867 -5.74573,-9.31272c-0.11378,-0.33431 -0.45511,-0.76412 -0.79644,-0.95515c-2.27553,-1.33722 -3.29953,-3.39078 -4.55108,-5.34884c-0.28444,-0.19103 -0.62577,-0.33431 -0.91022,-0.52534c-2.73065,-2.43563 -3.24264,-5.87418 -5.80262,-8.40533c-1.70665,-1.67152 -3.75464,-3.05649 -5.06307,-5.0623c-4.60797,-7.21138 -10.63815,-13.70641 -14.62034,-21.20435c-0.28445,-0.62085 -0.68266,-1.67151 -1.64977,-1.28945c-1.08088,0.42981 -0.39823,1.38497 -0.11378,2.10133c0.11377,0.19103 0.28445,0.38205 0.39822,0.62084c1.70665,3.53406 4.20976,6.73381 6.76973,9.88581c2.38931,2.96097 2.90131,6.9726 6.99728,9.07393c0.512,0.28654 0.73955,0.9074 1.02399,1.43272c2.04799,4.01163 5.8595,7.16363 8.02127,11.12751c0.45511,0.81188 1.42221,1.0029 2.38931,1.14618c0.17067,0.14328 0.34133,0.28654 0.512,0.47757zM-40.93355,189.1637c0,0.33431 0.34132,0.47757 0.73955,0.52533c0.45511,-0.04776 0.73954,-0.19103 0.79644,-0.52533c0.05689,-0.33431 -0.22755,-0.57309 -0.62577,-0.62086c-0.512,-0.04776 -0.91021,0.09552 -0.91021,0.62086zM-41.6731,104.91939c-0.34132,0.90739 -0.85334,1.52823 0.28443,1.95805c0.39822,-0.57309 0.512,-1.14618 -0.28443,-1.95805zM-50.71836,185.53412c-0.17067,-0.52534 -0.512,-1.00291 -1.30844,-0.95515c-0.56889,0.04776 -0.68266,0.47758 -0.56888,0.9074c0.11378,0.47757 0.51199,0.85964 1.13777,0.85964c0.56889,0 0.79644,-0.28655 0.73955,-0.81188zM-35.47225,225.79374c-0.73955,-0.95515 -1.64977,-0.23879 -2.4462,0.14327c-0.9671,0.47757 -2.04798,0.90739 -2.90131,1.48048c-1.25155,0.85963 -2.33243,1.14618 -3.75464,0.19103c-1.70665,-1.14618 -1.9342,-0.19103 -1.76353,1.00291c0.11378,1.14618 0.11378,2.24461 -1.02399,3.05649c-0.17067,-0.57309 -0.17067,-1.52824 -1.25154,-1.14619c-1.02399,0.38206 -0.39822,1.2417 -0.28444,1.9103c-0.22756,1.05067 -0.91022,2.43564 0.73955,2.91321c1.87732,0.57309 1.4791,-1.14619 1.93421,-1.95806c1.02399,-1.67152 2.61688,-1.76703 3.98219,-0.28655c1.08089,1.14618 2.10487,0.33431 2.21865,-0.42982c0.34132,-2.19685 1.82043,-3.53406 3.75464,-4.77576c0.73955,-0.47757 1.36533,-1.28946 0.79644,-2.10133zM-36.04114,39.34827c-0.73955,0.38206 -4.4373,4.10715 -4.60797,4.68024c-0.9671,2.91321 0.28444,4.63248 4.77864,6.63829c0.73955,-0.33431 0.91022,-0.81188 1.02399,-1.52824c0.56888,-3.39078 -0.22756,-6.63829 -1.19466,-9.79029zM-31.94517,83.81055c-0.62577,-0.04776 -0.79643,0.28654 -0.85333,0.71636c-0.05689,0.52533 0.11379,1.00291 0.68267,1.19394c0.56889,0.23879 0.91022,-0.09551 0.9671,-0.52533c0.05689,-0.57309 -0.11379,-1.09842 -0.79644,-1.38496zM-30.69363,41.97494c0.85334,0.81188 2.10488,-0.3343 3.01509,-0.95515c0.4551,-0.33431 0.96711,-0.76412 1.25155,-1.2417c0.68266,-1.09842 0.11377,-1.576 -1.30843,-1.48049c-0.22755,0.62085 -0.62577,1.14618 -1.36532,1.48049c-0.96711,0.57309 -2.55998,1.28945 -1.59287,2.19685zM-25.23233,48.661c-1.19466,-1.05067 -2.21864,-0.62085 -3.52708,-0.09551c-1.70665,0.6686 -2.38931,1.48048 -1.42221,2.96097c1.53599,-0.14328 2.90132,-1.05067 4.55108,-0.81188c1.25154,-0.52533 1.25155,-1.19394 0.39822,-2.05358zM-23.01368,41.25857c0,-0.42981 -0.17066,-0.76411 -0.68266,-0.90739c-0.512,-0.14328 -0.91022,0.09551 -1.02398,0.52533c-0.11377,0.47758 0.11377,0.81188 0.62577,0.9074c0.512,0.14328 0.91021,-0.04776 1.08087,-0.52534zM-12.65997,93.21879c-0.39823,-1.19394 -1.25156,-0.42982 -1.9911,-0.19103c-0.22756,-0.19103 -0.4551,-0.52532 -0.79644,-0.14327c-0.05689,0.04776 0.22755,0.3343 0.34133,0.52533c0.28444,1.05066 0.28445,2.72218 2.16177,2.34012c1.08089,-0.19103 0.56888,-1.71928 0.28444,-2.53115zM1.10703,126.07598c-0.05689,-0.14328 -0.34133,-0.28654 -0.512,-0.42982c-0.17066,0.14328 -0.4551,0.28654 -0.4551,0.42982c0,0.19103 0.28444,0.3343 0.512,0.57308c0.17067,-0.23879 0.45511,-0.42981 0.45511,-0.57308zM14.70337,108.02363c-0.56888,0.71637 -0.512,1.28946 0,1.81479c0.05689,0.04776 0.56889,0 0.68267,-0.14328c0.56888,-0.62085 0.11377,-1.09842 -0.68267,-1.67151zM11.34696,24.49567c2.9582,0.76412 3.47021,2.43564 2.84443,4.68024c-0.22756,0.81188 -0.28444,1.71927 1.02398,1.81479c1.25155,0.09551 1.87732,-0.6686 2.04799,-1.62376c0.4551,-2.2446 -2.9582,-5.25333 -5.9164,-4.87127zM26.19485,32.28015c-0.05689,-0.6686 -0.4551,-1.19394 -1.30844,-1.28946c-0.73955,-0.09551 -0.91022,0.38206 -0.73955,0.9074c0.17066,0.57309 0.22755,1.28945 1.19466,1.33721c0.68266,0 0.85333,-0.47758 0.85333,-0.95515zM28.24284,38.72742c-0.11377,0.04776 -0.22756,0.09552 -0.34133,0.14328c0.05689,0.04776 0.11377,0.09551 0.17066,0.14327c0.05689,-0.04776 0.17066,-0.04776 0.22755,-0.09551c0,-0.04776 0,-0.09552 -0.05689,-0.19103zM190.94387,112.79939c0.11378,0.42982 0.39821,0.76412 0.9671,0.71636c0.56889,-0.04776 0.68266,-0.47758 0.56889,-0.9074c-0.11378,-0.42982 -0.39822,-0.71636 -0.9671,-0.71636c-0.56889,0.14328 -0.68266,0.47757 -0.56889,0.90739zM170.91912,103.77321c0.05689,0 0.17066,0.04775 0.22755,0.09551c0.11378,-0.04776 0.22755,-0.09552 0.22755,-0.14328c0.05689,-0.04776 0,-0.14326 -0.05689,-0.19102c-0.11378,0.04776 -0.22755,0.14326 -0.39822,0.23878zM141.96289,164.13875c0.91021,0.04776 1.024,-0.71637 1.47911,-1.19394c0.05689,-0.52534 -0.28445,-0.76412 -0.79645,-0.81188c-0.91021,-0.04776 -1.08087,0.52534 -1.25154,1.05067c-0.11378,0.38206 -0.05689,0.85963 0.56888,0.95515zM115.2822,115.18726c-0.28445,1.33722 0.39821,3.29528 -1.47911,3.58182c-2.61687,0.38206 -3.01508,1.576 -2.9582,3.43855c0.05689,1.05066 -0.91022,2.48339 0.91021,2.76994c1.76354,0.28655 2.67376,-1.05066 2.9582,-2.34011c0.39822,-1.76703 0.96709,-3.34302 3.47019,-3.82061c0.68266,-0.14328 0.85333,-0.81188 0.85333,-1.38497c0,-0.19103 -0.28444,-0.3343 -0.39822,-0.52533c-2.38931,1.33722 -1.70664,-1.2417 -3.35641,-1.71928zM121.31237,102.24496c-1.13777,-0.19103 -2.16176,0.19103 -2.84442,1.33722c1.4791,0.28655 2.84442,0.52533 4.32353,0.81187c0.17067,-1.14618 -0.39822,-1.9103 -1.4791,-2.14909zM121.76748,135.19767c0.05689,1.05067 0.91021,1.52824 2.04798,1.62376c0.79644,0.04776 1.30844,-0.28654 1.36532,-1.00291c-0.28445,-0.95515 -1.19467,-1.38497 -2.27554,-1.48048c-0.68266,-0.04776 -1.19465,0.28654 -1.13776,0.85964zM118.63861,125.88495c-0.17067,-0.04776 -0.51199,0.09551 -0.9671,0.23879c0.73955,0.47757 0.9671,0.62085 1.25154,0.81188c0.17067,-0.19103 0.45511,-0.42982 0.39822,-0.47758c-0.17067,-0.23879 -0.39822,-0.47757 -0.68267,-0.57308zM111.07244,174.16783c0.17067,0.42982 0.28445,0.90739 0.34134,1.38497c0.05689,0.95515 0.62578,1.33721 1.76355,1.48048c2.04799,0.23879 3.29953,-1.05068 3.24264,-3.82061c-1.53598,-0.47757 0.68266,-2.57891 -1.53599,-2.91321c-3.24264,-0.47757 -4.83551,1.19395 -3.81153,3.86837zM110.8449,128.12956c-0.05689,-0.42982 -0.39821,-0.66861 -0.91021,-0.66861c-0.512,0 -0.91022,0.28655 -0.91022,0.71636c-0.05689,0.57309 0.34134,0.85963 1.02399,0.76412c0.512,-0.04776 0.79644,-0.33431 0.79644,-0.81187zM111.92578,134.00373c0.05689,0 0.17066,-0.04775 0.22755,-0.09551c0,-0.09552 0,-0.14327 0,-0.23878c-0.11378,0.04776 -0.22755,0.09551 -0.34134,0.14327c0.05689,0.04776 0.11377,0.14327 0.11377,0.19103zM114.42887,108.26241c0.11378,-0.6686 0.45511,-1.62375 -0.68266,-1.76703c-1.36532,-0.19103 -1.19466,0.90739 -1.30843,1.67151c-0.17067,1.71927 -0.45511,3.43855 -1.4791,5.01454c-0.39822,0.6686 -0.34134,1.19394 0.51199,1.576c0.73955,0.38206 1.76354,0.76413 2.27554,0.04776c0.85334,-1.2417 2.55997,-2.48339 1.19465,-4.25042c-0.56889,-0.6686 -0.79644,-1.43273 -0.51199,-2.29237zM90.19438,10.64598c1.42221,0.33431 2.95821,0.9074 4.32353,0.9074c1.76354,-0.04776 4.4942,-0.42982 5.17686,-1.48048c1.42221,-2.05358 3.12887,-2.24461 5.4044,-2.00582c2.21865,0.19103 2.27554,-0.62085 1.13777,-1.9103c0.85334,-1.9103 1.9342,-0.14328 2.9013,-0.09551c0.512,0.04776 1.08089,0.28654 1.59289,-0.09551c0.39822,-0.28655 0.28445,-0.62085 -0.05689,-0.81188c-1.19466,-0.62085 -2.55998,-1.09842 -3.98219,-0.95515c-1.13777,0.09551 -1.70666,0.95515 -1.53599,1.95806c-0.62578,0.14328 -1.02398,-0.04776 -1.30843,-0.57309c-1.4791,-3.00872 -3.01509,-3.77284 -6.76973,-2.86545c-1.76354,0.42982 -4.09597,0.0955 -5.11996,1.67151c-0.79644,1.24169 -1.47909,2.53116 -2.44621,3.72509c-0.68266,0.90739 -0.85334,2.24461 0.68266,2.53115zM82.85577,21.63022c-0.91021,0.42982 -0.34134,1.0029 0.22755,1.48048c0.39821,-0.19103 0.73955,-0.42981 1.08087,-0.62084c-0.22755,-0.52533 -0.51199,-1.19394 -1.30843,-0.85964zM80.7509,14.80089c0.05689,0.57309 0.28444,1.09842 1.25154,1.09842c0.56889,-0.14327 1.08088,-0.42982 1.02399,-1.09842c-0.05689,-0.62084 -0.39822,-1.2417 -1.30844,-1.19394c-0.73955,0.04776 -1.02398,0.62085 -0.9671,1.19394zM78.58914,114.13659c0,0.52533 0.56888,0.5731 1.02398,0.47758c0.45511,-0.04776 0.9671,-0.23879 0.85333,-0.71636c-0.05689,-0.38206 -0.45511,-0.42981 -0.85333,-0.42981c-0.512,0.04776 -1.02398,0.19102 -1.02398,0.6686zM51.62399,-39.78598h0.17066l-0.05689,-0.14327zM42.06673,-40.07253c-0.11377,-0.42981 -0.4551,-0.6686 -0.9671,-0.62085c-0.512,0.04776 -0.85333,0.3343 -0.85333,0.76412c0,0.52533 0.39822,0.81187 1.08087,0.71636c0.512,-0.04776 0.73955,-0.38206 0.73955,-0.85963zM51.51022,43.64645c-1.13777,-0.33431 -1.42221,0.57309 -1.64976,1.2417c-0.39822,1.14618 -0.39823,2.29236 0.11377,3.8206c0.85334,-1.2417 1.13777,-2.34013 2.04798,-3.15199c0.73955,-0.6686 0.62578,-1.576 -0.51199,-1.9103zM66.01678,118.48253c-0.22755,-0.28655 -0.39822,-0.62085 -0.62578,-0.95515c-2.84443,2.10134 -4.43729,4.91903 -6.3715,7.5457c-0.45511,0.6686 0.62577,0.95515 1.19465,0.90739c1.25154,-0.09552 2.44621,-0.42981 2.73064,-1.71927c0.05689,-0.38206 -0.28444,-1.2417 0.68266,-0.9074c2.10487,0.6686 1.9342,-1.19394 1.82043,-1.48048c-0.68266,-1.33722 0.45511,-2.29236 0.56889,-3.39079zM68.46299,121.4435c-0.05689,-0.57309 -0.28445,-1.14618 -1.13777,-1.09842c-0.73955,0.04776 -0.62577,0.62085 -0.68266,1.09842c-0.28445,1.576 0.17066,2.96097 1.53598,4.44146c0.68266,-1.62376 0.39822,-3.00872 0.28445,-4.44146zM74.7776,43.26439c0.22755,0 0.45511,-0.19102 0.73955,-0.3343c-0.28445,-0.33431 -0.45511,-0.57309 -0.62577,-0.62085c-0.17066,0 -0.512,0.19103 -0.56889,0.33431c-0.11377,0.33431 0,0.6686 0.45511,0.62084zM75.40338,53.67554c0.73955,0.14328 0.96711,-0.38205 0.96711,-0.85963c0,-0.57309 -0.22756,-1.05066 -1.024,-1.19394c-0.56889,0.04776 -0.85333,0.3343 -0.85333,0.76411c-0.05689,0.57309 0.17066,1.14617 0.91021,1.28945zM75.17582,71.34583c0.05689,0.04776 0.17068,0.14327 0.28445,0.19103c0,-0.04776 0.05688,-0.14327 0.05688,-0.19103c-0.05689,0 -0.11378,-0.09552 -0.17066,-0.09552c-0.05689,0 -0.11377,0.09552 -0.17066,0.09552zM100.83252,210.3203c-0.39822,-0.85963 -0.91022,-1.71927 -1.9911,-2.2446c-0.68266,0.23879 -0.85332,0.66861 -0.79643,1.14617c0.05689,1.00291 0.62577,1.62376 1.87731,1.71928c0.512,0 1.08088,-0.19103 0.91022,-0.62086zM103.96138,182.90747c-1.19466,-1.576 -2.38931,-2.91321 -4.49418,-3.19976c-6.99728,-1.00291 -13.59634,-3.10424 -20.2523,-5.01454c-1.25154,-0.38206 -3.12888,-1.81479 -3.86843,-0.28654c-0.512,1.14618 1.93421,1.28945 3.12887,1.81479c2.44621,1.09842 6.65595,0.81188 5.17685,5.11006c3.69775,-1.2417 7.05418,-1.576 10.52438,-0.71636c3.24264,0.81187 6.54218,1.48049 9.78481,2.29236zM103.96138,72.01444c0.91021,1.33722 2.04799,1.67152 3.69776,0.62084c1.76354,-1.09843 2.78753,-0.76412 2.5031,1.28946c-0.17067,1.19394 0.45511,1.48048 1.64977,0.76412c0.45511,-0.28655 1.02398,-0.6686 1.47909,-0.6686c3.69776,0.14328 2.61687,-1.67151 1.87732,-3.24752c-0.39822,-0.90739 -0.91021,-1.71927 0.17068,-2.5789c0.512,-0.42982 1.53599,-0.85963 0.56888,-1.48048c-0.85334,-0.57309 -2.78753,-1.33722 -2.9582,-0.9074c-1.08088,2.38787 -2.67375,0.85964 -4.09597,0.62085c-0.96711,-0.14328 -1.53599,0.38206 -2.10487,0.95515c-0.17067,-0.04776 -0.34134,-0.19103 -0.45511,-0.28655c-0.45511,-0.57309 -1.13777,-0.85963 -1.93421,-1.0029c-1.13777,-0.09552 -1.9911,0.23878 -2.21865,1.28946c-2.33243,-0.33431 -4.66486,-0.85964 -6.99728,-0.9074c-2.04799,-0.04776 -4.03908,0.52533 -5.97329,-0.6686c-0.96711,-0.62085 -1.36532,0.14328 -1.36532,0.85963c0.11378,2.57891 -1.87731,3.19976 -4.3804,3.39079c-0.96711,0.09552 -2.33244,-0.14328 -2.27555,1.19394c0.05689,1.09843 1.25155,1.28945 2.27555,1.38497c0.85334,0.04776 1.87731,0.23879 2.50308,-0.09551c3.86842,-1.95806 7.96439,-1.38497 12.06036,-0.81188c1.08088,0.14328 2.10488,0.19103 3.01509,-0.33431c1.30843,-0.76412 2.21865,-0.57309 2.95819,0.62085zM111.47067,187.73098c2.16177,0.04776 4.20974,-1.05066 6.4284,-0.23879c0.73955,0.23879 2.04798,0.23879 2.21865,-0.85963c0.17067,-0.95515 -0.79643,-1.43273 -1.76354,-1.576c-2.73064,-0.38206 -5.34753,-1.09842 -7.9075,-1.86254c-1.36532,-0.42982 -2.78754,-0.19103 -4.15287,0.28654c-0.91021,0.33431 -1.82043,0.71636 -1.76354,1.67151c0,1.00291 0.79644,1.67151 1.87732,1.86254c1.64977,0.28654 3.35643,0.42982 5.06308,0.71636zM114.31509,225.5072c1.25154,-0.33431 2.55998,-0.52534 3.75464,-0.9074c1.42221,-0.47757 1.42221,-1.14617 0.11378,-1.76702c-0.91021,-0.38206 -1.9342,-1.00291 -2.90131,-0.57309c-1.53598,0.71636 -0.85332,2.10133 -1.02399,3.19975c-2.21865,1.00291 -2.38932,2.67443 -2.10487,4.48921c0.11378,0.62085 0.28444,1.38497 1.19465,1.43273c0.79644,0.04776 0.91021,-0.66861 1.19466,-1.14617c1.02398,-1.62375 0.62578,-3.19976 -0.22755,-4.728zM125.52212,230.95156c-0.05689,-0.76412 -0.79644,-1.05066 -1.53598,-1.19394c-1.87732,-0.38206 -4.43731,0.28654 -4.55108,-2.38788c0,-0.09552 -0.28444,-0.14327 -0.4551,-0.23879c-0.73955,0.09552 -1.02399,0.62086 -1.36532,1.09843c-0.68266,0.85963 -0.56889,1.62375 0.39822,2.29236c2.21865,1.48048 2.55998,2.91321 0,4.34594c-0.39822,0.19103 -0.79645,0.52533 -0.56889,0.95515c0.28445,0.52534 0.91022,0.52534 1.4791,0.42982c0.85334,-0.09552 1.53599,-0.57309 1.9911,-1.19394c0.91021,-1.28945 1.9911,-2.29236 3.58398,-2.96097c0.56889,-0.28654 1.13777,-0.62085 1.02398,-1.14618zM126.20478,67.28644c0,-0.95515 -0.91022,-1.19394 -1.76354,-1.2417c-1.13777,-0.09552 -2.27553,-0.09552 -3.4133,0c-1.25154,0.14328 -2.73065,0.52533 -2.61687,1.71927c0.17067,1.2417 1.70666,0.47757 2.61687,0.62085c0.28445,0.04776 0.56889,0 0.85334,0v0.04776c0.85334,0.04776 1.70664,0.14328 2.55998,0.09552c0.91021,-0.04776 1.76354,-0.33431 1.76354,-1.2417zM127.00122,22.4421c0.85334,-0.85964 0.11378,-1.57599 -0.68266,-2.14909c-0.39822,-0.42982 -0.62577,-1.00291 -1.13777,-1.33721c-0.96711,-0.62084 -1.13777,-2.29237 -2.84443,-1.8148c-1.02398,0.28655 -0.512,3.10424 0.79644,4.10715c0.45511,0.33431 1.13777,0.52533 1.70665,0.76412c0.512,0.6686 1.25154,1.33721 2.16175,0.42982zM129.04921,134.48131c-0.68266,-0.42982 -0.91022,-0.71637 -1.02399,-0.66861c-0.28445,0.14327 -0.62577,0.33431 -0.73955,0.57309c-0.17067,0.33431 0.11378,0.62085 0.56888,0.52534c0.34133,-0.04776 0.68266,-0.23878 1.19466,-0.42982zM132.5194,99.85709c1.25154,0.19103 5.17685,-2.96097 5.06307,-4.20266c-0.22755,-0.90739 -1.08088,-1.62376 -2.16175,-0.90739c-1.64977,1.09843 -2.67377,2.67442 -3.4702,4.29818c-0.22755,0.42982 -0.05689,0.76412 0.56889,0.81188zM133.88473,135.96179c0.17067,-0.14327 0.45511,-0.23879 0.56889,-0.42982c0.73955,-1.52824 1.4791,-3.05648 2.10487,-4.63249c0.05689,-0.19103 -0.28444,-0.62084 -0.512,-0.71636c-0.22755,-0.09552 -0.79644,0.09551 -0.91021,0.28654c-0.91021,1.38496 -1.93421,2.76994 -2.21866,4.34594c-0.11378,0.52533 -0.05689,1.14619 0.96711,1.14619zM136.16027,175.50504c0.17067,-0.33431 0,-0.71636 -0.45511,-0.71636c-0.96711,-0.04776 -1.59288,0.42982 -1.82043,1.19394c-0.11378,0.38206 0,0.76412 0.62577,0.90739c0.91021,-0.14327 1.36532,-0.76412 1.64977,-1.38496zM137.81003,233.62598c-0.11378,-0.57309 -0.68266,-0.95516 -1.42221,-0.9074c-0.79644,0.04776 -0.68267,0.62085 -0.68267,1.09842c0.05689,0.57309 0.05689,1.09842 0.05689,1.62376c0.45511,0.57309 1.19465,1.3372 1.70665,0.85963c0.73955,-0.62085 0.56889,-1.71927 0.34134,-2.67442zM138.72025,133.62168c-0.05689,-0.19103 -0.34133,-0.23878 -0.62578,-0.42982c-0.17067,0.23879 -0.39823,0.42981 -0.39823,0.62085c0.05689,0.19103 0.34133,0.42982 0.512,0.42982c0.45511,0 0.68267,-0.23878 0.512,-0.62085zM148.27751,239.73895c-1.9911,-1.00291 -3.81152,-0.85964 -5.00618,1.00291c-1.02399,-0.09552 -1.93421,-0.85963 -3.29953,-0.14326c1.13777,0.95515 2.16176,1.05066 3.29953,0.14326c1.13777,0.42982 2.21865,0.85965 3.29954,1.33722c0.79644,0.33431 1.59287,0.81187 2.21865,-0.04776c0.62578,-0.85963 0.56889,-1.76703 -0.512,-2.29236zM153.22681,95.12909c0,-0.71637 -0.56889,-1.19394 -1.47911,-1.09843c-1.08087,0.09552 -1.70666,0.76413 -1.82043,1.576c-0.11378,0.76412 0.512,0.6686 1.25155,0.47757c0.62578,-0.28655 1.9911,0.28655 2.04799,-0.95515zM156.98144,228.08611c-0.11378,-0.04776 -0.17066,-0.14328 -0.22755,-0.14328c-0.05689,0 -0.17067,0.09552 -0.22756,0.14328c0.11378,0.04776 0.22756,0.14327 0.34133,0.19103c0.05689,-0.04776 0.05689,-0.14327 0.11378,-0.19103zM161.13431,97.13491c-0.11378,-0.09552 -0.34133,-0.04776 -0.512,-0.04776c0,0.14328 -0.05689,0.33431 0,0.38207c0.05689,0.09552 0.28445,0.04775 0.45512,0.04775c0,-0.14328 0.05689,-0.3343 0.05689,-0.38206zM164.94583,251.39179c0,-0.52534 -0.28444,-0.90739 -0.9671,-0.95515c-0.62578,-0.04776 -0.9671,0.3343 -1.02399,0.85963c0,0.52534 0.28445,0.85963 0.9671,0.95515c0.62578,0 1.02399,-0.33431 1.02399,-0.85963zM169.78135,239.21361c-1.36532,-0.09552 -2.78753,-0.04776 -4.60796,0.57309c1.64977,0.52534 2.84441,0.95515 4.03908,1.33721c1.02399,0.28654 2.04799,0.19103 2.27554,-0.76412c0.22755,-0.9074 -0.85332,-1.09842 -1.70665,-1.14618zM173.024,233.29168l-0.17068,-0.04776v0.14328zM182.58126,110.36375c-0.17067,0.19103 -0.73955,0.19104 -0.34133,0.57309c0.11378,-0.19103 0.22755,-0.38206 0.34133,-0.57309zM192.59363,248.62185c-0.34133,-0.71636 0.17067,-2.00582 -1.30843,-2.14909c-0.68266,-0.09552 -0.68267,0.81188 -0.62578,1.33721c0.11378,0.81187 0.17067,1.86255 1.42221,2.00582c0.68266,0.09552 0.56889,-0.6686 0.512,-1.19394zM214.15436,175.45729c-0.17067,-0.14327 -0.34132,-0.23878 -0.62578,-0.42982c-0.22755,0.23879 -0.34133,0.42981 -0.512,0.57308c0.22755,0.09552 0.45511,0.33431 0.62578,0.28655c0.17067,0 0.34133,-0.23879 0.512,-0.42982zM216.77123,168.10263c-0.05689,-0.33431 -0.17067,-0.62085 -0.62578,-0.6686c-0.39821,-0.04776 -0.62577,0.19103 -0.68266,0.52534c-0.05689,0.33431 0.17066,0.62085 0.56888,0.6686c0.45511,0.04776 0.68266,-0.19103 0.73955,-0.52534zM218.76233,161.17778c-0.17067,-0.9074 -0.73955,-1.62376 -2.04798,-1.76704c-0.96711,-0.09552 -1.76355,0.28655 -1.70666,1.14619c0.05689,1.14618 1.08088,1.76703 2.38932,1.9103c0.91021,0.09552 1.25154,-0.47758 1.36532,-1.28945zM222.80141,166.38335c-0.39821,0.57309 -0.512,1.14618 0.28444,1.9103c0.28445,-0.85963 0.79644,-1.52824 -0.28444,-1.9103zM233.15512,172.59183c0,-0.38206 -0.22755,-0.62085 -0.62578,-0.57308c-0.22755,0 -0.512,0.19102 -0.56889,0.38206c-0.17067,0.28654 0.00001,0.62085 0.39822,0.6686c0.39821,0.04776 0.62577,-0.19103 0.79644,-0.47758zM247.09279,212.08733c-1.19466,-0.57309 -2.4462,-1.2417 -3.75464,-1.71927c-0.512,-0.14327 -0.79644,0.38206 -0.68266,0.81188c0.28445,1.28945 1.42221,1.76703 2.84443,1.9103c0.68266,0.04776 1.30843,-0.14328 1.59287,-1.00291zM255.3985,188.68612c-0.05689,-2.14909 -1.25154,-4.01163 -2.27553,-5.82642c-0.96711,-1.62375 -2.90132,-3.00873 -5.57508,-2.48339c-1.08087,0.23879 -2.38932,0.52534 -2.61687,1.576c-0.22755,1.05067 1.25155,1.2417 2.04799,1.71927c1.30844,0.76412 3.35642,0.71636 3.92531,2.43563c0.56889,1.9103 2.27553,2.5789 4.49418,2.5789zM275.93525,74.02025c-2.73064,-1.00291 -4.26664,0.38206 -5.06308,4.68024c2.21866,-1.28946 3.69776,-2.86545 5.06308,-4.68024zM286.91472,105.87454c0,-0.14328 -0.17066,-0.23879 -0.45511,-0.62085c-1.13777,1.09843 -1.53599,2.05357 -0.73955,3.152c0.17067,0.28655 0.62577,0.47758 0.91022,0.19103c0.79643,-0.81188 0.28443,-1.81479 0.28443,-2.72218zM292.43289,178.80032c-1.42221,0.04776 -1.02398,1.28946 -1.19465,2.14909c0.22755,0.95515 -0.17068,2.48339 1.30843,2.53115c1.42221,0.04776 1.30844,-1.48048 1.36533,-2.48339c0.05689,-0.95515 -0.00001,-2.19685 -1.4791,-2.19685zM334.81481,180.47183c-1.64977,-0.57309 -2.21866,-2.10133 -3.86842,-3.05648c-0.73955,1.2417 -1.70666,2.14908 -3.12886,2.72217c-1.08087,0.38206 -1.53598,1.28946 -2.04798,2.1491c-0.56889,0.95515 -0.22755,1.33721 1.02398,1.57599c3.24264,0.57309 5.57508,-0.95515 8.07817,-2.14909c0.56889,-0.28654 1.02399,-0.90739 -0.05689,-1.2417z" data-paper-data="{&quot;origPos&quot;:null}" fill="url(#color-2)"/><path d="M347.92934,477.00083v135.29714h-546.12934v-11.27078c0.85333,0 1.76353,0 2.61687,0c14.39279,0 28.84245,0 43.23524,0c-0.22755,-0.42982 -0.512,-1.2417 -0.62578,-1.2417c-2.73065,0.47757 -3.52707,-1.81479 -5.34752,-2.62667c-1.47909,-0.6686 -3.18576,-0.9074 -4.26663,-2.19685c-0.34133,-0.42982 -1.13777,-0.3343 -1.53599,0c-1.36532,1.14618 -3.4702,1.2417 -4.89241,2.29237c-1.82044,1.33722 -3.86841,1.43273 -6.08706,0.81188c-1.70665,-0.47757 -3.4702,-1.00291 -5.23374,-0.28655c-2.61687,1.05066 -5.29063,0.95515 -8.02128,0.57309c-1.9911,-0.28654 -3.98219,-0.81189 -5.9733,-1.2417c-1.13777,-0.6686 -2.38932,-1.28945 -3.12886,-2.34011c-0.22755,-0.23879 -0.39822,-0.52534 -0.62578,-0.76413v-325.5632h15.92878h215.60731h314.65014v205.93055c-1.99109,-0.76412 -4.09597,-0.62085 -5.68885,0.38207c-1.64977,1.00291 -3.29952,1.67151 -5.23373,2.14909c-2.55998,0.6686 -5.06308,1.52825 -7.11106,2.91321c-2.55998,1.71928 -6.14396,2.86545 -5.57506,6.49502c-1.42221,-0.04776 -2.61688,1.2417 -4.66486,0.04776c1.13777,1.95806 0.62578,3.96388 4.32353,2.62667c2.4462,-0.85964 4.15286,-1.67152 5.23373,-3.58182c0.34132,-0.62085 0.62578,-1.28945 0.96711,-1.95806c3.24264,-1.52824 4.89241,-4.728 9.04527,-5.44436c2.84443,-0.47757 5.57507,-1.33721 8.59015,-1.05066c0,0 0.05689,0 -0.05689,0.04776zM-193.36447,462.62581c-1.13777,0.09551 -2.21865,0.76412 -1.93421,1.9103c0.28445,1.00291 0.96711,1.95806 1.59288,3.10424c1.36532,-1.09843 1.08087,-2.34011 1.30843,-3.43854c0.17067,-0.71637 0.22755,-1.67152 -0.96711,-1.576zM-174.30683,496.10385l-0.17067,-0.04776v0.14327zM-160.14161,392.27893c2.44621,-3.34303 1.82044,-4.63247 -2.67375,-6.20848c-0.34134,1.57599 1.70666,3.24752 -0.73955,4.91903c0,-0.47758 -0.05689,-0.71637 0,-0.9074c0.22755,-1.00291 0.39822,-2.2446 -1.02399,-2.29236c-1.36532,-0.04776 -1.19465,1.28946 -1.08088,2.10134c0.34133,2.38788 -0.91022,3.91612 -3.4702,4.87127c-0.96711,0.38205 -2.27554,0.95515 -1.64977,2.14909c0.56889,1.05066 1.87732,1.28945 3.18575,1.09842c1.19466,-0.19103 2.4462,-0.38206 3.29953,-1.2417c1.42221,-1.48048 3.01508,-2.86545 4.15285,-4.4892zM-159.51583,429.86412c-0.11378,0.19103 -0.34134,0.38206 -0.34134,0.52534c0,0.14328 0.28445,0.28655 0.512,0.57309c0.17067,-0.28655 0.39821,-0.52533 0.34132,-0.6686c-0.05689,-0.19103 -0.34133,-0.28655 -0.512,-0.42982zM-158.32117,475.9024c-0.05689,-0.52533 -0.11378,-1.19394 -0.91022,-1.2417c-0.62578,-0.04776 -0.68267,0.47758 -0.62578,0.85964c0.05689,0.47757 0.28445,0.90739 0.91021,1.05066c0.45511,-0.04776 0.62578,-0.3343 0.62578,-0.6686zM-57.45792,348.62854c0.62578,0.09551 1.30843,0.14328 1.93421,0.19103c-0.11378,-0.52533 -0.11378,-1.09843 -0.28445,-1.62376c-0.11378,-0.47758 -0.62577,-0.71637 -1.08087,-0.47758c-0.45511,0.19103 -0.85332,0.57308 -1.13777,0.95515c-0.28445,0.42982 0,0.81187 0.56889,0.95515zM-68.26673,319.30539c0.17067,-1.95806 2.9582,-2.05357 3.4702,-3.8206c-3.98219,0.76412 -5.00618,1.76702 -3.4702,3.8206zM-66.73074,319.974c-0.56888,0.19103 -1.13777,0.38207 -2.04798,0.71636c1.13777,0.38207 1.76354,0.47758 2.16176,-0.09551c0.11377,-0.14328 -0.05689,-0.42982 -0.11378,-0.62086zM-154.90787,441.89903c-0.34134,1.05066 -0.73955,2.14909 0.22755,3.39078c0.96711,-1.33722 0.79645,-2.38787 -0.22755,-3.39078zM-149.38968,600.97942c-0.22755,-0.47757 -0.17066,-1.19394 -1.02399,-1.09843c-0.62578,0.04776 -0.56889,0.66861 -0.68267,1.09843c0.56889,0 1.13777,0 1.70666,0zM-119.69391,536.93655c0,-0.14328 -0.11377,-0.23878 -0.22755,-0.38206c-0.17066,0.09551 -0.39821,0.14328 -0.39821,0.23879c0,0.14328 0.17067,0.23878 0.22755,0.38206c0.17067,-0.04776 0.39821,-0.14328 0.39821,-0.23879zM-100.52249,505.08227c-0.11377,-0.3343 -0.512,-0.52533 -0.85332,-0.3343c-0.22755,0.14328 -0.45511,0.47758 -0.512,0.76412c-0.05689,0.3343 0.28445,0.52533 0.73955,0.47757c0.512,-0.14328 0.73955,-0.42982 0.62577,-0.90739zM-87.89325,372.84161c-2.16177,-3.96387 -4.66486,-7.78448 -6.9404,-11.7006c-3.18576,-5.49212 -5.63196,-11.22302 -8.70394,-16.7629c-1.99109,-3.58182 -4.09597,-7.11588 -6.25773,-10.64993c-3.01508,-4.96679 -6.20084,-9.88581 -9.15905,-14.90035c-2.44621,-4.10715 -4.77862,-8.26205 -7.05417,-12.41697c-2.38931,-4.25041 -5.4044,-8.16654 -7.96438,-12.32145c-2.55998,-4.20266 -4.66485,-8.59636 -7.39551,-12.70351c-2.44621,-3.67734 -5.29062,-7.21139 -7.39549,-11.07975c-1.70666,-3.24751 0.28445,5.15781 5.06308,11.98714c3.07198,4.34594 4.32352,9.50375 8.24882,13.41987c0.05689,0.09551 0.05688,0.14328 0.11377,0.23879c2.67375,4.68024 5.9164,9.02617 8.53328,13.70641c3.24264,5.63539 7.05417,11.03199 10.46748,16.57187c3.35642,5.49212 6.76973,10.98424 9.61415,16.71515c2.78753,5.53987 5.85952,10.98424 8.87461,16.47636c2.61687,4.728 5.34751,9.45599 8.13505,14.13623c0.45511,0.81187 1.024,2.43564 2.38932,1.81479c1.08087,-0.47758 -0.17067,-1.71928 -0.56888,-2.53116zM-64.00009,501.8825c-1.82043,-2.14909 -4.49419,-3.34303 -6.88351,-4.3937c-2.33243,0.09551 -3.52707,1.05067 -4.26663,2.43564c-0.56888,1.05066 -1.19466,1.95807 -2.61687,2.34012c-0.68266,0.19103 -1.64977,0.42981 -1.4791,1.19393c0.22755,0.95515 1.36533,0.6686 2.16177,0.62086c2.16177,-0.14328 3.75464,0.42982 5.23374,1.81479c2.04799,1.9103 4.49419,1.48049 6.03018,-0.81187c0.39822,-0.62085 0.91022,-1.19394 1.4791,-1.71928c0.45511,-0.47757 0.79643,-0.95515 0.34133,-1.48048zM-70.03027,440.70509c0.79644,-0.19103 2.38932,0.28655 2.33243,-0.95515c-0.05689,-1.2417 -1.64977,-1.33722 -2.84443,-1.43273c-1.08087,-0.09551 -2.27554,0.19103 -2.21865,1.28946c0.05689,1.43273 1.59288,0.95515 2.73065,1.09842zM-64.79653,445.24205c0.45511,0.04776 0.68267,-0.23878 0.512,-0.57308c-0.05689,-0.19103 -0.34134,-0.23878 -0.62578,-0.42982c-0.11378,0.23879 -0.39821,0.42981 -0.34132,0.57308c0.05689,0.19103 0.34133,0.42982 0.45511,0.42982zM-60.13167,413.29225c0.11378,2.14909 1.25153,4.01163 2.78753,5.68315c1.25155,0.81187 1.82044,2.00582 2.61687,3.05649c2.04798,2.76993 3.9822,5.63539 5.74574,8.5486c0.34133,0.57309 0.85333,1.48048 1.87731,1.00291c1.08088,-0.52533 0.56888,-1.33722 0.11378,-2.05358c-1.93421,-3.10424 -4.77863,-5.77866 -5.74573,-9.31272c-0.11378,-0.3343 -0.45511,-0.76412 -0.79645,-0.95515c-2.27553,-1.33722 -3.29953,-3.39078 -4.55108,-5.34884c-0.28445,-0.19103 -0.62577,-0.33431 -0.91021,-0.52534c-2.73065,-2.43563 -3.24264,-5.87418 -5.80262,-8.40533c-1.70666,-1.67152 -3.75464,-3.05649 -5.06307,-5.0623c-4.60797,-7.21139 -10.63815,-13.70641 -14.62034,-21.20435c-0.28445,-0.62084 -0.68266,-1.67151 -1.64977,-1.28946c-1.08087,0.42982 -0.39822,1.38497 -0.11378,2.10134c0.11377,0.19103 0.28445,0.38206 0.39821,0.62085c1.70666,3.53406 4.20976,6.73381 6.76973,9.88581c2.38932,2.96097 2.9013,6.97259 6.99728,9.07393c0.512,0.28654 0.73955,0.9074 1.024,1.43273c2.04799,4.01164 5.8595,7.16364 8.02127,11.12751c0.45511,0.81187 1.42221,1.0029 2.38932,1.14617c0.17067,0.14328 0.34133,0.28654 0.512,0.47757zM-46.93355,533.1637c0,0.3343 0.34133,0.47757 0.73955,0.52533c0.45511,-0.04776 0.73954,-0.19103 0.79644,-0.52533c0.05689,-0.3343 -0.22755,-0.57309 -0.62577,-0.62085c-0.512,-0.04776 -0.91021,0.09552 -0.91021,0.62085zM-47.6731,448.91939c-0.34133,0.90739 -0.85333,1.52823 0.28444,1.95805c0.39821,-0.57309 0.512,-1.14618 -0.28444,-1.95805zM-56.71837,529.53412c-0.17067,-0.52534 -0.512,-1.00291 -1.30844,-0.95515c-0.56889,0.04776 -0.68266,0.47758 -0.56888,0.90739c0.11378,0.47757 0.51199,0.85964 1.13777,0.85964c0.56889,0 0.79644,-0.28655 0.73955,-0.81188zM-41.47225,569.79374c-0.73955,-0.95515 -1.64977,-0.23879 -2.4462,0.14328c-0.96711,0.47757 -2.04798,0.90739 -2.90132,1.48048c-1.25155,0.85964 -2.33243,1.14618 -3.75464,0.19103c-1.70665,-1.14618 -1.9342,-0.19103 -1.76353,1.00291c0.11378,1.14618 0.11377,2.24461 -1.024,3.05648c-0.17067,-0.57309 -0.17067,-1.52824 -1.25154,-1.14618c-1.024,0.38206 -0.39822,1.2417 -0.28444,1.9103c-0.22755,1.05066 -0.91022,2.43564 0.73955,2.91321c1.87732,0.57309 1.47911,-1.14618 1.93421,-1.95806c1.024,-1.67152 2.61687,-1.76703 3.98219,-0.28655c1.08088,1.14618 2.10488,0.33431 2.21865,-0.42982c0.34133,-2.19685 1.82043,-3.53407 3.75464,-4.77576c0.73955,-0.47757 1.36533,-1.28946 0.79644,-2.10133zM-42.04114,383.34827c-0.73955,0.38205 -4.4373,4.10715 -4.60797,4.68025c-0.96711,2.91321 0.28444,4.63248 4.77864,6.63829c0.73955,-0.3343 0.91021,-0.81187 1.02399,-1.52824c0.56888,-3.39078 -0.22755,-6.6383 -1.19466,-9.7903zM-37.94517,427.81055c-0.62577,-0.04776 -0.79644,0.28654 -0.85333,0.71636c-0.05689,0.52533 0.11379,1.00291 0.68267,1.19394c0.56889,0.23879 0.91021,-0.09552 0.9671,-0.52534c0.05689,-0.57309 -0.11379,-1.09843 -0.79644,-1.38497zM-36.69363,385.97494c0.85333,0.81187 2.10488,-0.33431 3.0151,-0.95515c0.45511,-0.3343 0.96711,-0.76412 1.25155,-1.2417c0.68266,-1.09843 0.11377,-1.576 -1.30844,-1.48049c-0.22755,0.62084 -0.62577,1.14618 -1.36532,1.48049c-0.96711,0.57309 -2.55998,1.28945 -1.59288,2.19685zM-31.23234,392.661c-1.19466,-1.05066 -2.21865,-0.62085 -3.52708,-0.09552c-1.70665,0.66861 -2.38932,1.48048 -1.42221,2.96097c1.536,-0.14328 2.90132,-1.05067 4.55108,-0.81188c1.25154,-0.52533 1.25155,-1.19394 0.39821,-2.05357zM-29.01368,385.25857c0,-0.42982 -0.17066,-0.76412 -0.68266,-0.90739c-0.512,-0.14328 -0.91022,0.09551 -1.02399,0.52533c-0.11377,0.47758 0.11377,0.81188 0.62577,0.9074c0.512,0.14328 0.91021,-0.04776 1.08088,-0.52534zM-18.65998,437.21879c-0.39822,-1.19394 -1.25155,-0.42983 -1.9911,-0.19104c-0.22755,-0.19103 -0.45511,-0.52532 -0.79644,-0.14327c-0.05689,0.04776 0.22755,0.3343 0.34133,0.52533c0.28445,1.05066 0.28445,2.72219 2.16177,2.34012c1.08088,-0.19103 0.56888,-1.71928 0.28444,-2.53116zM-4.89297,470.07598c-0.05689,-0.14328 -0.34133,-0.28654 -0.512,-0.42981c-0.17067,0.14328 -0.45511,0.28654 -0.45511,0.42981c0,0.19103 0.28444,0.3343 0.51199,0.57308c0.17067,-0.23879 0.45511,-0.42981 0.45511,-0.57308zM8.70337,452.02363c-0.56888,0.71637 -0.512,1.28945 0,1.81479c0.05689,0.04776 0.56889,0 0.68266,-0.14328c0.56888,-0.62085 0.11377,-1.09842 -0.68266,-1.67151zM5.34696,368.49567c2.9582,0.76412 3.4702,2.43564 2.84443,4.68024c-0.22755,0.81187 -0.28444,1.71927 1.02399,1.81479c1.25155,0.09551 1.87732,-0.6686 2.04799,-1.62376c0.45511,-2.2446 -2.95821,-5.25333 -5.9164,-4.87127zM20.19485,376.28015c-0.05689,-0.66861 -0.4551,-1.19394 -1.30844,-1.28945c-0.73955,-0.09551 -0.91022,0.38206 -0.73955,0.9074c0.17066,0.57309 0.22755,1.28945 1.19466,1.33721c0.68266,0 0.85333,-0.47758 0.85333,-0.95515zM22.24284,382.72743c-0.11377,0.04776 -0.22756,0.09552 -0.34133,0.14328c0.05689,0.04776 0.11377,0.09551 0.17066,0.14327c0.05689,-0.04776 0.17066,-0.04775 0.22755,-0.09551c0,-0.04776 0,-0.09552 -0.05689,-0.19103zM184.94387,456.79939c0.11378,0.42982 0.39821,0.76413 0.96709,0.71636c0.56889,-0.04776 0.68266,-0.47758 0.56889,-0.9074c-0.11378,-0.42982 -0.39822,-0.71636 -0.9671,-0.71636c-0.56889,0.14328 -0.68265,0.47758 -0.56888,0.9074zM164.91912,447.7732c0.05689,0 0.17066,0.04776 0.22755,0.09552c0.11378,-0.04776 0.22755,-0.09551 0.22755,-0.14328c0.05689,-0.04776 0,-0.14326 -0.05689,-0.19102c-0.11378,0.04776 -0.22755,0.14326 -0.39821,0.23878zM135.96289,508.13875c0.91021,0.04776 1.024,-0.71637 1.4791,-1.19394c0.05689,-0.52534 -0.28444,-0.76412 -0.79644,-0.81188c-0.91021,-0.04776 -1.08088,0.52533 -1.25154,1.05067c-0.11378,0.38206 -0.05689,0.85964 0.56888,0.95515zM109.2822,459.18726c-0.28445,1.33722 0.39821,3.29527 -1.47911,3.58182c-2.61687,0.38207 -3.01508,1.576 -2.95819,3.43855c0.05689,1.05066 -0.91022,2.48339 0.91021,2.76994c1.76354,0.28655 2.67375,-1.05067 2.9582,-2.34012c0.39823,-1.76703 0.9671,-3.34303 3.4702,-3.82061c0.68266,-0.14328 0.85333,-0.81187 0.85333,-1.38497c0,-0.19103 -0.28444,-0.3343 -0.39822,-0.52533c-2.38932,1.33722 -1.70665,-1.24169 -3.35641,-1.71927zM115.31237,446.24496c-1.13777,-0.19103 -2.16176,0.19104 -2.84442,1.33722c1.47909,0.28655 2.84442,0.52533 4.32353,0.81187c0.17067,-1.14618 -0.39822,-1.9103 -1.47909,-2.14909zM115.76748,479.19767c0.05689,1.05066 0.91021,1.52824 2.04798,1.62375c0.79644,0.04776 1.30844,-0.28654 1.36533,-1.00291c-0.28445,-0.95515 -1.19467,-1.38497 -2.27554,-1.48049c-0.68266,-0.04776 -1.19466,0.28655 -1.13777,0.85964zM112.63861,469.88495c-0.17067,-0.04776 -0.512,0.09551 -0.9671,0.23879c0.73955,0.47757 0.96709,0.62085 1.25154,0.81188c0.17067,-0.19103 0.45512,-0.42981 0.39823,-0.47758c-0.17067,-0.23879 -0.39822,-0.47757 -0.68267,-0.57308zM105.07244,518.16783c0.17067,0.42982 0.28445,0.90739 0.34134,1.38497c0.05689,0.95515 0.62578,1.33721 1.76355,1.48048c2.04799,0.23879 3.29953,-1.05067 3.24264,-3.82061c-1.53598,-0.47757 0.68266,-2.57891 -1.53598,-2.91321c-3.24264,-0.47757 -4.83551,1.19394 -3.81153,3.86836zM104.8449,472.12956c-0.05689,-0.42982 -0.39821,-0.6686 -0.91021,-0.6686c-0.512,0 -0.91023,0.28655 -0.91023,0.71636c-0.05689,0.57309 0.34134,0.85963 1.024,0.76412c0.512,-0.04776 0.79645,-0.3343 0.79645,-0.81187zM105.92577,478.00373c0.05689,0 0.17066,-0.04775 0.22755,-0.09551c0,-0.09551 0,-0.14327 0,-0.23878c-0.11378,0.04776 -0.22755,0.0955 -0.34133,0.14326c0.05689,0.04776 0.11377,0.14327 0.11377,0.19103zM108.42886,452.26241c0.11378,-0.6686 0.45511,-1.62375 -0.68266,-1.76702c-1.36532,-0.19103 -1.19466,0.90739 -1.30843,1.67151c-0.17067,1.71928 -0.45511,3.43855 -1.47909,5.01454c-0.39823,0.6686 -0.34134,1.19394 0.512,1.576c0.73955,0.38207 1.76354,0.76413 2.27554,0.04776c0.85334,-1.2417 2.55998,-2.48339 1.19466,-4.25042c-0.56889,-0.6686 -0.79644,-1.43273 -0.512,-2.29236zM84.19437,354.64598c1.42221,0.3343 2.95821,0.9074 4.32353,0.9074c1.76354,-0.04776 4.49419,-0.42982 5.17685,-1.48048c1.42221,-2.05358 3.12887,-2.24461 5.4044,-2.00582c2.21866,0.19103 2.27553,-0.62085 1.13777,-1.9103c0.85334,-1.9103 1.9342,-0.14327 2.90131,-0.09551c0.512,0.04776 1.08088,0.28654 1.59288,-0.09551c0.39823,-0.28654 0.28445,-0.62085 -0.05689,-0.81188c-1.19466,-0.62084 -2.55998,-1.09843 -3.98219,-0.95515c-1.13777,0.09551 -1.70665,0.95515 -1.53598,1.95806c-0.62578,0.14328 -1.02398,-0.04776 -1.30843,-0.57309c-1.47909,-3.00873 -3.01509,-3.77285 -6.76973,-2.86545c-1.76354,0.42982 -4.09598,0.09551 -5.11996,1.67151c-0.79644,1.24169 -1.47909,2.53115 -2.4462,3.72509c-0.68266,0.9074 -0.85334,2.24461 0.68266,2.53115zM76.85577,365.63022c-0.91021,0.42982 -0.34134,1.0029 0.22755,1.48048c0.39821,-0.19103 0.73955,-0.42981 1.08087,-0.62084c-0.22755,-0.52533 -0.512,-1.19394 -1.30843,-0.85964zM74.7509,358.80089c0.05689,0.57309 0.28443,1.09843 1.25154,1.09843c0.56889,-0.14328 1.08088,-0.42982 1.02399,-1.09843c-0.05689,-0.62084 -0.39822,-1.2417 -1.30844,-1.19394c-0.73955,0.04776 -1.02398,0.62084 -0.96709,1.19394zM72.58914,458.13659c0,0.52533 0.56888,0.57309 1.02398,0.47758c0.45511,-0.04776 0.9671,-0.23879 0.85333,-0.71636c-0.05689,-0.38207 -0.45511,-0.42981 -0.85333,-0.42981c-0.512,0.04776 -1.02398,0.19102 -1.02398,0.6686zM45.62399,304.21402h0.17066l-0.05689,-0.14327zM36.06673,303.92747c-0.11377,-0.42982 -0.45511,-0.66861 -0.96711,-0.62085c-0.512,0.04776 -0.85333,0.3343 -0.85333,0.76412c0,0.52533 0.39822,0.81187 1.08088,0.71636c0.512,-0.04776 0.73955,-0.38206 0.73955,-0.85963zM45.51022,387.64645c-1.13777,-0.3343 -1.42221,0.57309 -1.64977,1.2417c-0.39821,1.14618 -0.39823,2.29237 0.11377,3.82061c0.85334,-1.2417 1.13777,-2.34013 2.04798,-3.15199c0.73955,-0.66861 0.62577,-1.576 -0.512,-1.9103zM60.01678,462.48253c-0.22755,-0.28655 -0.39823,-0.62085 -0.62578,-0.95515c-2.84443,2.10133 -4.43729,4.91903 -6.3715,7.5457c-0.45511,0.6686 0.62577,0.95515 1.19465,0.90739c1.25154,-0.09551 2.44621,-0.42981 2.73065,-1.71927c0.05689,-0.38207 -0.28445,-1.2417 0.68266,-0.9074c2.10487,0.6686 1.9342,-1.19394 1.82043,-1.48048c-0.68266,-1.33722 0.45511,-2.29237 0.56889,-3.39079zM62.46299,465.4435c-0.05689,-0.57309 -0.28445,-1.14618 -1.13777,-1.09842c-0.73955,0.04776 -0.62577,0.62085 -0.68266,1.09842c-0.28445,1.576 0.17066,2.96097 1.53598,4.44146c0.68266,-1.62376 0.39821,-3.00873 0.28445,-4.44146zM68.7776,387.26439c0.22755,0 0.45511,-0.19102 0.73955,-0.3343c-0.28445,-0.3343 -0.45511,-0.57309 -0.62577,-0.62085c-0.17066,0 -0.512,0.19103 -0.56889,0.33431c-0.11377,0.3343 0,0.6686 0.45511,0.62084zM69.40337,397.67554c0.73955,0.14328 0.96711,-0.38206 0.96711,-0.85964c0,-0.57309 -0.22756,-1.05066 -1.024,-1.19394c-0.56889,0.04776 -0.85333,0.3343 -0.85333,0.76412c-0.05689,0.57309 0.17066,1.14617 0.91021,1.28945zM69.17582,415.34583c0.05689,0.04776 0.17068,0.14327 0.28445,0.19103c0,-0.04776 0.05688,-0.14327 0.05688,-0.19103c-0.05689,0 -0.11378,-0.09551 -0.17067,-0.09551c-0.05689,0 -0.11377,0.09551 -0.17066,0.09551zM94.83252,554.3203c-0.39823,-0.85964 -0.91021,-1.71927 -1.9911,-2.2446c-0.68266,0.23879 -0.85332,0.6686 -0.79643,1.14617c0.05689,1.00291 0.62578,1.62377 1.87732,1.71928c0.512,0 1.08088,-0.19104 0.91021,-0.62086zM97.96138,526.90747c-1.19466,-1.576 -2.38932,-2.91321 -4.49418,-3.19975c-6.99728,-1.00291 -13.59634,-3.10424 -20.2523,-5.01454c-1.25154,-0.38206 -3.12887,-1.81479 -3.86843,-0.28654c-0.512,1.14618 1.93421,1.28945 3.12887,1.81479c2.44621,1.09843 6.65596,0.81188 5.17685,5.11006c3.69775,-1.2417 7.05418,-1.576 10.52438,-0.71636c3.24264,0.81187 6.54217,1.48049 9.78481,2.29236zM97.96138,416.01444c0.91021,1.33722 2.04799,1.67152 3.69776,0.62085c1.76355,-1.09843 2.78753,-0.76412 2.5031,1.28945c-0.17067,1.19394 0.45511,1.48048 1.64977,0.76412c0.45511,-0.28654 1.02398,-0.66861 1.47909,-0.66861c3.69775,0.14328 2.61687,-1.67151 1.87732,-3.24751c-0.39823,-0.9074 -0.91021,-1.71927 0.17068,-2.57891c0.512,-0.42982 1.53599,-0.85964 0.56889,-1.48048c-0.85334,-0.57309 -2.78754,-1.33722 -2.95821,-0.9074c-1.08087,2.38788 -2.67375,0.85964 -4.09596,0.62085c-0.96711,-0.14328 -1.53599,0.38206 -2.10487,0.95515c-0.17067,-0.04776 -0.34134,-0.19102 -0.45511,-0.28655c-0.45511,-0.57309 -1.13777,-0.85963 -1.93421,-1.00291c-1.13777,-0.09551 -1.9911,0.23878 -2.21866,1.28946c-2.33243,-0.3343 -4.66485,-0.85964 -6.99728,-0.9074c-2.04799,-0.04776 -4.03908,0.52533 -5.97329,-0.66861c-0.96711,-0.62084 -1.36532,0.14328 -1.36532,0.85964c0.11378,2.57891 -1.87732,3.19975 -4.3804,3.39078c-0.96711,0.09551 -2.33244,-0.14328 -2.27555,1.19394c0.05689,1.09843 1.25155,1.28946 2.27555,1.38497c0.85334,0.04776 1.87732,0.23878 2.50308,-0.09552c3.86842,-1.95806 7.96438,-1.38497 12.06036,-0.81187c1.08087,0.14328 2.10487,0.19103 3.01509,-0.3343c1.30843,-0.76412 2.21866,-0.57309 2.95819,0.62084zM105.47067,531.73097c2.16177,0.04776 4.20974,-1.05066 6.4284,-0.23878c0.73955,0.23879 2.04799,0.23879 2.21866,-0.85964c0.17067,-0.95515 -0.79644,-1.43273 -1.76354,-1.576c-2.73064,-0.38206 -5.34752,-1.09842 -7.9075,-1.86254c-1.36532,-0.42982 -2.78754,-0.19103 -4.15287,0.28654c-0.91021,0.3343 -1.82044,0.71636 -1.76355,1.67151c0,1.00291 0.79645,1.67152 1.87732,1.86255c1.64977,0.28654 3.35642,0.42982 5.06308,0.71636zM108.31509,569.5072c1.25154,-0.3343 2.55998,-0.52534 3.75464,-0.9074c1.42221,-0.47757 1.42221,-1.14617 0.11379,-1.76702c-0.91021,-0.38206 -1.93421,-1.00291 -2.90131,-0.57309c-1.53598,0.71636 -0.85332,2.10132 -1.02398,3.19975c-2.21866,1.00291 -2.38932,2.67443 -2.10487,4.48922c0.11378,0.62085 0.28444,1.38497 1.19465,1.43273c0.79644,0.04776 0.91021,-0.66861 1.19466,-1.14618c1.02398,-1.62375 0.62578,-3.19976 -0.22756,-4.728zM119.52212,574.95156c-0.05689,-0.76412 -0.79645,-1.05066 -1.53598,-1.19394c-1.87732,-0.38206 -4.4373,0.28654 -4.55107,-2.38788c0,-0.09551 -0.28444,-0.14327 -0.45511,-0.23879c-0.73955,0.09551 -1.024,0.62086 -1.36532,1.09843c-0.68266,0.85964 -0.56889,1.62376 0.39822,2.29236c2.21866,1.48048 2.55998,2.91321 0,4.34594c-0.39823,0.19103 -0.79645,0.52533 -0.56889,0.95515c0.28445,0.52534 0.91022,0.52533 1.4791,0.42982c0.85334,-0.09551 1.536,-0.57309 1.9911,-1.19394c0.91021,-1.28945 1.9911,-2.29236 3.58397,-2.96097c0.56889,-0.28654 1.13777,-0.62085 1.02399,-1.14618zM120.20478,411.28644c0,-0.95515 -0.91022,-1.19394 -1.76354,-1.2417c-1.13777,-0.09551 -2.27553,-0.09551 -3.4133,0c-1.25154,0.14328 -2.73065,0.52533 -2.61687,1.71927c0.17067,1.2417 1.70666,0.47757 2.61687,0.62085c0.28445,0.04776 0.56889,0 0.85333,0v0.04776c0.85334,0.04776 1.70665,0.14327 2.55998,0.09551c0.91021,-0.04776 1.76354,-0.3343 1.76354,-1.2417zM121.00122,366.4421c0.85334,-0.85964 0.11378,-1.57599 -0.68266,-2.14909c-0.39823,-0.42982 -0.62577,-1.0029 -1.13777,-1.3372c-0.96711,-0.62084 -1.13777,-2.29237 -2.84443,-1.8148c-1.02398,0.28654 -0.512,3.10424 0.79644,4.10715c0.45511,0.3343 1.13777,0.52533 1.70666,0.76412c0.512,0.66861 1.25154,1.33721 2.16175,0.42982zM123.0492,478.48131c-0.68266,-0.42982 -0.91022,-0.71637 -1.02399,-0.6686c-0.28445,0.14328 -0.62577,0.3343 -0.73955,0.57309c-0.17067,0.3343 0.11377,0.62085 0.56888,0.52533c0.34134,-0.04776 0.68266,-0.23878 1.19466,-0.42982zM126.5194,443.85709c1.25154,0.19103 5.17685,-2.96097 5.06307,-4.20266c-0.22755,-0.90739 -1.08088,-1.62376 -2.16176,-0.90739c-1.64977,1.09843 -2.67376,2.67442 -3.4702,4.29818c-0.22755,0.42982 -0.05689,0.76411 0.56889,0.81187zM127.88473,479.96179c0.17067,-0.14328 0.45511,-0.23879 0.56889,-0.42981c0.73955,-1.52824 1.47909,-3.05648 2.10487,-4.63248c0.05689,-0.19103 -0.28444,-0.62085 -0.512,-0.71636c-0.22755,-0.09551 -0.79643,0.09551 -0.91021,0.28655c-0.91021,1.38496 -1.93421,2.76993 -2.21866,4.34594c-0.11378,0.52533 -0.05689,1.14619 0.96711,1.14619zM130.16026,519.50504c0.17067,-0.3343 0,-0.71636 -0.45511,-0.71636c-0.96711,-0.04776 -1.59287,0.42982 -1.82043,1.19394c-0.11378,0.38206 0,0.76411 0.62577,0.90739c0.91021,-0.14328 1.36532,-0.76412 1.64977,-1.38496zM131.81003,577.62598c-0.11378,-0.57309 -0.68266,-0.95516 -1.42221,-0.9074c-0.79644,0.04776 -0.68267,0.62085 -0.68267,1.09842c0.05689,0.57309 0.05689,1.09843 0.05689,1.62376c0.45511,0.57309 1.19466,1.3372 1.70666,0.85963c0.73955,-0.62085 0.56889,-1.71927 0.34133,-2.67442zM132.72024,477.62168c-0.05689,-0.19103 -0.34133,-0.23878 -0.62578,-0.42982c-0.17067,0.23879 -0.39823,0.42981 -0.39823,0.62084c0.05689,0.19103 0.34133,0.42982 0.512,0.42982c0.45511,0 0.68266,-0.23878 0.512,-0.62085zM142.27751,583.73894c-1.9911,-1.00291 -3.81152,-0.85963 -5.00618,1.00291c-1.02398,-0.09551 -1.93421,-0.85964 -3.29953,-0.14327c1.13777,0.95515 2.16176,1.05066 3.29953,0.14327c1.13777,0.42982 2.21865,0.85965 3.29953,1.33722c0.79644,0.3343 1.59287,0.81187 2.21865,-0.04776c0.62578,-0.85964 0.56889,-1.76703 -0.512,-2.29237zM147.22681,439.12909c0,-0.71637 -0.56889,-1.19394 -1.47911,-1.09843c-1.08087,0.09551 -1.70666,0.76413 -1.82043,1.576c-0.11378,0.76412 0.512,0.6686 1.25155,0.47757c0.62578,-0.28655 1.9911,0.28655 2.04799,-0.95515zM150.98144,572.08611c-0.11378,-0.04776 -0.17066,-0.14328 -0.22755,-0.14328c-0.05689,0 -0.17066,0.09551 -0.22755,0.14328c0.11378,0.04776 0.22755,0.14327 0.34132,0.19103c0.05689,-0.04776 0.05689,-0.14327 0.11378,-0.19103zM155.1343,441.13491c-0.11378,-0.09551 -0.34133,-0.04776 -0.51199,-0.04776c0,0.14328 -0.05689,0.3343 0,0.38207c0.05689,0.09551 0.28445,0.04776 0.45511,0.04776c0,-0.14328 0.05689,-0.3343 0.05689,-0.38206zM158.94583,595.39179c0,-0.52534 -0.28445,-0.90739 -0.96711,-0.95515c-0.62578,-0.04776 -0.96709,0.3343 -1.02398,0.85964c0,0.52534 0.28444,0.85964 0.96709,0.95515c0.62578,0 1.024,-0.3343 1.024,-0.85964zM163.78135,583.21361c-1.36532,-0.09551 -2.78753,-0.04776 -4.60796,0.57308c1.64977,0.52534 2.84441,0.95515 4.03908,1.33722c1.02398,0.28654 2.04799,0.19103 2.27555,-0.76412c0.22755,-0.90739 -0.85332,-1.09842 -1.70666,-1.14618zM167.024,577.29168l-0.17068,-0.04776v0.14328zM176.58126,454.36375c-0.17067,0.19103 -0.73955,0.19103 -0.34133,0.57309c0.11378,-0.19103 0.22755,-0.38206 0.34133,-0.57309zM186.59363,592.62185c-0.34134,-0.71636 0.17066,-2.00581 -1.30843,-2.14909c-0.68266,-0.09551 -0.68267,0.81187 -0.62578,1.33721c0.11378,0.81187 0.17067,1.86254 1.42221,2.00582c0.68266,0.09551 0.56889,-0.6686 0.512,-1.19394zM208.15436,519.45728c-0.17067,-0.14328 -0.34132,-0.23878 -0.62578,-0.42982c-0.22755,0.23879 -0.34133,0.42981 -0.512,0.57308c0.22755,0.09551 0.45511,0.33431 0.62578,0.28655c0.17067,0 0.34133,-0.23879 0.512,-0.42983zM210.77123,512.10263c-0.05689,-0.3343 -0.17068,-0.62086 -0.62578,-0.6686c-0.39821,-0.04776 -0.62577,0.19103 -0.68266,0.52534c-0.05689,0.3343 0.17066,0.62085 0.56889,0.6686c0.45511,0.04776 0.68266,-0.19103 0.73955,-0.52534zM212.76233,505.17778c-0.17067,-0.90739 -0.73956,-1.62376 -2.04799,-1.76703c-0.96711,-0.09551 -1.76354,0.28655 -1.70665,1.14618c0.05689,1.14618 1.08087,1.76702 2.38931,1.9103c0.91021,0.09551 1.25155,-0.47758 1.36533,-1.28945zM216.80141,510.38335c-0.39821,0.57309 -0.512,1.14618 0.28444,1.9103c0.28445,-0.85964 0.79644,-1.52824 -0.28444,-1.9103zM227.15512,516.59183c0,-0.38206 -0.22755,-0.62085 -0.62578,-0.57308c-0.22755,0 -0.512,0.19103 -0.56889,0.38206c-0.17067,0.28654 0,0.62086 0.39822,0.6686c0.39821,0.04776 0.62578,-0.19104 0.79644,-0.47758zM241.09279,556.08733c-1.19466,-0.57309 -2.4462,-1.2417 -3.75464,-1.71927c-0.512,-0.14328 -0.79644,0.38206 -0.68266,0.81187c0.28445,1.28945 1.42221,1.76703 2.84443,1.9103c0.68266,0.04776 1.30843,-0.14328 1.59287,-1.00291zM249.3985,532.68612c-0.05689,-2.14909 -1.25154,-4.01163 -2.27554,-5.82642c-0.96711,-1.62375 -2.90132,-3.00873 -5.57508,-2.48339c-1.08087,0.23879 -2.38932,0.52534 -2.61687,1.576c-0.22755,1.05066 1.25155,1.2417 2.04798,1.71927c1.30844,0.76412 3.35642,0.71636 3.92531,2.43564c0.56889,1.9103 2.27553,2.5789 4.49418,2.5789zM269.93525,418.02025c-2.73064,-1.00291 -4.26664,0.38207 -5.06308,4.68024c2.21866,-1.28945 3.69776,-2.86546 5.06308,-4.68024zM280.91472,449.87454c0,-0.14328 -0.17066,-0.23879 -0.45511,-0.62085c-1.13777,1.09843 -1.53598,2.05357 -0.73955,3.152c0.17067,0.28655 0.62577,0.47757 0.91021,0.19103c0.79643,-0.81187 0.28444,-1.81479 0.28444,-2.72218zM286.4329,522.80031c-1.42221,0.04776 -1.02399,1.28945 -1.19465,2.14909c0.22756,0.95515 -0.17067,2.48339 1.30843,2.53115c1.42221,0.04776 1.30844,-1.48048 1.36533,-2.48339c0.05689,-0.95515 0,-2.19685 -1.4791,-2.19685zM328.81481,524.47183c-1.64977,-0.57309 -2.21866,-2.10133 -3.86842,-3.05648c-0.73955,1.2417 -1.70665,2.14909 -3.12886,2.72217c-1.08087,0.38206 -1.53599,1.28946 -2.04799,2.14909c-0.56889,0.95515 -0.22755,1.33721 1.02399,1.576c3.24264,0.57309 5.57508,-0.95515 8.07817,-2.14909c0.56889,-0.28654 1.02398,-0.9074 -0.05689,-1.2417z" data-paper-data="{&quot;origPos&quot;:null}" fill="url(#color-3)"/></g></g></svg>