<svg xml:space="preserve" style="enable-background:new 0 0 102.5 102.5;" viewBox="0 0 102.5 102.5" y="0px" x="0px" id="Layer_1" version="1.1" xmlns:xlink="http://www.w3.org/1999/xlink" xmlns="http://www.w3.org/2000/svg">
<g>
	<path d="M31,48.2h1.8v4.5h3.6v1.8H31V48.2z"></path>
	<path d="M37.1,53.1v-3.6l1.4-1.4h3.6l1.4,1.4v3.6l-1.4,1.4h-3.6L37.1,53.1z M38.9,50.4v1.8l0.5,0.5h1.8l0.5-0.5v-1.8L41.2,50h-1.8   L38.9,50.4z"></path>
	<path d="M49.3,48.2l1.4,1.4l-1.4,1.4L48.4,50h-1.8l-0.5,0.5v1.8l0.5,0.5h1.8l0.9-0.9l1.4,1.4l-1.4,1.4h-3.6l-1.4-1.4v-3.6l1.4-1.4   H49.3z"></path>
	<path d="M53.4,52.2v2.3h-1.8v-6.3h1.8v2.3l2.3-2.3h2.7l-3.2,3.2l3.2,3.2h-2.7L53.4,52.2z"></path>
	<path d="M60.6,52.7h3.6v1.8h-5.4v-6.3h5.4V50h-3.6v0.5h3.6v1.8h-3.6V52.7z"></path>
	<path d="M65.1,48.2h5l1.4,1.4v3.6l-1.4,1.4h-5V48.2z M66.9,50v2.7h2.3l0.5-0.5v-1.8L69.2,50H66.9z"></path>
</g>
</svg>