<svg version="1.1" xmlns="http://www.w3.org/2000/svg" xmlns:xlink="http://www.w3.org/1999/xlink" width="41.6" height="6.6" viewBox="0,0,41.6,6.6"><g transform="translate(-219.2,-176.7)"><g data-paper-data="{&quot;isPaintingLayer&quot;:true}" fill="#000000" fill-rule="nonzero" stroke="none" stroke-width="1" stroke-linecap="butt" stroke-linejoin="miter" stroke-miterlimit="10" stroke-dasharray="" stroke-dashoffset="0" style="mix-blend-mode: normal"><path d="M219.2,178.1l1.4,-1.4h5v1.8h-4.1l-0.2,0.2l0.2,0.2h2.7l1.4,1.4v1.4l-1.4,1.4h-5v-1.8h4.1l0.2,-0.2l-0.2,-0.2h-2.7l-1.4,-1.4z"/><path d="M226.4,181.7v-3.6l1.4,-1.4h3.6l1.4,1.4v3.6l-1.4,1.4h-3.6zM228.3,179v1.8l0.5,0.5h1.8l0.5,-0.5v-1.8l-0.5,-0.5h-1.9z"/><path d="M233.7,181.7v-5h1.8v4.1l0.5,0.5h1.8l0.5,-0.5v-4.1h1.7v5l-1.4,1.4h-3.6z"/><path d="M247.2,178.1v1.8l-1.4,1.4l1.8,1.8h-2.6l-1.8,-1.8h-0.5v1.8h-1.8v-6.4h5zM245.4,179l-0.5,-0.5h-2.3v0.9h2.4z"/><path d="M253.1,176.7l1.4,1.4l-1.4,1.4l-0.9,-0.9h-1.8l-0.5,0.5v1.8l0.5,0.5h1.8l0.9,-0.9l1.4,1.4l-1.4,1.4h-3.6l-1.4,-1.4v-3.6l1.4,-1.4h3.6z"/><path d="M257.2,181.2h3.6v1.8h-5.4v-6.3h5.4v1.8h-3.6v0.5h3.6v1.8h-3.6z"/></g></g></svg>