<svg version="1.1" xmlns="http://www.w3.org/2000/svg" xmlns:xlink="http://www.w3.org/1999/xlink" width="31.95547" height="31.27103" viewBox="0,0,31.95547,31.27103"><g transform="translate(-223.37356,-165.05686)"><g data-paper-data="{&quot;isPaintingLayer&quot;:true}" fill="#ffffff" fill-rule="nonzero" stroke="none" stroke-width="1" stroke-linecap="butt" stroke-linejoin="miter" stroke-miterlimit="10" stroke-dasharray="" stroke-dashoffset="0" style="mix-blend-mode: normal"><path d="M224.11733,170.10683c-0.06093,-0.87504 -0.64665,-1.60937 -0.73349,-2.48154c-0.06876,-0.69054 0.21175,-1.41244 0.70597,-1.81691c0.38257,-0.3131 0.8579,-0.43243 1.32067,-0.52924c1.11347,-0.23292 2.3353,-0.35703 3.31122,0.29878c0.5366,0.3606 0.94461,0.92579 1.29133,1.51686c0.06004,0.10235 0.11967,0.20863 0.14384,0.32874c0.03536,0.17568 -0.00899,0.35806 -0.05301,0.53116c-0.15307,0.60188 -0.30613,1.20375 -0.4592,1.80563c-0.12162,0.47824 -0.24344,0.95738 -0.32399,1.44684c-0.09657,0.58681 -0.13315,1.18414 -0.16448,1.78017c-0.05238,0.99644 -0.09057,1.99691 -0.02309,2.99217c0.04144,0.61107 0.11653,1.26115 -0.12598,1.80772c-2.3914,-1.41203 -4.12935,-4.18592 -4.52952,-7.22947z"/><path d="M230.28984,167.27807c0.17442,-0.6079 0.73839,-0.98568 1.29548,-1.04452c0.55709,-0.05884 1.10907,0.14335 1.62867,0.38055c0.51826,0.23659 1.03477,0.51974 1.42812,0.97238c0.39335,0.45264 0.64762,1.10526 0.54201,1.73187c-0.16932,1.00459 -1.12453,1.54141 -1.62369,2.39045c-0.27871,0.47407 -0.40904,1.03877 -0.5348,1.59161c-0.23528,1.03431 -0.47187,2.0783 -0.5096,3.14617c-0.39931,-0.76786 -0.79863,-1.53573 -1.19794,-2.30359c-0.28663,-0.55119 -0.57394,-1.10384 -0.80406,-1.68864c-0.59603,-1.51467 -0.79009,-3.2326 -0.55022,-4.87075c0.0296,-0.2022 0.08773,-0.43488 0.25493,-0.50887"/><path d="M236.69605,166.76333c0.38479,-0.08297 0.78755,-0.10117 1.16378,0.02293c0.37623,0.1241 0.72404,0.40356 0.89932,0.80398c0.25971,0.59331 0.1036,1.30401 -0.06594,1.93854c-0.35553,1.33057 -0.74998,2.64754 -1.18249,3.94796c-0.49144,-1.26913 -0.98288,-2.53826 -1.47432,-3.80739c-0.12575,-0.32475 -0.253,-0.65555 -0.28991,-1.00821c-0.03925,-0.37502 0.02586,-0.75291 0.09066,-1.12326c0.02513,-0.14363 0.05136,-0.29054 0.11769,-0.41585c0.16335,-0.30858 0.51194,-0.39866 0.8227,-0.46048"/><path d="M227.81604,191.88218c-0.646,-2.8913 0.05948,-6.15165 1.83866,-8.49731c0.41231,0.37609 0.56007,0.98893 0.72644,1.55171c0.27098,0.91662 0.6433,1.78975 1.02765,2.65285c0.2299,0.51627 0.46518,1.03131 0.75347,1.50966c0.24046,0.39899 0.51635,0.77003 0.79174,1.14033c0.3466,0.46605 0.69319,0.93209 1.03979,1.39814c0.09968,0.13404 0.20279,0.27618 0.22853,0.44866c0.01759,0.11792 -0.00288,0.23966 -0.02506,0.35811c-0.12808,0.68398 -0.32262,1.37284 -0.70713,1.93812c-0.69932,1.02808 -1.89261,1.47391 -3.02034,1.77354c-0.4687,0.12453 -0.9568,0.23472 -1.42263,0.13021c-0.60177,-0.135 -1.10883,-0.64987 -1.27617,-1.29583c-0.21136,-0.81587 0.09381,-1.73618 -0.14293,-2.5428z"/><path d="M233.66123,193.18681c-0.13801,-0.05784 -0.18599,-0.23974 -0.21043,-0.39782c-0.19799,-1.28064 -0.03781,-2.62364 0.45416,-3.80774c0.18995,-0.45717 0.4271,-0.88921 0.66369,-1.3201c0.3296,-0.60028 0.65921,-1.20057 0.98881,-1.80085c0.03114,0.83481 0.22643,1.65096 0.42064,2.45954c0.1038,0.43219 0.21138,0.87365 0.44143,1.24425c0.41201,0.66375 1.20047,1.0834 1.34023,1.86875c0.08718,0.48986 -0.12271,1.00005 -0.44739,1.3539c-0.32468,0.35386 -0.75102,0.57521 -1.1788,0.76017c-0.42889,0.18543 -0.8845,0.34349 -1.34434,0.29749c-0.45984,-0.046 -0.92535,-0.34133 -1.06932,-0.81656"/><path d="M237.67004,193.28822c-0.25651,-0.04832 -0.54424,-0.11875 -0.67907,-0.35998c-0.05475,-0.09796 -0.0764,-0.21281 -0.09714,-0.3251c-0.05349,-0.28952 -0.10723,-0.58494 -0.07483,-0.87811c0.03047,-0.27569 0.1355,-0.5343 0.2393,-0.78818c0.40564,-0.99215 0.81129,-1.9843 1.21693,-2.97645c0.357,1.01661 0.68259,2.04616 0.97605,3.08635c0.13994,0.49605 0.2688,1.05164 0.05443,1.51546c-0.14468,0.31303 -0.43177,0.5315 -0.74232,0.62852c-0.31055,0.09702 -0.64299,0.08279 -0.96061,0.01793"/><path d="M254.22685,170.52265c-0.3995,3.04355 -2.13453,5.81744 -4.52192,7.22947c-0.24211,-0.54657 -0.16714,-1.19665 -0.12577,-1.80772c0.06737,-0.99526 0.02924,-1.99572 -0.02305,-2.99217c-0.03128,-0.59603 -0.06779,-1.19336 -0.16421,-1.78017c-0.08042,-0.48946 -0.20203,-0.9686 -0.32345,-1.44684c-0.15281,-0.60188 -0.30562,-1.20375 -0.45843,-1.80563c-0.04395,-0.1731 -0.08822,-0.35548 -0.05293,-0.53116c0.02413,-0.12011 0.08366,-0.22639 0.1436,-0.32874c0.34614,-0.59107 0.75346,-1.15627 1.28916,-1.51686c0.97428,-0.65581 2.19407,-0.53171 3.30567,-0.29878c0.46199,0.0968 0.93652,0.21614 1.31845,0.52924c0.49339,0.40447 0.77343,1.12638 0.70479,1.81691c-0.08669,0.87217 -0.67143,1.6065 -0.73225,2.48154z"/><path d="M248.49535,167.03964c0.16692,0.07399 0.22495,0.30667 0.25451,0.50887c0.23947,1.63815 0.04573,3.35608 -0.5493,4.87075c-0.22973,0.5848 -0.51656,1.13745 -0.80271,1.68864c-0.39864,0.76786 -0.79729,1.53572 -1.19593,2.30359c-0.03767,-1.06787 -0.27386,-2.11186 -0.50875,-3.14617c-0.12555,-0.55284 -0.25566,-1.11755 -0.5339,-1.59161c-0.49832,-0.84904 -1.45193,-1.38586 -1.62097,-2.39045c-0.10544,-0.62661 0.14841,-1.27923 0.5411,-1.73187c0.39269,-0.45264 0.90833,-0.73579 1.42572,-0.97238c0.51872,-0.2372 1.06978,-0.43939 1.62594,-0.38055c0.55616,0.05884 1.11918,0.43662 1.29331,1.04452"/><path d="M241.94756,166.62646c0.31024,0.06182 0.65824,0.1519 0.82132,0.46048c0.06622,0.12531 0.0924,0.27222 0.11749,0.41585c0.06469,0.37035 0.1297,0.74824 0.09051,1.12326c-0.03685,0.35265 -0.16388,0.68345 -0.28942,1.00821c-0.49062,1.26913 -0.98123,2.53826 -1.47184,3.80739c-0.43178,-1.30042 -0.82557,-2.61739 -1.1805,-3.94796c-0.16926,-0.63453 -0.32511,-1.34523 -0.06583,-1.93854c0.17498,-0.40042 0.52221,-0.67988 0.89781,-0.80398c0.3756,-0.1241 0.77768,-0.1059 1.16183,-0.02293"/><path d="M251.08168,192.41246c-0.23634,0.80662 0.06832,1.72693 -0.14268,2.5428c-0.16706,0.64596 -0.67327,1.16083 -1.27403,1.29583c-0.46504,0.10451 -0.95233,-0.00568 -1.42024,-0.13021c-1.12584,-0.29963 -2.31713,-0.74546 -3.01528,-1.77354c-0.38387,-0.56527 -0.57808,-1.25413 -0.70594,-1.93811c-0.02214,-0.11844 -0.04258,-0.24019 -0.02501,-0.35811c0.02569,-0.17247 0.12863,-0.31461 0.22814,-0.44865c0.34602,-0.46605 0.69203,-0.93209 1.03805,-1.39814c0.27493,-0.3703 0.55035,-0.74134 0.79041,-1.14033c0.2878,-0.47835 0.52268,-0.99339 0.7522,-1.50966c0.3837,-0.8631 0.75541,-1.73623 1.02593,-2.65285c0.16609,-0.56278 0.3136,-1.17562 0.72522,-1.55171c1.77619,2.34566 2.48049,5.60602 1.83557,8.49731z"/><path d="M245.00006,192.99275c-0.14373,0.47523 -0.60846,0.77056 -1.06752,0.81656c-0.45906,0.046 -0.91391,-0.11206 -1.34208,-0.29749c-0.42706,-0.18496 -0.85268,-0.40632 -1.17682,-0.76017c-0.32414,-0.35385 -0.53367,-0.86404 -0.44664,-1.3539c0.13953,-0.78535 0.92666,-1.20501 1.33798,-1.86875c0.22966,-0.3706 0.33706,-0.81206 0.44069,-1.24425c0.19388,-0.80858 0.38884,-1.62473 0.41993,-2.45954c0.32905,0.60028 0.6581,1.20057 0.98715,1.80085c0.23619,0.43089 0.47294,0.86293 0.66257,1.3201c0.49114,1.1841 0.65106,2.5271 0.4534,3.80774c-0.0244,0.15808 -0.0723,0.33998 -0.21008,0.39782"/><path d="M241.1237,193.17357c-0.31708,0.06486 -0.64897,0.07909 -0.959,-0.01793c-0.31003,-0.09701 -0.59663,-0.31548 -0.74107,-0.62851c-0.21401,-0.46382 -0.08537,-1.01942 0.05434,-1.51547c0.29296,-1.04019 0.61801,-2.06974 0.97441,-3.08635c0.40496,0.99215 0.80993,1.9843 1.21489,2.97645c0.10363,0.25388 0.20848,0.51249 0.2389,0.78818c0.03234,0.29317 -0.02131,0.58859 -0.07471,0.87811c-0.02071,0.11229 -0.04232,0.22714 -0.09698,0.3251c-0.1346,0.24123 -0.42185,0.31166 -0.67793,0.35998"/></g></g></svg>