<svg version="1.1" xmlns="http://www.w3.org/2000/svg" xmlns:xlink="http://www.w3.org/1999/xlink" width="125.08701" height="15.83098" viewBox="0,0,125.08701,15.83098"><defs><linearGradient x1="215.88257" y1="179.75602" x2="340.96958" y2="179.75602" gradientUnits="userSpaceOnUse" id="color-1"><stop offset="0" stop-color="#000000" stop-opacity="0.838"/><stop offset="1" stop-color="#000000" stop-opacity="0"/></linearGradient></defs><g transform="translate(-215.88257,-171.84054)"><g data-paper-data="{&quot;isPaintingLayer&quot;:true}" fill-rule="nonzero" stroke="none" stroke-linecap="butt" stroke-linejoin="miter" stroke-miterlimit="10" stroke-dasharray="" stroke-dashoffset="0" style="mix-blend-mode: normal"><path d="M215.88257,187.67151v-15.83098h125.08701v15.83098z" fill="url(#color-1)" stroke-width="0"/><path d="M220.28101,182.51217c-0.6,-0.6 -0.9,-1.5 -0.9,-2.6v-4.3h1.4v4.3c0,1.5 0.7,2.3 2,2.3c1.3,0 1.9,-0.8 1.9,-2.3v-4.3h1.4v4.3c0,1.1 -0.3,2 -0.9,2.6c-0.6,0.6 -1.4,0.9 -2.5,0.9c-0.9,0 -1.8,-0.3 -2.4,-0.9z" fill="#ffffff" stroke-width="1"/><path d="M235.68101,175.51217v7.7h-1.2l-4.2,-5.2v5.2h-1.4v-7.7h1.2l4.2,5.2v-5.2z" fill="#ffffff" stroke-width="1"/><path d="M238.38101,175.51217h1.4v6.5h4v1.2h-5.4z" fill="#ffffff" stroke-width="1"/><path d="M246.98101,182.81219c-0.6,-0.3 -1.1,-0.8 -1.5,-1.4c-0.4,-0.6 -0.5,-1.3 -0.5,-2c0,-0.7 0.2,-1.4 0.5,-2c0.4,-0.6 0.9,-1.1 1.5,-1.4c0.6,-0.3 1.3,-0.5 2.1,-0.5c0.8,0 1.5,0.2 2.1,0.5c0.6,0.3 1.1,0.8 1.5,1.4c0.4,0.6 0.5,1.3 0.5,2c0,0.8 -0.2,1.4 -0.5,2c-0.3,0.6 -0.9,1.1 -1.5,1.4c-0.6,0.3 -1.3,0.5 -2.1,0.5c-0.8,0.1 -1.5,-0.1 -2.1,-0.5zM250.48101,181.81219c0.4,-0.2 0.7,-0.6 1,-1c0.2,-0.4 0.4,-0.9 0.4,-1.4c0,-0.5 -0.1,-1 -0.4,-1.4c-0.2,-0.4 -0.6,-0.7 -1,-1c-0.4,-0.2 -0.9,-0.3 -1.4,-0.3c-0.5,0 -1,0.1 -1.4,0.3c-0.4,0.2 -0.7,0.6 -1,1c-0.2,0.4 -0.4,0.9 -0.4,1.4c0,0.5 0.1,1 0.4,1.4c0.2,0.4 0.6,0.7 1,1c0.4,0.3 0.9,0.3 1.4,0.3c0.5,0 1,-0.1 1.4,-0.3z" fill="#ffffff" stroke-width="1"/><path d="M256.88095,182.81219c-0.6,-0.3 -1.1,-0.8 -1.5,-1.4c-0.4,-0.6 -0.5,-1.3 -0.5,-2c0,-0.8 0.2,-1.4 0.5,-2c0.3,-0.6 0.9,-1.1 1.5,-1.4c0.6,-0.3 1.3,-0.5 2.1,-0.5c0.6,0 1.2,0.1 1.7,0.3c0.5,0.2 1,0.5 1.3,1l-0.9,0.9c-0.6,-0.6 -1.2,-0.9 -2.1,-0.9c-0.5,0 -1,0.1 -1.4,0.3c-0.4,0.2 -0.7,0.6 -1,1c-0.2,0.4 -0.4,0.9 -0.4,1.4c0,0.5 0.1,1 0.4,1.4c0.2,0.4 0.6,0.7 1,1c0.4,0.3 0.9,0.3 1.4,0.3c0.8,0 1.5,-0.3 2.1,-0.9l0.9,0.9c-0.4,0.4 -0.8,0.7 -1.3,1c-0.5,0.3 -1.1,0.3 -1.7,0.3c-0.8,-0.1 -1.5,-0.3 -2.1,-0.7z" fill="#ffffff" stroke-width="1"/><path d="M266.68098,180.01217l-1.2,1.3v2h-1.4v-7.7h1.4v3.9l3.8,-3.9h1.6l-3.2,3.4l3.4,4.3h-1.7z" fill="#ffffff" stroke-width="1"/><path d="M273.28099,183.11219c-0.6,-0.2 -1,-0.4 -1.3,-0.7l0.5,-1.1c0.3,0.2 0.7,0.5 1.2,0.6c0.5,0.2 0.9,0.2 1.4,0.2c0.6,0 1,-0.1 1.3,-0.3c0.3,-0.2 0.4,-0.4 0.4,-0.7c0,-0.2 -0.1,-0.4 -0.2,-0.5c-0.2,-0.1 -0.4,-0.3 -0.6,-0.3c-0.2,-0.1 -0.6,-0.2 -1,-0.3c-0.6,-0.1 -1.1,-0.3 -1.4,-0.4c-0.4,-0.1 -0.7,-0.4 -0.9,-0.7c-0.3,-0.3 -0.4,-0.7 -0.4,-1.2c0,-0.4 0.1,-0.8 0.3,-1.2c0.2,-0.3 0.6,-0.6 1,-0.8c0.5,-0.2 1,-0.3 1.7,-0.3c0.5,0 0.9,0.1 1.4,0.2c0.5,0.1 0.8,0.3 1.2,0.5l-0.5,1.1c-0.3,-0.2 -0.7,-0.3 -1.1,-0.5c-0.4,-0.1 -0.7,-0.2 -1.1,-0.2c-0.6,0 -1,0.1 -1.3,0.3c-0.3,0.2 -0.4,0.4 -0.4,0.8c0,0.2 0.1,0.4 0.2,0.5c0.2,0.1 0.4,0.2 0.6,0.3c0.2,0.1 0.6,0.2 1,0.3c0.6,0.1 1,0.3 1.4,0.4c0.4,0.1 0.7,0.4 0.9,0.7c0.3,0.3 0.4,0.7 0.4,1.2c0,0.4 -0.1,0.8 -0.3,1.2c-0.2,0.4 -0.6,0.6 -1.1,0.8c-0.5,0.2 -1,0.3 -1.7,0.3c-0.5,0.1 -1.1,0 -1.6,-0.2z" fill="#ffffff" stroke-width="1"/></g></g></svg>