<svg version="1.1" xmlns="http://www.w3.org/2000/svg" xmlns:xlink="http://www.w3.org/1999/xlink" width="40.7" height="6.4" viewBox="0,0,40.7,6.4"><g transform="translate(-219.65,-176.8)"><g data-paper-data="{&quot;isPaintingLayer&quot;:true}" fill="#000000" fill-rule="nonzero" stroke="none" stroke-width="1" stroke-linecap="butt" stroke-linejoin="miter" stroke-miterlimit="10" stroke-dasharray="" stroke-dashoffset="0" style="mix-blend-mode: normal"><path d="M224.25,180.9v-4.1h1.8v5l-1.4,1.4h-3.6l-1.4,-1.4l1.4,-1.4l0.9,0.9h1.8z"/><path d="M226.95,181.8v-5h1.8v4.1l0.5,0.5h1.8l0.5,-0.5v-4.1h1.8v5l-1.4,1.4h-3.6z"/><path d="M235.95,180v3.2h-1.8v-6.3h1.4l3.2,3.2v-3.2h1.8v6.3h-1.4z"/><path d="M241.45,181.8v-3.6l1.4,-1.4h3.6l1.3,1.4l-0.9,0.9h0.9v4.1h-5zM243.25,179.1v1.8l0.5,0.5h2.3v-0.5h-1.8v-1.8h1.8l-0.5,-0.5h-1.8z"/><path d="M248.65,176.8h1.8v4.5h3.6v1.9h-5.4z"/><path d="M256.75,181.3h3.6v1.9h-5.4v-6.3h5.4v1.8h-3.6v0.5h3.6v1.8h-3.6z"/></g></g></svg>