<svg version="1.1" xmlns="http://www.w3.org/2000/svg" xmlns:xlink="http://www.w3.org/1999/xlink" width="38.026" height="6.262" viewBox="0,0,38.026,6.262"><g transform="translate(-220.987,-176.583)"><g data-paper-data="{&quot;isPaintingLayer&quot;:true}" fill="#000000" fill-rule="nonzero" stroke="none" stroke-width="1" stroke-linecap="butt" stroke-linejoin="miter" stroke-miterlimit="10" stroke-dasharray="" stroke-dashoffset="0" style="mix-blend-mode: normal"><g><path/><path d="M224.233,178.372h-3.246v-1.789h6.492v1.342l-3.246,3.131h3.246v1.789h-6.492v-1.342z"/><path d="M228.407,181.503v-3.578l1.391,-1.342h3.71l1.391,1.342v3.578l-1.391,1.342h-3.71zM230.262,178.819v1.789l0.464,0.448h1.855l0.463,-0.448v-1.789l-0.463,-0.447h-1.855z"/><path d="M237.682,179.266v3.579h-1.855v-6.262h1.855l1.391,1.342l1.392,-1.342h1.854v6.262h-1.854v-3.579l-1.392,1.342z"/><path d="M249.738,177.925v1.341l-0.464,0.447l0.464,0.447v1.342l-1.391,1.342h-5.102v-6.261h5.102zM247.42,178.372h-2.319v0.447h2.319l0.231,-0.223zM245.101,180.608v0.448h2.319l0.231,-0.224l-0.231,-0.224z"/><path d="M252.521,182.845h-1.854v-6.262h1.854z"/><path d="M255.303,181.056h3.71v1.789h-5.564v-6.262h5.564v1.789h-3.71v0.447h3.71v1.789h-3.71z"/><path/></g></g></g></svg>