<svg xml:space="preserve" style="enable-background:new 0 0 144 8;" viewBox="0 0 144 8" y="0px" x="0px" id="Layer_1" version="1.1" xmlns:xlink="http://www.w3.org/1999/xlink" xmlns="http://www.w3.org/2000/svg">
<style type="text/css">
	.st0{fill:#FFFFFF;}
</style>
<g>
	<path d="M48.97412,1.53516L48.5625,3.89893l-2.05957,1.77295h-4.08594l-0.41162,2.36426h-2.33398l1.44043-8.27295   h6.41992L48.97412,1.53516z M46.43359,2.71777l-0.48047-0.59082h-2.91895l-0.20557,1.18115h2.91895L46.43359,2.71777z" class="st0"></path>
	<path d="M52.20068-0.23682h4.66895l1.44238,1.77197l-1.13184,6.50098h-2.33496l0.30859-1.77344h-3.50195   l-0.30859,1.77344h-2.33398l1.13184-6.50098L52.20068-0.23682z M55.29102,2.12695h-2.33496l-0.68652,0.59082l-0.20605,1.18115   h3.50195l0.20605-1.18115L55.29102,2.12695z" class="st0"></path>
	<path d="M58.65674,6.2627l1.13184-6.49951h2.33398l-0.92627,5.31787l0.48145,0.59082h2.33496l0.68555-0.59082   l0.92627-5.31787h2.33496L66.82764,6.2627l-2.05957,1.77344h-4.66895L58.65674,6.2627z" class="st0"></path>
	<path d="M68.81787,1.53516l2.05957-1.77197h6.42041l-0.41211,2.36377h-5.25293l-0.34326,0.29541l0.24072,0.29541   h3.50195l1.44238,1.77295L76.16602,6.2627l-2.06055,1.77344h-6.41943l0.41162-2.36426h5.25293l0.34277-0.29492l-0.24023-0.2959   h-3.50195l-1.44189-1.77295L68.81787,1.53516z" class="st0"></path>
	<path d="M79.77051,5.67188h4.66895l-0.41211,2.36426h-7.00293l1.44141-8.27295h7.00293l-0.41211,2.36377H80.3877   l-0.10254,0.59082h4.66895l-0.41211,2.36328h-4.66895L79.77051,5.67188z" class="st0"></path>
	<path d="M86.63672-0.23682h6.41992l1.44238,1.77197L93.67578,6.2627l-2.06055,1.77344h-6.41992L86.63672-0.23682z    M88.55859,2.12695l-0.61719,3.54492h2.91895l0.68555-0.59082l0.41211-2.36328l-0.48047-0.59082H88.55859z" class="st0"></path>
</g>
</svg>