<svg version="1.1" xmlns="http://www.w3.org/2000/svg" xmlns:xlink="http://www.w3.org/1999/xlink" width="16.65" height="16.15001"><g transform="translate(-227.35,-170.875)"><g data-paper-data="{&quot;isPaintingLayer&quot;:true}" fill="none" fill-rule="nonzero" stroke="none" stroke-width="1" stroke-linecap="butt" stroke-linejoin="miter" stroke-miterlimit="10" stroke-dasharray="" stroke-dashoffset="0" font-family="none" font-weight="none" font-size="none" text-anchor="none" style="mix-blend-mode: normal"><path d="M244,175.91813v6.12379c0,0.18011 -0.06189,0.30019 -0.18568,0.42026l-4.5184,4.38272c-0.12379,0.12007 -0.24759,0.18011 -0.43327,0.18011h-6.37529c-0.18568,0 -0.30948,-0.06004 -0.43327,-0.18011l-4.5184,-4.38272c-0.12379,-0.12007 -0.18568,-0.24015 -0.18568,-0.42026v-6.18383c0,-0.18011 0.06189,-0.30019 0.18568,-0.42026l4.5184,-4.38272c0.12379,-0.12007 0.24759,-0.18011 0.43327,-0.18011h6.31338c0.18568,0 0.30948,0.06004 0.43327,0.18011l4.5184,4.38272c0.12379,0.12007 0.18568,0.30019 0.24759,0.4803zM232.92063,179.34024v-0.90056l0.24759,-0.24015h0.92844l0.49516,0.4803l0.68086,-0.66041l-0.68086,-0.66041h-1.85687l-0.68086,0.66041v1.80111l0.68086,0.66041h1.85687l0.68086,-0.66041l-0.68086,-0.66041l-0.49516,0.4803h-0.92844zM237.8723,180.54098h1.4236l-0.92844,-0.90056l0.68086,-0.66041v-0.90056l-0.68086,-0.66041h-2.59962v3.18196h0.92844v-0.90056h0.24759l0.92844,0.90056z" data-paper-data="{&quot;origPos&quot;:null}" id="XMLID_11_" fill="#00b992"/><path d="M241.5684,179.62909l0.19926,0.14526l-0.19926,0.19368h-0.94647v-0.33894z" id="XMLID_13_" fill="#ffffff"/></g></g></svg>