<svg version="1.1" xmlns="http://www.w3.org/2000/svg" xmlns:xlink="http://www.w3.org/1999/xlink" width="28.25" height="27.25" viewBox="0,0,28.25,27.25"><g transform="translate(-225.875,-166.375)"><g data-paper-data="{&quot;isPaintingLayer&quot;:true}" fill-rule="nonzero" stroke="none" stroke-linecap="butt" stroke-linejoin="miter" stroke-miterlimit="10" stroke-dasharray="" stroke-dashoffset="0" style="mix-blend-mode: normal"><path d="M234.109,186.035l1.104,-2.136c1.032,0.672 2.448,1.056 3.721,1.056c3.264,0 4.776,-2.447 4.68,-6.072c-0.888,1.56 -2.472,2.376 -4.584,2.376c-3.36,0 -5.4,-2.088 -5.4,-5.352c0,-3.48 2.328,-5.641 5.904,-5.641c4.248,0 6.841,3.024 6.841,8.185c0,5.352 -2.809,8.857 -7.249,8.857c-1.657,0 -3.649,-0.504 -5.017,-1.273zM243.157,175.834c0.024,-1.464 -1.056,-3.12 -3.48,-3.12c-2.04,0 -3.408,1.176 -3.408,3.216c0,1.92 1.248,3.096 3.289,3.096c2.279,0.001 3.624,-1.463 3.599,-3.192z" fill="#ffffff" stroke-width="1"/><path d="M225.875,193.625v-27.25h28.25v27.25z" fill="none" stroke-width="0"/></g></g></svg>