<svg version="1.1" xmlns="http://www.w3.org/2000/svg" xmlns:xlink="http://www.w3.org/1999/xlink" width="48.7" height="6.7" viewBox="0,0,48.7,6.7"><g transform="translate(-215.65,-176.65)"><g data-paper-data="{&quot;isPaintingLayer&quot;:true}" fill="#000000" fill-rule="nonzero" stroke="none" stroke-width="1" stroke-linecap="butt" stroke-linejoin="miter" stroke-miterlimit="10" stroke-dasharray="" stroke-dashoffset="0" style="mix-blend-mode: normal"><path d="M222.05,178.15v1.9l-1.4,1.4l1.8,1.9h-2.7l-1.8,-1.9h-0.5v1.9h-1.8v-6.5h5zM220.25,179.05l-0.5,-0.5h-2.3v0.9h2.3z"/><path d="M224.85,181.35h3.6v1.9h-5.5v-6.5h5.4v1.9h-3.5v0.4h3.6v1.9h-3.6z"/><path d="M230.45,176.75h3.6l1.4,1.4v5.1h-1.8v-1.4h-2.7v1.4h-1.8v-5.1zM233.15,178.55h-1.8l-0.4,0.5v0.9h2.7v-0.9z"/><path d="M241.35,176.75l1.4,1.4l-1.4,1.4l-0.9,-0.9h-1.8l-0.5,0.4v1.9l0.5,0.5h1.8l0.9,-0.9l1.4,1.4l-1.4,1.4h-3.6l-1.4,-1.4v-3.7l1.4,-1.4h3.6z"/><path d="M247.45,178.55v4.6h-1.8v-4.6h-2.3v-1.9h6.3v1.9z"/><path d="M250.35,181.85v-3.7l1.4,-1.4h3.6l1.4,1.4v3.7l-1.4,1.4h-3.6zM252.15,179.05v1.9l0.5,0.5h1.8l0.5,-0.5v-1.9l-0.5,-0.5h-1.8z"/><path d="M263.95,178.15v1.9l-1.4,1.4l1.8,1.9h-2.7l-1.8,-1.9h-0.5v1.9h-1.8v-6.5h5zM262.15,179.05l-0.5,-0.5h-2.3v0.9h2.3z"/></g></g></svg>