<svg version="1.1" xmlns="http://www.w3.org/2000/svg" xmlns:xlink="http://www.w3.org/1999/xlink" width="32.5" height="6.4" viewBox="0,0,32.5,6.4"><g transform="translate(-223.75,-176.8)"><g data-paper-data="{&quot;isPaintingLayer&quot;:true}" fill="#000000" fill-rule="nonzero" stroke="none" stroke-width="1" stroke-linecap="butt" stroke-linejoin="miter" stroke-miterlimit="10" stroke-dasharray="" stroke-dashoffset="0" style="mix-blend-mode: normal"><path d="M225.05,176.8h3.6l1.4,1.4v5h-1.8v-1.4h-2.7v1.4h-1.8v-5zM227.75,178.6h-1.8l-0.5,0.5v0.9h2.7v-0.9z"/><path d="M230.95,176.8h1.8v4.5h3.6v1.8h-5.4z"/><path d="M239.95,178.6v4.5h-1.8v-4.5h-2.3v-1.8h6.3v1.8z"/><path d="M244.95,181.3h3.6v1.8h-5.4v-6.3h5.4v1.8h-3.6v0.5h3.6v1.8h-3.6z"/><path d="M255.75,178.1v1.8l-1.3,1.4l1.8,1.8h-2.7l-1.8,-1.8h-0.5v1.8h-1.8v-6.3h5zM253.95,179l-0.5,-0.5h-2.3v0.9h2.3z"/></g></g></svg>