<svg version="1.1" xmlns="http://www.w3.org/2000/svg" xmlns:xlink="http://www.w3.org/1999/xlink" width="102.5" height="102.5" viewBox="0,0,102.5,102.5"><defs><linearGradient x1="240.00001" y1="154.18472" x2="240.00001" y2="176.64753" gradientUnits="userSpaceOnUse" id="color-1"><stop offset="0" stop-color="#c39700"/><stop offset="1" stop-color="#fef200"/></linearGradient><linearGradient x1="240.00001" y1="183.35248" x2="240.00001" y2="205.8153" gradientUnits="userSpaceOnUse" id="color-2"><stop offset="0" stop-color="#c39700"/><stop offset="1" stop-color="#fef200"/></linearGradient><linearGradient x1="240.00001" y1="171.93683" x2="240.00001" y2="188.06319" gradientUnits="userSpaceOnUse" id="color-3"><stop offset="0" stop-color="#c39700"/><stop offset="1" stop-color="#fef200"/></linearGradient><radialGradient cx="240" cy="180" r="51.25" gradientUnits="userSpaceOnUse" id="color-4"><stop offset="0" stop-color="#ffae63" stop-opacity="0.23669"/><stop offset="1" stop-color="#ffae63" stop-opacity="0"/></radialGradient></defs><g transform="translate(-188.75,-128.75)"><g data-paper-data="{&quot;isPaintingLayer&quot;:true}" fill-rule="nonzero" stroke="none" stroke-linecap="butt" stroke-linejoin="miter" stroke-miterlimit="10" stroke-dasharray="" stroke-dashoffset="0" style="mix-blend-mode: normal"><path d="M224.67434,171.84714c-0.65069,-0.65063 -0.65069,-1.70561 0,-2.3563l15.30618,-15.30612l0.01952,0.01952l0.01953,-0.01952l15.30613,15.30612c0.65068,0.65069 0.65068,1.70567 0,2.3563l-4.31233,4.31238c-0.65068,0.65069 -1.70561,0.65069 -2.35629,0l-7.4789,-7.4789c-0.6507,-0.65063 -1.70562,-0.65063 -2.35631,0l-7.4789,7.4789c-0.65069,0.65069 -1.70561,0.65069 -2.3563,0z" fill="url(#color-1)" stroke-width="1"/><path d="M255.32569,188.15288c0.65068,0.65063 0.65068,1.70561 0,2.3563l-15.30618,15.30612l-0.01953,-0.01952l-0.01952,0.01952l-15.30612,-15.30612c-0.65069,-0.65069 -0.65069,-1.70567 0,-2.3563l4.31232,-4.31238c0.65069,-0.65069 1.70561,-0.65069 2.3563,0l7.4789,7.4789c0.65069,0.65063 1.70561,0.65063 2.35631,0l7.4789,-7.4789c0.65068,-0.65069 1.70561,-0.65069 2.35629,0z" fill="url(#color-2)" stroke-width="1"/><path d="M248.06318,179.99998c0,0.57678 -0.21878,1.15362 -0.65636,1.59124l-5.81561,5.81562c-0.43763,0.43757 -1.01441,0.65635 -1.59119,0.65635c-0.57677,0 -1.15361,-0.21879 -1.59123,-0.65635l-2.90778,-2.90784l-2.90784,-2.90778c-0.43757,-0.43762 -0.65635,-1.01446 -0.65635,-1.59124c0,-0.57678 0.21878,-1.15356 0.65635,-1.59118l5.81562,-5.81562c0.43762,-0.43757 1.01446,-0.65635 1.59123,-0.65635c0.57679,0 1.15357,0.21879 1.59119,0.65635l2.90778,2.90784l2.90784,2.90778c0.43758,0.43763 0.65635,1.0144 0.65635,1.59118z" fill="url(#color-3)" stroke-width="1"/><path d="M188.75,180c0,-28.3046 22.9454,-51.25 51.25,-51.25c28.3046,0 51.25,22.9454 51.25,51.25c0,28.3046 -22.9454,51.25 -51.25,51.25c-28.3046,0 -51.25,-22.9454 -51.25,-51.25z" fill="url(#color-4)" stroke-width="0"/></g></g></svg>