<svg version="1.1" xmlns="http://www.w3.org/2000/svg" xmlns:xlink="http://www.w3.org/1999/xlink" width="53.563" height="6.262" viewBox="0,0,53.563,6.262"><g transform="translate(-213.219,-176.583)"><g data-paper-data="{&quot;isPaintingLayer&quot;:true}" fill="#000000" fill-rule="nonzero" stroke="none" stroke-width="1" stroke-linecap="butt" stroke-linejoin="miter" stroke-miterlimit="10" stroke-dasharray="" stroke-dashoffset="0" style="mix-blend-mode: normal"><g><path/><path d="M214.61,176.583h3.71l1.391,1.342v4.92h-1.855v-1.342h-2.782v1.342h-1.855v-4.92zM217.393,178.372h-1.855l-0.464,0.447v0.895h2.782v-0.895z"/><path d="M220.639,177.925l1.391,-1.342h5.101v1.789h-4.173l-0.232,0.224l0.232,0.223h2.782l1.391,1.342v1.342l-1.391,1.342h-5.101v-1.789h4.174l0.231,-0.224l-0.231,-0.224h-2.783l-1.391,-1.342z"/><path d="M228.059,177.925l1.391,-1.342h5.101v1.789h-4.173l-0.232,0.224l0.232,0.223h2.782l1.391,1.342v1.342l-1.391,1.342h-5.101v-1.789h4.174l0.231,-0.224l-0.231,-0.224h-2.783l-1.391,-1.342z"/><path d="M236.638,176.583h3.711l1.39,1.342v4.92h-1.855v-1.342h-2.782v1.342h-1.855v-4.92zM239.421,178.372h-1.855l-0.464,0.447v0.895h2.782v-0.895z"/><path d="M242.667,177.925l1.392,-1.342h5.101v1.789h-4.174l-0.231,0.224l0.231,0.223h2.783l1.391,1.342v1.342l-1.391,1.342h-5.102v-1.789h4.174l0.231,-0.224l-0.231,-0.224h-2.782l-1.392,-1.342z"/><path d="M250.087,177.925l1.392,-1.342h5.101v1.789h-4.174l-0.231,0.224l0.231,0.223h2.783l1.391,1.342v1.342l-1.391,1.342h-5.102v-1.789h4.174l0.231,-0.224l-0.231,-0.224h-2.782l-1.392,-1.342z"/><path d="M259.361,182.845h-1.854v-6.262h1.854z"/><path d="M262.144,179.713v3.131h-1.854v-6.261h1.392l3.246,3.13v-3.13h1.854v6.262h-1.391z"/><path/></g></g></g></svg>