<?xml version="1.0" encoding="utf-8"?><!-- Generator: Adobe Illustrator 16.0.0, SVG Export Plug-In . SVG Version: 6.00 Build 0)  --><!DOCTYPE svg PUBLIC "-//W3C//DTD SVG 1.1//EN" "http://www.w3.org/Graphics/SVG/1.1/DTD/svg11.dtd"><svg xmlns="http://www.w3.org/2000/svg" xmlns:xlink="http://www.w3.org/1999/xlink" version="1.1" id="Layer_1" x="0px" y="0px" width="64.33201599121094" height="9.515998840332031" viewBox="-28.165998458862305 -0.7579994201660156 64.33201599121094 9.515998840332031" enable-background="new 0 0 8 8" xml:space="preserve">
<g>
	<path fill="#FFFFFF" d="M-19.415,8.197l-1.991-6.548l-2.015,6.548h-1.463l-2.782-8.395h1.523l2.039,6.825l2.027-6.813l1.391-0.012   l2.039,6.825l2.027-6.825h1.463l-2.806,8.395H-19.415z" stroke-width="1"/>
	<path fill="#FFFFFF" d="M-12.751,1.074V3.34h4.102v1.271h-4.102v2.314h4.726v1.271h-6.141v-8.395h5.997v1.271H-12.751z" stroke-width="1"/>
	<path fill="#FFFFFF" d="M-5.108,6.303l-0.803,1.895h-1.475l3.706-8.395h1.451l3.67,8.395H-0.07l-0.804-1.895H-5.108z M-2.997,1.313   L-4.58,5.043h3.167L-2.997,1.313z" stroke-width="1"/>
	<path fill="#FFFFFF" d="M5.908-0.198c2.11,0,3.322,1.043,3.322,2.867c0,1.895-1.212,2.997-3.322,2.997H3.976v2.531H2.561v-8.395   H5.908z M3.976,4.396h1.872c1.295,0,2.027-0.552,2.027-1.691c0-1.103-0.732-1.631-2.027-1.631H3.976V4.396z" stroke-width="1"/>
	<path fill="#FFFFFF" d="M18.84,4c0,2.398-1.942,4.258-4.449,4.258c-2.506,0-4.449-1.859-4.449-4.258   c0-2.411,1.943-4.233,4.449-4.233C16.897-0.233,18.84,1.602,18.84,4z M11.381,4c0,1.666,1.379,2.986,3.021,2.986   c1.644,0,2.986-1.32,2.986-2.986c0-1.667-1.343-2.962-2.986-2.962C12.748,1.038,11.381,2.333,11.381,4z" stroke-width="1"/>
	<path fill="#FFFFFF" d="M26.246,8.197l-4.474-6.02v6.02h-1.415v-8.395h1.391l4.498,6.032v-6.032h1.391v8.395H26.246z" stroke-width="1"/>
	<path fill="#FFFFFF" d="M35.559,0.606l-0.588,1.247c-0.912-0.551-1.823-0.779-2.459-0.779c-0.828,0-1.367,0.312-1.367,0.875   c0,1.835,4.533,0.852,4.521,3.873c0,1.5-1.319,2.424-3.166,2.424c-1.319,0-2.566-0.541-3.43-1.332l0.611-1.223   c0.863,0.791,1.942,1.223,2.842,1.223c0.984,0,1.571-0.371,1.571-1.02c0-1.871-4.533-0.827-4.533-3.813   c0-1.439,1.235-2.339,3.058-2.339C33.711-0.258,34.778,0.09,35.559,0.606z" stroke-width="1"/>
</g>
</svg>