<svg version="1.1" xmlns="http://www.w3.org/2000/svg" xmlns:xlink="http://www.w3.org/1999/xlink" width="48.5" height="15.5" viewBox="0,0,48.5,15.5"><g transform="translate(-215.75,-172.25)"><g data-paper-data="{&quot;isPaintingLayer&quot;:true}" fill="#ffffff" fill-rule="nonzero" stroke="none" stroke-width="1" stroke-linecap="butt" stroke-linejoin="miter" stroke-miterlimit="10" stroke-dasharray="" stroke-dashoffset="0" style="mix-blend-mode: normal"><g><path d="M231.011,177.723l-0.393,0.831c-0.607,-0.368 -1.215,-0.52 -1.639,-0.52c-0.552,0 -0.911,0.208 -0.911,0.584c0,1.223 3.021,0.567 3.014,2.582c0,1 -0.879,1.615 -2.11,1.615c-0.88,0 -1.711,-0.359 -2.287,-0.887l0.408,-0.816c0.575,0.527 1.295,0.816 1.895,0.816c0.655,0 1.048,-0.248 1.048,-0.681c0,-1.247 -3.022,-0.552 -3.022,-2.542c0,-0.96 0.823,-1.56 2.039,-1.56c0.726,0.002 1.437,0.233 1.958,0.578z"/><path d="M234.235,178.034v4.75h-0.943v-4.75h-1.768v-0.847h4.486v0.848h-1.775z"/><path d="M237.061,181.521l-0.536,1.264h-0.983l2.471,-5.598h0.968l2.447,5.598h-1.009l-0.536,-1.264zM238.468,178.194l-1.056,2.487h2.11z"/><path d="M244.7,181.088c-0.08,0.009 -0.168,0.009 -0.256,0.009h-1.328v1.688h-0.943v-5.598h2.271c1.43,0 2.254,0.695 2.254,1.911c0,0.896 -0.416,1.527 -1.16,1.814l1.256,1.872h-1.07zM244.444,180.249c0.863,0 1.357,-0.368 1.357,-1.128c0,-0.735 -0.494,-1.087 -1.357,-1.087h-1.328v2.215z"/><path d="M250.003,178.034v4.75h-0.943v-4.75h-1.766v-0.847h4.484v0.848h-1.775z"/><path d="M253.315,182.319c0,0.313 -0.215,0.536 -0.502,0.536c-0.289,0 -0.504,-0.224 -0.504,-0.536c0,-0.303 0.215,-0.52 0.504,-0.52c0.288,0.001 0.502,0.218 0.502,0.52zM253.101,181h-0.584l-0.145,-2.366v-1.375h0.873v1.375z"/></g><path d="M264.25,172.25v15.5h-48.5v-15.5zM263.75,172.75h-47.5v14.5h47.5z"/></g></g></svg>