<svg version="1.1" xmlns="http://www.w3.org/2000/svg" xmlns:xlink="http://www.w3.org/1999/xlink" width="31.533" height="6.262" viewBox="0,0,31.533,6.262"><g transform="translate(-224.233,-176.583)"><g data-paper-data="{&quot;isPaintingLayer&quot;:true}" fill="#000000" fill-rule="nonzero" stroke="none" stroke-width="1" stroke-linecap="butt" stroke-linejoin="miter" stroke-miterlimit="10" stroke-dasharray="" stroke-dashoffset="0" style="mix-blend-mode: normal"><g><path/><path d="M226.088,180.608v2.237h-1.855v-6.262h1.855v2.236l2.319,-2.236h2.782l-3.246,3.13l3.246,3.131h-2.782z"/><path d="M233.508,182.845h-1.855v-6.262h1.855z"/><path d="M238.609,178.372v4.473h-1.855v-4.473h-2.319v-1.789h6.492v1.789z"/><path d="M246.029,178.372v4.473h-1.855v-4.473h-2.318v-1.789h6.492v1.789z"/><path d="M249.275,179.713v-3.13h1.854v2.236l0.464,0.447h1.855l0.464,-0.447v-2.236h1.854v3.13l-1.391,1.342h-0.928v1.789h-1.855v-1.788h-0.927z"/><path/></g></g></g></svg>