<svg version="1.1" xmlns="http://www.w3.org/2000/svg" xmlns:xlink="http://www.w3.org/1999/xlink" width="121.50855" height="19.28895" viewBox="0,0,121.50855,19.28895"><g transform="translate(-179.31203,-176.75293)"><g data-paper-data="{&quot;isPaintingLayer&quot;:true}" fill="#000000" fill-rule="nonzero" stroke="none" stroke-width="1" stroke-linecap="butt" stroke-linejoin="miter" stroke-miterlimit="10" stroke-dasharray="" stroke-dashoffset="0" style="mix-blend-mode: normal"><path d="M212.63208,179.53613v3.71094h-1.85547v-6.49414h1.85547l1.3916,1.3916l1.3916,-1.3916h1.85547v6.49414h-1.85547v-3.71094l-1.3916,1.3916z"/><path d="M219.59009,176.75293h3.71094l1.3916,1.3916v5.10254h-1.85547v-1.3916h-2.7832v1.3916h-1.85547v-5.10254zM222.37329,178.6084h-1.85547l-0.46387,0.46387v0.92773h2.7832v-0.92773z"/><path d="M232.1145,178.14453v1.85547l-1.3916,1.3916l1.85547,1.85547h-2.7832l-1.85547,-1.85547h-0.46387v1.85547h-1.85547v-6.49414h5.10254zM230.25903,179.07226l-0.46387,-0.46387h-2.31934v0.92773h2.31934z"/><path d="M234.8977,180.92773v2.31934h-1.85547v-6.49414h1.85547v2.31934l2.31934,-2.31934h2.7832l-3.24707,3.24707l3.24707,3.24707h-2.7832z"/><path d="M240.46411,178.14453l1.39111,-1.3916h5.10254v1.85547h-4.1748l-0.23145,0.23145l0.23145,0.23242h2.7832l1.3916,1.3916v1.3916l-1.3916,1.3916h-5.10205v-1.85547h4.17432l0.23242,-0.23242l-0.23242,-0.23145h-2.7832l-1.39111,-1.3916v-1.3916z"/><path d="M249.74097,179.53613v3.71094h-1.85547v-6.49414h1.85547l1.3916,1.3916l1.3916,-1.3916h1.85547v6.49414h-1.85547v-3.71094l-1.3916,1.3916z"/><path d="M256.69897,176.75293h3.71094l1.3916,1.3916v5.10254h-1.85547v-1.3916h-2.7832v1.3916h-1.85547v-5.10254zM259.48218,178.6084h-1.85547l-0.46387,0.46387v0.92773h2.7832v-0.92773z"/><path d="M264.58472,180v3.24707h-1.85547v-6.49414h1.3916l3.24707,3.24707v-3.24707h1.85547v6.49414h-1.3916z"/><text transform="translate(179.40261,193.55001) scale(0.18116,0.19935)" font-size="40" xml:space="preserve" fill="#000000" fill-rule="nonzero" stroke="none" stroke-width="1" stroke-linecap="butt" stroke-linejoin="miter" stroke-miterlimit="10" stroke-dasharray="" stroke-dashoffset="0" font-family="Sans Serif" font-weight="normal" text-anchor="start" style="mix-blend-mode: normal"><tspan x="0" dy="0">Supressed Rifle that leaves no trail </tspan></text></g></g></svg>