<svg version="1.1" xmlns="http://www.w3.org/2000/svg" xmlns:xlink="http://www.w3.org/1999/xlink" width="48.5" height="15.5" viewBox="0,0,48.5,15.5"><g transform="translate(-215.75,-172.25)"><g data-paper-data="{&quot;isPaintingLayer&quot;:true}" fill="#ffffff" fill-rule="nonzero" stroke="none" stroke-width="1" stroke-linecap="butt" stroke-linejoin="miter" stroke-miterlimit="10" stroke-dasharray="" stroke-dashoffset="0" style="mix-blend-mode: normal"><g><path d="M231.504,177.193c1.16,0 1.879,0.527 1.879,1.398c0,0.632 -0.376,1.104 -0.984,1.248c0.752,0.128 1.2,0.663 1.2,1.415c0,0.959 -0.776,1.535 -2.039,1.535h-2.487v-5.596zM230.017,179.512h1.439c0.6,0 0.959,-0.28 0.959,-0.752c0,-0.472 -0.36,-0.728 -0.959,-0.728h-1.439zM230.017,181.95h1.439c0.736,0 1.175,-0.288 1.175,-0.815c0,-0.496 -0.439,-0.792 -1.175,-0.792h-1.439z"/><path d="M235.513,181.526l-0.536,1.264h-0.984l2.471,-5.597h0.968l2.446,5.597h-1.007l-0.536,-1.264zM236.92,178.2l-1.056,2.486h2.111z"/><path d="M245.087,178.032l-0.552,0.688c-0.407,-0.439 -0.991,-0.711 -1.559,-0.711c-1.12,0 -1.999,0.863 -1.999,1.967c0,1.104 0.879,1.975 1.999,1.975c0.56,0 1.135,-0.256 1.559,-0.663l0.56,0.623c-0.567,0.56 -1.375,0.919 -2.166,0.919c-1.64,0 -2.911,-1.238 -2.911,-2.846c0,-1.591 1.288,-2.814 2.942,-2.814c0.792,-0.001 1.583,0.327 2.127,0.862z"/><path d="M247.953,180.319l-0.952,1.047v1.424h-0.943v-5.597h0.943v2.894l2.671,-2.894h1.111l-2.167,2.391l2.311,3.206h-1.135z"/></g><path d="M264.25,172.25v15.5h-48.5v-15.5zM263.75,172.75h-47.5v14.5h47.5z"/></g></g></svg>