<svg version="1.1" xmlns="http://www.w3.org/2000/svg" xmlns:xlink="http://www.w3.org/1999/xlink" width="29.61" height="30.16868" viewBox="0,0,29.61,30.16868"><defs><linearGradient x1="240" y1="164.91566" x2="240" y2="195.08434" gradientUnits="userSpaceOnUse" id="color-1"><stop offset="0" stop-color="#000000"/><stop offset="1" stop-color="#000000" stop-opacity="0"/></linearGradient></defs><g transform="translate(-225.195,-164.91566)"><g data-paper-data="{&quot;isPaintingLayer&quot;:true}" fill-rule="nonzero" stroke="none" stroke-linecap="butt" stroke-linejoin="miter" stroke-miterlimit="10" stroke-dasharray="" stroke-dashoffset="0" style="mix-blend-mode: normal"><path d="M225.195,195.08434v-30.16868h29.61v30.16868z" fill="url(#color-1)" stroke-width="0"/><path d="M243.42102,183.071v1.444h-7v-1.444c-1,-0.342 -2.331,-1.18 -2.331,-3.212c0,-3.236 2.799,-4.788 5.97,-4.788c3.171,0 5.8,1.552 5.8,4.788c0,2.032 -1.44,2.87 -2.439,3.212zM239.25202,180.441c0,-0.803 -0.67,-1.453 -1.496,-1.453c-0.827,0 -1.497,0.65 -1.497,1.453c0,0.802 0.67,1.454 1.497,1.454c0.826,0 1.497,-0.652 1.496,-1.454zM240.62802,182.515c0,-2 -0.627,-2.015 -0.627,-2.015c0,0 -0.627,0.015 -0.627,2.015zM243.74002,180.441c0,-0.803 -0.67,-1.453 -1.496,-1.453c-0.827,0 -1.496,0.65 -1.496,1.453c0,0.802 0.669,1.454 1.496,1.454c0.826,0 1.496,-0.652 1.496,-1.454z" fill="#ffffff" stroke-width="1"/><path d="M233.95602,173.938l-0.705,-0.709c0.51,-0.507 1.103,-0.904 1.762,-1.18l0.386,0.923c-0.539,0.225 -1.024,0.55 -1.443,0.966z" fill="#ffffff" stroke-width="1"/><path d="M232.62602,182.889c0.002,0.587 0.116,1.159 0.341,1.7l-0.924,0.383c-0.275,-0.662 -0.416,-1.362 -0.417,-2.081z" fill="#ffffff" stroke-width="1"/><path d="M231.62502,180.949v-1.941h1v1.941z" fill="#ffffff" stroke-width="1"/><path d="M232.06202,174.983l0.92,0.392c-0.23,0.539 -0.349,1.11 -0.356,1.697l-1,-0.012c0.008,-0.718 0.155,-1.417 0.436,-2.077z" fill="#ffffff" stroke-width="1"/><path d="M237.12502,172.625l-0.029,-1h1.941v1z" fill="#ffffff" stroke-width="1"/><path d="M246.05202,173.947c-0.418,-0.417 -0.902,-0.743 -1.44,-0.971l0.389,-0.921c0.657,0.277 1.249,0.676 1.759,1.185z" fill="#ffffff" stroke-width="1"/><path d="M242.91902,172.625h-1.941v-1h1.897z" fill="#ffffff" stroke-width="1"/><path d="M247.37502,177.086c-0.005,-0.587 -0.123,-1.158 -0.352,-1.698l0.922,-0.389c0.279,0.661 0.424,1.36 0.43,2.078z" fill="#ffffff" stroke-width="1"/><path d="M247.37502,182.902l1,0.006c-0.004,0.719 -0.147,1.419 -0.424,2.08l-0.922,-0.387c0.226,-0.54 0.342,-1.111 0.346,-1.699z" fill="#ffffff" stroke-width="1"/><path d="M246.06202,186.045l0.709,0.705c-0.507,0.509 -1.097,0.91 -1.754,1.19l-0.393,-0.92c0.538,-0.23 1.023,-0.558 1.438,-0.975z" fill="#ffffff" stroke-width="1"/><path d="M247.37502,180.963v-1.941h1v1.941z" fill="#ffffff" stroke-width="1"/><path d="M242.87502,187.375l0.059,1h-2v-1z" fill="#ffffff" stroke-width="1"/><path d="M237.07202,187.374l1.921,0.001v1h-1.868l-0.073,-0.501z" fill="#ffffff" stroke-width="1"/><path d="M233.92902,186.034c0.415,0.418 0.898,0.749 1.435,0.98l-0.395,0.918c-0.656,-0.281 -1.245,-0.683 -1.751,-1.195z" fill="#ffffff" stroke-width="1"/></g></g></svg>