<svg version="1.1" xmlns="http://www.w3.org/2000/svg" xmlns:xlink="http://www.w3.org/1999/xlink" width="43.36" height="6.262" viewBox="0,0,43.36,6.262"><g transform="translate(-218.32,-176.583)"><g data-paper-data="{&quot;isPaintingLayer&quot;:true}" fill="#000000" fill-rule="nonzero" stroke="none" stroke-width="1" stroke-linecap="butt" stroke-linejoin="miter" stroke-miterlimit="10" stroke-dasharray="" stroke-dashoffset="0" style="mix-blend-mode: normal"><g><path/><path d="M220.175,180.608v2.237h-1.855v-6.262h1.855v2.236h2.782v-2.236h1.855v6.262h-1.855v-2.237z"/><path d="M227.131,176.583h3.71l1.391,1.342v4.92h-1.855v-1.342h-2.782v1.342h-1.855v-4.92zM229.914,178.372h-1.855l-0.464,0.447v0.895h2.782v-0.895z"/><path d="M236.406,178.372h-3.246v-1.789h6.492v1.342l-3.246,3.131h3.246v1.789h-6.492v-1.342z"/><path d="M242.435,179.266v3.579h-1.854v-6.262h1.854l1.392,1.342l1.392,-1.342h1.854v6.262h-1.854v-3.579l-1.392,1.342z"/><path d="M249.392,176.583h3.71l1.391,1.342v4.92h-1.854v-1.342h-2.783v1.342h-1.856v-4.92zM252.174,178.372h-1.855l-0.464,0.447v0.895h2.783v-0.895z"/><path d="M259.361,178.372v4.473h-1.855v-4.473h-2.318v-1.789h6.492v1.789z"/><path/></g></g></g></svg>