<svg version="1.1" xmlns="http://www.w3.org/2000/svg" xmlns:xlink="http://www.w3.org/1999/xlink" width="73.42188" height="19.28895" viewBox="0,0,73.42188,19.28895"><g transform="translate(-203.11203,-176.75293)"><g data-paper-data="{&quot;isPaintingLayer&quot;:true}" fill="#000000" fill-rule="nonzero" stroke="none" stroke-width="1" stroke-linecap="butt" stroke-linejoin="miter" stroke-miterlimit="10" stroke-dasharray="" stroke-dashoffset="0" style="mix-blend-mode: normal"><path d="M229.3313,178.14453l1.3916,-1.3916h5.10254v1.85547h-4.1748l-0.23193,0.23242l0.23193,0.23145h2.7832l1.3916,1.3916v1.3916l-1.3916,1.3916h-5.10254v-1.85547h4.1748l0.23193,-0.23145l-0.23193,-0.23242h-2.7832l-1.3916,-1.3916z"/><path d="M238.60864,179.53613v3.71094h-1.85547v-6.49414h1.85547l1.3916,1.3916l1.39111,-1.3916h1.85547v6.49414h-1.85546v-3.71094l-1.39111,1.3916z"/><path d="M244.17456,181.85547v-3.71094l1.3916,-1.3916h3.71094l1.3916,1.3916l-0.92773,0.92773h0.92773v4.1748h-5.10254zM246.03003,179.07227v1.85547l0.46387,0.46387h2.31934v-0.46387h-1.85548v-1.85547h1.85547l-0.46387,-0.46387h-1.85547z"/><text transform="translate(203.20261,193.55001) scale(0.18116,0.19935)" font-size="40" xml:space="preserve" fill="#000000" fill-rule="nonzero" stroke="none" stroke-width="1" stroke-linecap="butt" stroke-linejoin="miter" stroke-miterlimit="10" stroke-dasharray="" stroke-dashoffset="0" font-family="Sans Serif" font-weight="normal" text-anchor="start" style="mix-blend-mode: normal"><tspan x="0" dy="0">Fires a hail of bullets </tspan></text></g></g></svg>