<svg version="1.1" xmlns="http://www.w3.org/2000/svg" xmlns:xlink="http://www.w3.org/1999/xlink" width="9.7" height="4.9"><g transform="translate(-235.2,-177.5)"><g data-paper-data="{&quot;isPaintingLayer&quot;:true}" fill="none" fill-rule="nonzero" stroke="none" stroke-width="1" stroke-linecap="butt" stroke-linejoin="miter" stroke-miterlimit="10" stroke-dasharray="" stroke-dashoffset="0" font-family="none" font-weight="none" font-size="none" text-anchor="none" style="mix-blend-mode: normal"><g data-paper-data="{&quot;origPos&quot;:null}" id="XMLID_4_"><g id="XMLID_11_"><path d="M237.2,180.5v1.7h-1.7v-4.4h4.3v2.7zM237.2,178.8v0.7h0.8v-0.7z" id="XMLID_15_" fill="#ffffff"/><path d="M237.2,182.4h-1.7l-0.3,-0.3v-4.3l0.3,-0.3h4.3l0.2,0.3v2.7l-0.2,0.3h-2.4v1.4zM235.7,181.9h1.2v-1.4l0.3,-0.3h2.4v-2.1h-3.8v3.8zM238,179.7h-0.8l-0.3,-0.2v-0.7l0.3,-0.3h0.8l0.3,0.3v0.7z" id="XMLID_41_" fill="#000000"/></g><g id="XMLID_14_"><path d="M242.8,180.5h-2.6v-1h2.6v-0.7h-2.6v-1h4.3v4.4h-4.3v-1h2.6z" id="XMLID_7_" fill="#ffffff"/><path d="M244.6,182.4h-4.4l-0.2,-0.2v-1l0.3,-0.3h2.4v-0.1h-2.5l-0.2,-0.3v-1l0.3,-0.3h2.4v-0.1h-2.5l-0.2,-0.3v-1l0.3,-0.3h4.3l0.3,0.3v4.4zM240.5,181.9h3.8v-3.8h-3.8v0.5h2.4l0.3,0.3v0.7l-0.4,0.1h-2.3v0.5h2.4l0.3,0.3v0.7l-0.4,0.2h-2.3z" id="XMLID_36_" fill="#000000"/></g></g></g></g></svg>