<svg xmlns="http://www.w3.org/2000/svg" xmlns:xlink="http://www.w3.org/1999/xlink" version="1.1" width="23.94700050354004" height="5.226999759674072" viewBox="0.02599996328353882 0.38700002431869507 23.94700050354004 5.226999759674072">
  <!-- Exported by Scratch - http://scratch.mit.edu/ -->
  <g id="ID0.4794822600670159">
    <path id="ID0.09707194566726685" fill="#FFFFFF" d="M 3.459 5.084 L 3.459 3.345 L 1.234 3.345 L 1.234 5.084 L 0.526 5.084 L 0.526 0.887 L 1.234 0.887 L 1.234 2.71 L 3.459 2.71 L 3.459 0.887 L 4.167 0.887 L 4.167 5.084 L 3.459 5.084 Z " stroke-width="1"/>
    <path id="ID0.4852133500389755" fill="#FFFFFF" d="M 8.841 3.345 C 8.841 4.443 8.152 5.114 7.018 5.114 C 5.885 5.114 5.189 4.443 5.189 3.345 L 5.189 0.887 L 5.897 0.887 L 5.897 3.345 C 5.897 4.053 6.335 4.479 7.024 4.479 C 7.708 4.479 8.133 4.059 8.133 3.345 L 8.133 0.887 L 8.841 0.887 L 8.841 3.345 Z " stroke-width="1"/>
    <path id="ID0.5566039066761732" fill="#FFFFFF" d="M 13.642 5.084 L 13.636 1.948 L 12.31 4.646 L 11.848 4.646 L 10.523 1.948 L 10.523 5.084 L 9.857 5.084 L 9.857 0.887 L 10.697 0.887 L 12.082 3.675 L 13.461 0.887 L 14.295 0.887 L 14.295 5.084 L 13.642 5.084 Z " stroke-width="1"/>
    <path id="ID0.5560496039688587" fill="#FFFFFF" d="M 16.001 4.137 L 15.599 5.084 L 14.86 5.084 L 16.714 0.887 L 17.441 0.887 L 19.275 5.084 L 18.519 5.084 L 18.119 4.137 L 16.001 4.137 Z M 17.056 1.643 L 16.265 3.507 L 17.847 3.507 L 17.056 1.643 Z " stroke-width="1"/>
    <path id="ID0.2974808416329324" fill="#FFFFFF" d="M 22.778 5.084 L 20.542 2.074 L 20.542 5.084 L 19.835 5.084 L 19.835 0.887 L 20.53 0.887 L 22.778 3.904 L 22.778 0.887 L 23.473 0.887 L 23.473 5.084 L 22.778 5.084 Z " stroke-width="1"/>
  </g>
</svg>