<svg version="1.1" xmlns="http://www.w3.org/2000/svg" xmlns:xlink="http://www.w3.org/1999/xlink" width="111.75899" height="24.46897" viewBox="0,0,111.75899,24.46897"><g transform="translate(-184.44434,-168.25146)"><g data-paper-data="{&quot;isPaintingLayer&quot;:true}" fill-rule="nonzero" stroke="none" stroke-linecap="butt" stroke-linejoin="miter" stroke-miterlimit="10" stroke-dasharray="" stroke-dashoffset="0" style="mix-blend-mode: normal"><g fill="#ffffff" stroke-width="1"><path d="M203.64571,184.1004h0.9976c0.2588,0 0.4878,0.0518 0.686,0.1562c0.1982,0.1035 0.3521,0.248 0.4619,0.4336c0.1098,0.1856 0.1646,0.3975 0.1646,0.6357c0,0.2373 -0.0547,0.4492 -0.1646,0.6348c-0.1099,0.1856 -0.2637,0.3301 -0.4619,0.4346c-0.1982,0.1035 -0.4272,0.1553 -0.686,0.1553h-0.9976zM204.62911,186.327c0.2148,0 0.4028,-0.043 0.5635,-0.1279c0.1611,-0.085 0.2861,-0.2031 0.3745,-0.3535c0.0889,-0.1504 0.1333,-0.3242 0.1333,-0.5195c0,-0.1963 -0.0444,-0.3701 -0.1333,-0.5205c-0.0884,-0.1504 -0.2134,-0.2676 -0.3745,-0.3535c-0.1606,-0.085 -0.3486,-0.127 -0.5635,-0.127h-0.7241v2.002h0.7241z"/><path d="M208.26921,186.327v0.2236h-1.7324v-2.4502h1.6802v0.2246h-1.4209v0.8711h1.2666v0.2207h-1.2666v0.9102z"/><path d="M209.13741,184.325v0.9619h1.2666v0.2246h-1.2666v1.0391h-0.2593v-2.4502h1.6802v0.2246z"/><path d="M212.8259,186.327v0.2236h-1.7324v-2.4502h1.6802v0.2246h-1.421v0.8711h1.2666v0.2207h-1.2666v0.9102z"/><path d="M214.97191,185.8963h-1.3652l-0.2939,0.6543h-0.2696l1.1201,-2.4502h0.2554l1.1201,2.4502h-0.2729zM214.87711,185.6863l-0.5879,-1.3164l-0.5879,1.3164z"/><path d="M216.29801,184.325h-0.8608v-0.2246h1.981v0.2246h-0.8613v2.2256h-0.2589z"/><path d="M220.51581,186.327v0.2236h-2.0088v-0.1787l1.624,-2.0469h-1.5996v-0.2246h1.9424v0.1787l-1.6206,2.0479z"/><path d="M221.40601,186.409c-0.1968,-0.1084 -0.3511,-0.2578 -0.4619,-0.4463c-0.1108,-0.1895 -0.166,-0.4014 -0.166,-0.6367c0,-0.2363 0.0552,-0.4482 0.166,-0.6377c0.1108,-0.1885 0.2651,-0.3379 0.4619,-0.4463c0.1973,-0.1084 0.4175,-0.1621 0.6602,-0.1621c0.2427,0 0.4614,0.0537 0.6562,0.1611c0.1948,0.1064 0.3481,0.2559 0.46,0.4463c0.1123,0.1895 0.168,0.4023 0.168,0.6387c0,0.2354 -0.0557,0.4482 -0.168,0.6387c-0.1118,0.1895 -0.2651,0.3389 -0.46,0.4463c-0.1949,0.1074 -0.4136,0.1611 -0.6562,0.1611c-0.2426,0 -0.463,-0.0547 -0.6602,-0.1631zM222.59101,186.2098c0.1562,-0.0879 0.2788,-0.209 0.3672,-0.3643c0.0889,-0.1553 0.1333,-0.3281 0.1333,-0.5195c0,-0.1914 -0.0444,-0.3652 -0.1333,-0.5205c-0.0884,-0.1543 -0.2109,-0.2764 -0.3672,-0.3633c-0.1562,-0.0879 -0.3315,-0.1318 -0.5249,-0.1318c-0.1938,0 -0.3696,0.0439 -0.5269,0.1318c-0.1577,0.0869 -0.2812,0.209 -0.3711,0.3633c-0.0898,0.1553 -0.1348,0.3291 -0.1348,0.5205c0,0.1914 0.0449,0.3643 0.1348,0.5195c0.0899,0.1552 0.2134,0.2764 0.3711,0.3643c0.1572,0.0869 0.333,0.1309 0.5269,0.1309c0.1934,-0.0001 0.3687,-0.044 0.5249,-0.1309z"/><path d="M226.4758,184.1004v2.4502h-0.2485v-1.96l-0.9624,1.6484h-0.1226l-0.9624,-1.6377v1.9492h-0.2485v-2.4502h0.2134l1.064,1.8164l1.0537,-1.8164h0.2133z"/><path d="M229.1906,185.4949c0.0874,0.1045 0.1309,0.2383 0.1309,0.4014c0,0.21 -0.0771,0.3711 -0.2324,0.4844c-0.1553,0.1133 -0.3848,0.1699 -0.688,0.1699h-1.127v-2.4502h1.0571c0.2729,0 0.4849,0.0547 0.6353,0.165c0.1504,0.1094 0.2256,0.2646 0.2256,0.4648c0,0.1357 -0.0332,0.251 -0.0996,0.3447c-0.0664,0.0947 -0.1582,0.165 -0.2749,0.2119c0.1611,0.0353 0.2851,0.1046 0.373,0.2081zM227.53341,184.3143v0.8887h0.7803c0.1982,0 0.3511,-0.0381 0.4585,-0.1133c0.1074,-0.0762 0.1611,-0.1865 0.1611,-0.3311c0,-0.1446 -0.0537,-0.2549 -0.1611,-0.3311c-0.1074,-0.0752 -0.2603,-0.1133 -0.4585,-0.1133h-0.7803zM228.89471,186.2254c0.1118,-0.0752 0.168,-0.1914 0.168,-0.3506c0,-0.3057 -0.2217,-0.458 -0.665,-0.458h-0.8643v0.9199h0.8643c0.2192,0 0.3852,-0.0371 0.497,-0.1113z"/><path d="M229.91281,184.1004h0.2593v2.4502h-0.2593z"/><path d="M232.70231,186.327v0.2236h-1.7324v-2.4502h1.6802v0.2246h-1.4209v0.8711h1.2666v0.2207h-1.2666v0.9102z"/><path d="M233.46361,186.4842c-0.167,-0.0586 -0.2959,-0.1357 -0.3867,-0.2314l0.1016,-0.1992c0.0884,0.0889 0.2065,0.1602 0.3535,0.2148c0.147,0.0557 0.2983,0.083 0.4551,0.083c0.2192,0 0.3838,-0.041 0.4932,-0.1211c0.1099,-0.0801 0.1646,-0.1846 0.1646,-0.3135c0,-0.0977 -0.0298,-0.1758 -0.0894,-0.2344c-0.0591,-0.0586 -0.1323,-0.1035 -0.2188,-0.1348c-0.0859,-0.0312 -0.2065,-0.0654 -0.3604,-0.1035c-0.1841,-0.0459 -0.3315,-0.0908 -0.4409,-0.1348c-0.1099,-0.043 -0.2036,-0.1084 -0.2817,-0.1973c-0.0781,-0.0889 -0.1172,-0.209 -0.1172,-0.3604c0,-0.124 0.0327,-0.2363 0.0977,-0.3379c0.0654,-0.1016 0.166,-0.1826 0.3013,-0.2432c0.1353,-0.0606 0.3032,-0.0908 0.5039,-0.0908c0.1401,0 0.2769,0.0186 0.4111,0.0576c0.1343,0.0381 0.2505,0.0918 0.3486,0.1592l-0.0879,0.2061c-0.1025,-0.0674 -0.2124,-0.1182 -0.3286,-0.1523c-0.1167,-0.0332 -0.2314,-0.0508 -0.3433,-0.0508c-0.2148,0 -0.376,0.042 -0.4849,0.125c-0.1084,0.083 -0.1626,0.1895 -0.1626,0.3203c0,0.0977 0.0298,0.1768 0.0894,0.2363c0.0596,0.0595 0.1343,0.1045 0.2241,0.1357c0.0894,0.0322 0.2104,0.0664 0.3618,0.1035c0.1797,0.0439 0.3252,0.0879 0.436,0.1309c0.1108,0.0439 0.2046,0.1094 0.2817,0.1963c0.0771,0.0879 0.1152,0.2061 0.1152,0.3555c0,0.124 -0.0332,0.2363 -0.0996,0.3379c-0.0664,0.1016 -0.1685,0.1816 -0.3062,0.2412c-0.1377,0.0596 -0.3066,0.0898 -0.5073,0.0898c-0.182,0.0002 -0.3563,-0.0291 -0.5233,-0.0877z"/><path d="M236.3815,184.1004h0.2588v2.4502h-0.2588z"/><path d="M239.4851,184.1004v2.4502h-0.2129l-1.5752,-1.9883v1.9883h-0.2588v-2.4502h0.2129l1.5791,1.9883v-1.9883z"/><path d="M241.20141,184.1004h0.9971c0.2588,0 0.4873,0.0518 0.6855,0.1562c0.1992,0.1035 0.3525,0.248 0.4629,0.4336c0.1094,0.1855 0.1641,0.3975 0.1641,0.6357c0,0.2373 -0.0547,0.4492 -0.1641,0.6348c-0.1104,0.1855 -0.2637,0.3301 -0.4629,0.4346c-0.1982,0.1035 -0.4268,0.1553 -0.6855,0.1553h-0.9971zM242.18481,186.327c0.2139,0 0.4023,-0.043 0.5635,-0.1279c0.1612,-0.0849 0.2852,-0.2031 0.374,-0.3535c0.0888,-0.1504 0.1328,-0.3242 0.1328,-0.5195c0,-0.1963 -0.0439,-0.3701 -0.1328,-0.5205c-0.0889,-0.1504 -0.2129,-0.2676 -0.374,-0.3535c-0.1611,-0.085 -0.3496,-0.127 -0.5635,-0.127h-0.7246v2.002h0.7246z"/><path d="M244.09201,184.1004h0.2588v2.4502h-0.2588z"/><path d="M245.40741,184.325v0.9619h1.2666v0.2246h-1.2666v1.0391h-0.2588v-2.4502h1.6797v0.2246z"/><path d="M247.62321,184.325v0.9619h1.2666v0.2246h-1.2666v1.0391h-0.2588v-2.4502h1.6797v0.2246z"/><path d="M251.31271,186.327v0.2236h-1.7324v-2.4502h1.6797v0.2246h-1.4209v0.8711h1.2666v0.2207h-1.2666v0.9102z"/><path d="M253.5939,186.5506l-0.5605,-0.7871c-0.0625,0.0068 -0.1279,0.0098 -0.1953,0.0098h-0.6582v0.7773h-0.2588v-2.4502h0.917c0.3125,0 0.5576,0.0752 0.7344,0.2246c0.1777,0.1494 0.2666,0.3545 0.2666,0.6152c0,0.1914 -0.0488,0.3535 -0.1455,0.4854c-0.0967,0.1319 -0.2354,0.2266 -0.415,0.2852l0.5986,0.8398zM253.38691,185.3924c0.1289,-0.1074 0.1924,-0.2578 0.1924,-0.4521c0,-0.1982 -0.0635,-0.3506 -0.1924,-0.4561c-0.1279,-0.1064 -0.3135,-0.1592 -0.5566,-0.1592h-0.6504v1.2285h0.6504c0.2431,0 0.4287,-0.0537 0.5566,-0.1611z"/><path d="M256.18481,186.327v0.2236h-1.7324v-2.4502h1.6797v0.2246h-1.4209v0.8711h1.2666v0.2207h-1.2666v0.9102z"/><path d="M258.84,184.1004v2.4502h-0.2129l-1.5752,-1.9883v1.9883h-0.2588v-2.4502h0.2129l1.5791,1.9883v-1.9883z"/><path d="M260.11451,184.325h-0.8613v-0.2246h1.9814v0.2246h-0.8613v2.2256h-0.2588z"/><path d="M262.71601,186.4842c-0.166,-0.0586 -0.2949,-0.1357 -0.3867,-0.2314l0.1016,-0.1992c0.0889,0.0889 0.207,0.1602 0.3535,0.2148c0.1475,0.0557 0.2988,0.083 0.4551,0.083c0.2197,0 0.3838,-0.041 0.4941,-0.1211c0.1094,-0.0801 0.1641,-0.1846 0.1641,-0.3135c0,-0.0977 -0.0293,-0.1758 -0.0889,-0.2344c-0.0596,-0.0586 -0.1328,-0.1035 -0.2188,-0.1348c-0.0869,-0.0312 -0.207,-0.0654 -0.3604,-0.1035c-0.1846,-0.0459 -0.332,-0.0908 -0.4414,-0.1348c-0.1094,-0.043 -0.2041,-0.1084 -0.2822,-0.1973c-0.0781,-0.0889 -0.1172,-0.209 -0.1172,-0.3604c0,-0.124 0.0332,-0.2363 0.0986,-0.3379c0.0654,-0.1016 0.165,-0.1826 0.3008,-0.2432c0.1348,-0.0605 0.3037,-0.0908 0.5039,-0.0908c0.1396,0 0.2773,0.0186 0.4111,0.0576c0.1348,0.0381 0.25,0.0918 0.3486,0.1592l-0.0879,0.2061c-0.1025,-0.0674 -0.2119,-0.1182 -0.3291,-0.1523c-0.1162,-0.0332 -0.2305,-0.0508 -0.3428,-0.0508c-0.2148,0 -0.376,0.042 -0.4844,0.125c-0.1084,0.083 -0.1631,0.1895 -0.1631,0.3203c0,0.0977 0.0293,0.1768 0.0889,0.2363c0.0596,0.0595 0.1348,0.1045 0.2246,0.1357c0.0898,0.0322 0.21,0.0664 0.3623,0.1035c0.1797,0.0439 0.3242,0.0879 0.4355,0.1309c0.1104,0.0439 0.2051,0.1094 0.2812,0.1963c0.0771,0.0879 0.1162,0.2061 0.1162,0.3555c0,0.124 -0.0332,0.2363 -0.0996,0.3379c-0.0674,0.1016 -0.1689,0.1816 -0.3066,0.2412c-0.1377,0.0596 -0.3066,0.0898 -0.5078,0.0898c-0.1814,0.0002 -0.3562,-0.0291 -0.5232,-0.0877z"/><path d="M265.15741,184.325h-0.8613v-0.2246h1.9814v0.2246h-0.8613v2.2256h-0.2588z"/><path d="M268.1047,185.8963h-1.3652l-0.2939,0.6543h-0.2696l1.1201,-2.4502h0.2559l1.1201,2.4502h-0.2734zM268.01,185.6863l-0.5879,-1.3164l-0.5879,1.3164z"/><path d="M270.76781,185.326h0.249v0.9346c-0.1143,0.0996 -0.25,0.1768 -0.4062,0.2305c-0.1562,0.0537 -0.3203,0.0811 -0.4932,0.0811c-0.2451,0 -0.4658,-0.0537 -0.6621,-0.1611c-0.1953,-0.1074 -0.3496,-0.2568 -0.4619,-0.4463c-0.1113,-0.1904 -0.168,-0.4033 -0.168,-0.6387c0,-0.2363 0.0566,-0.4492 0.168,-0.6387c0.1123,-0.1904 0.2666,-0.3398 0.4619,-0.4463c0.1963,-0.1074 0.418,-0.1611 0.665,-0.1611c0.1875,0 0.3584,0.0293 0.5146,0.0889c0.1562,0.0596 0.2881,0.1475 0.3955,0.2646l-0.1611,0.1641c-0.1934,-0.1914 -0.4395,-0.2871 -0.7383,-0.2871c-0.1982,0 -0.377,0.0439 -0.5371,0.1318c-0.1602,0.0869 -0.2852,0.209 -0.376,0.3633c-0.0908,0.1553 -0.1367,0.3291 -0.1367,0.5205c0,0.1914 0.0459,0.3633 0.1367,0.5176c0.0908,0.1543 0.2158,0.2754 0.374,0.3643c0.1592,0.0889 0.3379,0.1328 0.5361,0.1328c0.252,0 0.4648,-0.0635 0.6396,-0.1895v-0.8253z"/><path d="M273.48161,186.327v0.2236h-1.7324v-2.4502h1.6797v0.2246h-1.4209v0.8711h1.2666v0.2207h-1.2666v0.9102z"/><path d="M274.24141,186.4842c-0.166,-0.0586 -0.2949,-0.1357 -0.3867,-0.2314l0.1016,-0.1992c0.0889,0.0889 0.207,0.1602 0.3535,0.2148c0.1475,0.0557 0.2988,0.083 0.4551,0.083c0.2197,0 0.3838,-0.041 0.4941,-0.1211c0.1094,-0.0801 0.1641,-0.1846 0.1641,-0.3135c0,-0.0977 -0.0293,-0.1758 -0.0889,-0.2344c-0.0596,-0.0586 -0.1328,-0.1035 -0.2188,-0.1348c-0.0869,-0.0312 -0.207,-0.0654 -0.3604,-0.1035c-0.1846,-0.0459 -0.332,-0.0908 -0.4414,-0.1348c-0.1094,-0.043 -0.2041,-0.1084 -0.2822,-0.1973c-0.0781,-0.0889 -0.1172,-0.209 -0.1172,-0.3604c0,-0.124 0.0332,-0.2363 0.0986,-0.3379c0.0654,-0.1016 0.165,-0.1826 0.3008,-0.2432c0.1348,-0.0605 0.3037,-0.0908 0.5039,-0.0908c0.1396,0 0.2773,0.0186 0.4111,0.0576c0.1348,0.0381 0.25,0.0918 0.3486,0.1592l-0.0879,0.2061c-0.1025,-0.0674 -0.2119,-0.1182 -0.3291,-0.1523c-0.1162,-0.0332 -0.2305,-0.0508 -0.3428,-0.0508c-0.2148,0 -0.376,0.042 -0.4844,0.125c-0.1084,0.083 -0.1631,0.1895 -0.1631,0.3203c0,0.0977 0.0293,0.1768 0.0889,0.2363c0.0596,0.0595 0.1348,0.1045 0.2246,0.1357c0.0898,0.0322 0.21,0.0664 0.3623,0.1035c0.1797,0.0439 0.3242,0.0879 0.4355,0.1309c0.1104,0.0439 0.2051,0.1094 0.2812,0.1963c0.0771,0.0879 0.1162,0.2061 0.1162,0.3555c0,0.124 -0.0332,0.2363 -0.0996,0.3379c-0.0674,0.1016 -0.1689,0.1816 -0.3066,0.2412c-0.1377,0.0596 -0.3066,0.0898 -0.5078,0.0898c-0.1814,0.0002 -0.3562,-0.0291 -0.5232,-0.0877z"/><path d="M276.1672,186.5135c-0.0371,-0.0361 -0.0547,-0.0781 -0.0547,-0.127c0,-0.0518 0.0176,-0.0947 0.0527,-0.1279c0.0352,-0.0342 0.0791,-0.0508 0.1328,-0.0508c0.0508,0 0.0947,0.0166 0.1299,0.0508c0.0342,0.0332 0.0518,0.0762 0.0518,0.1279c0,0.0488 -0.0176,0.0908 -0.0518,0.127c-0.0352,0.0361 -0.0791,0.0547 -0.1299,0.0547c-0.0517,0 -0.0947,-0.0186 -0.1308,-0.0547zM276.15061,184.1004h0.2939l-0.0518,1.7148h-0.1924z"/></g><path d="M201.74364,191.04727v-22.78262h79.27826v22.78262z" fill="none" stroke-width="0"/><g fill="#ffdb00" stroke-width="1"><path d="M209.385,173.4554h3.7109l1.3916,1.3916v5.1025h-1.8555v-1.3916h-2.7832v1.3916h-1.8554v-5.1025zM212.16821,175.3108h-1.8555l-0.4639,0.4639v0.9277h2.7832v-0.9277z"/><path d="M215.41521,173.4554h5.1025l1.3916,1.3916v3.7109l-1.3916,1.3916h-5.1025zM217.27071,175.3108v2.7832h2.3193l0.4639,-0.4639v-1.8554l-0.4639,-0.4639z"/><path d="M227.4758,176.2386v-2.7832h1.8555v3.7109l-2.7833,2.7832h-0.9277l-2.7832,-2.7832v-3.7109h1.8555v2.7832l1.3916,1.3916z"/><path d="M232.11491,178.094h3.7109v1.8555h-5.5668v-6.4941h5.5669v1.8555h-3.7109v0.4639h3.7109v1.8555h-3.7109v0.4637z"/><path d="M238.60811,176.7024v3.2471h-1.8555v-6.4941h1.3916l3.2476,3.2471v-3.2471h1.8555v6.4941h-1.3916z"/><path d="M248.3498,175.3108v4.6387h-1.8555v-4.6387h-2.3193v-1.8554h6.4941v1.8555h-2.3193z"/><path d="M251.59691,178.5579v-5.1025h1.8555v4.1748l0.4639,0.4639h1.8555l0.4639,-0.4639v-4.1748h1.8555v5.1025l-1.3916,1.3916h-3.7109z"/><path d="M265.51291,174.847v1.8555l-1.3916,1.3915l1.8555,1.8555h-2.7832l-1.8555,-1.8555h-0.4639v1.8555h-1.8555v-6.4941h5.1025zM263.65741,175.7747l-0.4639,-0.4639h-2.3193v0.9277h2.3193z"/><path d="M268.29611,178.094h3.7109v1.8555h-5.5664v-6.4941h5.5664v1.8555h-3.7109v0.4639h3.7109v1.8555h-3.7109z"/></g><path d="M184.44435,192.72043v-24.46897h111.75899v24.46897z" fill="none" stroke-width="0"/></g></g></svg>