<svg version="1.1" xmlns="http://www.w3.org/2000/svg" xmlns:xlink="http://www.w3.org/1999/xlink" width="157.49688" height="14.53887" viewBox="0,0,157.49688,14.53887"><defs><linearGradient x1="240.00156" y1="179.98611" x2="318.74844" y2="179.98611" gradientUnits="userSpaceOnUse" id="color-1"><stop offset="0" stop-color="#000000"/><stop offset="1" stop-color="#000000" stop-opacity="0"/></linearGradient><linearGradient x1="239.99844" y1="180.01389" x2="161.25156" y2="180.01389" gradientUnits="userSpaceOnUse" id="color-2"><stop offset="0" stop-color="#000000"/><stop offset="1" stop-color="#000000" stop-opacity="0"/></linearGradient></defs><g transform="translate(-161.25156,-172.73056)"><g data-paper-data="{&quot;isPaintingLayer&quot;:true}" fill-rule="nonzero" stroke="none" stroke-linecap="butt" stroke-linejoin="miter" stroke-miterlimit="10" stroke-dasharray="" stroke-dashoffset="0" style="mix-blend-mode: normal"><g stroke-width="0"><path d="M240.00156,187.24166v-14.51109h78.74688v14.51109z" fill="url(#color-1)"/><path d="M161.25156,187.26944v-14.51109h78.74688v14.51109z" data-paper-data="{&quot;index&quot;:null}" fill="url(#color-2)"/></g><path d="M221.25,176.85v6.3h-1.2l-3.1,-3.8v3.8h-1.4v-6.3h1.2l3.1,3.8v-3.8z" fill="#ffffff" stroke-width="1"/><path d="M227.35,181.05h-3.6c0.1,0.3 0.2,0.5 0.5,0.7c0.2,0.2 0.5,0.3 0.9,0.3c0.3,0 0.5,0 0.7,-0.1c0.2,-0.1 0.4,-0.2 0.5,-0.4l0.7,0.8c-0.5,0.5 -1.1,0.8 -2,0.8c-0.5,0 -1,-0.1 -1.4,-0.3c-0.4,-0.2 -0.7,-0.5 -1,-0.9c-0.2,-0.4 -0.3,-0.8 -0.3,-1.3c0,-0.5 0.1,-0.9 0.3,-1.3c0.2,-0.4 0.5,-0.7 0.9,-0.9c0.4,-0.2 0.8,-0.3 1.3,-0.3c0.5,0 0.9,0.1 1.3,0.3c0.4,0.2 0.7,0.5 0.9,0.9c0.2,0.4 0.3,0.8 0.3,1.3c0,0.1 0,0.2 0,0.4zM224.05,179.55c-0.2,0.2 -0.3,0.4 -0.4,0.7h2.4c0,-0.3 -0.2,-0.5 -0.4,-0.7c-0.2,-0.2 -0.5,-0.3 -0.8,-0.3c-0.3,0 -0.6,0.1 -0.8,0.3z" fill="#ffffff" stroke-width="1"/><path d="M235.95,178.25l-1.7,4.8h-1.3l-1.1,-3l-1.1,3h-1.3l-1.7,-4.8h1.3l1.1,3.3l1.2,-3.3h1.2l1.1,3.3l1.2,-3.3z" fill="#ffffff" stroke-width="1"/><path d="M248.75,176.85l-2.1,6.3h-1.6l-1.3,-4.3l-1.4,4.3h-1.6l-2.1,-6.3h1.5l1.4,4.4l1.5,-4.4h1.3l1.4,4.4l1.5,-4.4z" fill="#ffffff" stroke-width="1"/><path d="M252.75,178.75c0.4,0.4 0.6,0.9 0.6,1.6v2.8h-1.3v-0.6c-0.3,0.4 -0.8,0.6 -1.5,0.6c-0.4,0 -0.7,-0.1 -1,-0.2c-0.3,-0.1 -0.5,-0.3 -0.6,-0.5c-0.1,-0.2 -0.2,-0.5 -0.2,-0.8c0,-0.4 0.2,-0.8 0.5,-1.1c0.3,-0.3 0.9,-0.4 1.6,-0.4h1.1c0,-0.3 -0.1,-0.5 -0.3,-0.7c-0.2,-0.2 -0.5,-0.2 -0.8,-0.2c-0.3,0 -0.5,0 -0.8,0.1c-0.2,0.1 -0.5,0.2 -0.6,0.3l-0.5,-1c0.3,-0.2 0.6,-0.3 0.9,-0.4c0.4,-0.1 0.7,-0.2 1.1,-0.2c0.8,0.1 1.4,0.3 1.8,0.7zM251.55,182.05c0.2,-0.1 0.3,-0.3 0.4,-0.5v-0.5h-1c-0.6,0 -0.9,0.2 -0.9,0.6c0,0.2 0.1,0.3 0.2,0.4c0.1,0.1 0.3,0.2 0.6,0.2c0.3,0 0.5,-0.1 0.7,-0.2z" fill="#ffffff" stroke-width="1"/><path d="M259.35,178.25l-2,4.8h-1.4l-2,-4.8h1.4l1.3,3.3l1.4,-3.3z" fill="#ffffff" stroke-width="1"/><path d="M264.45,181.05h-3.7c0.1,0.3 0.2,0.5 0.5,0.7c0.2,0.2 0.5,0.3 0.9,0.3c0.3,0 0.5,0 0.7,-0.1c0.2,-0.1 0.4,-0.2 0.5,-0.4l0.7,0.8c-0.5,0.5 -1.1,0.8 -2,0.8c-0.5,0 -1,-0.1 -1.4,-0.3c-0.4,-0.2 -0.7,-0.5 -1,-0.9c-0.2,-0.4 -0.3,-0.8 -0.3,-1.3c0,-0.5 0.1,-0.9 0.3,-1.3c0.2,-0.4 0.5,-0.7 0.9,-0.9c0.4,-0.2 0.8,-0.3 1.3,-0.3c0.5,0 0.9,0.1 1.3,0.3c0.4,0.2 0.7,0.5 0.9,0.9c0.2,0.4 0.3,0.8 0.3,1.3c0.1,0.1 0.1,0.2 0.1,0.4zM261.15,179.55c-0.2,0.2 -0.3,0.4 -0.4,0.7h2.4c0,-0.3 -0.2,-0.5 -0.4,-0.7c-0.2,-0.2 -0.5,-0.3 -0.8,-0.3c-0.3,0 -0.6,0.1 -0.8,0.3z" fill="#ffffff" stroke-width="1"/></g></g></svg>