<svg version="1.1" xmlns="http://www.w3.org/2000/svg" xmlns:xlink="http://www.w3.org/1999/xlink" width="40.5" height="6.6" viewBox="0,0,40.5,6.6"><g transform="translate(-219.75,-176.85)"><g data-paper-data="{&quot;isPaintingLayer&quot;:true}" fill="#000000" fill-rule="nonzero" stroke="none" stroke-width="1" stroke-linecap="butt" stroke-linejoin="miter" stroke-miterlimit="10" stroke-dasharray="" stroke-dashoffset="0" style="mix-blend-mode: normal"><path d="M219.75,176.95h1.8v4.5h3.6v1.8h-5.4z"/><path d="M225.85,181.85v-3.6l1.4,-1.4h3.6l1.4,1.4v3.6l-1.4,1.4h-3.6zM227.65,179.15v1.8l0.5,0.5h1.8l0.5,-0.5v-1.8l-0.5,-0.4h-1.8z"/><path d="M238.05,176.95l1.4,1.4l-1.4,1.4l-0.9,-1h-1.8l-0.5,0.5v1.8l0.5,0.5h1.8l0.9,-0.9l1.4,1.4l-1.4,1.4h-3.6l-1.4,-1.4v-3.6l1.4,-1.4h3.6z"/><path d="M242.15,180.95v2.3h-1.8v-6.3h1.8v2.3l2.3,-2.3h2.7l-3.2,3.2l3.2,3.2h-2.7z"/><path d="M249.35,181.45h3.6v1.8h-5.4v-6.3h5.4v1.8h-3.6v0.5h3.6v1.8h-3.6z"/><path d="M253.85,176.95h5l1.4,1.4v3.6l-1.4,1.4h-5zM255.65,178.75v2.7h2.3l0.5,-0.5v-1.8l-0.5,-0.4z"/></g></g></svg>