<svg version="1.1" xmlns="http://www.w3.org/2000/svg" xmlns:xlink="http://www.w3.org/1999/xlink" width="83.23396" height="19.28895" viewBox="0,0,83.23396,19.28895"><g transform="translate(-198.71203,-176.75293)"><g data-paper-data="{&quot;isPaintingLayer&quot;:true}" fill="#000000" fill-rule="nonzero" stroke="none" stroke-width="1" stroke-linecap="butt" stroke-linejoin="miter" stroke-miterlimit="10" stroke-dasharray="" stroke-dashoffset="0" style="mix-blend-mode: normal"><path d="M217.15674,176.75293h3.71094l1.3916,1.3916v5.10254h-1.85547v-1.3916h-2.7832v1.3916h-1.85547v-5.10254zM219.93994,178.6084h-1.85547l-0.46387,0.46387v0.92773h2.7832v-0.92773z"/><path d="M223.18702,178.14453l1.3916,-1.3916h5.10254v1.85547h-4.1748l-0.23193,0.23242l0.23193,0.23145h2.7832l1.3916,1.3916v1.3916l-1.3916,1.3916h-5.10254v-1.85547h4.1748l0.23193,-0.23145l-0.23193,-0.23242h-2.7832l-1.3916,-1.3916z"/><path d="M230.60889,178.14453l1.3916,-1.3916h5.10254v1.85547h-4.1748l-0.23193,0.23242l0.23193,0.23145h2.7832l1.3916,1.3916v1.3916l-1.3916,1.3916h-5.10254v-1.85547h4.1748l0.23193,-0.23145l-0.23193,-0.23242h-2.7832l-1.3916,-1.3916z"/><path d="M239.19043,176.75293h3.71143l1.3916,1.3916v5.10254h-1.85547v-1.3916h-2.78369v1.3916h-1.85547v-5.10254zM241.97412,178.6084h-1.85596l-0.46387,0.46387v0.92773h2.78369v-0.92773z"/><path d="M245.2212,181.85547v-5.10254h1.85547v4.1748l0.46387,0.46387h1.85547l0.46387,-0.46387v-4.1748h1.85547v5.10254l-1.3916,1.3916h-3.71094z"/><path d="M252.64307,176.75293h1.85547v4.63867h3.71094v1.85547h-5.56641z"/><path d="M261.91553,178.6084v4.63867h-1.85547v-4.63867h-2.31934v-1.85547h6.49414v1.85547z"/><text transform="translate(198.80262,193.55001) scale(0.18116,0.19935)" font-size="40" xml:space="preserve" fill="#000000" fill-rule="nonzero" stroke="none" stroke-width="1" stroke-linecap="butt" stroke-linejoin="miter" stroke-miterlimit="10" stroke-dasharray="" stroke-dashoffset="0" font-family="Sans Serif" font-weight="normal" text-anchor="start" style="mix-blend-mode: normal"><tspan x="0" dy="0">Balanced, sustained fire</tspan></text></g></g></svg>