<svg version="1.1" xmlns="http://www.w3.org/2000/svg" xmlns:xlink="http://www.w3.org/1999/xlink" width="43.127" height="6.262" viewBox="0,0,43.127,6.262"><g transform="translate(-218.668,-176.583)"><g data-paper-data="{&quot;isPaintingLayer&quot;:true}" fill="#000000" fill-rule="nonzero" stroke="none" stroke-width="1" stroke-linecap="butt" stroke-linejoin="miter" stroke-miterlimit="10" stroke-dasharray="" stroke-dashoffset="0" style="mix-blend-mode: normal"><g><path/><path d="M218.668,176.583h5.101l1.391,1.342v3.578l-1.39,1.342h-5.101v-6.262zM220.523,178.372v2.684h2.319l0.463,-0.448v-1.789l-0.463,-0.447z"/><path d="M227.479,176.583h3.71l1.391,1.342v4.92h-1.855v-1.342h-2.782v1.342h-1.855v-4.92zM230.262,178.372h-1.855l-0.464,0.447v0.895h2.782v-0.895z"/><path d="M235.363,179.713v3.131h-1.855v-6.261h1.391l3.246,3.13v-3.13h1.855v6.262h-1.391z"/><path d="M246.029,176.583l1.391,1.342l-1.391,1.341l-0.928,-0.894h-1.855l-0.464,0.447v1.789l0.464,0.448h1.855l0.928,-0.895l1.391,1.342l-1.391,1.342h-3.71l-1.391,-1.342v-3.578l1.391,-1.342z"/><path d="M250.202,181.056h3.71v1.789h-5.564v-6.262h5.564v1.789h-3.71v0.447h3.71v1.789h-3.71z"/><path d="M261.332,177.925v1.789l-1.391,1.342l1.854,1.789h-2.782l-1.855,-1.789h-0.464v1.789h-1.854v-6.262h5.102zM259.478,178.819l-0.464,-0.447h-2.319v0.894h2.319z"/><path/></g></g></g></svg>