<svg version="1.1" xmlns="http://www.w3.org/2000/svg" xmlns:xlink="http://www.w3.org/1999/xlink" width="35.4" height="6.7" viewBox="0,0,35.4,6.7"><g transform="translate(-222.3,-176.65)"><g data-paper-data="{&quot;isPaintingLayer&quot;:true}" fill="#000000" fill-rule="nonzero" stroke="none" stroke-width="1" stroke-linecap="butt" stroke-linejoin="miter" stroke-miterlimit="10" stroke-dasharray="" stroke-dashoffset="0" style="mix-blend-mode: normal"><g><path d="M227.4,176.75l1.4,1.4l-1.4,1.4l-0.9,-0.9h-1.9l-0.5,0.5v1.8l0.5,0.5h1.8l0.9,-0.9l1.4,1.4l-1.4,1.4h-3.6l-1.4,-1.4v-3.6l1.4,-1.4h3.7z"/><path d="M231.4,180.75v2.3h-1.8v-6.3h1.8v2.3h2.7v-2.3h1.8v6.3h-1.8v-2.3z"/><path d="M238.2,176.75h3.6l1.4,1.4v5h-1.8v-1.4h-2.7v1.4h-1.8v-5zM240.9,178.55h-1.8l-0.5,0.5v0.9h2.7v-0.9z"/><path d="M244.1,178.05l1.4,-1.4h5v1.8h-4.1l-0.2,0.2l0.2,0.2h2.6l1.4,1.4v1.4l-1.4,1.4h-5v-1.8h4.1l0.2,-0.2l-0.2,-0.2h-2.7l-1.4,-1.4v-1.4z"/><path d="M253.1,179.45v3.6h-1.8v-6.3h1.8l1.4,1.4l1.4,-1.4h1.8v6.3h-1.8v-3.6l-1.4,1.4z"/></g></g></g></svg>