<svg version="1.1" xmlns="http://www.w3.org/2000/svg" xmlns:xlink="http://www.w3.org/1999/xlink" width="115.75038" height="23.77482" viewBox="0,0,115.75038,23.77482"><g transform="translate(-182.70895,-168.25146)"><g data-paper-data="{&quot;isPaintingLayer&quot;:true}" fill-rule="nonzero" stroke="none" stroke-linecap="butt" stroke-linejoin="miter" stroke-miterlimit="10" stroke-dasharray="" stroke-dashoffset="0" style="mix-blend-mode: normal"><g fill="#ffcf00" stroke-width="1"><path d="M219.0805,174.8845v1.823l-1.368,1.369l1.824,1.823h-2.735l-1.825,-1.823h-0.456v1.823h-1.823v-6.383h5.015zM217.2565,175.7965l-0.455,-0.456h-2.28v0.911h2.28z"/><path d="M219.9925,178.5325v-3.648l1.367,-1.368h3.647l1.367,1.368v3.647l-1.367,1.367h-3.647zM221.8155,175.7965v1.823l0.456,0.456h1.823l0.456,-0.456v-1.823l-0.456,-0.456h-1.823z"/><path d="M227.2865,178.5325v-5.016h1.823v4.104l0.456,0.456h1.823l0.456,-0.456v-4.104h1.823v5.016l-1.367,1.367h-3.647z"/><path d="M234.5805,173.5165h1.823v4.56h3.647v1.823h-5.471v-6.383z"/><path d="M242.7865,178.0765h3.647v1.823h-5.471v-6.383h5.471v1.824h-3.647v0.456h3.647v1.823h-3.647z"/><path d="M251.2215,175.3405v4.559h-1.824v-4.559h-2.279v-1.824h6.383v1.824z"/><path d="M258.5155,175.3405v4.559h-1.824v-4.559h-2.279v-1.824h6.383v1.824z"/><path d="M263.5295,178.0765h3.647v1.823h-5.471v-6.383h5.471v1.824h-3.647v0.456h3.647v1.823h-3.647z"/></g><g fill="#ffffff" stroke-width="1"><path d="M193.9135,184.0115v2.45h-0.248v-1.96l-0.962,1.648h-0.123l-0.962,-1.638v1.949h-0.249v-2.45h0.213l1.064,1.816l1.054,-1.816h0.213z"/><path d="M196.2485,185.8075h-1.365l-0.294,0.654h-0.27l1.12,-2.45h0.255l1.12,2.45h-0.272zM196.1535,185.5975l-0.588,-1.316l-0.588,1.316z"/><path d="M197.3735,186.3955c-0.167,-0.059 -0.296,-0.136 -0.387,-0.231l0.102,-0.199c0.088,0.089 0.207,0.16 0.354,0.215c0.147,0.056 0.298,0.083 0.455,0.083c0.219,0 0.384,-0.041 0.493,-0.121c0.11,-0.08 0.165,-0.185 0.165,-0.313c0,-0.098 -0.03,-0.176 -0.089,-0.234c-0.059,-0.059 -0.132,-0.104 -0.219,-0.135c-0.086,-0.031 -0.207,-0.065 -0.36,-0.104c-0.184,-0.046 -0.332,-0.091 -0.441,-0.135c-0.11,-0.043 -0.204,-0.108 -0.282,-0.197c-0.078,-0.089 -0.117,-0.209 -0.117,-0.36c0,-0.124 0.033,-0.236 0.098,-0.338c0.065,-0.102 0.166,-0.183 0.301,-0.243c0.135,-0.06 0.303,-0.091 0.504,-0.091c0.14,0 0.277,0.019 0.411,0.058c0.134,0.038 0.25,0.092 0.349,0.159l-0.088,0.206c-0.103,-0.067 -0.212,-0.118 -0.329,-0.152c-0.117,-0.033 -0.231,-0.051 -0.343,-0.051c-0.215,0 -0.376,0.042 -0.485,0.125c-0.108,0.083 -0.163,0.189 -0.163,0.32c0,0.098 0.03,0.177 0.089,0.236c0.059,0.059 0.134,0.104 0.224,0.136c0.089,0.032 0.21,0.066 0.362,0.104c0.18,0.044 0.325,0.088 0.436,0.131c0.111,0.044 0.205,0.109 0.282,0.196c0.077,0.088 0.115,0.206 0.115,0.355c0,0.124 -0.033,0.236 -0.1,0.338c-0.067,0.102 -0.168,0.182 -0.306,0.241c-0.138,0.059 -0.307,0.09 -0.507,0.09c-0.183,-0.001 -0.357,-0.03 -0.524,-0.089z"/><path d="M199.8145,184.2365h-0.861v-0.225h1.981v0.225h-0.861v2.226h-0.259z"/><path d="M203.0795,186.2385v0.224h-1.732v-2.45h1.68v0.225h-1.421v0.871h1.267v0.221h-1.267v0.91h1.473z"/><path d="M205.3615,186.4615l-0.56,-0.787c-0.063,0.007 -0.128,0.01 -0.196,0.01h-0.658v0.777h-0.259v-2.45h0.917c0.313,0 0.558,0.075 0.735,0.225c0.178,0.149 0.266,0.354 0.266,0.615c0,0.191 -0.048,0.354 -0.145,0.485c-0.097,0.132 -0.235,0.227 -0.415,0.285l0.599,0.84zM205.1555,185.3035c0.128,-0.107 0.192,-0.258 0.192,-0.452c0,-0.198 -0.064,-0.351 -0.192,-0.456c-0.128,-0.106 -0.314,-0.159 -0.557,-0.159h-0.651v1.229h0.651c0.243,-0.001 0.428,-0.054 0.557,-0.162z"/><path d="M208.8685,186.2385v0.224h-1.732v-2.45h1.68v0.225h-1.421v0.871h1.267v0.221h-1.267v0.91h1.473z"/><path d="M211.0135,185.8075h-1.365l-0.294,0.654h-0.27l1.12,-2.45h0.255l1.12,2.45h-0.273zM210.9185,185.5975l-0.588,-1.316l-0.588,1.316z"/><path d="M212.3595,186.3225c-0.195,-0.107 -0.348,-0.257 -0.458,-0.446c-0.111,-0.19 -0.166,-0.403 -0.166,-0.639c0,-0.236 0.055,-0.449 0.166,-0.639c0.111,-0.19 0.264,-0.34 0.46,-0.446c0.196,-0.107 0.415,-0.161 0.658,-0.161c0.182,0 0.35,0.03 0.504,0.091c0.154,0.061 0.285,0.149 0.392,0.266l-0.164,0.165c-0.191,-0.194 -0.433,-0.291 -0.725,-0.291c-0.194,0 -0.37,0.045 -0.529,0.133c-0.159,0.089 -0.283,0.21 -0.373,0.364c-0.09,0.154 -0.135,0.327 -0.135,0.519c0,0.192 0.045,0.363 0.135,0.518c0.09,0.155 0.214,0.275 0.373,0.364c0.159,0.089 0.335,0.133 0.529,0.133c0.294,0 0.535,-0.098 0.725,-0.294l0.164,0.164c-0.107,0.117 -0.238,0.206 -0.394,0.269c-0.155,0.062 -0.324,0.093 -0.506,0.093c-0.243,-0.002 -0.461,-0.056 -0.656,-0.163z"/><path d="M216.5155,184.0115v2.45h-0.255v-1.131h-1.533v1.131h-0.259v-2.45h0.259v1.092h1.533v-1.092z"/><path d="M221.5945,184.0115l-0.826,2.45h-0.273l-0.718,-2.09l-0.721,2.09h-0.27l-0.826,-2.45h0.266l0.707,2.107l0.731,-2.107h0.242l0.721,2.118l0.718,-2.118z"/><path d="M223.7995,186.2385v0.224h-1.732v-2.45h1.68v0.225h-1.421v0.871h1.267v0.221h-1.267v0.91h1.473z"/><path d="M225.9445,185.8075h-1.365l-0.294,0.654h-0.27l1.12,-2.45h0.255l1.12,2.45h-0.273zM225.8495,185.5975l-0.588,-1.316l-0.588,1.316z"/><path d="M228.5695,184.2365c0.178,0.149 0.266,0.354 0.266,0.615c0,0.262 -0.088,0.467 -0.266,0.614c-0.177,0.148 -0.422,0.223 -0.735,0.223h-0.658v0.773h-0.259v-2.45h0.917c0.312,0 0.557,0.075 0.735,0.225zM228.3845,185.3015c0.128,-0.106 0.192,-0.256 0.192,-0.45c0,-0.198 -0.064,-0.351 -0.192,-0.456c-0.128,-0.106 -0.314,-0.159 -0.557,-0.159h-0.651v1.225h0.651c0.243,-0.001 0.428,-0.053 0.557,-0.16z"/><path d="M229.8415,186.3205c-0.197,-0.108 -0.351,-0.258 -0.462,-0.446c-0.111,-0.189 -0.166,-0.401 -0.166,-0.637c0,-0.236 0.055,-0.448 0.166,-0.638c0.111,-0.188 0.265,-0.338 0.462,-0.446c0.197,-0.108 0.417,-0.162 0.66,-0.162c0.243,0 0.461,0.054 0.656,0.161c0.195,0.106 0.348,0.256 0.46,0.446c0.112,0.189 0.168,0.402 0.168,0.639c0,0.235 -0.056,0.448 -0.168,0.639c-0.112,0.189 -0.265,0.339 -0.46,0.446c-0.195,0.107 -0.414,0.161 -0.656,0.161c-0.242,0 -0.463,-0.055 -0.66,-0.163zM231.0265,186.1205c0.156,-0.088 0.279,-0.209 0.367,-0.364c0.089,-0.155 0.133,-0.328 0.133,-0.52c0,-0.192 -0.044,-0.365 -0.133,-0.521c-0.088,-0.154 -0.211,-0.276 -0.367,-0.363c-0.156,-0.088 -0.332,-0.132 -0.525,-0.132c-0.194,0 -0.37,0.044 -0.527,0.132c-0.158,0.087 -0.281,0.209 -0.371,0.363c-0.09,0.155 -0.135,0.329 -0.135,0.521c0,0.192 0.045,0.364 0.135,0.52c0.09,0.156 0.213,0.276 0.371,0.364c0.157,0.087 0.333,0.131 0.527,0.131c0.194,0 0.369,-0.044 0.525,-0.131z"/><path d="M234.4145,184.0115v2.45h-0.213l-1.575,-1.988v1.988h-0.259v-2.45h0.213l1.579,1.988v-1.988z"/><path d="M235.0535,186.4235c-0.036,-0.038 -0.054,-0.083 -0.054,-0.137c0,-0.054 0.018,-0.099 0.054,-0.135c0.036,-0.036 0.08,-0.055 0.131,-0.055c0.051,0 0.096,0.019 0.133,0.055c0.038,0.036 0.056,0.081 0.056,0.135c0,0.054 -0.019,0.099 -0.056,0.137c-0.037,0.037 -0.082,0.056 -0.133,0.056c-0.051,0 -0.095,-0.019 -0.131,-0.056z"/><path d="M237.2795,186.3225c-0.195,-0.107 -0.348,-0.257 -0.458,-0.446c-0.111,-0.19 -0.166,-0.403 -0.166,-0.639c0,-0.236 0.055,-0.449 0.166,-0.639c0.111,-0.19 0.264,-0.34 0.46,-0.446c0.196,-0.107 0.415,-0.161 0.658,-0.161c0.182,0 0.35,0.03 0.504,0.091c0.154,0.061 0.285,0.149 0.392,0.266l-0.164,0.165c-0.191,-0.194 -0.433,-0.291 -0.725,-0.291c-0.194,0 -0.37,0.045 -0.529,0.133c-0.159,0.089 -0.283,0.21 -0.373,0.364c-0.09,0.154 -0.135,0.327 -0.135,0.519c0,0.192 0.045,0.363 0.135,0.518c0.09,0.155 0.214,0.275 0.373,0.364c0.159,0.089 0.335,0.133 0.529,0.133c0.294,0 0.535,-0.098 0.725,-0.294l0.164,0.164c-0.107,0.117 -0.238,0.206 -0.394,0.269c-0.155,0.062 -0.324,0.093 -0.506,0.093c-0.243,-0.002 -0.462,-0.056 -0.656,-0.163z"/><path d="M239.7465,186.3205c-0.197,-0.108 -0.351,-0.258 -0.462,-0.446c-0.111,-0.189 -0.166,-0.401 -0.166,-0.637c0,-0.236 0.055,-0.448 0.166,-0.638c0.111,-0.188 0.265,-0.338 0.462,-0.446c0.197,-0.108 0.417,-0.162 0.66,-0.162c0.243,0 0.461,0.054 0.657,0.161c0.194,0.106 0.348,0.256 0.459,0.446c0.113,0.189 0.168,0.402 0.168,0.639c0,0.235 -0.055,0.448 -0.168,0.639c-0.111,0.189 -0.265,0.339 -0.459,0.446c-0.195,0.107 -0.414,0.161 -0.657,0.161c-0.243,0 -0.462,-0.055 -0.66,-0.163zM240.9325,186.1205c0.156,-0.088 0.278,-0.209 0.367,-0.364c0.089,-0.155 0.134,-0.328 0.134,-0.52c0,-0.192 -0.045,-0.365 -0.134,-0.521c-0.089,-0.154 -0.211,-0.276 -0.367,-0.363c-0.156,-0.088 -0.332,-0.132 -0.525,-0.132c-0.194,0 -0.37,0.044 -0.527,0.132c-0.158,0.087 -0.281,0.209 -0.371,0.363c-0.09,0.155 -0.135,0.329 -0.135,0.521c0,0.192 0.045,0.364 0.135,0.52c0.09,0.156 0.213,0.276 0.371,0.364c0.157,0.087 0.333,0.131 0.527,0.131c0.193,0 0.368,-0.044 0.525,-0.131z"/><path d="M244.3195,184.0115v2.45h-0.213l-1.575,-1.988v1.988h-0.259v-2.45h0.213l1.579,1.988v-1.988z"/><path d="M245.2695,186.3955c-0.166,-0.059 -0.295,-0.136 -0.387,-0.231l0.102,-0.199c0.089,0.089 0.207,0.16 0.354,0.215c0.147,0.056 0.299,0.083 0.455,0.083c0.22,0 0.384,-0.041 0.494,-0.121c0.109,-0.08 0.164,-0.185 0.164,-0.313c0,-0.098 -0.029,-0.176 -0.089,-0.234c-0.06,-0.058 -0.133,-0.104 -0.219,-0.135c-0.087,-0.031 -0.207,-0.065 -0.36,-0.104c-0.185,-0.046 -0.332,-0.091 -0.441,-0.135c-0.109,-0.043 -0.204,-0.108 -0.282,-0.197c-0.078,-0.089 -0.117,-0.209 -0.117,-0.36c0,-0.124 0.033,-0.236 0.099,-0.338c0.066,-0.102 0.165,-0.183 0.301,-0.243c0.135,-0.061 0.304,-0.091 0.504,-0.091c0.14,0 0.277,0.019 0.411,0.058c0.135,0.038 0.25,0.092 0.349,0.159l-0.088,0.206c-0.103,-0.067 -0.212,-0.118 -0.329,-0.152c-0.116,-0.033 -0.23,-0.051 -0.343,-0.051c-0.215,0 -0.376,0.042 -0.484,0.125c-0.108,0.083 -0.163,0.189 -0.163,0.32c0,0.098 0.029,0.177 0.089,0.236c0.06,0.059 0.135,0.104 0.225,0.136c0.09,0.032 0.21,0.066 0.362,0.104c0.18,0.044 0.324,0.088 0.436,0.131c0.11,0.044 0.205,0.109 0.281,0.196c0.077,0.088 0.116,0.206 0.116,0.355c0,0.124 -0.033,0.236 -0.1,0.338c-0.067,0.102 -0.169,0.182 -0.307,0.241c-0.138,0.059 -0.307,0.09 -0.508,0.09c-0.183,-0.001 -0.358,-0.03 -0.525,-0.089z"/><path d="M247.7115,184.2365h-0.862v-0.225h1.981v0.225h-0.861v2.226h-0.259v-2.226z"/><path d="M250.6585,185.8075h-1.365l-0.294,0.654h-0.27l1.12,-2.45h0.256l1.12,2.45h-0.273zM250.5635,185.5975l-0.588,-1.316l-0.588,1.316z"/><path d="M253.6795,184.0115v2.45h-0.213l-1.575,-1.988v1.988h-0.259v-2.45h0.213l1.579,1.988v-1.988z"/><path d="M254.9535,184.2365h-0.861v-0.225h1.981v0.225h-0.861v2.226h-0.259z"/><path d="M260.7665,184.0115l-0.826,2.45h-0.273l-0.717,-2.09l-0.722,2.09h-0.27l-0.825,-2.45h0.266l0.707,2.107l0.731,-2.107h0.241l0.722,2.118l0.717,-2.118z"/><path d="M262.9725,186.2385v0.224h-1.733v-2.45h1.68v0.225h-1.421v0.871h1.267v0.221h-1.267v0.91h1.474z"/><path d="M265.1175,185.8075h-1.365l-0.294,0.654h-0.27l1.12,-2.45h0.256l1.12,2.45h-0.273zM265.0225,185.5975l-0.588,-1.316l-0.588,1.316z"/><path d="M267.7425,184.2365c0.178,0.149 0.267,0.354 0.267,0.615c0,0.262 -0.089,0.467 -0.267,0.614c-0.177,0.148 -0.422,0.223 -0.734,0.223h-0.659v0.773h-0.259v-2.45h0.917c0.313,0 0.558,0.075 0.735,0.225zM267.5575,185.3015c0.129,-0.106 0.192,-0.256 0.192,-0.45c0,-0.198 -0.063,-0.351 -0.192,-0.456c-0.128,-0.106 -0.313,-0.159 -0.557,-0.159h-0.65v1.225h0.65c0.243,-0.001 0.429,-0.053 0.557,-0.16z"/><path d="M269.0155,186.3205c-0.197,-0.108 -0.352,-0.258 -0.462,-0.446c-0.111,-0.189 -0.167,-0.401 -0.167,-0.637c0,-0.236 0.056,-0.448 0.167,-0.638c0.11,-0.188 0.265,-0.338 0.462,-0.446c0.197,-0.108 0.417,-0.162 0.659,-0.162c0.243,0 0.462,0.054 0.656,0.161c0.195,0.106 0.349,0.256 0.461,0.446c0.111,0.189 0.168,0.402 0.168,0.639c0,0.235 -0.057,0.448 -0.168,0.639c-0.112,0.189 -0.266,0.339 -0.461,0.446c-0.194,0.107 -0.413,0.161 -0.656,0.161c-0.242,0 -0.462,-0.055 -0.659,-0.163zM270.1995,186.1205c0.156,-0.088 0.278,-0.209 0.367,-0.364c0.089,-0.155 0.133,-0.328 0.133,-0.52c0,-0.192 -0.044,-0.365 -0.133,-0.521c-0.089,-0.154 -0.211,-0.276 -0.367,-0.363c-0.156,-0.088 -0.331,-0.132 -0.525,-0.132c-0.193,0 -0.369,0.044 -0.526,0.132c-0.157,0.087 -0.281,0.209 -0.371,0.363c-0.09,0.155 -0.135,0.329 -0.135,0.521c0,0.192 0.045,0.364 0.135,0.52c0.09,0.156 0.214,0.276 0.371,0.364c0.157,0.087 0.333,0.131 0.526,0.131c0.194,0 0.369,-0.044 0.525,-0.131z"/><path d="M273.5875,184.0115v2.45h-0.213l-1.575,-1.988v1.988h-0.259v-2.45h0.213l1.579,1.988v-1.988z"/><path d="M275.4545,186.3955c-0.166,-0.059 -0.295,-0.136 -0.387,-0.231l0.102,-0.199c0.089,0.089 0.207,0.16 0.354,0.215c0.147,0.056 0.299,0.083 0.455,0.083c0.22,0 0.384,-0.041 0.494,-0.121c0.109,-0.08 0.164,-0.185 0.164,-0.313c0,-0.098 -0.029,-0.176 -0.089,-0.234c-0.06,-0.058 -0.133,-0.104 -0.219,-0.135c-0.087,-0.031 -0.207,-0.065 -0.36,-0.104c-0.185,-0.046 -0.332,-0.091 -0.441,-0.135c-0.109,-0.043 -0.204,-0.108 -0.282,-0.197c-0.078,-0.089 -0.117,-0.209 -0.117,-0.36c0,-0.124 0.033,-0.236 0.099,-0.338c0.066,-0.102 0.165,-0.183 0.301,-0.243c0.135,-0.061 0.304,-0.091 0.504,-0.091c0.14,0 0.277,0.019 0.411,0.058c0.135,0.038 0.25,0.092 0.349,0.159l-0.088,0.206c-0.103,-0.067 -0.212,-0.118 -0.329,-0.152c-0.116,-0.033 -0.23,-0.051 -0.343,-0.051c-0.215,0 -0.376,0.042 -0.484,0.125c-0.108,0.083 -0.163,0.189 -0.163,0.32c0,0.098 0.029,0.177 0.089,0.236c0.06,0.059 0.135,0.104 0.225,0.136c0.09,0.032 0.21,0.066 0.362,0.104c0.18,0.044 0.324,0.088 0.436,0.131c0.11,0.044 0.205,0.109 0.281,0.196c0.077,0.088 0.116,0.206 0.116,0.355c0,0.124 -0.033,0.236 -0.1,0.338c-0.067,0.102 -0.169,0.182 -0.307,0.241c-0.138,0.059 -0.307,0.09 -0.508,0.09c-0.183,-0.001 -0.358,-0.03 -0.525,-0.089z"/><path d="M280.8185,184.0115l-0.826,2.45h-0.273l-0.717,-2.09l-0.722,2.09h-0.27l-0.825,-2.45h0.266l0.707,2.107l0.731,-2.107h0.241l0.722,2.118l0.717,-2.118z"/><path d="M282.7545,185.8075h-1.365l-0.294,0.654h-0.27l1.12,-2.45h0.256l1.12,2.45h-0.273zM282.6595,185.5975l-0.588,-1.316l-0.588,1.316z"/><path d="M285.3795,184.2365c0.178,0.149 0.267,0.354 0.267,0.615c0,0.262 -0.089,0.467 -0.267,0.614c-0.177,0.148 -0.422,0.223 -0.734,0.223h-0.658v0.773h-0.259v-2.45h0.917c0.312,0 0.557,0.075 0.734,0.225zM285.1935,185.3015c0.129,-0.106 0.192,-0.256 0.192,-0.45c0,-0.198 -0.063,-0.351 -0.192,-0.456c-0.128,-0.106 -0.313,-0.159 -0.557,-0.159h-0.65v1.225h0.65c0.244,-0.001 0.429,-0.053 0.557,-0.16z"/><path d="M286.3915,186.3955c-0.166,-0.059 -0.295,-0.136 -0.387,-0.231l0.102,-0.199c0.089,0.089 0.207,0.16 0.354,0.215c0.147,0.056 0.299,0.083 0.455,0.083c0.22,0 0.384,-0.041 0.494,-0.121c0.109,-0.08 0.164,-0.185 0.164,-0.313c0,-0.098 -0.029,-0.176 -0.089,-0.234c-0.06,-0.058 -0.133,-0.104 -0.219,-0.135c-0.087,-0.031 -0.207,-0.065 -0.36,-0.104c-0.185,-0.046 -0.332,-0.091 -0.441,-0.135c-0.109,-0.043 -0.204,-0.108 -0.282,-0.197c-0.078,-0.089 -0.117,-0.209 -0.117,-0.36c0,-0.124 0.033,-0.236 0.099,-0.338c0.066,-0.102 0.165,-0.183 0.301,-0.243c0.135,-0.061 0.304,-0.091 0.504,-0.091c0.14,0 0.277,0.019 0.411,0.058c0.135,0.038 0.25,0.092 0.349,0.159l-0.088,0.206c-0.103,-0.067 -0.212,-0.118 -0.329,-0.152c-0.116,-0.033 -0.23,-0.051 -0.343,-0.051c-0.215,0 -0.376,0.042 -0.484,0.125c-0.108,0.083 -0.163,0.189 -0.163,0.32c0,0.098 0.029,0.177 0.089,0.236c0.06,0.059 0.135,0.104 0.225,0.136c0.09,0.032 0.21,0.066 0.362,0.104c0.18,0.044 0.324,0.088 0.436,0.131c0.11,0.044 0.205,0.109 0.281,0.196c0.077,0.088 0.116,0.206 0.116,0.355c0,0.124 -0.033,0.236 -0.1,0.338c-0.067,0.102 -0.169,0.182 -0.307,0.241c-0.138,0.059 -0.307,0.09 -0.508,0.09c-0.183,-0.001 -0.358,-0.03 -0.525,-0.089z"/><path d="M288.3175,186.4245c-0.037,-0.036 -0.055,-0.078 -0.055,-0.127c0,-0.052 0.018,-0.095 0.053,-0.128c0.035,-0.034 0.079,-0.051 0.133,-0.051c0.051,0 0.095,0.017 0.13,0.051c0.034,0.033 0.052,0.076 0.052,0.128c0,0.049 -0.018,0.091 -0.052,0.127c-0.035,0.036 -0.079,0.055 -0.13,0.055c-0.052,0 -0.095,-0.019 -0.131,-0.055zM288.3015,184.0115h0.294l-0.052,1.715h-0.192z"/></g><path d="M182.70895,192.02628v-23.77482h115.75038v23.77482z" fill="none" stroke-width="0"/></g></g></svg>