<svg version="1.1" xmlns="http://www.w3.org/2000/svg" xmlns:xlink="http://www.w3.org/1999/xlink" width="37.8" height="6.5" viewBox="0,0,37.8,6.5"><g transform="translate(-221.1,-176.75)"><g data-paper-data="{&quot;isPaintingLayer&quot;:true}" fill="#000000" fill-rule="nonzero" stroke="none" stroke-width="1" stroke-linecap="butt" stroke-linejoin="miter" stroke-miterlimit="10" stroke-dasharray="" stroke-dashoffset="0" style="mix-blend-mode: normal"><path d="M222.5,176.75h3.6l1.4,1.4v5h-1.8v-1.4h-2.8v1.4h-1.8v-5zM225.2,178.55h-1.8l-0.5,0.5v0.9h2.7v-0.9z"/><path d="M234.7,178.05v1.8l-1.4,1.4l1.8,1.8h-2.7l-1.8,-1.8h-0.5v1.8h-1.7v-6.3h5zM232.9,178.95l-0.5,-0.5h-2.3v1h2.3z"/><path d="M240.6,176.75l1.4,1.4l-1.4,1.3l-0.9,-0.9h-1.8l-0.5,0.5v1.8l0.5,0.5h1.8l0.9,-0.9l1.4,1.4l-1.4,1.4h-3.6l-1.4,-1.4v-3.6l1.4,-1.4h3.6z"/><path d="M246.7,178.55v4.5h-1.8v-4.5h-2.3v-1.8h6.3v1.8z"/><path d="M251.6,183.05h-1.8v-6.3h1.8z"/><path d="M257.5,176.75l1.4,1.4l-1.4,1.3l-0.9,-0.9h-1.8l-0.5,0.5v1.8l0.5,0.5h1.8l0.9,-0.9l1.4,1.4l-1.4,1.4h-3.6l-1.4,-1.4v-3.6l1.4,-1.4h3.6z"/></g></g></svg>