<svg version="1.1" xmlns="http://www.w3.org/2000/svg" xmlns:xlink="http://www.w3.org/1999/xlink" width="7.1" height="4.9"><g transform="translate(-236.5,-177.5)"><g data-paper-data="{&quot;isPaintingLayer&quot;:true}" fill="none" fill-rule="nonzero" stroke="none" stroke-width="1" stroke-linecap="butt" stroke-linejoin="miter" stroke-miterlimit="10" stroke-dasharray="" stroke-dashoffset="0" font-family="none" font-weight="none" font-size="none" text-anchor="none" style="mix-blend-mode: normal"><g id="XMLID_1_"><g id="XMLID_21_"><path d="M238.5,180.5v1.7h-1.8v-4.4h4.3v2.7zM238.5,178.8v0.7h0.9v-0.7z" id="XMLID_25_" fill="#ffffff"/><path d="M238.5,182.4h-1.8l-0.2,-0.2v-4.4l0.3,-0.3h4.3l0.3,0.3v2.7l-0.3,0.3h-2.4v1.4zM237,181.9h1.2v-1.4l0.3,-0.3h2.4v-2.1h-3.9zM239.3,179.7h-0.8l-0.3,-0.2v-0.7l0.3,-0.3h0.9l0.3,0.3v0.7z" id="XMLID_61_" fill="#000000"/></g><g id="XMLID_24_"><path d="M243.3,177.8v4.4h-1.8v-4.4z" id="XMLID_17_" fill="#ffffff"/><path d="M243.3,182.4h-1.8l-0.2,-0.2v-4.4l0.3,-0.3h1.7l0.3,0.3v4.4zM241.8,181.9h1.2v-3.8h-1.2z" id="XMLID_56_" fill="#000000"/></g></g></g></g></svg>