<svg version="1.1" xmlns="http://www.w3.org/2000/svg" xmlns:xlink="http://www.w3.org/1999/xlink" width="111.75899" height="24.46897" viewBox="0,0,111.75899,24.46897"><g transform="translate(-184.44434,-168.25146)"><g data-paper-data="{&quot;isPaintingLayer&quot;:true}" fill-rule="nonzero" stroke="none" stroke-linecap="butt" stroke-linejoin="miter" stroke-miterlimit="10" stroke-dasharray="" stroke-dashoffset="0" style="mix-blend-mode: normal"><g fill="#ffcf00" stroke-width="1"><path d="M220.51,173.5165h3.647l1.367,1.368v5.015h-1.822v-1.367h-2.736v1.367h-1.823v-5.015zM223.24601,175.3405h-1.824l-0.456,0.456v0.911h2.735v-0.911z"/><path d="M232.82,174.8845v1.823l-1.368,1.369l1.824,1.823h-2.735l-1.825,-1.823h-0.456v1.823h-1.823v-6.383h5.015zM230.99601,175.7965l-0.455,-0.456h-2.28v0.911h2.28z"/><path d="M238.74601,173.5165l1.368,1.368l-1.368,1.367l-0.911,-0.911h-1.824l-0.457,0.456v1.823l0.456,0.456h1.824l0.911,-0.912l1.368,1.368l-1.368,1.367h-3.646l-1.368,-1.367v-3.647l1.368,-1.368z"/><path d="M242.165,173.5165h3.646l1.368,1.368v5.015h-1.824v-1.367h-2.735v1.367h-1.823v-5.015zM244.90101,175.3405h-1.824l-0.456,0.456v0.911h2.735v-0.911z"/><path d="M248.09201,173.5165h5.015l1.367,1.368v3.647l-1.367,1.367h-5.015zM249.915,175.3405v2.736h2.279l0.456,-0.456v-1.824l-0.456,-0.456z"/><path d="M257.20901,178.0765h3.647v1.823h-5.471v-6.383h5.471v1.824h-3.647v0.456h3.647v1.823h-3.647z"/></g><g fill="#ffffff" stroke-width="1"><path d="M228.71401,186.4615l-0.56,-0.787c-0.063,0.007 -0.128,0.01 -0.196,0.01h-0.658v0.777h-0.259v-2.45h0.917c0.313,0 0.558,0.075 0.735,0.225c0.178,0.149 0.266,0.354 0.266,0.615c0,0.191 -0.048,0.354 -0.145,0.485c-0.097,0.132 -0.235,0.227 -0.415,0.285l0.599,0.84zM228.50801,185.3035c0.128,-0.107 0.192,-0.258 0.192,-0.452c0,-0.198 -0.064,-0.351 -0.192,-0.456c-0.128,-0.106 -0.314,-0.159 -0.557,-0.159h-0.651v1.229h0.651c0.243,-0.001 0.428,-0.054 0.557,-0.162z"/><path d="M231.10801,185.8075h-1.365l-0.294,0.654h-0.27l1.12,-2.45h0.255l1.12,2.45h-0.273zM231.01301,185.5975l-0.588,-1.316l-0.588,1.316z"/><path d="M234.128,184.0115v2.45h-0.213l-1.575,-1.988v1.988h-0.259v-2.45h0.213l1.579,1.988v-1.988z"/><path d="M234.926,184.0115h0.998c0.259,0 0.488,0.052 0.686,0.156c0.198,0.104 0.352,0.248 0.462,0.434c0.11,0.186 0.165,0.397 0.165,0.636c0,0.237 -0.055,0.449 -0.165,0.635c-0.11,0.186 -0.264,0.33 -0.462,0.435c-0.198,0.104 -0.427,0.155 -0.686,0.155h-0.998zM235.909,186.2385c0.215,0 0.403,-0.043 0.563,-0.128c0.161,-0.085 0.286,-0.203 0.375,-0.354c0.089,-0.15 0.133,-0.324 0.133,-0.52c0,-0.196 -0.044,-0.37 -0.133,-0.521c-0.088,-0.15 -0.213,-0.268 -0.375,-0.354c-0.161,-0.085 -0.349,-0.127 -0.563,-0.127h-0.724v2.002h0.724z"/><path d="M238.22801,186.3205c-0.197,-0.108 -0.351,-0.258 -0.462,-0.446c-0.111,-0.189 -0.166,-0.401 -0.166,-0.637c0,-0.236 0.055,-0.448 0.166,-0.638c0.111,-0.188 0.265,-0.338 0.462,-0.446c0.197,-0.108 0.417,-0.162 0.66,-0.162c0.243,0 0.461,0.054 0.656,0.161c0.195,0.106 0.348,0.256 0.46,0.446c0.112,0.189 0.168,0.402 0.168,0.639c0,0.235 -0.056,0.448 -0.168,0.639c-0.112,0.189 -0.265,0.339 -0.46,0.446c-0.195,0.107 -0.414,0.161 -0.656,0.161c-0.242,0 -0.463,-0.055 -0.66,-0.163zM239.41301,186.1205c0.156,-0.088 0.279,-0.209 0.367,-0.364c0.089,-0.155 0.133,-0.328 0.133,-0.52c0,-0.192 -0.044,-0.365 -0.133,-0.521c-0.088,-0.154 -0.211,-0.276 -0.367,-0.363c-0.156,-0.088 -0.332,-0.132 -0.525,-0.132c-0.194,0 -0.37,0.044 -0.527,0.132c-0.158,0.087 -0.281,0.209 -0.371,0.363c-0.09,0.155 -0.135,0.329 -0.135,0.521c0,0.192 0.045,0.364 0.135,0.52c0.09,0.156 0.213,0.276 0.371,0.364c0.157,0.087 0.333,0.131 0.527,0.131c0.193,0 0.369,-0.044 0.525,-0.131z"/><path d="M243.29801,184.0115v2.45h-0.248v-1.96l-0.963,1.648h-0.123l-0.963,-1.638v1.949h-0.248v-2.45h0.213l1.064,1.816l1.055,-1.816h0.213z"/><path d="M245.272,184.2365v0.962h1.267v0.225h-1.267v1.039h-0.259v-2.45h1.68v0.225h-1.421z"/><path d="M247.47301,186.2095c-0.177,-0.182 -0.266,-0.447 -0.266,-0.795v-1.403h0.259v1.394c0,0.284 0.064,0.497 0.192,0.637c0.129,0.14 0.314,0.21 0.557,0.21c0.245,0 0.432,-0.07 0.561,-0.21c0.128,-0.14 0.192,-0.353 0.192,-0.637v-1.394h0.252v1.403c0,0.348 -0.088,0.613 -0.265,0.795c-0.176,0.182 -0.423,0.273 -0.74,0.273c-0.317,0 -0.564,-0.091 -0.742,-0.273z"/><path d="M252.04701,184.0115v2.45h-0.213l-1.575,-1.988v1.988h-0.259v-2.45h0.213l1.579,1.988v-1.988z"/><path d="M252.771,186.4245c-0.037,-0.036 -0.055,-0.078 -0.055,-0.127c0,-0.052 0.018,-0.095 0.053,-0.128c0.035,-0.034 0.079,-0.051 0.133,-0.051c0.051,0 0.095,0.017 0.13,0.051c0.034,0.033 0.052,0.076 0.052,0.128c0,0.049 -0.018,0.091 -0.052,0.127c-0.035,0.036 -0.079,0.055 -0.13,0.055c-0.052,0 -0.095,-0.019 -0.131,-0.055zM252.754,184.0115h0.294l-0.052,1.715h-0.192z"/></g><path d="M184.44435,192.72043v-24.46897h111.75899v24.46897z" fill="none" stroke-width="0"/></g></g></svg>