<svg xmlns="http://www.w3.org/2000/svg" xmlns:xlink="http://www.w3.org/1999/xlink" version="1.1" width="13.191999435424805" height="17.897001266479492" viewBox="0.20099997520446777 -0.11299997568130493 13.191999435424805 17.897001266479492">
  <!-- Exported by Scratch - http://scratch.mit.edu/ -->
  <g id="ID0.5664790337905288">
    <path id="ID0.572505874093622" fill="#FFFFFF" d="M 4.588 2.93 L 4.588 6.555 L 6.893 6.531 C 10.541 6.531 12.893 8.691 12.893 11.643 C 12.893 15.052 10.446 17.284 6.677 17.284 C 4.686 17.284 2.357 16.516 0.701 15.364 L 1.829 13.059 C 3.173 14.188 4.854 14.836 6.366 14.836 C 8.55 14.836 9.87 13.707 9.87 11.811 C 9.87 10.107 8.55 9.051 6.39 9.051 C 5.381 9.051 3.101 9.147 1.973 9.267 L 1.973 0.387 L 12.198 0.387 L 12.221 2.931 L 4.588 2.931 Z " stroke-width="1"/>
  </g>
</svg>