<svg xmlns="http://www.w3.org/2000/svg" xmlns:xlink="http://www.w3.org/1999/xlink" version="1.1" width="87.10700225830078" height="6.676012992858887" viewBox="0.4230000376701355 -0.2890128195285797 87.10700225830078 6.676012992858887">
  <!-- Exported by Scratch - http://scratch.mit.edu/ -->
  <g id="ID0.02877043467015028">
    <path id="ID0.9838878433220088" fill="#FFFFFF" d="M 5.991 1.089 L 5.44 1.777 C 5.032 1.337 4.448 1.066 3.881 1.066 C 2.761 1.066 1.882 1.929 1.882 3.033 C 1.882 4.137 2.761 5.008 3.881 5.008 C 4.441 5.008 5.016 4.752 5.44 4.344 L 6 4.968 C 5.432 5.528 4.625 5.887 3.833 5.887 C 2.194 5.887 0.923 4.649 0.923 3.041 C 0.923 1.45 2.21 0.227 3.865 0.227 C 4.656 0.225 5.448 0.553 5.991 1.089 Z " stroke-width="1"/>
    <path id="ID0.8369432734325528" fill="#FFFFFF" d="M 10.872 5.846 L 10.872 3.527 L 7.906 3.527 L 7.906 5.846 L 6.962 5.846 L 6.962 0.249 L 7.906 0.249 L 7.906 2.68 L 10.872 2.68 L 10.872 0.249 L 11.815 0.249 L 11.815 5.846 L 10.872 5.846 Z " stroke-width="1"/>
    <path id="ID0.7003073925152421" fill="#FFFFFF" d="M 18.759 3.048 C 18.759 4.648 17.464 5.886 15.792 5.886 C 14.121 5.886 12.826 4.648 12.826 3.048 C 12.826 1.441 14.121 0.225 15.792 0.225 C 17.464 0.225 18.759 1.449 18.759 3.048 Z M 13.786 3.048 C 13.786 4.159 14.705 5.038 15.801 5.038 C 16.896 5.038 17.791 4.159 17.791 3.048 C 17.791 1.937 16.895 1.073 15.801 1.073 C 14.697 1.073 13.786 1.936 13.786 3.048 Z " stroke-width="1"/>
    <path id="ID0.9033860471099615" fill="#FFFFFF" d="M 25.016 3.048 C 25.016 4.648 23.72 5.886 22.049 5.886 C 20.378 5.886 19.082 4.648 19.082 3.048 C 19.082 1.441 20.378 0.225 22.049 0.225 C 23.72 0.225 25.016 1.449 25.016 3.048 Z M 20.042 3.048 C 20.042 4.159 20.961 5.038 22.057 5.038 C 23.153 5.038 24.048 4.159 24.048 3.048 C 24.048 1.937 23.153 1.073 22.057 1.073 C 20.953 1.073 20.042 1.936 20.042 3.048 Z " stroke-width="1"/>
    <path id="ID0.7600741921924055" fill="#FFFFFF" d="M 29.823 0.785 L 29.432 1.617 C 28.825 1.249 28.217 1.097 27.793 1.097 C 27.241 1.097 26.881 1.305 26.881 1.681 C 26.881 2.904 29.903 2.248 29.896 4.264 C 29.896 5.264 29.016 5.879 27.786 5.879 C 26.906 5.879 26.074 5.52 25.499 4.992 L 25.906 4.176 C 26.482 4.703 27.202 4.992 27.802 4.992 C 28.457 4.992 28.849 4.744 28.849 4.312 C 28.849 3.065 25.828 3.76 25.828 1.77 C 25.828 0.811 26.651 0.211 27.866 0.211 C 28.592 0.209 29.304 0.441 29.823 0.785 Z " stroke-width="1"/>
    <path id="ID0.5874423887580633" fill="#FFFFFF" d="M 31.945 1.096 L 31.945 2.607 L 34.68 2.607 L 34.68 3.455 L 31.945 3.455 L 31.945 4.998 L 35.095 4.998 L 35.095 5.846 L 31.001 5.846 L 31.001 0.249 L 34.999 0.249 L 34.999 1.096 L 31.945 1.096 Z " stroke-width="1"/>
    <path id="ID0.027080698404461145" fill="#FFFFFF" d="M 42.967 3.096 L 42.967 5.159 C 42.4 5.591 41.56 5.886 40.792 5.886 C 39.138 5.886 37.85 4.648 37.85 3.048 C 37.85 1.449 39.154 0.225 40.849 0.225 C 41.648 0.225 42.448 0.529 42.999 1.009 L 42.464 1.705 C 42.031 1.305 41.432 1.065 40.849 1.065 C 39.705 1.065 38.81 1.937 38.81 3.048 C 38.81 4.167 39.713 5.038 40.857 5.038 C 41.273 5.038 41.745 4.894 42.144 4.655 L 42.144 3.095 L 42.967 3.095 Z " stroke-width="1"/>
    <path id="ID0.8573185913264751" fill="#FFFFFF" d="M 45.098 4.583 L 44.562 5.847 L 43.579 5.847 L 46.05 0.25 L 47.018 0.25 L 49.464 5.847 L 48.457 5.847 L 47.92 4.583 L 45.098 4.583 Z M 46.505 1.257 L 45.449 3.743 L 47.56 3.743 L 46.505 1.257 Z " stroke-width="1"/>
    <path id="ID0.16539210453629494" fill="#FFFFFF" d="M 55.255 5.846 L 55.246 1.664 L 53.48 5.263 L 52.864 5.263 L 51.097 1.665 L 51.097 5.847 L 50.209 5.847 L 50.209 0.249 L 51.328 0.249 L 53.176 3.967 L 55.015 0.249 L 56.126 0.249 L 56.126 5.846 L 55.255 5.846 Z " stroke-width="1"/>
    <path id="ID0.05892596021294594" fill="#FFFFFF" d="M 58.553 1.096 L 58.553 2.607 L 61.287 2.607 L 61.287 3.455 L 58.553 3.455 L 58.553 4.998 L 61.703 4.998 L 61.703 5.846 L 57.61 5.846 L 57.61 0.249 L 61.608 0.249 L 61.608 1.096 L 58.553 1.096 Z " stroke-width="1"/>
    <path id="ID0.17922433139756322" fill="#FFFFFF" d="M 67.904 5.846 L 67.895 1.664 L 66.128 5.262 L 65.512 5.262 L 63.745 1.664 L 63.745 5.846 L 62.857 5.846 L 62.857 0.249 L 63.976 0.249 L 65.824 3.967 L 67.663 0.249 L 68.774 0.249 L 68.774 5.846 L 67.904 5.846 Z " stroke-width="1"/>
    <path id="ID0.2921266555786133" fill="#FFFFFF" d="M 75.727 3.048 C 75.727 4.648 74.431 5.886 72.76 5.886 C 71.089 5.886 69.793 4.648 69.793 3.048 C 69.793 1.441 71.089 0.225 72.76 0.225 C 74.431 0.225 75.727 1.449 75.727 3.048 Z M 70.753 3.048 C 70.753 4.159 71.672 5.038 72.768 5.038 C 73.864 5.038 74.759 4.159 74.759 3.048 C 74.759 1.937 73.863 1.073 72.768 1.073 C 71.664 1.073 70.753 1.936 70.753 3.048 Z " stroke-width="1"/>
    <path id="ID0.38455784460529685" fill="#FFFFFF" d="M 79.032 0.249 C 80.711 0.249 81.927 1.424 81.927 3.047 C 81.927 4.662 80.703 5.846 79.008 5.846 L 76.737 5.846 L 76.737 0.249 L 79.032 0.249 Z M 77.681 4.999 L 79.057 4.999 C 80.144 4.999 80.976 4.191 80.976 3.056 C 80.976 1.913 80.121 1.097 79.017 1.097 L 77.681 1.097 L 77.681 4.999 Z " stroke-width="1"/>
    <path id="ID0.717695152387023" fill="#FFFFFF" d="M 83.88 1.096 L 83.88 2.607 L 86.615 2.607 L 86.615 3.455 L 83.88 3.455 L 83.88 4.998 L 87.03 4.998 L 87.03 5.846 L 82.936 5.846 L 82.936 0.249 L 86.934 0.249 L 86.934 1.096 L 83.88 1.096 Z " stroke-width="1"/>
  </g>
</svg>