<svg version="1.1" xmlns="http://www.w3.org/2000/svg" xmlns:xlink="http://www.w3.org/1999/xlink" width="120.01623" height="19.28895" viewBox="0,0,120.01623,19.28895"><g transform="translate(-180.26203,-176.75293)"><g data-paper-data="{&quot;isPaintingLayer&quot;:true}" fill="#000000" fill-rule="nonzero" stroke="none" stroke-width="1" stroke-linecap="butt" stroke-linejoin="miter" stroke-miterlimit="10" stroke-dasharray="" stroke-dashoffset="0" style="mix-blend-mode: normal"><path d="M229.33107,178.14453v1.3916l-0.46387,0.46387l0.46387,0.46387v1.3916l-1.3916,1.3916h-5.10254v-6.49414h5.10254zM227.01173,178.6084h-2.31934v0.46387h2.31934l0.23193,-0.23242zM224.69239,180.92774v0.46387h2.31934l0.23193,-0.23242l-0.23193,-0.23145z"/><path d="M230.2588,176.75293h1.85547v4.63867h3.71094v1.85547h-5.56641z"/><path d="M238.14454,176.75293h3.71094l1.3916,1.3916v5.10254h-1.85547v-1.3916h-2.7832v1.3916h-1.85547v-5.10254zM240.92775,178.6084h-1.85547l-0.46387,0.46387v0.92773h2.7832v-0.92773z"/><path d="M244.17482,176.75293h5.10254l1.3916,1.3916v3.71094l-1.3916,1.3916h-5.10254zM246.03029,178.6084v2.7832h2.31934l0.46387,-0.46387v-1.85547l-0.46387,-0.46387h-2.31934z"/><path d="M253.45215,181.3916h3.71094v1.85547h-5.56641v-6.49414h5.56641v1.85547h-3.71094v0.46387h3.71094v1.85547h-3.71094z"/><text transform="translate(180.35262,193.55001) scale(0.18116,0.19935)" font-size="40" xml:space="preserve" fill="#000000" fill-rule="nonzero" stroke="none" stroke-width="1" stroke-linecap="butt" stroke-linejoin="miter" stroke-miterlimit="10" stroke-dasharray="" stroke-dashoffset="0" font-family="Sans Serif" font-weight="normal" text-anchor="start" style="mix-blend-mode: normal"><tspan x="0" dy="0">Deadly blade, for close encounters</tspan></text></g></g></svg>