<svg version="1.1" xmlns="http://www.w3.org/2000/svg" xmlns:xlink="http://www.w3.org/1999/xlink" width="46" height="6.6" viewBox="0,0,46,6.6"><g transform="translate(-217,-176.7)"><g data-paper-data="{&quot;isPaintingLayer&quot;:true}" fill="#000000" fill-rule="nonzero" stroke="none" stroke-width="1" stroke-linecap="butt" stroke-linejoin="miter" stroke-miterlimit="10" stroke-dasharray="" stroke-dashoffset="0" style="mix-blend-mode: normal"><path d="M222.4,176.7v1.8h-3.6v0.5h3.6v1.8h-3.6v2.3h-1.8v-6.4z"/><path d="M224.6,176.7h3.6l1.4,1.4v5h-1.8v-1.4h-2.7v1.4h-1.8v-5zM227.4,178.6h-1.9l-0.4,0.4v0.9h2.7v-0.9z"/><path d="M235.5,176.7l1.4,1.4l-1.4,1.4l-0.9,-0.9h-1.8l-0.5,0.5v1.8l0.5,0.5h1.8l0.9,-0.9l1.4,1.4l-1.4,1.4h-3.6l-1.4,-1.4v-3.8l1.4,-1.4z"/><path d="M239.5,183.1h-1.8v-6.4h1.8z"/><path d="M240.5,176.7h1.8v4.5h3.6v1.8h-5.4z"/><path d="M248.6,183.1h-1.8v-6.4h1.8z"/><path d="M253.5,178.6v4.5h-1.8v-4.5h-2.3v-1.9h6.3v1.8h-2.2z"/><path d="M256.7,179.9v-3.2h1.8v2.3l0.5,0.5h1.8l0.5,-0.5v-2.3h1.7v3.2l-1.4,1.4h-0.9v1.8h-1.7v-1.8h-0.9z"/></g></g></svg>