<svg version="1.1" xmlns="http://www.w3.org/2000/svg" xmlns:xlink="http://www.w3.org/1999/xlink" width="113.2" height="38.8" viewBox="0,0,113.2,38.8"><g transform="translate(-183.4,-160.6)"><g data-paper-data="{&quot;isPaintingLayer&quot;:true}" fill-rule="nonzero" stroke="none" stroke-linecap="butt" stroke-linejoin="miter" stroke-miterlimit="10" stroke-dasharray="" stroke-dashoffset="0" style="mix-blend-mode: normal"><g fill="#ffffff" stroke-width="1"><path d="M204.49512,180.19189h-1.85547v-6.49414h1.85547z"/><path d="M207.27832,176.94482v3.24707h-1.85547v-6.49414h1.3916l3.24707,3.24707v-3.24707h1.85547v6.49414h-1.3916z"/><path d="M218.41113,173.69775v1.85547h-3.71093v0.46387h3.71094v1.85547h-3.71094v2.31934h-1.85547v-6.49414h5.5664z"/><path d="M221.19434,180.19189h-1.85547v-6.49414h1.85547z"/><path d="M223.97754,176.94482v3.24707h-1.85547v-6.49414h1.3916l3.24707,3.24707v-3.24707h1.85547v6.49414h-1.3916z"/><path d="M231.39941,180.19189h-1.85547v-6.49414h1.85547z"/><path d="M236.50195,175.55322v4.63867h-1.85547v-4.63867h-2.31934v-1.85547h6.49414v1.85547z"/><path d="M241.60449,178.33643h3.71191v1.85547h-5.56738v-6.49414h5.56738v1.85547h-3.71191v0.46387h3.71191v1.85547h-3.71191z"/><path d="M249.99219,173.69775h3.71094l1.3916,1.3916v5.10254h-1.85547v-1.3916h-2.7832v1.3916h-1.85547v-5.10254zM252.77539,175.55322h-1.85547l-0.46387,0.46387v0.92773h2.7832v-0.92773z"/><path d="M257.87793,176.48096v3.71094h-1.85547v-6.49414h1.85547l1.3916,1.3916l1.3916,-1.3916h1.85547v6.49414h-1.85547v-3.71094l-1.3916,1.3916z"/><path d="M265.2998,176.48096v3.71094h-1.85547v-6.49414h1.85547l1.3916,1.3916l1.3916,-1.3916h1.85547v6.49414h-1.85547v-3.71094l-1.3916,1.3916z"/><path d="M270.86621,178.80029v-3.71094l1.3916,-1.3916h3.71094l1.3916,1.3916v3.71094l-1.3916,1.3916h-3.71094zM272.72168,176.01709v1.85547l0.46387,0.46387h1.85547l0.46387,-0.46387v-1.85547l-0.46387,-0.46387h-1.85547z"/></g><g fill="#ffffff" stroke-width="1"><path d="M217.40039,183.83057v2.4502h-0.21338l-1.57471,-1.98829v1.98828h-0.25928v-2.4502h0.21338l1.57861,1.98828v-1.98827z"/><path d="M219.93066,186.05713v0.22363h-1.73242v-2.4502h1.68018v0.22461h-1.4209v0.87109h1.2666v0.2207h-1.2666v0.91016h1.47314z"/><path d="M222.54199,183.83057l-1.08496,2.4502h-0.25537l-1.08496,-2.4502h0.27979l0.93799,2.12793l0.94482,-2.12793z"/><path d="M224.62793,186.05713v0.22363h-1.73242v-2.4502h1.68018v0.22461h-1.4209v0.87109h1.2666v0.2207h-1.2666v0.91016h1.47314z"/><path d="M226.90967,186.28076l-0.55957,-0.78711c-0.06299,0.00684 -0.12842,0.00977 -0.19629,0.00977h-0.65771v0.77734h-0.25928v-2.4502h0.91699c0.3125,0 0.55762,0.0752 0.73486,0.22461c0.17773,0.14941 0.26611,0.35449 0.26611,0.61523c0,0.19141 -0.04834,0.35352 -0.14502,0.48535c-0.09716,0.13185 -0.23535,0.22657 -0.41503,0.28517l0.59863,0.83984zM226.70361,185.12256c0.12793,-0.10742 0.19239,-0.25781 0.19239,-0.45215c0,-0.19824 -0.06445,-0.35059 -0.19238,-0.45605c-0.12842,-0.10645 -0.31396,-0.15918 -0.55664,-0.15918h-0.65088v1.22852h0.65088c0.24267,-0.00001 0.42822,-0.05372 0.55663,-0.16114z"/><path d="M230.35742,186.28076l-0.55957,-0.78711c-0.06299,0.00684 -0.12842,0.00977 -0.19629,0.00977h-0.65771v0.77734h-0.25928v-2.4502h0.91699c0.3125,0 0.55762,0.0752 0.73486,0.22461c0.17773,0.14941 0.26611,0.35449 0.26611,0.61523c0,0.19141 -0.04834,0.35352 -0.14502,0.48535c-0.09716,0.13185 -0.23534,0.22657 -0.41503,0.28517l0.59863,0.83984zM230.15137,185.12256c0.12793,-0.10742 0.19238,-0.25781 0.19238,-0.45215c0,-0.19824 -0.06445,-0.35059 -0.19238,-0.45605c-0.12842,-0.10645 -0.31396,-0.15918 -0.55664,-0.15918h-0.65088v1.22852h0.65088c0.24267,-0.00001 0.42822,-0.05372 0.55664,-0.16114z"/><path d="M231.45996,186.02881c-0.17725,-0.18164 -0.26611,-0.44727 -0.26611,-0.79492v-1.40332h0.25928v1.39355c0,0.28418 0.06396,0.49707 0.19238,0.63672c0.12842,0.13965 0.31348,0.20996 0.55664,0.20996c0.24463,0 0.43164,-0.07031 0.55957,-0.20996c0.12842,-0.13965 0.19287,-0.35254 0.19287,-0.63672v-1.39355h0.25195v1.40332c0,0.34766 -0.08838,0.61328 -0.26416,0.79492c-0.17627,0.18164 -0.42334,0.27344 -0.74023,0.27344c-0.31738,0 -0.56494,-0.0918 -0.74219,-0.27344z"/><path d="M236.03418,183.83057v2.4502h-0.21338l-1.57471,-1.98828v1.98828h-0.25928v-2.4502h0.21338l1.57861,1.98828v-1.98828z"/><path d="M238.16016,186.13916c-0.19678,-0.1084 -0.35107,-0.25781 -0.46191,-0.44629c-0.11084,-0.18945 -0.16602,-0.40137 -0.16602,-0.63672c0,-0.23633 0.05518,-0.44824 0.16602,-0.6377c0.11084,-0.18848 0.26514,-0.33789 0.46191,-0.44629c0.19727,-0.1084 0.41748,-0.16211 0.66016,-0.16211c0.24268,0 0.46143,0.05371 0.65625,0.16113c0.19482,0.10645 0.34814,0.25586 0.45996,0.44629c0.1123,0.18945 0.16797,0.40234 0.16797,0.63867c0,0.23535 -0.05566,0.44824 -0.16797,0.63867c-0.11182,0.18945 -0.26514,0.33887 -0.45996,0.44629c-0.19482,0.10742 -0.41357,0.16113 -0.65625,0.16113c-0.24268,0 -0.4629,-0.05467 -0.66016,-0.16307zM239.34521,185.93994c0.15625,-0.08789 0.27881,-0.20898 0.36719,-0.36426c0.08887,-0.15527 0.1333,-0.32812 0.1333,-0.51953c0,-0.19141 -0.04443,-0.36523 -0.1333,-0.52051c-0.08838,-0.1543 -0.21094,-0.27637 -0.36719,-0.36328c-0.15625,-0.08789 -0.33154,-0.13184 -0.5249,-0.13184c-0.19385,0 -0.36963,0.04395 -0.52686,0.13184c-0.15771,0.08691 -0.28125,0.20898 -0.37109,0.36328c-0.08984,0.15527 -0.13477,0.3291 -0.13477,0.52051c0,0.19141 0.04492,0.36426 0.13477,0.51953c0.08985,0.15527 0.21338,0.27637 0.37109,0.36426c0.15723,0.08691 0.33301,0.13086 0.52686,0.13086c0.19336,0 0.36865,-0.04394 0.5249,-0.13086z"/><path d="M240.93066,186.02881c-0.17725,-0.18164 -0.26611,-0.44727 -0.26611,-0.79492v-1.40332h0.25928v1.39355c0,0.28418 0.06396,0.49707 0.19238,0.63672c0.12891,0.13965 0.31348,0.20996 0.55664,0.20996c0.24512,0 0.43164,-0.07031 0.55957,-0.20996c0.12891,-0.13965 0.19336,-0.35254 0.19336,-0.63672v-1.39355h0.25195v1.40332c0,0.34766 -0.08887,0.61328 -0.26465,0.79492c-0.17578,0.18164 -0.42285,0.27344 -0.74023,0.27344c-0.31738,0 -0.56445,-0.0918 -0.74219,-0.27344z"/><path d="M243.88477,184.05518h-0.86035v-0.22461h1.98047v0.22461h-0.86133v2.22559h-0.25879z"/><path d="M246.74609,186.13916c-0.19727,-0.1084 -0.35156,-0.25781 -0.46191,-0.44629c-0.11133,-0.18945 -0.16602,-0.40137 -0.16602,-0.63672c0,-0.23633 0.05469,-0.44824 0.16602,-0.6377c0.11035,-0.18848 0.26465,-0.33789 0.46191,-0.44629c0.19726,-0.1084 0.41699,-0.16211 0.66016,-0.16211c0.24219,0 0.46094,0.05371 0.65625,0.16113c0.19434,0.10645 0.34766,0.25586 0.45996,0.44629c0.1123,0.18945 0.16797,0.40234 0.16797,0.63867c0,0.23535 -0.05566,0.44824 -0.16797,0.63867c-0.1123,0.18945 -0.26562,0.33887 -0.45996,0.44629c-0.19531,0.10742 -0.41406,0.16113 -0.65625,0.16113c-0.24316,0.00002 -0.46289,-0.05467 -0.66016,-0.16307zM247.93066,185.93994c0.15625,-0.08789 0.2793,-0.20898 0.36719,-0.36426c0.08887,-0.15527 0.13379,-0.32812 0.13379,-0.51953c0,-0.19141 -0.04492,-0.36523 -0.13379,-0.52051c-0.08789,-0.1543 -0.21094,-0.27637 -0.36719,-0.36328c-0.15625,-0.08789 -0.33105,-0.13184 -0.52441,-0.13184c-0.19434,0 -0.37012,0.04395 -0.52734,0.13184c-0.15723,0.08691 -0.28125,0.20898 -0.37109,0.36328c-0.08984,0.15527 -0.13477,0.3291 -0.13477,0.52051c0,0.19141 0.04492,0.36426 0.13477,0.51953c0.08985,0.15527 0.21387,0.27637 0.37109,0.36426c0.15723,0.08691 0.33301,0.13086 0.52734,0.13086c0.19336,0 0.36816,-0.04394 0.52441,-0.13086z"/><path d="M249.53027,184.05518v0.96191h1.2666v0.22461h-1.2666v1.03906h-0.25879v-2.4502h1.67969v0.22461h-1.4209z"/><path d="M253.94043,185.62646h-1.36523l-0.29395,0.6543h-0.26953l1.12012,-2.4502h0.25586l1.12012,2.4502h-0.27344zM253.8457,185.4165l-0.58789,-1.31641l-0.58789,1.31641z"/><path d="M257.45801,183.83057v2.4502h-0.24902v-1.95997l-0.96191,1.64844h-0.12305l-0.96191,-1.6377v1.94922h-0.24902v-2.4502h0.21387l1.06348,1.81641l1.05371,-1.81641h0.21385z"/><path d="M260.80078,183.83057v2.4502h-0.24805v-1.95997l-0.96289,1.64844h-0.12207l-0.96289,-1.6377v1.94922h-0.24805v-2.4502h0.21289l1.06445,1.81641l1.05371,-1.81641h0.2129z"/><path d="M262.00977,186.13916c-0.19727,-0.1084 -0.35156,-0.25781 -0.46191,-0.44629c-0.11133,-0.18945 -0.16699,-0.40137 -0.16699,-0.63672c0,-0.23633 0.05566,-0.44824 0.16699,-0.6377c0.11035,-0.18848 0.26465,-0.33789 0.46191,-0.44629c0.19726,-0.1084 0.41699,-0.16211 0.65918,-0.16211c0.24316,0 0.46191,0.05371 0.65625,0.16113c0.19531,0.10645 0.34863,0.25586 0.46094,0.44629c0.11133,0.18945 0.16797,0.40234 0.16797,0.63867c0,0.23535 -0.05664,0.44824 -0.16797,0.63867c-0.1123,0.18945 -0.26562,0.33887 -0.46094,0.44629c-0.19434,0.10742 -0.41309,0.16113 -0.65625,0.16113c-0.24219,0.00002 -0.46192,-0.05467 -0.65918,-0.16307zM263.19434,185.93994c0.15625,-0.08789 0.27832,-0.20898 0.36719,-0.36426c0.08887,-0.15528 0.13281,-0.32812 0.13281,-0.51953c0,-0.19141 -0.04395,-0.36523 -0.13281,-0.52051c-0.08887,-0.1543 -0.21094,-0.27637 -0.36719,-0.36328c-0.15625,-0.08789 -0.33105,-0.13184 -0.52539,-0.13184c-0.19336,0 -0.36914,0.04395 -0.52637,0.13184c-0.15723,0.08691 -0.28125,0.20898 -0.37109,0.36328c-0.08984,0.15527 -0.13477,0.3291 -0.13477,0.52051c0,0.19141 0.04492,0.36426 0.13477,0.51953c0.08985,0.15527 0.21387,0.27637 0.37109,0.36426c0.15723,0.08691 0.33301,0.13086 0.52637,0.13086c0.19433,0 0.36914,-0.04394 0.52539,-0.13086z"/><path d="M264.45996,186.24365c-0.03711,-0.03613 -0.05469,-0.07812 -0.05469,-0.12695c0,-0.05176 0.01758,-0.09473 0.05273,-0.12793c0.03516,-0.03418 0.0791,-0.05078 0.13281,-0.05078c0.05078,0 0.09473,0.0166 0.12988,0.05078c0.03418,0.0332 0.05176,0.07617 0.05176,0.12793c0,0.04883 -0.01758,0.09082 -0.05176,0.12695c-0.03516,0.03613 -0.0791,0.05469 -0.12988,0.05469c-0.05175,0 -0.09472,-0.01856 -0.13085,-0.05469zM264.44336,183.83057h0.29395l-0.05176,1.71484h-0.19238z"/></g><path d="M183.4,199.4v-38.8h113.2v38.8z" fill="none" stroke-width="0"/></g></g></svg>