<svg version="1.1" xmlns="http://www.w3.org/2000/svg" xmlns:xlink="http://www.w3.org/1999/xlink" width="28.005" height="6.323" viewBox="0,0,28.005,6.323"><g transform="translate(-225.948,-176.844)"><g data-paper-data="{&quot;isPaintingLayer&quot;:true}" fill="#000000" fill-rule="nonzero" stroke="none" stroke-width="1" stroke-linecap="butt" stroke-linejoin="miter" stroke-miterlimit="10" stroke-dasharray="" stroke-dashoffset="0" style="mix-blend-mode: normal"><path/><path d="M227.755,180.006v3.161h-1.807v-6.323h1.355l3.162,3.162v-3.162h1.807v6.323h-1.355z"/><path d="M234.53,176.844h3.613l1.355,1.355v4.968h-1.807v-1.355h-2.71v1.354h-1.807v-4.967zM237.24,178.651h-1.807l-0.452,0.452v0.903h2.71v-0.904z"/><path d="M242.208,180.006v3.161h-1.807v-6.323h1.355l3.162,3.162v-3.162h1.807v6.323h-1.355z"/><path d="M247.628,180.006v-3.162h1.807v2.258l0.451,0.452h1.807l0.453,-0.452v-2.258h1.807v3.162l-1.355,1.354h-0.904v1.807h-1.807v-1.807h-0.902z"/><path/></g></g></svg>