<svg version="1.1" xmlns="http://www.w3.org/2000/svg" xmlns:xlink="http://www.w3.org/1999/xlink" width="21.2" height="6.6" viewBox="0,0,21.2,6.6"><g transform="translate(-229.4,-176.7)"><g data-paper-data="{&quot;isPaintingLayer&quot;:true}" fill="#000000" fill-rule="nonzero" stroke="none" stroke-width="1" stroke-linecap="butt" stroke-linejoin="miter" stroke-miterlimit="10" stroke-dasharray="" stroke-dashoffset="0" style="mix-blend-mode: normal"><path/><path d="M235.9,178.1v1.4l-0.5,0.5l0.5,0.5v1.4l-1.4,1.4h-5.1v-6.5h5.1zM233.6,178.6h-2.3v0.5h2.3l0.2,-0.2zM231.3,180.9v0.5h2.3l0.2,-0.2l-0.2,-0.2h-2.3z"/><path d="M236.9,181.9v-3.7l1.4,-1.4h3.7l1.4,1.4v3.7l-1.4,1.4h-3.7zM238.7,179.1v1.9l0.5,0.5h1.9l0.5,-0.5v-1.9l-0.5,-0.5h-1.9z"/><path d="M247.3,178.6l1.9,-1.9h1.4v1.4l-1.9,1.9l1.9,1.9v1.4h-1.4l-1.9,-1.9l-1.9,1.9h-1.4v-1.4l1.9,-1.9l-1.9,-1.9v-1.4h1.4z"/><path/></g></g></svg>