<svg version="1.1" xmlns="http://www.w3.org/2000/svg" xmlns:xlink="http://www.w3.org/1999/xlink" width="102.5" height="102.5" viewBox="0,0,102.5,102.5"><defs><linearGradient x1="240.00002" y1="159.52713" x2="240.00002" y2="183.7538" gradientUnits="userSpaceOnUse" id="color-1"><stop offset="0" stop-color="#c39700"/><stop offset="1" stop-color="#fef200"/></linearGradient><linearGradient x1="240" y1="176.24625" x2="240" y2="200.47289" gradientUnits="userSpaceOnUse" id="color-2"><stop offset="0" stop-color="#c39700"/><stop offset="1" stop-color="#fef200"/></linearGradient><radialGradient cx="240" cy="180" r="51.25" gradientUnits="userSpaceOnUse" id="color-3"><stop offset="0" stop-color="#ffae63" stop-opacity="0.23669"/><stop offset="1" stop-color="#ffae63" stop-opacity="0"/></radialGradient></defs><g transform="translate(-188.75,-128.75)"><g data-paper-data="{&quot;isPaintingLayer&quot;:true}" fill-rule="nonzero" stroke="none" stroke-linecap="butt" stroke-linejoin="miter" stroke-miterlimit="10" stroke-dasharray="" stroke-dashoffset="0" style="mix-blend-mode: normal"><path d="M223.47095,178.57651c-0.70178,-0.70178 -0.70178,-1.83954 0,-2.54132l16.50804,-16.50806l0.02106,0.02106l0.02106,-0.02106l16.508,16.50806c0.70178,0.70178 0.70178,1.83954 0,2.54132l-4.65094,4.651c-0.70178,0.70172 -1.83954,0.70172 -2.54132,0l-8.06616,-8.06616c-0.70178,-0.70178 -1.83954,-0.70178 -2.54132,0l-8.06616,8.06616c-0.70172,0.70172 -1.83954,0.70172 -2.54132,0z" fill="url(#color-1)" stroke-width="1"/><path d="M256.52907,192.7543c0.70178,0.70172 0.70178,1.83954 0,2.54132l-4.65094,4.65094c-0.70178,0.70178 -1.83954,0.70178 -2.54132,0l-8.06616,-8.0661c-0.70178,-0.70178 -1.83954,-0.70178 -2.54132,0l-8.06616,8.0661c-0.70172,0.70178 -1.83954,0.70178 -2.54132,0l-4.65094,-4.65094c-0.70178,-0.70178 -0.70178,-1.8396 0,-2.54132l16.50805,-16.50805l0.02106,0.02106l0.02106,-0.02106z" fill="url(#color-2)" stroke-width="1"/><path d="M188.75,180c0,-28.30459 22.94541,-51.25 51.25,-51.25c28.30459,0 51.25,22.94541 51.25,51.25c0,28.30459 -22.94541,51.25 -51.25,51.25c-28.30459,0 -51.25,-22.94541 -51.25,-51.25z" fill="url(#color-3)" stroke-width="0"/></g></g></svg>