<svg xmlns="http://www.w3.org/2000/svg" xmlns:xlink="http://www.w3.org/1999/xlink" version="1.1" width="25.906152844429016" height="6.669352173805237" viewBox="0.10067403316497803 -0.560726061463356 25.906152844429016 6.669352173805237">
  <!-- Exported by Scratch - http://scratch.mit.edu/ -->
  <g id="ID0.22649069782346487">
    <g id="ID0.36312311235815287">
      <path id="ID0.7300510690547526" fill="#FFFFFF" d="M 10.266 3.535 L 9.99 4.186 L 9.483 4.186 L 10.756 1.302 L 11.255 1.302 L 12.515 4.186 L 11.996 4.186 L 11.72 3.535 L 10.266 3.535 Z M 10.991 1.821 L 10.447 3.102 L 11.534 3.102 L 10.991 1.821 Z " stroke-width="1"/>
      <path id="ID0.36719576921314" fill="#FFFFFF" d="M 15.502 4.186 L 15.498 2.031 L 14.587 3.885 L 14.27 3.885 L 13.36 2.031 L 13.36 4.186 L 12.902 4.186 L 12.902 1.302 L 13.479 1.302 L 14.431 3.218 L 15.378 1.302 L 15.951 1.302 L 15.951 4.186 L 15.502 4.186 Z " stroke-width="1"/>
      <path id="ID0.7413269951939583" fill="#FFFFFF" d="M 19.32 4.186 L 19.315 2.031 L 18.405 3.885 L 18.088 3.885 L 17.178 2.031 L 17.178 4.186 L 16.72 4.186 L 16.72 1.302 L 17.297 1.302 L 18.249 3.218 L 19.196 1.302 L 19.769 1.302 L 19.769 4.186 L 19.32 4.186 Z " stroke-width="1"/>
      <path id="ID0.4601315399631858" fill="#FFFFFF" d="M 23.355 2.744 C 23.355 3.568 22.687 4.206 21.827 4.206 C 20.966 4.206 20.298 3.568 20.298 2.744 C 20.298 1.916 20.966 1.289 21.827 1.289 C 22.688 1.289 23.355 1.92 23.355 2.744 Z M 20.793 2.744 C 20.793 3.317 21.267 3.77 21.831 3.77 C 22.395 3.77 22.856 3.317 22.856 2.744 C 22.856 2.171 22.395 1.726 21.831 1.726 C 21.263 1.726 20.793 2.171 20.793 2.744 Z " stroke-width="1"/>
      <path id="ID0.374186831060797" fill="#FFFFFF" d="M 24.684 3.012 L 24.684 3.733 L 24.374 3.733 L 24.374 3.012 L 23.645 3.012 L 23.645 2.686 L 24.374 2.686 L 24.374 1.965 L 24.684 1.965 L 24.684 2.686 L 25.409 2.686 L 25.409 3.011 L 24.684 3.011 Z " stroke-width="1"/>
    </g>
    <g id="ID0.3203046112321317">
      <g id="ID0.6472761947661638">
        <path id="ID0.2888800879009068" fill="#FFFFFF" d="M 3.0073 2.2562 L 5.0602 2.2562 L 5.0602 5.5108 L 3.0073 5.5108 L 3.0073 2.2562 Z " stroke-width="1.1956521272659302"/>
        <path id="ID0.09916676068678498" fill="#FFFFFF" d="M 3.0073 1.9872 C 3.0073 1.4133 4.0332 0.0371 4.0332 0.0371 C 4.0332 0.0371 5.059 1.4121 5.059 1.9872 " stroke-width="1.1956521272659302"/>
      </g>
      <g id="ID0.2442772570066154">
        <g id="ID0.9934429684653878">
          <path id="ID0.8332942449487746" fill="#FFFFFF" d="M 0.6985 2.2562 L 2.7514 2.2562 L 2.7514 5.5108 L 0.6985 5.5108 L 0.6985 2.2562 Z " stroke-width="1.1956521272659302"/>
          <path id="ID0.4255731329321861" fill="#FFFFFF" d="M 0.6985 1.9872 C 0.6985 1.4133 1.7243 0.0371 1.7243 0.0371 C 1.7243 0.0371 2.7502 1.4121 2.7502 1.9872 " stroke-width="1.1956521272659302"/>
        </g>
        <g id="ID0.5083807804621756">
          <path id="ID0.5741397580131888" fill="#FFFFFF" d="M 5.3448 2.2562 L 7.3977 2.2562 L 7.3977 5.5108 L 5.3448 5.5108 L 5.3448 2.2562 Z " stroke-width="1.1956521272659302"/>
          <path id="ID0.3861135467886925" fill="#FFFFFF" d="M 5.3448 1.9872 C 5.3448 1.4133 6.3707 0.0371 6.3707 0.0371 C 6.3707 0.0371 7.3965 1.4121 7.3965 1.9872 " stroke-width="1.1956521272659302"/>
        </g>
      </g>
    </g>
  </g>
</svg>