<svg version="1.1" xmlns="http://www.w3.org/2000/svg" xmlns:xlink="http://www.w3.org/1999/xlink" width="57.6404" height="18.5057" viewBox="0,0,57.6404,18.5057"><g transform="translate(-211.1798,-170.74715)"><g data-paper-data="{&quot;isPaintingLayer&quot;:true}" fill-rule="nonzero" stroke="none" stroke-width="1" stroke-linecap="butt" stroke-linejoin="miter" stroke-miterlimit="10" stroke-dasharray="" stroke-dashoffset="0" style="mix-blend-mode: normal"><g><g fill="#000000"><path d="M266.4438,189.25285h-52.8876c-1.307,0 -2.3764,-1.0694 -2.3764,-2.3764v-13.6517c0,-1.307 1.0694,-2.3764 2.3764,-2.3764h52.8876c1.307,0 2.3764,1.0694 2.3764,2.3764v13.6517c0,1.307 -1.0694,2.3764 -2.3764,2.3764z"/></g><g fill="#ffffff"><path d="M224.9564,175.15515h1.9434v6.8164h4.2119v1.584h-6.1553z"/><path d="M239.6917,175.15515l-3.6357,8.4004h-1.9199l-3.624,-8.4004h2.0996l2.5557,6l2.5928,-6z"/><path d="M240.388,175.15515h1.9434v6.8164h4.2119v1.584h-6.1553z"/><path d="M253.7435,175.15515v8.4004h-1.9434v-6.8398h-1.6807v-1.5605h3.6241z"/></g><g fill="#000000"><path d="M266.4438,189.15165h-52.8876c-1.307,0 -2.3764,-1.0694 -2.3764,-2.3764v-13.6517c0,-1.307 1.0694,-2.3764 2.3764,-2.3764h52.8876c1.307,0 2.3764,1.0694 2.3764,2.3764v13.6517c0,1.307 -1.0694,2.3764 -2.3764,2.3764z"/></g><g fill="#ffffff"><path d="M224.1371,175.05365h1.9434v6.8154h4.2119v1.584h-6.1553z"/><path d="M238.8724,175.05365l-3.6357,8.3994h-1.9199l-3.624,-8.3994h2.1005l2.5557,6l2.5918,-6z"/><path d="M239.5687,175.05365h1.9434v6.8154h4.2119v1.584h-6.1553z"/><path d="M255.1927,178.50965c0.4395,0.2158 0.7871,0.5215 1.0439,0.918c0.2559,0.3955 0.3838,0.8535 0.3838,1.374c0,0.5596 -0.1396,1.0518 -0.4199,1.4756c-0.2803,0.4238 -0.6621,0.75 -1.1465,0.9775c-0.4834,0.2285 -1.0215,0.3428 -1.6133,0.3428c-1.1768,0 -2.0967,-0.3604 -2.7607,-1.0801c-0.664,-0.7197 -0.9961,-1.748 -0.9961,-3.084c0,-0.9521 0.1807,-1.7686 0.54,-2.4482c0.3604,-0.6797 0.8623,-1.1963 1.5068,-1.5479c0.6436,-0.3525 1.3896,-0.5283 2.2373,-0.5283c0.4482,0 0.8779,0.0498 1.29,0.1504c0.4121,0.0996 0.7627,0.2422 1.0498,0.4258l-0.7197,1.4277c-0.416,-0.2793 -0.9404,-0.4199 -1.5723,-0.4199c-0.7119,0 -1.2754,0.208 -1.6914,0.624c-0.416,0.416 -0.6406,1.0205 -0.6719,1.8125c0.4961,-0.4961 1.1875,-0.7441 2.0762,-0.7441c0.5353,0 1.0236,0.1074 1.464,0.3242zM254.346,181.80945c0.2598,-0.2236 0.3906,-0.5283 0.3906,-0.9121c0,-0.3838 -0.1309,-0.6904 -0.3906,-0.918c-0.2598,-0.2285 -0.6055,-0.3418 -1.0381,-0.3418c-0.4238,0 -0.7715,0.1182 -1.0439,0.3535c-0.2715,0.2363 -0.4072,0.5381 -0.4072,0.9062c0,0.3681 0.1318,0.668 0.3955,0.9004c0.2637,0.2314 0.624,0.3477 1.0801,0.3477c0.416,0.0001 0.7539,-0.1122 1.0136,-0.3359z"/></g></g></g></g></svg>