<svg version="1.1" xmlns="http://www.w3.org/2000/svg" xmlns:xlink="http://www.w3.org/1999/xlink" width="57.6404" height="18.4045" viewBox="0,0,57.6404,18.4045"><g transform="translate(-211.1798,-170.79775)"><g data-paper-data="{&quot;isPaintingLayer&quot;:true}" fill-rule="nonzero" stroke="none" stroke-width="1" stroke-linecap="butt" stroke-linejoin="miter" stroke-miterlimit="10" stroke-dasharray="" stroke-dashoffset="0" style="mix-blend-mode: normal"><path d="M266.4438,189.20225h-52.8876c-1.307,0 -2.3764,-1.0694 -2.3764,-2.3764v-13.6517c0,-1.307 1.0694,-2.3764 2.3764,-2.3764h52.8876c1.307,0 2.3764,1.0694 2.3764,2.3764v13.6517c0,1.307 -1.0694,2.3764 -2.3764,2.3764z" fill="#000000"/><g fill="#ffba29"><path d="M221.5323,175.10415h1.9443v6.8159h4.2119v1.584h-6.1562z"/><path d="M236.2676,175.10415l-3.6357,8.3999h-1.9199l-3.624,-8.3999h2.1006l2.5557,6l2.5918,-6z"/><path d="M236.9639,175.10415h1.9443v6.8159h4.2119v1.584h-6.1562z"/><path d="M250.3204,175.10415v8.3999h-1.9443v-6.8398h-1.6797v-1.5601z"/><path d="M253.5235,183.13195c-0.5439,-0.3438 -0.9697,-0.8418 -1.2773,-1.4941c-0.3086,-0.6519 -0.4629,-1.4297 -0.4629,-2.334c0,-0.9038 0.1543,-1.6816 0.4629,-2.334c0.3076,-0.6519 0.7334,-1.1499 1.2773,-1.4937c0.5439,-0.3442 1.1641,-0.5161 1.8604,-0.5161c0.6963,0 1.3154,0.1719 1.8604,0.5161c0.5439,0.3438 0.9697,0.8418 1.2773,1.4937c0.3076,0.6523 0.4619,1.4302 0.4619,2.334c0,0.9043 -0.1543,1.6821 -0.4619,2.334c-0.3076,0.6523 -0.7334,1.1504 -1.2773,1.4941c-0.5449,0.3442 -1.1641,0.5161 -1.8604,0.5161c-0.6963,0 -1.3165,-0.1719 -1.8604,-0.5161zM256.5899,181.34385c0.292,-0.4399 0.4375,-1.1196 0.4375,-2.04c0,-0.9199 -0.1455,-1.5996 -0.4375,-2.04c-0.292,-0.4395 -0.6943,-0.6597 -1.2061,-0.6597c-0.5039,0 -0.9023,0.2202 -1.1943,0.6597c-0.292,0.4404 -0.4375,1.1201 -0.4375,2.04c0,0.9204 0.1455,1.6001 0.4375,2.04c0.292,0.4404 0.6904,0.6602 1.1943,0.6602c0.5118,0 0.9141,-0.2198 1.2061,-0.6602z"/></g></g></g></svg>