<svg version="1.1" xmlns="http://www.w3.org/2000/svg" xmlns:xlink="http://www.w3.org/1999/xlink" width="34.30591" height="7.52033"><g transform="translate(-217.74704,-176.73983)"><g data-paper-data="{&quot;isPaintingLayer&quot;:true}" fill="none" fill-rule="nonzero" stroke="none" stroke-width="none" stroke-linecap="butt" stroke-linejoin="miter" stroke-miterlimit="10" stroke-dasharray="" stroke-dashoffset="0" font-family="none" font-weight="none" font-size="none" text-anchor="none" style="mix-blend-mode: normal"><path d="M217.8,176.75h34.25v7.5h-34.25z" data-paper-data="{&quot;origPos&quot;:null}" id="ID0.5178670925088227" fill="#2f312f" stroke="none" stroke-width="1"/><path d="M251.80296,184.01017h-33.80591v-7.02033h33.80591z" data-paper-data="{&quot;noHover&quot;:false,&quot;origItem&quot;:[&quot;Path&quot;,{&quot;applyMatrix&quot;:true,&quot;segments&quot;:[[503.508,354],[436.092,354],[436.092,368],[503.508,368]],&quot;closed&quot;:true,&quot;fillColor&quot;:[0,0,0,1]}],&quot;origPos&quot;:null}" fill="#000000" stroke="#ffffff" stroke-width="0.5"/><path d="M222.599,180.261c0,-0.923 0.747,-1.633 1.707,-1.633c0.46,0 0.919,0.19 1.234,0.501l-0.32,0.399c-0.236,-0.255 -0.575,-0.413 -0.904,-0.413c-0.65,0 -1.16,0.501 -1.16,1.141c0,0.64 0.511,1.146 1.16,1.146c0.324,0 0.658,-0.149 0.904,-0.386l0.325,0.362c-0.329,0.325 -0.798,0.533 -1.257,0.533c-0.951,0 -1.689,-0.719 -1.689,-1.65z" data-paper-data="{&quot;origPos&quot;:null}" id="ID0.6675382475368679" fill="#ffffff" stroke="none" stroke-width="1"/><path d="M225.76,180.265c0,-0.933 0.751,-1.638 1.721,-1.638c0.97,0 1.721,0.711 1.721,1.638c0,0.927 -0.752,1.646 -1.721,1.646c-0.97,0 -1.722,-0.719 -1.721,-1.646zM226.316,180.265c0,0.644 0.534,1.155 1.169,1.155c0.635,0 1.155,-0.51 1.155,-1.155c0,-0.645 -0.52,-1.146 -1.155,-1.146c-0.64,0 -1.169,0.502 -1.169,1.146z" data-paper-data="{&quot;origPos&quot;:null}" id="ID0.5982631552033126" fill="#ffffff" stroke="none" stroke-width="1"/><path d="M230.33,179.56v2.329h-0.548v-3.248h0.538l1.74,2.334v-2.334h0.538v3.248h-0.538l-1.73,-2.329" data-paper-data="{&quot;origPos&quot;:null}" id="ID0.4333556010387838" fill="#ffffff" stroke="none" stroke-width="1"/><path d="M234.092,181.889v-2.756h-1.025v-0.492h2.603v0.492h-1.03v2.756h-0.548" data-paper-data="{&quot;origPos&quot;:null}" id="ID0.8188963732682168" fill="#ffffff" stroke="none" stroke-width="1"/><path d="M236.135,178.641h0.548v3.248h-0.548z" data-paper-data="{&quot;origPos&quot;:null}" id="ID0.3689384222961962" fill="#ffffff" stroke="none" stroke-width="1"/><path d="M238.082,179.56v2.329h-0.547v-3.248h0.538l1.739,2.334v-2.334h0.539v3.248h-0.539l-1.73,-2.329" data-paper-data="{&quot;origPos&quot;:null}" id="ID0.4471791931428015" fill="#ffffff" stroke="none" stroke-width="1"/><path d="M241.14,180.543v-1.902h0.547v1.902c0,0.547 0.338,0.877 0.872,0.877c0.528,0 0.858,-0.325 0.858,-0.877v-1.902h0.547v1.902c0,0.848 -0.533,1.368 -1.41,1.368c-0.877,0 -1.414,-0.519 -1.414,-1.368z" data-paper-data="{&quot;origPos&quot;:null}" id="ID0.1395214730873704" fill="#ffffff" stroke="none" stroke-width="1"/><path d="M247.121,181.396v0.493h-2.375v-3.248h2.318v0.492h-1.771v0.877h1.586v0.491h-1.586v0.895h1.828" data-paper-data="{&quot;origPos&quot;:null}" id="ID0.495169909670949" fill="#ffffff" stroke="none" stroke-width="1"/></g></g></svg>