<svg version="1.1" xmlns="http://www.w3.org/2000/svg" xmlns:xlink="http://www.w3.org/1999/xlink" width="57.6404" height="18.5056" viewBox="0,0,57.6404,18.5056"><g transform="translate(-211.1798,-170.7472)"><g data-paper-data="{&quot;isPaintingLayer&quot;:true}" fill-rule="nonzero" stroke="none" stroke-width="1" stroke-linecap="butt" stroke-linejoin="miter" stroke-miterlimit="10" stroke-dasharray="" stroke-dashoffset="0" style="mix-blend-mode: normal"><g><g fill="#000000"><path d="M266.4439,189.2528h-52.8877c-1.307,0 -2.3764,-1.0694 -2.3764,-2.3764v-13.6517c0,-1.307 1.0694,-2.3764 2.3764,-2.3764h52.8876c1.307,0 2.3764,1.0694 2.3764,2.3764v13.6517c0.0001,1.307 -1.0693,2.3764 -2.3763,2.3764z"/></g><g fill="#ffffff"><path d="M224.9569,175.1555h1.9434v6.8154h4.2119v1.584h-6.1553z"/><path d="M239.6922,175.1555l-3.6357,8.3994h-1.9199l-3.624,-8.3994h2.0996l2.5557,6l2.5928,-6z"/><path d="M240.3885,175.1555h1.9434v6.8154h4.2119v1.584h-6.1553z"/><path d="M253.744,175.1555v8.3994h-1.9434v-6.8398h-1.6807v-1.5596z"/></g><g fill="#000000"><path d="M266.4439,189.1517h-52.8877c-1.307,0 -2.3764,-1.0694 -2.3764,-2.3764v-13.6517c0,-1.307 1.0694,-2.3764 2.3764,-2.3764h52.8876c1.307,0 2.3764,1.0694 2.3764,2.3764v13.6517c0.0001,1.307 -1.0693,2.3764 -2.3763,2.3764z"/></g><g fill="#ffffff"><path d="M224.4188,175.0539h1.9443v6.8154h4.2119v1.584h-6.1562z"/><path d="M239.1551,175.0539l-3.6357,8.3994h-1.9199l-3.624,-8.3994h2.0996l2.5557,6l2.5928,-6z"/><path d="M239.8504,175.0539h1.9443v6.8154h4.2119v1.584h-6.1562z"/><path d="M256.243,181.8693v1.584h-6.3486v-1.2598l3.2402,-3.0596c0.3438,-0.3281 0.5762,-0.6104 0.6963,-0.8467c0.1201,-0.2354 0.1797,-0.4697 0.1797,-0.7021c0,-0.3359 -0.1143,-0.5938 -0.3418,-0.7734c-0.2285,-0.1797 -0.5625,-0.2705 -1.002,-0.2705c-0.3682,0 -0.7002,0.0703 -0.9961,0.21c-0.2959,0.1406 -0.5439,0.3506 -0.7441,0.6309l-1.416,-0.9121c0.3281,-0.4883 0.7803,-0.8701 1.3564,-1.1465c0.5752,-0.2754 1.2354,-0.4141 1.9795,-0.4141c0.624,0 1.1699,0.1025 1.6377,0.3066c0.4688,0.2031 0.832,0.4912 1.0928,0.8633c0.2598,0.3721 0.3896,0.8105 0.3896,1.3145c0,0.4561 -0.0957,0.8838 -0.2881,1.2842c-0.1924,0.3994 -0.5635,0.8555 -1.1162,1.3672l-1.9316,1.8242h3.6123z"/></g></g></g></g></svg>