<svg version="1.1" xmlns="http://www.w3.org/2000/svg" xmlns:xlink="http://www.w3.org/1999/xlink" width="46.142" height="6.262" viewBox="0,0,46.142,6.262"><g transform="translate(-216.929,-176.583)"><g data-paper-data="{&quot;isPaintingLayer&quot;:true}" fill="#000000" fill-rule="nonzero" stroke="none" stroke-width="1" stroke-linecap="butt" stroke-linejoin="miter" stroke-miterlimit="10" stroke-dasharray="" stroke-dashoffset="0" style="mix-blend-mode: normal"><g><path/><path d="M216.929,177.925l1.391,-1.342h5.101v1.789h-4.173l-0.232,0.224l0.232,0.223h2.782l1.391,1.342v1.342l-1.391,1.342h-5.101v-1.789h4.174l0.231,-0.224l-0.231,-0.224h-2.783l-1.391,-1.342z"/><path d="M225.508,176.583h3.71l1.391,1.342v4.92h-1.855v-1.342h-2.782v1.342h-1.855v-4.92zM228.291,178.372h-1.855l-0.464,0.447v0.895h2.782v-0.895z"/><path d="M233.392,179.266v3.579h-1.855v-6.262h1.855l1.391,1.342l1.391,-1.342h1.855v6.262h-1.855v-3.579l-1.391,1.342z"/><path d="M238.957,181.503v-4.92h1.855v4.025l0.462,0.448h1.855l0.465,-0.448v-4.025h1.854v4.92l-1.391,1.342h-3.709z"/><path d="M252.869,177.925v1.789l-1.391,1.342l1.854,1.789h-2.782l-1.855,-1.789h-0.464v1.789h-1.854v-6.262h5.102zM251.015,178.819l-0.464,-0.447h-2.319v0.894h2.319z"/><path d="M255.188,176.583h3.71l1.391,1.342v4.92h-1.854v-1.342h-2.783v1.342h-1.854v-4.92zM257.971,178.372h-1.855l-0.464,0.447v0.895h2.783v-0.895z"/><path d="M263.071,182.845h-1.854v-6.262h1.854z"/><path/></g></g></g></svg>