<?xml version="1.0" encoding="utf-8"?><!-- Generator: Adobe Illustrator 16.0.0, SVG Export Plug-In . SVG Version: 6.00 Build 0)  --><!DOCTYPE svg PUBLIC "-//W3C//DTD SVG 1.1//EN" "http://www.w3.org/Graphics/SVG/1.1/DTD/svg11.dtd"><svg xmlns="http://www.w3.org/2000/svg" xmlns:xlink="http://www.w3.org/1999/xlink" version="1.1" id="Layer_1" x="0px" y="0px" width="66.81999969482422" height="6.676013469696045" viewBox="-9.277999877929688 4.260986804962158 66.81999969482422 6.676013469696045" enable-background="new 0 0 48 16" xml:space="preserve">
<g>
	<path fill="#FFFFFF" d="M-3.71,5.639l-0.551,0.688c-0.408-0.44-0.992-0.711-1.559-0.711c-1.12,0-1.999,0.863-1.999,1.967   s0.879,1.975,1.999,1.975c0.56,0,1.135-0.256,1.559-0.664l0.56,0.624c-0.568,0.56-1.375,0.919-2.167,0.919   c-1.639,0-2.91-1.238-2.91-2.846c0-1.591,1.287-2.814,2.942-2.814C-5.045,4.775-4.254,5.103-3.71,5.639z" stroke-width="1"/>
	<path fill="#FFFFFF" d="M1.17,10.396V8.077h-2.966v2.319H-2.74V4.799h0.944V7.23H1.17V4.799h0.943v5.597H1.17z" stroke-width="1"/>
	<path fill="#FFFFFF" d="M9.057,7.598c0,1.6-1.295,2.838-2.967,2.838c-1.671,0-2.966-1.238-2.966-2.838   c0-1.607,1.295-2.823,2.966-2.823C7.762,4.775,9.057,5.999,9.057,7.598z M4.084,7.598c0,1.111,0.919,1.99,2.015,1.99   c1.095,0,1.99-0.879,1.99-1.99s-0.896-1.975-1.99-1.975C4.996,5.623,4.084,6.486,4.084,7.598z" stroke-width="1"/>
	<path fill="#FFFFFF" d="M15.314,7.598c0,1.6-1.296,2.838-2.967,2.838S9.38,9.197,9.38,7.598c0-1.607,1.296-2.823,2.967-2.823   S15.314,5.999,15.314,7.598z M10.34,7.598c0,1.111,0.919,1.99,2.015,1.99s1.991-0.879,1.991-1.99s-0.896-1.975-1.991-1.975   C11.251,5.623,10.34,6.486,10.34,7.598z" stroke-width="1"/>
	<path fill="#FFFFFF" d="M20.122,5.335L19.73,6.167c-0.607-0.368-1.215-0.52-1.639-0.52c-0.552,0-0.912,0.208-0.912,0.584   c0,1.223,3.022,0.567,3.015,2.583c0,1-0.88,1.615-2.11,1.615c-0.88,0-1.712-0.359-2.287-0.887l0.407-0.816   c0.576,0.527,1.296,0.816,1.896,0.816c0.655,0,1.047-0.248,1.047-0.68c0-1.247-3.021-0.552-3.021-2.542   c0-0.959,0.823-1.559,2.038-1.559C18.89,4.759,19.602,4.991,20.122,5.335z" stroke-width="1"/>
	<path fill="#FFFFFF" d="M22.243,5.646v1.511h2.735v0.848h-2.735v1.543h3.15v0.848h-4.093V4.799h3.998v0.847H22.243z" stroke-width="1"/>
	<path fill="#FFFFFF" d="M29.404,9.133l-0.537,1.264h-0.982l2.471-5.597h0.967l2.447,5.597h-1.008l-0.535-1.264H29.404z    M30.811,5.807l-1.055,2.486h2.111L30.811,5.807z" stroke-width="1"/>
	<path fill="#FFFFFF" d="M37.043,8.701c-0.08,0.008-0.168,0.008-0.256,0.008h-1.328v1.688h-0.943V4.799h2.271   c1.432,0,2.254,0.695,2.254,1.911c0,0.896-0.414,1.527-1.158,1.815l1.256,1.872h-1.072L37.043,8.701z M36.787,7.861   c0.863,0,1.359-0.368,1.359-1.127c0-0.735-0.496-1.087-1.359-1.087h-1.328v2.215H36.787z" stroke-width="1"/>
	<path fill="#FFFFFF" d="M41.242,5.646v1.511h2.736v0.848h-2.736v1.543h3.15v0.848h-4.094V4.799h3.998v0.847H41.242z" stroke-width="1"/>
	<path fill="#FFFFFF" d="M49.473,10.396L46.49,6.382v4.014h-0.943V4.799h0.928l2.998,4.021V4.799H50.4v5.597H49.473z" stroke-width="1"/>
	<path fill="#FFFFFF" d="M52.676,9.133l-0.537,1.264h-0.982l2.471-5.597h0.967l2.447,5.597h-1.008l-0.535-1.264H52.676z    M54.082,5.807l-1.055,2.486h2.111L54.082,5.807z" stroke-width="1"/>
</g>
</svg>