<svg xml:space="preserve" style="enable-background:new 0 0 80 100;" viewBox="0 0 80 100" y="0px" x="0px" id="Layer_1" version="1.1" xmlns:xlink="http://www.w3.org/1999/xlink" xmlns="http://www.w3.org/2000/svg">
<g>
	<path d="M17.27051,48.23975v1.3916l-0.46387,0.46387l0.46387,0.46387v1.39111l-1.3916,1.3916h-5.10254v-6.49365h5.10254   L17.27051,48.23975z M14.95117,48.70361h-2.31934v0.46387h2.31934l0.23193-0.23193L14.95117,48.70361z M12.63184,51.02246v0.46387   h2.31934l0.23193-0.23145l-0.23193-0.23242H12.63184z"></path>
	<path d="M19.58984,46.84814h3.71094l1.3916,1.3916v5.10205h-1.85547v-1.3916h-2.7832v1.3916h-1.85547v-5.10205L19.58984,46.84814z    M22.37305,48.70361h-1.85547l-0.46387,0.46387v0.92773h2.7832v-0.92773L22.37305,48.70361z"></path>
	<path d="M32.11426,48.23975v1.85547l-1.3916,1.39111l1.85547,1.85547h-2.7832l-1.85547-1.85547h-0.46387v1.85547h-1.85547v-6.49365   h5.10254L32.11426,48.23975z M30.25879,49.16748l-0.46387-0.46387h-2.31934v0.92773h2.31934L30.25879,49.16748z"></path>
	<path d="M39.53613,48.23975v1.85547l-1.3916,1.39111L40,53.3418h-2.7832l-1.85547-1.85547h-0.46387v1.85547h-1.85547v-6.49365   h5.10254L39.53613,48.23975z M37.68066,49.16748l-0.46387-0.46387h-2.31934v0.92773h2.31934L37.68066,49.16748z"></path>
	<path d="M41.85547,46.84814h3.71094l1.3916,1.3916v5.10205h-1.85547v-1.3916h-2.7832v1.3916h-1.85547v-5.10205L41.85547,46.84814z    M44.63867,48.70361H42.7832l-0.46387,0.46387v0.92773h2.7832v-0.92773L44.63867,48.70361z"></path>
	<path d="M52.98828,46.84814l1.3916,1.3916l-1.3916,1.3916l-0.92773-0.92773h-1.85547l-0.46387,0.46387v1.85498l0.46387,0.46387   h1.85547l0.92773-0.92725l1.3916,1.39111l-1.3916,1.3916h-3.71094l-1.3916-1.3916v-3.71045l1.3916-1.3916H52.98828z"></path>
	<path d="M57.16309,51.02246v2.31934h-1.85547v-6.49365h1.85547v2.31934l2.31934-2.31934h2.7832l-3.24707,3.24707l3.24707,3.24658   h-2.7832L57.16309,51.02246z"></path>
	<path d="M62.72949,48.23975l1.3916-1.3916h5.10254v1.85547h-4.1748l-0.23242,0.23193l0.23242,0.23193h2.7832l1.3916,1.3916v1.39111   l-1.3916,1.3916h-5.10254v-1.85547h4.1748l0.23242-0.23145l-0.23242-0.23242h-2.7832l-1.3916-1.39111V48.23975z"></path>
</g>
</svg>