<svg version="1.1" xmlns="http://www.w3.org/2000/svg" xmlns:xlink="http://www.w3.org/1999/xlink" width="38.954" height="6.263" viewBox="0,0,38.954,6.263"><g transform="translate(-220.524,-176.582)"><g data-paper-data="{&quot;isPaintingLayer&quot;:true}" fill="#000000" fill-rule="nonzero" stroke="none" stroke-width="1" stroke-linecap="butt" stroke-linejoin="miter" stroke-miterlimit="10" stroke-dasharray="" stroke-dashoffset="0" style="mix-blend-mode: normal"><g><path/><path d="M225.625,182.845h-1.391l-0.464,-0.448l-0.464,0.447h-1.391l-1.391,-1.342v-4.92h1.855v4.025l0.232,0.224l0.232,-0.224v-4.024h1.855v4.025l0.231,0.224l0.232,-0.224v-4.025h1.855v4.92z"/><path d="M229.798,182.845h-1.855v-6.262h1.855z"/><path d="M233.972,178.372h-3.246v-1.789h6.492v1.342l-3.246,3.131h3.246v1.789h-6.492v-1.342z"/><path d="M239.537,176.583h3.71l1.391,1.342v4.92h-1.854v-1.342h-2.784v1.342h-1.854v-4.92zM242.319,178.372h-1.855l-0.464,0.447v0.895h2.783v-0.895z"/><path d="M252.058,177.925v1.789l-1.391,1.342l1.854,1.789h-2.782l-1.855,-1.789h-0.464v1.789h-1.854v-6.262h5.102zM250.203,178.819l-0.464,-0.447h-2.319v0.894h2.319z"/><path d="M252.985,176.583h5.102l1.391,1.342v3.578l-1.391,1.342h-5.102zM254.84,178.372v2.684h2.319l0.464,-0.448v-1.789l-0.464,-0.447z"/><path/></g></g></g></svg>