<svg version="1.1" xmlns="http://www.w3.org/2000/svg" xmlns:xlink="http://www.w3.org/1999/xlink" width="102.4" height="102.4" viewBox="0,0,102.4,102.4"><defs><radialGradient cx="240" cy="180" r="51.25" gradientUnits="userSpaceOnUse" id="color-1"><stop offset="0" stop-color="#ffae63" stop-opacity="0.2367"/><stop offset="1" stop-color="#ffae63" stop-opacity="0"/></radialGradient><linearGradient x1="220.67888" y1="204.09999" x2="220.67888" y2="157.56943" gradientUnits="userSpaceOnUse" id="color-2"><stop offset="0" stop-color="#fff300"/><stop offset="1" stop-color="#c29600"/></linearGradient><linearGradient x1="217.57429" y1="204.09999" x2="217.57429" y2="157.56943" gradientUnits="userSpaceOnUse" id="color-3"><stop offset="0" stop-color="#fff300"/><stop offset="1" stop-color="#c29600"/></linearGradient><linearGradient x1="221.44321" y1="204.09999" x2="221.44321" y2="157.56943" gradientUnits="userSpaceOnUse" id="color-4"><stop offset="0" stop-color="#fff300"/><stop offset="1" stop-color="#c29600"/></linearGradient><linearGradient x1="231.24886" y1="204.09999" x2="231.24886" y2="157.56943" gradientUnits="userSpaceOnUse" id="color-5"><stop offset="0" stop-color="#fff300"/><stop offset="1" stop-color="#c29600"/></linearGradient><linearGradient x1="229.92498" y1="204.09999" x2="229.92498" y2="157.56943" gradientUnits="userSpaceOnUse" id="color-6"><stop offset="0" stop-color="#fff300"/><stop offset="1" stop-color="#c29600"/></linearGradient><linearGradient x1="259.31439" y1="204.09999" x2="259.31439" y2="157.56943" gradientUnits="userSpaceOnUse" id="color-7"><stop offset="0" stop-color="#fff300"/><stop offset="1" stop-color="#c29600"/></linearGradient><linearGradient x1="262.41898" y1="204.09999" x2="262.41898" y2="157.56943" gradientUnits="userSpaceOnUse" id="color-8"><stop offset="0" stop-color="#fff300"/><stop offset="1" stop-color="#c29600"/></linearGradient><linearGradient x1="258.55006" y1="204.09999" x2="258.55006" y2="157.56943" gradientUnits="userSpaceOnUse" id="color-9"><stop offset="0" stop-color="#fff300"/><stop offset="1" stop-color="#c29600"/></linearGradient><linearGradient x1="248.74441" y1="204.09999" x2="248.74441" y2="157.56943" gradientUnits="userSpaceOnUse" id="color-10"><stop offset="0" stop-color="#fff300"/><stop offset="1" stop-color="#c29600"/></linearGradient><linearGradient x1="250.06829" y1="204.09999" x2="250.06829" y2="157.56943" gradientUnits="userSpaceOnUse" id="color-11"><stop offset="0" stop-color="#fff300"/><stop offset="1" stop-color="#c29600"/></linearGradient><linearGradient x1="220.67888" y1="202.82864" x2="220.67888" y2="161.52635" gradientUnits="userSpaceOnUse" id="color-12"><stop offset="0" stop-color="#fff300"/><stop offset="1" stop-color="#c29600"/></linearGradient><linearGradient x1="217.57429" y1="202.04409" x2="217.57429" y2="159.70108" gradientUnits="userSpaceOnUse" id="color-13"><stop offset="0" stop-color="#fff300"/><stop offset="1" stop-color="#c29600"/></linearGradient><linearGradient x1="221.44321" y1="201.11748" x2="221.44321" y2="158.64481" gradientUnits="userSpaceOnUse" id="color-14"><stop offset="0" stop-color="#fff300"/><stop offset="1" stop-color="#c29600"/></linearGradient><linearGradient x1="231.24886" y1="200.29038" x2="231.24886" y2="157.94737" gradientUnits="userSpaceOnUse" id="color-15"><stop offset="0" stop-color="#fff300"/><stop offset="1" stop-color="#c29600"/></linearGradient><linearGradient x1="229.92481" y1="203.70062" x2="229.92481" y2="164.07307" gradientUnits="userSpaceOnUse" id="color-16"><stop offset="0" stop-color="#fff300"/><stop offset="1" stop-color="#c29600"/></linearGradient><linearGradient x1="259.31471" y1="202.82864" x2="259.31471" y2="161.52635" gradientUnits="userSpaceOnUse" id="color-17"><stop offset="0" stop-color="#fff300"/><stop offset="1" stop-color="#c29600"/></linearGradient><linearGradient x1="262.41922" y1="202.04409" x2="262.41922" y2="159.70108" gradientUnits="userSpaceOnUse" id="color-18"><stop offset="0" stop-color="#fff300"/><stop offset="1" stop-color="#c29600"/></linearGradient><linearGradient x1="258.55022" y1="201.11667" x2="258.55022" y2="158.64529" gradientUnits="userSpaceOnUse" id="color-19"><stop offset="0" stop-color="#fff300"/><stop offset="1" stop-color="#c29600"/></linearGradient><linearGradient x1="248.74449" y1="200.28756" x2="248.74449" y2="157.94761" gradientUnits="userSpaceOnUse" id="color-20"><stop offset="0" stop-color="#fff300"/><stop offset="1" stop-color="#c29600"/></linearGradient><linearGradient x1="250.06821" y1="203.70062" x2="250.06821" y2="164.07307" gradientUnits="userSpaceOnUse" id="color-21"><stop offset="0" stop-color="#fff300"/><stop offset="1" stop-color="#c29600"/></linearGradient><linearGradient x1="240.50486" y1="170.18346" x2="240.50486" y2="179.4743" gradientUnits="userSpaceOnUse" id="color-22"><stop offset="0" stop-color="#c29600"/><stop offset="1" stop-color="#fff300"/></linearGradient><linearGradient x1="234.49289" y1="180.52569" x2="234.49289" y2="189.81653" gradientUnits="userSpaceOnUse" id="color-23"><stop offset="0" stop-color="#c29600"/><stop offset="1" stop-color="#fff300"/></linearGradient><linearGradient x1="245.5425" y1="180.52569" x2="245.5425" y2="189.81653" gradientUnits="userSpaceOnUse" id="color-24"><stop offset="0" stop-color="#c29600"/><stop offset="1" stop-color="#fff300"/></linearGradient></defs><g transform="translate(-188.75,-128.75)"><g data-paper-data="{&quot;isPaintingLayer&quot;:true}" fill-rule="nonzero" stroke="none" stroke-width="1" stroke-linecap="butt" stroke-linejoin="miter" stroke-miterlimit="10" stroke-dasharray="" stroke-dashoffset="0" style="mix-blend-mode: normal"><path d="M188.75,179.95c0,-28.3 22.9,-51.2 51.2,-51.2c28.3,0 51.2,22.9 51.2,51.2c0,28.3 -22.9,51.2 -51.2,51.2c-28.3,0 -51.2,-22.8 -51.2,-51.2z" fill="url(#color-1)"/><g><path d="M219.16611,195.10918c-3.70679,-1.85339 -5.15727,-5.72134 -5.15727,-5.72134c0,0 4.51261,-0.80582 8.21939,1.04757c3.70679,1.85339 5.15727,5.72134 5.15727,5.72134c0,0 -4.51261,0.88641 -8.21939,-1.04757z" fill="url(#color-2)"/><path d="M214.89525,182.61892c-2.17572,-3.22329 -1.20873,-7.25241 -1.20873,-7.25241c0,0 4.35144,1.28932 6.52717,4.51261c2.17572,3.22329 1.20873,7.25241 1.20873,7.25241c0,0 -4.35144,-1.28932 -6.52717,-4.51261z" fill="url(#color-3)"/><path d="M221.503,176.65583c0,0 -3.06213,-2.98154 -3.06213,-6.76891c0,-3.70679 3.06213,-6.76891 3.06213,-6.76891c0,0 3.06213,2.98154 3.06213,6.76891c0,3.78737 -3.06213,6.76891 -3.06213,6.76891z" fill="url(#color-4)"/><path d="M227.38551,167.63062c0,0 -0.88641,-4.02911 1.20873,-7.25241c2.09514,-3.22329 6.52717,-4.51261 6.52717,-4.51261c0,0 0.96699,4.02911 -1.20873,7.25241c-2.09514,3.30387 -6.52717,4.51261 -6.52717,4.51261z" fill="url(#color-5)"/><path d="M229.88356,198.6548c4.27086,0 7.7359,2.7398 7.7359,2.7398c0,0 -3.46504,2.7398 -7.7359,2.7398c-4.27086,0 -7.7359,-2.7398 -7.7359,-2.7398c0,0 3.46504,-2.7398 7.7359,-2.7398z" fill="url(#color-6)"/><path d="M265.98442,189.38784c0,0 -1.45048,3.86795 -5.15727,5.72134c-3.70679,1.85339 -8.21939,1.04757 -8.21939,1.04757c0,0 1.45048,-3.86795 5.15727,-5.72134c3.70679,-1.85339 8.21939,-1.04757 8.21939,-1.04757z" fill="url(#color-7)"/><path d="M266.30675,175.36652c0,0 0.88641,4.02911 -1.20873,7.25241c-2.09514,3.22329 -6.52717,4.51261 -6.52717,4.51261c0,0 -0.96699,-4.02911 1.20873,-7.25241c2.09514,-3.22329 6.52717,-4.51261 6.52717,-4.51261z" fill="url(#color-8)"/><path d="M258.57085,176.65583c0,0 -3.06213,-2.98154 -3.06213,-6.76891c0,-3.70679 3.06213,-6.76891 3.06213,-6.76891c0,0 3.06213,2.98154 3.06213,6.76891c0,3.78737 -3.06213,6.76891 -3.06213,6.76891z" fill="url(#color-9)"/><path d="M246.0806,163.11801c-2.17572,-3.22329 -1.20873,-7.25241 -1.20873,-7.25241c0,0 4.35144,1.28932 6.52717,4.51261c2.17572,3.22329 1.20873,7.25241 1.20873,7.25241c0,0 -4.43203,-1.20873 -6.52717,-4.51261z" fill="url(#color-10)"/><path d="M250.02913,198.6548c4.27086,0 7.7359,2.7398 7.7359,2.7398c0,0 -3.46504,2.7398 -7.7359,2.7398c-4.27086,0 -7.7359,-2.7398 -7.7359,-2.7398c0,0 3.46504,-2.7398 7.7359,-2.7398z" fill="url(#color-11)"/></g><g opacity="0.21"><g><path d="M224.96804,195.99559c-1.53106,0 -3.70679,-0.24175 -5.64076,-1.20873c-2.7398,-1.3699 -4.27086,-4.02911 -4.75436,-5.07668c0.40291,-0.08058 1.04757,-0.08058 1.85339,-0.08058c1.53106,0 3.70679,0.24175 5.64076,1.20873c2.7398,1.3699 4.27086,4.02911 4.75436,5.07668c-0.48349,0 -1.12815,0.08058 -1.85339,0.08058z" fill="url(#color-12)"/><path d="M216.42631,190.0325c-0.48349,0 -0.88641,0 -1.20873,0.08058c0.64466,1.20873 2.01456,3.22329 4.27086,4.35144c1.93398,0.96699 4.02911,1.12815 5.4796,1.12815c0.48349,0 0.88641,-0.08058 1.20873,-0.08058c-0.64466,-1.20873 -2.01456,-3.22329 -4.27086,-4.35144c-1.93398,-0.96699 -4.02911,-1.12815 -5.4796,-1.12815M216.42631,189.22667c1.61165,0 3.86795,0.24175 5.80193,1.20873c3.70679,1.85339 5.15727,5.72134 5.15727,5.72134c0,0 -0.96699,0.16116 -2.41747,0.16116c-1.61165,0 -3.86795,-0.24175 -5.80193,-1.20873c-3.70679,-1.85339 -5.15727,-5.72134 -5.15727,-5.72134c0,0 0.96699,-0.16116 2.41747,-0.16116z" fill="#ffffff"/></g><g><path d="M221.10009,186.64804c-1.12815,-0.40291 -4.27086,-1.69223 -5.88251,-4.19028c-1.61165,-2.49805 -1.3699,-5.39901 -1.20873,-6.52717c1.12815,0.40291 4.27086,1.69223 5.88251,4.19028c1.61165,2.41747 1.3699,5.39901 1.20873,6.52717z" fill="url(#color-13)"/><path d="M214.33117,176.41409c-0.08058,1.28932 -0.08058,3.70679 1.20873,5.72134c1.45048,2.09514 3.94853,3.30387 5.23785,3.86795c0.16116,-1.28932 0.16116,-3.70679 -1.20873,-5.72134c-1.45048,-2.09514 -3.94853,-3.30387 -5.23785,-3.86795M213.68652,175.36652c0,0 4.43203,1.28932 6.52717,4.51261c2.17572,3.22329 1.20873,7.25241 1.20873,7.25241c0,0 -4.35144,-1.28932 -6.52717,-4.51261c-2.17572,-3.22329 -1.20873,-7.25241 -1.20873,-7.25241z" fill="#ffffff"/></g><g><path d="M221.42242,176.09176c-0.72524,-0.80582 -2.65922,-3.30387 -2.65922,-6.20484c0,-2.90096 1.93398,-5.39901 2.65922,-6.20484c0.72524,0.80582 2.65922,3.30387 2.65922,6.20484c0.08058,2.90096 -1.93398,5.39901 -2.65922,6.20484z" fill="url(#color-14)"/><path d="M221.42242,164.32674c-0.80582,1.04757 -2.2563,3.14271 -2.2563,5.56018c0,2.41747 1.45048,4.51261 2.2563,5.56018c0.80582,-0.96699 2.2563,-3.14271 2.2563,-5.56018c0,-2.41747 -1.45048,-4.51261 -2.2563,-5.56018M221.42242,163.11801c0,0 3.14271,3.06213 3.06213,6.76891c0,3.70679 -3.06213,6.76891 -3.06213,6.76891c0,0 -3.06213,-2.98154 -3.06213,-6.76891c0,-3.70679 3.06213,-6.76891 3.06213,-6.76891z" fill="#ffffff"/></g><g><path d="M227.70783,167.14712c-0.16116,-1.12815 -0.40291,-4.02911 1.20873,-6.52717c1.61165,-2.49805 4.75436,-3.78737 5.88251,-4.19028c0.16116,1.12815 0.40291,4.02911 -1.20873,6.52717c-1.69223,2.49805 -4.75436,3.78737 -5.88251,4.19028z" fill="url(#color-15)"/><path d="M234.47675,156.99375c-1.3699,0.48349 -3.86795,1.77281 -5.23785,3.86795c-1.28932,2.01456 -1.3699,4.43203 -1.20873,5.72134c1.3699,-0.48349 3.86795,-1.77281 5.23785,-3.86795c1.28932,-2.01456 1.3699,-4.43203 1.20873,-5.72134M235.12141,155.8656c0,0 0.96699,4.02911 -1.20873,7.25241c-2.09514,3.22329 -6.52717,4.51261 -6.52717,4.51261c0,0 -0.96699,-4.02911 1.20873,-7.25241c2.09514,-3.22329 6.52717,-4.51261 6.52717,-4.51261z" fill="#ffffff"/></g><g><path d="M229.96414,203.73149c-3.22329,0 -5.96309,-1.61165 -7.01066,-2.33689c1.04757,-0.72524 3.86795,-2.33689 7.01066,-2.33689c3.22329,0 5.96309,1.61165 7.01066,2.33689c-1.04757,0.72524 -3.86795,2.33689 -7.01066,2.33689z" fill="url(#color-16)"/><path d="M229.96414,199.46062c-2.7398,0 -5.07668,1.20873 -6.28542,1.93398c1.28932,0.80582 3.6262,1.93398 6.28542,1.93398c2.65922,0 4.9961,-1.20873 6.28542,-1.93398c-1.28932,-0.80582 -3.6262,-1.93398 -6.28542,-1.93398M229.96414,198.6548c4.27086,0 7.7359,2.7398 7.7359,2.7398c0,0 -3.46504,2.7398 -7.7359,2.7398c-4.27086,0 -7.7359,-2.7398 -7.7359,-2.7398c0,0 3.46504,-2.7398 7.7359,-2.7398z" fill="#ffffff"/></g><g><path d="M255.02523,195.99559c-0.80582,0 -1.45048,-0.08058 -1.85339,-0.08058c0.48349,-1.04757 2.01456,-3.6262 4.75436,-5.07668c1.93398,-0.96699 4.1097,-1.20873 5.64076,-1.20873c0.80582,0 1.45048,0.08058 1.85339,0.08058c-0.48349,1.04757 -2.01456,3.6262 -4.75436,5.07668c-1.93398,0.96699 -4.1097,1.20873 -5.64076,1.20873z" fill="url(#color-17)"/><path d="M263.56696,190.0325c-1.45048,0 -3.54562,0.16116 -5.4796,1.12815c-2.2563,1.12815 -3.6262,3.14271 -4.27086,4.35144c0.32233,0.08058 0.72524,0.08058 1.20873,0.08058c1.53106,0 3.6262,-0.16116 5.4796,-1.12815c2.2563,-1.12815 3.6262,-3.14271 4.27086,-4.35144c-0.32233,-0.08058 -0.72524,-0.08058 -1.20873,-0.08058M263.56696,189.22667c1.45048,0 2.41747,0.16116 2.41747,0.16116c0,0 -1.45048,3.86795 -5.15727,5.72134c-1.93398,0.96699 -4.19028,1.20873 -5.80193,1.20873c-1.45048,0 -2.41747,-0.16116 -2.41747,-0.16116c0,0 1.45048,-3.86795 5.15727,-5.72134c1.93398,-0.96699 4.19028,-1.20873 5.80193,-1.20873z" fill="#ffffff"/></g><g><path d="M258.89318,186.64804c-0.16116,-1.12815 -0.40291,-4.02911 1.20873,-6.52717c1.61165,-2.49805 4.75436,-3.78737 5.88251,-4.19028c0.16116,1.12815 0.40291,4.02911 -1.20873,6.52717c-1.69223,2.41747 -4.75436,3.78737 -5.88251,4.19028z" fill="url(#color-18)"/><path d="M265.66209,176.41409c-1.3699,0.56408 -3.86795,1.77281 -5.23785,3.86795c-1.28932,2.01456 -1.3699,4.43203 -1.20873,5.72134c1.3699,-0.48349 3.86795,-1.77281 5.23785,-3.86795c1.28932,-2.01456 1.3699,-4.43203 1.20873,-5.72134M266.30675,175.36652c0,0 0.88641,4.02911 -1.20873,7.25241c-2.09514,3.22329 -6.52717,4.51261 -6.52717,4.51261c0,0 -0.96699,-4.02911 1.20873,-7.25241c2.09514,-3.22329 6.52717,-4.51261 6.52717,-4.51261z" fill="#ffffff"/></g><g><path d="M258.57085,176.09176c-0.72524,-0.80582 -2.65922,-3.30387 -2.65922,-6.20484c0,-2.90096 1.93398,-5.39901 2.65922,-6.20484c0.72524,0.80582 2.65922,3.30387 2.65922,6.20484c0,2.90096 -1.93398,5.39901 -2.65922,6.20484z" fill="url(#color-19)"/><path d="M258.57085,164.32674c-0.88641,1.04757 -2.33689,3.14271 -2.2563,5.56018c0,2.41747 1.45048,4.51261 2.2563,5.56018c0.80582,-0.96699 2.2563,-3.14271 2.2563,-5.56018c0,-2.41747 -1.45048,-4.51261 -2.2563,-5.56018M258.57085,163.11801c0,0 3.06213,3.06213 3.06213,6.76891c0,3.70679 -3.06213,6.76891 -3.06213,6.76891c0,0 -3.06213,-2.98154 -3.06213,-6.76891c0,-3.70679 3.06213,-6.76891 3.06213,-6.76891z" fill="#ffffff"/></g><g><path d="M252.28543,167.14712c-1.12815,-0.40291 -4.27086,-1.69223 -5.88251,-4.19028c-1.61165,-2.41747 -1.3699,-5.39901 -1.20873,-6.52717c1.12815,0.40291 4.27086,1.69223 5.88251,4.19028c1.61165,2.49805 1.3699,5.39901 1.20873,6.52717z" fill="url(#color-20)"/><path d="M245.51652,156.99375c-0.08058,1.28932 -0.08058,3.6262 1.20873,5.72134c1.45048,2.09514 3.94853,3.30387 5.23785,3.86795c0.16116,-1.28932 0.16116,-3.70679 -1.20873,-5.72134c-1.45048,-2.09514 -3.94853,-3.30387 -5.23785,-3.86795M244.87186,155.8656c0,0 4.35144,1.28932 6.52717,4.51261c2.17572,3.22329 1.20873,7.25241 1.20873,7.25241c0,0 -4.35144,-1.28932 -6.52717,-4.51261c-2.17572,-3.22329 -1.20873,-7.25241 -1.20873,-7.25241z" fill="#ffffff"/></g><g><path d="M250.02913,203.73149c-3.22329,0 -5.96309,-1.61165 -7.01066,-2.33689c1.04757,-0.72524 3.86795,-2.33689 7.01066,-2.33689c3.22329,0 5.96309,1.61165 7.01066,2.33689c-0.96699,0.72524 -3.78737,2.33689 -7.01066,2.33689z" fill="url(#color-21)"/><path d="M250.02913,199.46062c-2.65922,0 -4.9961,1.20873 -6.28542,1.93398c1.28932,0.80582 3.6262,1.93398 6.28542,1.93398c2.65922,0 4.9961,-1.20873 6.28542,-1.93398c-1.28932,-0.80582 -3.6262,-1.93398 -6.28542,-1.93398M250.02913,198.6548c4.35144,0 7.7359,2.7398 7.7359,2.7398c0,0 -3.46504,2.7398 -7.7359,2.7398c-4.27086,0 -7.7359,-2.7398 -7.7359,-2.7398c0,0 3.46504,-2.7398 7.7359,-2.7398z" fill="#ffffff"/></g></g><g><path d="M241.99777,172.67401c0.06353,0.19059 0.25411,0.25412 0.38117,0.31764l2.22348,0.31764c0.4447,0.06353 0.63528,0.63528 0.31764,0.95292l-1.65173,1.65173c-0.12705,0.12705 -0.19058,0.31764 -0.12705,0.50822l0.38117,2.35053c0.06353,0.4447 -0.38117,0.82587 -0.76233,0.57176l-2.0329,-1.14351c-0.12705,-0.06353 -0.31764,-0.06353 -0.50822,0l-2.03289,1.14351c-0.38117,0.19059 -0.88939,-0.12706 -0.76234,-0.57176l0.38117,-2.35053c0,-0.19059 0,-0.38117 -0.12706,-0.50822l-1.65173,-1.65173c-0.31764,-0.31764 -0.12706,-0.88939 0.31764,-0.95292l2.22348,-0.31764c0.19059,0 0.31764,-0.12706 0.38117,-0.31764l1.01644,-2.15995c0.25411,-0.4447 0.82586,-0.4447 1.01645,0z" fill="url(#color-22)"/><path d="M236.02614,183.02907c0.06353,0.19059 0.25411,0.25411 0.38117,0.31764l2.22348,0.31764c0.4447,0.06353 0.63528,0.63528 0.31764,0.95292l-1.65173,1.65173c-0.12705,0.12705 -0.19059,0.31764 -0.12706,0.50822l0.38117,2.35053c0.06353,0.4447 -0.38117,0.82586 -0.76234,0.57175l-2.0329,-1.1435c-0.12705,-0.06353 -0.31764,-0.06353 -0.50822,0l-2.0329,1.20703c-0.38117,0.19059 -0.88939,-0.12705 -0.76234,-0.57175l0.38117,-2.35053c0,-0.19059 0,-0.38117 -0.12706,-0.50822l-1.65173,-1.65173c-0.31764,-0.31764 -0.12705,-0.88939 0.31764,-0.95292l2.22348,-0.31764c0.19059,0 0.31764,-0.12705 0.38117,-0.31764l1.01645,-2.22348c0.19059,-0.4447 0.76233,-0.4447 1.01644,0z" fill="url(#color-23)"/><path d="M247.01648,183.02907c0.06353,0.19059 0.25411,0.25411 0.38117,0.31764l2.22348,0.31764c0.4447,0.06353 0.63528,0.63528 0.31764,0.95292l-1.65173,1.65173c-0.12705,0.12705 -0.19059,0.31764 -0.12706,0.50822l0.4447,2.35053c0.06353,0.4447 -0.38117,0.82586 -0.76234,0.57175l-2.03289,-1.1435c-0.12705,-0.06353 -0.31764,-0.06353 -0.50822,0l-2.0329,1.20703c-0.38117,0.19059 -0.88939,-0.12705 -0.76233,-0.57175l0.38117,-2.35053c0,-0.19059 0,-0.38117 -0.12705,-0.50822l-1.65173,-1.65173c-0.31764,-0.31764 -0.12706,-0.88939 0.31764,-0.95292l2.22348,-0.31764c0.19059,0 0.31764,-0.12705 0.38117,-0.31764l1.01645,-2.15995c0.19059,-0.50822 0.76233,-0.50822 0.95292,-0.06353z" fill="url(#color-24)"/></g></g></g></svg>