<svg version="1.1" xmlns="http://www.w3.org/2000/svg" xmlns:xlink="http://www.w3.org/1999/xlink" width="102.5" height="102.5" viewBox="0,0,102.5,102.5"><defs><linearGradient x1="240.00003" y1="175.652" x2="240.00003" y2="187.76532" gradientUnits="userSpaceOnUse" id="color-1"><stop offset="0" stop-color="#c29600"/><stop offset="1" stop-color="#fff300"/></linearGradient><linearGradient x1="240.00003" y1="157.1769" x2="240.00003" y2="172.70752" gradientUnits="userSpaceOnUse" id="color-2"><stop offset="0" stop-color="#c29600"/><stop offset="1" stop-color="#fff300"/></linearGradient><linearGradient x1="240.00003" y1="190.70981" x2="240.00003" y2="202.82313" gradientUnits="userSpaceOnUse" id="color-3"><stop offset="0" stop-color="#c29600"/><stop offset="1" stop-color="#fff300"/></linearGradient><radialGradient cx="240" cy="180" r="51.25" gradientUnits="userSpaceOnUse" id="color-4"><stop offset="0" stop-color="#ffae63" stop-opacity="0.23669"/><stop offset="1" stop-color="#ffae63" stop-opacity="0"/></radialGradient></defs><g transform="translate(-188.75,-128.75)"><g data-paper-data="{&quot;isPaintingLayer&quot;:true}" fill-rule="nonzero" stroke="none" stroke-linecap="butt" stroke-linejoin="miter" stroke-miterlimit="10" stroke-dasharray="" stroke-dashoffset="0" style="mix-blend-mode: normal"><path d="M255.94856,187.76532h-31.89709c-1.24664,0 -2.26663,-1.01998 -2.26663,-2.26663v-7.58006c0,-1.24665 1.01999,-2.26663 2.26663,-2.26663h31.89709c1.24664,0 2.26663,1.01998 2.26663,2.26663v7.58006c0,1.24665 -1.01999,2.26663 -2.26663,2.26663z" fill="url(#color-1)" stroke-width="1"/><path d="M240.85578,157.70886l1.76862,3.5836c0.13901,0.28165 0.4077,0.47687 0.71854,0.52204l3.95474,0.57466c0.78271,0.11374 1.09528,1.07564 0.52887,1.62774l-2.86168,2.78945c-0.22491,0.21924 -0.32755,0.53511 -0.27444,0.84468l0.67555,3.93876c0.1337,0.77957 -0.68454,1.37406 -1.38464,1.006l-3.53722,-1.85963c-0.27802,-0.14616 -0.61014,-0.14616 -0.88815,0l-3.53723,1.85963c-0.70009,0.36806 -1.51834,-0.22643 -1.38463,-1.006l0.67555,-3.93876c0.05309,-0.30957 -0.04955,-0.62544 -0.27446,-0.84468l-2.86168,-2.78945c-0.56639,-0.55209 -0.25385,-1.514 0.52888,-1.62774l3.95474,-0.57466c0.31082,-0.04517 0.57953,-0.24039 0.71852,-0.52204l1.76862,-3.5836c0.35005,-0.70928 1.36146,-0.70928 1.7115,0z" fill="url(#color-2)" stroke-width="1"/><path d="M255.94856,202.82313h-31.89709c-1.24664,0 -2.26663,-1.01999 -2.26663,-2.26663v-7.58006c0,-1.24665 1.01999,-2.26663 2.26663,-2.26663h31.89709c1.24664,0 2.26663,1.01999 2.26663,2.26663v7.58006c0,1.24664 -1.01999,2.26663 -2.26663,2.26663z" fill="url(#color-3)" stroke-width="1"/><path d="M188.75,180c0,-28.3046 22.9454,-51.25 51.25,-51.25c28.3046,0 51.25,22.9454 51.25,51.25c0,28.3046 -22.9454,51.25 -51.25,51.25c-28.3046,0 -51.25,-22.9454 -51.25,-51.25z" fill="url(#color-4)" stroke-width="0"/></g></g></svg>