<svg version="1.1" xmlns="http://www.w3.org/2000/svg" xmlns:xlink="http://www.w3.org/1999/xlink" width="44.3" height="6.5" viewBox="0,0,44.3,6.5"><g transform="translate(-217.85,-176.75)"><g data-paper-data="{&quot;isPaintingLayer&quot;:true}" fill="#000000" fill-rule="nonzero" stroke="none" stroke-width="1" stroke-linecap="butt" stroke-linejoin="miter" stroke-miterlimit="10" stroke-dasharray="" stroke-dashoffset="0" style="mix-blend-mode: normal"><path d="M217.95,178.15l1.4,-1.4h5v1.8h-4.2l-0.2,0.3l0.2,0.2h2.7l1.4,1.4v1.4l-1.4,1.4h-5v-1.8h4.1l0.2,-0.2l-0.2,-0.4h-2.7l-1.4,-1.4v-1.3z"/><path d="M226.95,180.85v2.3h-1.8v-6.3h1.8v2.3l2.3,-2.3h2.7l-3.2,3.2l3.2,3.2h-2.7z"/><path d="M232.35,179.95v-3.2h1.8v2.3l0.5,0.5h1.8l0.5,-0.5v-2.3h1.8v3.2l-1.4,1.4h-0.9v1.8h-1.8v-1.8h-0.9z"/><path d="M245.95,178.15v1.8l-1.4,1.4l1.8,1.8h-2.7l-1.8,-1.8h-0.5v1.8h-1.8v-6.3h5zM244.15,179.05l-0.5,-0.5h-2.3v0.9h2.3z"/><path d="M248.65,183.15h-1.8v-6.3h1.8z"/><path d="M249.55,178.15l1.4,-1.4h5v1.8h-4.1l-0.3,0.3l0.2,0.2h2.7l1.4,1.4v1.4l-1.4,1.4h-5v-1.8h4.1l0.2,-0.2l-0.2,-0.4h-2.7l-1.4,-1.4v-1.3z"/><path d="M258.55,181.25h3.6v1.8h-5.4v-6.3h5.4v1.8h-3.6v0.5h3.6v1.8h-3.6z"/></g></g></svg>