<svg version="1.1" xmlns="http://www.w3.org/2000/svg" xmlns:xlink="http://www.w3.org/1999/xlink" width="113.2" height="38.8" viewBox="0,0,113.2,38.8"><g transform="translate(-183.4,-160.6)"><g data-paper-data="{&quot;isPaintingLayer&quot;:true}" fill-rule="nonzero" stroke="none" stroke-linecap="butt" stroke-linejoin="miter" stroke-miterlimit="10" stroke-dasharray="" stroke-dashoffset="0" style="mix-blend-mode: normal"><g fill="#ffffff" stroke-width="1"><path d="M205.07519,173.45313h1.85547v4.63867h3.71094v1.85547h-5.56641z"/><path d="M211.33789,178.55567v-3.71094l1.3916,-1.3916h3.71094l1.3916,1.3916v3.71094l-1.3916,1.3916h-3.71094zM213.19337,175.77247v1.85547l0.46387,0.46387h1.85547l0.46387,-0.46387v-1.85547l-0.46387,-0.46387h-1.85547z"/><path d="M223.86231,179.94728h-1.3916l-0.46387,-0.46387l-0.46387,0.46387h-1.3916l-1.3916,-1.3916v-5.10254h1.85547v4.1748l0.23145,0.23145l0.23242,-0.23145v-4.1748h1.85547v4.1748l0.23145,0.23145l0.23242,-0.23145v-4.1748h1.85547v5.10254z"/><path d="M228.5381,178.55567v-3.71094l1.3916,-1.3916h3.71094l1.3916,1.3916l-0.92773,0.92773h0.92773v4.1748h-5.10254zM230.39356,175.77247v1.85547l0.46387,0.46387h2.31934v-0.46387h-1.85547v-1.85547h1.85547l-0.46387,-0.46387h-1.85547z"/><path d="M242.45411,174.84474v1.85547l-1.3916,1.3916l1.85547,1.85547h-2.7832l-1.85547,-1.85547h-0.46387v1.85547h-1.85547v-6.49414h5.10254zM240.59864,175.77247l-0.46387,-0.46387h-2.31934v0.92773h2.31934z"/><path d="M244.77343,173.45313h3.71094l1.3916,1.3916v5.10254h-1.85547v-1.3916h-2.7832v1.3916h-1.85547v-5.10254zM247.55664,175.30861h-1.85547l-0.46387,0.46387v0.92773h2.7832v-0.92773z"/><path d="M255.44239,176.23634v-2.7832h1.85547v3.71094l-2.7832,2.7832h-0.92773l-2.7832,-2.7832v-3.71094h1.85547v2.7832l1.3916,1.3916z"/><path d="M260.08106,179.94728h-1.85547v-6.49414h1.85547z"/><path d="M265.18359,175.30861v4.63867h-1.85547v-4.63867h-2.31934v-1.85547h6.49414v1.85547z"/><path d="M268.43066,176.70021v-3.24707h1.85547v2.31934l0.46387,0.46387h1.85547l0.46387,-0.46387v-2.31934h1.85547v3.24707l-1.3916,1.3916h-0.92773v1.85547h-1.85548v-1.85547h-0.92773z"/></g><g fill="#ffffff" stroke-width="1"><path d="M210.26417,186.03614l-0.55957,-0.78711c-0.06299,0.00684 -0.12842,0.00977 -0.19629,0.00977h-0.65771v0.77734h-0.25928v-2.4502h0.91699c0.3125,0 0.55762,0.0752 0.73486,0.22461c0.17773,0.14941 0.26611,0.35449 0.26611,0.61523c0,0.19141 -0.04834,0.35352 -0.14502,0.48535c-0.09717,0.13184 -0.23535,0.22656 -0.41504,0.28516l0.59863,0.83984h-0.28368zM210.05812,184.87793c0.12793,-0.10742 0.19238,-0.25781 0.19238,-0.45215c0,-0.19824 -0.06445,-0.35059 -0.19238,-0.45605c-0.12842,-0.10645 -0.31396,-0.15918 -0.55664,-0.15918h-0.65088v1.22852h0.65088c0.24267,0 0.42822,-0.05371 0.55664,-0.16114z"/><path d="M212.85401,185.81251v0.22363h-1.73242v-2.4502h1.68018v0.22461h-1.4209v0.87109h1.2666v0.2207h-1.2666v0.91016h1.47314z"/><path d="M213.46339,183.58594h0.99756c0.25879,0 0.48779,0.05176 0.68604,0.15625c0.19824,0.10352 0.35205,0.24805 0.46191,0.43359c0.10986,0.18554 0.16455,0.39746 0.16455,0.63574c0,0.2373 -0.05469,0.44922 -0.16455,0.63477c-0.10986,0.18555 -0.26367,0.33008 -0.46191,0.43457c-0.19824,0.10352 -0.42725,0.15527 -0.68604,0.15527h-0.99756zM214.44677,185.81251c0.21484,0 0.40283,-0.04297 0.56348,-0.12793c0.16113,-0.08496 0.28613,-0.20312 0.37451,-0.35352c0.08887,-0.15039 0.1333,-0.32422 0.1333,-0.51953c0,-0.19629 -0.04443,-0.37012 -0.1333,-0.52051c-0.08838,-0.15039 -0.21338,-0.26758 -0.37451,-0.35352c-0.16064,-0.08496 -0.34863,-0.12695 -0.56348,-0.12695h-0.72412v2.00195h0.72412z"/><path d="M216.59913,185.78418c-0.17725,-0.18164 -0.26611,-0.44727 -0.26611,-0.79492v-1.40332h0.25928v1.39355c0,0.28418 0.06396,0.49707 0.19238,0.63672c0.12842,0.13965 0.31348,0.20996 0.55664,0.20996c0.24463,0 0.43164,-0.07031 0.55957,-0.20996c0.12842,-0.13965 0.19287,-0.35254 0.19287,-0.63672v-1.39355h0.25195v1.40332c0,0.34766 -0.08838,0.61328 -0.26416,0.79492c-0.17627,0.18164 -0.42334,0.27344 -0.74023,0.27344c-0.31738,0 -0.56494,-0.0918 -0.74219,-0.27344z"/><path d="M219.5337,185.8965c-0.19482,-0.10742 -0.34766,-0.25684 -0.4585,-0.44629c-0.11084,-0.19043 -0.16602,-0.40332 -0.16602,-0.63867c0,-0.23633 0.05518,-0.44922 0.16602,-0.63867c0.11084,-0.19043 0.26416,-0.33984 0.46045,-0.44629c0.1958,-0.10742 0.41504,-0.16113 0.65771,-0.16113c0.18213,0 0.3501,0.03027 0.50439,0.09082c0.15381,0.06055 0.28467,0.14941 0.3916,0.26562l-0.16406,0.16504c-0.19141,-0.19434 -0.43311,-0.29102 -0.72461,-0.29102c-0.19385,0 -0.37012,0.04492 -0.52881,0.13281c-0.15869,0.08887 -0.28271,0.20996 -0.37256,0.36426c-0.08985,0.1543 -0.13477,0.32715 -0.13477,0.51855c0,0.1914 0.04492,0.36328 0.13477,0.51758c0.08985,0.1543 0.21387,0.27539 0.37256,0.36426c0.15869,0.08887 0.33496,0.13281 0.52881,0.13281c0.29395,0 0.53516,-0.09766 0.72461,-0.29395l0.16406,0.16406c-0.10693,0.11719 -0.23828,0.20605 -0.39355,0.26855c-0.15527,0.06152 -0.32373,0.09277 -0.50586,0.09277c-0.24266,0.00002 -0.46141,-0.05369 -0.65624,-0.16111z"/><path d="M223.37501,185.81251v0.22363h-1.73242v-2.4502h1.68018v0.22461h-1.4209v0.87109h1.2666v0.2207h-1.2666v0.91016h1.47314z"/><path d="M224.13624,185.96974c-0.16699,-0.05859 -0.2959,-0.13574 -0.38672,-0.23145l0.10156,-0.19922c0.08838,0.08887 0.20654,0.16016 0.35352,0.21484c0.14697,0.05566 0.29834,0.08301 0.45508,0.08301c0.21924,0 0.38379,-0.04102 0.49316,-0.12109c0.10986,-0.08008 0.16455,-0.18457 0.16455,-0.31348c0,-0.09766 -0.02979,-0.17578 -0.08936,-0.23438c-0.05908,-0.05859 -0.13232,-0.10352 -0.21875,-0.13477c-0.08594,-0.03125 -0.20654,-0.06543 -0.36035,-0.10352c-0.18408,-0.0459 -0.33154,-0.09082 -0.44092,-0.13477c-0.10986,-0.04297 -0.20361,-0.1084 -0.28174,-0.19727c-0.07813,-0.08887 -0.11719,-0.20898 -0.11719,-0.36035c0,-0.12402 0.03271,-0.23633 0.09766,-0.33789c0.06543,-0.10156 0.16602,-0.18262 0.30127,-0.24316c0.13525,-0.06054 0.30322,-0.09082 0.50391,-0.09082c0.14014,0 0.27686,0.01855 0.41113,0.05762c0.13428,0.03809 0.25049,0.0918 0.34863,0.15918l-0.08789,0.20605c-0.10254,-0.06738 -0.2124,-0.11816 -0.32861,-0.15234c-0.1167,-0.0332 -0.23145,-0.05078 -0.34326,-0.05078c-0.21484,0 -0.37598,0.04199 -0.48486,0.125c-0.1084,0.08301 -0.1626,0.18945 -0.1626,0.32031c0,0.09766 0.02979,0.17676 0.08936,0.23633c0.05957,0.05957 0.13428,0.10449 0.22412,0.13574c0.08936,0.03223 0.21045,0.06641 0.36182,0.10352c0.17969,0.04395 0.3252,0.08789 0.43604,0.13086c0.11084,0.04395 0.20459,0.10938 0.28174,0.19629c0.07715,0.08789 0.11523,0.20605 0.11523,0.35547c0,0.12402 -0.0332,0.23633 -0.09961,0.33789c-0.06641,0.10156 -0.16846,0.18164 -0.30615,0.24121c-0.13769,0.05957 -0.30664,0.08984 -0.50732,0.08984c-0.18214,0.00002 -0.35646,-0.02928 -0.52345,-0.08787z"/><path d="M228.77931,184.81154h0.24854v0.93457c-0.11426,0.09961 -0.24951,0.17676 -0.40625,0.23047c-0.15625,0.05371 -0.3208,0.08105 -0.49316,0.08105c-0.24512,0 -0.46582,-0.05371 -0.66162,-0.16113c-0.1958,-0.10742 -0.3501,-0.25684 -0.46191,-0.44629c-0.1123,-0.19043 -0.16797,-0.40332 -0.16797,-0.63867c0,-0.23633 0.05566,-0.44922 0.16797,-0.63867c0.11182,-0.19043 0.26611,-0.33984 0.46191,-0.44629c0.1958,-0.10742 0.41748,-0.16113 0.66504,-0.16113c0.18652,0 0.35791,0.0293 0.51465,0.08887c0.15625,0.05957 0.28809,0.14746 0.39551,0.26465l-0.16113,0.16406c-0.19385,-0.19141 -0.43994,-0.28711 -0.73877,-0.28711c-0.19824,0 -0.37744,0.04395 -0.53711,0.13184c-0.15967,0.08691 -0.28516,0.20898 -0.37598,0.36328c-0.09131,0.15527 -0.13672,0.3291 -0.13672,0.52051c0,0.19141 0.04541,0.36328 0.13672,0.51758c0.09082,0.1543 0.21582,0.27539 0.37451,0.36426c0.1582,0.08887 0.33691,0.13281 0.53516,0.13281c0.25195,0 0.46582,-0.06348 0.64062,-0.18945v-0.82521z"/><path d="M231.43164,186.03614l-0.55957,-0.78711c-0.06299,0.00684 -0.12842,0.00977 -0.19629,0.00977h-0.65771v0.77734h-0.25928v-2.4502h0.91699c0.3125,0 0.55762,0.0752 0.73486,0.22461c0.17773,0.14941 0.26611,0.35449 0.26611,0.61523c0,0.19141 -0.04834,0.35352 -0.14502,0.48535c-0.09717,0.13184 -0.23535,0.22656 -0.41504,0.28516l0.59863,0.83984h-0.28368zM231.2256,184.87793c0.12793,-0.10742 0.19238,-0.25781 0.19238,-0.45215c0,-0.19824 -0.06445,-0.35059 -0.19238,-0.45605c-0.12842,-0.10645 -0.31396,-0.15918 -0.55664,-0.15918h-0.65088v1.22852h0.65088c0.24267,0 0.42822,-0.05371 0.55664,-0.16114z"/><path d="M233.82616,185.38185h-1.36523l-0.29395,0.6543h-0.26953l1.12012,-2.4502h0.25537l1.12012,2.4502h-0.27295zM233.73144,185.17188l-0.58789,-1.31641l-0.58789,1.31641z"/><path d="M236.70995,183.58594l-1.08496,2.4502h-0.25537l-1.08496,-2.4502h0.27979l0.93799,2.12793l0.94482,-2.12793z"/><path d="M237.06349,183.58594h0.25928v2.4502h-0.25928z"/><path d="M238.59667,183.81056h-0.86084v-0.22461h1.98096v0.22461h-0.86133v2.22559h-0.25879z"/><path d="M240.95167,185.18947v0.84668h-0.25537v-0.84668l-0.97998,-1.60352h0.27637l0.84033,1.37598l0.83984,-1.37598h0.25977z"/><path d="M242.31739,185.72658c0.03516,0.03613 0.05273,0.08105 0.05273,0.13477c0,0.02734 -0.00488,0.05859 -0.0127,0.09082c-0.00782,0.03223 -0.02051,0.07031 -0.03613,0.1123l-0.14746,0.48242h-0.16797l0.11914,-0.50684c-0.03711,-0.01172 -0.06836,-0.0332 -0.09082,-0.06543c-0.02344,-0.03125 -0.03516,-0.06934 -0.03516,-0.11328c0,-0.05371 0.01758,-0.09863 0.05273,-0.13477c0.03418,-0.03613 0.0791,-0.05469 0.13281,-0.05469c0.05371,0 0.09768,0.01856 0.13283,0.0547z"/><path d="M245.78417,184.98048c0.08691,0.10449 0.13086,0.23828 0.13086,0.40137c0,0.20996 -0.07715,0.37109 -0.23242,0.48438c-0.15527,0.11329 -0.38477,0.16992 -0.68848,0.16992h-1.12695v-2.4502h1.05762c0.27246,0 0.48438,0.05469 0.63477,0.16504c0.15039,0.10938 0.22559,0.26465 0.22559,0.46484c0,0.13574 -0.0332,0.25098 -0.09961,0.34473c-0.06641,0.09473 -0.1582,0.16504 -0.27441,0.21191c0.16112,0.03516 0.28514,0.1045 0.37303,0.20801zM244.12694,183.79982v0.88867h0.78027c0.19824,0 0.35059,-0.03809 0.45801,-0.11328c0.10742,-0.07617 0.16113,-0.18652 0.16113,-0.33105c0,-0.14453 -0.05371,-0.25488 -0.16113,-0.33105c-0.10742,-0.0752 -0.25977,-0.11328 -0.45801,-0.11328h-0.78027zM245.48829,185.71094c0.11133,-0.0752 0.16797,-0.19141 0.16797,-0.35059c0,-0.30566 -0.22168,-0.45801 -0.66504,-0.45801h-0.86426v0.91992h0.86426c0.21875,0.00001 0.38477,-0.0371 0.49707,-0.11132z"/><path d="M246.50685,183.58594h0.25879v2.4502h-0.25879z"/><path d="M249.28907,184.81154h0.24902v0.93457c-0.11426,0.09961 -0.25,0.17676 -0.40625,0.23047c-0.15625,0.05371 -0.32129,0.08105 -0.49316,0.08105c-0.24512,0 -0.46582,-0.05371 -0.66211,-0.16113c-0.19531,-0.10742 -0.34961,-0.25684 -0.46191,-0.44629c-0.1123,-0.19043 -0.16797,-0.40332 -0.16797,-0.63867c0,-0.23633 0.05566,-0.44922 0.16797,-0.63867c0.1123,-0.19043 0.2666,-0.33984 0.46191,-0.44629c0.19629,-0.10742 0.41797,-0.16113 0.66504,-0.16113c0.18652,0 0.3584,0.0293 0.51465,0.08887c0.15625,0.05957 0.28809,0.14746 0.39551,0.26465l-0.16113,0.16406c-0.19336,-0.19141 -0.43945,-0.28711 -0.73828,-0.28711c-0.19824,0 -0.37793,0.04395 -0.53711,0.13184c-0.16016,0.08691 -0.28516,0.20898 -0.37598,0.36328c-0.0918,0.15527 -0.13672,0.3291 -0.13672,0.52051c0,0.19141 0.04492,0.36328 0.13672,0.51758c0.09082,0.1543 0.21582,0.27539 0.37402,0.36426c0.1582,0.08887 0.33691,0.13281 0.53516,0.13281c0.25195,0 0.46582,-0.06348 0.64062,-0.18945z"/><path d="M251.99414,184.81154h0.24902v0.93457c-0.11426,0.09961 -0.25,0.17676 -0.40625,0.23047c-0.15625,0.05371 -0.32031,0.08105 -0.49316,0.08105c-0.24512,0 -0.46582,-0.05371 -0.66211,-0.16113c-0.19531,-0.10742 -0.34961,-0.25684 -0.46191,-0.44629c-0.1123,-0.19043 -0.16797,-0.40332 -0.16797,-0.63867c0,-0.23633 0.05566,-0.44922 0.16797,-0.63867c0.1123,-0.19043 0.2666,-0.33984 0.46191,-0.44629c0.19629,-0.10742 0.41797,-0.16113 0.66504,-0.16113c0.1875,0 0.3584,0.0293 0.51562,0.08887c0.15527,0.05957 0.28711,0.14746 0.39453,0.26465l-0.16113,0.16406c-0.19336,-0.19141 -0.43945,-0.28711 -0.73828,-0.28711c-0.19824,0 -0.37793,0.04395 -0.53711,0.13184c-0.16016,0.08691 -0.28516,0.20898 -0.37598,0.36328c-0.0918,0.15527 -0.13672,0.3291 -0.13672,0.52051c0,0.19141 0.04492,0.36328 0.13672,0.51758c0.09082,0.1543 0.21582,0.27539 0.37402,0.36426c0.1582,0.08887 0.33691,0.13281 0.53613,0.13281c0.25195,0 0.46484,-0.06348 0.63965,-0.18945v-0.82521z"/><path d="M254.70802,185.81251v0.22363h-1.73242v-2.4502h1.67969v0.22461h-1.4209v0.87109h1.2666v0.2207h-1.2666v0.91016h1.47363z"/><path d="M256.98926,186.03614l-0.56055,-0.78711c-0.0625,0.00684 -0.12793,0.00977 -0.19531,0.00977h-0.6582v0.77734h-0.25879v-2.4502h0.91699c0.3125,0 0.55762,0.0752 0.73438,0.22461c0.17773,0.14941 0.2666,0.35449 0.2666,0.61523c0,0.19141 -0.04883,0.35352 -0.14551,0.48535c-0.09668,0.13183 -0.23535,0.22656 -0.41504,0.28516l0.59863,0.83984h-0.2832zM256.78224,184.87793c0.12891,-0.10742 0.19238,-0.25781 0.19238,-0.45215c0,-0.19824 -0.06348,-0.35059 -0.19238,-0.45605c-0.12793,-0.10645 -0.31348,-0.15918 -0.55664,-0.15918h-0.65039v1.22852h0.65039c0.24316,0 0.42871,-0.05371 0.55664,-0.16114z"/><path d="M258.63771,185.96583c-0.11914,-0.06055 -0.21582,-0.14648 -0.29102,-0.25879l0.1543,-0.1748c0.13477,0.2002 0.31152,0.30078 0.52832,0.30078c0.30371,0 0.45508,-0.17969 0.45508,-0.53906v-1.4834h-0.89648v-0.22461h1.15234v1.69727c0,0.25684 -0.06055,0.4502 -0.18066,0.58008c-0.12012,0.12891 -0.29785,0.19434 -0.53418,0.19434c-0.13966,-0.00001 -0.26954,-0.03126 -0.3877,-0.09181z"/><path d="M260.76171,185.78418c-0.17676,-0.18164 -0.26562,-0.44727 -0.26562,-0.79492v-1.40332h0.25879v1.39355c0,0.28418 0.06445,0.49707 0.19238,0.63672c0.12891,0.13965 0.31445,0.20996 0.55664,0.20996c0.24512,0 0.43164,-0.07031 0.56055,-0.20996c0.12793,-0.13965 0.19238,-0.35254 0.19238,-0.63672v-1.39355h0.25195v1.40332c0,0.34766 -0.08789,0.61328 -0.26465,0.79492c-0.17578,0.18164 -0.42285,0.27344 -0.74023,0.27344c-0.31738,0 -0.56446,-0.0918 -0.74219,-0.27344z"/><path d="M265.83399,183.58594v2.4502h-0.24805v-1.95996l-0.96289,1.64844h-0.12207l-0.96289,-1.6377v1.94922h-0.24805v-2.4502h0.21289l1.06445,1.81641l1.05371,-1.81641z"/><path d="M268.28319,183.81056c0.17773,0.14941 0.2666,0.35449 0.2666,0.61523c0,0.26172 -0.08887,0.4668 -0.2666,0.61426c-0.17676,0.14844 -0.42188,0.22266 -0.73438,0.22266h-0.6582v0.77344h-0.25879v-2.4502h0.91699c0.31251,0 0.55763,0.0752 0.73438,0.22461zM268.09767,184.87599c0.12891,-0.10645 0.19238,-0.25586 0.19238,-0.4502c0,-0.19824 -0.06348,-0.35059 -0.19238,-0.45605c-0.12793,-0.10645 -0.31348,-0.15918 -0.55664,-0.15918h-0.65039v1.22461h0.65039c0.24316,0 0.42871,-0.05273 0.55664,-0.15918z"/><path d="M269.29589,185.96974c-0.16602,-0.05859 -0.29492,-0.13574 -0.38672,-0.23145l0.10156,-0.19922c0.08887,0.08887 0.20703,0.16016 0.35352,0.21484c0.14746,0.05566 0.29883,0.08301 0.45508,0.08301c0.21973,0 0.38379,-0.04102 0.49414,-0.12109c0.10938,-0.08008 0.16406,-0.18457 0.16406,-0.31348c0,-0.09766 -0.0293,-0.17578 -0.08887,-0.23438c-0.05957,-0.0586 -0.13281,-0.10352 -0.21875,-0.13477c-0.08691,-0.03125 -0.20703,-0.06543 -0.36035,-0.10352c-0.18457,-0.0459 -0.33203,-0.09082 -0.44141,-0.13477c-0.10938,-0.04297 -0.2041,-0.1084 -0.28223,-0.19727c-0.07813,-0.08887 -0.11719,-0.20898 -0.11719,-0.36035c0,-0.12402 0.0332,-0.23633 0.09863,-0.33789c0.06543,-0.10156 0.16504,-0.18262 0.30078,-0.24316c0.13477,-0.06055 0.30371,-0.09082 0.50391,-0.09082c0.13965,0 0.27734,0.01855 0.41113,0.05762c0.13477,0.03809 0.25,0.0918 0.34863,0.15918l-0.08789,0.20605c-0.10254,-0.06738 -0.21191,-0.11816 -0.3291,-0.15234c-0.11621,-0.0332 -0.23047,-0.05078 -0.34277,-0.05078c-0.21484,0 -0.37598,0.04199 -0.48438,0.125c-0.1084,0.08301 -0.16309,0.18945 -0.16309,0.32031c0,0.09766 0.0293,0.17676 0.08887,0.23633c0.05957,0.05957 0.13477,0.10449 0.22461,0.13574c0.08984,0.03223 0.20996,0.06641 0.3623,0.10352c0.17969,0.04395 0.32422,0.08789 0.43555,0.13086c0.11035,0.04395 0.20508,0.10938 0.28125,0.19629c0.07715,0.08789 0.11621,0.20605 0.11621,0.35547c0,0.12402 -0.0332,0.23633 -0.09961,0.33789c-0.06738,0.10156 -0.16895,0.18164 -0.30664,0.24121c-0.13769,0.05957 -0.30664,0.08984 -0.50781,0.08984c-0.18162,0.00002 -0.35643,-0.02928 -0.52342,-0.08787z"/><path d="M271.22267,185.99904c-0.03711,-0.03613 -0.05469,-0.07812 -0.05469,-0.12695c0,-0.05176 0.01758,-0.09473 0.05273,-0.12793c0.03516,-0.03418 0.0791,-0.05078 0.13281,-0.05078c0.05078,0 0.09473,0.0166 0.12988,0.05078c0.03418,0.0332 0.05176,0.07617 0.05176,0.12793c0,0.04883 -0.01758,0.09082 -0.05176,0.12695c-0.03516,0.03613 -0.0791,0.05469 -0.12988,0.05469c-0.05175,-0.00001 -0.09472,-0.01856 -0.13085,-0.05469zM271.20606,183.58594h0.29395l-0.05176,1.71484h-0.19238z"/></g><path d="M183.4,199.4v-38.8h113.2v38.8z" fill="none" stroke-width="0"/></g></g></svg>