<svg version="1.1" xmlns="http://www.w3.org/2000/svg" xmlns:xlink="http://www.w3.org/1999/xlink" width="102.5" height="102.5" viewBox="0,0,102.5,102.5"><defs><linearGradient x1="240.00002" y1="175.98854" x2="240.00002" y2="200.21522" gradientUnits="userSpaceOnUse" id="color-1"><stop offset="0" stop-color="#c39700"/><stop offset="1" stop-color="#fef200"/></linearGradient><linearGradient x1="240.00002" y1="160.05634" x2="240.00002" y2="175.58696" gradientUnits="userSpaceOnUse" id="color-2"><stop offset="0" stop-color="#c39700"/><stop offset="1" stop-color="#fef200"/></linearGradient><radialGradient cx="240" cy="180" r="51.25" gradientUnits="userSpaceOnUse" id="color-3"><stop offset="0" stop-color="#ffae63" stop-opacity="0.23669"/><stop offset="1" stop-color="#ffae63" stop-opacity="0"/></radialGradient></defs><g transform="translate(-188.75,-128.75)"><g data-paper-data="{&quot;isPaintingLayer&quot;:true}" fill-rule="nonzero" stroke="none" stroke-linecap="butt" stroke-linejoin="miter" stroke-miterlimit="10" stroke-dasharray="" stroke-dashoffset="0" style="mix-blend-mode: normal"><g fill="#000000" stroke-width="1"><path d="M240.02108,199.94368l-0.02106,-0.02106l-0.02106,0.02106l-16.50803,-16.50803c-0.70177,-0.70177 -0.70177,-1.83955 0,-2.54132l4.65094,-4.65099c0.70177,-0.70177 1.83955,-0.70177 2.54134,-0.00001l8.06615,8.06616c0.70177,0.70177 1.83955,0.70177 2.54132,0l8.06616,-8.06616c0.70177,-0.70177 1.83955,-0.70177 2.54132,0.00001l4.65096,4.65099c0.70177,0.70177 0.70175,1.83955 0,2.54132z"/><g><path d="M240.85578,160.31675l1.76862,3.5836c0.13899,0.28165 0.4077,0.47687 0.71852,0.52204l3.95474,0.57466c0.78273,0.11374 1.09528,1.07564 0.52888,1.62774l-2.86168,2.78944c-0.22491,0.21924 -0.32755,0.53511 -0.27446,0.84468l0.67555,3.93876c0.13371,0.77957 -0.68454,1.37406 -1.38463,1.006l-3.53723,-1.85963c-0.27802,-0.14616 -0.61014,-0.14616 -0.88815,0l-3.53722,1.85963c-0.7001,0.36806 -1.51834,-0.22643 -1.38464,-1.006l0.67555,-3.93876c0.0531,-0.30957 -0.04953,-0.62544 -0.27444,-0.84468l-2.86168,-2.78944c-0.56639,-0.55209 -0.25385,-1.514 0.52888,-1.62774l3.95474,-0.57466c0.31082,-0.04517 0.57951,-0.24039 0.71852,-0.52204l1.76862,-3.5836c0.35005,-0.70927 1.36146,-0.70927 1.71151,0z"/></g></g><g stroke-width="1"><path d="M240.02108,200.21522l-0.02106,-0.02106l-0.02106,0.02106l-16.50803,-16.50803c-0.70177,-0.70176 -0.70177,-1.83955 0,-2.54132l4.65094,-4.65099c0.70177,-0.70177 1.83955,-0.70177 2.54134,-0.00001l8.06615,8.06616c0.70177,0.70177 1.83955,0.70177 2.54132,0l8.06616,-8.06616c0.70177,-0.70177 1.83955,-0.70177 2.54132,0.00001l4.65096,4.65099c0.70177,0.70177 0.70175,1.83955 0,2.54132z" fill="url(#color-1)"/><g fill="url(#color-2)"><path d="M240.85578,160.5883l1.76862,3.5836c0.13899,0.28165 0.4077,0.47687 0.71852,0.52204l3.95474,0.57466c0.78273,0.11374 1.09528,1.07564 0.52888,1.62774l-2.86168,2.78945c-0.22491,0.21924 -0.32755,0.53511 -0.27446,0.84468l0.67555,3.93876c0.13371,0.77957 -0.68454,1.37406 -1.38463,1.006l-3.53723,-1.85963c-0.27802,-0.14616 -0.61014,-0.14616 -0.88815,0l-3.53722,1.85963c-0.7001,0.36806 -1.51834,-0.22643 -1.38464,-1.006l0.67555,-3.93876c0.0531,-0.30957 -0.04953,-0.62544 -0.27444,-0.84468l-2.86168,-2.78945c-0.56639,-0.55209 -0.25385,-1.514 0.52888,-1.62774l3.95474,-0.57466c0.31082,-0.04517 0.57951,-0.24039 0.71852,-0.52204l1.76862,-3.5836c0.35005,-0.70927 1.36146,-0.70927 1.71151,0z"/></g></g><path d="M188.75,180c0,-28.3046 22.9454,-51.25 51.25,-51.25c28.3046,0 51.25,22.9454 51.25,51.25c0,28.3046 -22.9454,51.25 -51.25,51.25c-28.3046,0 -51.25,-22.9454 -51.25,-51.25z" fill="url(#color-3)" stroke-width="0"/></g></g></svg>