<svg version="1.1" xmlns="http://www.w3.org/2000/svg" xmlns:xlink="http://www.w3.org/1999/xlink" width="24.4457" height="24.4457" viewBox="0,0,24.4457,24.4457"><g transform="translate(-227.7772,-167.7772)"><g data-paper-data="{&quot;isPaintingLayer&quot;:true}" fill="#ffffff" fill-rule="nonzero" stroke="none" stroke-width="1" stroke-linecap="butt" stroke-linejoin="miter" stroke-miterlimit="10" stroke-dasharray="" stroke-dashoffset="0" style="mix-blend-mode: normal"><path d="M245.35981,188.29252h-10.7185v-3.1247c-2.5937,-0.5761 -4.3036,-1.9864 -4.3036,-5.405c0,-5.4443 4.3268,-8.0554 9.6635,-8.0554c5.3367,0 9.6611,2.6111 9.6611,8.0554c0,3.4198 -1.711,4.8289 -4.3025,5.405zM238.74251,180.74272c0,-1.3512 -1.128,-2.4456 -2.5174,-2.4456c-1.3917,0 -2.5185,1.0944 -2.5185,2.4456c0,1.3489 1.1268,2.4456 2.5185,2.4456c1.3894,0.0001 2.5174,-1.0967 2.5174,-2.4456zM241.05621,183.48452c0,-1.8707 -1.0551,-3.3897 -1.0551,-3.3897c0,0 -1.0551,1.519 -1.0551,3.3897zM243.77611,183.18842c1.3894,0 2.5174,-1.0967 2.5174,-2.4456c0,-1.3512 -1.128,-2.4456 -2.5174,-2.4456c-1.3917,0 -2.5174,1.0944 -2.5174,2.4456c0,1.3488 1.1256,2.4456 2.5174,2.4456z"/><path d="M232.4683,190.3476l1.8753,1.8753h-6.5664v-6.5664l1.8752,1.8752v2.8159zM229.6524,171.7782l-1.8752,1.8752v-5.8762h5.8763l-1.8752,1.8752h-2.1259zM250.3477,188.2217l1.8752,-1.8752v5.8763h-5.8762l1.8752,-1.8752h2.1258zM245.6565,167.7773h6.5664v6.5663l-1.8752,-1.8752v-2.816h-2.816l-1.8752,-1.8752z"/></g></g></svg>