<svg xmlns="http://www.w3.org/2000/svg" xmlns:xlink="http://www.w3.org/1999/xlink" version="1.1" width="49" height="15" viewBox="0.5 0.5 49 15">
  <!-- Exported by Scratch - http://scratch.mit.edu/ -->
  <g id="ID0.8057799320667982">
    <path id="ID0.002543373964726925" fill="#FFFFFF" stroke="#FFFFFF" d="M 1 1 L 49 1 L 49 15 L 1 15 L 1 1 Z " stroke-width="1"/>
    <g id="ID0.9026348241604865">
      <path id="ID0.28203632635995746" fill="#7F7F7F" d="M 18.174 10.778 L 18.166 6.596 L 16.399 10.195 L 15.783 10.195 L 14.016 6.596 L 14.016 10.778 L 13.128 10.778 L 13.128 5.182 L 14.247 5.182 L 16.095 8.9 L 17.934 5.182 L 19.045 5.182 L 19.045 10.779 L 18.174 10.779 Z " stroke-width="1"/>
      <path id="ID0.2738025668077171" fill="#7F7F7F" d="M 21.472 6.029 L 21.472 7.54 L 24.206 7.54 L 24.206 8.388 L 21.472 8.388 L 21.472 9.931 L 24.622 9.931 L 24.622 10.779 L 20.528 10.779 L 20.528 5.182 L 24.526 5.182 L 24.526 6.03 L 21.472 6.03 Z " stroke-width="1"/>
      <path id="ID0.29596169013530016" fill="#7F7F7F" d="M 29.703 10.778 L 26.721 6.764 L 26.721 10.778 L 25.778 10.778 L 25.778 5.182 L 26.706 5.182 L 29.704 9.203 L 29.704 5.182 L 30.632 5.182 L 30.632 10.779 L 29.703 10.779 Z " stroke-width="1"/>
      <path id="ID0.03789006965234876" fill="#7F7F7F" d="M 36.871 8.46 C 36.871 9.923 35.951 10.818 34.439 10.818 C 32.927 10.818 32.001 9.922 32.001 8.46 L 32.001 5.182 L 32.944 5.182 L 32.944 8.46 C 32.944 9.403 33.526 9.971 34.446 9.971 C 35.358 9.971 35.926 9.411 35.926 8.46 L 35.926 5.182 L 36.869 5.182 L 36.869 8.46 Z " stroke-width="1"/>
    </g>
  </g>
</svg>