<svg version="1.1" xmlns="http://www.w3.org/2000/svg" xmlns:xlink="http://www.w3.org/1999/xlink" width="98.61114" height="20.94673" viewBox="0,0,98.61114,20.94673"><defs><linearGradient x1="227.6706" y1="180.90452" x2="326.28174" y2="180.90452" gradientUnits="userSpaceOnUse" id="color-1"><stop offset="0" stop-color="#696969" stop-opacity="0.58548"/><stop offset="1" stop-color="#696969" stop-opacity="0"/></linearGradient></defs><g transform="translate(-227.67059,-170.43115)"><g data-paper-data="{&quot;isPaintingLayer&quot;:true}" fill-rule="nonzero" stroke-linecap="butt" stroke-linejoin="miter" stroke-miterlimit="10" stroke-dasharray="" stroke-dashoffset="0" style="mix-blend-mode: normal"><path d="M227.6706,191.37788v-20.94673h98.61114v20.94673z" fill="url(#color-1)" stroke="none" stroke-width="0"/><path d="M248.9375,175.062v9.938c0,1.1 -0.9,2 -2,2h-14c-0.962,0 -1.772,-0.689 -1.959,-1.599c-0.027,-0.13 -0.041,-0.263 -0.041,-0.401v-9.937c0,-0.138 0.01,-0.262 0.029,-0.373c0.075,-0.444 0.295,-0.672 0.596,-0.659c0.226,0.009 0.497,0.154 0.789,0.446l3.086,3.086l3.086,-3.086c0.778,-0.778 2.05,-0.778 2.828,0l3.086,3.086l3.086,-3.086c0.777,-0.778 1.414,-0.515 1.414,0.585z" fill="#767d7d" stroke="#ffffff" stroke-width="1.5"/><g fill="#ffffff" stroke="none" stroke-width="1"><path d="M264.012,177.53784l-0.828,1.032c-0.611,-0.66 -1.486,-1.067 -2.338,-1.067c-1.68,0 -2.999,1.295 -2.999,2.95c0,1.655 1.319,2.962 2.999,2.962c0.839,0 1.703,-0.384 2.338,-0.995l0.84,0.936c-0.852,0.84 -2.063,1.379 -3.25,1.379c-2.459,0 -4.365,-1.858 -4.365,-4.27c0,-2.387 1.931,-4.222 4.413,-4.222c1.187,0 2.374,0.492 3.19,1.295z"/><path d="M271.26,181.48384c0,1.919 -1.355,3.238 -3.322,3.238c-1.979,0 -3.334,-1.319 -3.334,-3.238c0,-1.931 1.355,-3.238 3.334,-3.238c1.966,0 3.322,1.307 3.322,3.238zM265.982,181.49584c0,1.235 0.804,2.075 1.955,2.075c1.14,0 1.943,-0.84 1.943,-2.075c0,-1.223 -0.804,-2.063 -1.943,-2.063c-1.151,0 -1.955,0.84 -1.955,2.063z"/><path d="M278.808,180.70484v3.97h-1.379v-3.586c0,-0.96 -0.576,-1.548 -1.535,-1.548c-1.056,0.013 -1.716,0.744 -1.812,1.739v3.395h-1.379v-6.381h1.379v1.224c0.456,-0.888 1.271,-1.271 2.351,-1.271c1.487,-0.001 2.375,0.934 2.375,2.458z"/><path d="M284.27,184.26584c-0.504,0.3 -1.032,0.468 -1.571,0.468c-0.96,0 -1.787,-0.552 -1.787,-1.858v-3.311h-0.899v-1.031h0.899v-1.751h1.367v1.751h1.883v1.031h-1.883v3.059c0,0.659 0.252,0.863 0.684,0.863c0.288,0 0.588,-0.096 0.959,-0.275z"/><path d="M291.085,182.01184h-4.822c0.217,0.983 0.972,1.595 1.979,1.595c0.695,0 1.331,-0.264 1.799,-0.743l0.731,0.779c-0.623,0.684 -1.535,1.079 -2.639,1.079c-1.967,0 -3.262,-1.308 -3.262,-3.227c0,-1.931 1.331,-3.238 3.226,-3.25c2.244,0.001 3.155,1.464 2.988,3.767zM289.885,181.00484c-0.048,-1.031 -0.731,-1.655 -1.774,-1.655c-1.008,0 -1.715,0.636 -1.871,1.655z"/><path d="M296.665,178.88184l-0.504,1.02c-0.563,-0.348 -1.271,-0.563 -1.835,-0.563c-0.54,0 -0.936,0.18 -0.936,0.636c0,1.175 3.395,0.539 3.382,2.854c0,1.307 -1.163,1.895 -2.446,1.895c-0.936,0 -1.931,-0.312 -2.566,-0.888l0.491,-0.983c0.552,0.492 1.439,0.792 2.136,0.792c0.587,0 1.043,-0.204 1.043,-0.684c0,-1.308 -3.358,-0.576 -3.346,-2.879c0,-1.295 1.127,-1.847 2.351,-1.847c0.802,-0.001 1.654,0.238 2.23,0.647z"/><path d="M301.777,184.26584c-0.504,0.3 -1.032,0.468 -1.571,0.468c-0.96,0 -1.787,-0.552 -1.787,-1.858v-3.311h-0.899v-1.031h0.899v-1.751h1.367v1.751h1.883v1.031h-1.883v3.059c0,0.659 0.252,0.863 0.684,0.863c0.288,0 0.588,-0.096 0.959,-0.275z"/><path d="M308.593,182.01184h-4.822c0.217,0.983 0.972,1.595 1.979,1.595c0.695,0 1.331,-0.264 1.799,-0.743l0.731,0.779c-0.623,0.684 -1.535,1.079 -2.639,1.079c-1.967,0 -3.262,-1.308 -3.262,-3.227c0,-1.931 1.331,-3.238 3.226,-3.25c2.244,0.001 3.155,1.464 2.988,3.767zM307.393,181.00484c-0.048,-1.031 -0.731,-1.655 -1.774,-1.655c-1.008,0 -1.715,0.636 -1.871,1.655z"/><path d="M316.115,184.67484h-1.379v-1.092c-0.456,0.744 -1.224,1.151 -2.242,1.151c-1.835,0 -3.059,-1.331 -3.059,-3.274c0,-1.919 1.235,-3.226 3.034,-3.226c1.031,0 1.799,0.42 2.267,1.163v-3.622h1.379zM314.736,181.50784c0,-1.235 -0.804,-2.1 -1.955,-2.1c-1.151,0 -1.955,0.876 -1.967,2.1c0.012,1.211 0.804,2.074 1.967,2.074c1.152,0.001 1.955,-0.863 1.955,-2.074z"/><path d="M319.394,183.97884c0,0.468 -0.323,0.804 -0.755,0.804c-0.432,0 -0.756,-0.336 -0.756,-0.804c0,-0.456 0.324,-0.78 0.756,-0.78c0.432,0 0.755,0.324 0.755,0.78zM319.07,181.99984h-0.876l-0.216,-3.55v-2.063h1.308v2.063z"/></g></g></g></svg>