<svg xmlns="http://www.w3.org/2000/svg" xmlns:xlink="http://www.w3.org/1999/xlink" version="1.1" width="43" height="13" viewBox="-0.5 -0.5 43 13">
  <!-- Exported by Scratch - http://scratch.mit.edu/ -->
  <g id="ID0.8776742410846055">
    <g id="ID0.8097645589150488">
      <path id="ID0.046967663802206516" fill="#FFFFFF" d="M 0.500 0.500 L 41.500 0.500 L 41.500 11.500 L 0.500 11.500 L 0.500 0.500 Z " stroke-width="1"/>
      <path id="ID0.3361863582395017" fill="#FFFFFF" d="M 41 1 L 41 11 L 1 11 L 1 1 L 41 1 M 42 0 L 0 0 L 0 12 L 42 12 L 42 0 L 42 0 Z " stroke-width="1"/>
    </g>
    <g id="ID0.4794822600670159">
      <path id="ID0.09707194566726685" fill="#7F7F7F" d="M 12.459 8.084 L 12.459 6.345 L 10.234 6.345 L 10.234 8.084 L 9.526 8.084 L 9.526 3.887 L 10.234 3.887 L 10.234 5.710 L 12.459 5.710 L 12.459 3.887 L 13.167 3.887 L 13.167 8.084 L 12.459 8.084 Z " stroke-width="1"/>
      <path id="ID0.4852133500389755" fill="#7F7F7F" d="M 17.841 6.345 C 17.841 7.443 17.152 8.114 16.018 8.114 C 14.885 8.114 14.189 7.443 14.189 6.345 L 14.189 3.887 L 14.897 3.887 L 14.897 6.345 C 14.897 7.053 15.335 7.479 16.024 7.479 C 16.708 7.479 17.133 7.059 17.133 6.345 L 17.133 3.887 L 17.841 3.887 L 17.841 6.345 Z " stroke-width="1"/>
      <path id="ID0.5566039066761732" fill="#7F7F7F" d="M 22.642 8.084 L 22.636 4.948 L 21.310 7.646 L 20.848 7.646 L 19.523 4.948 L 19.523 8.084 L 18.857 8.084 L 18.857 3.887 L 19.697 3.887 L 21.082 6.675 L 22.461 3.887 L 23.295 3.887 L 23.295 8.084 L 22.642 8.084 Z " stroke-width="1"/>
      <path id="ID0.5560496039688587" fill="#7F7F7F" d="M 25.001 7.137 L 24.599 8.084 L 23.860 8.084 L 25.714 3.887 L 26.441 3.887 L 28.275 8.084 L 27.519 8.084 L 27.119 7.137 L 25.001 7.137 Z M 26.056 4.643 L 25.265 6.507 L 26.847 6.507 L 26.056 4.643 Z " stroke-width="1"/>
      <path id="ID0.2974808416329324" fill="#7F7F7F" d="M 31.778 8.084 L 29.542 5.074 L 29.542 8.084 L 28.835 8.084 L 28.835 3.887 L 29.530 3.887 L 31.778 6.904 L 31.778 3.887 L 32.473 3.887 L 32.473 8.084 L 31.778 8.084 Z " stroke-width="1"/>
    </g>
  </g>
</svg>