<svg version="1.1" xmlns="http://www.w3.org/2000/svg" xmlns:xlink="http://www.w3.org/1999/xlink" width="110.53705" height="19.28895" viewBox="0,0,110.53705,19.28895"><g transform="translate(-184.51203,-176.75292)"><g data-paper-data="{&quot;isPaintingLayer&quot;:true}" fill="#000000" fill-rule="nonzero" stroke="none" stroke-width="1" stroke-linecap="butt" stroke-linejoin="miter" stroke-miterlimit="10" stroke-dasharray="" stroke-dashoffset="0" style="mix-blend-mode: normal"><path d="M223.06836,178.14454l1.3916,-1.3916h5.10254v1.85547h-4.1748l-0.23193,0.23145l0.23193,0.23242h2.7832l1.3916,1.3916v1.3916l-1.3916,1.3916h-5.10254v-1.85547h4.1748l0.23193,-0.23242l-0.23193,-0.23145h-2.7832l-1.3916,-1.3916z"/><path d="M234.43311,178.6084v4.63867h-1.85547v-4.63867h-2.31934v-1.85547h6.49414v1.85547z"/><path d="M238.83985,176.75293h3.71094l1.3916,1.3916v5.10254h-1.85547v-1.3916h-2.7832v1.3916h-1.85547v-5.10254zM241.62305,178.6084h-1.85547l-0.46387,0.46387v0.92773h2.7832v-0.92773z"/><path d="M250.43653,176.75293v1.85547h-3.71094v0.46387h3.71094v1.85547h-3.71094v2.31934h-1.85547v-6.49414h5.56641z"/><path d="M256.93164,176.75293v1.85547h-3.71191v0.46387h3.71191v1.85547h-3.71191v2.31934h-1.85547v-6.49414h5.56738z"/><text transform="translate(184.60262,193.55001) scale(0.18116,0.19935)" font-size="40" xml:space="preserve" fill="#000000" fill-rule="nonzero" stroke="none" stroke-width="1" stroke-linecap="butt" stroke-linejoin="miter" stroke-miterlimit="10" stroke-dasharray="" stroke-dashoffset="0" font-family="Sans Serif" font-weight="normal" text-anchor="start" style="mix-blend-mode: normal"><tspan x="0" dy="0">Casts powerful bouncy fireballs </tspan></text></g></g></svg>