<svg version="1.1" xmlns="http://www.w3.org/2000/svg" xmlns:xlink="http://www.w3.org/1999/xlink" width="132.125" height="27.25" viewBox="0,0,132.125,27.25"><defs><linearGradient x1="181.04267" y1="180.41248" x2="313.16767" y2="180.41248" gradientUnits="userSpaceOnUse" id="color-1"><stop offset="0" stop-color="#000000"/><stop offset="1" stop-color="#000000" stop-opacity="0"/></linearGradient></defs><g transform="translate(-181.04267,-166.78748)"><g data-paper-data="{&quot;isPaintingLayer&quot;:true}" fill-rule="nonzero" stroke="none" stroke-linecap="butt" stroke-linejoin="miter" stroke-miterlimit="10" stroke-dasharray="" stroke-dashoffset="0" style="mix-blend-mode: normal"><path d="M181.04267,194.03748v-27.25h132.125v27.25z" fill="url(#color-1)" stroke-width="0"/><g fill="#ffffff" stroke-width="1"><path d="M207.40585,174.10352l-5.97719,11.40039h-3.45245l-0.82965,-6.87178l-3.63204,6.87178h-3.46902l-1.4002,-11.40039h3.17546l0.87935,7.27998l3.84342,-7.27998h2.98064l0.81375,7.37804l3.87656,-7.37804z"/><path d="M214.10004,183.2893h-4.85331l-1.31869,2.21461h-3.40474l7.31311,-11.40039h3.17612l2.75136,11.40039h-3.20793zM213.611,180.91168l-0.76471,-3.69764l-2.1828,3.69764z"/><path d="M231.88382,174.10352l-7.14877,11.40039h-3.17546l-2.58967,-11.40039h3.30535l1.62749,7.40986l4.65717,-7.40986z"/><path d="M235.23689,176.59511l-0.37374,1.92172h5.06537l-0.47182,2.41076h-5.08127l-0.4082,2.08472h5.97719l-0.52218,2.4916h-9.1341l2.27955,-11.40039h8.92469l-0.50628,2.4916h-5.74922z"/></g></g></g></svg>