<?xml version="1.0" encoding="utf-8"?><!-- Generator: Adobe Illustrator 16.0.0, SVG Export Plug-In . SVG Version: 6.00 Build 0)  --><!DOCTYPE svg PUBLIC "-//W3C//DTD SVG 1.1//EN" "http://www.w3.org/Graphics/SVG/1.1/DTD/svg11.dtd"><svg xmlns="http://www.w3.org/2000/svg" xmlns:xlink="http://www.w3.org/1999/xlink" version="1.1" id="Layer_1" x="0px" y="0px" width="90.61102294921875" height="9.51500129699707" viewBox="-29.032001495361328 6.439998626708984 90.61102294921875 9.51500129699707" enable-background="new 0 0 32 24" xml:space="preserve">
<g>
	<path fill="#FFFFFF" d="M-25.186,7c2.111,0,3.322,1.043,3.322,2.867c0,1.895-1.211,2.998-3.322,2.998h-1.931v2.531h-1.415V7   H-25.186z M-27.117,11.594h1.871c1.295,0,2.027-0.552,2.027-1.691c0-1.103-0.731-1.631-2.027-1.631h-1.871V11.594z" stroke-width="1"/>
	<path fill="#FFFFFF" d="M-15.407,14.112v1.283h-5.049V7h1.415v7.112H-15.407z" stroke-width="1"/>
	<path fill="#FFFFFF" d="M-12.79,13.5l-0.803,1.896h-1.475L-11.362,7h1.451l3.67,8.396h-1.511L-8.556,13.5H-12.79z M-10.679,8.511   l-1.583,3.73h3.167L-10.679,8.511z" stroke-width="1"/>
	<path fill="#FFFFFF" d="M-2.267,15.396H-3.67v-2.747L-6.8,7h1.427l2.399,4.09L-0.624,7h1.439l-3.083,5.601V15.396z" stroke-width="1"/>
	<path fill="#FFFFFF" d="M3.351,8.271v2.267h4.102v1.271H3.351v2.314h4.726v1.271H1.936V7h5.997v1.271H3.351z" stroke-width="1"/>
	<path fill="#FFFFFF" d="M13.597,12.853c-0.12,0.012-0.251,0.012-0.384,0.012h-1.991v2.531H9.807V7h3.406   c2.147,0,3.382,1.043,3.382,2.867c0,1.343-0.624,2.291-1.739,2.722l1.883,2.807h-1.607L13.597,12.853z M13.213,11.594   c1.295,0,2.039-0.552,2.039-1.691c0-1.103-0.744-1.631-2.039-1.631h-1.991v3.322H13.213z" stroke-width="1"/>
	<path fill="#FFFFFF" d="M24.05,10.538c1.403,0.12,2.362,0.936,2.362,2.255c0,1.571-1.188,2.662-3.059,2.662   c-1.031,0-2.11-0.359-2.83-0.911l0.588-1.151c0.6,0.563,1.379,0.875,2.146,0.875c1.115,0,1.764-0.575,1.764-1.438   c0-0.912-0.66-1.379-1.775-1.379h-1.164v-0.828l2.184-2.351h-3.358V7.012h5.109v0.887l-2.399,2.591L24.05,10.538z" stroke-width="1"/>
	<path fill="#FFFFFF" d="M33.985,11.689l-1.428,1.571v2.135h-1.415V7h1.415v4.342L36.563,7h1.667l-3.25,3.586l3.466,4.81h-1.703   L33.985,11.689z" stroke-width="1"/>
	<path fill="#FFFFFF" d="M41.174,8.271v2.267h4.102v1.271h-4.102v2.314h4.726v1.271h-6.141V7h5.996v1.271H41.174z" stroke-width="1"/>
	<path fill="#FFFFFF" d="M51.073,15.396H49.67v-2.747L46.539,7h1.428l2.398,4.09L52.716,7h1.439l-3.082,5.601V15.396z" stroke-width="1"/>
	<path fill="#FFFFFF" d="M60.971,7.804l-0.587,1.247c-0.912-0.551-1.823-0.779-2.459-0.779c-0.827,0-1.367,0.312-1.367,0.875   c0,1.835,4.533,0.852,4.521,3.875c0,1.498-1.319,2.422-3.166,2.422c-1.319,0-2.566-0.539-3.431-1.331l0.612-1.224   c0.863,0.792,1.942,1.224,2.842,1.224c0.983,0,1.571-0.372,1.571-1.02c0-1.871-4.533-0.828-4.533-3.814   c0-1.439,1.235-2.339,3.059-2.339C59.124,6.94,60.191,7.288,60.971,7.804z" stroke-width="1"/>
</g>
</svg>