<svg xmlns="http://www.w3.org/2000/svg" xmlns:xlink="http://www.w3.org/1999/xlink" version="1.1" width="13.744999885559082" height="18.04199981689453" viewBox="0.12999999523162842 -0.23399999737739563 13.744999885559082 18.04199981689453">
  <!-- Exported by Scratch - http://scratch.mit.edu/ -->
  <g id="ID0.1799443792551756">
    <path id="ID0.5213656355626881" fill="#FFFFFF" d="M 1.109 16.035 L 2.213 13.899 C 3.245 14.571 4.661 14.955 5.934 14.955 C 9.198 14.955 10.71 12.508 10.614 8.883 C 9.726 10.443 8.142 11.259 6.03 11.259 C 2.67 11.259 0.63 9.171 0.63 5.907 C 0.63 2.427 2.958 0.266 6.534 0.266 C 10.782 0.266 13.375 3.29 13.375 8.451 C 13.375 13.803 10.566 17.308 6.126 17.308 C 4.469 17.308 2.477 16.804 1.109 16.035 Z M 10.157 5.834 C 10.181 4.37 9.101 2.714 6.677 2.714 C 4.637 2.714 3.269 3.89 3.269 5.93 C 3.269 7.85 4.517 9.026 6.558 9.026 C 8.837 9.027 10.182 7.563 10.157 5.834 Z " stroke-width="1"/>
  </g>
</svg>