<svg version="1.1" xmlns="http://www.w3.org/2000/svg" xmlns:xlink="http://www.w3.org/1999/xlink" width="29.61" height="30.16868" viewBox="0,0,29.61,30.16868"><defs><linearGradient x1="240" y1="164.91566" x2="240" y2="195.08434" gradientUnits="userSpaceOnUse" id="color-1"><stop offset="0" stop-color="#000000"/><stop offset="1" stop-color="#000000" stop-opacity="0"/></linearGradient></defs><g transform="translate(-225.195,-164.91566)"><g data-paper-data="{&quot;isPaintingLayer&quot;:true}" fill-rule="nonzero" stroke="none" stroke-linecap="butt" stroke-linejoin="miter" stroke-miterlimit="10" stroke-dasharray="" stroke-dashoffset="0" style="mix-blend-mode: normal"><path d="M225.195,195.08434v-30.16868h29.61v30.16868z" fill="url(#color-1)" stroke-width="0"/><path d="M247.10387,175.72473c-0.26939,1.48164 -1.34693,2.55918 -2.82857,2.82857v3.23266c0,0.26939 -0.26938,0.53877 -0.53877,0.53877c-0.26939,0 -0.53878,-0.26938 -0.53878,-0.53877v-3.23266c-1.48164,-0.26939 -2.55919,-1.34693 -2.82858,-2.82857h-3.23265c-0.26939,0 -0.53877,-0.26939 -0.53877,-0.53878c0,-0.26939 0.26938,-0.53877 0.53877,-0.53877h3.09796c0.26939,-1.48163 1.34693,-2.55918 2.82857,-2.82857v-3.23265c0,-0.26939 0.26938,-0.53877 0.53877,-0.53877c0.26939,0 0.53878,0.26938 0.53878,0.53877v3.09796c1.48164,0.26939 2.55918,1.34693 2.82857,2.82857h3.23266c0.26939,0 0.53877,0.26938 0.53877,0.53877c0,0.26939 -0.26938,0.53878 -0.53877,0.53878h-3.09796zM243.06306,173.03086c-0.80816,0.26938 -1.34694,0.80815 -1.61633,1.61632h1.61633zM243.06306,175.72473h-1.61633c0.26939,0.80816 0.80816,1.34694 1.61633,1.61633zM244.27531,173.03086v1.61632h1.61632c-0.26938,-0.80816 -0.94285,-1.48163 -1.61632,-1.61632zM244.27531,175.72473v1.61633c0.80816,-0.26939 1.34693,-0.80816 1.61632,-1.61633z" data-paper-data="{&quot;origPos&quot;:null,&quot;index&quot;:null}" fill="#ffffff" stroke-width="1"/><path d="M240.09979,173.97371c0,0.1347 0,0.1347 0,0.1347v0.26938v0c0,-0.13469 0,-0.13469 0,-0.40408z" data-paper-data="{&quot;origPos&quot;:null,&quot;index&quot;:null}" fill="#ffffff" stroke-width="1"/><path d="M240.77326,172.89616z" data-paper-data="{&quot;origPos&quot;:null,&quot;index&quot;:null}" fill="#ffffff" stroke-width="1"/><path d="M242.92835,178.82269v0h-0.26939c-0.1347,0 -0.26939,-0.13469 -0.40408,-0.13469c0.13469,-0.1347 0.40408,0 0.67347,0.13469z" data-paper-data="{&quot;origPos&quot;:null,&quot;index&quot;:null}" fill="#ffffff" stroke-width="1"/><path d="M234.30795,181.1125c-0.26939,1.07755 0.26939,1.88571 1.21225,2.28979l-2.82857,1.07755c-1.07755,-0.80817 -1.75102,-2.02041 -1.75102,-4.17551c0,-2.1551 0.80817,-3.90613 2.02041,-5.11837l3.50204,-0.53877c0,0.1347 -0.1347,0.26939 -0.1347,0.40408c0,0.40408 0.40409,0.80817 0.80817,0.80817h0.40408h-0.1347l-0.26938,0.26939l-0.67347,0.40408l0.80816,0.13469l1.75102,0.40408l-0.94286,1.48163l-0.40408,0.53878c-0.26939,-0.1347 -0.67347,-0.26939 -1.07755,-0.26939c-1.34694,0 -2.2898,1.07755 -2.2898,2.28979z" data-paper-data="{&quot;origPos&quot;:null,&quot;index&quot;:null}" fill="#ffffff" stroke-width="1"/><path d="M240.23448,176.2635c0,0.1347 0.13469,0.2694 0.13469,0.40409c-0.13469,-0.26939 -0.26938,-0.40408 -0.26938,-0.67347z" data-paper-data="{&quot;origPos&quot;:null,&quot;index&quot;:null}" fill="#ffffff" stroke-width="1"/><path d="M238.75285,173.16554l-2.55919,0.53878l1.07755,0.67347h-0.40408c-0.26939,0 -0.40409,0.1347 -0.53878,0.26939l-2.42449,-0.26939c1.34694,-0.80816 2.96327,-1.34694 4.71429,-1.48163z" data-paper-data="{&quot;origPos&quot;:null,&quot;index&quot;:null}" fill="#ffffff" stroke-width="1"/><path d="M232.42224,175.05126l-0.80817,-0.53877l2.55919,0.26939z" data-paper-data="{&quot;origPos&quot;:null,&quot;index&quot;:null}" fill="#ffffff" stroke-width="1"/><path d="M240.77324,183.80638c0,-1.21224 -0.40408,-2.15511 -0.67347,-2.69388v0l1.48163,-0.94286l0.40409,1.75102l0.13469,0.80817l0.40408,-0.67347l0.26938,-0.26939v-0.1347v0.40409c0,0.40408 0.40409,0.80816 0.80817,0.80816c0.40408,0 0.80817,-0.40408 0.80817,-0.80816v-0.40409v0.1347l0.26938,0.26939l0.40408,0.67347l0.1347,-0.80817l0.40408,-1.75102l1.48163,0.94286l0.67347,0.40409l-0.13469,-0.80817l-0.26938,-1.75102l1.34694,0.26938c0,0.40407 0.13469,0.80816 0.13469,1.21224c0,3.23266 -1.61633,4.44491 -4.04082,4.98368v2.82857h-5.92653l0.94286,-4.4449z" data-paper-data="{&quot;origPos&quot;:null,&quot;index&quot;:null}" fill="#ffffff" stroke-width="1"/><path d="M238.34877,189.05943l-1.61633,1.21224l2.2898,-4.84898z" data-paper-data="{&quot;origPos&quot;:null,&quot;index&quot;:null}" fill="#ffffff" stroke-width="1"/><path d="M235.65488,183.53697c0.40408,0 0.53878,0 0.67347,0c1.34694,0 2.2898,-1.07755 2.2898,-2.28979c0,-0.80817 -0.40408,-1.48164 -1.07755,-1.88572l0.53877,-0.13469l1.75102,-0.26938l-0.26938,1.75102l-0.1347,0.53877c-0.26939,0.53878 -0.67347,1.48164 -0.67347,2.55919h0.67347l-2.1551,4.4449h-2.55918v-2.82857c-0.40407,-0.1347 -0.80816,-0.26939 -1.21224,-0.40408l2.1551,-1.48164z" data-paper-data="{&quot;origPos&quot;:null,&quot;index&quot;:null}" fill="#ffffff" stroke-width="1"/><path d="M232.69163,185.288l-0.94286,-0.13469l2.42449,-0.94286z" data-paper-data="{&quot;origPos&quot;:null,&quot;index&quot;:null}" fill="#ffffff" stroke-width="1"/><path d="M246.96917,176.66759c0,-0.1347 0.1347,-0.2694 0.1347,-0.40409l0.13469,-0.26938c-0.13469,0.13469 -0.1347,0.40408 -0.26939,0.67347z" data-paper-data="{&quot;origPos&quot;:null,&quot;index&quot;:null}" fill="#ffffff" stroke-width="1"/><path d="M244.67937,178.688c0.1347,0 0.26939,-0.1347 0.40408,-0.1347c-0.26938,0.13469 -0.40407,0.26939 -0.67346,0.26939v0z" data-paper-data="{&quot;origPos&quot;:null,&quot;index&quot;:null}" fill="#ffffff" stroke-width="1"/></g></g></svg>