<svg version="1.1" xmlns="http://www.w3.org/2000/svg" xmlns:xlink="http://www.w3.org/1999/xlink" width="38.955" height="6.262" viewBox="0,0,38.955,6.262"><g transform="translate(-220.523,-176.583)"><g data-paper-data="{&quot;isPaintingLayer&quot;:true}" fill="#000000" fill-rule="nonzero" stroke="none" stroke-width="1" stroke-linecap="butt" stroke-linejoin="miter" stroke-miterlimit="10" stroke-dasharray="" stroke-dashoffset="0" style="mix-blend-mode: normal"><g><path/><path d="M222.378,180.608v2.237h-1.855v-6.262h1.855v2.236l2.319,-2.236h2.782l-3.246,3.13l3.246,3.131h-2.782z"/><path d="M229.798,179.713v3.131h-1.855v-6.261h1.391l3.246,3.13v-3.13h1.855v6.262h-1.391z"/><path d="M237.218,182.845h-1.855v-6.262h1.855z"/><path d="M238.146,181.503v-3.578l1.391,-1.342h3.71l1.391,1.342l-0.928,0.894h0.928v4.026h-5.101zM240,178.819v1.789l0.464,0.448h2.319v-0.448h-1.855v-1.789h1.855l-0.464,-0.447h-1.855z"/><path d="M247.42,180.608v2.237h-1.854v-6.262h1.854v2.236h2.783v-2.236h1.854v6.262h-1.854v-2.237z"/><path d="M257.159,178.372v4.473h-1.855v-4.473h-2.318v-1.789h6.492v1.789z"/><path/></g></g></g></svg>