<svg version="1.1" xmlns="http://www.w3.org/2000/svg" xmlns:xlink="http://www.w3.org/1999/xlink" width="46.125" height="46.125" viewBox="0,0,46.125,46.125"><defs><radialGradient cx="240" cy="180" r="23.0625" gradientUnits="userSpaceOnUse" id="color-1"><stop offset="0" stop-color="#000000" stop-opacity="0.48508"/><stop offset="1" stop-color="#000000" stop-opacity="0"/></radialGradient></defs><g transform="translate(-216.9375,-156.9375)"><g data-paper-data="{&quot;isPaintingLayer&quot;:true}" fill-rule="nonzero" stroke-linecap="butt" stroke-miterlimit="10" stroke-dasharray="" stroke-dashoffset="0" style="mix-blend-mode: normal"><path d="M216.9375,180c0,-12.73706 10.32544,-23.0625 23.0625,-23.0625c12.73706,0 23.0625,10.32544 23.0625,23.0625c0,12.73706 -10.32544,23.0625 -23.0625,23.0625c-12.73706,0 -23.0625,-10.32544 -23.0625,-23.0625z" fill="url(#color-1)" stroke="none" stroke-width="0" stroke-linejoin="miter"/><g fill="#000000" stroke="#000000" stroke-width="1" stroke-linejoin="round"><path d="M221.993,175.13v1.365l0.342,0.342h1.365l0.683,-0.682l1.024,1.023l-1.024,1.025h-2.731l-1.024,-1.025v-2.73l1.024,-1.024h2.731l1.024,1.024l-1.024,1.024l-0.683,-0.683h-1.365z"/><path d="M229.673,173.424l1.024,1.023v3.755h-1.365v-1.024h-2.048v1.024h-1.365v-3.755l1.024,-1.023zM229.333,175.13l-0.341,-0.341h-1.366l-0.341,0.341v0.683h2.048z"/><path d="M235.135,176.838h-2.39v1.365h-1.365v-4.778h3.755l1.024,1.023v1.365zM234.794,175.13l-0.341,-0.341h-1.707v0.683h1.707z"/><path d="M238.549,174.789h-1.707v-1.365h4.779v1.365h-1.707v3.414h-1.365z"/><path d="M245.718,173.424h1.365v3.754l-1.025,1.025h-2.73l-1.025,-1.025v-3.754h1.366v3.071l0.341,0.342h1.366l0.342,-0.342z"/><path d="M251.521,176.838l1.365,1.365h-2.049l-1.365,-1.365h-0.34v1.365h-1.366v-4.778h3.755l1.023,1.023v1.365zM251.179,175.13l-0.342,-0.341h-1.705v0.683h1.705z"/><path d="M253.227,173.424h4.096v1.365h-2.73v0.341h2.73v1.365h-2.73v0.342h2.73v1.366h-4.096z"/><path d="M258.007,178.202v-1.365h1.365v1.365z"/><path d="M258.007,176.495v-3.071h1.365v3.071z"/><path d="M245.5,180l0.354,0.869l-5.116,5.131h-0.707l-5.115,-5.131l0.353,-0.869z"/></g><g fill="#b6b6b6" stroke="none" stroke-width="1" stroke-linejoin="miter"><path d="M221.993,175.13v1.365l0.342,0.342h1.365l0.683,-0.682l1.024,1.023l-1.024,1.025h-2.731l-1.024,-1.025v-2.73l1.024,-1.024h2.731l1.024,1.024l-1.024,1.024l-0.683,-0.683h-1.365z"/><path d="M229.673,173.424l1.024,1.023v3.755h-1.365v-1.024h-2.048v1.024h-1.365v-3.755l1.024,-1.023zM229.333,175.13l-0.341,-0.341h-1.366l-0.341,0.341v0.683h2.048z"/><path d="M235.135,176.838h-2.39v1.365h-1.365v-4.778h3.755l1.024,1.023v1.365zM234.794,175.13l-0.341,-0.341h-1.707v0.683h1.707z"/><path d="M238.549,174.789h-1.707v-1.365h4.779v1.365h-1.707v3.414h-1.365z"/><path d="M245.718,173.424h1.365v3.754l-1.025,1.025h-2.73l-1.025,-1.025v-3.754h1.366v3.071l0.341,0.342h1.366l0.342,-0.342z"/><path d="M251.521,176.838l1.365,1.365h-2.049l-1.365,-1.365h-0.34v1.365h-1.366v-4.778h3.755l1.023,1.023v1.365zM251.179,175.13l-0.342,-0.341h-1.705v0.683h1.705z"/><path d="M253.227,173.424h4.096v1.365h-2.73v0.341h2.73v1.365h-2.73v0.342h2.73v1.366h-4.096z"/><path d="M258.007,178.202v-1.365h1.365v1.365z"/><path d="M258.007,176.495v-3.071h1.365v3.071z"/><path d="M245.5,180l0.354,0.869l-5.116,5.131h-0.707l-5.115,-5.131l0.353,-0.869z"/></g></g></g></svg>