<svg version="1.1" xmlns="http://www.w3.org/2000/svg" xmlns:xlink="http://www.w3.org/1999/xlink" width="49" height="15" viewBox="0,0,49,15"><g transform="translate(-215.5,-172.5)"><g data-paper-data="{&quot;isPaintingLayer&quot;:true}" fill-rule="nonzero" stroke-width="1" stroke-linecap="butt" stroke-linejoin="miter" stroke-miterlimit="10" stroke-dasharray="" stroke-dashoffset="0" style="mix-blend-mode: normal"><path d="M216,173h48v14h-48z" fill="#ffffff" stroke="#ffffff"/><g fill="#7f7f7f" stroke="none"><path d="M233.455,182.7985l-2.982,-4.015v4.015h-0.943v-5.598h0.928l2.998,4.021v-4.021h0.928v5.598z"/><path d="M236.809,178.0485v1.511h2.734v0.848h-2.734v1.544h3.15v0.848h-4.094v-5.599h3.998v0.848z"/><path d="M245.742,182.7985h-1.127l-1.512,-2.111l-1.503,2.111h-1.103l2.038,-2.871l-1.895,-2.727h1.095l1.367,1.943l1.375,-1.943h1.104l-1.879,2.687z"/><path d="M248.695,178.0485v4.75h-0.943v-4.75h-1.766v-0.848h4.484v0.848z"/></g></g></g></svg>