<svg version="1.1" xmlns="http://www.w3.org/2000/svg" xmlns:xlink="http://www.w3.org/1999/xlink" width="103.94974" height="41.82285" viewBox="0,0,103.94974,41.82285"><g transform="translate(-187.22098,-155.93018)"><g data-paper-data="{&quot;isPaintingLayer&quot;:true}" fill-rule="nonzero" stroke="none" stroke-linecap="butt" stroke-linejoin="miter" stroke-miterlimit="10" stroke-dasharray="" stroke-dashoffset="0" style="mix-blend-mode: normal"><g fill="#ffffff" stroke-width="1"><path d="M205.41904,184.0115h0.998c0.259,0 0.488,0.052 0.686,0.156c0.198,0.104 0.352,0.248 0.462,0.434c0.11,0.186 0.165,0.397 0.165,0.636c0,0.237 -0.055,0.449 -0.165,0.635c-0.11,0.186 -0.264,0.33 -0.462,0.435c-0.198,0.104 -0.427,0.155 -0.686,0.155h-0.998zM206.40204,186.2385c0.215,0 0.403,-0.043 0.563,-0.128c0.161,-0.085 0.286,-0.203 0.375,-0.354c0.089,-0.15 0.133,-0.324 0.133,-0.52c0,-0.196 -0.044,-0.37 -0.133,-0.521c-0.088,-0.15 -0.213,-0.268 -0.375,-0.354c-0.161,-0.085 -0.349,-0.127 -0.563,-0.127h-0.724v2.002h0.724z"/><path d="M208.72104,186.3205c-0.197,-0.108 -0.351,-0.258 -0.462,-0.446c-0.111,-0.189 -0.166,-0.401 -0.166,-0.637c0,-0.236 0.055,-0.448 0.166,-0.638c0.111,-0.188 0.265,-0.338 0.462,-0.446c0.197,-0.108 0.417,-0.162 0.66,-0.162c0.243,0 0.461,0.054 0.656,0.161c0.195,0.106 0.348,0.256 0.46,0.446c0.112,0.189 0.168,0.402 0.168,0.639c0,0.235 -0.056,0.448 -0.168,0.639c-0.112,0.189 -0.265,0.339 -0.46,0.446c-0.195,0.107 -0.414,0.161 -0.656,0.161c-0.242,0 -0.462,-0.055 -0.66,-0.163zM209.90604,186.1205c0.156,-0.088 0.279,-0.209 0.367,-0.364c0.089,-0.155 0.133,-0.328 0.133,-0.52c0,-0.192 -0.044,-0.365 -0.133,-0.52c-0.088,-0.154 -0.211,-0.276 -0.367,-0.363c-0.156,-0.088 -0.332,-0.132 -0.525,-0.132c-0.194,0 -0.37,0.044 -0.527,0.132c-0.158,0.087 -0.281,0.209 -0.371,0.363c-0.09,0.155 -0.135,0.329 -0.135,0.521c0,0.192 0.045,0.364 0.135,0.52c0.09,0.156 0.213,0.276 0.371,0.364c0.157,0.087 0.333,0.131 0.527,0.131c0.194,-0.001 0.369,-0.045 0.525,-0.132z"/><path d="M213.29404,184.0115v2.45h-0.213l-1.575,-1.988v1.988h-0.259v-2.45h0.213l1.579,1.988v-1.988z"/><path d="M214.20004,183.9015c0.035,0.036 0.053,0.081 0.053,0.135c0,0.028 -0.004,0.058 -0.012,0.09c-0.008,0.031 -0.02,0.068 -0.033,0.11l-0.151,0.482h-0.168l0.123,-0.504c-0.04,-0.012 -0.071,-0.033 -0.094,-0.064c-0.023,-0.031 -0.035,-0.069 -0.035,-0.114c0,-0.056 0.018,-0.102 0.053,-0.136c0.035,-0.035 0.079,-0.053 0.133,-0.053c0.054,0 0.097,0.018 0.131,0.054z"/><path d="M215.40804,184.2365h-0.861v-0.225h1.981v0.225h-0.861v2.226h-0.259z"/><path d="M218.01004,186.3955c-0.167,-0.059 -0.296,-0.136 -0.387,-0.231l0.102,-0.199c0.088,0.089 0.207,0.16 0.354,0.215c0.147,0.056 0.298,0.083 0.455,0.083c0.219,0 0.384,-0.041 0.493,-0.121c0.11,-0.08 0.165,-0.185 0.165,-0.313c0,-0.098 -0.03,-0.176 -0.089,-0.234c-0.059,-0.059 -0.132,-0.104 -0.219,-0.135c-0.086,-0.031 -0.207,-0.065 -0.36,-0.104c-0.184,-0.046 -0.332,-0.091 -0.441,-0.135c-0.11,-0.043 -0.204,-0.108 -0.282,-0.197c-0.078,-0.089 -0.117,-0.209 -0.117,-0.36c0,-0.124 0.033,-0.236 0.098,-0.338c0.065,-0.102 0.166,-0.183 0.301,-0.243c0.135,-0.06 0.303,-0.091 0.504,-0.091c0.14,0 0.277,0.019 0.411,0.058c0.134,0.038 0.25,0.092 0.349,0.159l-0.088,0.206c-0.103,-0.067 -0.212,-0.118 -0.329,-0.152c-0.117,-0.033 -0.231,-0.051 -0.343,-0.051c-0.215,0 -0.376,0.042 -0.485,0.125c-0.108,0.083 -0.163,0.189 -0.163,0.32c0,0.098 0.03,0.177 0.089,0.236c0.059,0.059 0.134,0.104 0.224,0.136c0.089,0.032 0.21,0.066 0.362,0.104c0.18,0.044 0.325,0.088 0.436,0.131c0.111,0.044 0.205,0.109 0.282,0.196c0.077,0.088 0.115,0.206 0.115,0.355c0,0.124 -0.033,0.236 -0.1,0.338c-0.067,0.102 -0.168,0.182 -0.306,0.241c-0.138,0.059 -0.307,0.09 -0.507,0.09c-0.182,-0.001 -0.357,-0.03 -0.524,-0.089z"/><path d="M220.45104,184.2365h-0.861v-0.225h1.981v0.225h-0.861v2.226h-0.259z"/><path d="M223.39804,185.8075h-1.365l-0.294,0.654h-0.27l1.12,-2.45h0.255l1.12,2.45h-0.273zM223.30304,185.5975l-0.588,-1.316l-0.588,1.316z"/><path d="M226.41804,184.0115v2.45h-0.213l-1.575,-1.988v1.988h-0.259v-2.45h0.213l1.579,1.988v-1.988z"/><path d="M227.21604,184.0115h0.998c0.259,0 0.488,0.052 0.686,0.156c0.198,0.104 0.352,0.248 0.462,0.434c0.11,0.186 0.165,0.397 0.165,0.636c0,0.237 -0.055,0.449 -0.165,0.635c-0.11,0.186 -0.264,0.33 -0.462,0.435c-0.198,0.104 -0.427,0.155 -0.686,0.155h-0.998zM228.19904,186.2385c0.215,0 0.403,-0.043 0.563,-0.128c0.161,-0.085 0.286,-0.203 0.375,-0.354c0.089,-0.15 0.133,-0.324 0.133,-0.52c0,-0.196 -0.044,-0.37 -0.133,-0.521c-0.088,-0.15 -0.213,-0.268 -0.375,-0.354c-0.161,-0.085 -0.349,-0.127 -0.563,-0.127h-0.724v2.002h0.724z"/><path d="M231.17604,186.3955c-0.167,-0.059 -0.296,-0.136 -0.387,-0.231l0.102,-0.199c0.088,0.089 0.207,0.16 0.354,0.215c0.147,0.056 0.298,0.083 0.455,0.083c0.219,0 0.384,-0.041 0.493,-0.121c0.11,-0.08 0.165,-0.185 0.165,-0.313c0,-0.098 -0.03,-0.176 -0.089,-0.234c-0.059,-0.059 -0.132,-0.104 -0.219,-0.135c-0.086,-0.031 -0.207,-0.065 -0.36,-0.104c-0.184,-0.046 -0.332,-0.091 -0.441,-0.135c-0.11,-0.043 -0.204,-0.108 -0.282,-0.197c-0.078,-0.089 -0.117,-0.209 -0.117,-0.36c0,-0.124 0.033,-0.236 0.098,-0.338c0.065,-0.102 0.166,-0.183 0.301,-0.243c0.135,-0.06 0.303,-0.091 0.504,-0.091c0.14,0 0.277,0.019 0.411,0.058c0.134,0.038 0.25,0.092 0.349,0.159l-0.088,0.206c-0.103,-0.067 -0.212,-0.118 -0.329,-0.152c-0.117,-0.033 -0.231,-0.051 -0.343,-0.051c-0.215,0 -0.376,0.042 -0.485,0.125c-0.108,0.083 -0.163,0.189 -0.163,0.32c0,0.098 0.03,0.177 0.089,0.236c0.059,0.059 0.134,0.104 0.224,0.136c0.089,0.032 0.21,0.066 0.362,0.104c0.18,0.044 0.325,0.088 0.436,0.131c0.111,0.044 0.205,0.109 0.282,0.196c0.077,0.088 0.115,0.206 0.115,0.355c0,0.124 -0.033,0.236 -0.1,0.338c-0.067,0.102 -0.168,0.182 -0.306,0.241c-0.138,0.059 -0.307,0.09 -0.507,0.09c-0.182,-0.001 -0.357,-0.03 -0.524,-0.089z"/><path d="M233.61804,184.2365h-0.861v-0.225h1.981v0.225h-0.861v2.226h-0.259z"/><path d="M235.15004,184.0115h0.259v2.45h-0.259z"/><path d="M236.20804,184.0115h0.259v2.227h1.372v0.224h-1.631z"/><path d="M238.26904,184.0115h0.259v2.227h1.372v0.224h-1.631z"/><path d="M240.27604,186.4235c-0.036,-0.038 -0.054,-0.083 -0.054,-0.137c0,-0.054 0.018,-0.099 0.054,-0.135c0.036,-0.036 0.08,-0.055 0.131,-0.055c0.051,0 0.096,0.019 0.133,0.055c0.038,0.036 0.056,0.081 0.056,0.135c0,0.054 -0.019,0.099 -0.056,0.137c-0.037,0.037 -0.082,0.056 -0.133,0.056c-0.051,0 -0.094,-0.019 -0.131,-0.056z"/><path d="M243.82004,185.2375h0.249v0.935c-0.114,0.1 -0.25,0.177 -0.406,0.23c-0.156,0.053 -0.32,0.081 -0.493,0.081c-0.245,0 -0.466,-0.054 -0.662,-0.161c-0.195,-0.107 -0.35,-0.257 -0.461,-0.446c-0.113,-0.19 -0.168,-0.403 -0.168,-0.639c0,-0.236 0.055,-0.449 0.168,-0.639c0.111,-0.19 0.266,-0.34 0.461,-0.446c0.196,-0.107 0.418,-0.161 0.665,-0.161c0.188,0 0.358,0.029 0.515,0.089c0.157,0.06 0.288,0.147 0.396,0.265l-0.161,0.164c-0.193,-0.191 -0.439,-0.287 -0.738,-0.287c-0.198,0 -0.377,0.044 -0.537,0.132c-0.16,0.087 -0.285,0.209 -0.376,0.363c-0.091,0.155 -0.137,0.329 -0.137,0.521c0,0.192 0.046,0.363 0.137,0.518c0.091,0.155 0.216,0.275 0.374,0.364c0.159,0.089 0.338,0.133 0.536,0.133c0.252,0 0.465,-0.063 0.64,-0.189v-0.827z"/><path d="M246.53304,186.2385v0.224h-1.732v-2.45h1.68v0.225h-1.422v0.871h1.267v0.221h-1.267v0.91h1.474z"/><path d="M247.61804,184.2365h-0.861v-0.225h1.981v0.225h-0.861v2.226h-0.259z"/><path d="M250.82704,185.3105l-0.5,0.508v0.644h-0.259v-2.45h0.259v1.48l1.438,-1.48h0.297l-1.06,1.109l1.134,1.341h-0.309z"/><path d="M252.55604,184.0115h0.259v2.45h-0.259z"/><path d="M253.61304,184.0115h0.259v2.227h1.372v0.224h-1.631z"/><path d="M255.67404,184.0115h0.259v2.227h1.372v0.224h-1.631z"/><path d="M257.85902,186.3955c-0.166,-0.059 -0.295,-0.136 -0.387,-0.231l0.102,-0.199c0.089,0.089 0.207,0.16 0.354,0.215c0.147,0.056 0.299,0.083 0.455,0.083c0.22,0 0.384,-0.041 0.494,-0.121c0.109,-0.08 0.164,-0.185 0.164,-0.313c0,-0.098 -0.029,-0.176 -0.089,-0.234c-0.06,-0.058 -0.133,-0.104 -0.219,-0.135c-0.087,-0.031 -0.207,-0.065 -0.36,-0.104c-0.185,-0.046 -0.332,-0.091 -0.441,-0.135c-0.109,-0.043 -0.204,-0.108 -0.282,-0.197c-0.078,-0.089 -0.117,-0.209 -0.117,-0.36c0,-0.124 0.033,-0.236 0.099,-0.338c0.066,-0.102 0.165,-0.183 0.301,-0.243c0.135,-0.061 0.304,-0.091 0.504,-0.091c0.14,0 0.277,0.019 0.411,0.058c0.135,0.038 0.25,0.092 0.349,0.159l-0.088,0.206c-0.103,-0.067 -0.212,-0.118 -0.329,-0.152c-0.116,-0.033 -0.23,-0.051 -0.343,-0.051c-0.215,0 -0.376,0.042 -0.484,0.125c-0.108,0.083 -0.163,0.189 -0.163,0.32c0,0.098 0.029,0.177 0.089,0.236c0.06,0.059 0.135,0.104 0.225,0.136c0.09,0.032 0.21,0.066 0.362,0.104c0.18,0.044 0.324,0.088 0.436,0.131c0.11,0.044 0.205,0.109 0.281,0.196c0.077,0.088 0.116,0.206 0.116,0.355c0,0.124 -0.033,0.236 -0.1,0.338c-0.067,0.102 -0.169,0.182 -0.307,0.241c-0.138,0.059 -0.307,0.09 -0.508,0.09c-0.183,-0.001 -0.358,-0.03 -0.525,-0.089z"/><path d="M261.25203,184.2365h-0.861v-0.225h1.981v0.225h-0.861v2.226h-0.259z"/><path d="M263.16202,186.3205c-0.197,-0.108 -0.352,-0.258 -0.462,-0.446c-0.111,-0.189 -0.167,-0.401 -0.167,-0.637c0,-0.236 0.056,-0.448 0.167,-0.638c0.11,-0.188 0.265,-0.338 0.462,-0.446c0.197,-0.108 0.417,-0.162 0.659,-0.162c0.243,0 0.462,0.054 0.656,0.161c0.195,0.106 0.349,0.256 0.461,0.446c0.111,0.189 0.168,0.402 0.168,0.639c0,0.235 -0.057,0.448 -0.168,0.639c-0.112,0.189 -0.266,0.339 -0.461,0.446c-0.194,0.107 -0.413,0.161 -0.656,0.161c-0.242,0 -0.462,-0.055 -0.659,-0.163zM264.34601,186.1205c0.156,-0.088 0.278,-0.209 0.367,-0.364c0.089,-0.155 0.133,-0.328 0.133,-0.52c0,-0.192 -0.044,-0.365 -0.133,-0.521c-0.089,-0.154 -0.211,-0.276 -0.367,-0.363c-0.156,-0.088 -0.331,-0.132 -0.525,-0.132c-0.193,0 -0.369,0.044 -0.526,0.132c-0.157,0.087 -0.281,0.209 -0.371,0.363c-0.09,0.155 -0.135,0.329 -0.135,0.521c0,0.192 0.045,0.364 0.135,0.52c0.09,0.156 0.214,0.276 0.371,0.364c0.157,0.087 0.333,0.131 0.526,0.131c0.194,0 0.369,-0.044 0.525,-0.131z"/><path d="M269.967,184.0115l-0.826,2.45h-0.273l-0.717,-2.09l-0.722,2.09h-0.27l-0.825,-2.45h0.266l0.707,2.107l0.731,-2.107h0.241l0.722,2.118l0.717,-2.118z"/><path d="M270.44102,184.0115h0.259v2.45h-0.259z"/><path d="M273.54404,184.0115v2.45h-0.213l-1.575,-1.988v1.988h-0.259v-2.45h0.213l1.579,1.988v-1.988z"/><path d="M274.26802,186.4245c-0.037,-0.036 -0.055,-0.078 -0.055,-0.127c0,-0.052 0.018,-0.095 0.053,-0.128c0.035,-0.034 0.079,-0.051 0.133,-0.051c0.051,0 0.095,0.017 0.13,0.051c0.034,0.033 0.052,0.076 0.052,0.128c0,0.049 -0.018,0.091 -0.052,0.127c-0.035,0.036 -0.079,0.055 -0.13,0.055c-0.052,0 -0.095,-0.019 -0.131,-0.055zM274.25203,184.0115h0.294l-0.052,1.715h-0.192z"/></g><path d="M187.22099,197.75303v-41.82285h103.94974v41.82285z" fill="none" stroke-width="0"/><g fill="#ffcf00" stroke-width="1"><path d="M232.18704,174.8845v1.823l-1.368,1.369l1.824,1.823h-2.735l-1.824,-1.823h-0.456v1.823h-1.823v-6.383h5.014zM230.36304,175.7965l-0.455,-0.456h-2.28v0.911h2.28z"/><path d="M233.09904,178.5325v-5.016h1.823v4.104l0.456,0.456h1.823l0.456,-0.456v-4.104h1.823v5.016l-1.367,1.367h-3.647z"/><path d="M240.39304,174.8845l1.367,-1.368h5.015v1.824h-4.103l-0.229,0.228l0.229,0.229h2.735l1.367,1.367v1.368l-1.367,1.367h-5.015v-1.823h4.103l0.228,-0.229l-0.228,-0.228h-2.735l-1.367,-1.368z"/><path d="M249.51004,177.6205v2.279h-1.823v-6.383h1.823v2.28h2.735v-2.28h1.824v6.383h-1.824v-2.279z"/></g></g></g></svg>