<svg version="1.1" xmlns="http://www.w3.org/2000/svg" xmlns:xlink="http://www.w3.org/1999/xlink" width="28.055" height="6.262" viewBox="0,0,28.055,6.262"><g transform="translate(-226.204,-176.583)"><g data-paper-data="{&quot;isPaintingLayer&quot;:true}" fill="#000000" fill-rule="nonzero" stroke="none" stroke-width="1" stroke-linecap="butt" stroke-linejoin="miter" stroke-miterlimit="10" stroke-dasharray="" stroke-dashoffset="0" style="mix-blend-mode: normal"><g><path/><path d="M232.696,177.925v1.341l-0.463,0.447l0.463,0.447v1.342l-1.391,1.342h-5.101v-6.261h5.101zM230.378,178.372h-2.319v0.447h2.319l0.231,-0.223zM228.059,180.608v0.448h2.319l0.231,-0.224l-0.231,-0.224z"/><path d="M235.479,181.056h3.71v1.789h-5.565v-6.262h5.565v1.789h-3.71v0.447h3.71v1.789h-3.71z"/><path d="M241.276,176.583h3.709l1.391,1.342v4.92h-1.854v-1.342h-2.783v1.342h-1.855v-4.92zM244.058,178.372h-1.855l-0.463,0.447v0.895h2.783v-0.895z"/><path d="M253.796,177.925v1.789l-1.391,1.342l1.854,1.789h-2.782l-1.855,-1.789h-0.464v1.789h-1.854v-6.262h5.102zM251.941,178.819l-0.464,-0.447h-2.319v0.894h2.319z"/><path/></g></g></g></svg>