<svg version="1.1" xmlns="http://www.w3.org/2000/svg" xmlns:xlink="http://www.w3.org/1999/xlink" width="42.433" height="6.262" viewBox="0,0,42.433,6.262"><g transform="translate(-218.784,-176.583)"><g data-paper-data="{&quot;isPaintingLayer&quot;:true}" fill="#000000" fill-rule="nonzero" stroke="none" stroke-width="1" stroke-linecap="butt" stroke-linejoin="miter" stroke-miterlimit="10" stroke-dasharray="" stroke-dashoffset="0" style="mix-blend-mode: normal"><g><path/><path d="M218.784,181.503v-4.92h1.855v4.025l0.464,0.448h1.855l0.463,-0.448v-4.025h1.855v4.92l-1.391,1.342h-3.71z"/><path d="M228.059,179.713v3.131h-1.855v-6.261h1.391l3.246,3.13v-3.13h1.855v6.262h-1.391z"/><path d="M233.624,176.583h5.101l1.392,1.342v3.578l-1.392,1.342h-5.101zM235.479,178.372v2.684h2.319l0.463,-0.448v-1.789l-0.463,-0.447z"/><path d="M242.898,181.056h3.71v1.789h-5.564v-6.262h5.564v1.789h-3.71v0.447h3.71v1.789h-3.71z"/><path d="M248.695,176.583h3.71l1.391,1.342v4.92h-1.854v-1.342h-2.783v1.342h-1.854v-4.92zM251.478,178.372h-1.855l-0.464,0.447v0.895h2.783v-0.895z"/><path d="M254.724,176.583h5.102l1.391,1.342v3.578l-1.391,1.342h-5.102zM256.578,178.372v2.684h2.319l0.464,-0.448v-1.789l-0.464,-0.447z"/><path/></g></g></g></svg>