<svg version="1.1" xmlns="http://www.w3.org/2000/svg" xmlns:xlink="http://www.w3.org/1999/xlink" width="48.5" height="15.5" viewBox="0,0,48.5,15.5"><g transform="translate(-215.75,-172.25)"><g data-paper-data="{&quot;isPaintingLayer&quot;:true}" fill="#ffffff" fill-rule="nonzero" stroke="none" stroke-width="1" stroke-linecap="butt" stroke-linejoin="miter" stroke-miterlimit="10" stroke-dasharray="" stroke-dashoffset="0" style="mix-blend-mode: normal"><g><path d="M233.1745,182.778l-0.008,-4.182l-1.767,3.599h-0.616l-1.767,-3.599v4.182h-0.888v-5.596h1.119l1.848,3.718l1.839,-3.718h1.111v5.597h-0.871z"/><path d="M236.4725,178.029v1.511h2.734v0.848h-2.734v1.543h3.15v0.848h-4.094v-5.597h3.998v0.848h-3.054z"/><path d="M244.7035,182.778l-2.982,-4.014v4.014h-0.943v-5.596h0.928l2.998,4.021v-4.021h0.928v5.597h-0.929z"/><path d="M251.8715,180.46c0,1.463 -0.92,2.358 -2.432,2.358c-1.512,0 -2.438,-0.896 -2.438,-2.358v-3.278h0.943v3.278c0,0.943 0.582,1.511 1.502,1.511c0.912,0 1.48,-0.56 1.48,-1.511v-3.278h0.943v3.278z"/></g><path d="M264.25,172.25v15.5h-48.5v-15.5zM263.75,172.75h-47.5v14.5h47.5z"/></g></g></svg>