<svg version="1.1" xmlns="http://www.w3.org/2000/svg" xmlns:xlink="http://www.w3.org/1999/xlink" width="114.46958" height="19.28896" viewBox="0,0,114.46958,19.28896"><g transform="translate(-182.84537,-176.75292)"><g data-paper-data="{&quot;isPaintingLayer&quot;:true}" fill="#000000" fill-rule="nonzero" stroke="none" stroke-width="1" stroke-linecap="butt" stroke-linejoin="miter" stroke-miterlimit="10" stroke-dasharray="" stroke-dashoffset="0" style="mix-blend-mode: normal"><g><path d="M211.47217,176.75293h1.85547v4.63867h3.71094v1.85547h-5.56641z"/><path d="M219.35792,176.75292h3.71094l1.3916,1.3916v5.10254h-1.85547v-1.3916h-2.7832v1.3916h-1.85547v-5.10254zM222.14112,178.6084h-1.85547l-0.46387,0.46387v0.92773h2.7832v-0.92773z"/><path d="M225.38819,181.85546v-5.10254h1.85547v4.1748l0.46387,0.46387h1.85547l0.46387,-0.46387v-4.1748h1.85547v5.10254l-1.3916,1.3916h-3.71094z"/><path d="M234.66552,179.99999v3.24707h-1.85547v-6.49414h1.3916l3.24707,3.24707v-3.24707h1.85547v6.49414h-1.3916z"/><path d="M245.33448,176.75292l1.3916,1.3916l-1.3916,1.3916l-0.92773,-0.92773h-1.85547l-0.46387,0.46387v1.85547l0.46387,0.46387h1.85547l0.92773,-0.92773l1.3916,1.3916l-1.3916,1.3916h-3.71094l-1.3916,-1.3916v-3.71094l1.3916,-1.3916h3.71094z"/><path d="M249.50927,180.92774v2.31934h-1.85547v-6.49414h1.85547v2.31934h2.7832v-2.31934h1.85547v6.49414h-1.85547v-2.31934z"/><path d="M256.93116,181.39161h3.71094v1.85547h-5.56641v-6.49414h5.56641v1.85547h-3.71094v0.46387h3.71094v1.85547h-3.71094z"/><path d="M268.06396,178.14454v1.85547l-1.3916,1.3916l1.85547,1.85547h-2.7832l-1.85547,-1.85547h-0.46387v1.85547h-1.85547v-6.49414h5.10254zM266.20849,179.07227l-0.46387,-0.46387h-2.31933v0.92773h2.31934z"/></g><text transform="translate(182.93594,193.55) scale(0.18116,0.19935)" font-size="40" xml:space="preserve" fill="#000000" fill-rule="nonzero" stroke="none" stroke-width="1" stroke-linecap="butt" stroke-linejoin="miter" stroke-miterlimit="10" stroke-dasharray="" stroke-dashoffset="0" font-family="Sans Serif" font-weight="normal" text-anchor="start" style="mix-blend-mode: normal"><tspan x="0" dy="0">Fires explosive, bouncy grenades</tspan></text></g></g></svg>