<svg version="1.1" xmlns="http://www.w3.org/2000/svg" xmlns:xlink="http://www.w3.org/1999/xlink" width="35.004" height="6.323" viewBox="0,0,35.004,6.323"><g transform="translate(-222.448,-176.844)"><g data-paper-data="{&quot;isPaintingLayer&quot;:true}" fill="#000000" fill-rule="nonzero" stroke="none" stroke-width="1" stroke-linecap="butt" stroke-linejoin="miter" stroke-miterlimit="10" stroke-dasharray="" stroke-dashoffset="0" style="mix-blend-mode: normal"><path/><path d="M222.448,181.812v-3.613l1.355,-1.355h3.613l1.355,1.355l-0.903,0.903h0.903v4.064h-4.968zM224.254,179.102v1.807l0.452,0.451h2.258v-0.451h-1.807v-1.807h1.807l-0.452,-0.452h-1.807z"/><path d="M230.803,176.844h3.613l1.355,1.355v4.968h-1.807v-1.355h-2.71v1.354h-1.807v-4.967zM233.513,178.651h-1.807l-0.452,0.452v0.903h2.71v-0.904z"/><path d="M238.481,179.554v3.613h-1.807v-6.323h1.807l1.355,1.355l1.355,-1.355h1.807v6.323h-1.807v-3.613l-1.355,1.355z"/><path d="M245.708,179.554v3.613h-1.807v-6.323h1.807l1.354,1.355l1.356,-1.355h1.807v6.323h-1.807v-3.613l-1.356,1.355z"/><path d="M252.484,176.844h3.613l1.355,1.355v4.968h-1.807v-1.355h-2.711v1.354h-1.807v-4.967zM255.194,178.651h-1.807l-0.452,0.452v0.903h2.711v-0.904z"/><path/></g></g></svg>