<svg version="1.1" xmlns="http://www.w3.org/2000/svg" xmlns:xlink="http://www.w3.org/1999/xlink" width="144" height="8.33704" viewBox="0,0,144,8.33704"><g transform="translate(-168,-175.83148)"><g data-paper-data="{&quot;isPaintingLayer&quot;:true}" fill="#000000" fill-rule="nonzero" stroke="none" stroke-width="1" stroke-linecap="butt" stroke-linejoin="miter" stroke-miterlimit="10" stroke-dasharray="" stroke-dashoffset="0" style="mix-blend-mode: normal"><path d="M312,175.83148v0.16852v8v0.16852h-144v-0.16852v-8v-0.16852zM297.85004,176.33142v7.3371h13.64996v-7.3371zM297.35004,176.33142h-13.90002v7.3371h13.90002zM182.15002,183.66852v-7.3371h-13.65002v7.3371zM196.54998,183.66852v-7.3371h-13.89996v7.3371zM210.95001,183.66852v-7.3371h-13.90002v7.3371zM225.34997,183.66852v-7.3371h-13.89996v7.3371zM239.75,183.66852v-7.3371h-13.90002v7.3371zM254.15002,183.66852v-7.3371h-13.90002v7.3371zM268.54998,183.66852v-7.3371h-13.89996v7.3371zM282.95001,183.66852v-7.3371h-13.90002v7.3371z"/></g></g></svg>