<svg version="1.1" xmlns="http://www.w3.org/2000/svg" xmlns:xlink="http://www.w3.org/1999/xlink" width="28.25" height="27.25" viewBox="0,0,28.25,27.25"><defs><linearGradient x1="240.0005" y1="181.9863" x2="240.0005" y2="172.1667" gradientUnits="userSpaceOnUse" id="color-1"><stop offset="0" stop-color="#ffffff" stop-opacity="0.01"/><stop offset="1" stop-color="#000000" stop-opacity="0"/></linearGradient></defs><g transform="translate(-225.875,-166.375)"><g data-paper-data="{&quot;isPaintingLayer&quot;:true}" fill-rule="nonzero" stroke="none" stroke-linecap="butt" stroke-linejoin="miter" stroke-miterlimit="10" stroke-dasharray="" stroke-dashoffset="0" style="mix-blend-mode: normal"><path d="M238.956,187.188v-14.282h-3.288v-2.52h6.12v16.801h-2.832z" fill="#ffffff" stroke-width="1"/><path d="M235.788,178.553c0.024,-0.503 0.084,-0.995 0.18,-1.474c0.096,-0.479 0.234,-0.935 0.414,-1.367c0.18,-0.431 0.426,-0.809 0.738,-1.132c0.312,-0.324 0.705,-0.581 1.179,-0.773c0.474,-0.191 1.041,-0.287 1.701,-0.287c0.66,0 1.227,0.096 1.701,0.288c0.474,0.192 0.867,0.449 1.179,0.773c0.312,0.323 0.558,0.701 0.738,1.132c0.18,0.432 0.317,0.887 0.414,1.367c0.096,0.479 0.155,0.97 0.18,1.474c0.025,0.504 0.036,0.989 0.036,1.456c0,0.469 -0.012,0.956 -0.036,1.46c-0.024,0.505 -0.084,0.998 -0.18,1.479c-0.097,0.48 -0.234,0.934 -0.414,1.36c-0.181,0.427 -0.427,0.802 -0.738,1.127c-0.312,0.324 -0.702,0.579 -1.17,0.767c-0.468,0.186 -1.038,0.279 -1.71,0.279c-0.66,0 -1.227,-0.094 -1.701,-0.279c-0.475,-0.188 -0.867,-0.442 -1.179,-0.767c-0.312,-0.325 -0.558,-0.7 -0.738,-1.127c-0.18,-0.427 -0.318,-0.88 -0.414,-1.36c-0.096,-0.48 -0.156,-0.974 -0.18,-1.479c-0.024,-0.504 -0.036,-0.991 -0.036,-1.46c0,-0.468 0.012,-0.954 0.036,-1.457zM237.417,181.6c0.03,0.592 0.126,1.149 0.288,1.67c0.162,0.521 0.423,0.962 0.783,1.321c0.36,0.359 0.864,0.539 1.512,0.539c0.648,0 1.152,-0.18 1.512,-0.539c0.36,-0.359 0.621,-0.8 0.783,-1.321c0.162,-0.521 0.258,-1.078 0.288,-1.67c0.03,-0.594 0.045,-1.129 0.045,-1.609c0,-0.312 -0.003,-0.656 -0.009,-1.033c-0.006,-0.377 -0.036,-0.754 -0.09,-1.132c-0.055,-0.377 -0.133,-0.746 -0.234,-1.105c-0.101,-0.359 -0.252,-0.674 -0.449,-0.943c-0.199,-0.27 -0.447,-0.488 -0.748,-0.656c-0.3,-0.168 -0.666,-0.252 -1.098,-0.252c-0.432,0 -0.798,0.084 -1.098,0.252c-0.3,0.167 -0.549,0.386 -0.747,0.656c-0.198,0.27 -0.348,0.584 -0.45,0.943c-0.102,0.359 -0.18,0.728 -0.234,1.105c-0.054,0.377 -0.084,0.754 -0.09,1.132c-0.006,0.377 -0.009,0.722 -0.009,1.033c0,0.479 0.015,1.015 0.045,1.609z" fill="url(#color-1)" stroke-width="1"/><path d="M225.875,193.625v-27.25h28.25v27.25z" fill="none" stroke-width="0"/></g></g></svg>