<svg version="1.1" xmlns="http://www.w3.org/2000/svg" xmlns:xlink="http://www.w3.org/1999/xlink" width="35.928" height="6.262" viewBox="0,0,35.928,6.262"><g transform="translate(-221.694,-176.583)"><g data-paper-data="{&quot;isPaintingLayer&quot;:true}" fill="#000000" fill-rule="nonzero" stroke="none" stroke-width="1" stroke-linecap="butt" stroke-linejoin="miter" stroke-miterlimit="10" stroke-dasharray="" stroke-dashoffset="0" style="mix-blend-mode: normal"><g><path d="M221.694,178.633z"/><path d="M228.871,177.925v1.789l-1.391,1.342l1.855,1.789h-2.782l-1.855,-1.789h-0.464v1.789h-1.855v-6.262h5.101zM227.016,178.819l-0.463,-0.447h-2.319v0.894h2.319z"/><path d="M229.798,181.503v-3.578l1.391,-1.342h3.71l1.391,1.342v3.578l-1.391,1.342h-3.71zM231.653,178.819v1.789l0.464,0.448h1.855l0.463,-0.448v-1.789l-0.463,-0.447h-1.855z"/><path d="M237.218,181.503v-3.578l1.391,-1.342h3.71l1.391,1.342l-0.928,0.894h0.928v4.026h-5.101zM239.073,178.819v1.789l0.464,0.448h2.318v-0.448h-1.855v-1.789h1.855l-0.464,-0.447h-1.854z"/><path d="M244.638,181.503v-4.92h1.854v4.025l0.464,0.448h1.855l0.464,-0.448v-4.025h1.854v4.92l-1.391,1.342h-3.71z"/><path d="M253.912,181.056h3.71v1.789h-5.564v-6.262h5.564v1.789h-3.71v0.447h3.71v1.789h-3.71z"/><path/></g></g></g></svg>