<svg xmlns="http://www.w3.org/2000/svg" xmlns:xlink="http://www.w3.org/1999/xlink" version="1.1" width="23.334999084472656" height="5.197999954223633" viewBox="0.3320000171661377 0.4010000228881836 23.334999084472656 5.197999954223633">
  <!-- Exported by Scratch - http://scratch.mit.edu/ -->
  <g id="ID0.8449204294010997">
    <path id="ID0.4893857934512198" fill="#FFFFFF" d="M 2.865 1.537 L 2.865 5.099 L 2.157 5.099 L 2.157 1.537 L 0.832 1.537 L 0.832 0.901 L 4.196 0.901 L 4.196 1.537 L 2.865 1.537 Z " stroke-width="1"/>
    <path id="ID0.7898817658424377" fill="#FFFFFF" d="M 5.512 1.537 L 5.512 2.67 L 7.563 2.67 L 7.563 3.306 L 5.512 3.306 L 5.512 4.463 L 7.874 4.463 L 7.874 5.099 L 4.804 5.099 L 4.804 0.901 L 7.803 0.901 L 7.803 1.537 L 5.512 1.537 Z " stroke-width="1"/>
    <path id="ID0.7928031417541206" fill="#FFFFFF" d="M 9.334 4.151 L 8.932 5.098 L 8.195 5.098 L 10.048 0.901 L 10.774 0.901 L 12.61 5.098 L 11.854 5.098 L 11.45 4.151 L 9.334 4.151 Z M 10.389 1.657 L 9.598 3.521 L 11.181 3.521 L 10.389 1.657 Z " stroke-width="1"/>
    <path id="ID0.7958143022842705" fill="#FFFFFF" d="M 16.952 5.099 L 16.946 1.963 L 15.62 4.661 L 15.159 4.661 L 13.834 1.963 L 13.834 5.099 L 13.168 5.099 L 13.168 0.901 L 14.008 0.901 L 15.393 3.689 L 16.772 0.901 L 17.606 0.901 L 17.606 5.098 L 16.952 5.098 Z " stroke-width="1"/>
    <path id="ID0.8620266574434936" fill="#FFFFFF" d="M 21.896 3.438 L 21.896 2.442 L 22.556 2.442 L 22.556 3.437 L 23.167 3.437 L 23.167 4.067 L 22.556 4.067 L 22.556 5.098 L 21.896 5.098 L 21.896 4.067 L 19.893 4.067 L 19.893 3.54 L 21.327 0.901 L 22.011 0.901 L 20.65 3.437 L 21.896 3.437 Z " stroke-width="1"/>
  </g>
</svg>